%TF.GenerationSoftware,KiCad,Pcbnew,(5.1.8)-1*%
%TF.CreationDate,2020-11-23T23:28:54+01:00*%
%TF.ProjectId,KLinPump_PCB,4b4c696e-5075-46d7-905f-5043422e6b69,rev?*%
%TF.SameCoordinates,PX6a9eec0PY52f83c0*%
%TF.FileFunction,Legend,Bot*%
%TF.FilePolarity,Positive*%
%FSLAX46Y46*%
G04 Gerber Fmt 4.6, Leading zero omitted, Abs format (unit mm)*
G04 Created by KiCad (PCBNEW (5.1.8)-1) date 2020-11-23 23:28:54*
%MOMM*%
%LPD*%
G01*
G04 APERTURE LIST*
%ADD10C,0.100000*%
%ADD11C,0.120000*%
%ADD12C,0.150000*%
G04 APERTURE END LIST*
D10*
X20307142Y-7801190D02*
X20307142Y-7301190D01*
X20021428Y-7801190D02*
X20235714Y-7515476D01*
X20021428Y-7301190D02*
X20307142Y-7586904D01*
X19569047Y-7801190D02*
X19807142Y-7801190D01*
X19807142Y-7301190D01*
X19402380Y-7801190D02*
X19402380Y-7467857D01*
X19402380Y-7301190D02*
X19426190Y-7325000D01*
X19402380Y-7348809D01*
X19378571Y-7325000D01*
X19402380Y-7301190D01*
X19402380Y-7348809D01*
X19164285Y-7467857D02*
X19164285Y-7801190D01*
X19164285Y-7515476D02*
X19140476Y-7491666D01*
X19092857Y-7467857D01*
X19021428Y-7467857D01*
X18973809Y-7491666D01*
X18950000Y-7539285D01*
X18950000Y-7801190D01*
X18711904Y-7801190D02*
X18711904Y-7301190D01*
X18521428Y-7301190D01*
X18473809Y-7325000D01*
X18450000Y-7348809D01*
X18426190Y-7396428D01*
X18426190Y-7467857D01*
X18450000Y-7515476D01*
X18473809Y-7539285D01*
X18521428Y-7563095D01*
X18711904Y-7563095D01*
X17997619Y-7467857D02*
X17997619Y-7801190D01*
X18211904Y-7467857D02*
X18211904Y-7729761D01*
X18188095Y-7777380D01*
X18140476Y-7801190D01*
X18069047Y-7801190D01*
X18021428Y-7777380D01*
X17997619Y-7753571D01*
X17759523Y-7801190D02*
X17759523Y-7467857D01*
X17759523Y-7515476D02*
X17735714Y-7491666D01*
X17688095Y-7467857D01*
X17616666Y-7467857D01*
X17569047Y-7491666D01*
X17545238Y-7539285D01*
X17545238Y-7801190D01*
X17545238Y-7539285D02*
X17521428Y-7491666D01*
X17473809Y-7467857D01*
X17402380Y-7467857D01*
X17354761Y-7491666D01*
X17330952Y-7539285D01*
X17330952Y-7801190D01*
X17092857Y-7467857D02*
X17092857Y-7967857D01*
X17092857Y-7491666D02*
X17045238Y-7467857D01*
X16950000Y-7467857D01*
X16902380Y-7491666D01*
X16878571Y-7515476D01*
X16854761Y-7563095D01*
X16854761Y-7705952D01*
X16878571Y-7753571D01*
X16902380Y-7777380D01*
X16950000Y-7801190D01*
X17045238Y-7801190D01*
X17092857Y-7777380D01*
X16259523Y-7610714D02*
X15878571Y-7610714D01*
X15330952Y-7301190D02*
X15164285Y-7801190D01*
X14997619Y-7301190D01*
X14569047Y-7801190D02*
X14854761Y-7801190D01*
X14711904Y-7801190D02*
X14711904Y-7301190D01*
X14759523Y-7372619D01*
X14807142Y-7420238D01*
X14854761Y-7444047D01*
X21283333Y-8651190D02*
X21283333Y-8151190D01*
X21092857Y-8151190D01*
X21045238Y-8175000D01*
X21021428Y-8198809D01*
X20997619Y-8246428D01*
X20997619Y-8317857D01*
X21021428Y-8365476D01*
X21045238Y-8389285D01*
X21092857Y-8413095D01*
X21283333Y-8413095D01*
X20783333Y-8651190D02*
X20783333Y-8317857D01*
X20783333Y-8413095D02*
X20759523Y-8365476D01*
X20735714Y-8341666D01*
X20688095Y-8317857D01*
X20640476Y-8317857D01*
X20402380Y-8651190D02*
X20450000Y-8627380D01*
X20473809Y-8603571D01*
X20497619Y-8555952D01*
X20497619Y-8413095D01*
X20473809Y-8365476D01*
X20450000Y-8341666D01*
X20402380Y-8317857D01*
X20330952Y-8317857D01*
X20283333Y-8341666D01*
X20259523Y-8365476D01*
X20235714Y-8413095D01*
X20235714Y-8555952D01*
X20259523Y-8603571D01*
X20283333Y-8627380D01*
X20330952Y-8651190D01*
X20402380Y-8651190D01*
X20021428Y-8317857D02*
X20021428Y-8746428D01*
X20045238Y-8794047D01*
X20092857Y-8817857D01*
X20116666Y-8817857D01*
X20021428Y-8151190D02*
X20045238Y-8175000D01*
X20021428Y-8198809D01*
X19997619Y-8175000D01*
X20021428Y-8151190D01*
X20021428Y-8198809D01*
X19592857Y-8627380D02*
X19640476Y-8651190D01*
X19735714Y-8651190D01*
X19783333Y-8627380D01*
X19807142Y-8579761D01*
X19807142Y-8389285D01*
X19783333Y-8341666D01*
X19735714Y-8317857D01*
X19640476Y-8317857D01*
X19592857Y-8341666D01*
X19569047Y-8389285D01*
X19569047Y-8436904D01*
X19807142Y-8484523D01*
X19140476Y-8627380D02*
X19188095Y-8651190D01*
X19283333Y-8651190D01*
X19330952Y-8627380D01*
X19354761Y-8603571D01*
X19378571Y-8555952D01*
X19378571Y-8413095D01*
X19354761Y-8365476D01*
X19330952Y-8341666D01*
X19283333Y-8317857D01*
X19188095Y-8317857D01*
X19140476Y-8341666D01*
X18997619Y-8317857D02*
X18807142Y-8317857D01*
X18926190Y-8151190D02*
X18926190Y-8579761D01*
X18902380Y-8627380D01*
X18854761Y-8651190D01*
X18807142Y-8651190D01*
X18259523Y-8651190D02*
X18259523Y-8151190D01*
X17973809Y-8651190D02*
X18188095Y-8365476D01*
X17973809Y-8151190D02*
X18259523Y-8436904D01*
X17521428Y-8651190D02*
X17759523Y-8651190D01*
X17759523Y-8151190D01*
X17354761Y-8651190D02*
X17354761Y-8317857D01*
X17354761Y-8151190D02*
X17378571Y-8175000D01*
X17354761Y-8198809D01*
X17330952Y-8175000D01*
X17354761Y-8151190D01*
X17354761Y-8198809D01*
X17116666Y-8317857D02*
X17116666Y-8651190D01*
X17116666Y-8365476D02*
X17092857Y-8341666D01*
X17045238Y-8317857D01*
X16973809Y-8317857D01*
X16926190Y-8341666D01*
X16902380Y-8389285D01*
X16902380Y-8651190D01*
X16283333Y-8460714D02*
X15902380Y-8460714D01*
X15307142Y-8198809D02*
X15283333Y-8175000D01*
X15235714Y-8151190D01*
X15116666Y-8151190D01*
X15069047Y-8175000D01*
X15045238Y-8198809D01*
X15021428Y-8246428D01*
X15021428Y-8294047D01*
X15045238Y-8365476D01*
X15330952Y-8651190D01*
X15021428Y-8651190D01*
X14711904Y-8151190D02*
X14664285Y-8151190D01*
X14616666Y-8175000D01*
X14592857Y-8198809D01*
X14569047Y-8246428D01*
X14545238Y-8341666D01*
X14545238Y-8460714D01*
X14569047Y-8555952D01*
X14592857Y-8603571D01*
X14616666Y-8627380D01*
X14664285Y-8651190D01*
X14711904Y-8651190D01*
X14759523Y-8627380D01*
X14783333Y-8603571D01*
X14807142Y-8555952D01*
X14830952Y-8460714D01*
X14830952Y-8341666D01*
X14807142Y-8246428D01*
X14783333Y-8198809D01*
X14759523Y-8175000D01*
X14711904Y-8151190D01*
X14354761Y-8198809D02*
X14330952Y-8175000D01*
X14283333Y-8151190D01*
X14164285Y-8151190D01*
X14116666Y-8175000D01*
X14092857Y-8198809D01*
X14069047Y-8246428D01*
X14069047Y-8294047D01*
X14092857Y-8365476D01*
X14378571Y-8651190D01*
X14069047Y-8651190D01*
X13592857Y-8651190D02*
X13878571Y-8651190D01*
X13735714Y-8651190D02*
X13735714Y-8151190D01*
X13783333Y-8222619D01*
X13830952Y-8270238D01*
X13878571Y-8294047D01*
D11*
%TO.C,R3*%
X16927064Y-9190000D02*
X15472936Y-9190000D01*
X16927064Y-11010000D02*
X15472936Y-11010000D01*
%TO.C,C8*%
X13940000Y-5390580D02*
X13940000Y-5109420D01*
X14960000Y-5390580D02*
X14960000Y-5109420D01*
%TO.C,C4*%
X12430000Y-5390580D02*
X12430000Y-5109420D01*
X13450000Y-5390580D02*
X13450000Y-5109420D01*
%TO.C,C1*%
X11960000Y-5415580D02*
X11960000Y-5134420D01*
X10940000Y-5415580D02*
X10940000Y-5134420D01*
%TO.C,C3*%
X10460000Y-5390580D02*
X10460000Y-5109420D01*
X9440000Y-5390580D02*
X9440000Y-5109420D01*
%TO.C,C2*%
X16559420Y-11740000D02*
X16840580Y-11740000D01*
X16559420Y-12760000D02*
X16840580Y-12760000D01*
%TO.C,C5*%
X4354420Y-9950000D02*
X4635580Y-9950000D01*
X4354420Y-8930000D02*
X4635580Y-8930000D01*
%TO.C,C6*%
X4359420Y-7390000D02*
X4640580Y-7390000D01*
X4359420Y-8410000D02*
X4640580Y-8410000D01*
%TO.C,C7*%
X11840580Y-7240000D02*
X11559420Y-7240000D01*
X11840580Y-8260000D02*
X11559420Y-8260000D01*
%TO.C,C9*%
X4309420Y-6835000D02*
X4590580Y-6835000D01*
X4309420Y-5815000D02*
X4590580Y-5815000D01*
%TO.C,C10*%
X12840580Y-21740000D02*
X12559420Y-21740000D01*
X12840580Y-22760000D02*
X12559420Y-22760000D01*
%TO.C,C11*%
X20690000Y-18640580D02*
X20690000Y-18359420D01*
X21710000Y-18640580D02*
X21710000Y-18359420D01*
%TO.C,C12*%
X19710000Y-18359420D02*
X19710000Y-18640580D01*
X18690000Y-18359420D02*
X18690000Y-18640580D01*
%TO.C,R5*%
X17972500Y-18337742D02*
X17972500Y-18812258D01*
X16927500Y-18337742D02*
X16927500Y-18812258D01*
%TO.C,D1*%
X10300000Y-17400000D02*
X14200000Y-17400000D01*
X10300000Y-15400000D02*
X14200000Y-15400000D01*
X10300000Y-17400000D02*
X10300000Y-15400000D01*
%TO.C,D2*%
X14750000Y-11250000D02*
X14750000Y-13250000D01*
X14750000Y-13250000D02*
X10850000Y-13250000D01*
X14750000Y-11250000D02*
X10850000Y-11250000D01*
%TO.C,R7*%
X7177500Y-16012742D02*
X7177500Y-16487258D01*
X8222500Y-16012742D02*
X8222500Y-16487258D01*
%TO.C,R3*%
D10*
X13483333Y-10026190D02*
X13650000Y-9788095D01*
X13769047Y-10026190D02*
X13769047Y-9526190D01*
X13578571Y-9526190D01*
X13530952Y-9550000D01*
X13507142Y-9573809D01*
X13483333Y-9621428D01*
X13483333Y-9692857D01*
X13507142Y-9740476D01*
X13530952Y-9764285D01*
X13578571Y-9788095D01*
X13769047Y-9788095D01*
X13316666Y-9526190D02*
X13007142Y-9526190D01*
X13173809Y-9716666D01*
X13102380Y-9716666D01*
X13054761Y-9740476D01*
X13030952Y-9764285D01*
X13007142Y-9811904D01*
X13007142Y-9930952D01*
X13030952Y-9978571D01*
X13054761Y-10002380D01*
X13102380Y-10026190D01*
X13245238Y-10026190D01*
X13292857Y-10002380D01*
X13316666Y-9978571D01*
%TO.C,C8*%
X14628571Y-3416666D02*
X14652380Y-3392857D01*
X14676190Y-3321428D01*
X14676190Y-3273809D01*
X14652380Y-3202380D01*
X14604761Y-3154761D01*
X14557142Y-3130952D01*
X14461904Y-3107142D01*
X14390476Y-3107142D01*
X14295238Y-3130952D01*
X14247619Y-3154761D01*
X14200000Y-3202380D01*
X14176190Y-3273809D01*
X14176190Y-3321428D01*
X14200000Y-3392857D01*
X14223809Y-3416666D01*
X14390476Y-3702380D02*
X14366666Y-3654761D01*
X14342857Y-3630952D01*
X14295238Y-3607142D01*
X14271428Y-3607142D01*
X14223809Y-3630952D01*
X14200000Y-3654761D01*
X14176190Y-3702380D01*
X14176190Y-3797619D01*
X14200000Y-3845238D01*
X14223809Y-3869047D01*
X14271428Y-3892857D01*
X14295238Y-3892857D01*
X14342857Y-3869047D01*
X14366666Y-3845238D01*
X14390476Y-3797619D01*
X14390476Y-3702380D01*
X14414285Y-3654761D01*
X14438095Y-3630952D01*
X14485714Y-3607142D01*
X14580952Y-3607142D01*
X14628571Y-3630952D01*
X14652380Y-3654761D01*
X14676190Y-3702380D01*
X14676190Y-3797619D01*
X14652380Y-3845238D01*
X14628571Y-3869047D01*
X14580952Y-3892857D01*
X14485714Y-3892857D01*
X14438095Y-3869047D01*
X14414285Y-3845238D01*
X14390476Y-3797619D01*
%TO.C,C4*%
X13128571Y-3416666D02*
X13152380Y-3392857D01*
X13176190Y-3321428D01*
X13176190Y-3273809D01*
X13152380Y-3202380D01*
X13104761Y-3154761D01*
X13057142Y-3130952D01*
X12961904Y-3107142D01*
X12890476Y-3107142D01*
X12795238Y-3130952D01*
X12747619Y-3154761D01*
X12700000Y-3202380D01*
X12676190Y-3273809D01*
X12676190Y-3321428D01*
X12700000Y-3392857D01*
X12723809Y-3416666D01*
X12842857Y-3845238D02*
X13176190Y-3845238D01*
X12652380Y-3726190D02*
X13009523Y-3607142D01*
X13009523Y-3916666D01*
%TO.C,C1*%
X11628571Y-3416666D02*
X11652380Y-3392857D01*
X11676190Y-3321428D01*
X11676190Y-3273809D01*
X11652380Y-3202380D01*
X11604761Y-3154761D01*
X11557142Y-3130952D01*
X11461904Y-3107142D01*
X11390476Y-3107142D01*
X11295238Y-3130952D01*
X11247619Y-3154761D01*
X11200000Y-3202380D01*
X11176190Y-3273809D01*
X11176190Y-3321428D01*
X11200000Y-3392857D01*
X11223809Y-3416666D01*
X11676190Y-3892857D02*
X11676190Y-3607142D01*
X11676190Y-3750000D02*
X11176190Y-3750000D01*
X11247619Y-3702380D01*
X11295238Y-3654761D01*
X11319047Y-3607142D01*
%TO.C,C3*%
X10128571Y-3416666D02*
X10152380Y-3392857D01*
X10176190Y-3321428D01*
X10176190Y-3273809D01*
X10152380Y-3202380D01*
X10104761Y-3154761D01*
X10057142Y-3130952D01*
X9961904Y-3107142D01*
X9890476Y-3107142D01*
X9795238Y-3130952D01*
X9747619Y-3154761D01*
X9700000Y-3202380D01*
X9676190Y-3273809D01*
X9676190Y-3321428D01*
X9700000Y-3392857D01*
X9723809Y-3416666D01*
X9676190Y-3583333D02*
X9676190Y-3892857D01*
X9866666Y-3726190D01*
X9866666Y-3797619D01*
X9890476Y-3845238D01*
X9914285Y-3869047D01*
X9961904Y-3892857D01*
X10080952Y-3892857D01*
X10128571Y-3869047D01*
X10152380Y-3845238D01*
X10176190Y-3797619D01*
X10176190Y-3654761D01*
X10152380Y-3607142D01*
X10128571Y-3583333D01*
%TO.C,C2*%
X16878571Y-13416666D02*
X16902380Y-13392857D01*
X16926190Y-13321428D01*
X16926190Y-13273809D01*
X16902380Y-13202380D01*
X16854761Y-13154761D01*
X16807142Y-13130952D01*
X16711904Y-13107142D01*
X16640476Y-13107142D01*
X16545238Y-13130952D01*
X16497619Y-13154761D01*
X16450000Y-13202380D01*
X16426190Y-13273809D01*
X16426190Y-13321428D01*
X16450000Y-13392857D01*
X16473809Y-13416666D01*
X16473809Y-13607142D02*
X16450000Y-13630952D01*
X16426190Y-13678571D01*
X16426190Y-13797619D01*
X16450000Y-13845238D01*
X16473809Y-13869047D01*
X16521428Y-13892857D01*
X16569047Y-13892857D01*
X16640476Y-13869047D01*
X16926190Y-13583333D01*
X16926190Y-13892857D01*
%TO.C,C5*%
X6533333Y-9678571D02*
X6557142Y-9702380D01*
X6628571Y-9726190D01*
X6676190Y-9726190D01*
X6747619Y-9702380D01*
X6795238Y-9654761D01*
X6819047Y-9607142D01*
X6842857Y-9511904D01*
X6842857Y-9440476D01*
X6819047Y-9345238D01*
X6795238Y-9297619D01*
X6747619Y-9250000D01*
X6676190Y-9226190D01*
X6628571Y-9226190D01*
X6557142Y-9250000D01*
X6533333Y-9273809D01*
X6080952Y-9226190D02*
X6319047Y-9226190D01*
X6342857Y-9464285D01*
X6319047Y-9440476D01*
X6271428Y-9416666D01*
X6152380Y-9416666D01*
X6104761Y-9440476D01*
X6080952Y-9464285D01*
X6057142Y-9511904D01*
X6057142Y-9630952D01*
X6080952Y-9678571D01*
X6104761Y-9702380D01*
X6152380Y-9726190D01*
X6271428Y-9726190D01*
X6319047Y-9702380D01*
X6342857Y-9678571D01*
%TO.C,C6*%
X6533333Y-8178571D02*
X6557142Y-8202380D01*
X6628571Y-8226190D01*
X6676190Y-8226190D01*
X6747619Y-8202380D01*
X6795238Y-8154761D01*
X6819047Y-8107142D01*
X6842857Y-8011904D01*
X6842857Y-7940476D01*
X6819047Y-7845238D01*
X6795238Y-7797619D01*
X6747619Y-7750000D01*
X6676190Y-7726190D01*
X6628571Y-7726190D01*
X6557142Y-7750000D01*
X6533333Y-7773809D01*
X6104761Y-7726190D02*
X6200000Y-7726190D01*
X6247619Y-7750000D01*
X6271428Y-7773809D01*
X6319047Y-7845238D01*
X6342857Y-7940476D01*
X6342857Y-8130952D01*
X6319047Y-8178571D01*
X6295238Y-8202380D01*
X6247619Y-8226190D01*
X6152380Y-8226190D01*
X6104761Y-8202380D01*
X6080952Y-8178571D01*
X6057142Y-8130952D01*
X6057142Y-8011904D01*
X6080952Y-7964285D01*
X6104761Y-7940476D01*
X6152380Y-7916666D01*
X6247619Y-7916666D01*
X6295238Y-7940476D01*
X6319047Y-7964285D01*
X6342857Y-8011904D01*
%TO.C,C7*%
X9783333Y-7928571D02*
X9807142Y-7952380D01*
X9878571Y-7976190D01*
X9926190Y-7976190D01*
X9997619Y-7952380D01*
X10045238Y-7904761D01*
X10069047Y-7857142D01*
X10092857Y-7761904D01*
X10092857Y-7690476D01*
X10069047Y-7595238D01*
X10045238Y-7547619D01*
X9997619Y-7500000D01*
X9926190Y-7476190D01*
X9878571Y-7476190D01*
X9807142Y-7500000D01*
X9783333Y-7523809D01*
X9616666Y-7476190D02*
X9283333Y-7476190D01*
X9497619Y-7976190D01*
%TO.C,C9*%
X6533333Y-6428571D02*
X6557142Y-6452380D01*
X6628571Y-6476190D01*
X6676190Y-6476190D01*
X6747619Y-6452380D01*
X6795238Y-6404761D01*
X6819047Y-6357142D01*
X6842857Y-6261904D01*
X6842857Y-6190476D01*
X6819047Y-6095238D01*
X6795238Y-6047619D01*
X6747619Y-6000000D01*
X6676190Y-5976190D01*
X6628571Y-5976190D01*
X6557142Y-6000000D01*
X6533333Y-6023809D01*
X6295238Y-6476190D02*
X6200000Y-6476190D01*
X6152380Y-6452380D01*
X6128571Y-6428571D01*
X6080952Y-6357142D01*
X6057142Y-6261904D01*
X6057142Y-6071428D01*
X6080952Y-6023809D01*
X6104761Y-6000000D01*
X6152380Y-5976190D01*
X6247619Y-5976190D01*
X6295238Y-6000000D01*
X6319047Y-6023809D01*
X6342857Y-6071428D01*
X6342857Y-6190476D01*
X6319047Y-6238095D01*
X6295238Y-6261904D01*
X6247619Y-6285714D01*
X6152380Y-6285714D01*
X6104761Y-6261904D01*
X6080952Y-6238095D01*
X6057142Y-6190476D01*
%TO.C,C10*%
X12914285Y-23614285D02*
X12942857Y-23585714D01*
X12971428Y-23500000D01*
X12971428Y-23442857D01*
X12942857Y-23357142D01*
X12885714Y-23300000D01*
X12828571Y-23271428D01*
X12714285Y-23242857D01*
X12628571Y-23242857D01*
X12514285Y-23271428D01*
X12457142Y-23300000D01*
X12400000Y-23357142D01*
X12371428Y-23442857D01*
X12371428Y-23500000D01*
X12400000Y-23585714D01*
X12428571Y-23614285D01*
X12971428Y-24185714D02*
X12971428Y-23842857D01*
X12971428Y-24014285D02*
X12371428Y-24014285D01*
X12457142Y-23957142D01*
X12514285Y-23900000D01*
X12542857Y-23842857D01*
X12371428Y-24557142D02*
X12371428Y-24614285D01*
X12400000Y-24671428D01*
X12428571Y-24700000D01*
X12485714Y-24728571D01*
X12600000Y-24757142D01*
X12742857Y-24757142D01*
X12857142Y-24728571D01*
X12914285Y-24700000D01*
X12942857Y-24671428D01*
X12971428Y-24614285D01*
X12971428Y-24557142D01*
X12942857Y-24500000D01*
X12914285Y-24471428D01*
X12857142Y-24442857D01*
X12742857Y-24414285D01*
X12600000Y-24414285D01*
X12485714Y-24442857D01*
X12428571Y-24471428D01*
X12400000Y-24500000D01*
X12371428Y-24557142D01*
%TO.C,C11*%
X21378571Y-15678571D02*
X21402380Y-15654761D01*
X21426190Y-15583333D01*
X21426190Y-15535714D01*
X21402380Y-15464285D01*
X21354761Y-15416666D01*
X21307142Y-15392857D01*
X21211904Y-15369047D01*
X21140476Y-15369047D01*
X21045238Y-15392857D01*
X20997619Y-15416666D01*
X20950000Y-15464285D01*
X20926190Y-15535714D01*
X20926190Y-15583333D01*
X20950000Y-15654761D01*
X20973809Y-15678571D01*
X21426190Y-16154761D02*
X21426190Y-15869047D01*
X21426190Y-16011904D02*
X20926190Y-16011904D01*
X20997619Y-15964285D01*
X21045238Y-15916666D01*
X21069047Y-15869047D01*
X21426190Y-16630952D02*
X21426190Y-16345238D01*
X21426190Y-16488095D02*
X20926190Y-16488095D01*
X20997619Y-16440476D01*
X21045238Y-16392857D01*
X21069047Y-16345238D01*
%TO.C,C12*%
X19378571Y-15678571D02*
X19402380Y-15654761D01*
X19426190Y-15583333D01*
X19426190Y-15535714D01*
X19402380Y-15464285D01*
X19354761Y-15416666D01*
X19307142Y-15392857D01*
X19211904Y-15369047D01*
X19140476Y-15369047D01*
X19045238Y-15392857D01*
X18997619Y-15416666D01*
X18950000Y-15464285D01*
X18926190Y-15535714D01*
X18926190Y-15583333D01*
X18950000Y-15654761D01*
X18973809Y-15678571D01*
X19426190Y-16154761D02*
X19426190Y-15869047D01*
X19426190Y-16011904D02*
X18926190Y-16011904D01*
X18997619Y-15964285D01*
X19045238Y-15916666D01*
X19069047Y-15869047D01*
X18973809Y-16345238D02*
X18950000Y-16369047D01*
X18926190Y-16416666D01*
X18926190Y-16535714D01*
X18950000Y-16583333D01*
X18973809Y-16607142D01*
X19021428Y-16630952D01*
X19069047Y-16630952D01*
X19140476Y-16607142D01*
X19426190Y-16321428D01*
X19426190Y-16630952D01*
%TO.C,R5*%
X17676190Y-16416666D02*
X17438095Y-16250000D01*
X17676190Y-16130952D02*
X17176190Y-16130952D01*
X17176190Y-16321428D01*
X17200000Y-16369047D01*
X17223809Y-16392857D01*
X17271428Y-16416666D01*
X17342857Y-16416666D01*
X17390476Y-16392857D01*
X17414285Y-16369047D01*
X17438095Y-16321428D01*
X17438095Y-16130952D01*
X17176190Y-16869047D02*
X17176190Y-16630952D01*
X17414285Y-16607142D01*
X17390476Y-16630952D01*
X17366666Y-16678571D01*
X17366666Y-16797619D01*
X17390476Y-16845238D01*
X17414285Y-16869047D01*
X17461904Y-16892857D01*
X17580952Y-16892857D01*
X17628571Y-16869047D01*
X17652380Y-16845238D01*
X17676190Y-16797619D01*
X17676190Y-16678571D01*
X17652380Y-16630952D01*
X17628571Y-16607142D01*
%TO.C,D1*%
D12*
X16288095Y-16852380D02*
X16288095Y-15852380D01*
X16050000Y-15852380D01*
X15907142Y-15900000D01*
X15811904Y-15995238D01*
X15764285Y-16090476D01*
X15716666Y-16280952D01*
X15716666Y-16423809D01*
X15764285Y-16614285D01*
X15811904Y-16709523D01*
X15907142Y-16804761D01*
X16050000Y-16852380D01*
X16288095Y-16852380D01*
X14764285Y-16852380D02*
X15335714Y-16852380D01*
X15050000Y-16852380D02*
X15050000Y-15852380D01*
X15145238Y-15995238D01*
X15240476Y-16090476D01*
X15335714Y-16138095D01*
%TO.C,D2*%
X10188095Y-12702380D02*
X10188095Y-11702380D01*
X9950000Y-11702380D01*
X9807142Y-11750000D01*
X9711904Y-11845238D01*
X9664285Y-11940476D01*
X9616666Y-12130952D01*
X9616666Y-12273809D01*
X9664285Y-12464285D01*
X9711904Y-12559523D01*
X9807142Y-12654761D01*
X9950000Y-12702380D01*
X10188095Y-12702380D01*
X9235714Y-11797619D02*
X9188095Y-11750000D01*
X9092857Y-11702380D01*
X8854761Y-11702380D01*
X8759523Y-11750000D01*
X8711904Y-11797619D01*
X8664285Y-11892857D01*
X8664285Y-11988095D01*
X8711904Y-12130952D01*
X9283333Y-12702380D01*
X8664285Y-12702380D01*
%TO.C,R7*%
X6722380Y-16083333D02*
X6246190Y-15750000D01*
X6722380Y-15511904D02*
X5722380Y-15511904D01*
X5722380Y-15892857D01*
X5770000Y-15988095D01*
X5817619Y-16035714D01*
X5912857Y-16083333D01*
X6055714Y-16083333D01*
X6150952Y-16035714D01*
X6198571Y-15988095D01*
X6246190Y-15892857D01*
X6246190Y-15511904D01*
X5722380Y-16416666D02*
X5722380Y-17083333D01*
X6722380Y-16654761D01*
%TD*%
M02*
