%TF.GenerationSoftware,KiCad,Pcbnew,(5.1.8)-1*%
%TF.CreationDate,2020-11-23T23:28:54+01:00*%
%TF.ProjectId,KLinPump_PCB,4b4c696e-5075-46d7-905f-5043422e6b69,rev?*%
%TF.SameCoordinates,PX6a9eec0PY52f83c0*%
%TF.FileFunction,Paste,Bot*%
%TF.FilePolarity,Positive*%
%FSLAX46Y46*%
G04 Gerber Fmt 4.6, Leading zero omitted, Abs format (unit mm)*
G04 Created by KiCad (PCBNEW (5.1.8)-1) date 2020-11-23 23:28:54*
%MOMM*%
%LPD*%
G01*
G04 APERTURE LIST*
%ADD10R,0.900000X1.200000*%
G04 APERTURE END LIST*
%TO.C,R3*%
G36*
G01*
X18225000Y-9474999D02*
X18225000Y-10725001D01*
G75*
G02*
X17975001Y-10975000I-249999J0D01*
G01*
X17349999Y-10975000D01*
G75*
G02*
X17100000Y-10725001I0J249999D01*
G01*
X17100000Y-9474999D01*
G75*
G02*
X17349999Y-9225000I249999J0D01*
G01*
X17975001Y-9225000D01*
G75*
G02*
X18225000Y-9474999I0J-249999D01*
G01*
G37*
G36*
G01*
X15300000Y-9474999D02*
X15300000Y-10725001D01*
G75*
G02*
X15050001Y-10975000I-249999J0D01*
G01*
X14424999Y-10975000D01*
G75*
G02*
X14175000Y-10725001I0J249999D01*
G01*
X14175000Y-9474999D01*
G75*
G02*
X14424999Y-9225000I249999J0D01*
G01*
X15050001Y-9225000D01*
G75*
G02*
X15300000Y-9474999I0J-249999D01*
G01*
G37*
%TD*%
%TO.C,C8*%
G36*
G01*
X14700000Y-4925000D02*
X14200000Y-4925000D01*
G75*
G02*
X13975000Y-4700000I0J225000D01*
G01*
X13975000Y-4250000D01*
G75*
G02*
X14200000Y-4025000I225000J0D01*
G01*
X14700000Y-4025000D01*
G75*
G02*
X14925000Y-4250000I0J-225000D01*
G01*
X14925000Y-4700000D01*
G75*
G02*
X14700000Y-4925000I-225000J0D01*
G01*
G37*
G36*
G01*
X14700000Y-6475000D02*
X14200000Y-6475000D01*
G75*
G02*
X13975000Y-6250000I0J225000D01*
G01*
X13975000Y-5800000D01*
G75*
G02*
X14200000Y-5575000I225000J0D01*
G01*
X14700000Y-5575000D01*
G75*
G02*
X14925000Y-5800000I0J-225000D01*
G01*
X14925000Y-6250000D01*
G75*
G02*
X14700000Y-6475000I-225000J0D01*
G01*
G37*
%TD*%
%TO.C,C4*%
G36*
G01*
X13190000Y-4925000D02*
X12690000Y-4925000D01*
G75*
G02*
X12465000Y-4700000I0J225000D01*
G01*
X12465000Y-4250000D01*
G75*
G02*
X12690000Y-4025000I225000J0D01*
G01*
X13190000Y-4025000D01*
G75*
G02*
X13415000Y-4250000I0J-225000D01*
G01*
X13415000Y-4700000D01*
G75*
G02*
X13190000Y-4925000I-225000J0D01*
G01*
G37*
G36*
G01*
X13190000Y-6475000D02*
X12690000Y-6475000D01*
G75*
G02*
X12465000Y-6250000I0J225000D01*
G01*
X12465000Y-5800000D01*
G75*
G02*
X12690000Y-5575000I225000J0D01*
G01*
X13190000Y-5575000D01*
G75*
G02*
X13415000Y-5800000I0J-225000D01*
G01*
X13415000Y-6250000D01*
G75*
G02*
X13190000Y-6475000I-225000J0D01*
G01*
G37*
%TD*%
%TO.C,C1*%
G36*
G01*
X11700000Y-6500000D02*
X11200000Y-6500000D01*
G75*
G02*
X10975000Y-6275000I0J225000D01*
G01*
X10975000Y-5825000D01*
G75*
G02*
X11200000Y-5600000I225000J0D01*
G01*
X11700000Y-5600000D01*
G75*
G02*
X11925000Y-5825000I0J-225000D01*
G01*
X11925000Y-6275000D01*
G75*
G02*
X11700000Y-6500000I-225000J0D01*
G01*
G37*
G36*
G01*
X11700000Y-4950000D02*
X11200000Y-4950000D01*
G75*
G02*
X10975000Y-4725000I0J225000D01*
G01*
X10975000Y-4275000D01*
G75*
G02*
X11200000Y-4050000I225000J0D01*
G01*
X11700000Y-4050000D01*
G75*
G02*
X11925000Y-4275000I0J-225000D01*
G01*
X11925000Y-4725000D01*
G75*
G02*
X11700000Y-4950000I-225000J0D01*
G01*
G37*
%TD*%
%TO.C,C3*%
G36*
G01*
X10200000Y-6475000D02*
X9700000Y-6475000D01*
G75*
G02*
X9475000Y-6250000I0J225000D01*
G01*
X9475000Y-5800000D01*
G75*
G02*
X9700000Y-5575000I225000J0D01*
G01*
X10200000Y-5575000D01*
G75*
G02*
X10425000Y-5800000I0J-225000D01*
G01*
X10425000Y-6250000D01*
G75*
G02*
X10200000Y-6475000I-225000J0D01*
G01*
G37*
G36*
G01*
X10200000Y-4925000D02*
X9700000Y-4925000D01*
G75*
G02*
X9475000Y-4700000I0J225000D01*
G01*
X9475000Y-4250000D01*
G75*
G02*
X9700000Y-4025000I225000J0D01*
G01*
X10200000Y-4025000D01*
G75*
G02*
X10425000Y-4250000I0J-225000D01*
G01*
X10425000Y-4700000D01*
G75*
G02*
X10200000Y-4925000I-225000J0D01*
G01*
G37*
%TD*%
%TO.C,C2*%
G36*
G01*
X17025000Y-12500000D02*
X17025000Y-12000000D01*
G75*
G02*
X17250000Y-11775000I225000J0D01*
G01*
X17700000Y-11775000D01*
G75*
G02*
X17925000Y-12000000I0J-225000D01*
G01*
X17925000Y-12500000D01*
G75*
G02*
X17700000Y-12725000I-225000J0D01*
G01*
X17250000Y-12725000D01*
G75*
G02*
X17025000Y-12500000I0J225000D01*
G01*
G37*
G36*
G01*
X15475000Y-12500000D02*
X15475000Y-12000000D01*
G75*
G02*
X15700000Y-11775000I225000J0D01*
G01*
X16150000Y-11775000D01*
G75*
G02*
X16375000Y-12000000I0J-225000D01*
G01*
X16375000Y-12500000D01*
G75*
G02*
X16150000Y-12725000I-225000J0D01*
G01*
X15700000Y-12725000D01*
G75*
G02*
X15475000Y-12500000I0J225000D01*
G01*
G37*
%TD*%
%TO.C,C5*%
G36*
G01*
X3270000Y-9690000D02*
X3270000Y-9190000D01*
G75*
G02*
X3495000Y-8965000I225000J0D01*
G01*
X3945000Y-8965000D01*
G75*
G02*
X4170000Y-9190000I0J-225000D01*
G01*
X4170000Y-9690000D01*
G75*
G02*
X3945000Y-9915000I-225000J0D01*
G01*
X3495000Y-9915000D01*
G75*
G02*
X3270000Y-9690000I0J225000D01*
G01*
G37*
G36*
G01*
X4820000Y-9690000D02*
X4820000Y-9190000D01*
G75*
G02*
X5045000Y-8965000I225000J0D01*
G01*
X5495000Y-8965000D01*
G75*
G02*
X5720000Y-9190000I0J-225000D01*
G01*
X5720000Y-9690000D01*
G75*
G02*
X5495000Y-9915000I-225000J0D01*
G01*
X5045000Y-9915000D01*
G75*
G02*
X4820000Y-9690000I0J225000D01*
G01*
G37*
%TD*%
%TO.C,C6*%
G36*
G01*
X4825000Y-8150000D02*
X4825000Y-7650000D01*
G75*
G02*
X5050000Y-7425000I225000J0D01*
G01*
X5500000Y-7425000D01*
G75*
G02*
X5725000Y-7650000I0J-225000D01*
G01*
X5725000Y-8150000D01*
G75*
G02*
X5500000Y-8375000I-225000J0D01*
G01*
X5050000Y-8375000D01*
G75*
G02*
X4825000Y-8150000I0J225000D01*
G01*
G37*
G36*
G01*
X3275000Y-8150000D02*
X3275000Y-7650000D01*
G75*
G02*
X3500000Y-7425000I225000J0D01*
G01*
X3950000Y-7425000D01*
G75*
G02*
X4175000Y-7650000I0J-225000D01*
G01*
X4175000Y-8150000D01*
G75*
G02*
X3950000Y-8375000I-225000J0D01*
G01*
X3500000Y-8375000D01*
G75*
G02*
X3275000Y-8150000I0J225000D01*
G01*
G37*
%TD*%
%TO.C,C7*%
G36*
G01*
X12925000Y-7500000D02*
X12925000Y-8000000D01*
G75*
G02*
X12700000Y-8225000I-225000J0D01*
G01*
X12250000Y-8225000D01*
G75*
G02*
X12025000Y-8000000I0J225000D01*
G01*
X12025000Y-7500000D01*
G75*
G02*
X12250000Y-7275000I225000J0D01*
G01*
X12700000Y-7275000D01*
G75*
G02*
X12925000Y-7500000I0J-225000D01*
G01*
G37*
G36*
G01*
X11375000Y-7500000D02*
X11375000Y-8000000D01*
G75*
G02*
X11150000Y-8225000I-225000J0D01*
G01*
X10700000Y-8225000D01*
G75*
G02*
X10475000Y-8000000I0J225000D01*
G01*
X10475000Y-7500000D01*
G75*
G02*
X10700000Y-7275000I225000J0D01*
G01*
X11150000Y-7275000D01*
G75*
G02*
X11375000Y-7500000I0J-225000D01*
G01*
G37*
%TD*%
%TO.C,C9*%
G36*
G01*
X3225000Y-6575000D02*
X3225000Y-6075000D01*
G75*
G02*
X3450000Y-5850000I225000J0D01*
G01*
X3900000Y-5850000D01*
G75*
G02*
X4125000Y-6075000I0J-225000D01*
G01*
X4125000Y-6575000D01*
G75*
G02*
X3900000Y-6800000I-225000J0D01*
G01*
X3450000Y-6800000D01*
G75*
G02*
X3225000Y-6575000I0J225000D01*
G01*
G37*
G36*
G01*
X4775000Y-6575000D02*
X4775000Y-6075000D01*
G75*
G02*
X5000000Y-5850000I225000J0D01*
G01*
X5450000Y-5850000D01*
G75*
G02*
X5675000Y-6075000I0J-225000D01*
G01*
X5675000Y-6575000D01*
G75*
G02*
X5450000Y-6800000I-225000J0D01*
G01*
X5000000Y-6800000D01*
G75*
G02*
X4775000Y-6575000I0J225000D01*
G01*
G37*
%TD*%
%TO.C,C10*%
G36*
G01*
X13925000Y-22000000D02*
X13925000Y-22500000D01*
G75*
G02*
X13700000Y-22725000I-225000J0D01*
G01*
X13250000Y-22725000D01*
G75*
G02*
X13025000Y-22500000I0J225000D01*
G01*
X13025000Y-22000000D01*
G75*
G02*
X13250000Y-21775000I225000J0D01*
G01*
X13700000Y-21775000D01*
G75*
G02*
X13925000Y-22000000I0J-225000D01*
G01*
G37*
G36*
G01*
X12375000Y-22000000D02*
X12375000Y-22500000D01*
G75*
G02*
X12150000Y-22725000I-225000J0D01*
G01*
X11700000Y-22725000D01*
G75*
G02*
X11475000Y-22500000I0J225000D01*
G01*
X11475000Y-22000000D01*
G75*
G02*
X11700000Y-21775000I225000J0D01*
G01*
X12150000Y-21775000D01*
G75*
G02*
X12375000Y-22000000I0J-225000D01*
G01*
G37*
%TD*%
%TO.C,C11*%
G36*
G01*
X21450000Y-18175000D02*
X20950000Y-18175000D01*
G75*
G02*
X20725000Y-17950000I0J225000D01*
G01*
X20725000Y-17500000D01*
G75*
G02*
X20950000Y-17275000I225000J0D01*
G01*
X21450000Y-17275000D01*
G75*
G02*
X21675000Y-17500000I0J-225000D01*
G01*
X21675000Y-17950000D01*
G75*
G02*
X21450000Y-18175000I-225000J0D01*
G01*
G37*
G36*
G01*
X21450000Y-19725000D02*
X20950000Y-19725000D01*
G75*
G02*
X20725000Y-19500000I0J225000D01*
G01*
X20725000Y-19050000D01*
G75*
G02*
X20950000Y-18825000I225000J0D01*
G01*
X21450000Y-18825000D01*
G75*
G02*
X21675000Y-19050000I0J-225000D01*
G01*
X21675000Y-19500000D01*
G75*
G02*
X21450000Y-19725000I-225000J0D01*
G01*
G37*
%TD*%
%TO.C,C12*%
G36*
G01*
X18950000Y-18825000D02*
X19450000Y-18825000D01*
G75*
G02*
X19675000Y-19050000I0J-225000D01*
G01*
X19675000Y-19500000D01*
G75*
G02*
X19450000Y-19725000I-225000J0D01*
G01*
X18950000Y-19725000D01*
G75*
G02*
X18725000Y-19500000I0J225000D01*
G01*
X18725000Y-19050000D01*
G75*
G02*
X18950000Y-18825000I225000J0D01*
G01*
G37*
G36*
G01*
X18950000Y-17275000D02*
X19450000Y-17275000D01*
G75*
G02*
X19675000Y-17500000I0J-225000D01*
G01*
X19675000Y-17950000D01*
G75*
G02*
X19450000Y-18175000I-225000J0D01*
G01*
X18950000Y-18175000D01*
G75*
G02*
X18725000Y-17950000I0J225000D01*
G01*
X18725000Y-17500000D01*
G75*
G02*
X18950000Y-17275000I225000J0D01*
G01*
G37*
%TD*%
%TO.C,R5*%
G36*
G01*
X17175000Y-19000000D02*
X17725000Y-19000000D01*
G75*
G02*
X17925000Y-19200000I0J-200000D01*
G01*
X17925000Y-19600000D01*
G75*
G02*
X17725000Y-19800000I-200000J0D01*
G01*
X17175000Y-19800000D01*
G75*
G02*
X16975000Y-19600000I0J200000D01*
G01*
X16975000Y-19200000D01*
G75*
G02*
X17175000Y-19000000I200000J0D01*
G01*
G37*
G36*
G01*
X17175000Y-17350000D02*
X17725000Y-17350000D01*
G75*
G02*
X17925000Y-17550000I0J-200000D01*
G01*
X17925000Y-17950000D01*
G75*
G02*
X17725000Y-18150000I-200000J0D01*
G01*
X17175000Y-18150000D01*
G75*
G02*
X16975000Y-17950000I0J200000D01*
G01*
X16975000Y-17550000D01*
G75*
G02*
X17175000Y-17350000I200000J0D01*
G01*
G37*
%TD*%
D10*
%TO.C,D1*%
X14200000Y-16400000D03*
X10900000Y-16400000D03*
%TD*%
%TO.C,D2*%
X14150000Y-12250000D03*
X10850000Y-12250000D03*
%TD*%
%TO.C,R7*%
G36*
G01*
X7425000Y-15025000D02*
X7975000Y-15025000D01*
G75*
G02*
X8175000Y-15225000I0J-200000D01*
G01*
X8175000Y-15625000D01*
G75*
G02*
X7975000Y-15825000I-200000J0D01*
G01*
X7425000Y-15825000D01*
G75*
G02*
X7225000Y-15625000I0J200000D01*
G01*
X7225000Y-15225000D01*
G75*
G02*
X7425000Y-15025000I200000J0D01*
G01*
G37*
G36*
G01*
X7425000Y-16675000D02*
X7975000Y-16675000D01*
G75*
G02*
X8175000Y-16875000I0J-200000D01*
G01*
X8175000Y-17275000D01*
G75*
G02*
X7975000Y-17475000I-200000J0D01*
G01*
X7425000Y-17475000D01*
G75*
G02*
X7225000Y-17275000I0J200000D01*
G01*
X7225000Y-16875000D01*
G75*
G02*
X7425000Y-16675000I200000J0D01*
G01*
G37*
%TD*%
M02*
