%TF.GenerationSoftware,KiCad,Pcbnew,(5.1.8)-1*%
%TF.CreationDate,2020-11-29T16:47:13+01:00*%
%TF.ProjectId,PX12_Board,50583132-5f42-46f6-9172-642e6b696361,V1.0*%
%TF.SameCoordinates,Original*%
%TF.FileFunction,Soldermask,Bot*%
%TF.FilePolarity,Negative*%
%FSLAX46Y46*%
G04 Gerber Fmt 4.6, Leading zero omitted, Abs format (unit mm)*
G04 Created by KiCad (PCBNEW (5.1.8)-1) date 2020-11-29 16:47:13*
%MOMM*%
%LPD*%
G01*
G04 APERTURE LIST*
%ADD10O,1.700000X1.850000*%
%ADD11O,1.300000X0.800000*%
%ADD12R,1.000000X1.000000*%
%ADD13O,1.000000X1.000000*%
%ADD14R,1.600000X1.600000*%
%ADD15C,1.600000*%
%ADD16C,3.800000*%
G04 APERTURE END LIST*
D10*
%TO.C,KLIN2*%
X171750000Y-99250000D03*
X174250000Y-99250000D03*
G36*
G01*
X177600000Y-98575000D02*
X177600000Y-99925000D01*
G75*
G02*
X177350000Y-100175000I-250000J0D01*
G01*
X176150000Y-100175000D01*
G75*
G02*
X175900000Y-99925000I0J250000D01*
G01*
X175900000Y-98575000D01*
G75*
G02*
X176150000Y-98325000I250000J0D01*
G01*
X177350000Y-98325000D01*
G75*
G02*
X177600000Y-98575000I0J-250000D01*
G01*
G37*
%TD*%
%TO.C,KLIN1*%
G36*
G01*
X177600000Y-92825000D02*
X177600000Y-94175000D01*
G75*
G02*
X177350000Y-94425000I-250000J0D01*
G01*
X176150000Y-94425000D01*
G75*
G02*
X175900000Y-94175000I0J250000D01*
G01*
X175900000Y-92825000D01*
G75*
G02*
X176150000Y-92575000I250000J0D01*
G01*
X177350000Y-92575000D01*
G75*
G02*
X177600000Y-92825000I0J-250000D01*
G01*
G37*
X174250000Y-93500000D03*
X171750000Y-93500000D03*
%TD*%
%TO.C,VALVE1*%
G36*
G01*
X179750000Y-105600000D02*
X180650000Y-105600000D01*
G75*
G02*
X180850000Y-105800000I0J-200000D01*
G01*
X180850000Y-106200000D01*
G75*
G02*
X180650000Y-106400000I-200000J0D01*
G01*
X179750000Y-106400000D01*
G75*
G02*
X179550000Y-106200000I0J200000D01*
G01*
X179550000Y-105800000D01*
G75*
G02*
X179750000Y-105600000I200000J0D01*
G01*
G37*
D11*
X180200000Y-107250000D03*
%TD*%
D12*
%TO.C,SWD1*%
X172350000Y-89700000D03*
D13*
X173620000Y-89700000D03*
X174890000Y-89700000D03*
X176160000Y-89700000D03*
X177430000Y-89700000D03*
%TD*%
D14*
%TO.C,C4*%
X173100000Y-107400000D03*
D15*
X173100000Y-109400000D03*
%TD*%
D16*
%TO.C,PGND*%
X184000000Y-100000000D03*
%TD*%
%TO.C,PVCC*%
X166000000Y-100000000D03*
%TD*%
M02*
