%TF.GenerationSoftware,KiCad,Pcbnew,(5.1.8)-1*%
%TF.CreationDate,2020-11-29T16:47:13+01:00*%
%TF.ProjectId,PX12_Board,50583132-5f42-46f6-9172-642e6b696361,V1.0*%
%TF.SameCoordinates,Original*%
%TF.FileFunction,Copper,L2,Bot*%
%TF.FilePolarity,Positive*%
%FSLAX46Y46*%
G04 Gerber Fmt 4.6, Leading zero omitted, Abs format (unit mm)*
G04 Created by KiCad (PCBNEW (5.1.8)-1) date 2020-11-29 16:47:13*
%MOMM*%
%LPD*%
G01*
G04 APERTURE LIST*
%TA.AperFunction,ComponentPad*%
%ADD10O,1.700000X1.850000*%
%TD*%
%TA.AperFunction,ComponentPad*%
%ADD11O,1.300000X0.800000*%
%TD*%
%TA.AperFunction,ComponentPad*%
%ADD12R,1.000000X1.000000*%
%TD*%
%TA.AperFunction,ComponentPad*%
%ADD13O,1.000000X1.000000*%
%TD*%
%TA.AperFunction,ComponentPad*%
%ADD14R,1.600000X1.600000*%
%TD*%
%TA.AperFunction,ComponentPad*%
%ADD15C,1.600000*%
%TD*%
%TA.AperFunction,ComponentPad*%
%ADD16C,3.800000*%
%TD*%
%TA.AperFunction,ViaPad*%
%ADD17C,0.600000*%
%TD*%
%TA.AperFunction,Conductor*%
%ADD18C,0.200000*%
%TD*%
%TA.AperFunction,Conductor*%
%ADD19C,0.254000*%
%TD*%
%TA.AperFunction,Conductor*%
%ADD20C,0.100000*%
%TD*%
G04 APERTURE END LIST*
D10*
%TO.P,KLIN2,3*%
%TO.N,SERIAL*%
X171750000Y-99250000D03*
%TO.P,KLIN2,2*%
%TO.N,VCC*%
X174250000Y-99250000D03*
%TO.P,KLIN2,1*%
%TO.N,GND*%
%TA.AperFunction,ComponentPad*%
G36*
G01*
X177600000Y-98575000D02*
X177600000Y-99925000D01*
G75*
G02*
X177350000Y-100175000I-250000J0D01*
G01*
X176150000Y-100175000D01*
G75*
G02*
X175900000Y-99925000I0J250000D01*
G01*
X175900000Y-98575000D01*
G75*
G02*
X176150000Y-98325000I250000J0D01*
G01*
X177350000Y-98325000D01*
G75*
G02*
X177600000Y-98575000I0J-250000D01*
G01*
G37*
%TD.AperFunction*%
%TD*%
%TO.P,KLIN1,1*%
%TO.N,GND*%
%TA.AperFunction,ComponentPad*%
G36*
G01*
X177600000Y-92825000D02*
X177600000Y-94175000D01*
G75*
G02*
X177350000Y-94425000I-250000J0D01*
G01*
X176150000Y-94425000D01*
G75*
G02*
X175900000Y-94175000I0J250000D01*
G01*
X175900000Y-92825000D01*
G75*
G02*
X176150000Y-92575000I250000J0D01*
G01*
X177350000Y-92575000D01*
G75*
G02*
X177600000Y-92825000I0J-250000D01*
G01*
G37*
%TD.AperFunction*%
%TO.P,KLIN1,2*%
%TO.N,VCC*%
X174250000Y-93500000D03*
%TO.P,KLIN1,3*%
%TO.N,SERIAL*%
X171750000Y-93500000D03*
%TD*%
%TO.P,VALVE1,1*%
%TO.N,VCC*%
%TA.AperFunction,ComponentPad*%
G36*
G01*
X179750000Y-105600000D02*
X180650000Y-105600000D01*
G75*
G02*
X180850000Y-105800000I0J-200000D01*
G01*
X180850000Y-106200000D01*
G75*
G02*
X180650000Y-106400000I-200000J0D01*
G01*
X179750000Y-106400000D01*
G75*
G02*
X179550000Y-106200000I0J200000D01*
G01*
X179550000Y-105800000D01*
G75*
G02*
X179750000Y-105600000I200000J0D01*
G01*
G37*
%TD.AperFunction*%
D11*
%TO.P,VALVE1,2*%
%TO.N,/VALVE_GND*%
X180200000Y-107250000D03*
%TD*%
D12*
%TO.P,SWD1,1*%
%TO.N,+3V3*%
X172350000Y-89700000D03*
D13*
%TO.P,SWD1,2*%
%TO.N,RST*%
X173620000Y-89700000D03*
%TO.P,SWD1,3*%
%TO.N,SWCLK*%
X174890000Y-89700000D03*
%TO.P,SWD1,4*%
%TO.N,SWDIO*%
X176160000Y-89700000D03*
%TO.P,SWD1,5*%
%TO.N,GND*%
X177430000Y-89700000D03*
%TD*%
D14*
%TO.P,C4,1*%
%TO.N,VCC*%
X173100000Y-107400000D03*
D15*
%TO.P,C4,2*%
%TO.N,GND*%
X173100000Y-109400000D03*
%TD*%
D16*
%TO.P,PGND,1*%
%TO.N,/PUMP_GND*%
X184000000Y-100000000D03*
%TD*%
%TO.P,PVCC,1*%
%TO.N,/P-*%
X166000000Y-100000000D03*
%TD*%
D17*
%TO.N,GND*%
X165885000Y-102550000D03*
X180750000Y-100050000D03*
X182450000Y-93435065D03*
X167600000Y-97750000D03*
X170000000Y-92500000D03*
%TO.N,RST*%
X181100000Y-95050000D03*
X175250000Y-91740000D03*
%TO.N,Valve*%
X178800000Y-106800000D03*
X183000000Y-95400000D03*
%TO.N,Va*%
X179500000Y-100500000D03*
X169500000Y-108850000D03*
%TO.N,/PUMP_GND*%
X181450000Y-103800000D03*
%TO.N,SERIAL*%
X181048346Y-93991312D03*
%TO.N,Net-(D3-Pad2)*%
X182990000Y-93925065D03*
X172000000Y-90750000D03*
%TD*%
D18*
%TO.N,GND*%
X182450000Y-93325000D02*
X178825000Y-89700000D01*
X178825000Y-89700000D02*
X177430000Y-89700000D01*
X182450000Y-93435065D02*
X182450000Y-93325000D01*
%TO.N,RST*%
X177790000Y-91740000D02*
X175250000Y-91740000D01*
X181100000Y-95050000D02*
X177790000Y-91740000D01*
%TO.N,Valve*%
X178800000Y-106800000D02*
X178800000Y-102600000D01*
X178925202Y-102600000D02*
X181500000Y-100025202D01*
X178800000Y-102600000D02*
X178925202Y-102600000D01*
X181500000Y-100025202D02*
X181500000Y-98750000D01*
X183000000Y-97250000D02*
X183000000Y-95400000D01*
X181500000Y-98750000D02*
X183000000Y-97250000D01*
%TO.N,Va*%
X179500000Y-100500000D02*
X178550000Y-100500000D01*
X178550000Y-100500000D02*
X176850000Y-102200000D01*
X176850000Y-102200000D02*
X176850000Y-108350000D01*
X171040001Y-110390001D02*
X169500000Y-108850000D01*
X174809999Y-110390001D02*
X171040001Y-110390001D01*
X176850000Y-108350000D02*
X174809999Y-110390001D01*
%TO.N,SERIAL*%
X171750000Y-99250000D02*
X171750000Y-93500000D01*
X181048346Y-93991312D02*
X179157034Y-92100000D01*
X179157034Y-92100000D02*
X179150000Y-92100000D01*
X179150000Y-92100000D02*
X178300000Y-91250000D01*
X174000000Y-91250000D02*
X171750000Y-93500000D01*
X178300000Y-91250000D02*
X174000000Y-91250000D01*
%TO.N,Net-(D3-Pad2)*%
X182990000Y-93925065D02*
X181675065Y-93925065D01*
X178500000Y-90750000D02*
X172000000Y-90750000D01*
X181675065Y-93925065D02*
X178500000Y-90750000D01*
%TD*%
D19*
%TO.N,GND*%
X176346672Y-88478485D02*
X177675133Y-88712728D01*
X178967417Y-89099613D01*
X180206048Y-89633906D01*
X181374277Y-90308383D01*
X182456304Y-91113923D01*
X183437498Y-92039631D01*
X184304589Y-93072990D01*
X185045851Y-94200025D01*
X185651261Y-95405495D01*
X186112630Y-96673097D01*
X186423721Y-97985690D01*
X186580325Y-99325523D01*
X186580325Y-100674477D01*
X186423721Y-102014310D01*
X186112630Y-103326903D01*
X185651261Y-104594505D01*
X185045851Y-105799975D01*
X184304589Y-106927010D01*
X183437498Y-107960369D01*
X182456304Y-108886077D01*
X181374277Y-109691617D01*
X180206048Y-110366094D01*
X178967417Y-110900387D01*
X177675133Y-111287272D01*
X176346672Y-111521515D01*
X175000000Y-111599950D01*
X173653328Y-111521515D01*
X172324867Y-111287272D01*
X171032583Y-110900387D01*
X170949097Y-110864375D01*
X171016375Y-110871001D01*
X171016376Y-110871001D01*
X171040000Y-110873328D01*
X171063624Y-110871001D01*
X174786373Y-110871001D01*
X174809999Y-110873328D01*
X174833625Y-110871001D01*
X174904291Y-110864041D01*
X174994960Y-110836537D01*
X175078521Y-110791873D01*
X175151763Y-110731765D01*
X175166829Y-110713407D01*
X177173412Y-108706825D01*
X177191764Y-108691764D01*
X177251872Y-108618522D01*
X177296536Y-108534961D01*
X177324040Y-108444292D01*
X177331000Y-108373626D01*
X177333327Y-108350001D01*
X177331000Y-108326374D01*
X177331000Y-102399236D01*
X178749237Y-100981000D01*
X179017921Y-100981000D01*
X179065888Y-101028967D01*
X179177426Y-101103494D01*
X179301360Y-101154829D01*
X179432927Y-101181000D01*
X179567073Y-101181000D01*
X179688025Y-101156940D01*
X178720459Y-102124507D01*
X178705708Y-102125960D01*
X178615039Y-102153464D01*
X178531478Y-102198128D01*
X178458236Y-102258236D01*
X178398128Y-102331478D01*
X178353464Y-102415039D01*
X178325960Y-102505708D01*
X178316673Y-102600000D01*
X178319001Y-102623636D01*
X178319000Y-106317921D01*
X178271033Y-106365888D01*
X178196506Y-106477426D01*
X178145171Y-106601360D01*
X178119000Y-106732927D01*
X178119000Y-106867073D01*
X178145171Y-106998640D01*
X178196506Y-107122574D01*
X178271033Y-107234112D01*
X178365888Y-107328967D01*
X178477426Y-107403494D01*
X178601360Y-107454829D01*
X178732927Y-107481000D01*
X178867073Y-107481000D01*
X178998640Y-107454829D01*
X179122574Y-107403494D01*
X179176773Y-107367280D01*
X179180301Y-107403103D01*
X179224960Y-107550322D01*
X179297481Y-107685999D01*
X179395078Y-107804922D01*
X179514001Y-107902519D01*
X179649678Y-107975040D01*
X179796897Y-108019699D01*
X179911640Y-108031000D01*
X180488360Y-108031000D01*
X180603103Y-108019699D01*
X180750322Y-107975040D01*
X180885999Y-107902519D01*
X181004922Y-107804922D01*
X181102519Y-107685999D01*
X181175040Y-107550322D01*
X181219699Y-107403103D01*
X181234778Y-107250000D01*
X181219699Y-107096897D01*
X181175040Y-106949678D01*
X181102519Y-106814001D01*
X181004922Y-106695078D01*
X180982992Y-106677081D01*
X181062132Y-106612132D01*
X181134616Y-106523810D01*
X181188477Y-106423044D01*
X181221644Y-106313707D01*
X181232843Y-106200000D01*
X181232843Y-105800000D01*
X181221644Y-105686293D01*
X181188477Y-105576956D01*
X181134616Y-105476190D01*
X181062132Y-105387868D01*
X180973810Y-105315384D01*
X180873044Y-105261523D01*
X180763707Y-105228356D01*
X180650000Y-105217157D01*
X179750000Y-105217157D01*
X179636293Y-105228356D01*
X179526956Y-105261523D01*
X179426190Y-105315384D01*
X179337868Y-105387868D01*
X179281000Y-105457162D01*
X179281000Y-103732927D01*
X180769000Y-103732927D01*
X180769000Y-103867073D01*
X180795171Y-103998640D01*
X180846506Y-104122574D01*
X180921033Y-104234112D01*
X181015888Y-104328967D01*
X181127426Y-104403494D01*
X181251360Y-104454829D01*
X181382927Y-104481000D01*
X181517073Y-104481000D01*
X181648640Y-104454829D01*
X181772574Y-104403494D01*
X181884112Y-104328967D01*
X181978967Y-104234112D01*
X182053494Y-104122574D01*
X182104829Y-103998640D01*
X182131000Y-103867073D01*
X182131000Y-103732927D01*
X182104829Y-103601360D01*
X182053494Y-103477426D01*
X181978967Y-103365888D01*
X181884112Y-103271033D01*
X181772574Y-103196506D01*
X181648640Y-103145171D01*
X181517073Y-103119000D01*
X181382927Y-103119000D01*
X181251360Y-103145171D01*
X181127426Y-103196506D01*
X181015888Y-103271033D01*
X180921033Y-103365888D01*
X180846506Y-103477426D01*
X180795171Y-103601360D01*
X180769000Y-103732927D01*
X179281000Y-103732927D01*
X179281000Y-102924663D01*
X179282032Y-102923406D01*
X181762432Y-100443007D01*
X181806657Y-100665343D01*
X181978604Y-101080459D01*
X182228231Y-101454053D01*
X182545947Y-101771769D01*
X182919541Y-102021396D01*
X183334657Y-102193343D01*
X183775341Y-102281000D01*
X184224659Y-102281000D01*
X184665343Y-102193343D01*
X185080459Y-102021396D01*
X185454053Y-101771769D01*
X185771769Y-101454053D01*
X186021396Y-101080459D01*
X186193343Y-100665343D01*
X186281000Y-100224659D01*
X186281000Y-99775341D01*
X186193343Y-99334657D01*
X186021396Y-98919541D01*
X185771769Y-98545947D01*
X185454053Y-98228231D01*
X185080459Y-97978604D01*
X184665343Y-97806657D01*
X184224659Y-97719000D01*
X183775341Y-97719000D01*
X183334657Y-97806657D01*
X182974325Y-97955912D01*
X183323412Y-97606825D01*
X183341764Y-97591764D01*
X183401872Y-97518522D01*
X183446536Y-97434961D01*
X183474040Y-97344292D01*
X183481000Y-97273626D01*
X183481000Y-97273625D01*
X183483327Y-97250001D01*
X183481000Y-97226377D01*
X183481000Y-95882079D01*
X183528967Y-95834112D01*
X183603494Y-95722574D01*
X183654829Y-95598640D01*
X183681000Y-95467073D01*
X183681000Y-95332927D01*
X183654829Y-95201360D01*
X183603494Y-95077426D01*
X183528967Y-94965888D01*
X183434112Y-94871033D01*
X183322574Y-94796506D01*
X183198640Y-94745171D01*
X183067073Y-94719000D01*
X182932927Y-94719000D01*
X182801360Y-94745171D01*
X182677426Y-94796506D01*
X182565888Y-94871033D01*
X182471033Y-94965888D01*
X182396506Y-95077426D01*
X182345171Y-95201360D01*
X182319000Y-95332927D01*
X182319000Y-95467073D01*
X182345171Y-95598640D01*
X182396506Y-95722574D01*
X182471033Y-95834112D01*
X182519001Y-95882080D01*
X182519000Y-97050763D01*
X181176589Y-98393175D01*
X181158237Y-98408236D01*
X181143176Y-98426588D01*
X181098129Y-98481478D01*
X181053465Y-98565039D01*
X181025960Y-98655708D01*
X181016673Y-98750000D01*
X181019001Y-98773636D01*
X181019000Y-99825965D01*
X180156941Y-100688025D01*
X180181000Y-100567073D01*
X180181000Y-100432927D01*
X180154829Y-100301360D01*
X180103494Y-100177426D01*
X180028967Y-100065888D01*
X179934112Y-99971033D01*
X179822574Y-99896506D01*
X179698640Y-99845171D01*
X179567073Y-99819000D01*
X179432927Y-99819000D01*
X179301360Y-99845171D01*
X179177426Y-99896506D01*
X179065888Y-99971033D01*
X179017921Y-100019000D01*
X178573626Y-100019000D01*
X178549999Y-100016673D01*
X178455707Y-100025960D01*
X178428203Y-100034304D01*
X178365039Y-100053464D01*
X178281478Y-100098128D01*
X178208236Y-100158236D01*
X178193175Y-100176588D01*
X176526594Y-101843170D01*
X176508236Y-101858236D01*
X176448128Y-101931478D01*
X176403464Y-102015040D01*
X176384304Y-102078204D01*
X176375960Y-102105708D01*
X176366673Y-102200000D01*
X176369000Y-102223626D01*
X176369001Y-108150762D01*
X174610763Y-109909001D01*
X171239238Y-109909001D01*
X170181000Y-108850764D01*
X170181000Y-108782927D01*
X170154829Y-108651360D01*
X170103494Y-108527426D01*
X170028967Y-108415888D01*
X169934112Y-108321033D01*
X169822574Y-108246506D01*
X169698640Y-108195171D01*
X169567073Y-108169000D01*
X169432927Y-108169000D01*
X169301360Y-108195171D01*
X169177426Y-108246506D01*
X169065888Y-108321033D01*
X168971033Y-108415888D01*
X168896506Y-108527426D01*
X168845171Y-108651360D01*
X168819000Y-108782927D01*
X168819000Y-108917073D01*
X168845171Y-109048640D01*
X168896506Y-109172574D01*
X168971033Y-109284112D01*
X169065888Y-109378967D01*
X169177426Y-109453494D01*
X169301360Y-109504829D01*
X169432927Y-109531000D01*
X169500764Y-109531000D01*
X170683176Y-110713413D01*
X170698237Y-110731765D01*
X170760909Y-110783198D01*
X169793952Y-110366094D01*
X168625723Y-109691617D01*
X167543696Y-108886077D01*
X166562502Y-107960369D01*
X165695411Y-106927010D01*
X165480334Y-106600000D01*
X171917157Y-106600000D01*
X171917157Y-108200000D01*
X171924513Y-108274689D01*
X171946299Y-108346508D01*
X171981678Y-108412696D01*
X172029289Y-108470711D01*
X172087304Y-108518322D01*
X172153492Y-108553701D01*
X172225311Y-108575487D01*
X172300000Y-108582843D01*
X173900000Y-108582843D01*
X173974689Y-108575487D01*
X174046508Y-108553701D01*
X174112696Y-108518322D01*
X174170711Y-108470711D01*
X174218322Y-108412696D01*
X174253701Y-108346508D01*
X174275487Y-108274689D01*
X174282843Y-108200000D01*
X174282843Y-106600000D01*
X174275487Y-106525311D01*
X174253701Y-106453492D01*
X174218322Y-106387304D01*
X174170711Y-106329289D01*
X174112696Y-106281678D01*
X174046508Y-106246299D01*
X173974689Y-106224513D01*
X173900000Y-106217157D01*
X172300000Y-106217157D01*
X172225311Y-106224513D01*
X172153492Y-106246299D01*
X172087304Y-106281678D01*
X172029289Y-106329289D01*
X171981678Y-106387304D01*
X171946299Y-106453492D01*
X171924513Y-106525311D01*
X171917157Y-106600000D01*
X165480334Y-106600000D01*
X164954149Y-105799975D01*
X164348739Y-104594505D01*
X163887370Y-103326903D01*
X163576279Y-102014310D01*
X163419675Y-100674477D01*
X163419675Y-99775341D01*
X163719000Y-99775341D01*
X163719000Y-100224659D01*
X163806657Y-100665343D01*
X163978604Y-101080459D01*
X164228231Y-101454053D01*
X164545947Y-101771769D01*
X164919541Y-102021396D01*
X165334657Y-102193343D01*
X165775341Y-102281000D01*
X166224659Y-102281000D01*
X166665343Y-102193343D01*
X167080459Y-102021396D01*
X167454053Y-101771769D01*
X167771769Y-101454053D01*
X168021396Y-101080459D01*
X168193343Y-100665343D01*
X168281000Y-100224659D01*
X168281000Y-99775341D01*
X168193343Y-99334657D01*
X168021396Y-98919541D01*
X167771769Y-98545947D01*
X167454053Y-98228231D01*
X167080459Y-97978604D01*
X166665343Y-97806657D01*
X166224659Y-97719000D01*
X165775341Y-97719000D01*
X165334657Y-97806657D01*
X164919541Y-97978604D01*
X164545947Y-98228231D01*
X164228231Y-98545947D01*
X163978604Y-98919541D01*
X163806657Y-99334657D01*
X163719000Y-99775341D01*
X163419675Y-99775341D01*
X163419675Y-99325523D01*
X163576279Y-97985690D01*
X163887370Y-96673097D01*
X164348739Y-95405495D01*
X164954149Y-94200025D01*
X165695411Y-93072990D01*
X166562502Y-92039631D01*
X167543696Y-91113923D01*
X168625723Y-90308383D01*
X169793952Y-89633906D01*
X171032583Y-89099613D01*
X171572053Y-88938106D01*
X171531678Y-88987304D01*
X171496299Y-89053492D01*
X171474513Y-89125311D01*
X171467157Y-89200000D01*
X171467157Y-90200000D01*
X171474513Y-90274689D01*
X171483292Y-90303629D01*
X171471033Y-90315888D01*
X171396506Y-90427426D01*
X171345171Y-90551360D01*
X171319000Y-90682927D01*
X171319000Y-90817073D01*
X171345171Y-90948640D01*
X171396506Y-91072574D01*
X171471033Y-91184112D01*
X171565888Y-91278967D01*
X171677426Y-91353494D01*
X171801360Y-91404829D01*
X171932927Y-91431000D01*
X172067073Y-91431000D01*
X172198640Y-91404829D01*
X172322574Y-91353494D01*
X172434112Y-91278967D01*
X172482079Y-91231000D01*
X173338764Y-91231000D01*
X172265200Y-92304564D01*
X172223363Y-92282202D01*
X171991318Y-92211812D01*
X171750000Y-92188044D01*
X171508683Y-92211812D01*
X171276638Y-92282202D01*
X171062785Y-92396509D01*
X170875341Y-92550340D01*
X170721509Y-92737784D01*
X170607202Y-92951637D01*
X170536812Y-93183682D01*
X170519000Y-93364528D01*
X170519000Y-93635471D01*
X170536812Y-93816317D01*
X170607202Y-94048362D01*
X170721509Y-94262215D01*
X170875340Y-94449660D01*
X171062784Y-94603491D01*
X171269001Y-94713716D01*
X171269000Y-98036284D01*
X171062785Y-98146509D01*
X170875341Y-98300340D01*
X170721509Y-98487784D01*
X170607202Y-98701637D01*
X170536812Y-98933682D01*
X170519000Y-99114528D01*
X170519000Y-99385471D01*
X170536812Y-99566317D01*
X170607202Y-99798362D01*
X170721509Y-100012215D01*
X170875340Y-100199660D01*
X171062784Y-100353491D01*
X171276637Y-100467798D01*
X171508682Y-100538188D01*
X171750000Y-100561956D01*
X171991317Y-100538188D01*
X172223362Y-100467798D01*
X172437215Y-100353491D01*
X172624660Y-100199660D01*
X172699436Y-100108544D01*
X172735563Y-100186018D01*
X172768769Y-100243533D01*
X172903743Y-100436296D01*
X172946432Y-100487171D01*
X173112829Y-100653568D01*
X173163704Y-100696257D01*
X173356467Y-100831231D01*
X173413982Y-100864437D01*
X173627255Y-100963888D01*
X173689664Y-100986603D01*
X173916966Y-101047508D01*
X173982368Y-101059040D01*
X174216793Y-101079550D01*
X174283207Y-101079550D01*
X174517632Y-101059040D01*
X174583034Y-101047508D01*
X174810336Y-100986603D01*
X174872745Y-100963888D01*
X175086018Y-100864437D01*
X175143533Y-100831231D01*
X175336296Y-100696257D01*
X175387171Y-100653568D01*
X175553568Y-100487171D01*
X175596257Y-100436296D01*
X175731231Y-100243533D01*
X175764437Y-100186018D01*
X175863888Y-99972745D01*
X175886603Y-99910336D01*
X175947508Y-99683034D01*
X175959040Y-99617632D01*
X175979550Y-99383207D01*
X175981000Y-99350000D01*
X175981000Y-93350000D01*
X175979550Y-93316793D01*
X175959040Y-93082368D01*
X175947508Y-93016966D01*
X175886603Y-92789664D01*
X175863888Y-92727255D01*
X175764437Y-92513982D01*
X175731231Y-92456467D01*
X175626770Y-92307281D01*
X175684112Y-92268967D01*
X175732079Y-92221000D01*
X177590764Y-92221000D01*
X180419000Y-95049237D01*
X180419000Y-95117073D01*
X180445171Y-95248640D01*
X180496506Y-95372574D01*
X180571033Y-95484112D01*
X180665888Y-95578967D01*
X180777426Y-95653494D01*
X180901360Y-95704829D01*
X181032927Y-95731000D01*
X181167073Y-95731000D01*
X181298640Y-95704829D01*
X181422574Y-95653494D01*
X181534112Y-95578967D01*
X181628967Y-95484112D01*
X181703494Y-95372574D01*
X181754829Y-95248640D01*
X181781000Y-95117073D01*
X181781000Y-94982927D01*
X181754829Y-94851360D01*
X181703494Y-94727426D01*
X181628967Y-94615888D01*
X181534112Y-94521033D01*
X181502696Y-94500041D01*
X181577313Y-94425424D01*
X181594026Y-94400410D01*
X181675065Y-94408392D01*
X181698691Y-94406065D01*
X182507921Y-94406065D01*
X182555888Y-94454032D01*
X182667426Y-94528559D01*
X182791360Y-94579894D01*
X182922927Y-94606065D01*
X183057073Y-94606065D01*
X183188640Y-94579894D01*
X183312574Y-94528559D01*
X183424112Y-94454032D01*
X183518967Y-94359177D01*
X183593494Y-94247639D01*
X183644829Y-94123705D01*
X183671000Y-93992138D01*
X183671000Y-93857992D01*
X183644829Y-93726425D01*
X183593494Y-93602491D01*
X183518967Y-93490953D01*
X183424112Y-93396098D01*
X183312574Y-93321571D01*
X183188640Y-93270236D01*
X183057073Y-93244065D01*
X182922927Y-93244065D01*
X182791360Y-93270236D01*
X182667426Y-93321571D01*
X182555888Y-93396098D01*
X182507921Y-93444065D01*
X181874302Y-93444065D01*
X178856830Y-90426594D01*
X178841764Y-90408236D01*
X178768522Y-90348128D01*
X178684961Y-90303464D01*
X178594292Y-90275960D01*
X178523626Y-90269000D01*
X178500000Y-90266673D01*
X178476374Y-90269000D01*
X176836923Y-90269000D01*
X176844318Y-90261605D01*
X176940732Y-90117310D01*
X177007144Y-89956978D01*
X177041000Y-89786771D01*
X177041000Y-89613229D01*
X177007144Y-89443022D01*
X176940732Y-89282690D01*
X176844318Y-89138395D01*
X176721605Y-89015682D01*
X176577310Y-88919268D01*
X176416978Y-88852856D01*
X176246771Y-88819000D01*
X176073229Y-88819000D01*
X175903022Y-88852856D01*
X175742690Y-88919268D01*
X175598395Y-89015682D01*
X175525000Y-89089077D01*
X175451605Y-89015682D01*
X175307310Y-88919268D01*
X175146978Y-88852856D01*
X174976771Y-88819000D01*
X174803229Y-88819000D01*
X174633022Y-88852856D01*
X174472690Y-88919268D01*
X174328395Y-89015682D01*
X174255000Y-89089077D01*
X174181605Y-89015682D01*
X174037310Y-88919268D01*
X173876978Y-88852856D01*
X173706771Y-88819000D01*
X173533229Y-88819000D01*
X173363022Y-88852856D01*
X173202690Y-88919268D01*
X173144432Y-88958194D01*
X173120711Y-88929289D01*
X173062696Y-88881678D01*
X172996508Y-88846299D01*
X172924689Y-88824513D01*
X172850000Y-88817157D01*
X171976050Y-88817157D01*
X172324867Y-88712728D01*
X173653328Y-88478485D01*
X175000000Y-88400050D01*
X176346672Y-88478485D01*
%TA.AperFunction,Conductor*%
D20*
G36*
X176346672Y-88478485D02*
G01*
X177675133Y-88712728D01*
X178967417Y-89099613D01*
X180206048Y-89633906D01*
X181374277Y-90308383D01*
X182456304Y-91113923D01*
X183437498Y-92039631D01*
X184304589Y-93072990D01*
X185045851Y-94200025D01*
X185651261Y-95405495D01*
X186112630Y-96673097D01*
X186423721Y-97985690D01*
X186580325Y-99325523D01*
X186580325Y-100674477D01*
X186423721Y-102014310D01*
X186112630Y-103326903D01*
X185651261Y-104594505D01*
X185045851Y-105799975D01*
X184304589Y-106927010D01*
X183437498Y-107960369D01*
X182456304Y-108886077D01*
X181374277Y-109691617D01*
X180206048Y-110366094D01*
X178967417Y-110900387D01*
X177675133Y-111287272D01*
X176346672Y-111521515D01*
X175000000Y-111599950D01*
X173653328Y-111521515D01*
X172324867Y-111287272D01*
X171032583Y-110900387D01*
X170949097Y-110864375D01*
X171016375Y-110871001D01*
X171016376Y-110871001D01*
X171040000Y-110873328D01*
X171063624Y-110871001D01*
X174786373Y-110871001D01*
X174809999Y-110873328D01*
X174833625Y-110871001D01*
X174904291Y-110864041D01*
X174994960Y-110836537D01*
X175078521Y-110791873D01*
X175151763Y-110731765D01*
X175166829Y-110713407D01*
X177173412Y-108706825D01*
X177191764Y-108691764D01*
X177251872Y-108618522D01*
X177296536Y-108534961D01*
X177324040Y-108444292D01*
X177331000Y-108373626D01*
X177333327Y-108350001D01*
X177331000Y-108326374D01*
X177331000Y-102399236D01*
X178749237Y-100981000D01*
X179017921Y-100981000D01*
X179065888Y-101028967D01*
X179177426Y-101103494D01*
X179301360Y-101154829D01*
X179432927Y-101181000D01*
X179567073Y-101181000D01*
X179688025Y-101156940D01*
X178720459Y-102124507D01*
X178705708Y-102125960D01*
X178615039Y-102153464D01*
X178531478Y-102198128D01*
X178458236Y-102258236D01*
X178398128Y-102331478D01*
X178353464Y-102415039D01*
X178325960Y-102505708D01*
X178316673Y-102600000D01*
X178319001Y-102623636D01*
X178319000Y-106317921D01*
X178271033Y-106365888D01*
X178196506Y-106477426D01*
X178145171Y-106601360D01*
X178119000Y-106732927D01*
X178119000Y-106867073D01*
X178145171Y-106998640D01*
X178196506Y-107122574D01*
X178271033Y-107234112D01*
X178365888Y-107328967D01*
X178477426Y-107403494D01*
X178601360Y-107454829D01*
X178732927Y-107481000D01*
X178867073Y-107481000D01*
X178998640Y-107454829D01*
X179122574Y-107403494D01*
X179176773Y-107367280D01*
X179180301Y-107403103D01*
X179224960Y-107550322D01*
X179297481Y-107685999D01*
X179395078Y-107804922D01*
X179514001Y-107902519D01*
X179649678Y-107975040D01*
X179796897Y-108019699D01*
X179911640Y-108031000D01*
X180488360Y-108031000D01*
X180603103Y-108019699D01*
X180750322Y-107975040D01*
X180885999Y-107902519D01*
X181004922Y-107804922D01*
X181102519Y-107685999D01*
X181175040Y-107550322D01*
X181219699Y-107403103D01*
X181234778Y-107250000D01*
X181219699Y-107096897D01*
X181175040Y-106949678D01*
X181102519Y-106814001D01*
X181004922Y-106695078D01*
X180982992Y-106677081D01*
X181062132Y-106612132D01*
X181134616Y-106523810D01*
X181188477Y-106423044D01*
X181221644Y-106313707D01*
X181232843Y-106200000D01*
X181232843Y-105800000D01*
X181221644Y-105686293D01*
X181188477Y-105576956D01*
X181134616Y-105476190D01*
X181062132Y-105387868D01*
X180973810Y-105315384D01*
X180873044Y-105261523D01*
X180763707Y-105228356D01*
X180650000Y-105217157D01*
X179750000Y-105217157D01*
X179636293Y-105228356D01*
X179526956Y-105261523D01*
X179426190Y-105315384D01*
X179337868Y-105387868D01*
X179281000Y-105457162D01*
X179281000Y-103732927D01*
X180769000Y-103732927D01*
X180769000Y-103867073D01*
X180795171Y-103998640D01*
X180846506Y-104122574D01*
X180921033Y-104234112D01*
X181015888Y-104328967D01*
X181127426Y-104403494D01*
X181251360Y-104454829D01*
X181382927Y-104481000D01*
X181517073Y-104481000D01*
X181648640Y-104454829D01*
X181772574Y-104403494D01*
X181884112Y-104328967D01*
X181978967Y-104234112D01*
X182053494Y-104122574D01*
X182104829Y-103998640D01*
X182131000Y-103867073D01*
X182131000Y-103732927D01*
X182104829Y-103601360D01*
X182053494Y-103477426D01*
X181978967Y-103365888D01*
X181884112Y-103271033D01*
X181772574Y-103196506D01*
X181648640Y-103145171D01*
X181517073Y-103119000D01*
X181382927Y-103119000D01*
X181251360Y-103145171D01*
X181127426Y-103196506D01*
X181015888Y-103271033D01*
X180921033Y-103365888D01*
X180846506Y-103477426D01*
X180795171Y-103601360D01*
X180769000Y-103732927D01*
X179281000Y-103732927D01*
X179281000Y-102924663D01*
X179282032Y-102923406D01*
X181762432Y-100443007D01*
X181806657Y-100665343D01*
X181978604Y-101080459D01*
X182228231Y-101454053D01*
X182545947Y-101771769D01*
X182919541Y-102021396D01*
X183334657Y-102193343D01*
X183775341Y-102281000D01*
X184224659Y-102281000D01*
X184665343Y-102193343D01*
X185080459Y-102021396D01*
X185454053Y-101771769D01*
X185771769Y-101454053D01*
X186021396Y-101080459D01*
X186193343Y-100665343D01*
X186281000Y-100224659D01*
X186281000Y-99775341D01*
X186193343Y-99334657D01*
X186021396Y-98919541D01*
X185771769Y-98545947D01*
X185454053Y-98228231D01*
X185080459Y-97978604D01*
X184665343Y-97806657D01*
X184224659Y-97719000D01*
X183775341Y-97719000D01*
X183334657Y-97806657D01*
X182974325Y-97955912D01*
X183323412Y-97606825D01*
X183341764Y-97591764D01*
X183401872Y-97518522D01*
X183446536Y-97434961D01*
X183474040Y-97344292D01*
X183481000Y-97273626D01*
X183481000Y-97273625D01*
X183483327Y-97250001D01*
X183481000Y-97226377D01*
X183481000Y-95882079D01*
X183528967Y-95834112D01*
X183603494Y-95722574D01*
X183654829Y-95598640D01*
X183681000Y-95467073D01*
X183681000Y-95332927D01*
X183654829Y-95201360D01*
X183603494Y-95077426D01*
X183528967Y-94965888D01*
X183434112Y-94871033D01*
X183322574Y-94796506D01*
X183198640Y-94745171D01*
X183067073Y-94719000D01*
X182932927Y-94719000D01*
X182801360Y-94745171D01*
X182677426Y-94796506D01*
X182565888Y-94871033D01*
X182471033Y-94965888D01*
X182396506Y-95077426D01*
X182345171Y-95201360D01*
X182319000Y-95332927D01*
X182319000Y-95467073D01*
X182345171Y-95598640D01*
X182396506Y-95722574D01*
X182471033Y-95834112D01*
X182519001Y-95882080D01*
X182519000Y-97050763D01*
X181176589Y-98393175D01*
X181158237Y-98408236D01*
X181143176Y-98426588D01*
X181098129Y-98481478D01*
X181053465Y-98565039D01*
X181025960Y-98655708D01*
X181016673Y-98750000D01*
X181019001Y-98773636D01*
X181019000Y-99825965D01*
X180156941Y-100688025D01*
X180181000Y-100567073D01*
X180181000Y-100432927D01*
X180154829Y-100301360D01*
X180103494Y-100177426D01*
X180028967Y-100065888D01*
X179934112Y-99971033D01*
X179822574Y-99896506D01*
X179698640Y-99845171D01*
X179567073Y-99819000D01*
X179432927Y-99819000D01*
X179301360Y-99845171D01*
X179177426Y-99896506D01*
X179065888Y-99971033D01*
X179017921Y-100019000D01*
X178573626Y-100019000D01*
X178549999Y-100016673D01*
X178455707Y-100025960D01*
X178428203Y-100034304D01*
X178365039Y-100053464D01*
X178281478Y-100098128D01*
X178208236Y-100158236D01*
X178193175Y-100176588D01*
X176526594Y-101843170D01*
X176508236Y-101858236D01*
X176448128Y-101931478D01*
X176403464Y-102015040D01*
X176384304Y-102078204D01*
X176375960Y-102105708D01*
X176366673Y-102200000D01*
X176369000Y-102223626D01*
X176369001Y-108150762D01*
X174610763Y-109909001D01*
X171239238Y-109909001D01*
X170181000Y-108850764D01*
X170181000Y-108782927D01*
X170154829Y-108651360D01*
X170103494Y-108527426D01*
X170028967Y-108415888D01*
X169934112Y-108321033D01*
X169822574Y-108246506D01*
X169698640Y-108195171D01*
X169567073Y-108169000D01*
X169432927Y-108169000D01*
X169301360Y-108195171D01*
X169177426Y-108246506D01*
X169065888Y-108321033D01*
X168971033Y-108415888D01*
X168896506Y-108527426D01*
X168845171Y-108651360D01*
X168819000Y-108782927D01*
X168819000Y-108917073D01*
X168845171Y-109048640D01*
X168896506Y-109172574D01*
X168971033Y-109284112D01*
X169065888Y-109378967D01*
X169177426Y-109453494D01*
X169301360Y-109504829D01*
X169432927Y-109531000D01*
X169500764Y-109531000D01*
X170683176Y-110713413D01*
X170698237Y-110731765D01*
X170760909Y-110783198D01*
X169793952Y-110366094D01*
X168625723Y-109691617D01*
X167543696Y-108886077D01*
X166562502Y-107960369D01*
X165695411Y-106927010D01*
X165480334Y-106600000D01*
X171917157Y-106600000D01*
X171917157Y-108200000D01*
X171924513Y-108274689D01*
X171946299Y-108346508D01*
X171981678Y-108412696D01*
X172029289Y-108470711D01*
X172087304Y-108518322D01*
X172153492Y-108553701D01*
X172225311Y-108575487D01*
X172300000Y-108582843D01*
X173900000Y-108582843D01*
X173974689Y-108575487D01*
X174046508Y-108553701D01*
X174112696Y-108518322D01*
X174170711Y-108470711D01*
X174218322Y-108412696D01*
X174253701Y-108346508D01*
X174275487Y-108274689D01*
X174282843Y-108200000D01*
X174282843Y-106600000D01*
X174275487Y-106525311D01*
X174253701Y-106453492D01*
X174218322Y-106387304D01*
X174170711Y-106329289D01*
X174112696Y-106281678D01*
X174046508Y-106246299D01*
X173974689Y-106224513D01*
X173900000Y-106217157D01*
X172300000Y-106217157D01*
X172225311Y-106224513D01*
X172153492Y-106246299D01*
X172087304Y-106281678D01*
X172029289Y-106329289D01*
X171981678Y-106387304D01*
X171946299Y-106453492D01*
X171924513Y-106525311D01*
X171917157Y-106600000D01*
X165480334Y-106600000D01*
X164954149Y-105799975D01*
X164348739Y-104594505D01*
X163887370Y-103326903D01*
X163576279Y-102014310D01*
X163419675Y-100674477D01*
X163419675Y-99775341D01*
X163719000Y-99775341D01*
X163719000Y-100224659D01*
X163806657Y-100665343D01*
X163978604Y-101080459D01*
X164228231Y-101454053D01*
X164545947Y-101771769D01*
X164919541Y-102021396D01*
X165334657Y-102193343D01*
X165775341Y-102281000D01*
X166224659Y-102281000D01*
X166665343Y-102193343D01*
X167080459Y-102021396D01*
X167454053Y-101771769D01*
X167771769Y-101454053D01*
X168021396Y-101080459D01*
X168193343Y-100665343D01*
X168281000Y-100224659D01*
X168281000Y-99775341D01*
X168193343Y-99334657D01*
X168021396Y-98919541D01*
X167771769Y-98545947D01*
X167454053Y-98228231D01*
X167080459Y-97978604D01*
X166665343Y-97806657D01*
X166224659Y-97719000D01*
X165775341Y-97719000D01*
X165334657Y-97806657D01*
X164919541Y-97978604D01*
X164545947Y-98228231D01*
X164228231Y-98545947D01*
X163978604Y-98919541D01*
X163806657Y-99334657D01*
X163719000Y-99775341D01*
X163419675Y-99775341D01*
X163419675Y-99325523D01*
X163576279Y-97985690D01*
X163887370Y-96673097D01*
X164348739Y-95405495D01*
X164954149Y-94200025D01*
X165695411Y-93072990D01*
X166562502Y-92039631D01*
X167543696Y-91113923D01*
X168625723Y-90308383D01*
X169793952Y-89633906D01*
X171032583Y-89099613D01*
X171572053Y-88938106D01*
X171531678Y-88987304D01*
X171496299Y-89053492D01*
X171474513Y-89125311D01*
X171467157Y-89200000D01*
X171467157Y-90200000D01*
X171474513Y-90274689D01*
X171483292Y-90303629D01*
X171471033Y-90315888D01*
X171396506Y-90427426D01*
X171345171Y-90551360D01*
X171319000Y-90682927D01*
X171319000Y-90817073D01*
X171345171Y-90948640D01*
X171396506Y-91072574D01*
X171471033Y-91184112D01*
X171565888Y-91278967D01*
X171677426Y-91353494D01*
X171801360Y-91404829D01*
X171932927Y-91431000D01*
X172067073Y-91431000D01*
X172198640Y-91404829D01*
X172322574Y-91353494D01*
X172434112Y-91278967D01*
X172482079Y-91231000D01*
X173338764Y-91231000D01*
X172265200Y-92304564D01*
X172223363Y-92282202D01*
X171991318Y-92211812D01*
X171750000Y-92188044D01*
X171508683Y-92211812D01*
X171276638Y-92282202D01*
X171062785Y-92396509D01*
X170875341Y-92550340D01*
X170721509Y-92737784D01*
X170607202Y-92951637D01*
X170536812Y-93183682D01*
X170519000Y-93364528D01*
X170519000Y-93635471D01*
X170536812Y-93816317D01*
X170607202Y-94048362D01*
X170721509Y-94262215D01*
X170875340Y-94449660D01*
X171062784Y-94603491D01*
X171269001Y-94713716D01*
X171269000Y-98036284D01*
X171062785Y-98146509D01*
X170875341Y-98300340D01*
X170721509Y-98487784D01*
X170607202Y-98701637D01*
X170536812Y-98933682D01*
X170519000Y-99114528D01*
X170519000Y-99385471D01*
X170536812Y-99566317D01*
X170607202Y-99798362D01*
X170721509Y-100012215D01*
X170875340Y-100199660D01*
X171062784Y-100353491D01*
X171276637Y-100467798D01*
X171508682Y-100538188D01*
X171750000Y-100561956D01*
X171991317Y-100538188D01*
X172223362Y-100467798D01*
X172437215Y-100353491D01*
X172624660Y-100199660D01*
X172699436Y-100108544D01*
X172735563Y-100186018D01*
X172768769Y-100243533D01*
X172903743Y-100436296D01*
X172946432Y-100487171D01*
X173112829Y-100653568D01*
X173163704Y-100696257D01*
X173356467Y-100831231D01*
X173413982Y-100864437D01*
X173627255Y-100963888D01*
X173689664Y-100986603D01*
X173916966Y-101047508D01*
X173982368Y-101059040D01*
X174216793Y-101079550D01*
X174283207Y-101079550D01*
X174517632Y-101059040D01*
X174583034Y-101047508D01*
X174810336Y-100986603D01*
X174872745Y-100963888D01*
X175086018Y-100864437D01*
X175143533Y-100831231D01*
X175336296Y-100696257D01*
X175387171Y-100653568D01*
X175553568Y-100487171D01*
X175596257Y-100436296D01*
X175731231Y-100243533D01*
X175764437Y-100186018D01*
X175863888Y-99972745D01*
X175886603Y-99910336D01*
X175947508Y-99683034D01*
X175959040Y-99617632D01*
X175979550Y-99383207D01*
X175981000Y-99350000D01*
X175981000Y-93350000D01*
X175979550Y-93316793D01*
X175959040Y-93082368D01*
X175947508Y-93016966D01*
X175886603Y-92789664D01*
X175863888Y-92727255D01*
X175764437Y-92513982D01*
X175731231Y-92456467D01*
X175626770Y-92307281D01*
X175684112Y-92268967D01*
X175732079Y-92221000D01*
X177590764Y-92221000D01*
X180419000Y-95049237D01*
X180419000Y-95117073D01*
X180445171Y-95248640D01*
X180496506Y-95372574D01*
X180571033Y-95484112D01*
X180665888Y-95578967D01*
X180777426Y-95653494D01*
X180901360Y-95704829D01*
X181032927Y-95731000D01*
X181167073Y-95731000D01*
X181298640Y-95704829D01*
X181422574Y-95653494D01*
X181534112Y-95578967D01*
X181628967Y-95484112D01*
X181703494Y-95372574D01*
X181754829Y-95248640D01*
X181781000Y-95117073D01*
X181781000Y-94982927D01*
X181754829Y-94851360D01*
X181703494Y-94727426D01*
X181628967Y-94615888D01*
X181534112Y-94521033D01*
X181502696Y-94500041D01*
X181577313Y-94425424D01*
X181594026Y-94400410D01*
X181675065Y-94408392D01*
X181698691Y-94406065D01*
X182507921Y-94406065D01*
X182555888Y-94454032D01*
X182667426Y-94528559D01*
X182791360Y-94579894D01*
X182922927Y-94606065D01*
X183057073Y-94606065D01*
X183188640Y-94579894D01*
X183312574Y-94528559D01*
X183424112Y-94454032D01*
X183518967Y-94359177D01*
X183593494Y-94247639D01*
X183644829Y-94123705D01*
X183671000Y-93992138D01*
X183671000Y-93857992D01*
X183644829Y-93726425D01*
X183593494Y-93602491D01*
X183518967Y-93490953D01*
X183424112Y-93396098D01*
X183312574Y-93321571D01*
X183188640Y-93270236D01*
X183057073Y-93244065D01*
X182922927Y-93244065D01*
X182791360Y-93270236D01*
X182667426Y-93321571D01*
X182555888Y-93396098D01*
X182507921Y-93444065D01*
X181874302Y-93444065D01*
X178856830Y-90426594D01*
X178841764Y-90408236D01*
X178768522Y-90348128D01*
X178684961Y-90303464D01*
X178594292Y-90275960D01*
X178523626Y-90269000D01*
X178500000Y-90266673D01*
X178476374Y-90269000D01*
X176836923Y-90269000D01*
X176844318Y-90261605D01*
X176940732Y-90117310D01*
X177007144Y-89956978D01*
X177041000Y-89786771D01*
X177041000Y-89613229D01*
X177007144Y-89443022D01*
X176940732Y-89282690D01*
X176844318Y-89138395D01*
X176721605Y-89015682D01*
X176577310Y-88919268D01*
X176416978Y-88852856D01*
X176246771Y-88819000D01*
X176073229Y-88819000D01*
X175903022Y-88852856D01*
X175742690Y-88919268D01*
X175598395Y-89015682D01*
X175525000Y-89089077D01*
X175451605Y-89015682D01*
X175307310Y-88919268D01*
X175146978Y-88852856D01*
X174976771Y-88819000D01*
X174803229Y-88819000D01*
X174633022Y-88852856D01*
X174472690Y-88919268D01*
X174328395Y-89015682D01*
X174255000Y-89089077D01*
X174181605Y-89015682D01*
X174037310Y-88919268D01*
X173876978Y-88852856D01*
X173706771Y-88819000D01*
X173533229Y-88819000D01*
X173363022Y-88852856D01*
X173202690Y-88919268D01*
X173144432Y-88958194D01*
X173120711Y-88929289D01*
X173062696Y-88881678D01*
X172996508Y-88846299D01*
X172924689Y-88824513D01*
X172850000Y-88817157D01*
X171976050Y-88817157D01*
X172324867Y-88712728D01*
X173653328Y-88478485D01*
X175000000Y-88400050D01*
X176346672Y-88478485D01*
G37*
%TD.AperFunction*%
%TD*%
D19*
%TO.N,VCC*%
X174462287Y-92146059D02*
X174668126Y-92201213D01*
X174821578Y-92272769D01*
X174927426Y-92343494D01*
X174948025Y-92352026D01*
X175035813Y-92413496D01*
X175186504Y-92564187D01*
X175308727Y-92738740D01*
X175398787Y-92931874D01*
X175453941Y-93137713D01*
X175473000Y-93355548D01*
X175473000Y-99344452D01*
X175453941Y-99562287D01*
X175398787Y-99768126D01*
X175308727Y-99961260D01*
X175186504Y-100135813D01*
X175035813Y-100286504D01*
X174861260Y-100408727D01*
X174668126Y-100498787D01*
X174462287Y-100553941D01*
X174250000Y-100572515D01*
X174037713Y-100553941D01*
X173831874Y-100498787D01*
X173638740Y-100408727D01*
X173464187Y-100286504D01*
X173313496Y-100135813D01*
X173191273Y-99961260D01*
X173101213Y-99768126D01*
X173046059Y-99562287D01*
X173027000Y-99344452D01*
X173027000Y-93355548D01*
X173046059Y-93137713D01*
X173101213Y-92931874D01*
X173191078Y-92739158D01*
X173639158Y-92291078D01*
X173831874Y-92201213D01*
X174037713Y-92146059D01*
X174250000Y-92127485D01*
X174462287Y-92146059D01*
%TA.AperFunction,Conductor*%
D20*
G36*
X174462287Y-92146059D02*
G01*
X174668126Y-92201213D01*
X174821578Y-92272769D01*
X174927426Y-92343494D01*
X174948025Y-92352026D01*
X175035813Y-92413496D01*
X175186504Y-92564187D01*
X175308727Y-92738740D01*
X175398787Y-92931874D01*
X175453941Y-93137713D01*
X175473000Y-93355548D01*
X175473000Y-99344452D01*
X175453941Y-99562287D01*
X175398787Y-99768126D01*
X175308727Y-99961260D01*
X175186504Y-100135813D01*
X175035813Y-100286504D01*
X174861260Y-100408727D01*
X174668126Y-100498787D01*
X174462287Y-100553941D01*
X174250000Y-100572515D01*
X174037713Y-100553941D01*
X173831874Y-100498787D01*
X173638740Y-100408727D01*
X173464187Y-100286504D01*
X173313496Y-100135813D01*
X173191273Y-99961260D01*
X173101213Y-99768126D01*
X173046059Y-99562287D01*
X173027000Y-99344452D01*
X173027000Y-93355548D01*
X173046059Y-93137713D01*
X173101213Y-92931874D01*
X173191078Y-92739158D01*
X173639158Y-92291078D01*
X173831874Y-92201213D01*
X174037713Y-92146059D01*
X174250000Y-92127485D01*
X174462287Y-92146059D01*
G37*
%TD.AperFunction*%
%TD*%
M02*
