%TF.GenerationSoftware,KiCad,Pcbnew,(5.1.8)-1*%
%TF.CreationDate,2021-07-18T18:57:16+02:00*%
%TF.ProjectId,PX12_Board,50583132-5f42-46f6-9172-642e6b696361,V1.0*%
%TF.SameCoordinates,Original*%
%TF.FileFunction,Other,User*%
%FSLAX46Y46*%
G04 Gerber Fmt 4.6, Leading zero omitted, Abs format (unit mm)*
G04 Created by KiCad (PCBNEW (5.1.8)-1) date 2021-07-18 18:57:16*
%MOMM*%
%LPD*%
G01*
G04 APERTURE LIST*
%ADD10C,0.050000*%
G04 APERTURE END LIST*
D10*
%TO.C,VALVE1*%
X183250000Y-109150000D02*
X183250000Y-103900000D01*
X179050000Y-109150000D02*
X183250000Y-109150000D01*
X179050000Y-103900000D02*
X179050000Y-109150000D01*
X183250000Y-103900000D02*
X179050000Y-103900000D01*
%TO.C,U1*%
X164600000Y-97800000D02*
X164600000Y-94000000D01*
X164600000Y-94000000D02*
X168200000Y-94000000D01*
X168200000Y-94000000D02*
X168200000Y-97800000D01*
X168200000Y-97800000D02*
X164600000Y-97800000D01*
%TO.C,AX12_2*%
X179700000Y-104100000D02*
X179700000Y-98200000D01*
X179700000Y-98200000D02*
X169800000Y-98200000D01*
X169800000Y-98200000D02*
X168800000Y-99200000D01*
X168800000Y-99200000D02*
X168800000Y-104100000D01*
X168800000Y-104100000D02*
X179700000Y-104100000D01*
%TO.C,D3*%
X165820000Y-93830000D02*
X165820000Y-92370000D01*
X165820000Y-92370000D02*
X168780000Y-92370000D01*
X168780000Y-92370000D02*
X168780000Y-93830000D01*
X168780000Y-93830000D02*
X165820000Y-93830000D01*
%TO.C,AX12_1*%
X168800000Y-98600000D02*
X179700000Y-98600000D01*
X168800000Y-93700000D02*
X168800000Y-98600000D01*
X169800000Y-92700000D02*
X168800000Y-93700000D01*
X179700000Y-92700000D02*
X169800000Y-92700000D01*
X179700000Y-98600000D02*
X179700000Y-92700000D01*
%TO.C,Q1*%
X179300000Y-100450000D02*
X182700000Y-100450000D01*
X182700000Y-100450000D02*
X182700000Y-103950000D01*
X182700000Y-103950000D02*
X179300000Y-103950000D01*
X179300000Y-103950000D02*
X179300000Y-100450000D01*
%TO.C,Q2*%
X176600000Y-111250000D02*
X176600000Y-107750000D01*
X180000000Y-111250000D02*
X176600000Y-111250000D01*
X180000000Y-107750000D02*
X180000000Y-111250000D01*
X176600000Y-107750000D02*
X180000000Y-107750000D01*
%TO.C,R2*%
X171046163Y-108967509D02*
X169606319Y-110683449D01*
X169606319Y-110683449D02*
X166113157Y-107752337D01*
X166113157Y-107752337D02*
X167553001Y-106036397D01*
X167553001Y-106036397D02*
X171046163Y-108967509D01*
%TO.C,U2*%
X168600000Y-105700000D02*
X164800000Y-105700000D01*
X164800000Y-105700000D02*
X164800000Y-102100000D01*
X164800000Y-102100000D02*
X168600000Y-102100000D01*
X168600000Y-102100000D02*
X168600000Y-105700000D01*
%TO.C,U3*%
X179630000Y-97870000D02*
X184870000Y-97870000D01*
X184870000Y-97870000D02*
X184870000Y-92630000D01*
X184870000Y-92630000D02*
X179630000Y-92630000D01*
X179630000Y-92630000D02*
X179630000Y-97870000D01*
%TO.C,C4*%
X176450000Y-109200000D02*
G75*
G03*
X176450000Y-109200000I-2750000J0D01*
G01*
%TO.C,PGND*%
X186150000Y-100000000D02*
G75*
G03*
X186150000Y-100000000I-2150000J0D01*
G01*
%TO.C,PVCC*%
X168150000Y-100000000D02*
G75*
G03*
X168150000Y-100000000I-2150000J0D01*
G01*
%TO.C,C1*%
X181490000Y-90540000D02*
X181490000Y-91460000D01*
X181490000Y-91460000D02*
X179670000Y-91460000D01*
X179670000Y-91460000D02*
X179670000Y-90540000D01*
X179670000Y-90540000D02*
X181490000Y-90540000D01*
%TO.C,C2*%
X164860000Y-102090000D02*
X164860000Y-103910000D01*
X163940000Y-102090000D02*
X164860000Y-102090000D01*
X163940000Y-103910000D02*
X163940000Y-102090000D01*
X164860000Y-103910000D02*
X163940000Y-103910000D01*
%TO.C,C3*%
X181490000Y-91540000D02*
X181490000Y-92460000D01*
X181490000Y-92460000D02*
X179670000Y-92460000D01*
X179670000Y-92460000D02*
X179670000Y-91540000D01*
X179670000Y-91540000D02*
X181490000Y-91540000D01*
%TO.C,C5*%
X169060000Y-95990000D02*
X169060000Y-97810000D01*
X168140000Y-95990000D02*
X169060000Y-95990000D01*
X168140000Y-97810000D02*
X168140000Y-95990000D01*
X169060000Y-97810000D02*
X168140000Y-97810000D01*
%TO.C,C6*%
X163640000Y-95990000D02*
X164560000Y-95990000D01*
X164560000Y-95990000D02*
X164560000Y-97810000D01*
X164560000Y-97810000D02*
X163640000Y-97810000D01*
X163640000Y-97810000D02*
X163640000Y-95990000D01*
%TO.C,C7*%
X180840000Y-100310000D02*
X180840000Y-98490000D01*
X181760000Y-100310000D02*
X180840000Y-100310000D01*
X181760000Y-98490000D02*
X181760000Y-100310000D01*
X180840000Y-98490000D02*
X181760000Y-98490000D01*
%TO.C,D1*%
X169384977Y-104843798D02*
X168163681Y-106299282D01*
X168163681Y-106299282D02*
X170615023Y-108356202D01*
X171836319Y-106900718D02*
X170615023Y-108356202D01*
X169384977Y-104843798D02*
X171836319Y-106900718D01*
%TO.C,D2*%
X185650000Y-102500000D02*
X185650000Y-105700000D01*
X185650000Y-105700000D02*
X183750000Y-105700000D01*
X183750000Y-102500000D02*
X183750000Y-105700000D01*
X185650000Y-102500000D02*
X183750000Y-102500000D01*
%TO.C,R1*%
X176870000Y-104870000D02*
X176870000Y-103930000D01*
X176870000Y-103930000D02*
X178730000Y-103930000D01*
X178730000Y-103930000D02*
X178730000Y-104870000D01*
X178730000Y-104870000D02*
X176870000Y-104870000D01*
%TO.C,R3*%
X178730000Y-107670000D02*
X176870000Y-107670000D01*
X178730000Y-106730000D02*
X178730000Y-107670000D01*
X176870000Y-106730000D02*
X178730000Y-106730000D01*
X176870000Y-107670000D02*
X176870000Y-106730000D01*
%TO.C,R4*%
X168730000Y-92170000D02*
X166870000Y-92170000D01*
X168730000Y-91230000D02*
X168730000Y-92170000D01*
X166870000Y-91230000D02*
X168730000Y-91230000D01*
X166870000Y-92170000D02*
X166870000Y-91230000D01*
%TO.C,R5*%
X180770000Y-100330000D02*
X179830000Y-100330000D01*
X179830000Y-100330000D02*
X179830000Y-98470000D01*
X179830000Y-98470000D02*
X180770000Y-98470000D01*
X180770000Y-98470000D02*
X180770000Y-100330000D01*
%TO.C,SWD*%
X179500000Y-88550000D02*
X170500000Y-88550000D01*
X179500000Y-92750000D02*
X179500000Y-88550000D01*
X170500000Y-92750000D02*
X179500000Y-92750000D01*
X170500000Y-88550000D02*
X170500000Y-92750000D01*
%TD*%
M02*
