%TF.GenerationSoftware,KiCad,Pcbnew,(5.1.8)-1*%
%TF.CreationDate,2021-07-18T18:57:16+02:00*%
%TF.ProjectId,PX12_Board,50583132-5f42-46f6-9172-642e6b696361,V1.0*%
%TF.SameCoordinates,Original*%
%TF.FileFunction,Other,Fab,Top*%
%FSLAX46Y46*%
G04 Gerber Fmt 4.6, Leading zero omitted, Abs format (unit mm)*
G04 Created by KiCad (PCBNEW (5.1.8)-1) date 2021-07-18 18:57:16*
%MOMM*%
%LPD*%
G01*
G04 APERTURE LIST*
%ADD10C,0.100000*%
%ADD11C,0.150000*%
%ADD12C,0.075000*%
%ADD13C,0.060000*%
%ADD14C,0.120000*%
%ADD15C,0.040000*%
G04 APERTURE END LIST*
D10*
%TO.C,VALVE1*%
X180257107Y-105900000D02*
X179550000Y-106400000D01*
X179550000Y-105400000D02*
X180257107Y-105900000D01*
X182750000Y-108650000D02*
X182750000Y-104400000D01*
X179550000Y-108650000D02*
X182750000Y-108650000D01*
X179550000Y-104400000D02*
X179550000Y-108650000D01*
X182750000Y-104400000D02*
X179550000Y-104400000D01*
%TO.C,U1*%
X165500000Y-96800000D02*
X164850000Y-96150000D01*
X164850000Y-95000000D02*
X164850000Y-96150000D01*
X165500000Y-96800000D02*
X167950000Y-96800000D01*
X167950000Y-95000000D02*
X167950000Y-96800000D01*
X164850000Y-95000000D02*
X167950000Y-95000000D01*
%TO.C,AX12_2*%
X179200000Y-103600000D02*
X179200000Y-98700000D01*
X179200000Y-98700000D02*
X170300000Y-98700000D01*
X170300000Y-98700000D02*
X169300000Y-99700000D01*
X169300000Y-99700000D02*
X169300000Y-103600000D01*
X169300000Y-103600000D02*
X179200000Y-103600000D01*
X177250000Y-98700000D02*
X176750000Y-99407107D01*
X176750000Y-99407107D02*
X176250000Y-98700000D01*
%TO.C,D3*%
X168100000Y-92700000D02*
X166800000Y-92700000D01*
X166800000Y-92700000D02*
X166500000Y-93000000D01*
X166500000Y-93000000D02*
X166500000Y-93500000D01*
X166500000Y-93500000D02*
X168100000Y-93500000D01*
X168100000Y-93500000D02*
X168100000Y-92700000D01*
%TO.C,AX12_1*%
X176750000Y-93907107D02*
X176250000Y-93200000D01*
X177250000Y-93200000D02*
X176750000Y-93907107D01*
X169300000Y-98100000D02*
X179200000Y-98100000D01*
X169300000Y-94200000D02*
X169300000Y-98100000D01*
X170300000Y-93200000D02*
X169300000Y-94200000D01*
X179200000Y-93200000D02*
X170300000Y-93200000D01*
X179200000Y-98100000D02*
X179200000Y-93200000D01*
%TO.C,Q1*%
X180300000Y-101250000D02*
X180300000Y-103700000D01*
X180850000Y-100680000D02*
X181700000Y-100680000D01*
X180300000Y-101250000D02*
X180850000Y-100680000D01*
X181700000Y-100680000D02*
X181700000Y-103720000D01*
X180300000Y-103720000D02*
X181700000Y-103720000D01*
%TO.C,Q2*%
X177600000Y-111020000D02*
X179000000Y-111020000D01*
X179000000Y-107980000D02*
X179000000Y-111020000D01*
X177600000Y-108550000D02*
X178150000Y-107980000D01*
X178150000Y-107980000D02*
X179000000Y-107980000D01*
X177600000Y-108550000D02*
X177600000Y-111000000D01*
%TO.C,R2*%
X170319561Y-108775548D02*
X169291101Y-110001219D01*
X169291101Y-110001219D02*
X166839759Y-107944298D01*
X166839759Y-107944298D02*
X167868219Y-106718627D01*
X167868219Y-106718627D02*
X170319561Y-108775548D01*
%TO.C,U2*%
X167600000Y-104800000D02*
X166950000Y-105450000D01*
X165800000Y-105450000D02*
X166950000Y-105450000D01*
X167600000Y-104800000D02*
X167600000Y-102350000D01*
X165800000Y-102350000D02*
X167600000Y-102350000D01*
X165800000Y-105450000D02*
X165800000Y-102350000D01*
%TO.C,U3*%
X180250000Y-96250000D02*
X180250000Y-93250000D01*
X180250000Y-93250000D02*
X184250000Y-93250000D01*
X184250000Y-93250000D02*
X184250000Y-97250000D01*
X184250000Y-97250000D02*
X181250000Y-97250000D01*
X181250000Y-97250000D02*
X180250000Y-96250000D01*
%TO.C,C4*%
X176200000Y-109200000D02*
G75*
G03*
X176200000Y-109200000I-2500000J0D01*
G01*
X174787500Y-107066395D02*
X174787500Y-107566395D01*
X175037500Y-107316395D02*
X174537500Y-107316395D01*
%TO.C,C1*%
X181080000Y-90750000D02*
X181080000Y-91250000D01*
X181080000Y-91250000D02*
X180080000Y-91250000D01*
X180080000Y-91250000D02*
X180080000Y-90750000D01*
X180080000Y-90750000D02*
X181080000Y-90750000D01*
%TO.C,C2*%
X164650000Y-102500000D02*
X164650000Y-103500000D01*
X164150000Y-102500000D02*
X164650000Y-102500000D01*
X164150000Y-103500000D02*
X164150000Y-102500000D01*
X164650000Y-103500000D02*
X164150000Y-103500000D01*
%TO.C,C3*%
X181080000Y-91750000D02*
X181080000Y-92250000D01*
X181080000Y-92250000D02*
X180080000Y-92250000D01*
X180080000Y-92250000D02*
X180080000Y-91750000D01*
X180080000Y-91750000D02*
X181080000Y-91750000D01*
%TO.C,C5*%
X168850000Y-96400000D02*
X168850000Y-97400000D01*
X168350000Y-96400000D02*
X168850000Y-96400000D01*
X168350000Y-97400000D02*
X168350000Y-96400000D01*
X168850000Y-97400000D02*
X168350000Y-97400000D01*
%TO.C,C6*%
X163850000Y-96400000D02*
X164350000Y-96400000D01*
X164350000Y-96400000D02*
X164350000Y-97400000D01*
X164350000Y-97400000D02*
X163850000Y-97400000D01*
X163850000Y-97400000D02*
X163850000Y-96400000D01*
%TO.C,C7*%
X181050000Y-99900000D02*
X181050000Y-98900000D01*
X181550000Y-99900000D02*
X181050000Y-99900000D01*
X181550000Y-98900000D02*
X181550000Y-99900000D01*
X181050000Y-98900000D02*
X181550000Y-98900000D01*
%TO.C,D1*%
X169760511Y-105485260D02*
X171139391Y-106642278D01*
X171139391Y-106642278D02*
X170239489Y-107714740D01*
X170239489Y-107714740D02*
X168860609Y-106557722D01*
X168860609Y-106557722D02*
X169760511Y-105485260D01*
X169995162Y-106139048D02*
X169545211Y-106675279D01*
X169770187Y-106407164D02*
X169616978Y-106278606D01*
X169770187Y-106407164D02*
X170378185Y-106460442D01*
X170378185Y-106460442D02*
X169928233Y-106996673D01*
X169928233Y-106996673D02*
X169770187Y-106407164D01*
X170153209Y-106728558D02*
X170344720Y-106889254D01*
%TO.C,D2*%
X184700000Y-104300000D02*
X184700000Y-104550000D01*
X184350000Y-104300000D02*
X184700000Y-103800000D01*
X185050000Y-104300000D02*
X184350000Y-104300000D01*
X184700000Y-103800000D02*
X185050000Y-104300000D01*
X184700000Y-103800000D02*
X184700000Y-103600000D01*
X185050000Y-103800000D02*
X184350000Y-103800000D01*
X184000000Y-103200000D02*
X185400000Y-103200000D01*
X184000000Y-105000000D02*
X184000000Y-103200000D01*
X185400000Y-105000000D02*
X184000000Y-105000000D01*
X185400000Y-103200000D02*
X185400000Y-105000000D01*
%TO.C,R1*%
X177275000Y-104670000D02*
X177275000Y-104130000D01*
X177275000Y-104130000D02*
X178325000Y-104130000D01*
X178325000Y-104130000D02*
X178325000Y-104670000D01*
X178325000Y-104670000D02*
X177275000Y-104670000D01*
%TO.C,R3*%
X178325000Y-107470000D02*
X177275000Y-107470000D01*
X178325000Y-106930000D02*
X178325000Y-107470000D01*
X177275000Y-106930000D02*
X178325000Y-106930000D01*
X177275000Y-107470000D02*
X177275000Y-106930000D01*
%TO.C,R4*%
X168325000Y-91970000D02*
X167275000Y-91970000D01*
X168325000Y-91430000D02*
X168325000Y-91970000D01*
X167275000Y-91430000D02*
X168325000Y-91430000D01*
X167275000Y-91970000D02*
X167275000Y-91430000D01*
%TO.C,R5*%
X180570000Y-99925000D02*
X180030000Y-99925000D01*
X180030000Y-99925000D02*
X180030000Y-98875000D01*
X180030000Y-98875000D02*
X180570000Y-98875000D01*
X180570000Y-98875000D02*
X180570000Y-99925000D01*
%TO.C,SWD*%
X172500000Y-91542893D02*
X173000000Y-92250000D01*
X172000000Y-92250000D02*
X172500000Y-91542893D01*
X179000000Y-89050000D02*
X171000000Y-89050000D01*
X179000000Y-92250000D02*
X179000000Y-89050000D01*
X171000000Y-92250000D02*
X179000000Y-92250000D01*
X171000000Y-89050000D02*
X171000000Y-92250000D01*
%TD*%
%TO.C,VALVE1*%
D11*
X178707142Y-112353333D02*
X178754761Y-112400952D01*
X178802380Y-112543809D01*
X178802380Y-112639047D01*
X178754761Y-112781904D01*
X178659523Y-112877142D01*
X178564285Y-112924761D01*
X178373809Y-112972380D01*
X178230952Y-112972380D01*
X178040476Y-112924761D01*
X177945238Y-112877142D01*
X177850000Y-112781904D01*
X177802380Y-112639047D01*
X177802380Y-112543809D01*
X177850000Y-112400952D01*
X177897619Y-112353333D01*
X178802380Y-111781904D02*
X178754761Y-111877142D01*
X178707142Y-111924761D01*
X178611904Y-111972380D01*
X178326190Y-111972380D01*
X178230952Y-111924761D01*
X178183333Y-111877142D01*
X178135714Y-111781904D01*
X178135714Y-111639047D01*
X178183333Y-111543809D01*
X178230952Y-111496190D01*
X178326190Y-111448571D01*
X178611904Y-111448571D01*
X178707142Y-111496190D01*
X178754761Y-111543809D01*
X178802380Y-111639047D01*
X178802380Y-111781904D01*
X178135714Y-111020000D02*
X178802380Y-111020000D01*
X178230952Y-111020000D02*
X178183333Y-110972380D01*
X178135714Y-110877142D01*
X178135714Y-110734285D01*
X178183333Y-110639047D01*
X178278571Y-110591428D01*
X178802380Y-110591428D01*
X178135714Y-110115238D02*
X178802380Y-110115238D01*
X178230952Y-110115238D02*
X178183333Y-110067619D01*
X178135714Y-109972380D01*
X178135714Y-109829523D01*
X178183333Y-109734285D01*
X178278571Y-109686666D01*
X178802380Y-109686666D01*
X178897619Y-109448571D02*
X178897619Y-108686666D01*
X177802380Y-108258095D02*
X177802380Y-108162857D01*
X177850000Y-108067619D01*
X177897619Y-108020000D01*
X177992857Y-107972380D01*
X178183333Y-107924761D01*
X178421428Y-107924761D01*
X178611904Y-107972380D01*
X178707142Y-108020000D01*
X178754761Y-108067619D01*
X178802380Y-108162857D01*
X178802380Y-108258095D01*
X178754761Y-108353333D01*
X178707142Y-108400952D01*
X178611904Y-108448571D01*
X178421428Y-108496190D01*
X178183333Y-108496190D01*
X177992857Y-108448571D01*
X177897619Y-108400952D01*
X177850000Y-108353333D01*
X177802380Y-108258095D01*
X178802380Y-106972380D02*
X178802380Y-107543809D01*
X178802380Y-107258095D02*
X177802380Y-107258095D01*
X177945238Y-107353333D01*
X178040476Y-107448571D01*
X178088095Y-107543809D01*
X178802380Y-106639047D02*
X178135714Y-106115238D01*
X178135714Y-106639047D02*
X178802380Y-106115238D01*
X177802380Y-105543809D02*
X177802380Y-105448571D01*
X177850000Y-105353333D01*
X177897619Y-105305714D01*
X177992857Y-105258095D01*
X178183333Y-105210476D01*
X178421428Y-105210476D01*
X178611904Y-105258095D01*
X178707142Y-105305714D01*
X178754761Y-105353333D01*
X178802380Y-105448571D01*
X178802380Y-105543809D01*
X178754761Y-105639047D01*
X178707142Y-105686666D01*
X178611904Y-105734285D01*
X178421428Y-105781904D01*
X178183333Y-105781904D01*
X177992857Y-105734285D01*
X177897619Y-105686666D01*
X177850000Y-105639047D01*
X177802380Y-105543809D01*
X177897619Y-104829523D02*
X177850000Y-104781904D01*
X177802380Y-104686666D01*
X177802380Y-104448571D01*
X177850000Y-104353333D01*
X177897619Y-104305714D01*
X177992857Y-104258095D01*
X178088095Y-104258095D01*
X178230952Y-104305714D01*
X178802380Y-104877142D01*
X178802380Y-104258095D01*
X178897619Y-104067619D02*
X178897619Y-103305714D01*
X178802380Y-103067619D02*
X177802380Y-103067619D01*
X178516666Y-102734285D01*
X177802380Y-102400952D01*
X178802380Y-102400952D01*
X178802380Y-101496190D02*
X178278571Y-101496190D01*
X178183333Y-101543809D01*
X178135714Y-101639047D01*
X178135714Y-101829523D01*
X178183333Y-101924761D01*
X178754761Y-101496190D02*
X178802380Y-101591428D01*
X178802380Y-101829523D01*
X178754761Y-101924761D01*
X178659523Y-101972380D01*
X178564285Y-101972380D01*
X178469047Y-101924761D01*
X178421428Y-101829523D01*
X178421428Y-101591428D01*
X178373809Y-101496190D01*
X178802380Y-100877142D02*
X178754761Y-100972380D01*
X178659523Y-101020000D01*
X177802380Y-101020000D01*
X178754761Y-100115238D02*
X178802380Y-100210476D01*
X178802380Y-100400952D01*
X178754761Y-100496190D01*
X178659523Y-100543809D01*
X178278571Y-100543809D01*
X178183333Y-100496190D01*
X178135714Y-100400952D01*
X178135714Y-100210476D01*
X178183333Y-100115238D01*
X178278571Y-100067619D01*
X178373809Y-100067619D01*
X178469047Y-100543809D01*
X181502380Y-109043809D02*
X182502380Y-108710476D01*
X181502380Y-108377142D01*
X182216666Y-108091428D02*
X182216666Y-107615238D01*
X182502380Y-108186666D02*
X181502380Y-107853333D01*
X182502380Y-107520000D01*
X182502380Y-106710476D02*
X182502380Y-107186666D01*
X181502380Y-107186666D01*
X181502380Y-106520000D02*
X182502380Y-106186666D01*
X181502380Y-105853333D01*
X181978571Y-105520000D02*
X181978571Y-105186666D01*
X182502380Y-105043809D02*
X182502380Y-105520000D01*
X181502380Y-105520000D01*
X181502380Y-105043809D01*
X182502380Y-104091428D02*
X182502380Y-104662857D01*
X182502380Y-104377142D02*
X181502380Y-104377142D01*
X181645238Y-104472380D01*
X181740476Y-104567619D01*
X181788095Y-104662857D01*
%TO.C,U1*%
X169752380Y-101447619D02*
X168752380Y-101447619D01*
X169752380Y-100876190D01*
X168752380Y-100876190D01*
X169657142Y-99828571D02*
X169704761Y-99876190D01*
X169752380Y-100019047D01*
X169752380Y-100114285D01*
X169704761Y-100257142D01*
X169609523Y-100352380D01*
X169514285Y-100400000D01*
X169323809Y-100447619D01*
X169180952Y-100447619D01*
X168990476Y-100400000D01*
X168895238Y-100352380D01*
X168800000Y-100257142D01*
X168752380Y-100114285D01*
X168752380Y-100019047D01*
X168800000Y-99876190D01*
X168847619Y-99828571D01*
X169752380Y-99400000D02*
X168752380Y-99400000D01*
X168752380Y-99019047D01*
X168800000Y-98923809D01*
X168847619Y-98876190D01*
X168942857Y-98828571D01*
X169085714Y-98828571D01*
X169180952Y-98876190D01*
X169228571Y-98923809D01*
X169276190Y-99019047D01*
X169276190Y-99400000D01*
X168752380Y-98495238D02*
X168752380Y-97828571D01*
X169752380Y-98257142D01*
X169752380Y-96923809D02*
X169752380Y-97495238D01*
X169752380Y-97209523D02*
X168752380Y-97209523D01*
X168895238Y-97304761D01*
X168990476Y-97400000D01*
X169038095Y-97495238D01*
X169180952Y-96352380D02*
X169133333Y-96447619D01*
X169085714Y-96495238D01*
X168990476Y-96542857D01*
X168942857Y-96542857D01*
X168847619Y-96495238D01*
X168800000Y-96447619D01*
X168752380Y-96352380D01*
X168752380Y-96161904D01*
X168800000Y-96066666D01*
X168847619Y-96019047D01*
X168942857Y-95971428D01*
X168990476Y-95971428D01*
X169085714Y-96019047D01*
X169133333Y-96066666D01*
X169180952Y-96161904D01*
X169180952Y-96352380D01*
X169228571Y-96447619D01*
X169276190Y-96495238D01*
X169371428Y-96542857D01*
X169561904Y-96542857D01*
X169657142Y-96495238D01*
X169704761Y-96447619D01*
X169752380Y-96352380D01*
X169752380Y-96161904D01*
X169704761Y-96066666D01*
X169657142Y-96019047D01*
X169561904Y-95971428D01*
X169371428Y-95971428D01*
X169276190Y-96019047D01*
X169228571Y-96066666D01*
X169180952Y-96161904D01*
X169752380Y-95638095D02*
X169085714Y-95114285D01*
X169085714Y-95638095D02*
X169752380Y-95114285D01*
X169704761Y-94780952D02*
X169752380Y-94638095D01*
X169752380Y-94400000D01*
X169704761Y-94304761D01*
X169657142Y-94257142D01*
X169561904Y-94209523D01*
X169466666Y-94209523D01*
X169371428Y-94257142D01*
X169323809Y-94304761D01*
X169276190Y-94400000D01*
X169228571Y-94590476D01*
X169180952Y-94685714D01*
X169133333Y-94733333D01*
X169038095Y-94780952D01*
X168942857Y-94780952D01*
X168847619Y-94733333D01*
X168800000Y-94685714D01*
X168752380Y-94590476D01*
X168752380Y-94352380D01*
X168800000Y-94209523D01*
X169752380Y-93780952D02*
X168752380Y-93780952D01*
X169752380Y-93209523D01*
X168752380Y-93209523D01*
X168752380Y-92828571D02*
X168752380Y-92209523D01*
X169133333Y-92542857D01*
X169133333Y-92400000D01*
X169180952Y-92304761D01*
X169228571Y-92257142D01*
X169323809Y-92209523D01*
X169561904Y-92209523D01*
X169657142Y-92257142D01*
X169704761Y-92304761D01*
X169752380Y-92400000D01*
X169752380Y-92685714D01*
X169704761Y-92780952D01*
X169657142Y-92828571D01*
X168752380Y-91876190D02*
X168752380Y-91257142D01*
X169133333Y-91590476D01*
X169133333Y-91447619D01*
X169180952Y-91352380D01*
X169228571Y-91304761D01*
X169323809Y-91257142D01*
X169561904Y-91257142D01*
X169657142Y-91304761D01*
X169704761Y-91352380D01*
X169752380Y-91447619D01*
X169752380Y-91733333D01*
X169704761Y-91828571D01*
X169657142Y-91876190D01*
X168752380Y-90638095D02*
X168752380Y-90542857D01*
X168800000Y-90447619D01*
X168847619Y-90400000D01*
X168942857Y-90352380D01*
X169133333Y-90304761D01*
X169371428Y-90304761D01*
X169561904Y-90352380D01*
X169657142Y-90400000D01*
X169704761Y-90447619D01*
X169752380Y-90542857D01*
X169752380Y-90638095D01*
X169704761Y-90733333D01*
X169657142Y-90780952D01*
X169561904Y-90828571D01*
X169371428Y-90876190D01*
X169133333Y-90876190D01*
X168942857Y-90828571D01*
X168847619Y-90780952D01*
X168800000Y-90733333D01*
X168752380Y-90638095D01*
D12*
X166019047Y-95626190D02*
X166019047Y-96030952D01*
X166042857Y-96078571D01*
X166066666Y-96102380D01*
X166114285Y-96126190D01*
X166209523Y-96126190D01*
X166257142Y-96102380D01*
X166280952Y-96078571D01*
X166304761Y-96030952D01*
X166304761Y-95626190D01*
X166804761Y-96126190D02*
X166519047Y-96126190D01*
X166661904Y-96126190D02*
X166661904Y-95626190D01*
X166614285Y-95697619D01*
X166566666Y-95745238D01*
X166519047Y-95769047D01*
%TO.C,AX12_2*%
D11*
X168416666Y-97857142D02*
X168369047Y-97904761D01*
X168226190Y-97952380D01*
X168130952Y-97952380D01*
X167988095Y-97904761D01*
X167892857Y-97809523D01*
X167845238Y-97714285D01*
X167797619Y-97523809D01*
X167797619Y-97380952D01*
X167845238Y-97190476D01*
X167892857Y-97095238D01*
X167988095Y-97000000D01*
X168130952Y-96952380D01*
X168226190Y-96952380D01*
X168369047Y-97000000D01*
X168416666Y-97047619D01*
X168988095Y-97952380D02*
X168892857Y-97904761D01*
X168845238Y-97857142D01*
X168797619Y-97761904D01*
X168797619Y-97476190D01*
X168845238Y-97380952D01*
X168892857Y-97333333D01*
X168988095Y-97285714D01*
X169130952Y-97285714D01*
X169226190Y-97333333D01*
X169273809Y-97380952D01*
X169321428Y-97476190D01*
X169321428Y-97761904D01*
X169273809Y-97857142D01*
X169226190Y-97904761D01*
X169130952Y-97952380D01*
X168988095Y-97952380D01*
X169750000Y-97285714D02*
X169750000Y-97952380D01*
X169750000Y-97380952D02*
X169797619Y-97333333D01*
X169892857Y-97285714D01*
X170035714Y-97285714D01*
X170130952Y-97333333D01*
X170178571Y-97428571D01*
X170178571Y-97952380D01*
X170654761Y-97285714D02*
X170654761Y-97952380D01*
X170654761Y-97380952D02*
X170702380Y-97333333D01*
X170797619Y-97285714D01*
X170940476Y-97285714D01*
X171035714Y-97333333D01*
X171083333Y-97428571D01*
X171083333Y-97952380D01*
X171321428Y-98047619D02*
X172083333Y-98047619D01*
X172511904Y-96952380D02*
X172607142Y-96952380D01*
X172702380Y-97000000D01*
X172750000Y-97047619D01*
X172797619Y-97142857D01*
X172845238Y-97333333D01*
X172845238Y-97571428D01*
X172797619Y-97761904D01*
X172750000Y-97857142D01*
X172702380Y-97904761D01*
X172607142Y-97952380D01*
X172511904Y-97952380D01*
X172416666Y-97904761D01*
X172369047Y-97857142D01*
X172321428Y-97761904D01*
X172273809Y-97571428D01*
X172273809Y-97333333D01*
X172321428Y-97142857D01*
X172369047Y-97047619D01*
X172416666Y-97000000D01*
X172511904Y-96952380D01*
X173797619Y-97952380D02*
X173226190Y-97952380D01*
X173511904Y-97952380D02*
X173511904Y-96952380D01*
X173416666Y-97095238D01*
X173321428Y-97190476D01*
X173226190Y-97238095D01*
X174130952Y-97952380D02*
X174654761Y-97285714D01*
X174130952Y-97285714D02*
X174654761Y-97952380D01*
X175226190Y-96952380D02*
X175321428Y-96952380D01*
X175416666Y-97000000D01*
X175464285Y-97047619D01*
X175511904Y-97142857D01*
X175559523Y-97333333D01*
X175559523Y-97571428D01*
X175511904Y-97761904D01*
X175464285Y-97857142D01*
X175416666Y-97904761D01*
X175321428Y-97952380D01*
X175226190Y-97952380D01*
X175130952Y-97904761D01*
X175083333Y-97857142D01*
X175035714Y-97761904D01*
X174988095Y-97571428D01*
X174988095Y-97333333D01*
X175035714Y-97142857D01*
X175083333Y-97047619D01*
X175130952Y-97000000D01*
X175226190Y-96952380D01*
X175892857Y-96952380D02*
X176511904Y-96952380D01*
X176178571Y-97333333D01*
X176321428Y-97333333D01*
X176416666Y-97380952D01*
X176464285Y-97428571D01*
X176511904Y-97523809D01*
X176511904Y-97761904D01*
X176464285Y-97857142D01*
X176416666Y-97904761D01*
X176321428Y-97952380D01*
X176035714Y-97952380D01*
X175940476Y-97904761D01*
X175892857Y-97857142D01*
X176702380Y-98047619D02*
X177464285Y-98047619D01*
X177702380Y-97952380D02*
X177702380Y-96952380D01*
X178035714Y-97666666D01*
X178369047Y-96952380D01*
X178369047Y-97952380D01*
X179273809Y-97952380D02*
X179273809Y-97428571D01*
X179226190Y-97333333D01*
X179130952Y-97285714D01*
X178940476Y-97285714D01*
X178845238Y-97333333D01*
X179273809Y-97904761D02*
X179178571Y-97952380D01*
X178940476Y-97952380D01*
X178845238Y-97904761D01*
X178797619Y-97809523D01*
X178797619Y-97714285D01*
X178845238Y-97619047D01*
X178940476Y-97571428D01*
X179178571Y-97571428D01*
X179273809Y-97523809D01*
X179892857Y-97952380D02*
X179797619Y-97904761D01*
X179750000Y-97809523D01*
X179750000Y-96952380D01*
X180654761Y-97904761D02*
X180559523Y-97952380D01*
X180369047Y-97952380D01*
X180273809Y-97904761D01*
X180226190Y-97809523D01*
X180226190Y-97428571D01*
X180273809Y-97333333D01*
X180369047Y-97285714D01*
X180559523Y-97285714D01*
X180654761Y-97333333D01*
X180702380Y-97428571D01*
X180702380Y-97523809D01*
X180226190Y-97619047D01*
X171726190Y-103066666D02*
X172202380Y-103066666D01*
X171630952Y-103352380D02*
X171964285Y-102352380D01*
X172297619Y-103352380D01*
X172535714Y-102352380D02*
X173202380Y-103352380D01*
X173202380Y-102352380D02*
X172535714Y-103352380D01*
X174107142Y-103352380D02*
X173535714Y-103352380D01*
X173821428Y-103352380D02*
X173821428Y-102352380D01*
X173726190Y-102495238D01*
X173630952Y-102590476D01*
X173535714Y-102638095D01*
X174488095Y-102447619D02*
X174535714Y-102400000D01*
X174630952Y-102352380D01*
X174869047Y-102352380D01*
X174964285Y-102400000D01*
X175011904Y-102447619D01*
X175059523Y-102542857D01*
X175059523Y-102638095D01*
X175011904Y-102780952D01*
X174440476Y-103352380D01*
X175059523Y-103352380D01*
X175250000Y-103447619D02*
X176011904Y-103447619D01*
X176202380Y-102447619D02*
X176250000Y-102400000D01*
X176345238Y-102352380D01*
X176583333Y-102352380D01*
X176678571Y-102400000D01*
X176726190Y-102447619D01*
X176773809Y-102542857D01*
X176773809Y-102638095D01*
X176726190Y-102780952D01*
X176154761Y-103352380D01*
X176773809Y-103352380D01*
%TO.C,D3*%
X166657142Y-94982380D02*
X166180952Y-94982380D01*
X166180952Y-93982380D01*
X166990476Y-94458571D02*
X167323809Y-94458571D01*
X167466666Y-94982380D02*
X166990476Y-94982380D01*
X166990476Y-93982380D01*
X167466666Y-93982380D01*
X167895238Y-94982380D02*
X167895238Y-93982380D01*
X168133333Y-93982380D01*
X168276190Y-94030000D01*
X168371428Y-94125238D01*
X168419047Y-94220476D01*
X168466666Y-94410952D01*
X168466666Y-94553809D01*
X168419047Y-94744285D01*
X168371428Y-94839523D01*
X168276190Y-94934761D01*
X168133333Y-94982380D01*
X167895238Y-94982380D01*
D13*
X167004761Y-93280952D02*
X167004761Y-92880952D01*
X167100000Y-92880952D01*
X167157142Y-92900000D01*
X167195238Y-92938095D01*
X167214285Y-92976190D01*
X167233333Y-93052380D01*
X167233333Y-93109523D01*
X167214285Y-93185714D01*
X167195238Y-93223809D01*
X167157142Y-93261904D01*
X167100000Y-93280952D01*
X167004761Y-93280952D01*
X167366666Y-92880952D02*
X167614285Y-92880952D01*
X167480952Y-93033333D01*
X167538095Y-93033333D01*
X167576190Y-93052380D01*
X167595238Y-93071428D01*
X167614285Y-93109523D01*
X167614285Y-93204761D01*
X167595238Y-93242857D01*
X167576190Y-93261904D01*
X167538095Y-93280952D01*
X167423809Y-93280952D01*
X167385714Y-93261904D01*
X167366666Y-93242857D01*
%TO.C,AX12_1*%
D11*
X168416666Y-92357142D02*
X168369047Y-92404761D01*
X168226190Y-92452380D01*
X168130952Y-92452380D01*
X167988095Y-92404761D01*
X167892857Y-92309523D01*
X167845238Y-92214285D01*
X167797619Y-92023809D01*
X167797619Y-91880952D01*
X167845238Y-91690476D01*
X167892857Y-91595238D01*
X167988095Y-91500000D01*
X168130952Y-91452380D01*
X168226190Y-91452380D01*
X168369047Y-91500000D01*
X168416666Y-91547619D01*
X168988095Y-92452380D02*
X168892857Y-92404761D01*
X168845238Y-92357142D01*
X168797619Y-92261904D01*
X168797619Y-91976190D01*
X168845238Y-91880952D01*
X168892857Y-91833333D01*
X168988095Y-91785714D01*
X169130952Y-91785714D01*
X169226190Y-91833333D01*
X169273809Y-91880952D01*
X169321428Y-91976190D01*
X169321428Y-92261904D01*
X169273809Y-92357142D01*
X169226190Y-92404761D01*
X169130952Y-92452380D01*
X168988095Y-92452380D01*
X169750000Y-91785714D02*
X169750000Y-92452380D01*
X169750000Y-91880952D02*
X169797619Y-91833333D01*
X169892857Y-91785714D01*
X170035714Y-91785714D01*
X170130952Y-91833333D01*
X170178571Y-91928571D01*
X170178571Y-92452380D01*
X170654761Y-91785714D02*
X170654761Y-92452380D01*
X170654761Y-91880952D02*
X170702380Y-91833333D01*
X170797619Y-91785714D01*
X170940476Y-91785714D01*
X171035714Y-91833333D01*
X171083333Y-91928571D01*
X171083333Y-92452380D01*
X171321428Y-92547619D02*
X172083333Y-92547619D01*
X172511904Y-91452380D02*
X172607142Y-91452380D01*
X172702380Y-91500000D01*
X172750000Y-91547619D01*
X172797619Y-91642857D01*
X172845238Y-91833333D01*
X172845238Y-92071428D01*
X172797619Y-92261904D01*
X172750000Y-92357142D01*
X172702380Y-92404761D01*
X172607142Y-92452380D01*
X172511904Y-92452380D01*
X172416666Y-92404761D01*
X172369047Y-92357142D01*
X172321428Y-92261904D01*
X172273809Y-92071428D01*
X172273809Y-91833333D01*
X172321428Y-91642857D01*
X172369047Y-91547619D01*
X172416666Y-91500000D01*
X172511904Y-91452380D01*
X173797619Y-92452380D02*
X173226190Y-92452380D01*
X173511904Y-92452380D02*
X173511904Y-91452380D01*
X173416666Y-91595238D01*
X173321428Y-91690476D01*
X173226190Y-91738095D01*
X174130952Y-92452380D02*
X174654761Y-91785714D01*
X174130952Y-91785714D02*
X174654761Y-92452380D01*
X175226190Y-91452380D02*
X175321428Y-91452380D01*
X175416666Y-91500000D01*
X175464285Y-91547619D01*
X175511904Y-91642857D01*
X175559523Y-91833333D01*
X175559523Y-92071428D01*
X175511904Y-92261904D01*
X175464285Y-92357142D01*
X175416666Y-92404761D01*
X175321428Y-92452380D01*
X175226190Y-92452380D01*
X175130952Y-92404761D01*
X175083333Y-92357142D01*
X175035714Y-92261904D01*
X174988095Y-92071428D01*
X174988095Y-91833333D01*
X175035714Y-91642857D01*
X175083333Y-91547619D01*
X175130952Y-91500000D01*
X175226190Y-91452380D01*
X175892857Y-91452380D02*
X176511904Y-91452380D01*
X176178571Y-91833333D01*
X176321428Y-91833333D01*
X176416666Y-91880952D01*
X176464285Y-91928571D01*
X176511904Y-92023809D01*
X176511904Y-92261904D01*
X176464285Y-92357142D01*
X176416666Y-92404761D01*
X176321428Y-92452380D01*
X176035714Y-92452380D01*
X175940476Y-92404761D01*
X175892857Y-92357142D01*
X176702380Y-92547619D02*
X177464285Y-92547619D01*
X177702380Y-92452380D02*
X177702380Y-91452380D01*
X178035714Y-92166666D01*
X178369047Y-91452380D01*
X178369047Y-92452380D01*
X179273809Y-92452380D02*
X179273809Y-91928571D01*
X179226190Y-91833333D01*
X179130952Y-91785714D01*
X178940476Y-91785714D01*
X178845238Y-91833333D01*
X179273809Y-92404761D02*
X179178571Y-92452380D01*
X178940476Y-92452380D01*
X178845238Y-92404761D01*
X178797619Y-92309523D01*
X178797619Y-92214285D01*
X178845238Y-92119047D01*
X178940476Y-92071428D01*
X179178571Y-92071428D01*
X179273809Y-92023809D01*
X179892857Y-92452380D02*
X179797619Y-92404761D01*
X179750000Y-92309523D01*
X179750000Y-91452380D01*
X180654761Y-92404761D02*
X180559523Y-92452380D01*
X180369047Y-92452380D01*
X180273809Y-92404761D01*
X180226190Y-92309523D01*
X180226190Y-91928571D01*
X180273809Y-91833333D01*
X180369047Y-91785714D01*
X180559523Y-91785714D01*
X180654761Y-91833333D01*
X180702380Y-91928571D01*
X180702380Y-92023809D01*
X180226190Y-92119047D01*
X171726190Y-97566666D02*
X172202380Y-97566666D01*
X171630952Y-97852380D02*
X171964285Y-96852380D01*
X172297619Y-97852380D01*
X172535714Y-96852380D02*
X173202380Y-97852380D01*
X173202380Y-96852380D02*
X172535714Y-97852380D01*
X174107142Y-97852380D02*
X173535714Y-97852380D01*
X173821428Y-97852380D02*
X173821428Y-96852380D01*
X173726190Y-96995238D01*
X173630952Y-97090476D01*
X173535714Y-97138095D01*
X174488095Y-96947619D02*
X174535714Y-96900000D01*
X174630952Y-96852380D01*
X174869047Y-96852380D01*
X174964285Y-96900000D01*
X175011904Y-96947619D01*
X175059523Y-97042857D01*
X175059523Y-97138095D01*
X175011904Y-97280952D01*
X174440476Y-97852380D01*
X175059523Y-97852380D01*
X175250000Y-97947619D02*
X176011904Y-97947619D01*
X176773809Y-97852380D02*
X176202380Y-97852380D01*
X176488095Y-97852380D02*
X176488095Y-96852380D01*
X176392857Y-96995238D01*
X176297619Y-97090476D01*
X176202380Y-97138095D01*
%TO.C,Q1*%
X177214285Y-105152380D02*
X177214285Y-104152380D01*
X178261904Y-105152380D02*
X177928571Y-104676190D01*
X177690476Y-105152380D02*
X177690476Y-104152380D01*
X178071428Y-104152380D01*
X178166666Y-104200000D01*
X178214285Y-104247619D01*
X178261904Y-104342857D01*
X178261904Y-104485714D01*
X178214285Y-104580952D01*
X178166666Y-104628571D01*
X178071428Y-104676190D01*
X177690476Y-104676190D01*
X179166666Y-105152380D02*
X178690476Y-105152380D01*
X178690476Y-104152380D01*
X179500000Y-105152380D02*
X179500000Y-104152380D01*
X179833333Y-104866666D01*
X180166666Y-104152380D01*
X180166666Y-105152380D01*
X181119047Y-105152380D02*
X180642857Y-105152380D01*
X180642857Y-104152380D01*
X181404761Y-104247619D02*
X181452380Y-104200000D01*
X181547619Y-104152380D01*
X181785714Y-104152380D01*
X181880952Y-104200000D01*
X181928571Y-104247619D01*
X181976190Y-104342857D01*
X181976190Y-104438095D01*
X181928571Y-104580952D01*
X181357142Y-105152380D01*
X181976190Y-105152380D01*
X182595238Y-104152380D02*
X182690476Y-104152380D01*
X182785714Y-104200000D01*
X182833333Y-104247619D01*
X182880952Y-104342857D01*
X182928571Y-104533333D01*
X182928571Y-104771428D01*
X182880952Y-104961904D01*
X182833333Y-105057142D01*
X182785714Y-105104761D01*
X182690476Y-105152380D01*
X182595238Y-105152380D01*
X182500000Y-105104761D01*
X182452380Y-105057142D01*
X182404761Y-104961904D01*
X182357142Y-104771428D01*
X182357142Y-104533333D01*
X182404761Y-104342857D01*
X182452380Y-104247619D01*
X182500000Y-104200000D01*
X182595238Y-104152380D01*
X183785714Y-104152380D02*
X183595238Y-104152380D01*
X183500000Y-104200000D01*
X183452380Y-104247619D01*
X183357142Y-104390476D01*
X183309523Y-104580952D01*
X183309523Y-104961904D01*
X183357142Y-105057142D01*
X183404761Y-105104761D01*
X183500000Y-105152380D01*
X183690476Y-105152380D01*
X183785714Y-105104761D01*
X183833333Y-105057142D01*
X183880952Y-104961904D01*
X183880952Y-104723809D01*
X183833333Y-104628571D01*
X183785714Y-104580952D01*
X183690476Y-104533333D01*
X183500000Y-104533333D01*
X183404761Y-104580952D01*
X183357142Y-104628571D01*
X183309523Y-104723809D01*
X184500000Y-104152380D02*
X184595238Y-104152380D01*
X184690476Y-104200000D01*
X184738095Y-104247619D01*
X184785714Y-104342857D01*
X184833333Y-104533333D01*
X184833333Y-104771428D01*
X184785714Y-104961904D01*
X184738095Y-105057142D01*
X184690476Y-105104761D01*
X184595238Y-105152380D01*
X184500000Y-105152380D01*
X184404761Y-105104761D01*
X184357142Y-105057142D01*
X184309523Y-104961904D01*
X184261904Y-104771428D01*
X184261904Y-104533333D01*
X184309523Y-104342857D01*
X184357142Y-104247619D01*
X184404761Y-104200000D01*
X184500000Y-104152380D01*
D12*
X181273809Y-102247619D02*
X181250000Y-102295238D01*
X181202380Y-102342857D01*
X181130952Y-102414285D01*
X181107142Y-102461904D01*
X181107142Y-102509523D01*
X181226190Y-102485714D02*
X181202380Y-102533333D01*
X181154761Y-102580952D01*
X181059523Y-102604761D01*
X180892857Y-102604761D01*
X180797619Y-102580952D01*
X180750000Y-102533333D01*
X180726190Y-102485714D01*
X180726190Y-102390476D01*
X180750000Y-102342857D01*
X180797619Y-102295238D01*
X180892857Y-102271428D01*
X181059523Y-102271428D01*
X181154761Y-102295238D01*
X181202380Y-102342857D01*
X181226190Y-102390476D01*
X181226190Y-102485714D01*
X181226190Y-101795238D02*
X181226190Y-102080952D01*
X181226190Y-101938095D02*
X180726190Y-101938095D01*
X180797619Y-101985714D01*
X180845238Y-102033333D01*
X180869047Y-102080952D01*
%TO.C,Q2*%
D11*
X174514285Y-112452380D02*
X174514285Y-111452380D01*
X175561904Y-112452380D02*
X175228571Y-111976190D01*
X174990476Y-112452380D02*
X174990476Y-111452380D01*
X175371428Y-111452380D01*
X175466666Y-111500000D01*
X175514285Y-111547619D01*
X175561904Y-111642857D01*
X175561904Y-111785714D01*
X175514285Y-111880952D01*
X175466666Y-111928571D01*
X175371428Y-111976190D01*
X174990476Y-111976190D01*
X176466666Y-112452380D02*
X175990476Y-112452380D01*
X175990476Y-111452380D01*
X176800000Y-112452380D02*
X176800000Y-111452380D01*
X177133333Y-112166666D01*
X177466666Y-111452380D01*
X177466666Y-112452380D01*
X178419047Y-112452380D02*
X177942857Y-112452380D01*
X177942857Y-111452380D01*
X178704761Y-111547619D02*
X178752380Y-111500000D01*
X178847619Y-111452380D01*
X179085714Y-111452380D01*
X179180952Y-111500000D01*
X179228571Y-111547619D01*
X179276190Y-111642857D01*
X179276190Y-111738095D01*
X179228571Y-111880952D01*
X178657142Y-112452380D01*
X179276190Y-112452380D01*
X179895238Y-111452380D02*
X179990476Y-111452380D01*
X180085714Y-111500000D01*
X180133333Y-111547619D01*
X180180952Y-111642857D01*
X180228571Y-111833333D01*
X180228571Y-112071428D01*
X180180952Y-112261904D01*
X180133333Y-112357142D01*
X180085714Y-112404761D01*
X179990476Y-112452380D01*
X179895238Y-112452380D01*
X179800000Y-112404761D01*
X179752380Y-112357142D01*
X179704761Y-112261904D01*
X179657142Y-112071428D01*
X179657142Y-111833333D01*
X179704761Y-111642857D01*
X179752380Y-111547619D01*
X179800000Y-111500000D01*
X179895238Y-111452380D01*
X181085714Y-111452380D02*
X180895238Y-111452380D01*
X180800000Y-111500000D01*
X180752380Y-111547619D01*
X180657142Y-111690476D01*
X180609523Y-111880952D01*
X180609523Y-112261904D01*
X180657142Y-112357142D01*
X180704761Y-112404761D01*
X180800000Y-112452380D01*
X180990476Y-112452380D01*
X181085714Y-112404761D01*
X181133333Y-112357142D01*
X181180952Y-112261904D01*
X181180952Y-112023809D01*
X181133333Y-111928571D01*
X181085714Y-111880952D01*
X180990476Y-111833333D01*
X180800000Y-111833333D01*
X180704761Y-111880952D01*
X180657142Y-111928571D01*
X180609523Y-112023809D01*
X181800000Y-111452380D02*
X181895238Y-111452380D01*
X181990476Y-111500000D01*
X182038095Y-111547619D01*
X182085714Y-111642857D01*
X182133333Y-111833333D01*
X182133333Y-112071428D01*
X182085714Y-112261904D01*
X182038095Y-112357142D01*
X181990476Y-112404761D01*
X181895238Y-112452380D01*
X181800000Y-112452380D01*
X181704761Y-112404761D01*
X181657142Y-112357142D01*
X181609523Y-112261904D01*
X181561904Y-112071428D01*
X181561904Y-111833333D01*
X181609523Y-111642857D01*
X181657142Y-111547619D01*
X181704761Y-111500000D01*
X181800000Y-111452380D01*
D12*
X178573809Y-109547619D02*
X178550000Y-109595238D01*
X178502380Y-109642857D01*
X178430952Y-109714285D01*
X178407142Y-109761904D01*
X178407142Y-109809523D01*
X178526190Y-109785714D02*
X178502380Y-109833333D01*
X178454761Y-109880952D01*
X178359523Y-109904761D01*
X178192857Y-109904761D01*
X178097619Y-109880952D01*
X178050000Y-109833333D01*
X178026190Y-109785714D01*
X178026190Y-109690476D01*
X178050000Y-109642857D01*
X178097619Y-109595238D01*
X178192857Y-109571428D01*
X178359523Y-109571428D01*
X178454761Y-109595238D01*
X178502380Y-109642857D01*
X178526190Y-109690476D01*
X178526190Y-109785714D01*
X178073809Y-109380952D02*
X178050000Y-109357142D01*
X178026190Y-109309523D01*
X178026190Y-109190476D01*
X178050000Y-109142857D01*
X178073809Y-109119047D01*
X178121428Y-109095238D01*
X178169047Y-109095238D01*
X178240476Y-109119047D01*
X178526190Y-109404761D01*
X178526190Y-109095238D01*
%TO.C,R2*%
D11*
X169153099Y-105750389D02*
X169226056Y-105811607D01*
X169268404Y-105909303D01*
X169274273Y-105976390D01*
X169249533Y-106079956D01*
X169163576Y-106256478D01*
X169010531Y-106438869D01*
X168851617Y-106554174D01*
X168753921Y-106596521D01*
X168686834Y-106602391D01*
X168583268Y-106577651D01*
X168510312Y-106516433D01*
X168467964Y-106418737D01*
X168462095Y-106351650D01*
X168486834Y-106248084D01*
X168572792Y-106071562D01*
X168725836Y-105889170D01*
X168884750Y-105773866D01*
X168982446Y-105731519D01*
X169049534Y-105725649D01*
X169153099Y-105750389D01*
X169155182Y-106933219D02*
X169161052Y-107000307D01*
X169093965Y-107006176D01*
X169088095Y-106939089D01*
X169155182Y-106933219D01*
X169093965Y-107006176D01*
X170247448Y-106668657D02*
X170320405Y-106729875D01*
X170362753Y-106827571D01*
X170368622Y-106894658D01*
X170343883Y-106998224D01*
X170257925Y-107174746D01*
X170104880Y-107357137D01*
X169945966Y-107472442D01*
X169848270Y-107514789D01*
X169781183Y-107520659D01*
X169677617Y-107495919D01*
X169604661Y-107434701D01*
X169562313Y-107337005D01*
X169556444Y-107269918D01*
X169581183Y-107166352D01*
X169667141Y-106989830D01*
X169820185Y-106807438D01*
X169979100Y-106692134D01*
X170076796Y-106649787D01*
X170143883Y-106643917D01*
X170247448Y-106668657D01*
X170589575Y-108261142D02*
X170151835Y-107893835D01*
X170370705Y-108077489D02*
X171013493Y-107311444D01*
X170848709Y-107359661D01*
X170714535Y-107371400D01*
X170610969Y-107346661D01*
D14*
X168244892Y-108551453D02*
X168285485Y-108088216D01*
X167894701Y-108257607D02*
X168408931Y-107644771D01*
X168642392Y-107840668D01*
X168676270Y-107918825D01*
X168680965Y-107972495D01*
X168661174Y-108055348D01*
X168587712Y-108142896D01*
X168509555Y-108176774D01*
X168455886Y-108181469D01*
X168373033Y-108161678D01*
X168139572Y-107965780D01*
X168943609Y-108192880D02*
X168997279Y-108188184D01*
X169080132Y-108207976D01*
X169226045Y-108330411D01*
X169259923Y-108408568D01*
X169264618Y-108462238D01*
X169244827Y-108545091D01*
X169195852Y-108603456D01*
X169093208Y-108666517D01*
X168449171Y-108722863D01*
X168828545Y-109041196D01*
%TO.C,U2*%
D11*
X164319047Y-101452380D02*
X164319047Y-100452380D01*
X164795238Y-101452380D02*
X164795238Y-100452380D01*
X165366666Y-101452380D01*
X165366666Y-100452380D01*
X165795238Y-101166666D02*
X166271428Y-101166666D01*
X165700000Y-101452380D02*
X166033333Y-100452380D01*
X166366666Y-101452380D01*
X167223809Y-101452380D02*
X166652380Y-101452380D01*
X166938095Y-101452380D02*
X166938095Y-100452380D01*
X166842857Y-100595238D01*
X166747619Y-100690476D01*
X166652380Y-100738095D01*
X167557142Y-100452380D02*
X168176190Y-100452380D01*
X167842857Y-100833333D01*
X167985714Y-100833333D01*
X168080952Y-100880952D01*
X168128571Y-100928571D01*
X168176190Y-101023809D01*
X168176190Y-101261904D01*
X168128571Y-101357142D01*
X168080952Y-101404761D01*
X167985714Y-101452380D01*
X167700000Y-101452380D01*
X167604761Y-101404761D01*
X167557142Y-101357142D01*
X168652380Y-101452380D02*
X168842857Y-101452380D01*
X168938095Y-101404761D01*
X168985714Y-101357142D01*
X169080952Y-101214285D01*
X169128571Y-101023809D01*
X169128571Y-100642857D01*
X169080952Y-100547619D01*
X169033333Y-100500000D01*
X168938095Y-100452380D01*
X168747619Y-100452380D01*
X168652380Y-100500000D01*
X168604761Y-100547619D01*
X168557142Y-100642857D01*
X168557142Y-100880952D01*
X168604761Y-100976190D01*
X168652380Y-101023809D01*
X168747619Y-101071428D01*
X168938095Y-101071428D01*
X169033333Y-101023809D01*
X169080952Y-100976190D01*
X169128571Y-100880952D01*
D12*
X166426190Y-104280952D02*
X166830952Y-104280952D01*
X166878571Y-104257142D01*
X166902380Y-104233333D01*
X166926190Y-104185714D01*
X166926190Y-104090476D01*
X166902380Y-104042857D01*
X166878571Y-104019047D01*
X166830952Y-103995238D01*
X166426190Y-103995238D01*
X166473809Y-103780952D02*
X166450000Y-103757142D01*
X166426190Y-103709523D01*
X166426190Y-103590476D01*
X166450000Y-103542857D01*
X166473809Y-103519047D01*
X166521428Y-103495238D01*
X166569047Y-103495238D01*
X166640476Y-103519047D01*
X166926190Y-103804761D01*
X166926190Y-103495238D01*
%TO.C,U3*%
D11*
X185974761Y-101202380D02*
X186022380Y-101059523D01*
X186022380Y-100821428D01*
X185974761Y-100726190D01*
X185927142Y-100678571D01*
X185831904Y-100630952D01*
X185736666Y-100630952D01*
X185641428Y-100678571D01*
X185593809Y-100726190D01*
X185546190Y-100821428D01*
X185498571Y-101011904D01*
X185450952Y-101107142D01*
X185403333Y-101154761D01*
X185308095Y-101202380D01*
X185212857Y-101202380D01*
X185117619Y-101154761D01*
X185070000Y-101107142D01*
X185022380Y-101011904D01*
X185022380Y-100773809D01*
X185070000Y-100630952D01*
X185022380Y-100345238D02*
X185022380Y-99773809D01*
X186022380Y-100059523D02*
X185022380Y-100059523D01*
X186022380Y-99440476D02*
X185022380Y-99440476D01*
X185736666Y-99107142D01*
X185022380Y-98773809D01*
X186022380Y-98773809D01*
X185022380Y-98392857D02*
X185022380Y-97773809D01*
X185403333Y-98107142D01*
X185403333Y-97964285D01*
X185450952Y-97869047D01*
X185498571Y-97821428D01*
X185593809Y-97773809D01*
X185831904Y-97773809D01*
X185927142Y-97821428D01*
X185974761Y-97869047D01*
X186022380Y-97964285D01*
X186022380Y-98250000D01*
X185974761Y-98345238D01*
X185927142Y-98392857D01*
X185117619Y-97392857D02*
X185070000Y-97345238D01*
X185022380Y-97250000D01*
X185022380Y-97011904D01*
X185070000Y-96916666D01*
X185117619Y-96869047D01*
X185212857Y-96821428D01*
X185308095Y-96821428D01*
X185450952Y-96869047D01*
X186022380Y-97440476D01*
X186022380Y-96821428D01*
X185498571Y-96059523D02*
X185498571Y-96392857D01*
X186022380Y-96392857D02*
X185022380Y-96392857D01*
X185022380Y-95916666D01*
X185022380Y-95345238D02*
X185022380Y-95250000D01*
X185070000Y-95154761D01*
X185117619Y-95107142D01*
X185212857Y-95059523D01*
X185403333Y-95011904D01*
X185641428Y-95011904D01*
X185831904Y-95059523D01*
X185927142Y-95107142D01*
X185974761Y-95154761D01*
X186022380Y-95250000D01*
X186022380Y-95345238D01*
X185974761Y-95440476D01*
X185927142Y-95488095D01*
X185831904Y-95535714D01*
X185641428Y-95583333D01*
X185403333Y-95583333D01*
X185212857Y-95535714D01*
X185117619Y-95488095D01*
X185070000Y-95440476D01*
X185022380Y-95345238D01*
X185355714Y-94154761D02*
X186022380Y-94154761D01*
X184974761Y-94392857D02*
X185689047Y-94630952D01*
X185689047Y-94011904D01*
X185117619Y-93678571D02*
X185070000Y-93630952D01*
X185022380Y-93535714D01*
X185022380Y-93297619D01*
X185070000Y-93202380D01*
X185117619Y-93154761D01*
X185212857Y-93107142D01*
X185308095Y-93107142D01*
X185450952Y-93154761D01*
X186022380Y-93726190D01*
X186022380Y-93107142D01*
X185070000Y-92154761D02*
X185022380Y-92250000D01*
X185022380Y-92392857D01*
X185070000Y-92535714D01*
X185165238Y-92630952D01*
X185260476Y-92678571D01*
X185450952Y-92726190D01*
X185593809Y-92726190D01*
X185784285Y-92678571D01*
X185879523Y-92630952D01*
X185974761Y-92535714D01*
X186022380Y-92392857D01*
X186022380Y-92297619D01*
X185974761Y-92154761D01*
X185927142Y-92107142D01*
X185593809Y-92107142D01*
X185593809Y-92297619D01*
X185355714Y-91250000D02*
X186022380Y-91250000D01*
X184974761Y-91488095D02*
X185689047Y-91726190D01*
X185689047Y-91107142D01*
X185022380Y-90726190D02*
X185831904Y-90726190D01*
X185927142Y-90678571D01*
X185974761Y-90630952D01*
X186022380Y-90535714D01*
X186022380Y-90345238D01*
X185974761Y-90250000D01*
X185927142Y-90202380D01*
X185831904Y-90154761D01*
X185022380Y-90154761D01*
X186022380Y-89773809D02*
X185355714Y-89250000D01*
X185355714Y-89773809D02*
X186022380Y-89250000D01*
X181702380Y-96011904D02*
X182511904Y-96011904D01*
X182607142Y-95964285D01*
X182654761Y-95916666D01*
X182702380Y-95821428D01*
X182702380Y-95630952D01*
X182654761Y-95535714D01*
X182607142Y-95488095D01*
X182511904Y-95440476D01*
X181702380Y-95440476D01*
X181702380Y-95059523D02*
X181702380Y-94440476D01*
X182083333Y-94773809D01*
X182083333Y-94630952D01*
X182130952Y-94535714D01*
X182178571Y-94488095D01*
X182273809Y-94440476D01*
X182511904Y-94440476D01*
X182607142Y-94488095D01*
X182654761Y-94535714D01*
X182702380Y-94630952D01*
X182702380Y-94916666D01*
X182654761Y-95011904D01*
X182607142Y-95059523D01*
%TO.C,C4*%
X169402380Y-110961904D02*
X169402380Y-110342857D01*
X169783333Y-110676190D01*
X169783333Y-110533333D01*
X169830952Y-110438095D01*
X169878571Y-110390476D01*
X169973809Y-110342857D01*
X170211904Y-110342857D01*
X170307142Y-110390476D01*
X170354761Y-110438095D01*
X170402380Y-110533333D01*
X170402380Y-110819047D01*
X170354761Y-110914285D01*
X170307142Y-110961904D01*
X169402380Y-110009523D02*
X169402380Y-109390476D01*
X169783333Y-109723809D01*
X169783333Y-109580952D01*
X169830952Y-109485714D01*
X169878571Y-109438095D01*
X169973809Y-109390476D01*
X170211904Y-109390476D01*
X170307142Y-109438095D01*
X170354761Y-109485714D01*
X170402380Y-109580952D01*
X170402380Y-109866666D01*
X170354761Y-109961904D01*
X170307142Y-110009523D01*
X169735714Y-108961904D02*
X170735714Y-108961904D01*
X170259523Y-108485714D02*
X170354761Y-108438095D01*
X170402380Y-108342857D01*
X170259523Y-108961904D02*
X170354761Y-108914285D01*
X170402380Y-108819047D01*
X170402380Y-108628571D01*
X170354761Y-108533333D01*
X170259523Y-108485714D01*
X169735714Y-108485714D01*
X169878571Y-107580952D02*
X169878571Y-107914285D01*
X170402380Y-107914285D02*
X169402380Y-107914285D01*
X169402380Y-107438095D01*
X174057142Y-109366666D02*
X174104761Y-109414285D01*
X174152380Y-109557142D01*
X174152380Y-109652380D01*
X174104761Y-109795238D01*
X174009523Y-109890476D01*
X173914285Y-109938095D01*
X173723809Y-109985714D01*
X173580952Y-109985714D01*
X173390476Y-109938095D01*
X173295238Y-109890476D01*
X173200000Y-109795238D01*
X173152380Y-109652380D01*
X173152380Y-109557142D01*
X173200000Y-109414285D01*
X173247619Y-109366666D01*
X173485714Y-108509523D02*
X174152380Y-108509523D01*
X173104761Y-108747619D02*
X173819047Y-108985714D01*
X173819047Y-108366666D01*
%TO.C,PGND*%
X177428571Y-103352380D02*
X177428571Y-102352380D01*
X177761904Y-103066666D01*
X178095238Y-102352380D01*
X178095238Y-103352380D01*
X178714285Y-103352380D02*
X178619047Y-103304761D01*
X178571428Y-103257142D01*
X178523809Y-103161904D01*
X178523809Y-102876190D01*
X178571428Y-102780952D01*
X178619047Y-102733333D01*
X178714285Y-102685714D01*
X178857142Y-102685714D01*
X178952380Y-102733333D01*
X179000000Y-102780952D01*
X179047619Y-102876190D01*
X179047619Y-103161904D01*
X179000000Y-103257142D01*
X178952380Y-103304761D01*
X178857142Y-103352380D01*
X178714285Y-103352380D01*
X179904761Y-102685714D02*
X179904761Y-103352380D01*
X179476190Y-102685714D02*
X179476190Y-103209523D01*
X179523809Y-103304761D01*
X179619047Y-103352380D01*
X179761904Y-103352380D01*
X179857142Y-103304761D01*
X179904761Y-103257142D01*
X180380952Y-102685714D02*
X180380952Y-103352380D01*
X180380952Y-102780952D02*
X180428571Y-102733333D01*
X180523809Y-102685714D01*
X180666666Y-102685714D01*
X180761904Y-102733333D01*
X180809523Y-102828571D01*
X180809523Y-103352380D01*
X181142857Y-102685714D02*
X181523809Y-102685714D01*
X181285714Y-102352380D02*
X181285714Y-103209523D01*
X181333333Y-103304761D01*
X181428571Y-103352380D01*
X181523809Y-103352380D01*
X181857142Y-103352380D02*
X181857142Y-102685714D01*
X181857142Y-102352380D02*
X181809523Y-102400000D01*
X181857142Y-102447619D01*
X181904761Y-102400000D01*
X181857142Y-102352380D01*
X181857142Y-102447619D01*
X182333333Y-102685714D02*
X182333333Y-103352380D01*
X182333333Y-102780952D02*
X182380952Y-102733333D01*
X182476190Y-102685714D01*
X182619047Y-102685714D01*
X182714285Y-102733333D01*
X182761904Y-102828571D01*
X182761904Y-103352380D01*
X183666666Y-102685714D02*
X183666666Y-103495238D01*
X183619047Y-103590476D01*
X183571428Y-103638095D01*
X183476190Y-103685714D01*
X183333333Y-103685714D01*
X183238095Y-103638095D01*
X183666666Y-103304761D02*
X183571428Y-103352380D01*
X183380952Y-103352380D01*
X183285714Y-103304761D01*
X183238095Y-103257142D01*
X183190476Y-103161904D01*
X183190476Y-102876190D01*
X183238095Y-102780952D01*
X183285714Y-102733333D01*
X183380952Y-102685714D01*
X183571428Y-102685714D01*
X183666666Y-102733333D01*
X184142857Y-103352380D02*
X184142857Y-102352380D01*
X184142857Y-102828571D02*
X184714285Y-102828571D01*
X184714285Y-103352380D02*
X184714285Y-102352380D01*
X185333333Y-103352380D02*
X185238095Y-103304761D01*
X185190476Y-103257142D01*
X185142857Y-103161904D01*
X185142857Y-102876190D01*
X185190476Y-102780952D01*
X185238095Y-102733333D01*
X185333333Y-102685714D01*
X185476190Y-102685714D01*
X185571428Y-102733333D01*
X185619047Y-102780952D01*
X185666666Y-102876190D01*
X185666666Y-103161904D01*
X185619047Y-103257142D01*
X185571428Y-103304761D01*
X185476190Y-103352380D01*
X185333333Y-103352380D01*
X186238095Y-103352380D02*
X186142857Y-103304761D01*
X186095238Y-103209523D01*
X186095238Y-102352380D01*
X187000000Y-103304761D02*
X186904761Y-103352380D01*
X186714285Y-103352380D01*
X186619047Y-103304761D01*
X186571428Y-103209523D01*
X186571428Y-102828571D01*
X186619047Y-102733333D01*
X186714285Y-102685714D01*
X186904761Y-102685714D01*
X187000000Y-102733333D01*
X187047619Y-102828571D01*
X187047619Y-102923809D01*
X186571428Y-103019047D01*
X187238095Y-103447619D02*
X188000000Y-103447619D01*
X188238095Y-103352380D02*
X188238095Y-102352380D01*
X188619047Y-102352380D01*
X188714285Y-102400000D01*
X188761904Y-102447619D01*
X188809523Y-102542857D01*
X188809523Y-102685714D01*
X188761904Y-102780952D01*
X188714285Y-102828571D01*
X188619047Y-102876190D01*
X188238095Y-102876190D01*
X189666666Y-103352380D02*
X189666666Y-102828571D01*
X189619047Y-102733333D01*
X189523809Y-102685714D01*
X189333333Y-102685714D01*
X189238095Y-102733333D01*
X189666666Y-103304761D02*
X189571428Y-103352380D01*
X189333333Y-103352380D01*
X189238095Y-103304761D01*
X189190476Y-103209523D01*
X189190476Y-103114285D01*
X189238095Y-103019047D01*
X189333333Y-102971428D01*
X189571428Y-102971428D01*
X189666666Y-102923809D01*
X190571428Y-103352380D02*
X190571428Y-102352380D01*
X190571428Y-103304761D02*
X190476190Y-103352380D01*
X190285714Y-103352380D01*
X190190476Y-103304761D01*
X190142857Y-103257142D01*
X190095238Y-103161904D01*
X190095238Y-102876190D01*
X190142857Y-102780952D01*
X190190476Y-102733333D01*
X190285714Y-102685714D01*
X190476190Y-102685714D01*
X190571428Y-102733333D01*
X182514285Y-100452380D02*
X182514285Y-99452380D01*
X182895238Y-99452380D01*
X182990476Y-99500000D01*
X183038095Y-99547619D01*
X183085714Y-99642857D01*
X183085714Y-99785714D01*
X183038095Y-99880952D01*
X182990476Y-99928571D01*
X182895238Y-99976190D01*
X182514285Y-99976190D01*
X184038095Y-99500000D02*
X183942857Y-99452380D01*
X183800000Y-99452380D01*
X183657142Y-99500000D01*
X183561904Y-99595238D01*
X183514285Y-99690476D01*
X183466666Y-99880952D01*
X183466666Y-100023809D01*
X183514285Y-100214285D01*
X183561904Y-100309523D01*
X183657142Y-100404761D01*
X183800000Y-100452380D01*
X183895238Y-100452380D01*
X184038095Y-100404761D01*
X184085714Y-100357142D01*
X184085714Y-100023809D01*
X183895238Y-100023809D01*
X184514285Y-100452380D02*
X184514285Y-99452380D01*
X185085714Y-100452380D01*
X185085714Y-99452380D01*
X185561904Y-100452380D02*
X185561904Y-99452380D01*
X185800000Y-99452380D01*
X185942857Y-99500000D01*
X186038095Y-99595238D01*
X186085714Y-99690476D01*
X186133333Y-99880952D01*
X186133333Y-100023809D01*
X186085714Y-100214285D01*
X186038095Y-100309523D01*
X185942857Y-100404761D01*
X185800000Y-100452380D01*
X185561904Y-100452380D01*
%TO.C,PVCC*%
X159428571Y-103352380D02*
X159428571Y-102352380D01*
X159761904Y-103066666D01*
X160095238Y-102352380D01*
X160095238Y-103352380D01*
X160714285Y-103352380D02*
X160619047Y-103304761D01*
X160571428Y-103257142D01*
X160523809Y-103161904D01*
X160523809Y-102876190D01*
X160571428Y-102780952D01*
X160619047Y-102733333D01*
X160714285Y-102685714D01*
X160857142Y-102685714D01*
X160952380Y-102733333D01*
X161000000Y-102780952D01*
X161047619Y-102876190D01*
X161047619Y-103161904D01*
X161000000Y-103257142D01*
X160952380Y-103304761D01*
X160857142Y-103352380D01*
X160714285Y-103352380D01*
X161904761Y-102685714D02*
X161904761Y-103352380D01*
X161476190Y-102685714D02*
X161476190Y-103209523D01*
X161523809Y-103304761D01*
X161619047Y-103352380D01*
X161761904Y-103352380D01*
X161857142Y-103304761D01*
X161904761Y-103257142D01*
X162380952Y-102685714D02*
X162380952Y-103352380D01*
X162380952Y-102780952D02*
X162428571Y-102733333D01*
X162523809Y-102685714D01*
X162666666Y-102685714D01*
X162761904Y-102733333D01*
X162809523Y-102828571D01*
X162809523Y-103352380D01*
X163142857Y-102685714D02*
X163523809Y-102685714D01*
X163285714Y-102352380D02*
X163285714Y-103209523D01*
X163333333Y-103304761D01*
X163428571Y-103352380D01*
X163523809Y-103352380D01*
X163857142Y-103352380D02*
X163857142Y-102685714D01*
X163857142Y-102352380D02*
X163809523Y-102400000D01*
X163857142Y-102447619D01*
X163904761Y-102400000D01*
X163857142Y-102352380D01*
X163857142Y-102447619D01*
X164333333Y-102685714D02*
X164333333Y-103352380D01*
X164333333Y-102780952D02*
X164380952Y-102733333D01*
X164476190Y-102685714D01*
X164619047Y-102685714D01*
X164714285Y-102733333D01*
X164761904Y-102828571D01*
X164761904Y-103352380D01*
X165666666Y-102685714D02*
X165666666Y-103495238D01*
X165619047Y-103590476D01*
X165571428Y-103638095D01*
X165476190Y-103685714D01*
X165333333Y-103685714D01*
X165238095Y-103638095D01*
X165666666Y-103304761D02*
X165571428Y-103352380D01*
X165380952Y-103352380D01*
X165285714Y-103304761D01*
X165238095Y-103257142D01*
X165190476Y-103161904D01*
X165190476Y-102876190D01*
X165238095Y-102780952D01*
X165285714Y-102733333D01*
X165380952Y-102685714D01*
X165571428Y-102685714D01*
X165666666Y-102733333D01*
X166142857Y-103352380D02*
X166142857Y-102352380D01*
X166142857Y-102828571D02*
X166714285Y-102828571D01*
X166714285Y-103352380D02*
X166714285Y-102352380D01*
X167333333Y-103352380D02*
X167238095Y-103304761D01*
X167190476Y-103257142D01*
X167142857Y-103161904D01*
X167142857Y-102876190D01*
X167190476Y-102780952D01*
X167238095Y-102733333D01*
X167333333Y-102685714D01*
X167476190Y-102685714D01*
X167571428Y-102733333D01*
X167619047Y-102780952D01*
X167666666Y-102876190D01*
X167666666Y-103161904D01*
X167619047Y-103257142D01*
X167571428Y-103304761D01*
X167476190Y-103352380D01*
X167333333Y-103352380D01*
X168238095Y-103352380D02*
X168142857Y-103304761D01*
X168095238Y-103209523D01*
X168095238Y-102352380D01*
X169000000Y-103304761D02*
X168904761Y-103352380D01*
X168714285Y-103352380D01*
X168619047Y-103304761D01*
X168571428Y-103209523D01*
X168571428Y-102828571D01*
X168619047Y-102733333D01*
X168714285Y-102685714D01*
X168904761Y-102685714D01*
X169000000Y-102733333D01*
X169047619Y-102828571D01*
X169047619Y-102923809D01*
X168571428Y-103019047D01*
X169238095Y-103447619D02*
X170000000Y-103447619D01*
X170238095Y-103352380D02*
X170238095Y-102352380D01*
X170619047Y-102352380D01*
X170714285Y-102400000D01*
X170761904Y-102447619D01*
X170809523Y-102542857D01*
X170809523Y-102685714D01*
X170761904Y-102780952D01*
X170714285Y-102828571D01*
X170619047Y-102876190D01*
X170238095Y-102876190D01*
X171666666Y-103352380D02*
X171666666Y-102828571D01*
X171619047Y-102733333D01*
X171523809Y-102685714D01*
X171333333Y-102685714D01*
X171238095Y-102733333D01*
X171666666Y-103304761D02*
X171571428Y-103352380D01*
X171333333Y-103352380D01*
X171238095Y-103304761D01*
X171190476Y-103209523D01*
X171190476Y-103114285D01*
X171238095Y-103019047D01*
X171333333Y-102971428D01*
X171571428Y-102971428D01*
X171666666Y-102923809D01*
X172571428Y-103352380D02*
X172571428Y-102352380D01*
X172571428Y-103304761D02*
X172476190Y-103352380D01*
X172285714Y-103352380D01*
X172190476Y-103304761D01*
X172142857Y-103257142D01*
X172095238Y-103161904D01*
X172095238Y-102876190D01*
X172142857Y-102780952D01*
X172190476Y-102733333D01*
X172285714Y-102685714D01*
X172476190Y-102685714D01*
X172571428Y-102733333D01*
X164609523Y-100452380D02*
X164609523Y-99452380D01*
X164990476Y-99452380D01*
X165085714Y-99500000D01*
X165133333Y-99547619D01*
X165180952Y-99642857D01*
X165180952Y-99785714D01*
X165133333Y-99880952D01*
X165085714Y-99928571D01*
X164990476Y-99976190D01*
X164609523Y-99976190D01*
X165466666Y-99452380D02*
X165800000Y-100452380D01*
X166133333Y-99452380D01*
X167038095Y-100357142D02*
X166990476Y-100404761D01*
X166847619Y-100452380D01*
X166752380Y-100452380D01*
X166609523Y-100404761D01*
X166514285Y-100309523D01*
X166466666Y-100214285D01*
X166419047Y-100023809D01*
X166419047Y-99880952D01*
X166466666Y-99690476D01*
X166514285Y-99595238D01*
X166609523Y-99500000D01*
X166752380Y-99452380D01*
X166847619Y-99452380D01*
X166990476Y-99500000D01*
X167038095Y-99547619D01*
X168038095Y-100357142D02*
X167990476Y-100404761D01*
X167847619Y-100452380D01*
X167752380Y-100452380D01*
X167609523Y-100404761D01*
X167514285Y-100309523D01*
X167466666Y-100214285D01*
X167419047Y-100023809D01*
X167419047Y-99880952D01*
X167466666Y-99690476D01*
X167514285Y-99595238D01*
X167609523Y-99500000D01*
X167752380Y-99452380D01*
X167847619Y-99452380D01*
X167990476Y-99500000D01*
X168038095Y-99547619D01*
%TO.C,C1*%
X179032380Y-90292380D02*
X178460952Y-90292380D01*
X178746666Y-90292380D02*
X178746666Y-89292380D01*
X178651428Y-89435238D01*
X178556190Y-89530476D01*
X178460952Y-89578095D01*
X179651428Y-89292380D02*
X179746666Y-89292380D01*
X179841904Y-89340000D01*
X179889523Y-89387619D01*
X179937142Y-89482857D01*
X179984761Y-89673333D01*
X179984761Y-89911428D01*
X179937142Y-90101904D01*
X179889523Y-90197142D01*
X179841904Y-90244761D01*
X179746666Y-90292380D01*
X179651428Y-90292380D01*
X179556190Y-90244761D01*
X179508571Y-90197142D01*
X179460952Y-90101904D01*
X179413333Y-89911428D01*
X179413333Y-89673333D01*
X179460952Y-89482857D01*
X179508571Y-89387619D01*
X179556190Y-89340000D01*
X179651428Y-89292380D01*
X180603809Y-89292380D02*
X180699047Y-89292380D01*
X180794285Y-89340000D01*
X180841904Y-89387619D01*
X180889523Y-89482857D01*
X180937142Y-89673333D01*
X180937142Y-89911428D01*
X180889523Y-90101904D01*
X180841904Y-90197142D01*
X180794285Y-90244761D01*
X180699047Y-90292380D01*
X180603809Y-90292380D01*
X180508571Y-90244761D01*
X180460952Y-90197142D01*
X180413333Y-90101904D01*
X180365714Y-89911428D01*
X180365714Y-89673333D01*
X180413333Y-89482857D01*
X180460952Y-89387619D01*
X180508571Y-89340000D01*
X180603809Y-89292380D01*
X181365714Y-89625714D02*
X181365714Y-90292380D01*
X181365714Y-89720952D02*
X181413333Y-89673333D01*
X181508571Y-89625714D01*
X181651428Y-89625714D01*
X181746666Y-89673333D01*
X181794285Y-89768571D01*
X181794285Y-90292380D01*
X182603809Y-89768571D02*
X182270476Y-89768571D01*
X182270476Y-90292380D02*
X182270476Y-89292380D01*
X182746666Y-89292380D01*
D15*
X180538333Y-91089285D02*
X180526428Y-91101190D01*
X180490714Y-91113095D01*
X180466904Y-91113095D01*
X180431190Y-91101190D01*
X180407380Y-91077380D01*
X180395476Y-91053571D01*
X180383571Y-91005952D01*
X180383571Y-90970238D01*
X180395476Y-90922619D01*
X180407380Y-90898809D01*
X180431190Y-90875000D01*
X180466904Y-90863095D01*
X180490714Y-90863095D01*
X180526428Y-90875000D01*
X180538333Y-90886904D01*
X180776428Y-91113095D02*
X180633571Y-91113095D01*
X180705000Y-91113095D02*
X180705000Y-90863095D01*
X180681190Y-90898809D01*
X180657380Y-90922619D01*
X180633571Y-90934523D01*
%TO.C,C2*%
D11*
X166012380Y-104547619D02*
X166012380Y-105119047D01*
X166012380Y-104833333D02*
X165012380Y-104833333D01*
X165155238Y-104928571D01*
X165250476Y-105023809D01*
X165298095Y-105119047D01*
X165012380Y-103928571D02*
X165012380Y-103833333D01*
X165060000Y-103738095D01*
X165107619Y-103690476D01*
X165202857Y-103642857D01*
X165393333Y-103595238D01*
X165631428Y-103595238D01*
X165821904Y-103642857D01*
X165917142Y-103690476D01*
X165964761Y-103738095D01*
X166012380Y-103833333D01*
X166012380Y-103928571D01*
X165964761Y-104023809D01*
X165917142Y-104071428D01*
X165821904Y-104119047D01*
X165631428Y-104166666D01*
X165393333Y-104166666D01*
X165202857Y-104119047D01*
X165107619Y-104071428D01*
X165060000Y-104023809D01*
X165012380Y-103928571D01*
X165012380Y-102976190D02*
X165012380Y-102880952D01*
X165060000Y-102785714D01*
X165107619Y-102738095D01*
X165202857Y-102690476D01*
X165393333Y-102642857D01*
X165631428Y-102642857D01*
X165821904Y-102690476D01*
X165917142Y-102738095D01*
X165964761Y-102785714D01*
X166012380Y-102880952D01*
X166012380Y-102976190D01*
X165964761Y-103071428D01*
X165917142Y-103119047D01*
X165821904Y-103166666D01*
X165631428Y-103214285D01*
X165393333Y-103214285D01*
X165202857Y-103166666D01*
X165107619Y-103119047D01*
X165060000Y-103071428D01*
X165012380Y-102976190D01*
X165345714Y-102214285D02*
X166012380Y-102214285D01*
X165440952Y-102214285D02*
X165393333Y-102166666D01*
X165345714Y-102071428D01*
X165345714Y-101928571D01*
X165393333Y-101833333D01*
X165488571Y-101785714D01*
X166012380Y-101785714D01*
X165488571Y-100976190D02*
X165488571Y-101309523D01*
X166012380Y-101309523D02*
X165012380Y-101309523D01*
X165012380Y-100833333D01*
D15*
X164489285Y-103041666D02*
X164501190Y-103053571D01*
X164513095Y-103089285D01*
X164513095Y-103113095D01*
X164501190Y-103148809D01*
X164477380Y-103172619D01*
X164453571Y-103184523D01*
X164405952Y-103196428D01*
X164370238Y-103196428D01*
X164322619Y-103184523D01*
X164298809Y-103172619D01*
X164275000Y-103148809D01*
X164263095Y-103113095D01*
X164263095Y-103089285D01*
X164275000Y-103053571D01*
X164286904Y-103041666D01*
X164286904Y-102946428D02*
X164275000Y-102934523D01*
X164263095Y-102910714D01*
X164263095Y-102851190D01*
X164275000Y-102827380D01*
X164286904Y-102815476D01*
X164310714Y-102803571D01*
X164334523Y-102803571D01*
X164370238Y-102815476D01*
X164513095Y-102958333D01*
X164513095Y-102803571D01*
%TO.C,C3*%
D11*
X179437142Y-91292380D02*
X178865714Y-91292380D01*
X179151428Y-91292380D02*
X179151428Y-90292380D01*
X179056190Y-90435238D01*
X178960952Y-90530476D01*
X178865714Y-90578095D01*
X180056190Y-90292380D02*
X180151428Y-90292380D01*
X180246666Y-90340000D01*
X180294285Y-90387619D01*
X180341904Y-90482857D01*
X180389523Y-90673333D01*
X180389523Y-90911428D01*
X180341904Y-91101904D01*
X180294285Y-91197142D01*
X180246666Y-91244761D01*
X180151428Y-91292380D01*
X180056190Y-91292380D01*
X179960952Y-91244761D01*
X179913333Y-91197142D01*
X179865714Y-91101904D01*
X179818095Y-90911428D01*
X179818095Y-90673333D01*
X179865714Y-90482857D01*
X179913333Y-90387619D01*
X179960952Y-90340000D01*
X180056190Y-90292380D01*
X180818095Y-90625714D02*
X180818095Y-91625714D01*
X181294285Y-91149523D02*
X181341904Y-91244761D01*
X181437142Y-91292380D01*
X180818095Y-91149523D02*
X180865714Y-91244761D01*
X180960952Y-91292380D01*
X181151428Y-91292380D01*
X181246666Y-91244761D01*
X181294285Y-91149523D01*
X181294285Y-90625714D01*
X182199047Y-90768571D02*
X181865714Y-90768571D01*
X181865714Y-91292380D02*
X181865714Y-90292380D01*
X182341904Y-90292380D01*
D15*
X180538333Y-92089285D02*
X180526428Y-92101190D01*
X180490714Y-92113095D01*
X180466904Y-92113095D01*
X180431190Y-92101190D01*
X180407380Y-92077380D01*
X180395476Y-92053571D01*
X180383571Y-92005952D01*
X180383571Y-91970238D01*
X180395476Y-91922619D01*
X180407380Y-91898809D01*
X180431190Y-91875000D01*
X180466904Y-91863095D01*
X180490714Y-91863095D01*
X180526428Y-91875000D01*
X180538333Y-91886904D01*
X180621666Y-91863095D02*
X180776428Y-91863095D01*
X180693095Y-91958333D01*
X180728809Y-91958333D01*
X180752619Y-91970238D01*
X180764523Y-91982142D01*
X180776428Y-92005952D01*
X180776428Y-92065476D01*
X180764523Y-92089285D01*
X180752619Y-92101190D01*
X180728809Y-92113095D01*
X180657380Y-92113095D01*
X180633571Y-92101190D01*
X180621666Y-92089285D01*
%TO.C,C5*%
D11*
X170212380Y-97566666D02*
X170212380Y-98138095D01*
X170212380Y-97852380D02*
X169212380Y-97852380D01*
X169355238Y-97947619D01*
X169450476Y-98042857D01*
X169498095Y-98138095D01*
X169545714Y-97138095D02*
X170545714Y-97138095D01*
X170069523Y-96661904D02*
X170164761Y-96614285D01*
X170212380Y-96519047D01*
X170069523Y-97138095D02*
X170164761Y-97090476D01*
X170212380Y-96995238D01*
X170212380Y-96804761D01*
X170164761Y-96709523D01*
X170069523Y-96661904D01*
X169545714Y-96661904D01*
X169688571Y-95757142D02*
X169688571Y-96090476D01*
X170212380Y-96090476D02*
X169212380Y-96090476D01*
X169212380Y-95614285D01*
D15*
X168689285Y-96941666D02*
X168701190Y-96953571D01*
X168713095Y-96989285D01*
X168713095Y-97013095D01*
X168701190Y-97048809D01*
X168677380Y-97072619D01*
X168653571Y-97084523D01*
X168605952Y-97096428D01*
X168570238Y-97096428D01*
X168522619Y-97084523D01*
X168498809Y-97072619D01*
X168475000Y-97048809D01*
X168463095Y-97013095D01*
X168463095Y-96989285D01*
X168475000Y-96953571D01*
X168486904Y-96941666D01*
X168463095Y-96715476D02*
X168463095Y-96834523D01*
X168582142Y-96846428D01*
X168570238Y-96834523D01*
X168558333Y-96810714D01*
X168558333Y-96751190D01*
X168570238Y-96727380D01*
X168582142Y-96715476D01*
X168605952Y-96703571D01*
X168665476Y-96703571D01*
X168689285Y-96715476D01*
X168701190Y-96727380D01*
X168713095Y-96751190D01*
X168713095Y-96810714D01*
X168701190Y-96834523D01*
X168689285Y-96846428D01*
%TO.C,C6*%
D11*
X163392380Y-97566666D02*
X163392380Y-98138095D01*
X163392380Y-97852380D02*
X162392380Y-97852380D01*
X162535238Y-97947619D01*
X162630476Y-98042857D01*
X162678095Y-98138095D01*
X162725714Y-97138095D02*
X163725714Y-97138095D01*
X163249523Y-96661904D02*
X163344761Y-96614285D01*
X163392380Y-96519047D01*
X163249523Y-97138095D02*
X163344761Y-97090476D01*
X163392380Y-96995238D01*
X163392380Y-96804761D01*
X163344761Y-96709523D01*
X163249523Y-96661904D01*
X162725714Y-96661904D01*
X162868571Y-95757142D02*
X162868571Y-96090476D01*
X163392380Y-96090476D02*
X162392380Y-96090476D01*
X162392380Y-95614285D01*
D15*
X164189285Y-96941666D02*
X164201190Y-96953571D01*
X164213095Y-96989285D01*
X164213095Y-97013095D01*
X164201190Y-97048809D01*
X164177380Y-97072619D01*
X164153571Y-97084523D01*
X164105952Y-97096428D01*
X164070238Y-97096428D01*
X164022619Y-97084523D01*
X163998809Y-97072619D01*
X163975000Y-97048809D01*
X163963095Y-97013095D01*
X163963095Y-96989285D01*
X163975000Y-96953571D01*
X163986904Y-96941666D01*
X163963095Y-96727380D02*
X163963095Y-96775000D01*
X163975000Y-96798809D01*
X163986904Y-96810714D01*
X164022619Y-96834523D01*
X164070238Y-96846428D01*
X164165476Y-96846428D01*
X164189285Y-96834523D01*
X164201190Y-96822619D01*
X164213095Y-96798809D01*
X164213095Y-96751190D01*
X164201190Y-96727380D01*
X164189285Y-96715476D01*
X164165476Y-96703571D01*
X164105952Y-96703571D01*
X164082142Y-96715476D01*
X164070238Y-96727380D01*
X164058333Y-96751190D01*
X164058333Y-96798809D01*
X164070238Y-96822619D01*
X164082142Y-96834523D01*
X164105952Y-96846428D01*
%TO.C,C7*%
D11*
X180592380Y-100947619D02*
X180592380Y-101519047D01*
X180592380Y-101233333D02*
X179592380Y-101233333D01*
X179735238Y-101328571D01*
X179830476Y-101423809D01*
X179878095Y-101519047D01*
X179592380Y-100328571D02*
X179592380Y-100233333D01*
X179640000Y-100138095D01*
X179687619Y-100090476D01*
X179782857Y-100042857D01*
X179973333Y-99995238D01*
X180211428Y-99995238D01*
X180401904Y-100042857D01*
X180497142Y-100090476D01*
X180544761Y-100138095D01*
X180592380Y-100233333D01*
X180592380Y-100328571D01*
X180544761Y-100423809D01*
X180497142Y-100471428D01*
X180401904Y-100519047D01*
X180211428Y-100566666D01*
X179973333Y-100566666D01*
X179782857Y-100519047D01*
X179687619Y-100471428D01*
X179640000Y-100423809D01*
X179592380Y-100328571D01*
X179592380Y-99376190D02*
X179592380Y-99280952D01*
X179640000Y-99185714D01*
X179687619Y-99138095D01*
X179782857Y-99090476D01*
X179973333Y-99042857D01*
X180211428Y-99042857D01*
X180401904Y-99090476D01*
X180497142Y-99138095D01*
X180544761Y-99185714D01*
X180592380Y-99280952D01*
X180592380Y-99376190D01*
X180544761Y-99471428D01*
X180497142Y-99519047D01*
X180401904Y-99566666D01*
X180211428Y-99614285D01*
X179973333Y-99614285D01*
X179782857Y-99566666D01*
X179687619Y-99519047D01*
X179640000Y-99471428D01*
X179592380Y-99376190D01*
X179925714Y-98614285D02*
X180592380Y-98614285D01*
X180020952Y-98614285D02*
X179973333Y-98566666D01*
X179925714Y-98471428D01*
X179925714Y-98328571D01*
X179973333Y-98233333D01*
X180068571Y-98185714D01*
X180592380Y-98185714D01*
X180068571Y-97376190D02*
X180068571Y-97709523D01*
X180592380Y-97709523D02*
X179592380Y-97709523D01*
X179592380Y-97233333D01*
D15*
X181389285Y-99441666D02*
X181401190Y-99453571D01*
X181413095Y-99489285D01*
X181413095Y-99513095D01*
X181401190Y-99548809D01*
X181377380Y-99572619D01*
X181353571Y-99584523D01*
X181305952Y-99596428D01*
X181270238Y-99596428D01*
X181222619Y-99584523D01*
X181198809Y-99572619D01*
X181175000Y-99548809D01*
X181163095Y-99513095D01*
X181163095Y-99489285D01*
X181175000Y-99453571D01*
X181186904Y-99441666D01*
X181163095Y-99358333D02*
X181163095Y-99191666D01*
X181413095Y-99298809D01*
%TO.C,D1*%
D11*
X165125716Y-104897020D02*
X165204542Y-105025326D01*
X165210412Y-105092413D01*
X165185672Y-105195978D01*
X165093845Y-105305413D01*
X164996149Y-105347761D01*
X164929062Y-105353630D01*
X164825496Y-105328891D01*
X164533670Y-105084019D01*
X165176457Y-104317975D01*
X165431805Y-104532237D01*
X165474153Y-104629933D01*
X165480023Y-104697021D01*
X165455283Y-104800586D01*
X165394065Y-104873543D01*
X165296369Y-104915891D01*
X165229282Y-104921760D01*
X165125716Y-104897020D01*
X164870368Y-104682758D01*
X165446889Y-105477328D02*
X165811673Y-105783417D01*
X165190279Y-105634980D02*
X166088415Y-105083198D01*
X165700976Y-106063505D01*
X166489676Y-105419896D02*
X166102237Y-106400203D01*
X167000373Y-105848421D01*
X167014195Y-107165427D02*
X166576455Y-106798120D01*
X166795325Y-106981773D02*
X167438112Y-106215729D01*
X167273329Y-106263946D01*
X167139154Y-106275684D01*
X167035589Y-106250945D01*
X168313592Y-106950343D02*
X168167678Y-106827907D01*
X168064113Y-106803168D01*
X167997026Y-106809037D01*
X167832242Y-106857254D01*
X167673328Y-106972559D01*
X167428457Y-107264385D01*
X167403717Y-107367951D01*
X167409587Y-107435038D01*
X167451934Y-107532734D01*
X167597847Y-107655170D01*
X167701413Y-107679909D01*
X167768500Y-107674040D01*
X167866196Y-107631692D01*
X168019241Y-107449301D01*
X168043981Y-107345735D01*
X168038111Y-107278648D01*
X167995764Y-107180952D01*
X167849850Y-107058516D01*
X167746285Y-107033776D01*
X167679198Y-107039646D01*
X167581501Y-107081993D01*
X168641896Y-107225823D02*
X168181500Y-108144913D01*
X168786548Y-107720174D01*
X168473327Y-108389784D01*
X169298506Y-107776784D01*
X168941675Y-108720613D02*
X169020501Y-108848918D01*
X169202893Y-109001963D01*
X169306459Y-109026702D01*
X169373546Y-109020833D01*
X169471242Y-108978485D01*
X169532460Y-108905529D01*
X169557199Y-108801963D01*
X169551330Y-108734876D01*
X169508982Y-108637180D01*
X169393678Y-108478266D01*
X169351330Y-108380569D01*
X169345461Y-108313482D01*
X169370201Y-108209917D01*
X169431418Y-108136960D01*
X169529115Y-108094612D01*
X169596202Y-108088743D01*
X169699767Y-108113483D01*
X169882159Y-108266527D01*
X169960985Y-108394832D01*
X169921982Y-109108052D02*
X170505635Y-109597795D01*
X171195378Y-109368449D02*
X171706074Y-109796974D01*
X170734982Y-110287538D01*
X171599985Y-110516063D02*
X172183637Y-111005806D01*
X172895595Y-111416723D02*
X172640247Y-111202461D01*
X172303549Y-111603722D02*
X172946337Y-110837678D01*
X173311120Y-111143767D01*
X170332958Y-105054923D02*
X170975745Y-104288878D01*
X171158137Y-104441923D01*
X171236963Y-104570228D01*
X171248702Y-104704403D01*
X171223962Y-104807968D01*
X171138005Y-104984490D01*
X171046178Y-105093925D01*
X170887264Y-105209230D01*
X170789568Y-105251577D01*
X170655393Y-105263316D01*
X170515349Y-105207968D01*
X170332958Y-105054923D01*
X171500264Y-106034409D02*
X171062524Y-105667102D01*
X171281394Y-105850755D02*
X171924181Y-105084711D01*
X171759398Y-105132928D01*
X171625224Y-105144667D01*
X171521658Y-105119927D01*
%TO.C,D2*%
X182728571Y-109128571D02*
X182776190Y-108985714D01*
X182823809Y-108938095D01*
X182919047Y-108890476D01*
X183061904Y-108890476D01*
X183157142Y-108938095D01*
X183204761Y-108985714D01*
X183252380Y-109080952D01*
X183252380Y-109461904D01*
X182252380Y-109461904D01*
X182252380Y-109128571D01*
X182300000Y-109033333D01*
X182347619Y-108985714D01*
X182442857Y-108938095D01*
X182538095Y-108938095D01*
X182633333Y-108985714D01*
X182680952Y-109033333D01*
X182728571Y-109128571D01*
X182728571Y-109461904D01*
X182966666Y-108509523D02*
X182966666Y-108033333D01*
X183252380Y-108604761D02*
X182252380Y-108271428D01*
X183252380Y-107938095D01*
X182252380Y-107747619D02*
X183252380Y-107414285D01*
X182252380Y-107080952D01*
X183252380Y-106223809D02*
X183252380Y-106795238D01*
X183252380Y-106509523D02*
X182252380Y-106509523D01*
X182395238Y-106604761D01*
X182490476Y-106700000D01*
X182538095Y-106795238D01*
X182252380Y-105366666D02*
X182252380Y-105557142D01*
X182300000Y-105652380D01*
X182347619Y-105700000D01*
X182490476Y-105795238D01*
X182680952Y-105842857D01*
X183061904Y-105842857D01*
X183157142Y-105795238D01*
X183204761Y-105747619D01*
X183252380Y-105652380D01*
X183252380Y-105461904D01*
X183204761Y-105366666D01*
X183157142Y-105319047D01*
X183061904Y-105271428D01*
X182823809Y-105271428D01*
X182728571Y-105319047D01*
X182680952Y-105366666D01*
X182633333Y-105461904D01*
X182633333Y-105652380D01*
X182680952Y-105747619D01*
X182728571Y-105795238D01*
X182823809Y-105842857D01*
X182252380Y-104938095D02*
X183252380Y-104700000D01*
X182538095Y-104509523D01*
X183252380Y-104319047D01*
X182252380Y-104080952D01*
X183204761Y-103747619D02*
X183252380Y-103604761D01*
X183252380Y-103366666D01*
X183204761Y-103271428D01*
X183157142Y-103223809D01*
X183061904Y-103176190D01*
X182966666Y-103176190D01*
X182871428Y-103223809D01*
X182823809Y-103271428D01*
X182776190Y-103366666D01*
X182728571Y-103557142D01*
X182680952Y-103652380D01*
X182633333Y-103700000D01*
X182538095Y-103747619D01*
X182442857Y-103747619D01*
X182347619Y-103700000D01*
X182300000Y-103652380D01*
X182252380Y-103557142D01*
X182252380Y-103319047D01*
X182300000Y-103176190D01*
X182871428Y-102747619D02*
X182871428Y-101985714D01*
X182252380Y-101604761D02*
X182252380Y-100938095D01*
X183252380Y-101366666D01*
X182871428Y-100557142D02*
X182871428Y-99795238D01*
X182728571Y-98985714D02*
X182728571Y-99319047D01*
X183252380Y-99319047D02*
X182252380Y-99319047D01*
X182252380Y-98842857D01*
X187002380Y-104838095D02*
X186002380Y-104838095D01*
X186002380Y-104600000D01*
X186050000Y-104457142D01*
X186145238Y-104361904D01*
X186240476Y-104314285D01*
X186430952Y-104266666D01*
X186573809Y-104266666D01*
X186764285Y-104314285D01*
X186859523Y-104361904D01*
X186954761Y-104457142D01*
X187002380Y-104600000D01*
X187002380Y-104838095D01*
X186097619Y-103885714D02*
X186050000Y-103838095D01*
X186002380Y-103742857D01*
X186002380Y-103504761D01*
X186050000Y-103409523D01*
X186097619Y-103361904D01*
X186192857Y-103314285D01*
X186288095Y-103314285D01*
X186430952Y-103361904D01*
X187002380Y-103933333D01*
X187002380Y-103314285D01*
%TO.C,R1*%
X177109523Y-106022380D02*
X176538095Y-106022380D01*
X176823809Y-106022380D02*
X176823809Y-105022380D01*
X176728571Y-105165238D01*
X176633333Y-105260476D01*
X176538095Y-105308095D01*
X177728571Y-105022380D02*
X177823809Y-105022380D01*
X177919047Y-105070000D01*
X177966666Y-105117619D01*
X178014285Y-105212857D01*
X178061904Y-105403333D01*
X178061904Y-105641428D01*
X178014285Y-105831904D01*
X177966666Y-105927142D01*
X177919047Y-105974761D01*
X177823809Y-106022380D01*
X177728571Y-106022380D01*
X177633333Y-105974761D01*
X177585714Y-105927142D01*
X177538095Y-105831904D01*
X177490476Y-105641428D01*
X177490476Y-105403333D01*
X177538095Y-105212857D01*
X177585714Y-105117619D01*
X177633333Y-105070000D01*
X177728571Y-105022380D01*
X178490476Y-106022380D02*
X178490476Y-105022380D01*
X179061904Y-106022380D02*
X178633333Y-105450952D01*
X179061904Y-105022380D02*
X178490476Y-105593809D01*
D15*
X177756666Y-104517619D02*
X177670000Y-104393809D01*
X177608095Y-104517619D02*
X177608095Y-104257619D01*
X177707142Y-104257619D01*
X177731904Y-104270000D01*
X177744285Y-104282380D01*
X177756666Y-104307142D01*
X177756666Y-104344285D01*
X177744285Y-104369047D01*
X177731904Y-104381428D01*
X177707142Y-104393809D01*
X177608095Y-104393809D01*
X178004285Y-104517619D02*
X177855714Y-104517619D01*
X177930000Y-104517619D02*
X177930000Y-104257619D01*
X177905238Y-104294761D01*
X177880476Y-104319523D01*
X177855714Y-104331904D01*
%TO.C,R3*%
D11*
X177109523Y-108822380D02*
X176538095Y-108822380D01*
X176823809Y-108822380D02*
X176823809Y-107822380D01*
X176728571Y-107965238D01*
X176633333Y-108060476D01*
X176538095Y-108108095D01*
X177728571Y-107822380D02*
X177823809Y-107822380D01*
X177919047Y-107870000D01*
X177966666Y-107917619D01*
X178014285Y-108012857D01*
X178061904Y-108203333D01*
X178061904Y-108441428D01*
X178014285Y-108631904D01*
X177966666Y-108727142D01*
X177919047Y-108774761D01*
X177823809Y-108822380D01*
X177728571Y-108822380D01*
X177633333Y-108774761D01*
X177585714Y-108727142D01*
X177538095Y-108631904D01*
X177490476Y-108441428D01*
X177490476Y-108203333D01*
X177538095Y-108012857D01*
X177585714Y-107917619D01*
X177633333Y-107870000D01*
X177728571Y-107822380D01*
X178490476Y-108822380D02*
X178490476Y-107822380D01*
X179061904Y-108822380D02*
X178633333Y-108250952D01*
X179061904Y-107822380D02*
X178490476Y-108393809D01*
D15*
X177756666Y-107317619D02*
X177670000Y-107193809D01*
X177608095Y-107317619D02*
X177608095Y-107057619D01*
X177707142Y-107057619D01*
X177731904Y-107070000D01*
X177744285Y-107082380D01*
X177756666Y-107107142D01*
X177756666Y-107144285D01*
X177744285Y-107169047D01*
X177731904Y-107181428D01*
X177707142Y-107193809D01*
X177608095Y-107193809D01*
X177843333Y-107057619D02*
X178004285Y-107057619D01*
X177917619Y-107156666D01*
X177954761Y-107156666D01*
X177979523Y-107169047D01*
X177991904Y-107181428D01*
X178004285Y-107206190D01*
X178004285Y-107268095D01*
X177991904Y-107292857D01*
X177979523Y-107305238D01*
X177954761Y-107317619D01*
X177880476Y-107317619D01*
X177855714Y-107305238D01*
X177843333Y-107292857D01*
%TO.C,R4*%
D11*
X167085714Y-92322380D02*
X166609523Y-92322380D01*
X166561904Y-92798571D01*
X166609523Y-92750952D01*
X166704761Y-92703333D01*
X166942857Y-92703333D01*
X167038095Y-92750952D01*
X167085714Y-92798571D01*
X167133333Y-92893809D01*
X167133333Y-93131904D01*
X167085714Y-93227142D01*
X167038095Y-93274761D01*
X166942857Y-93322380D01*
X166704761Y-93322380D01*
X166609523Y-93274761D01*
X166561904Y-93227142D01*
X167990476Y-92322380D02*
X167800000Y-92322380D01*
X167704761Y-92370000D01*
X167657142Y-92417619D01*
X167561904Y-92560476D01*
X167514285Y-92750952D01*
X167514285Y-93131904D01*
X167561904Y-93227142D01*
X167609523Y-93274761D01*
X167704761Y-93322380D01*
X167895238Y-93322380D01*
X167990476Y-93274761D01*
X168038095Y-93227142D01*
X168085714Y-93131904D01*
X168085714Y-92893809D01*
X168038095Y-92798571D01*
X167990476Y-92750952D01*
X167895238Y-92703333D01*
X167704761Y-92703333D01*
X167609523Y-92750952D01*
X167561904Y-92798571D01*
X167514285Y-92893809D01*
X168704761Y-92322380D02*
X168800000Y-92322380D01*
X168895238Y-92370000D01*
X168942857Y-92417619D01*
X168990476Y-92512857D01*
X169038095Y-92703333D01*
X169038095Y-92941428D01*
X168990476Y-93131904D01*
X168942857Y-93227142D01*
X168895238Y-93274761D01*
X168800000Y-93322380D01*
X168704761Y-93322380D01*
X168609523Y-93274761D01*
X168561904Y-93227142D01*
X168514285Y-93131904D01*
X168466666Y-92941428D01*
X168466666Y-92703333D01*
X168514285Y-92512857D01*
X168561904Y-92417619D01*
X168609523Y-92370000D01*
X168704761Y-92322380D01*
D15*
X167756666Y-91817619D02*
X167670000Y-91693809D01*
X167608095Y-91817619D02*
X167608095Y-91557619D01*
X167707142Y-91557619D01*
X167731904Y-91570000D01*
X167744285Y-91582380D01*
X167756666Y-91607142D01*
X167756666Y-91644285D01*
X167744285Y-91669047D01*
X167731904Y-91681428D01*
X167707142Y-91693809D01*
X167608095Y-91693809D01*
X167979523Y-91644285D02*
X167979523Y-91817619D01*
X167917619Y-91545238D02*
X167855714Y-91730952D01*
X168016666Y-91730952D01*
%TO.C,R5*%
D11*
X180922380Y-100233333D02*
X180922380Y-99614285D01*
X181303333Y-99947619D01*
X181303333Y-99804761D01*
X181350952Y-99709523D01*
X181398571Y-99661904D01*
X181493809Y-99614285D01*
X181731904Y-99614285D01*
X181827142Y-99661904D01*
X181874761Y-99709523D01*
X181922380Y-99804761D01*
X181922380Y-100090476D01*
X181874761Y-100185714D01*
X181827142Y-100233333D01*
X181922380Y-99185714D02*
X180922380Y-99185714D01*
X181922380Y-98614285D02*
X181350952Y-99042857D01*
X180922380Y-98614285D02*
X181493809Y-99185714D01*
D15*
X180417619Y-99443333D02*
X180293809Y-99530000D01*
X180417619Y-99591904D02*
X180157619Y-99591904D01*
X180157619Y-99492857D01*
X180170000Y-99468095D01*
X180182380Y-99455714D01*
X180207142Y-99443333D01*
X180244285Y-99443333D01*
X180269047Y-99455714D01*
X180281428Y-99468095D01*
X180293809Y-99492857D01*
X180293809Y-99591904D01*
X180157619Y-99208095D02*
X180157619Y-99331904D01*
X180281428Y-99344285D01*
X180269047Y-99331904D01*
X180256666Y-99307142D01*
X180256666Y-99245238D01*
X180269047Y-99220476D01*
X180281428Y-99208095D01*
X180306190Y-99195714D01*
X180368095Y-99195714D01*
X180392857Y-99208095D01*
X180405238Y-99220476D01*
X180417619Y-99245238D01*
X180417619Y-99307142D01*
X180405238Y-99331904D01*
X180392857Y-99344285D01*
%TO.C,SWD*%
D11*
X169166666Y-93807142D02*
X169119047Y-93854761D01*
X168976190Y-93902380D01*
X168880952Y-93902380D01*
X168738095Y-93854761D01*
X168642857Y-93759523D01*
X168595238Y-93664285D01*
X168547619Y-93473809D01*
X168547619Y-93330952D01*
X168595238Y-93140476D01*
X168642857Y-93045238D01*
X168738095Y-92950000D01*
X168880952Y-92902380D01*
X168976190Y-92902380D01*
X169119047Y-92950000D01*
X169166666Y-92997619D01*
X169738095Y-93902380D02*
X169642857Y-93854761D01*
X169595238Y-93807142D01*
X169547619Y-93711904D01*
X169547619Y-93426190D01*
X169595238Y-93330952D01*
X169642857Y-93283333D01*
X169738095Y-93235714D01*
X169880952Y-93235714D01*
X169976190Y-93283333D01*
X170023809Y-93330952D01*
X170071428Y-93426190D01*
X170071428Y-93711904D01*
X170023809Y-93807142D01*
X169976190Y-93854761D01*
X169880952Y-93902380D01*
X169738095Y-93902380D01*
X170500000Y-93235714D02*
X170500000Y-93902380D01*
X170500000Y-93330952D02*
X170547619Y-93283333D01*
X170642857Y-93235714D01*
X170785714Y-93235714D01*
X170880952Y-93283333D01*
X170928571Y-93378571D01*
X170928571Y-93902380D01*
X171404761Y-93235714D02*
X171404761Y-93902380D01*
X171404761Y-93330952D02*
X171452380Y-93283333D01*
X171547619Y-93235714D01*
X171690476Y-93235714D01*
X171785714Y-93283333D01*
X171833333Y-93378571D01*
X171833333Y-93902380D01*
X172071428Y-93997619D02*
X172833333Y-93997619D01*
X173261904Y-92902380D02*
X173357142Y-92902380D01*
X173452380Y-92950000D01*
X173500000Y-92997619D01*
X173547619Y-93092857D01*
X173595238Y-93283333D01*
X173595238Y-93521428D01*
X173547619Y-93711904D01*
X173500000Y-93807142D01*
X173452380Y-93854761D01*
X173357142Y-93902380D01*
X173261904Y-93902380D01*
X173166666Y-93854761D01*
X173119047Y-93807142D01*
X173071428Y-93711904D01*
X173023809Y-93521428D01*
X173023809Y-93283333D01*
X173071428Y-93092857D01*
X173119047Y-92997619D01*
X173166666Y-92950000D01*
X173261904Y-92902380D01*
X174547619Y-93902380D02*
X173976190Y-93902380D01*
X174261904Y-93902380D02*
X174261904Y-92902380D01*
X174166666Y-93045238D01*
X174071428Y-93140476D01*
X173976190Y-93188095D01*
X174880952Y-93902380D02*
X175404761Y-93235714D01*
X174880952Y-93235714D02*
X175404761Y-93902380D01*
X175976190Y-92902380D02*
X176071428Y-92902380D01*
X176166666Y-92950000D01*
X176214285Y-92997619D01*
X176261904Y-93092857D01*
X176309523Y-93283333D01*
X176309523Y-93521428D01*
X176261904Y-93711904D01*
X176214285Y-93807142D01*
X176166666Y-93854761D01*
X176071428Y-93902380D01*
X175976190Y-93902380D01*
X175880952Y-93854761D01*
X175833333Y-93807142D01*
X175785714Y-93711904D01*
X175738095Y-93521428D01*
X175738095Y-93283333D01*
X175785714Y-93092857D01*
X175833333Y-92997619D01*
X175880952Y-92950000D01*
X175976190Y-92902380D01*
X177214285Y-92902380D02*
X176738095Y-92902380D01*
X176690476Y-93378571D01*
X176738095Y-93330952D01*
X176833333Y-93283333D01*
X177071428Y-93283333D01*
X177166666Y-93330952D01*
X177214285Y-93378571D01*
X177261904Y-93473809D01*
X177261904Y-93711904D01*
X177214285Y-93807142D01*
X177166666Y-93854761D01*
X177071428Y-93902380D01*
X176833333Y-93902380D01*
X176738095Y-93854761D01*
X176690476Y-93807142D01*
X177452380Y-93997619D02*
X178214285Y-93997619D01*
X178452380Y-93902380D02*
X178452380Y-92902380D01*
X178785714Y-93616666D01*
X179119047Y-92902380D01*
X179119047Y-93902380D01*
X180023809Y-93902380D02*
X180023809Y-93378571D01*
X179976190Y-93283333D01*
X179880952Y-93235714D01*
X179690476Y-93235714D01*
X179595238Y-93283333D01*
X180023809Y-93854761D02*
X179928571Y-93902380D01*
X179690476Y-93902380D01*
X179595238Y-93854761D01*
X179547619Y-93759523D01*
X179547619Y-93664285D01*
X179595238Y-93569047D01*
X179690476Y-93521428D01*
X179928571Y-93521428D01*
X180023809Y-93473809D01*
X180642857Y-93902380D02*
X180547619Y-93854761D01*
X180500000Y-93759523D01*
X180500000Y-92902380D01*
X181404761Y-93854761D02*
X181309523Y-93902380D01*
X181119047Y-93902380D01*
X181023809Y-93854761D01*
X180976190Y-93759523D01*
X180976190Y-93378571D01*
X181023809Y-93283333D01*
X181119047Y-93235714D01*
X181309523Y-93235714D01*
X181404761Y-93283333D01*
X181452380Y-93378571D01*
X181452380Y-93473809D01*
X180976190Y-93569047D01*
X173642857Y-90154761D02*
X173785714Y-90202380D01*
X174023809Y-90202380D01*
X174119047Y-90154761D01*
X174166666Y-90107142D01*
X174214285Y-90011904D01*
X174214285Y-89916666D01*
X174166666Y-89821428D01*
X174119047Y-89773809D01*
X174023809Y-89726190D01*
X173833333Y-89678571D01*
X173738095Y-89630952D01*
X173690476Y-89583333D01*
X173642857Y-89488095D01*
X173642857Y-89392857D01*
X173690476Y-89297619D01*
X173738095Y-89250000D01*
X173833333Y-89202380D01*
X174071428Y-89202380D01*
X174214285Y-89250000D01*
X174547619Y-89202380D02*
X174785714Y-90202380D01*
X174976190Y-89488095D01*
X175166666Y-90202380D01*
X175404761Y-89202380D01*
X175785714Y-90202380D02*
X175785714Y-89202380D01*
X176023809Y-89202380D01*
X176166666Y-89250000D01*
X176261904Y-89345238D01*
X176309523Y-89440476D01*
X176357142Y-89630952D01*
X176357142Y-89773809D01*
X176309523Y-89964285D01*
X176261904Y-90059523D01*
X176166666Y-90154761D01*
X176023809Y-90202380D01*
X175785714Y-90202380D01*
%TD*%
M02*
