%TF.GenerationSoftware,KiCad,Pcbnew,(5.1.8)-1*%
%TF.CreationDate,2020-12-07T19:46:07+01:00*%
%TF.ProjectId,PX12_Board,50583132-5f42-46f6-9172-642e6b696361,V1.0*%
%TF.SameCoordinates,Original*%
%TF.FileFunction,Legend,Bot*%
%TF.FilePolarity,Positive*%
%FSLAX46Y46*%
G04 Gerber Fmt 4.6, Leading zero omitted, Abs format (unit mm)*
G04 Created by KiCad (PCBNEW (5.1.8)-1) date 2020-12-07 19:46:07*
%MOMM*%
%LPD*%
G01*
G04 APERTURE LIST*
%ADD10C,0.150000*%
G04 APERTURE END LIST*
D10*
X177082142Y-96401785D02*
X177082142Y-95651785D01*
X176796428Y-95651785D01*
X176725000Y-95687500D01*
X176689285Y-95723214D01*
X176653571Y-95794642D01*
X176653571Y-95901785D01*
X176689285Y-95973214D01*
X176725000Y-96008928D01*
X176796428Y-96044642D01*
X177082142Y-96044642D01*
X176403571Y-95651785D02*
X175903571Y-96401785D01*
X175903571Y-95651785D02*
X176403571Y-96401785D01*
X175225000Y-96401785D02*
X175653571Y-96401785D01*
X175439285Y-96401785D02*
X175439285Y-95651785D01*
X175510714Y-95758928D01*
X175582142Y-95830357D01*
X175653571Y-95866071D01*
X174939285Y-95723214D02*
X174903571Y-95687500D01*
X174832142Y-95651785D01*
X174653571Y-95651785D01*
X174582142Y-95687500D01*
X174546428Y-95723214D01*
X174510714Y-95794642D01*
X174510714Y-95866071D01*
X174546428Y-95973214D01*
X174975000Y-96401785D01*
X174510714Y-96401785D01*
X173617857Y-96116071D02*
X173046428Y-96116071D01*
X172225000Y-95651785D02*
X171975000Y-96401785D01*
X171725000Y-95651785D01*
X171082142Y-96401785D02*
X171510714Y-96401785D01*
X171296428Y-96401785D02*
X171296428Y-95651785D01*
X171367857Y-95758928D01*
X171439285Y-95830357D01*
X171510714Y-95866071D01*
X180100000Y-97676785D02*
X180100000Y-96926785D01*
X179814285Y-96926785D01*
X179742857Y-96962500D01*
X179707142Y-96998214D01*
X179671428Y-97069642D01*
X179671428Y-97176785D01*
X179707142Y-97248214D01*
X179742857Y-97283928D01*
X179814285Y-97319642D01*
X180100000Y-97319642D01*
X179421428Y-96926785D02*
X178921428Y-97676785D01*
X178921428Y-96926785D02*
X179421428Y-97676785D01*
X178242857Y-97676785D02*
X178671428Y-97676785D01*
X178457142Y-97676785D02*
X178457142Y-96926785D01*
X178528571Y-97033928D01*
X178600000Y-97105357D01*
X178671428Y-97141071D01*
X177957142Y-96998214D02*
X177921428Y-96962500D01*
X177850000Y-96926785D01*
X177671428Y-96926785D01*
X177600000Y-96962500D01*
X177564285Y-96998214D01*
X177528571Y-97069642D01*
X177528571Y-97141071D01*
X177564285Y-97248214D01*
X177992857Y-97676785D01*
X177528571Y-97676785D01*
X176635714Y-97676785D02*
X176635714Y-96926785D01*
X176350000Y-96926785D01*
X176278571Y-96962500D01*
X176242857Y-96998214D01*
X176207142Y-97069642D01*
X176207142Y-97176785D01*
X176242857Y-97248214D01*
X176278571Y-97283928D01*
X176350000Y-97319642D01*
X176635714Y-97319642D01*
X175885714Y-97676785D02*
X175885714Y-97176785D01*
X175885714Y-97319642D02*
X175850000Y-97248214D01*
X175814285Y-97212500D01*
X175742857Y-97176785D01*
X175671428Y-97176785D01*
X175314285Y-97676785D02*
X175385714Y-97641071D01*
X175421428Y-97605357D01*
X175457142Y-97533928D01*
X175457142Y-97319642D01*
X175421428Y-97248214D01*
X175385714Y-97212500D01*
X175314285Y-97176785D01*
X175207142Y-97176785D01*
X175135714Y-97212500D01*
X175100000Y-97248214D01*
X175064285Y-97319642D01*
X175064285Y-97533928D01*
X175100000Y-97605357D01*
X175135714Y-97641071D01*
X175207142Y-97676785D01*
X175314285Y-97676785D01*
X174742857Y-97176785D02*
X174742857Y-97819642D01*
X174778571Y-97891071D01*
X174850000Y-97926785D01*
X174885714Y-97926785D01*
X174742857Y-96926785D02*
X174778571Y-96962500D01*
X174742857Y-96998214D01*
X174707142Y-96962500D01*
X174742857Y-96926785D01*
X174742857Y-96998214D01*
X174100000Y-97641071D02*
X174171428Y-97676785D01*
X174314285Y-97676785D01*
X174385714Y-97641071D01*
X174421428Y-97569642D01*
X174421428Y-97283928D01*
X174385714Y-97212500D01*
X174314285Y-97176785D01*
X174171428Y-97176785D01*
X174100000Y-97212500D01*
X174064285Y-97283928D01*
X174064285Y-97355357D01*
X174421428Y-97426785D01*
X173421428Y-97641071D02*
X173492857Y-97676785D01*
X173635714Y-97676785D01*
X173707142Y-97641071D01*
X173742857Y-97605357D01*
X173778571Y-97533928D01*
X173778571Y-97319642D01*
X173742857Y-97248214D01*
X173707142Y-97212500D01*
X173635714Y-97176785D01*
X173492857Y-97176785D01*
X173421428Y-97212500D01*
X173207142Y-97176785D02*
X172921428Y-97176785D01*
X173100000Y-96926785D02*
X173100000Y-97569642D01*
X173064285Y-97641071D01*
X172992857Y-97676785D01*
X172921428Y-97676785D01*
X172100000Y-97391071D02*
X171528571Y-97391071D01*
X170635714Y-96998214D02*
X170600000Y-96962500D01*
X170528571Y-96926785D01*
X170350000Y-96926785D01*
X170278571Y-96962500D01*
X170242857Y-96998214D01*
X170207142Y-97069642D01*
X170207142Y-97141071D01*
X170242857Y-97248214D01*
X170671428Y-97676785D01*
X170207142Y-97676785D01*
X169742857Y-96926785D02*
X169671428Y-96926785D01*
X169600000Y-96962500D01*
X169564285Y-96998214D01*
X169528571Y-97069642D01*
X169492857Y-97212500D01*
X169492857Y-97391071D01*
X169528571Y-97533928D01*
X169564285Y-97605357D01*
X169600000Y-97641071D01*
X169671428Y-97676785D01*
X169742857Y-97676785D01*
X169814285Y-97641071D01*
X169850000Y-97605357D01*
X169885714Y-97533928D01*
X169921428Y-97391071D01*
X169921428Y-97212500D01*
X169885714Y-97069642D01*
X169850000Y-96998214D01*
X169814285Y-96962500D01*
X169742857Y-96926785D01*
X169207142Y-96998214D02*
X169171428Y-96962500D01*
X169100000Y-96926785D01*
X168921428Y-96926785D01*
X168850000Y-96962500D01*
X168814285Y-96998214D01*
X168778571Y-97069642D01*
X168778571Y-97141071D01*
X168814285Y-97248214D01*
X169242857Y-97676785D01*
X168778571Y-97676785D01*
X168064285Y-97676785D02*
X168492857Y-97676785D01*
X168278571Y-97676785D02*
X168278571Y-96926785D01*
X168350000Y-97033928D01*
X168421428Y-97105357D01*
X168492857Y-97141071D01*
M02*
