%TF.GenerationSoftware,KiCad,Pcbnew,(5.1.8)-1*%
%TF.CreationDate,2021-07-21T00:03:38+02:00*%
%TF.ProjectId,PX12_Board,50583132-5f42-46f6-9172-642e6b696361,V1.0*%
%TF.SameCoordinates,Original*%
%TF.FileFunction,Legend,Bot*%
%TF.FilePolarity,Positive*%
%FSLAX46Y46*%
G04 Gerber Fmt 4.6, Leading zero omitted, Abs format (unit mm)*
G04 Created by KiCad (PCBNEW (5.1.8)-1) date 2021-07-21 00:03:38*
%MOMM*%
%LPD*%
G01*
G04 APERTURE LIST*
%ADD10C,0.150000*%
G04 APERTURE END LIST*
D10*
X178517857Y-103564285D02*
X178517857Y-102814285D01*
X178232142Y-102814285D01*
X178160714Y-102850000D01*
X178125000Y-102885714D01*
X178089285Y-102957142D01*
X178089285Y-103064285D01*
X178125000Y-103135714D01*
X178160714Y-103171428D01*
X178232142Y-103207142D01*
X178517857Y-103207142D01*
X177839285Y-102814285D02*
X177339285Y-103564285D01*
X177339285Y-102814285D02*
X177839285Y-103564285D01*
X176660714Y-103564285D02*
X177089285Y-103564285D01*
X176875000Y-103564285D02*
X176875000Y-102814285D01*
X176946428Y-102921428D01*
X177017857Y-102992857D01*
X177089285Y-103028571D01*
X176375000Y-102885714D02*
X176339285Y-102850000D01*
X176267857Y-102814285D01*
X176089285Y-102814285D01*
X176017857Y-102850000D01*
X175982142Y-102885714D01*
X175946428Y-102957142D01*
X175946428Y-103028571D01*
X175982142Y-103135714D01*
X176410714Y-103564285D01*
X175946428Y-103564285D01*
X175053571Y-103278571D02*
X174482142Y-103278571D01*
X173660714Y-102814285D02*
X173410714Y-103564285D01*
X173160714Y-102814285D01*
X172517857Y-103564285D02*
X172946428Y-103564285D01*
X172732142Y-103564285D02*
X172732142Y-102814285D01*
X172803571Y-102921428D01*
X172875000Y-102992857D01*
X172946428Y-103028571D01*
X172196428Y-103492857D02*
X172160714Y-103528571D01*
X172196428Y-103564285D01*
X172232142Y-103528571D01*
X172196428Y-103492857D01*
X172196428Y-103564285D01*
X171446428Y-103564285D02*
X171875000Y-103564285D01*
X171660714Y-103564285D02*
X171660714Y-102814285D01*
X171732142Y-102921428D01*
X171803571Y-102992857D01*
X171875000Y-103028571D01*
X178535714Y-104839285D02*
X178535714Y-104089285D01*
X178250000Y-104089285D01*
X178178571Y-104125000D01*
X178142857Y-104160714D01*
X178107142Y-104232142D01*
X178107142Y-104339285D01*
X178142857Y-104410714D01*
X178178571Y-104446428D01*
X178250000Y-104482142D01*
X178535714Y-104482142D01*
X177857142Y-104089285D02*
X177357142Y-104839285D01*
X177357142Y-104089285D02*
X177857142Y-104839285D01*
X176678571Y-104839285D02*
X177107142Y-104839285D01*
X176892857Y-104839285D02*
X176892857Y-104089285D01*
X176964285Y-104196428D01*
X177035714Y-104267857D01*
X177107142Y-104303571D01*
X176392857Y-104160714D02*
X176357142Y-104125000D01*
X176285714Y-104089285D01*
X176107142Y-104089285D01*
X176035714Y-104125000D01*
X176000000Y-104160714D01*
X175964285Y-104232142D01*
X175964285Y-104303571D01*
X176000000Y-104410714D01*
X176428571Y-104839285D01*
X175964285Y-104839285D01*
X175071428Y-104839285D02*
X175071428Y-104089285D01*
X174785714Y-104089285D01*
X174714285Y-104125000D01*
X174678571Y-104160714D01*
X174642857Y-104232142D01*
X174642857Y-104339285D01*
X174678571Y-104410714D01*
X174714285Y-104446428D01*
X174785714Y-104482142D01*
X175071428Y-104482142D01*
X174321428Y-104839285D02*
X174321428Y-104339285D01*
X174321428Y-104482142D02*
X174285714Y-104410714D01*
X174250000Y-104375000D01*
X174178571Y-104339285D01*
X174107142Y-104339285D01*
X173750000Y-104839285D02*
X173821428Y-104803571D01*
X173857142Y-104767857D01*
X173892857Y-104696428D01*
X173892857Y-104482142D01*
X173857142Y-104410714D01*
X173821428Y-104375000D01*
X173750000Y-104339285D01*
X173642857Y-104339285D01*
X173571428Y-104375000D01*
X173535714Y-104410714D01*
X173500000Y-104482142D01*
X173500000Y-104696428D01*
X173535714Y-104767857D01*
X173571428Y-104803571D01*
X173642857Y-104839285D01*
X173750000Y-104839285D01*
X173178571Y-104339285D02*
X173178571Y-104982142D01*
X173214285Y-105053571D01*
X173285714Y-105089285D01*
X173321428Y-105089285D01*
X173178571Y-104089285D02*
X173214285Y-104125000D01*
X173178571Y-104160714D01*
X173142857Y-104125000D01*
X173178571Y-104089285D01*
X173178571Y-104160714D01*
X172535714Y-104803571D02*
X172607142Y-104839285D01*
X172750000Y-104839285D01*
X172821428Y-104803571D01*
X172857142Y-104732142D01*
X172857142Y-104446428D01*
X172821428Y-104375000D01*
X172750000Y-104339285D01*
X172607142Y-104339285D01*
X172535714Y-104375000D01*
X172500000Y-104446428D01*
X172500000Y-104517857D01*
X172857142Y-104589285D01*
X171857142Y-104803571D02*
X171928571Y-104839285D01*
X172071428Y-104839285D01*
X172142857Y-104803571D01*
X172178571Y-104767857D01*
X172214285Y-104696428D01*
X172214285Y-104482142D01*
X172178571Y-104410714D01*
X172142857Y-104375000D01*
X172071428Y-104339285D01*
X171928571Y-104339285D01*
X171857142Y-104375000D01*
X171642857Y-104339285D02*
X171357142Y-104339285D01*
X171535714Y-104089285D02*
X171535714Y-104732142D01*
X171500000Y-104803571D01*
X171428571Y-104839285D01*
X171357142Y-104839285D01*
X176285714Y-105435714D02*
X176250000Y-105400000D01*
X176178571Y-105364285D01*
X176000000Y-105364285D01*
X175928571Y-105400000D01*
X175892857Y-105435714D01*
X175857142Y-105507142D01*
X175857142Y-105578571D01*
X175892857Y-105685714D01*
X176321428Y-106114285D01*
X175857142Y-106114285D01*
X175392857Y-105364285D02*
X175321428Y-105364285D01*
X175250000Y-105400000D01*
X175214285Y-105435714D01*
X175178571Y-105507142D01*
X175142857Y-105650000D01*
X175142857Y-105828571D01*
X175178571Y-105971428D01*
X175214285Y-106042857D01*
X175250000Y-106078571D01*
X175321428Y-106114285D01*
X175392857Y-106114285D01*
X175464285Y-106078571D01*
X175500000Y-106042857D01*
X175535714Y-105971428D01*
X175571428Y-105828571D01*
X175571428Y-105650000D01*
X175535714Y-105507142D01*
X175500000Y-105435714D01*
X175464285Y-105400000D01*
X175392857Y-105364285D01*
X174857142Y-105435714D02*
X174821428Y-105400000D01*
X174750000Y-105364285D01*
X174571428Y-105364285D01*
X174500000Y-105400000D01*
X174464285Y-105435714D01*
X174428571Y-105507142D01*
X174428571Y-105578571D01*
X174464285Y-105685714D01*
X174892857Y-106114285D01*
X174428571Y-106114285D01*
X173714285Y-106114285D02*
X174142857Y-106114285D01*
X173928571Y-106114285D02*
X173928571Y-105364285D01*
X174000000Y-105471428D01*
X174071428Y-105542857D01*
X174142857Y-105578571D01*
M02*
