%TF.GenerationSoftware,KiCad,Pcbnew,(5.1.8)-1*%
%TF.CreationDate,2021-07-21T00:03:38+02:00*%
%TF.ProjectId,PX12_Board,50583132-5f42-46f6-9172-642e6b696361,V1.0*%
%TF.SameCoordinates,Original*%
%TF.FileFunction,Soldermask,Bot*%
%TF.FilePolarity,Negative*%
%FSLAX46Y46*%
G04 Gerber Fmt 4.6, Leading zero omitted, Abs format (unit mm)*
G04 Created by KiCad (PCBNEW (5.1.8)-1) date 2021-07-21 00:03:38*
%MOMM*%
%LPD*%
G01*
G04 APERTURE LIST*
%ADD10O,1.300000X0.800000*%
%ADD11O,1.700000X1.850000*%
%ADD12R,1.600000X1.600000*%
%ADD13C,1.600000*%
%ADD14C,3.800000*%
%ADD15O,0.800000X1.300000*%
G04 APERTURE END LIST*
%TO.C,VALVE1*%
G36*
G01*
X180250000Y-105500000D02*
X181150000Y-105500000D01*
G75*
G02*
X181350000Y-105700000I0J-200000D01*
G01*
X181350000Y-106100000D01*
G75*
G02*
X181150000Y-106300000I-200000J0D01*
G01*
X180250000Y-106300000D01*
G75*
G02*
X180050000Y-106100000I0J200000D01*
G01*
X180050000Y-105700000D01*
G75*
G02*
X180250000Y-105500000I200000J0D01*
G01*
G37*
D10*
X180700000Y-107150000D03*
%TD*%
D11*
%TO.C,AX12_2*%
X171750000Y-100500000D03*
X174250000Y-100500000D03*
G36*
G01*
X177600000Y-99825000D02*
X177600000Y-101175000D01*
G75*
G02*
X177350000Y-101425000I-250000J0D01*
G01*
X176150000Y-101425000D01*
G75*
G02*
X175900000Y-101175000I0J250000D01*
G01*
X175900000Y-99825000D01*
G75*
G02*
X176150000Y-99575000I250000J0D01*
G01*
X177350000Y-99575000D01*
G75*
G02*
X177600000Y-99825000I0J-250000D01*
G01*
G37*
%TD*%
%TO.C,AX12_1*%
G36*
G01*
X177600000Y-94325000D02*
X177600000Y-95675000D01*
G75*
G02*
X177350000Y-95925000I-250000J0D01*
G01*
X176150000Y-95925000D01*
G75*
G02*
X175900000Y-95675000I0J250000D01*
G01*
X175900000Y-94325000D01*
G75*
G02*
X176150000Y-94075000I250000J0D01*
G01*
X177350000Y-94075000D01*
G75*
G02*
X177600000Y-94325000I0J-250000D01*
G01*
G37*
X174250000Y-95000000D03*
X171750000Y-95000000D03*
%TD*%
D12*
%TO.C,C4*%
X173700000Y-108200000D03*
D13*
X173700000Y-110200000D03*
%TD*%
D14*
%TO.C,PGND*%
X184000000Y-100000000D03*
%TD*%
%TO.C,PVCC*%
X166000000Y-100000000D03*
%TD*%
%TO.C,SWD*%
G36*
G01*
X172100000Y-91550000D02*
X172100000Y-90650000D01*
G75*
G02*
X172300000Y-90450000I200000J0D01*
G01*
X172700000Y-90450000D01*
G75*
G02*
X172900000Y-90650000I0J-200000D01*
G01*
X172900000Y-91550000D01*
G75*
G02*
X172700000Y-91750000I-200000J0D01*
G01*
X172300000Y-91750000D01*
G75*
G02*
X172100000Y-91550000I0J200000D01*
G01*
G37*
D15*
X173750000Y-91100000D03*
X175000000Y-91100000D03*
X176250000Y-91100000D03*
X177500000Y-91100000D03*
%TD*%
M02*
