%TF.GenerationSoftware,KiCad,Pcbnew,(5.1.8)-1*%
%TF.CreationDate,2021-07-18T18:57:16+02:00*%
%TF.ProjectId,PX12_Board,50583132-5f42-46f6-9172-642e6b696361,V1.0*%
%TF.SameCoordinates,Original*%
%TF.FileFunction,Paste,Top*%
%TF.FilePolarity,Positive*%
%FSLAX46Y46*%
G04 Gerber Fmt 4.6, Leading zero omitted, Abs format (unit mm)*
G04 Created by KiCad (PCBNEW (5.1.8)-1) date 2021-07-18 18:57:16*
%MOMM*%
%LPD*%
G01*
G04 APERTURE LIST*
%ADD10R,0.650000X1.060000*%
%ADD11R,0.900000X0.800000*%
%ADD12R,1.060000X0.650000*%
%ADD13C,0.100000*%
%ADD14R,0.450000X0.600000*%
G04 APERTURE END LIST*
D10*
%TO.C,U1*%
X165450000Y-94800000D03*
X167350000Y-94800000D03*
X167350000Y-97000000D03*
X166400000Y-97000000D03*
X165450000Y-97000000D03*
%TD*%
%TO.C,D3*%
G36*
G01*
X166075000Y-93356250D02*
X166075000Y-92843750D01*
G75*
G02*
X166293750Y-92625000I218750J0D01*
G01*
X166731250Y-92625000D01*
G75*
G02*
X166950000Y-92843750I0J-218750D01*
G01*
X166950000Y-93356250D01*
G75*
G02*
X166731250Y-93575000I-218750J0D01*
G01*
X166293750Y-93575000D01*
G75*
G02*
X166075000Y-93356250I0J218750D01*
G01*
G37*
G36*
G01*
X167650000Y-93356250D02*
X167650000Y-92843750D01*
G75*
G02*
X167868750Y-92625000I218750J0D01*
G01*
X168306250Y-92625000D01*
G75*
G02*
X168525000Y-92843750I0J-218750D01*
G01*
X168525000Y-93356250D01*
G75*
G02*
X168306250Y-93575000I-218750J0D01*
G01*
X167868750Y-93575000D01*
G75*
G02*
X167650000Y-93356250I0J218750D01*
G01*
G37*
%TD*%
D11*
%TO.C,Q1*%
X182000000Y-102200000D03*
X180000000Y-103150000D03*
X180000000Y-101250000D03*
%TD*%
%TO.C,Q2*%
X177300000Y-108550000D03*
X177300000Y-110450000D03*
X179300000Y-109500000D03*
%TD*%
%TO.C,R2*%
G36*
G01*
X170532644Y-109182788D02*
X169729156Y-110140348D01*
G75*
G02*
X169376952Y-110171162I-191509J160695D01*
G01*
X168898170Y-109769416D01*
G75*
G02*
X168867356Y-109417212I160695J191509D01*
G01*
X169670844Y-108459652D01*
G75*
G02*
X170023048Y-108428838I191509J-160695D01*
G01*
X170501830Y-108830584D01*
G75*
G02*
X170532644Y-109182788I-160695J-191509D01*
G01*
G37*
G36*
G01*
X168291964Y-107302634D02*
X167488476Y-108260194D01*
G75*
G02*
X167136272Y-108291008I-191509J160695D01*
G01*
X166657490Y-107889262D01*
G75*
G02*
X166626676Y-107537058I160695J191509D01*
G01*
X167430164Y-106579498D01*
G75*
G02*
X167782368Y-106548684I191509J-160695D01*
G01*
X168261150Y-106950430D01*
G75*
G02*
X168291964Y-107302634I-160695J-191509D01*
G01*
G37*
%TD*%
D12*
%TO.C,U2*%
X167800000Y-104850000D03*
X167800000Y-103900000D03*
X167800000Y-102950000D03*
X165600000Y-102950000D03*
X165600000Y-104850000D03*
%TD*%
D13*
%TO.C,U3*%
G36*
X180625865Y-97039861D02*
G01*
X180628425Y-97031419D01*
X180632584Y-97023639D01*
X180638180Y-97016820D01*
X180771820Y-96883180D01*
X180778639Y-96877584D01*
X180786419Y-96873425D01*
X180794861Y-96870865D01*
X180803640Y-96870000D01*
X180830000Y-96870000D01*
X180838779Y-96870865D01*
X180847221Y-96873425D01*
X180855001Y-96877584D01*
X180861820Y-96883180D01*
X180867416Y-96889999D01*
X180871575Y-96897779D01*
X180874135Y-96906221D01*
X180875000Y-96915000D01*
X180875000Y-97580000D01*
X180874135Y-97588779D01*
X180871575Y-97597221D01*
X180867416Y-97605001D01*
X180861820Y-97611820D01*
X180855001Y-97617416D01*
X180847221Y-97621575D01*
X180838779Y-97624135D01*
X180830000Y-97625000D01*
X180670000Y-97625000D01*
X180661221Y-97624135D01*
X180652779Y-97621575D01*
X180644999Y-97617416D01*
X180638180Y-97611820D01*
X180632584Y-97605001D01*
X180628425Y-97597221D01*
X180625865Y-97588779D01*
X180625000Y-97580000D01*
X180625000Y-97048640D01*
X180625865Y-97039861D01*
G37*
G36*
G01*
X181312500Y-97625000D02*
X181187500Y-97625000D01*
G75*
G02*
X181125000Y-97562500I0J62500D01*
G01*
X181125000Y-96812500D01*
G75*
G02*
X181187500Y-96750000I62500J0D01*
G01*
X181312500Y-96750000D01*
G75*
G02*
X181375000Y-96812500I0J-62500D01*
G01*
X181375000Y-97562500D01*
G75*
G02*
X181312500Y-97625000I-62500J0D01*
G01*
G37*
G36*
G01*
X181812500Y-97625000D02*
X181687500Y-97625000D01*
G75*
G02*
X181625000Y-97562500I0J62500D01*
G01*
X181625000Y-96812500D01*
G75*
G02*
X181687500Y-96750000I62500J0D01*
G01*
X181812500Y-96750000D01*
G75*
G02*
X181875000Y-96812500I0J-62500D01*
G01*
X181875000Y-97562500D01*
G75*
G02*
X181812500Y-97625000I-62500J0D01*
G01*
G37*
G36*
G01*
X182312500Y-97625000D02*
X182187500Y-97625000D01*
G75*
G02*
X182125000Y-97562500I0J62500D01*
G01*
X182125000Y-96812500D01*
G75*
G02*
X182187500Y-96750000I62500J0D01*
G01*
X182312500Y-96750000D01*
G75*
G02*
X182375000Y-96812500I0J-62500D01*
G01*
X182375000Y-97562500D01*
G75*
G02*
X182312500Y-97625000I-62500J0D01*
G01*
G37*
G36*
G01*
X182812500Y-97625000D02*
X182687500Y-97625000D01*
G75*
G02*
X182625000Y-97562500I0J62500D01*
G01*
X182625000Y-96812500D01*
G75*
G02*
X182687500Y-96750000I62500J0D01*
G01*
X182812500Y-96750000D01*
G75*
G02*
X182875000Y-96812500I0J-62500D01*
G01*
X182875000Y-97562500D01*
G75*
G02*
X182812500Y-97625000I-62500J0D01*
G01*
G37*
G36*
G01*
X183312500Y-97625000D02*
X183187500Y-97625000D01*
G75*
G02*
X183125000Y-97562500I0J62500D01*
G01*
X183125000Y-96812500D01*
G75*
G02*
X183187500Y-96750000I62500J0D01*
G01*
X183312500Y-96750000D01*
G75*
G02*
X183375000Y-96812500I0J-62500D01*
G01*
X183375000Y-97562500D01*
G75*
G02*
X183312500Y-97625000I-62500J0D01*
G01*
G37*
G36*
X183625865Y-96906221D02*
G01*
X183628425Y-96897779D01*
X183632584Y-96889999D01*
X183638180Y-96883180D01*
X183644999Y-96877584D01*
X183652779Y-96873425D01*
X183661221Y-96870865D01*
X183670000Y-96870000D01*
X183696360Y-96870000D01*
X183705139Y-96870865D01*
X183713581Y-96873425D01*
X183721361Y-96877584D01*
X183728180Y-96883180D01*
X183861820Y-97016820D01*
X183867416Y-97023639D01*
X183871575Y-97031419D01*
X183874135Y-97039861D01*
X183875000Y-97048640D01*
X183875000Y-97580000D01*
X183874135Y-97588779D01*
X183871575Y-97597221D01*
X183867416Y-97605001D01*
X183861820Y-97611820D01*
X183855001Y-97617416D01*
X183847221Y-97621575D01*
X183838779Y-97624135D01*
X183830000Y-97625000D01*
X183670000Y-97625000D01*
X183661221Y-97624135D01*
X183652779Y-97621575D01*
X183644999Y-97617416D01*
X183638180Y-97611820D01*
X183632584Y-97605001D01*
X183628425Y-97597221D01*
X183625865Y-97588779D01*
X183625000Y-97580000D01*
X183625000Y-96915000D01*
X183625865Y-96906221D01*
G37*
G36*
X183870865Y-96661221D02*
G01*
X183873425Y-96652779D01*
X183877584Y-96644999D01*
X183883180Y-96638180D01*
X183889999Y-96632584D01*
X183897779Y-96628425D01*
X183906221Y-96625865D01*
X183915000Y-96625000D01*
X184580000Y-96625000D01*
X184588779Y-96625865D01*
X184597221Y-96628425D01*
X184605001Y-96632584D01*
X184611820Y-96638180D01*
X184617416Y-96644999D01*
X184621575Y-96652779D01*
X184624135Y-96661221D01*
X184625000Y-96670000D01*
X184625000Y-96830000D01*
X184624135Y-96838779D01*
X184621575Y-96847221D01*
X184617416Y-96855001D01*
X184611820Y-96861820D01*
X184605001Y-96867416D01*
X184597221Y-96871575D01*
X184588779Y-96874135D01*
X184580000Y-96875000D01*
X184048640Y-96875000D01*
X184039861Y-96874135D01*
X184031419Y-96871575D01*
X184023639Y-96867416D01*
X184016820Y-96861820D01*
X183883180Y-96728180D01*
X183877584Y-96721361D01*
X183873425Y-96713581D01*
X183870865Y-96705139D01*
X183870000Y-96696360D01*
X183870000Y-96670000D01*
X183870865Y-96661221D01*
G37*
G36*
G01*
X184562500Y-96375000D02*
X183812500Y-96375000D01*
G75*
G02*
X183750000Y-96312500I0J62500D01*
G01*
X183750000Y-96187500D01*
G75*
G02*
X183812500Y-96125000I62500J0D01*
G01*
X184562500Y-96125000D01*
G75*
G02*
X184625000Y-96187500I0J-62500D01*
G01*
X184625000Y-96312500D01*
G75*
G02*
X184562500Y-96375000I-62500J0D01*
G01*
G37*
G36*
G01*
X184562500Y-95875000D02*
X183812500Y-95875000D01*
G75*
G02*
X183750000Y-95812500I0J62500D01*
G01*
X183750000Y-95687500D01*
G75*
G02*
X183812500Y-95625000I62500J0D01*
G01*
X184562500Y-95625000D01*
G75*
G02*
X184625000Y-95687500I0J-62500D01*
G01*
X184625000Y-95812500D01*
G75*
G02*
X184562500Y-95875000I-62500J0D01*
G01*
G37*
G36*
G01*
X184562500Y-95375000D02*
X183812500Y-95375000D01*
G75*
G02*
X183750000Y-95312500I0J62500D01*
G01*
X183750000Y-95187500D01*
G75*
G02*
X183812500Y-95125000I62500J0D01*
G01*
X184562500Y-95125000D01*
G75*
G02*
X184625000Y-95187500I0J-62500D01*
G01*
X184625000Y-95312500D01*
G75*
G02*
X184562500Y-95375000I-62500J0D01*
G01*
G37*
G36*
G01*
X184562500Y-94875000D02*
X183812500Y-94875000D01*
G75*
G02*
X183750000Y-94812500I0J62500D01*
G01*
X183750000Y-94687500D01*
G75*
G02*
X183812500Y-94625000I62500J0D01*
G01*
X184562500Y-94625000D01*
G75*
G02*
X184625000Y-94687500I0J-62500D01*
G01*
X184625000Y-94812500D01*
G75*
G02*
X184562500Y-94875000I-62500J0D01*
G01*
G37*
G36*
G01*
X184562500Y-94375000D02*
X183812500Y-94375000D01*
G75*
G02*
X183750000Y-94312500I0J62500D01*
G01*
X183750000Y-94187500D01*
G75*
G02*
X183812500Y-94125000I62500J0D01*
G01*
X184562500Y-94125000D01*
G75*
G02*
X184625000Y-94187500I0J-62500D01*
G01*
X184625000Y-94312500D01*
G75*
G02*
X184562500Y-94375000I-62500J0D01*
G01*
G37*
G36*
X183870865Y-93794861D02*
G01*
X183873425Y-93786419D01*
X183877584Y-93778639D01*
X183883180Y-93771820D01*
X184016820Y-93638180D01*
X184023639Y-93632584D01*
X184031419Y-93628425D01*
X184039861Y-93625865D01*
X184048640Y-93625000D01*
X184580000Y-93625000D01*
X184588779Y-93625865D01*
X184597221Y-93628425D01*
X184605001Y-93632584D01*
X184611820Y-93638180D01*
X184617416Y-93644999D01*
X184621575Y-93652779D01*
X184624135Y-93661221D01*
X184625000Y-93670000D01*
X184625000Y-93830000D01*
X184624135Y-93838779D01*
X184621575Y-93847221D01*
X184617416Y-93855001D01*
X184611820Y-93861820D01*
X184605001Y-93867416D01*
X184597221Y-93871575D01*
X184588779Y-93874135D01*
X184580000Y-93875000D01*
X183915000Y-93875000D01*
X183906221Y-93874135D01*
X183897779Y-93871575D01*
X183889999Y-93867416D01*
X183883180Y-93861820D01*
X183877584Y-93855001D01*
X183873425Y-93847221D01*
X183870865Y-93838779D01*
X183870000Y-93830000D01*
X183870000Y-93803640D01*
X183870865Y-93794861D01*
G37*
G36*
X183625865Y-92911221D02*
G01*
X183628425Y-92902779D01*
X183632584Y-92894999D01*
X183638180Y-92888180D01*
X183644999Y-92882584D01*
X183652779Y-92878425D01*
X183661221Y-92875865D01*
X183670000Y-92875000D01*
X183830000Y-92875000D01*
X183838779Y-92875865D01*
X183847221Y-92878425D01*
X183855001Y-92882584D01*
X183861820Y-92888180D01*
X183867416Y-92894999D01*
X183871575Y-92902779D01*
X183874135Y-92911221D01*
X183875000Y-92920000D01*
X183875000Y-93451360D01*
X183874135Y-93460139D01*
X183871575Y-93468581D01*
X183867416Y-93476361D01*
X183861820Y-93483180D01*
X183728180Y-93616820D01*
X183721361Y-93622416D01*
X183713581Y-93626575D01*
X183705139Y-93629135D01*
X183696360Y-93630000D01*
X183670000Y-93630000D01*
X183661221Y-93629135D01*
X183652779Y-93626575D01*
X183644999Y-93622416D01*
X183638180Y-93616820D01*
X183632584Y-93610001D01*
X183628425Y-93602221D01*
X183625865Y-93593779D01*
X183625000Y-93585000D01*
X183625000Y-92920000D01*
X183625865Y-92911221D01*
G37*
G36*
G01*
X183312500Y-93750000D02*
X183187500Y-93750000D01*
G75*
G02*
X183125000Y-93687500I0J62500D01*
G01*
X183125000Y-92937500D01*
G75*
G02*
X183187500Y-92875000I62500J0D01*
G01*
X183312500Y-92875000D01*
G75*
G02*
X183375000Y-92937500I0J-62500D01*
G01*
X183375000Y-93687500D01*
G75*
G02*
X183312500Y-93750000I-62500J0D01*
G01*
G37*
G36*
G01*
X182812500Y-93750000D02*
X182687500Y-93750000D01*
G75*
G02*
X182625000Y-93687500I0J62500D01*
G01*
X182625000Y-92937500D01*
G75*
G02*
X182687500Y-92875000I62500J0D01*
G01*
X182812500Y-92875000D01*
G75*
G02*
X182875000Y-92937500I0J-62500D01*
G01*
X182875000Y-93687500D01*
G75*
G02*
X182812500Y-93750000I-62500J0D01*
G01*
G37*
G36*
G01*
X182312500Y-93750000D02*
X182187500Y-93750000D01*
G75*
G02*
X182125000Y-93687500I0J62500D01*
G01*
X182125000Y-92937500D01*
G75*
G02*
X182187500Y-92875000I62500J0D01*
G01*
X182312500Y-92875000D01*
G75*
G02*
X182375000Y-92937500I0J-62500D01*
G01*
X182375000Y-93687500D01*
G75*
G02*
X182312500Y-93750000I-62500J0D01*
G01*
G37*
G36*
G01*
X181812500Y-93750000D02*
X181687500Y-93750000D01*
G75*
G02*
X181625000Y-93687500I0J62500D01*
G01*
X181625000Y-92937500D01*
G75*
G02*
X181687500Y-92875000I62500J0D01*
G01*
X181812500Y-92875000D01*
G75*
G02*
X181875000Y-92937500I0J-62500D01*
G01*
X181875000Y-93687500D01*
G75*
G02*
X181812500Y-93750000I-62500J0D01*
G01*
G37*
G36*
G01*
X181312500Y-93750000D02*
X181187500Y-93750000D01*
G75*
G02*
X181125000Y-93687500I0J62500D01*
G01*
X181125000Y-92937500D01*
G75*
G02*
X181187500Y-92875000I62500J0D01*
G01*
X181312500Y-92875000D01*
G75*
G02*
X181375000Y-92937500I0J-62500D01*
G01*
X181375000Y-93687500D01*
G75*
G02*
X181312500Y-93750000I-62500J0D01*
G01*
G37*
G36*
X180625865Y-92911221D02*
G01*
X180628425Y-92902779D01*
X180632584Y-92894999D01*
X180638180Y-92888180D01*
X180644999Y-92882584D01*
X180652779Y-92878425D01*
X180661221Y-92875865D01*
X180670000Y-92875000D01*
X180830000Y-92875000D01*
X180838779Y-92875865D01*
X180847221Y-92878425D01*
X180855001Y-92882584D01*
X180861820Y-92888180D01*
X180867416Y-92894999D01*
X180871575Y-92902779D01*
X180874135Y-92911221D01*
X180875000Y-92920000D01*
X180875000Y-93585000D01*
X180874135Y-93593779D01*
X180871575Y-93602221D01*
X180867416Y-93610001D01*
X180861820Y-93616820D01*
X180855001Y-93622416D01*
X180847221Y-93626575D01*
X180838779Y-93629135D01*
X180830000Y-93630000D01*
X180803640Y-93630000D01*
X180794861Y-93629135D01*
X180786419Y-93626575D01*
X180778639Y-93622416D01*
X180771820Y-93616820D01*
X180638180Y-93483180D01*
X180632584Y-93476361D01*
X180628425Y-93468581D01*
X180625865Y-93460139D01*
X180625000Y-93451360D01*
X180625000Y-92920000D01*
X180625865Y-92911221D01*
G37*
G36*
X179875865Y-93661221D02*
G01*
X179878425Y-93652779D01*
X179882584Y-93644999D01*
X179888180Y-93638180D01*
X179894999Y-93632584D01*
X179902779Y-93628425D01*
X179911221Y-93625865D01*
X179920000Y-93625000D01*
X180451360Y-93625000D01*
X180460139Y-93625865D01*
X180468581Y-93628425D01*
X180476361Y-93632584D01*
X180483180Y-93638180D01*
X180616820Y-93771820D01*
X180622416Y-93778639D01*
X180626575Y-93786419D01*
X180629135Y-93794861D01*
X180630000Y-93803640D01*
X180630000Y-93830000D01*
X180629135Y-93838779D01*
X180626575Y-93847221D01*
X180622416Y-93855001D01*
X180616820Y-93861820D01*
X180610001Y-93867416D01*
X180602221Y-93871575D01*
X180593779Y-93874135D01*
X180585000Y-93875000D01*
X179920000Y-93875000D01*
X179911221Y-93874135D01*
X179902779Y-93871575D01*
X179894999Y-93867416D01*
X179888180Y-93861820D01*
X179882584Y-93855001D01*
X179878425Y-93847221D01*
X179875865Y-93838779D01*
X179875000Y-93830000D01*
X179875000Y-93670000D01*
X179875865Y-93661221D01*
G37*
G36*
G01*
X180687500Y-94375000D02*
X179937500Y-94375000D01*
G75*
G02*
X179875000Y-94312500I0J62500D01*
G01*
X179875000Y-94187500D01*
G75*
G02*
X179937500Y-94125000I62500J0D01*
G01*
X180687500Y-94125000D01*
G75*
G02*
X180750000Y-94187500I0J-62500D01*
G01*
X180750000Y-94312500D01*
G75*
G02*
X180687500Y-94375000I-62500J0D01*
G01*
G37*
G36*
G01*
X180687500Y-94875000D02*
X179937500Y-94875000D01*
G75*
G02*
X179875000Y-94812500I0J62500D01*
G01*
X179875000Y-94687500D01*
G75*
G02*
X179937500Y-94625000I62500J0D01*
G01*
X180687500Y-94625000D01*
G75*
G02*
X180750000Y-94687500I0J-62500D01*
G01*
X180750000Y-94812500D01*
G75*
G02*
X180687500Y-94875000I-62500J0D01*
G01*
G37*
G36*
G01*
X180687500Y-95375000D02*
X179937500Y-95375000D01*
G75*
G02*
X179875000Y-95312500I0J62500D01*
G01*
X179875000Y-95187500D01*
G75*
G02*
X179937500Y-95125000I62500J0D01*
G01*
X180687500Y-95125000D01*
G75*
G02*
X180750000Y-95187500I0J-62500D01*
G01*
X180750000Y-95312500D01*
G75*
G02*
X180687500Y-95375000I-62500J0D01*
G01*
G37*
G36*
G01*
X180687500Y-95875000D02*
X179937500Y-95875000D01*
G75*
G02*
X179875000Y-95812500I0J62500D01*
G01*
X179875000Y-95687500D01*
G75*
G02*
X179937500Y-95625000I62500J0D01*
G01*
X180687500Y-95625000D01*
G75*
G02*
X180750000Y-95687500I0J-62500D01*
G01*
X180750000Y-95812500D01*
G75*
G02*
X180687500Y-95875000I-62500J0D01*
G01*
G37*
G36*
G01*
X180687500Y-96375000D02*
X179937500Y-96375000D01*
G75*
G02*
X179875000Y-96312500I0J62500D01*
G01*
X179875000Y-96187500D01*
G75*
G02*
X179937500Y-96125000I62500J0D01*
G01*
X180687500Y-96125000D01*
G75*
G02*
X180750000Y-96187500I0J-62500D01*
G01*
X180750000Y-96312500D01*
G75*
G02*
X180687500Y-96375000I-62500J0D01*
G01*
G37*
G36*
X179875865Y-96661221D02*
G01*
X179878425Y-96652779D01*
X179882584Y-96644999D01*
X179888180Y-96638180D01*
X179894999Y-96632584D01*
X179902779Y-96628425D01*
X179911221Y-96625865D01*
X179920000Y-96625000D01*
X180585000Y-96625000D01*
X180593779Y-96625865D01*
X180602221Y-96628425D01*
X180610001Y-96632584D01*
X180616820Y-96638180D01*
X180622416Y-96644999D01*
X180626575Y-96652779D01*
X180629135Y-96661221D01*
X180630000Y-96670000D01*
X180630000Y-96696360D01*
X180629135Y-96705139D01*
X180626575Y-96713581D01*
X180622416Y-96721361D01*
X180616820Y-96728180D01*
X180483180Y-96861820D01*
X180476361Y-96867416D01*
X180468581Y-96871575D01*
X180460139Y-96874135D01*
X180451360Y-96875000D01*
X179920000Y-96875000D01*
X179911221Y-96874135D01*
X179902779Y-96871575D01*
X179894999Y-96867416D01*
X179888180Y-96861820D01*
X179882584Y-96855001D01*
X179878425Y-96847221D01*
X179875865Y-96838779D01*
X179875000Y-96830000D01*
X179875000Y-96670000D01*
X179875865Y-96661221D01*
G37*
%TD*%
%TO.C,C1*%
G36*
G01*
X180380000Y-90830000D02*
X180380000Y-91170000D01*
G75*
G02*
X180240000Y-91310000I-140000J0D01*
G01*
X179960000Y-91310000D01*
G75*
G02*
X179820000Y-91170000I0J140000D01*
G01*
X179820000Y-90830000D01*
G75*
G02*
X179960000Y-90690000I140000J0D01*
G01*
X180240000Y-90690000D01*
G75*
G02*
X180380000Y-90830000I0J-140000D01*
G01*
G37*
G36*
G01*
X181340000Y-90830000D02*
X181340000Y-91170000D01*
G75*
G02*
X181200000Y-91310000I-140000J0D01*
G01*
X180920000Y-91310000D01*
G75*
G02*
X180780000Y-91170000I0J140000D01*
G01*
X180780000Y-90830000D01*
G75*
G02*
X180920000Y-90690000I140000J0D01*
G01*
X181200000Y-90690000D01*
G75*
G02*
X181340000Y-90830000I0J-140000D01*
G01*
G37*
%TD*%
%TO.C,C2*%
G36*
G01*
X164570000Y-103760000D02*
X164230000Y-103760000D01*
G75*
G02*
X164090000Y-103620000I0J140000D01*
G01*
X164090000Y-103340000D01*
G75*
G02*
X164230000Y-103200000I140000J0D01*
G01*
X164570000Y-103200000D01*
G75*
G02*
X164710000Y-103340000I0J-140000D01*
G01*
X164710000Y-103620000D01*
G75*
G02*
X164570000Y-103760000I-140000J0D01*
G01*
G37*
G36*
G01*
X164570000Y-102800000D02*
X164230000Y-102800000D01*
G75*
G02*
X164090000Y-102660000I0J140000D01*
G01*
X164090000Y-102380000D01*
G75*
G02*
X164230000Y-102240000I140000J0D01*
G01*
X164570000Y-102240000D01*
G75*
G02*
X164710000Y-102380000I0J-140000D01*
G01*
X164710000Y-102660000D01*
G75*
G02*
X164570000Y-102800000I-140000J0D01*
G01*
G37*
%TD*%
%TO.C,C3*%
G36*
G01*
X180380000Y-91830000D02*
X180380000Y-92170000D01*
G75*
G02*
X180240000Y-92310000I-140000J0D01*
G01*
X179960000Y-92310000D01*
G75*
G02*
X179820000Y-92170000I0J140000D01*
G01*
X179820000Y-91830000D01*
G75*
G02*
X179960000Y-91690000I140000J0D01*
G01*
X180240000Y-91690000D01*
G75*
G02*
X180380000Y-91830000I0J-140000D01*
G01*
G37*
G36*
G01*
X181340000Y-91830000D02*
X181340000Y-92170000D01*
G75*
G02*
X181200000Y-92310000I-140000J0D01*
G01*
X180920000Y-92310000D01*
G75*
G02*
X180780000Y-92170000I0J140000D01*
G01*
X180780000Y-91830000D01*
G75*
G02*
X180920000Y-91690000I140000J0D01*
G01*
X181200000Y-91690000D01*
G75*
G02*
X181340000Y-91830000I0J-140000D01*
G01*
G37*
%TD*%
%TO.C,C5*%
G36*
G01*
X168770000Y-97660000D02*
X168430000Y-97660000D01*
G75*
G02*
X168290000Y-97520000I0J140000D01*
G01*
X168290000Y-97240000D01*
G75*
G02*
X168430000Y-97100000I140000J0D01*
G01*
X168770000Y-97100000D01*
G75*
G02*
X168910000Y-97240000I0J-140000D01*
G01*
X168910000Y-97520000D01*
G75*
G02*
X168770000Y-97660000I-140000J0D01*
G01*
G37*
G36*
G01*
X168770000Y-96700000D02*
X168430000Y-96700000D01*
G75*
G02*
X168290000Y-96560000I0J140000D01*
G01*
X168290000Y-96280000D01*
G75*
G02*
X168430000Y-96140000I140000J0D01*
G01*
X168770000Y-96140000D01*
G75*
G02*
X168910000Y-96280000I0J-140000D01*
G01*
X168910000Y-96560000D01*
G75*
G02*
X168770000Y-96700000I-140000J0D01*
G01*
G37*
%TD*%
%TO.C,C6*%
G36*
G01*
X163930000Y-97100000D02*
X164270000Y-97100000D01*
G75*
G02*
X164410000Y-97240000I0J-140000D01*
G01*
X164410000Y-97520000D01*
G75*
G02*
X164270000Y-97660000I-140000J0D01*
G01*
X163930000Y-97660000D01*
G75*
G02*
X163790000Y-97520000I0J140000D01*
G01*
X163790000Y-97240000D01*
G75*
G02*
X163930000Y-97100000I140000J0D01*
G01*
G37*
G36*
G01*
X163930000Y-96140000D02*
X164270000Y-96140000D01*
G75*
G02*
X164410000Y-96280000I0J-140000D01*
G01*
X164410000Y-96560000D01*
G75*
G02*
X164270000Y-96700000I-140000J0D01*
G01*
X163930000Y-96700000D01*
G75*
G02*
X163790000Y-96560000I0J140000D01*
G01*
X163790000Y-96280000D01*
G75*
G02*
X163930000Y-96140000I140000J0D01*
G01*
G37*
%TD*%
%TO.C,C7*%
G36*
G01*
X181130000Y-98640000D02*
X181470000Y-98640000D01*
G75*
G02*
X181610000Y-98780000I0J-140000D01*
G01*
X181610000Y-99060000D01*
G75*
G02*
X181470000Y-99200000I-140000J0D01*
G01*
X181130000Y-99200000D01*
G75*
G02*
X180990000Y-99060000I0J140000D01*
G01*
X180990000Y-98780000D01*
G75*
G02*
X181130000Y-98640000I140000J0D01*
G01*
G37*
G36*
G01*
X181130000Y-99600000D02*
X181470000Y-99600000D01*
G75*
G02*
X181610000Y-99740000I0J-140000D01*
G01*
X181610000Y-100020000D01*
G75*
G02*
X181470000Y-100160000I-140000J0D01*
G01*
X181130000Y-100160000D01*
G75*
G02*
X180990000Y-100020000I0J140000D01*
G01*
X180990000Y-99740000D01*
G75*
G02*
X181130000Y-99600000I140000J0D01*
G01*
G37*
%TD*%
%TO.C,D1*%
G36*
X168821212Y-105904597D02*
G01*
X169110467Y-105559877D01*
X169570094Y-105945549D01*
X169280839Y-106290269D01*
X168821212Y-105904597D01*
G37*
G36*
X170429906Y-107254451D02*
G01*
X170719161Y-106909731D01*
X171178788Y-107295403D01*
X170889533Y-107640123D01*
X170429906Y-107254451D01*
G37*
%TD*%
D14*
%TO.C,D2*%
X184700000Y-105150000D03*
X184700000Y-103050000D03*
%TD*%
%TO.C,R1*%
G36*
G01*
X178040000Y-104585000D02*
X178040000Y-104215000D01*
G75*
G02*
X178175000Y-104080000I135000J0D01*
G01*
X178445000Y-104080000D01*
G75*
G02*
X178580000Y-104215000I0J-135000D01*
G01*
X178580000Y-104585000D01*
G75*
G02*
X178445000Y-104720000I-135000J0D01*
G01*
X178175000Y-104720000D01*
G75*
G02*
X178040000Y-104585000I0J135000D01*
G01*
G37*
G36*
G01*
X177020000Y-104585000D02*
X177020000Y-104215000D01*
G75*
G02*
X177155000Y-104080000I135000J0D01*
G01*
X177425000Y-104080000D01*
G75*
G02*
X177560000Y-104215000I0J-135000D01*
G01*
X177560000Y-104585000D01*
G75*
G02*
X177425000Y-104720000I-135000J0D01*
G01*
X177155000Y-104720000D01*
G75*
G02*
X177020000Y-104585000I0J135000D01*
G01*
G37*
%TD*%
%TO.C,R3*%
G36*
G01*
X177020000Y-107385000D02*
X177020000Y-107015000D01*
G75*
G02*
X177155000Y-106880000I135000J0D01*
G01*
X177425000Y-106880000D01*
G75*
G02*
X177560000Y-107015000I0J-135000D01*
G01*
X177560000Y-107385000D01*
G75*
G02*
X177425000Y-107520000I-135000J0D01*
G01*
X177155000Y-107520000D01*
G75*
G02*
X177020000Y-107385000I0J135000D01*
G01*
G37*
G36*
G01*
X178040000Y-107385000D02*
X178040000Y-107015000D01*
G75*
G02*
X178175000Y-106880000I135000J0D01*
G01*
X178445000Y-106880000D01*
G75*
G02*
X178580000Y-107015000I0J-135000D01*
G01*
X178580000Y-107385000D01*
G75*
G02*
X178445000Y-107520000I-135000J0D01*
G01*
X178175000Y-107520000D01*
G75*
G02*
X178040000Y-107385000I0J135000D01*
G01*
G37*
%TD*%
%TO.C,R4*%
G36*
G01*
X167020000Y-91885000D02*
X167020000Y-91515000D01*
G75*
G02*
X167155000Y-91380000I135000J0D01*
G01*
X167425000Y-91380000D01*
G75*
G02*
X167560000Y-91515000I0J-135000D01*
G01*
X167560000Y-91885000D01*
G75*
G02*
X167425000Y-92020000I-135000J0D01*
G01*
X167155000Y-92020000D01*
G75*
G02*
X167020000Y-91885000I0J135000D01*
G01*
G37*
G36*
G01*
X168040000Y-91885000D02*
X168040000Y-91515000D01*
G75*
G02*
X168175000Y-91380000I135000J0D01*
G01*
X168445000Y-91380000D01*
G75*
G02*
X168580000Y-91515000I0J-135000D01*
G01*
X168580000Y-91885000D01*
G75*
G02*
X168445000Y-92020000I-135000J0D01*
G01*
X168175000Y-92020000D01*
G75*
G02*
X168040000Y-91885000I0J135000D01*
G01*
G37*
%TD*%
%TO.C,R5*%
G36*
G01*
X180485000Y-99160000D02*
X180115000Y-99160000D01*
G75*
G02*
X179980000Y-99025000I0J135000D01*
G01*
X179980000Y-98755000D01*
G75*
G02*
X180115000Y-98620000I135000J0D01*
G01*
X180485000Y-98620000D01*
G75*
G02*
X180620000Y-98755000I0J-135000D01*
G01*
X180620000Y-99025000D01*
G75*
G02*
X180485000Y-99160000I-135000J0D01*
G01*
G37*
G36*
G01*
X180485000Y-100180000D02*
X180115000Y-100180000D01*
G75*
G02*
X179980000Y-100045000I0J135000D01*
G01*
X179980000Y-99775000D01*
G75*
G02*
X180115000Y-99640000I135000J0D01*
G01*
X180485000Y-99640000D01*
G75*
G02*
X180620000Y-99775000I0J-135000D01*
G01*
X180620000Y-100045000D01*
G75*
G02*
X180485000Y-100180000I-135000J0D01*
G01*
G37*
%TD*%
M02*
