%TF.GenerationSoftware,KiCad,Pcbnew,(5.1.6)-1*%
%TF.CreationDate,2020-11-30T19:53:59+01:00*%
%TF.ProjectId,PX12_Board,50583132-5f42-46f6-9172-642e6b696361,V1.0*%
%TF.SameCoordinates,Original*%
%TF.FileFunction,Soldermask,Bot*%
%TF.FilePolarity,Negative*%
%FSLAX46Y46*%
G04 Gerber Fmt 4.6, Leading zero omitted, Abs format (unit mm)*
G04 Created by KiCad (PCBNEW (5.1.6)-1) date 2020-11-30 19:53:59*
%MOMM*%
%LPD*%
G01*
G04 APERTURE LIST*
%ADD10C,0.100000*%
G04 APERTURE END LIST*
D10*
G36*
X173230312Y-108610248D02*
G01*
X173333351Y-108630743D01*
X173478942Y-108691049D01*
X173609970Y-108778599D01*
X173721401Y-108890030D01*
X173808951Y-109021058D01*
X173869257Y-109166649D01*
X173900000Y-109321207D01*
X173900000Y-109478793D01*
X173869257Y-109633351D01*
X173808951Y-109778942D01*
X173721401Y-109909970D01*
X173609970Y-110021401D01*
X173478942Y-110108951D01*
X173333351Y-110169257D01*
X173230312Y-110189752D01*
X173178794Y-110200000D01*
X173021206Y-110200000D01*
X172969688Y-110189752D01*
X172866649Y-110169257D01*
X172721058Y-110108951D01*
X172590030Y-110021401D01*
X172478599Y-109909970D01*
X172391049Y-109778942D01*
X172330743Y-109633351D01*
X172300000Y-109478793D01*
X172300000Y-109321207D01*
X172330743Y-109166649D01*
X172391049Y-109021058D01*
X172478599Y-108890030D01*
X172590030Y-108778599D01*
X172721058Y-108691049D01*
X172866649Y-108630743D01*
X172969688Y-108610248D01*
X173021206Y-108600000D01*
X173178794Y-108600000D01*
X173230312Y-108610248D01*
G37*
G36*
X173900000Y-108200000D02*
G01*
X172300000Y-108200000D01*
X172300000Y-106600000D01*
X173900000Y-106600000D01*
X173900000Y-108200000D01*
G37*
G36*
X180528414Y-106855788D02*
G01*
X180603814Y-106878660D01*
X180673303Y-106915803D01*
X180734211Y-106965789D01*
X180784197Y-107026697D01*
X180821340Y-107096186D01*
X180844212Y-107171586D01*
X180851935Y-107250000D01*
X180844212Y-107328414D01*
X180821340Y-107403814D01*
X180784197Y-107473303D01*
X180734211Y-107534211D01*
X180673303Y-107584197D01*
X180603814Y-107621340D01*
X180528414Y-107644212D01*
X180469647Y-107650000D01*
X179930353Y-107650000D01*
X179871586Y-107644212D01*
X179796186Y-107621340D01*
X179726697Y-107584197D01*
X179665789Y-107534211D01*
X179615803Y-107473303D01*
X179578660Y-107403814D01*
X179555788Y-107328414D01*
X179548065Y-107250000D01*
X179555788Y-107171586D01*
X179578660Y-107096186D01*
X179615803Y-107026697D01*
X179665789Y-106965789D01*
X179726697Y-106915803D01*
X179796186Y-106878660D01*
X179871586Y-106855788D01*
X179930353Y-106850000D01*
X180469647Y-106850000D01*
X180528414Y-106855788D01*
G37*
G36*
X180713108Y-105603551D02*
G01*
X180744943Y-105613208D01*
X180774287Y-105628893D01*
X180800003Y-105649997D01*
X180821107Y-105675713D01*
X180836792Y-105705057D01*
X180846449Y-105736892D01*
X180850000Y-105772945D01*
X180850000Y-106227055D01*
X180846449Y-106263108D01*
X180836792Y-106294943D01*
X180821107Y-106324287D01*
X180800003Y-106350003D01*
X180774287Y-106371107D01*
X180744943Y-106386792D01*
X180713108Y-106396449D01*
X180677055Y-106400000D01*
X179722945Y-106400000D01*
X179686892Y-106396449D01*
X179655057Y-106386792D01*
X179625713Y-106371107D01*
X179599997Y-106350003D01*
X179578893Y-106324287D01*
X179563208Y-106294943D01*
X179553551Y-106263108D01*
X179550000Y-106227055D01*
X179550000Y-105772945D01*
X179553551Y-105736892D01*
X179563208Y-105705057D01*
X179578893Y-105675713D01*
X179599997Y-105649997D01*
X179625713Y-105628893D01*
X179655057Y-105613208D01*
X179686892Y-105603551D01*
X179722945Y-105600000D01*
X180677055Y-105600000D01*
X180713108Y-105603551D01*
G37*
G36*
X166554208Y-98173015D02*
G01*
X166899989Y-98316242D01*
X167211178Y-98524172D01*
X167475828Y-98788822D01*
X167683758Y-99100011D01*
X167826985Y-99445792D01*
X167900000Y-99812865D01*
X167900000Y-100187135D01*
X167826985Y-100554208D01*
X167683758Y-100899989D01*
X167475828Y-101211178D01*
X167211178Y-101475828D01*
X166899989Y-101683758D01*
X166554208Y-101826985D01*
X166187135Y-101900000D01*
X165812865Y-101900000D01*
X165445792Y-101826985D01*
X165100011Y-101683758D01*
X164788822Y-101475828D01*
X164524172Y-101211178D01*
X164316242Y-100899989D01*
X164173015Y-100554208D01*
X164100000Y-100187135D01*
X164100000Y-99812865D01*
X164173015Y-99445792D01*
X164316242Y-99100011D01*
X164524172Y-98788822D01*
X164788822Y-98524172D01*
X165100011Y-98316242D01*
X165445792Y-98173015D01*
X165812865Y-98100000D01*
X166187135Y-98100000D01*
X166554208Y-98173015D01*
G37*
G36*
X184554208Y-98173015D02*
G01*
X184899989Y-98316242D01*
X185211178Y-98524172D01*
X185475828Y-98788822D01*
X185683758Y-99100011D01*
X185826985Y-99445792D01*
X185900000Y-99812865D01*
X185900000Y-100187135D01*
X185826985Y-100554208D01*
X185683758Y-100899989D01*
X185475828Y-101211178D01*
X185211178Y-101475828D01*
X184899989Y-101683758D01*
X184554208Y-101826985D01*
X184187135Y-101900000D01*
X183812865Y-101900000D01*
X183445792Y-101826985D01*
X183100011Y-101683758D01*
X182788822Y-101475828D01*
X182524172Y-101211178D01*
X182316242Y-100899989D01*
X182173015Y-100554208D01*
X182100000Y-100187135D01*
X182100000Y-99812865D01*
X182173015Y-99445792D01*
X182316242Y-99100011D01*
X182524172Y-98788822D01*
X182788822Y-98524172D01*
X183100011Y-98316242D01*
X183445792Y-98173015D01*
X183812865Y-98100000D01*
X184187135Y-98100000D01*
X184554208Y-98173015D01*
G37*
G36*
X171916631Y-98337299D02*
G01*
X172076855Y-98385903D01*
X172224518Y-98464830D01*
X172353949Y-98571051D01*
X172460167Y-98700479D01*
X172460168Y-98700481D01*
X172539097Y-98848146D01*
X172539098Y-98848150D01*
X172587701Y-99008370D01*
X172600000Y-99133244D01*
X172600000Y-99366757D01*
X172587701Y-99491631D01*
X172539097Y-99651855D01*
X172460170Y-99799518D01*
X172353949Y-99928949D01*
X172224517Y-100035170D01*
X172076854Y-100114097D01*
X171916630Y-100162701D01*
X171750000Y-100179113D01*
X171583369Y-100162701D01*
X171423145Y-100114097D01*
X171275482Y-100035170D01*
X171146051Y-99928949D01*
X171039830Y-99799517D01*
X170960903Y-99651854D01*
X170912299Y-99491630D01*
X170900000Y-99366756D01*
X170900000Y-99133243D01*
X170912299Y-99008369D01*
X170960903Y-98848145D01*
X171039830Y-98700482D01*
X171146051Y-98571051D01*
X171275483Y-98464830D01*
X171423146Y-98385903D01*
X171583370Y-98337299D01*
X171750000Y-98320887D01*
X171916631Y-98337299D01*
G37*
G36*
X174416631Y-98337299D02*
G01*
X174576855Y-98385903D01*
X174724518Y-98464830D01*
X174853949Y-98571051D01*
X174960167Y-98700479D01*
X174960168Y-98700481D01*
X175039097Y-98848146D01*
X175039098Y-98848150D01*
X175087701Y-99008370D01*
X175100000Y-99133244D01*
X175100000Y-99366757D01*
X175087701Y-99491631D01*
X175039097Y-99651855D01*
X174960170Y-99799518D01*
X174853949Y-99928949D01*
X174724517Y-100035170D01*
X174576854Y-100114097D01*
X174416630Y-100162701D01*
X174250000Y-100179113D01*
X174083369Y-100162701D01*
X173923145Y-100114097D01*
X173775482Y-100035170D01*
X173646051Y-99928949D01*
X173539830Y-99799517D01*
X173460903Y-99651854D01*
X173412299Y-99491630D01*
X173400000Y-99366756D01*
X173400000Y-99133243D01*
X173412299Y-99008369D01*
X173460903Y-98848145D01*
X173539830Y-98700482D01*
X173646051Y-98571051D01*
X173775483Y-98464830D01*
X173923146Y-98385903D01*
X174083370Y-98337299D01*
X174250000Y-98320887D01*
X174416631Y-98337299D01*
G37*
G36*
X177432805Y-98329275D02*
G01*
X177471709Y-98341076D01*
X177507552Y-98360234D01*
X177538976Y-98386024D01*
X177564766Y-98417448D01*
X177583924Y-98453291D01*
X177595725Y-98492195D01*
X177600000Y-98535594D01*
X177600000Y-99964406D01*
X177595725Y-100007805D01*
X177583924Y-100046709D01*
X177564766Y-100082552D01*
X177538976Y-100113976D01*
X177507552Y-100139766D01*
X177471709Y-100158924D01*
X177432805Y-100170725D01*
X177389406Y-100175000D01*
X176110594Y-100175000D01*
X176067195Y-100170725D01*
X176028291Y-100158924D01*
X175992448Y-100139766D01*
X175961024Y-100113976D01*
X175935234Y-100082552D01*
X175916076Y-100046709D01*
X175904275Y-100007805D01*
X175900000Y-99964406D01*
X175900000Y-98535594D01*
X175904275Y-98492195D01*
X175916076Y-98453291D01*
X175935234Y-98417448D01*
X175961024Y-98386024D01*
X175992448Y-98360234D01*
X176028291Y-98341076D01*
X176067195Y-98329275D01*
X176110594Y-98325000D01*
X177389406Y-98325000D01*
X177432805Y-98329275D01*
G37*
G36*
X171916631Y-92587299D02*
G01*
X172076855Y-92635903D01*
X172224518Y-92714830D01*
X172353949Y-92821051D01*
X172460167Y-92950479D01*
X172460168Y-92950481D01*
X172539097Y-93098146D01*
X172539098Y-93098150D01*
X172587701Y-93258370D01*
X172600000Y-93383244D01*
X172600000Y-93616757D01*
X172587701Y-93741631D01*
X172539097Y-93901855D01*
X172460170Y-94049518D01*
X172353949Y-94178949D01*
X172224517Y-94285170D01*
X172076854Y-94364097D01*
X171916630Y-94412701D01*
X171750000Y-94429113D01*
X171583369Y-94412701D01*
X171423145Y-94364097D01*
X171275482Y-94285170D01*
X171146051Y-94178949D01*
X171039830Y-94049517D01*
X170960903Y-93901854D01*
X170912299Y-93741630D01*
X170900000Y-93616756D01*
X170900000Y-93383243D01*
X170912299Y-93258369D01*
X170960903Y-93098145D01*
X171039830Y-92950482D01*
X171146051Y-92821051D01*
X171275483Y-92714830D01*
X171423146Y-92635903D01*
X171583370Y-92587299D01*
X171750000Y-92570887D01*
X171916631Y-92587299D01*
G37*
G36*
X174416631Y-92587299D02*
G01*
X174576855Y-92635903D01*
X174724518Y-92714830D01*
X174853949Y-92821051D01*
X174960167Y-92950479D01*
X174960168Y-92950481D01*
X175039097Y-93098146D01*
X175039098Y-93098150D01*
X175087701Y-93258370D01*
X175100000Y-93383244D01*
X175100000Y-93616757D01*
X175087701Y-93741631D01*
X175039097Y-93901855D01*
X174960170Y-94049518D01*
X174853949Y-94178949D01*
X174724517Y-94285170D01*
X174576854Y-94364097D01*
X174416630Y-94412701D01*
X174250000Y-94429113D01*
X174083369Y-94412701D01*
X173923145Y-94364097D01*
X173775482Y-94285170D01*
X173646051Y-94178949D01*
X173539830Y-94049517D01*
X173460903Y-93901854D01*
X173412299Y-93741630D01*
X173400000Y-93616756D01*
X173400000Y-93383243D01*
X173412299Y-93258369D01*
X173460903Y-93098145D01*
X173539830Y-92950482D01*
X173646051Y-92821051D01*
X173775483Y-92714830D01*
X173923146Y-92635903D01*
X174083370Y-92587299D01*
X174250000Y-92570887D01*
X174416631Y-92587299D01*
G37*
G36*
X177432805Y-92579275D02*
G01*
X177471709Y-92591076D01*
X177507552Y-92610234D01*
X177538976Y-92636024D01*
X177564766Y-92667448D01*
X177583924Y-92703291D01*
X177595725Y-92742195D01*
X177600000Y-92785594D01*
X177600000Y-94214406D01*
X177595725Y-94257805D01*
X177583924Y-94296709D01*
X177564766Y-94332552D01*
X177538976Y-94363976D01*
X177507552Y-94389766D01*
X177471709Y-94408924D01*
X177432805Y-94420725D01*
X177389406Y-94425000D01*
X176110594Y-94425000D01*
X176067195Y-94420725D01*
X176028291Y-94408924D01*
X175992448Y-94389766D01*
X175961024Y-94363976D01*
X175935234Y-94332552D01*
X175916076Y-94296709D01*
X175904275Y-94257805D01*
X175900000Y-94214406D01*
X175900000Y-92785594D01*
X175904275Y-92742195D01*
X175916076Y-92703291D01*
X175935234Y-92667448D01*
X175961024Y-92636024D01*
X175992448Y-92610234D01*
X176028291Y-92591076D01*
X176067195Y-92579275D01*
X176110594Y-92575000D01*
X177389406Y-92575000D01*
X177432805Y-92579275D01*
G37*
G36*
X172850000Y-90200000D02*
G01*
X171850000Y-90200000D01*
X171850000Y-89200000D01*
X172850000Y-89200000D01*
X172850000Y-90200000D01*
G37*
G36*
X173765843Y-89219214D02*
G01*
X173856841Y-89256906D01*
X173938730Y-89311623D01*
X174008377Y-89381270D01*
X174063094Y-89463159D01*
X174100786Y-89554157D01*
X174120000Y-89650753D01*
X174120000Y-89749247D01*
X174100786Y-89845843D01*
X174063094Y-89936841D01*
X174008377Y-90018730D01*
X173938730Y-90088377D01*
X173856841Y-90143094D01*
X173765843Y-90180786D01*
X173669247Y-90200000D01*
X173570753Y-90200000D01*
X173474157Y-90180786D01*
X173383159Y-90143094D01*
X173301270Y-90088377D01*
X173231623Y-90018730D01*
X173176906Y-89936841D01*
X173139214Y-89845843D01*
X173120000Y-89749247D01*
X173120000Y-89650753D01*
X173139214Y-89554157D01*
X173176906Y-89463159D01*
X173231623Y-89381270D01*
X173301270Y-89311623D01*
X173383159Y-89256906D01*
X173474157Y-89219214D01*
X173570753Y-89200000D01*
X173669247Y-89200000D01*
X173765843Y-89219214D01*
G37*
G36*
X175035843Y-89219214D02*
G01*
X175126841Y-89256906D01*
X175208730Y-89311623D01*
X175278377Y-89381270D01*
X175333094Y-89463159D01*
X175370786Y-89554157D01*
X175390000Y-89650753D01*
X175390000Y-89749247D01*
X175370786Y-89845843D01*
X175333094Y-89936841D01*
X175278377Y-90018730D01*
X175208730Y-90088377D01*
X175126841Y-90143094D01*
X175035843Y-90180786D01*
X174939247Y-90200000D01*
X174840753Y-90200000D01*
X174744157Y-90180786D01*
X174653159Y-90143094D01*
X174571270Y-90088377D01*
X174501623Y-90018730D01*
X174446906Y-89936841D01*
X174409214Y-89845843D01*
X174390000Y-89749247D01*
X174390000Y-89650753D01*
X174409214Y-89554157D01*
X174446906Y-89463159D01*
X174501623Y-89381270D01*
X174571270Y-89311623D01*
X174653159Y-89256906D01*
X174744157Y-89219214D01*
X174840753Y-89200000D01*
X174939247Y-89200000D01*
X175035843Y-89219214D01*
G37*
G36*
X176305843Y-89219214D02*
G01*
X176396841Y-89256906D01*
X176478730Y-89311623D01*
X176548377Y-89381270D01*
X176603094Y-89463159D01*
X176640786Y-89554157D01*
X176660000Y-89650753D01*
X176660000Y-89749247D01*
X176640786Y-89845843D01*
X176603094Y-89936841D01*
X176548377Y-90018730D01*
X176478730Y-90088377D01*
X176396841Y-90143094D01*
X176305843Y-90180786D01*
X176209247Y-90200000D01*
X176110753Y-90200000D01*
X176014157Y-90180786D01*
X175923159Y-90143094D01*
X175841270Y-90088377D01*
X175771623Y-90018730D01*
X175716906Y-89936841D01*
X175679214Y-89845843D01*
X175660000Y-89749247D01*
X175660000Y-89650753D01*
X175679214Y-89554157D01*
X175716906Y-89463159D01*
X175771623Y-89381270D01*
X175841270Y-89311623D01*
X175923159Y-89256906D01*
X176014157Y-89219214D01*
X176110753Y-89200000D01*
X176209247Y-89200000D01*
X176305843Y-89219214D01*
G37*
G36*
X177575843Y-89219214D02*
G01*
X177666841Y-89256906D01*
X177748730Y-89311623D01*
X177818377Y-89381270D01*
X177873094Y-89463159D01*
X177910786Y-89554157D01*
X177930000Y-89650753D01*
X177930000Y-89749247D01*
X177910786Y-89845843D01*
X177873094Y-89936841D01*
X177818377Y-90018730D01*
X177748730Y-90088377D01*
X177666841Y-90143094D01*
X177575843Y-90180786D01*
X177479247Y-90200000D01*
X177380753Y-90200000D01*
X177284157Y-90180786D01*
X177193159Y-90143094D01*
X177111270Y-90088377D01*
X177041623Y-90018730D01*
X176986906Y-89936841D01*
X176949214Y-89845843D01*
X176930000Y-89749247D01*
X176930000Y-89650753D01*
X176949214Y-89554157D01*
X176986906Y-89463159D01*
X177041623Y-89381270D01*
X177111270Y-89311623D01*
X177193159Y-89256906D01*
X177284157Y-89219214D01*
X177380753Y-89200000D01*
X177479247Y-89200000D01*
X177575843Y-89219214D01*
G37*
M02*
