%TF.GenerationSoftware,KiCad,Pcbnew,(5.1.6)-1*%
%TF.CreationDate,2020-11-30T19:53:59+01:00*%
%TF.ProjectId,PX12_Board,50583132-5f42-46f6-9172-642e6b696361,V1.0*%
%TF.SameCoordinates,Original*%
%TF.FileFunction,Soldermask,Top*%
%TF.FilePolarity,Negative*%
%FSLAX46Y46*%
G04 Gerber Fmt 4.6, Leading zero omitted, Abs format (unit mm)*
G04 Created by KiCad (PCBNEW (5.1.6)-1) date 2020-11-30 19:53:59*
%MOMM*%
%LPD*%
G01*
G04 APERTURE LIST*
%ADD10C,0.100000*%
G04 APERTURE END LIST*
D10*
G36*
X177250000Y-111050000D02*
G01*
X176350000Y-111050000D01*
X176350000Y-110250000D01*
X177250000Y-110250000D01*
X177250000Y-111050000D01*
G37*
G36*
X173230312Y-108610248D02*
G01*
X173333351Y-108630743D01*
X173478942Y-108691049D01*
X173609970Y-108778599D01*
X173721401Y-108890030D01*
X173808951Y-109021058D01*
X173869257Y-109166649D01*
X173900000Y-109321207D01*
X173900000Y-109478793D01*
X173869257Y-109633351D01*
X173808951Y-109778942D01*
X173721401Y-109909970D01*
X173609970Y-110021401D01*
X173478942Y-110108951D01*
X173333351Y-110169257D01*
X173230312Y-110189752D01*
X173178794Y-110200000D01*
X173021206Y-110200000D01*
X172969688Y-110189752D01*
X172866649Y-110169257D01*
X172721058Y-110108951D01*
X172590030Y-110021401D01*
X172478599Y-109909970D01*
X172391049Y-109778942D01*
X172330743Y-109633351D01*
X172300000Y-109478793D01*
X172300000Y-109321207D01*
X172330743Y-109166649D01*
X172391049Y-109021058D01*
X172478599Y-108890030D01*
X172590030Y-108778599D01*
X172721058Y-108691049D01*
X172866649Y-108630743D01*
X172969688Y-108610248D01*
X173021206Y-108600000D01*
X173178794Y-108600000D01*
X173230312Y-108610248D01*
G37*
G36*
X179250000Y-110100000D02*
G01*
X178350000Y-110100000D01*
X178350000Y-109300000D01*
X179250000Y-109300000D01*
X179250000Y-110100000D01*
G37*
G36*
X177250000Y-109150000D02*
G01*
X176350000Y-109150000D01*
X176350000Y-108350000D01*
X177250000Y-108350000D01*
X177250000Y-109150000D01*
G37*
G36*
X170030000Y-108225000D02*
G01*
X168970000Y-108225000D01*
X168970000Y-107575000D01*
X170030000Y-107575000D01*
X170030000Y-108225000D01*
G37*
G36*
X167830000Y-108225000D02*
G01*
X166770000Y-108225000D01*
X166770000Y-107575000D01*
X167830000Y-107575000D01*
X167830000Y-108225000D01*
G37*
G36*
X173900000Y-108200000D02*
G01*
X172300000Y-108200000D01*
X172300000Y-106600000D01*
X173900000Y-106600000D01*
X173900000Y-108200000D01*
G37*
G36*
X180528414Y-106855788D02*
G01*
X180603814Y-106878660D01*
X180673303Y-106915803D01*
X180734211Y-106965789D01*
X180784197Y-107026697D01*
X180821340Y-107096186D01*
X180844212Y-107171586D01*
X180851935Y-107250000D01*
X180844212Y-107328414D01*
X180821340Y-107403814D01*
X180784197Y-107473303D01*
X180734211Y-107534211D01*
X180673303Y-107584197D01*
X180603814Y-107621340D01*
X180528414Y-107644212D01*
X180469647Y-107650000D01*
X179930353Y-107650000D01*
X179871586Y-107644212D01*
X179796186Y-107621340D01*
X179726697Y-107584197D01*
X179665789Y-107534211D01*
X179615803Y-107473303D01*
X179578660Y-107403814D01*
X179555788Y-107328414D01*
X179548065Y-107250000D01*
X179555788Y-107171586D01*
X179578660Y-107096186D01*
X179615803Y-107026697D01*
X179665789Y-106965789D01*
X179726697Y-106915803D01*
X179796186Y-106878660D01*
X179871586Y-106855788D01*
X179930353Y-106850000D01*
X180469647Y-106850000D01*
X180528414Y-106855788D01*
G37*
G36*
X178388108Y-106628551D02*
G01*
X178419943Y-106638208D01*
X178449287Y-106653893D01*
X178475003Y-106674997D01*
X178496107Y-106700713D01*
X178511792Y-106730057D01*
X178521449Y-106761892D01*
X178525000Y-106797945D01*
X178525000Y-107402055D01*
X178521449Y-107438108D01*
X178511792Y-107469943D01*
X178496107Y-107499287D01*
X178475003Y-107525003D01*
X178449287Y-107546107D01*
X178419943Y-107561792D01*
X178388108Y-107571449D01*
X178352055Y-107575000D01*
X177897945Y-107575000D01*
X177861892Y-107571449D01*
X177830057Y-107561792D01*
X177800713Y-107546107D01*
X177774997Y-107525003D01*
X177753893Y-107499287D01*
X177738208Y-107469943D01*
X177728551Y-107438108D01*
X177725000Y-107402055D01*
X177725000Y-106797945D01*
X177728551Y-106761892D01*
X177738208Y-106730057D01*
X177753893Y-106700713D01*
X177774997Y-106674997D01*
X177800713Y-106653893D01*
X177830057Y-106638208D01*
X177861892Y-106628551D01*
X177897945Y-106625000D01*
X178352055Y-106625000D01*
X178388108Y-106628551D01*
G37*
G36*
X176738108Y-106628551D02*
G01*
X176769943Y-106638208D01*
X176799287Y-106653893D01*
X176825003Y-106674997D01*
X176846107Y-106700713D01*
X176861792Y-106730057D01*
X176871449Y-106761892D01*
X176875000Y-106797945D01*
X176875000Y-107402055D01*
X176871449Y-107438108D01*
X176861792Y-107469943D01*
X176846107Y-107499287D01*
X176825003Y-107525003D01*
X176799287Y-107546107D01*
X176769943Y-107561792D01*
X176738108Y-107571449D01*
X176702055Y-107575000D01*
X176247945Y-107575000D01*
X176211892Y-107571449D01*
X176180057Y-107561792D01*
X176150713Y-107546107D01*
X176124997Y-107525003D01*
X176103893Y-107499287D01*
X176088208Y-107469943D01*
X176078551Y-107438108D01*
X176075000Y-107402055D01*
X176075000Y-106797945D01*
X176078551Y-106761892D01*
X176088208Y-106730057D01*
X176103893Y-106700713D01*
X176124997Y-106674997D01*
X176150713Y-106653893D01*
X176180057Y-106638208D01*
X176211892Y-106628551D01*
X176247945Y-106625000D01*
X176702055Y-106625000D01*
X176738108Y-106628551D01*
G37*
G36*
X170030000Y-107275000D02*
G01*
X168970000Y-107275000D01*
X168970000Y-106625000D01*
X170030000Y-106625000D01*
X170030000Y-107275000D01*
G37*
G36*
X184200000Y-106800000D02*
G01*
X183000000Y-106800000D01*
X183000000Y-105900000D01*
X184200000Y-105900000D01*
X184200000Y-106800000D01*
G37*
G36*
X180713108Y-105603551D02*
G01*
X180744943Y-105613208D01*
X180774287Y-105628893D01*
X180800003Y-105649997D01*
X180821107Y-105675713D01*
X180836792Y-105705057D01*
X180846449Y-105736892D01*
X180850000Y-105772945D01*
X180850000Y-106227055D01*
X180846449Y-106263108D01*
X180836792Y-106294943D01*
X180821107Y-106324287D01*
X180800003Y-106350003D01*
X180774287Y-106371107D01*
X180744943Y-106386792D01*
X180713108Y-106396449D01*
X180677055Y-106400000D01*
X179722945Y-106400000D01*
X179686892Y-106396449D01*
X179655057Y-106386792D01*
X179625713Y-106371107D01*
X179599997Y-106350003D01*
X179578893Y-106324287D01*
X179563208Y-106294943D01*
X179553551Y-106263108D01*
X179550000Y-106227055D01*
X179550000Y-105772945D01*
X179553551Y-105736892D01*
X179563208Y-105705057D01*
X179578893Y-105675713D01*
X179599997Y-105649997D01*
X179625713Y-105628893D01*
X179655057Y-105613208D01*
X179686892Y-105603551D01*
X179722945Y-105600000D01*
X180677055Y-105600000D01*
X180713108Y-105603551D01*
G37*
G36*
X167830000Y-106325000D02*
G01*
X166770000Y-106325000D01*
X166770000Y-105675000D01*
X167830000Y-105675000D01*
X167830000Y-106325000D01*
G37*
G36*
X170030000Y-106325000D02*
G01*
X168970000Y-106325000D01*
X168970000Y-105675000D01*
X170030000Y-105675000D01*
X170030000Y-106325000D01*
G37*
G36*
X177638108Y-104703551D02*
G01*
X177669943Y-104713208D01*
X177699287Y-104728893D01*
X177725003Y-104749997D01*
X177746107Y-104775713D01*
X177761792Y-104805057D01*
X177771449Y-104836892D01*
X177775000Y-104872945D01*
X177775000Y-105327055D01*
X177771449Y-105363108D01*
X177761792Y-105394943D01*
X177746107Y-105424287D01*
X177725003Y-105450003D01*
X177699287Y-105471107D01*
X177669943Y-105486792D01*
X177638108Y-105496449D01*
X177602055Y-105500000D01*
X176997945Y-105500000D01*
X176961892Y-105496449D01*
X176930057Y-105486792D01*
X176900713Y-105471107D01*
X176874997Y-105450003D01*
X176853893Y-105424287D01*
X176838208Y-105394943D01*
X176828551Y-105363108D01*
X176825000Y-105327055D01*
X176825000Y-104872945D01*
X176828551Y-104836892D01*
X176838208Y-104805057D01*
X176853893Y-104775713D01*
X176874997Y-104749997D01*
X176900713Y-104728893D01*
X176930057Y-104713208D01*
X176961892Y-104703551D01*
X176997945Y-104700000D01*
X177602055Y-104700000D01*
X177638108Y-104703551D01*
G37*
G36*
X165417987Y-104054032D02*
G01*
X165454509Y-104065111D01*
X165488179Y-104083107D01*
X165517681Y-104107319D01*
X165541893Y-104136821D01*
X165559889Y-104170491D01*
X165570968Y-104207013D01*
X165575000Y-104247947D01*
X165575000Y-104752053D01*
X165570968Y-104792987D01*
X165559889Y-104829509D01*
X165541893Y-104863179D01*
X165517681Y-104892681D01*
X165488179Y-104916893D01*
X165454509Y-104934889D01*
X165417987Y-104945968D01*
X165377053Y-104950000D01*
X164822947Y-104950000D01*
X164782013Y-104945968D01*
X164745491Y-104934889D01*
X164711821Y-104916893D01*
X164682319Y-104892681D01*
X164658107Y-104863179D01*
X164640111Y-104829509D01*
X164629032Y-104792987D01*
X164625000Y-104752053D01*
X164625000Y-104247947D01*
X164629032Y-104207013D01*
X164640111Y-104170491D01*
X164658107Y-104136821D01*
X164682319Y-104107319D01*
X164711821Y-104083107D01*
X164745491Y-104065111D01*
X164782013Y-104054032D01*
X164822947Y-104050000D01*
X165377053Y-104050000D01*
X165417987Y-104054032D01*
G37*
G36*
X166963049Y-103029448D02*
G01*
X167003639Y-103041761D01*
X167041044Y-103061754D01*
X167073835Y-103088665D01*
X167100746Y-103121456D01*
X167120739Y-103158861D01*
X167133052Y-103199451D01*
X167137500Y-103244612D01*
X167137500Y-104555388D01*
X167133052Y-104600549D01*
X167120739Y-104641139D01*
X167100746Y-104678544D01*
X167073835Y-104711335D01*
X167041044Y-104738246D01*
X167003639Y-104758239D01*
X166963049Y-104770552D01*
X166917888Y-104775000D01*
X166232112Y-104775000D01*
X166186951Y-104770552D01*
X166146361Y-104758239D01*
X166108956Y-104738246D01*
X166076165Y-104711335D01*
X166049254Y-104678544D01*
X166029261Y-104641139D01*
X166016948Y-104600549D01*
X166012500Y-104555388D01*
X166012500Y-103244612D01*
X166016948Y-103199451D01*
X166029261Y-103158861D01*
X166049254Y-103121456D01*
X166076165Y-103088665D01*
X166108956Y-103061754D01*
X166146361Y-103041761D01*
X166186951Y-103029448D01*
X166232112Y-103025000D01*
X166917888Y-103025000D01*
X166963049Y-103029448D01*
G37*
G36*
X169888049Y-103029448D02*
G01*
X169928639Y-103041761D01*
X169966044Y-103061754D01*
X169998835Y-103088665D01*
X170025746Y-103121456D01*
X170045739Y-103158861D01*
X170058052Y-103199451D01*
X170062500Y-103244612D01*
X170062500Y-104555388D01*
X170058052Y-104600549D01*
X170045739Y-104641139D01*
X170025746Y-104678544D01*
X169998835Y-104711335D01*
X169966044Y-104738246D01*
X169928639Y-104758239D01*
X169888049Y-104770552D01*
X169842888Y-104775000D01*
X169157112Y-104775000D01*
X169111951Y-104770552D01*
X169071361Y-104758239D01*
X169033956Y-104738246D01*
X169001165Y-104711335D01*
X168974254Y-104678544D01*
X168954261Y-104641139D01*
X168941948Y-104600549D01*
X168937500Y-104555388D01*
X168937500Y-103244612D01*
X168941948Y-103199451D01*
X168954261Y-103158861D01*
X168974254Y-103121456D01*
X169001165Y-103088665D01*
X169033956Y-103061754D01*
X169071361Y-103041761D01*
X169111951Y-103029448D01*
X169157112Y-103025000D01*
X169842888Y-103025000D01*
X169888049Y-103029448D01*
G37*
G36*
X175700000Y-104650000D02*
G01*
X174800000Y-104650000D01*
X174800000Y-103450000D01*
X175700000Y-103450000D01*
X175700000Y-104650000D01*
G37*
G36*
X172400000Y-104650000D02*
G01*
X171500000Y-104650000D01*
X171500000Y-103450000D01*
X172400000Y-103450000D01*
X172400000Y-104650000D01*
G37*
G36*
X177638108Y-103053551D02*
G01*
X177669943Y-103063208D01*
X177699287Y-103078893D01*
X177725003Y-103099997D01*
X177746107Y-103125713D01*
X177761792Y-103155057D01*
X177771449Y-103186892D01*
X177775000Y-103222945D01*
X177775000Y-103677055D01*
X177771449Y-103713108D01*
X177761792Y-103744943D01*
X177746107Y-103774287D01*
X177725003Y-103800003D01*
X177699287Y-103821107D01*
X177669943Y-103836792D01*
X177638108Y-103846449D01*
X177602055Y-103850000D01*
X176997945Y-103850000D01*
X176961892Y-103846449D01*
X176930057Y-103836792D01*
X176900713Y-103821107D01*
X176874997Y-103800003D01*
X176853893Y-103774287D01*
X176838208Y-103744943D01*
X176828551Y-103713108D01*
X176825000Y-103677055D01*
X176825000Y-103222945D01*
X176828551Y-103186892D01*
X176838208Y-103155057D01*
X176853893Y-103125713D01*
X176874997Y-103099997D01*
X176900713Y-103078893D01*
X176930057Y-103063208D01*
X176961892Y-103053551D01*
X176997945Y-103050000D01*
X177602055Y-103050000D01*
X177638108Y-103053551D01*
G37*
G36*
X180450000Y-103850000D02*
G01*
X179550000Y-103850000D01*
X179550000Y-103050000D01*
X180450000Y-103050000D01*
X180450000Y-103850000D01*
G37*
G36*
X184200000Y-103500000D02*
G01*
X183000000Y-103500000D01*
X183000000Y-102600000D01*
X184200000Y-102600000D01*
X184200000Y-103500000D01*
G37*
G36*
X165417987Y-102504032D02*
G01*
X165454509Y-102515111D01*
X165488179Y-102533107D01*
X165517681Y-102557319D01*
X165541893Y-102586821D01*
X165559889Y-102620491D01*
X165570968Y-102657013D01*
X165575000Y-102697947D01*
X165575000Y-103202053D01*
X165570968Y-103242987D01*
X165559889Y-103279509D01*
X165541893Y-103313179D01*
X165517681Y-103342681D01*
X165488179Y-103366893D01*
X165454509Y-103384889D01*
X165417987Y-103395968D01*
X165377053Y-103400000D01*
X164822947Y-103400000D01*
X164782013Y-103395968D01*
X164745491Y-103384889D01*
X164711821Y-103366893D01*
X164682319Y-103342681D01*
X164658107Y-103313179D01*
X164640111Y-103279509D01*
X164629032Y-103242987D01*
X164625000Y-103202053D01*
X164625000Y-102697947D01*
X164629032Y-102657013D01*
X164640111Y-102620491D01*
X164658107Y-102586821D01*
X164682319Y-102557319D01*
X164711821Y-102533107D01*
X164745491Y-102515111D01*
X164782013Y-102504032D01*
X164822947Y-102500000D01*
X165377053Y-102500000D01*
X165417987Y-102504032D01*
G37*
G36*
X182450000Y-102900000D02*
G01*
X181550000Y-102900000D01*
X181550000Y-102100000D01*
X182450000Y-102100000D01*
X182450000Y-102900000D01*
G37*
G36*
X180450000Y-101950000D02*
G01*
X179550000Y-101950000D01*
X179550000Y-101150000D01*
X180450000Y-101150000D01*
X180450000Y-101950000D01*
G37*
G36*
X184554208Y-98173015D02*
G01*
X184899989Y-98316242D01*
X185211178Y-98524172D01*
X185475828Y-98788822D01*
X185683758Y-99100011D01*
X185826985Y-99445792D01*
X185900000Y-99812865D01*
X185900000Y-100187135D01*
X185826985Y-100554208D01*
X185683758Y-100899989D01*
X185475828Y-101211178D01*
X185211178Y-101475828D01*
X184899989Y-101683758D01*
X184554208Y-101826985D01*
X184187135Y-101900000D01*
X183812865Y-101900000D01*
X183445792Y-101826985D01*
X183100011Y-101683758D01*
X182788822Y-101475828D01*
X182524172Y-101211178D01*
X182316242Y-100899989D01*
X182173015Y-100554208D01*
X182100000Y-100187135D01*
X182100000Y-99812865D01*
X182173015Y-99445792D01*
X182316242Y-99100011D01*
X182524172Y-98788822D01*
X182788822Y-98524172D01*
X183100011Y-98316242D01*
X183445792Y-98173015D01*
X183812865Y-98100000D01*
X184187135Y-98100000D01*
X184554208Y-98173015D01*
G37*
G36*
X166554208Y-98173015D02*
G01*
X166899989Y-98316242D01*
X167211178Y-98524172D01*
X167475828Y-98788822D01*
X167683758Y-99100011D01*
X167826985Y-99445792D01*
X167900000Y-99812865D01*
X167900000Y-100187135D01*
X167826985Y-100554208D01*
X167683758Y-100899989D01*
X167475828Y-101211178D01*
X167211178Y-101475828D01*
X166899989Y-101683758D01*
X166554208Y-101826985D01*
X166187135Y-101900000D01*
X165812865Y-101900000D01*
X165445792Y-101826985D01*
X165100011Y-101683758D01*
X164788822Y-101475828D01*
X164524172Y-101211178D01*
X164316242Y-100899989D01*
X164173015Y-100554208D01*
X164100000Y-100187135D01*
X164100000Y-99812865D01*
X164173015Y-99445792D01*
X164316242Y-99100011D01*
X164524172Y-98788822D01*
X164788822Y-98524172D01*
X165100011Y-98316242D01*
X165445792Y-98173015D01*
X165812865Y-98100000D01*
X166187135Y-98100000D01*
X166554208Y-98173015D01*
G37*
G36*
X171916631Y-98337299D02*
G01*
X172076855Y-98385903D01*
X172224518Y-98464830D01*
X172353949Y-98571051D01*
X172460167Y-98700479D01*
X172460168Y-98700481D01*
X172539097Y-98848146D01*
X172539098Y-98848150D01*
X172587701Y-99008370D01*
X172600000Y-99133244D01*
X172600000Y-99366757D01*
X172587701Y-99491631D01*
X172539097Y-99651855D01*
X172460170Y-99799518D01*
X172353949Y-99928949D01*
X172224517Y-100035170D01*
X172076854Y-100114097D01*
X171916630Y-100162701D01*
X171750000Y-100179113D01*
X171583369Y-100162701D01*
X171423145Y-100114097D01*
X171275482Y-100035170D01*
X171146051Y-99928949D01*
X171039830Y-99799517D01*
X170960903Y-99651854D01*
X170912299Y-99491630D01*
X170900000Y-99366756D01*
X170900000Y-99133243D01*
X170912299Y-99008369D01*
X170960903Y-98848145D01*
X171039830Y-98700482D01*
X171146051Y-98571051D01*
X171275483Y-98464830D01*
X171423146Y-98385903D01*
X171583370Y-98337299D01*
X171750000Y-98320887D01*
X171916631Y-98337299D01*
G37*
G36*
X174416631Y-98337299D02*
G01*
X174576855Y-98385903D01*
X174724518Y-98464830D01*
X174853949Y-98571051D01*
X174960167Y-98700479D01*
X174960168Y-98700481D01*
X175039097Y-98848146D01*
X175039098Y-98848150D01*
X175087701Y-99008370D01*
X175100000Y-99133244D01*
X175100000Y-99366757D01*
X175087701Y-99491631D01*
X175039097Y-99651855D01*
X174960170Y-99799518D01*
X174853949Y-99928949D01*
X174724517Y-100035170D01*
X174576854Y-100114097D01*
X174416630Y-100162701D01*
X174250000Y-100179113D01*
X174083369Y-100162701D01*
X173923145Y-100114097D01*
X173775482Y-100035170D01*
X173646051Y-99928949D01*
X173539830Y-99799517D01*
X173460903Y-99651854D01*
X173412299Y-99491630D01*
X173400000Y-99366756D01*
X173400000Y-99133243D01*
X173412299Y-99008369D01*
X173460903Y-98848145D01*
X173539830Y-98700482D01*
X173646051Y-98571051D01*
X173775483Y-98464830D01*
X173923146Y-98385903D01*
X174083370Y-98337299D01*
X174250000Y-98320887D01*
X174416631Y-98337299D01*
G37*
G36*
X177432805Y-98329275D02*
G01*
X177471709Y-98341076D01*
X177507552Y-98360234D01*
X177538976Y-98386024D01*
X177564766Y-98417448D01*
X177583924Y-98453291D01*
X177595725Y-98492195D01*
X177600000Y-98535594D01*
X177600000Y-99964406D01*
X177595725Y-100007805D01*
X177583924Y-100046709D01*
X177564766Y-100082552D01*
X177538976Y-100113976D01*
X177507552Y-100139766D01*
X177471709Y-100158924D01*
X177432805Y-100170725D01*
X177389406Y-100175000D01*
X176110594Y-100175000D01*
X176067195Y-100170725D01*
X176028291Y-100158924D01*
X175992448Y-100139766D01*
X175961024Y-100113976D01*
X175935234Y-100082552D01*
X175916076Y-100046709D01*
X175904275Y-100007805D01*
X175900000Y-99964406D01*
X175900000Y-98535594D01*
X175904275Y-98492195D01*
X175916076Y-98453291D01*
X175935234Y-98417448D01*
X175961024Y-98386024D01*
X175992448Y-98360234D01*
X176028291Y-98341076D01*
X176067195Y-98329275D01*
X176110594Y-98325000D01*
X177389406Y-98325000D01*
X177432805Y-98329275D01*
G37*
G36*
X180388108Y-98878551D02*
G01*
X180419943Y-98888208D01*
X180449287Y-98903893D01*
X180475003Y-98924997D01*
X180496107Y-98950713D01*
X180511792Y-98980057D01*
X180521449Y-99011892D01*
X180525000Y-99047945D01*
X180525000Y-99502055D01*
X180521449Y-99538108D01*
X180511792Y-99569943D01*
X180496107Y-99599287D01*
X180475003Y-99625003D01*
X180449287Y-99646107D01*
X180419943Y-99661792D01*
X180388108Y-99671449D01*
X180352055Y-99675000D01*
X179747945Y-99675000D01*
X179711892Y-99671449D01*
X179680057Y-99661792D01*
X179650713Y-99646107D01*
X179624997Y-99625003D01*
X179603893Y-99599287D01*
X179588208Y-99569943D01*
X179578551Y-99538108D01*
X179575000Y-99502055D01*
X179575000Y-99047945D01*
X179578551Y-99011892D01*
X179588208Y-98980057D01*
X179603893Y-98950713D01*
X179624997Y-98924997D01*
X179650713Y-98903893D01*
X179680057Y-98888208D01*
X179711892Y-98878551D01*
X179747945Y-98875000D01*
X180352055Y-98875000D01*
X180388108Y-98878551D01*
G37*
G36*
X181567987Y-98779032D02*
G01*
X181604509Y-98790111D01*
X181638179Y-98808107D01*
X181667681Y-98832319D01*
X181691893Y-98861821D01*
X181709889Y-98895491D01*
X181720968Y-98932013D01*
X181725000Y-98972947D01*
X181725000Y-99477053D01*
X181720968Y-99517987D01*
X181709889Y-99554509D01*
X181691893Y-99588179D01*
X181667681Y-99617681D01*
X181638179Y-99641893D01*
X181604509Y-99659889D01*
X181567987Y-99670968D01*
X181527053Y-99675000D01*
X180972947Y-99675000D01*
X180932013Y-99670968D01*
X180895491Y-99659889D01*
X180861821Y-99641893D01*
X180832319Y-99617681D01*
X180808107Y-99588179D01*
X180790111Y-99554509D01*
X180779032Y-99517987D01*
X180775000Y-99477053D01*
X180775000Y-98972947D01*
X180779032Y-98932013D01*
X180790111Y-98895491D01*
X180808107Y-98861821D01*
X180832319Y-98832319D01*
X180861821Y-98808107D01*
X180895491Y-98790111D01*
X180932013Y-98779032D01*
X180972947Y-98775000D01*
X181527053Y-98775000D01*
X181567987Y-98779032D01*
G37*
G36*
X164717987Y-97329032D02*
G01*
X164754509Y-97340111D01*
X164788179Y-97358107D01*
X164817681Y-97382319D01*
X164841893Y-97411821D01*
X164859889Y-97445491D01*
X164870968Y-97482013D01*
X164875000Y-97522947D01*
X164875000Y-98027053D01*
X164870968Y-98067987D01*
X164859889Y-98104509D01*
X164841893Y-98138179D01*
X164817681Y-98167681D01*
X164788179Y-98191893D01*
X164754509Y-98209889D01*
X164717987Y-98220968D01*
X164677053Y-98225000D01*
X164122947Y-98225000D01*
X164082013Y-98220968D01*
X164045491Y-98209889D01*
X164011821Y-98191893D01*
X163982319Y-98167681D01*
X163958107Y-98138179D01*
X163940111Y-98104509D01*
X163929032Y-98067987D01*
X163925000Y-98027053D01*
X163925000Y-97522947D01*
X163929032Y-97482013D01*
X163940111Y-97445491D01*
X163958107Y-97411821D01*
X163982319Y-97382319D01*
X164011821Y-97358107D01*
X164045491Y-97340111D01*
X164082013Y-97329032D01*
X164122947Y-97325000D01*
X164677053Y-97325000D01*
X164717987Y-97329032D01*
G37*
G36*
X181567987Y-97229032D02*
G01*
X181604509Y-97240111D01*
X181638179Y-97258107D01*
X181667681Y-97282319D01*
X181691893Y-97311821D01*
X181709889Y-97345491D01*
X181720968Y-97382013D01*
X181725000Y-97422947D01*
X181725000Y-97927053D01*
X181720968Y-97967987D01*
X181709889Y-98004509D01*
X181691893Y-98038179D01*
X181667681Y-98067681D01*
X181638179Y-98091893D01*
X181604509Y-98109889D01*
X181567987Y-98120968D01*
X181527053Y-98125000D01*
X180972947Y-98125000D01*
X180932013Y-98120968D01*
X180895491Y-98109889D01*
X180861821Y-98091893D01*
X180832319Y-98067681D01*
X180808107Y-98038179D01*
X180790111Y-98004509D01*
X180779032Y-97967987D01*
X180775000Y-97927053D01*
X180775000Y-97422947D01*
X180779032Y-97382013D01*
X180790111Y-97345491D01*
X180808107Y-97311821D01*
X180832319Y-97282319D01*
X180861821Y-97258107D01*
X180895491Y-97240111D01*
X180932013Y-97229032D01*
X180972947Y-97225000D01*
X181527053Y-97225000D01*
X181567987Y-97229032D01*
G37*
G36*
X180388108Y-97228551D02*
G01*
X180419943Y-97238208D01*
X180449287Y-97253893D01*
X180475003Y-97274997D01*
X180496107Y-97300713D01*
X180511792Y-97330057D01*
X180521449Y-97361892D01*
X180525000Y-97397945D01*
X180525000Y-97852055D01*
X180521449Y-97888108D01*
X180511792Y-97919943D01*
X180496107Y-97949287D01*
X180475003Y-97975003D01*
X180449287Y-97996107D01*
X180419943Y-98011792D01*
X180388108Y-98021449D01*
X180352055Y-98025000D01*
X179747945Y-98025000D01*
X179711892Y-98021449D01*
X179680057Y-98011792D01*
X179650713Y-97996107D01*
X179624997Y-97975003D01*
X179603893Y-97949287D01*
X179588208Y-97919943D01*
X179578551Y-97888108D01*
X179575000Y-97852055D01*
X179575000Y-97397945D01*
X179578551Y-97361892D01*
X179588208Y-97330057D01*
X179603893Y-97300713D01*
X179624997Y-97274997D01*
X179650713Y-97253893D01*
X179680057Y-97238208D01*
X179711892Y-97228551D01*
X179747945Y-97225000D01*
X180352055Y-97225000D01*
X180388108Y-97228551D01*
G37*
G36*
X168917987Y-96979032D02*
G01*
X168954509Y-96990111D01*
X168988179Y-97008107D01*
X169017681Y-97032319D01*
X169041893Y-97061821D01*
X169059889Y-97095491D01*
X169070968Y-97132013D01*
X169075000Y-97172947D01*
X169075000Y-97677053D01*
X169070968Y-97717987D01*
X169059889Y-97754509D01*
X169041893Y-97788179D01*
X169017681Y-97817681D01*
X168988179Y-97841893D01*
X168954509Y-97859889D01*
X168917987Y-97870968D01*
X168877053Y-97875000D01*
X168322947Y-97875000D01*
X168282013Y-97870968D01*
X168245491Y-97859889D01*
X168211821Y-97841893D01*
X168182319Y-97817681D01*
X168158107Y-97788179D01*
X168140111Y-97754509D01*
X168129032Y-97717987D01*
X168125000Y-97677053D01*
X168125000Y-97172947D01*
X168129032Y-97132013D01*
X168140111Y-97095491D01*
X168158107Y-97061821D01*
X168182319Y-97032319D01*
X168211821Y-97008107D01*
X168245491Y-96990111D01*
X168282013Y-96979032D01*
X168322947Y-96975000D01*
X168877053Y-96975000D01*
X168917987Y-96979032D01*
G37*
G36*
X165825000Y-97130000D02*
G01*
X165175000Y-97130000D01*
X165175000Y-96070000D01*
X165825000Y-96070000D01*
X165825000Y-97130000D01*
G37*
G36*
X167725000Y-97130000D02*
G01*
X167075000Y-97130000D01*
X167075000Y-96070000D01*
X167725000Y-96070000D01*
X167725000Y-97130000D01*
G37*
G36*
X166775000Y-97130000D02*
G01*
X166125000Y-97130000D01*
X166125000Y-96070000D01*
X166775000Y-96070000D01*
X166775000Y-97130000D01*
G37*
G36*
X180581482Y-96119855D02*
G01*
X180585883Y-96120289D01*
X180591683Y-96121442D01*
X180594481Y-96122290D01*
X180599958Y-96124559D01*
X180602543Y-96125941D01*
X180607457Y-96129224D01*
X180609724Y-96131085D01*
X180611814Y-96133175D01*
X180611820Y-96133180D01*
X180611825Y-96133186D01*
X180613915Y-96135276D01*
X180615776Y-96137543D01*
X180619059Y-96142457D01*
X180620441Y-96145042D01*
X180622710Y-96150519D01*
X180623558Y-96153317D01*
X180624711Y-96159117D01*
X180625145Y-96163518D01*
X180625290Y-96166467D01*
X180625290Y-96828533D01*
X180625145Y-96831482D01*
X180624711Y-96835883D01*
X180623558Y-96841683D01*
X180622710Y-96844481D01*
X180620441Y-96849958D01*
X180619059Y-96852543D01*
X180615776Y-96857457D01*
X180613915Y-96859724D01*
X180611825Y-96861814D01*
X180611820Y-96861820D01*
X180611814Y-96861825D01*
X180609724Y-96863915D01*
X180607457Y-96865776D01*
X180602543Y-96869059D01*
X180599958Y-96870441D01*
X180594481Y-96872710D01*
X180591683Y-96873558D01*
X180585883Y-96874711D01*
X180581482Y-96875145D01*
X180578533Y-96875290D01*
X180421467Y-96875290D01*
X180418518Y-96875145D01*
X180414117Y-96874711D01*
X180408317Y-96873558D01*
X180405519Y-96872710D01*
X180400042Y-96870441D01*
X180397457Y-96869059D01*
X180392543Y-96865776D01*
X180390276Y-96863915D01*
X180388186Y-96861825D01*
X180388180Y-96861820D01*
X180388175Y-96861814D01*
X180386085Y-96859724D01*
X180384224Y-96857457D01*
X180380941Y-96852543D01*
X180379559Y-96849958D01*
X180377290Y-96844481D01*
X180376442Y-96841683D01*
X180375289Y-96835883D01*
X180374855Y-96831482D01*
X180374710Y-96828533D01*
X180374710Y-96300107D01*
X180374855Y-96297158D01*
X180375289Y-96292757D01*
X180376442Y-96286957D01*
X180377290Y-96284159D01*
X180379559Y-96278682D01*
X180380941Y-96276097D01*
X180384224Y-96271183D01*
X180387026Y-96267770D01*
X180389011Y-96265579D01*
X180520579Y-96134011D01*
X180522770Y-96132026D01*
X180526183Y-96129224D01*
X180531097Y-96125941D01*
X180533682Y-96124559D01*
X180539159Y-96122290D01*
X180541957Y-96121442D01*
X180547757Y-96120289D01*
X180552158Y-96119855D01*
X180555107Y-96119710D01*
X180578533Y-96119710D01*
X180581482Y-96119855D01*
G37*
G36*
X183447842Y-96119855D02*
G01*
X183452243Y-96120289D01*
X183458043Y-96121442D01*
X183460841Y-96122290D01*
X183466318Y-96124559D01*
X183468903Y-96125941D01*
X183473817Y-96129224D01*
X183477230Y-96132026D01*
X183479421Y-96134011D01*
X183610989Y-96265579D01*
X183612974Y-96267770D01*
X183615776Y-96271183D01*
X183619059Y-96276097D01*
X183620441Y-96278682D01*
X183622710Y-96284159D01*
X183623558Y-96286957D01*
X183624711Y-96292757D01*
X183625145Y-96297158D01*
X183625290Y-96300107D01*
X183625290Y-96828533D01*
X183625145Y-96831482D01*
X183624711Y-96835883D01*
X183623558Y-96841683D01*
X183622710Y-96844481D01*
X183620441Y-96849958D01*
X183619059Y-96852543D01*
X183615776Y-96857457D01*
X183613915Y-96859724D01*
X183611825Y-96861814D01*
X183611820Y-96861820D01*
X183611814Y-96861825D01*
X183609724Y-96863915D01*
X183607457Y-96865776D01*
X183602543Y-96869059D01*
X183599958Y-96870441D01*
X183594481Y-96872710D01*
X183591683Y-96873558D01*
X183585883Y-96874711D01*
X183581482Y-96875145D01*
X183578533Y-96875290D01*
X183421467Y-96875290D01*
X183418518Y-96875145D01*
X183414117Y-96874711D01*
X183408317Y-96873558D01*
X183405519Y-96872710D01*
X183400042Y-96870441D01*
X183397457Y-96869059D01*
X183392543Y-96865776D01*
X183390276Y-96863915D01*
X183388186Y-96861825D01*
X183388180Y-96861820D01*
X183388175Y-96861814D01*
X183386085Y-96859724D01*
X183384224Y-96857457D01*
X183380941Y-96852543D01*
X183379559Y-96849958D01*
X183377290Y-96844481D01*
X183376442Y-96841683D01*
X183375289Y-96835883D01*
X183374855Y-96831482D01*
X183374710Y-96828533D01*
X183374710Y-96166467D01*
X183374855Y-96163518D01*
X183375289Y-96159117D01*
X183376442Y-96153317D01*
X183377290Y-96150519D01*
X183379559Y-96145042D01*
X183380941Y-96142457D01*
X183384224Y-96137543D01*
X183386085Y-96135276D01*
X183388175Y-96133186D01*
X183388180Y-96133180D01*
X183388186Y-96133175D01*
X183390276Y-96131085D01*
X183392543Y-96129224D01*
X183397457Y-96125941D01*
X183400042Y-96124559D01*
X183405519Y-96122290D01*
X183408317Y-96121442D01*
X183414117Y-96120289D01*
X183418518Y-96119855D01*
X183421467Y-96119710D01*
X183444893Y-96119710D01*
X183447842Y-96119855D01*
G37*
G36*
X181098784Y-96000909D02*
G01*
X181104825Y-96002742D01*
X181110394Y-96005718D01*
X181115276Y-96009724D01*
X181119282Y-96014606D01*
X181122258Y-96020175D01*
X181124091Y-96026216D01*
X181125000Y-96035445D01*
X181125000Y-96839555D01*
X181124091Y-96848784D01*
X181122258Y-96854825D01*
X181119282Y-96860394D01*
X181115276Y-96865276D01*
X181110394Y-96869282D01*
X181104825Y-96872258D01*
X181098784Y-96874091D01*
X181089555Y-96875000D01*
X180910445Y-96875000D01*
X180901216Y-96874091D01*
X180895175Y-96872258D01*
X180889606Y-96869282D01*
X180884724Y-96865276D01*
X180880718Y-96860394D01*
X180877742Y-96854825D01*
X180875909Y-96848784D01*
X180875000Y-96839555D01*
X180875000Y-96035445D01*
X180875909Y-96026216D01*
X180877742Y-96020175D01*
X180880718Y-96014606D01*
X180884724Y-96009724D01*
X180889606Y-96005718D01*
X180895175Y-96002742D01*
X180901216Y-96000909D01*
X180910445Y-96000000D01*
X181089555Y-96000000D01*
X181098784Y-96000909D01*
G37*
G36*
X183098784Y-96000909D02*
G01*
X183104825Y-96002742D01*
X183110394Y-96005718D01*
X183115276Y-96009724D01*
X183119282Y-96014606D01*
X183122258Y-96020175D01*
X183124091Y-96026216D01*
X183125000Y-96035445D01*
X183125000Y-96839555D01*
X183124091Y-96848784D01*
X183122258Y-96854825D01*
X183119282Y-96860394D01*
X183115276Y-96865276D01*
X183110394Y-96869282D01*
X183104825Y-96872258D01*
X183098784Y-96874091D01*
X183089555Y-96875000D01*
X182910445Y-96875000D01*
X182901216Y-96874091D01*
X182895175Y-96872258D01*
X182889606Y-96869282D01*
X182884724Y-96865276D01*
X182880718Y-96860394D01*
X182877742Y-96854825D01*
X182875909Y-96848784D01*
X182875000Y-96839555D01*
X182875000Y-96035445D01*
X182875909Y-96026216D01*
X182877742Y-96020175D01*
X182880718Y-96014606D01*
X182884724Y-96009724D01*
X182889606Y-96005718D01*
X182895175Y-96002742D01*
X182901216Y-96000909D01*
X182910445Y-96000000D01*
X183089555Y-96000000D01*
X183098784Y-96000909D01*
G37*
G36*
X181598784Y-96000909D02*
G01*
X181604825Y-96002742D01*
X181610394Y-96005718D01*
X181615276Y-96009724D01*
X181619282Y-96014606D01*
X181622258Y-96020175D01*
X181624091Y-96026216D01*
X181625000Y-96035445D01*
X181625000Y-96839555D01*
X181624091Y-96848784D01*
X181622258Y-96854825D01*
X181619282Y-96860394D01*
X181615276Y-96865276D01*
X181610394Y-96869282D01*
X181604825Y-96872258D01*
X181598784Y-96874091D01*
X181589555Y-96875000D01*
X181410445Y-96875000D01*
X181401216Y-96874091D01*
X181395175Y-96872258D01*
X181389606Y-96869282D01*
X181384724Y-96865276D01*
X181380718Y-96860394D01*
X181377742Y-96854825D01*
X181375909Y-96848784D01*
X181375000Y-96839555D01*
X181375000Y-96035445D01*
X181375909Y-96026216D01*
X181377742Y-96020175D01*
X181380718Y-96014606D01*
X181384724Y-96009724D01*
X181389606Y-96005718D01*
X181395175Y-96002742D01*
X181401216Y-96000909D01*
X181410445Y-96000000D01*
X181589555Y-96000000D01*
X181598784Y-96000909D01*
G37*
G36*
X182598784Y-96000909D02*
G01*
X182604825Y-96002742D01*
X182610394Y-96005718D01*
X182615276Y-96009724D01*
X182619282Y-96014606D01*
X182622258Y-96020175D01*
X182624091Y-96026216D01*
X182625000Y-96035445D01*
X182625000Y-96839555D01*
X182624091Y-96848784D01*
X182622258Y-96854825D01*
X182619282Y-96860394D01*
X182615276Y-96865276D01*
X182610394Y-96869282D01*
X182604825Y-96872258D01*
X182598784Y-96874091D01*
X182589555Y-96875000D01*
X182410445Y-96875000D01*
X182401216Y-96874091D01*
X182395175Y-96872258D01*
X182389606Y-96869282D01*
X182384724Y-96865276D01*
X182380718Y-96860394D01*
X182377742Y-96854825D01*
X182375909Y-96848784D01*
X182375000Y-96839555D01*
X182375000Y-96035445D01*
X182375909Y-96026216D01*
X182377742Y-96020175D01*
X182380718Y-96014606D01*
X182384724Y-96009724D01*
X182389606Y-96005718D01*
X182395175Y-96002742D01*
X182401216Y-96000909D01*
X182410445Y-96000000D01*
X182589555Y-96000000D01*
X182598784Y-96000909D01*
G37*
G36*
X182098784Y-96000909D02*
G01*
X182104825Y-96002742D01*
X182110394Y-96005718D01*
X182115276Y-96009724D01*
X182119282Y-96014606D01*
X182122258Y-96020175D01*
X182124091Y-96026216D01*
X182125000Y-96035445D01*
X182125000Y-96839555D01*
X182124091Y-96848784D01*
X182122258Y-96854825D01*
X182119282Y-96860394D01*
X182115276Y-96865276D01*
X182110394Y-96869282D01*
X182104825Y-96872258D01*
X182098784Y-96874091D01*
X182089555Y-96875000D01*
X181910445Y-96875000D01*
X181901216Y-96874091D01*
X181895175Y-96872258D01*
X181889606Y-96869282D01*
X181884724Y-96865276D01*
X181880718Y-96860394D01*
X181877742Y-96854825D01*
X181875909Y-96848784D01*
X181875000Y-96839555D01*
X181875000Y-96035445D01*
X181875909Y-96026216D01*
X181877742Y-96020175D01*
X181880718Y-96014606D01*
X181884724Y-96009724D01*
X181889606Y-96005718D01*
X181895175Y-96002742D01*
X181901216Y-96000909D01*
X181910445Y-96000000D01*
X182089555Y-96000000D01*
X182098784Y-96000909D01*
G37*
G36*
X164717987Y-95779032D02*
G01*
X164754509Y-95790111D01*
X164788179Y-95808107D01*
X164817681Y-95832319D01*
X164841893Y-95861821D01*
X164859889Y-95895491D01*
X164870968Y-95932013D01*
X164875000Y-95972947D01*
X164875000Y-96477053D01*
X164870968Y-96517987D01*
X164859889Y-96554509D01*
X164841893Y-96588179D01*
X164817681Y-96617681D01*
X164788179Y-96641893D01*
X164754509Y-96659889D01*
X164717987Y-96670968D01*
X164677053Y-96675000D01*
X164122947Y-96675000D01*
X164082013Y-96670968D01*
X164045491Y-96659889D01*
X164011821Y-96641893D01*
X163982319Y-96617681D01*
X163958107Y-96588179D01*
X163940111Y-96554509D01*
X163929032Y-96517987D01*
X163925000Y-96477053D01*
X163925000Y-95972947D01*
X163929032Y-95932013D01*
X163940111Y-95895491D01*
X163958107Y-95861821D01*
X163982319Y-95832319D01*
X164011821Y-95808107D01*
X164045491Y-95790111D01*
X164082013Y-95779032D01*
X164122947Y-95775000D01*
X164677053Y-95775000D01*
X164717987Y-95779032D01*
G37*
G36*
X168917987Y-95429032D02*
G01*
X168954509Y-95440111D01*
X168988179Y-95458107D01*
X169017681Y-95482319D01*
X169041893Y-95511821D01*
X169059889Y-95545491D01*
X169070968Y-95582013D01*
X169075000Y-95622947D01*
X169075000Y-96127053D01*
X169070968Y-96167987D01*
X169059889Y-96204509D01*
X169041893Y-96238179D01*
X169017681Y-96267681D01*
X168988179Y-96291893D01*
X168954509Y-96309889D01*
X168917987Y-96320968D01*
X168877053Y-96325000D01*
X168322947Y-96325000D01*
X168282013Y-96320968D01*
X168245491Y-96309889D01*
X168211821Y-96291893D01*
X168182319Y-96267681D01*
X168158107Y-96238179D01*
X168140111Y-96204509D01*
X168129032Y-96167987D01*
X168125000Y-96127053D01*
X168125000Y-95622947D01*
X168129032Y-95582013D01*
X168140111Y-95545491D01*
X168158107Y-95511821D01*
X168182319Y-95482319D01*
X168211821Y-95458107D01*
X168245491Y-95440111D01*
X168282013Y-95429032D01*
X168322947Y-95425000D01*
X168877053Y-95425000D01*
X168917987Y-95429032D01*
G37*
G36*
X184331482Y-95874855D02*
G01*
X184335883Y-95875289D01*
X184341683Y-95876442D01*
X184344481Y-95877290D01*
X184349958Y-95879559D01*
X184352543Y-95880941D01*
X184357457Y-95884224D01*
X184359724Y-95886085D01*
X184361814Y-95888175D01*
X184361820Y-95888180D01*
X184361825Y-95888186D01*
X184363915Y-95890276D01*
X184365776Y-95892543D01*
X184369059Y-95897457D01*
X184370441Y-95900042D01*
X184372710Y-95905519D01*
X184373558Y-95908317D01*
X184374711Y-95914117D01*
X184375145Y-95918518D01*
X184375290Y-95921467D01*
X184375290Y-96078533D01*
X184375145Y-96081482D01*
X184374711Y-96085883D01*
X184373558Y-96091683D01*
X184372710Y-96094481D01*
X184370441Y-96099958D01*
X184369059Y-96102543D01*
X184365776Y-96107457D01*
X184363915Y-96109724D01*
X184361825Y-96111814D01*
X184361820Y-96111820D01*
X184361814Y-96111825D01*
X184359724Y-96113915D01*
X184357457Y-96115776D01*
X184352543Y-96119059D01*
X184349958Y-96120441D01*
X184344481Y-96122710D01*
X184341683Y-96123558D01*
X184335883Y-96124711D01*
X184331482Y-96125145D01*
X184328533Y-96125290D01*
X183800107Y-96125290D01*
X183797158Y-96125145D01*
X183792757Y-96124711D01*
X183786957Y-96123558D01*
X183784159Y-96122710D01*
X183778682Y-96120441D01*
X183776097Y-96119059D01*
X183771183Y-96115776D01*
X183767770Y-96112974D01*
X183765579Y-96110989D01*
X183634011Y-95979421D01*
X183632026Y-95977230D01*
X183629224Y-95973817D01*
X183625941Y-95968903D01*
X183624559Y-95966318D01*
X183622290Y-95960841D01*
X183621442Y-95958043D01*
X183620289Y-95952243D01*
X183619855Y-95947842D01*
X183619710Y-95944893D01*
X183619710Y-95921467D01*
X183619855Y-95918518D01*
X183620289Y-95914117D01*
X183621442Y-95908317D01*
X183622290Y-95905519D01*
X183624559Y-95900042D01*
X183625941Y-95897457D01*
X183629224Y-95892543D01*
X183631085Y-95890276D01*
X183633175Y-95888186D01*
X183633180Y-95888180D01*
X183633186Y-95888175D01*
X183635276Y-95886085D01*
X183637543Y-95884224D01*
X183642457Y-95880941D01*
X183645042Y-95879559D01*
X183650519Y-95877290D01*
X183653317Y-95876442D01*
X183659117Y-95875289D01*
X183663518Y-95874855D01*
X183666467Y-95874710D01*
X184328533Y-95874710D01*
X184331482Y-95874855D01*
G37*
G36*
X180336482Y-95874855D02*
G01*
X180340883Y-95875289D01*
X180346683Y-95876442D01*
X180349481Y-95877290D01*
X180354958Y-95879559D01*
X180357543Y-95880941D01*
X180362457Y-95884224D01*
X180364724Y-95886085D01*
X180366814Y-95888175D01*
X180366820Y-95888180D01*
X180366825Y-95888186D01*
X180368915Y-95890276D01*
X180370776Y-95892543D01*
X180374059Y-95897457D01*
X180375441Y-95900042D01*
X180377710Y-95905519D01*
X180378558Y-95908317D01*
X180379711Y-95914117D01*
X180380145Y-95918518D01*
X180380290Y-95921467D01*
X180380290Y-95944893D01*
X180380145Y-95947842D01*
X180379711Y-95952243D01*
X180378558Y-95958043D01*
X180377710Y-95960841D01*
X180375441Y-95966318D01*
X180374059Y-95968903D01*
X180370776Y-95973817D01*
X180367974Y-95977230D01*
X180365989Y-95979421D01*
X180234421Y-96110989D01*
X180232230Y-96112974D01*
X180228817Y-96115776D01*
X180223903Y-96119059D01*
X180221318Y-96120441D01*
X180215841Y-96122710D01*
X180213043Y-96123558D01*
X180207243Y-96124711D01*
X180202842Y-96125145D01*
X180199893Y-96125290D01*
X179671467Y-96125290D01*
X179668518Y-96125145D01*
X179664117Y-96124711D01*
X179658317Y-96123558D01*
X179655519Y-96122710D01*
X179650042Y-96120441D01*
X179647457Y-96119059D01*
X179642543Y-96115776D01*
X179640276Y-96113915D01*
X179638186Y-96111825D01*
X179638180Y-96111820D01*
X179638175Y-96111814D01*
X179636085Y-96109724D01*
X179634224Y-96107457D01*
X179630941Y-96102543D01*
X179629559Y-96099958D01*
X179627290Y-96094481D01*
X179626442Y-96091683D01*
X179625289Y-96085883D01*
X179624855Y-96081482D01*
X179624710Y-96078533D01*
X179624710Y-95921467D01*
X179624855Y-95918518D01*
X179625289Y-95914117D01*
X179626442Y-95908317D01*
X179627290Y-95905519D01*
X179629559Y-95900042D01*
X179630941Y-95897457D01*
X179634224Y-95892543D01*
X179636085Y-95890276D01*
X179638175Y-95888186D01*
X179638180Y-95888180D01*
X179638186Y-95888175D01*
X179640276Y-95886085D01*
X179642543Y-95884224D01*
X179647457Y-95880941D01*
X179650042Y-95879559D01*
X179655519Y-95877290D01*
X179658317Y-95876442D01*
X179664117Y-95875289D01*
X179668518Y-95874855D01*
X179671467Y-95874710D01*
X180333533Y-95874710D01*
X180336482Y-95874855D01*
G37*
G36*
X184348784Y-95375909D02*
G01*
X184354825Y-95377742D01*
X184360394Y-95380718D01*
X184365276Y-95384724D01*
X184369282Y-95389606D01*
X184372258Y-95395175D01*
X184374091Y-95401216D01*
X184375000Y-95410445D01*
X184375000Y-95589555D01*
X184374091Y-95598784D01*
X184372258Y-95604825D01*
X184369282Y-95610394D01*
X184365276Y-95615276D01*
X184360394Y-95619282D01*
X184354825Y-95622258D01*
X184348784Y-95624091D01*
X184339555Y-95625000D01*
X183535445Y-95625000D01*
X183526216Y-95624091D01*
X183520175Y-95622258D01*
X183514606Y-95619282D01*
X183509724Y-95615276D01*
X183505718Y-95610394D01*
X183502742Y-95604825D01*
X183500909Y-95598784D01*
X183500000Y-95589555D01*
X183500000Y-95410445D01*
X183500909Y-95401216D01*
X183502742Y-95395175D01*
X183505718Y-95389606D01*
X183509724Y-95384724D01*
X183514606Y-95380718D01*
X183520175Y-95377742D01*
X183526216Y-95375909D01*
X183535445Y-95375000D01*
X184339555Y-95375000D01*
X184348784Y-95375909D01*
G37*
G36*
X180473784Y-95375909D02*
G01*
X180479825Y-95377742D01*
X180485394Y-95380718D01*
X180490276Y-95384724D01*
X180494282Y-95389606D01*
X180497258Y-95395175D01*
X180499091Y-95401216D01*
X180500000Y-95410445D01*
X180500000Y-95589555D01*
X180499091Y-95598784D01*
X180497258Y-95604825D01*
X180494282Y-95610394D01*
X180490276Y-95615276D01*
X180485394Y-95619282D01*
X180479825Y-95622258D01*
X180473784Y-95624091D01*
X180464555Y-95625000D01*
X179660445Y-95625000D01*
X179651216Y-95624091D01*
X179645175Y-95622258D01*
X179639606Y-95619282D01*
X179634724Y-95615276D01*
X179630718Y-95610394D01*
X179627742Y-95604825D01*
X179625909Y-95598784D01*
X179625000Y-95589555D01*
X179625000Y-95410445D01*
X179625909Y-95401216D01*
X179627742Y-95395175D01*
X179630718Y-95389606D01*
X179634724Y-95384724D01*
X179639606Y-95380718D01*
X179645175Y-95377742D01*
X179651216Y-95375909D01*
X179660445Y-95375000D01*
X180464555Y-95375000D01*
X180473784Y-95375909D01*
G37*
G36*
X180473784Y-94875909D02*
G01*
X180479825Y-94877742D01*
X180485394Y-94880718D01*
X180490276Y-94884724D01*
X180494282Y-94889606D01*
X180497258Y-94895175D01*
X180499091Y-94901216D01*
X180500000Y-94910445D01*
X180500000Y-95089555D01*
X180499091Y-95098784D01*
X180497258Y-95104825D01*
X180494282Y-95110394D01*
X180490276Y-95115276D01*
X180485394Y-95119282D01*
X180479825Y-95122258D01*
X180473784Y-95124091D01*
X180464555Y-95125000D01*
X179660445Y-95125000D01*
X179651216Y-95124091D01*
X179645175Y-95122258D01*
X179639606Y-95119282D01*
X179634724Y-95115276D01*
X179630718Y-95110394D01*
X179627742Y-95104825D01*
X179625909Y-95098784D01*
X179625000Y-95089555D01*
X179625000Y-94910445D01*
X179625909Y-94901216D01*
X179627742Y-94895175D01*
X179630718Y-94889606D01*
X179634724Y-94884724D01*
X179639606Y-94880718D01*
X179645175Y-94877742D01*
X179651216Y-94875909D01*
X179660445Y-94875000D01*
X180464555Y-94875000D01*
X180473784Y-94875909D01*
G37*
G36*
X184348784Y-94875909D02*
G01*
X184354825Y-94877742D01*
X184360394Y-94880718D01*
X184365276Y-94884724D01*
X184369282Y-94889606D01*
X184372258Y-94895175D01*
X184374091Y-94901216D01*
X184375000Y-94910445D01*
X184375000Y-95089555D01*
X184374091Y-95098784D01*
X184372258Y-95104825D01*
X184369282Y-95110394D01*
X184365276Y-95115276D01*
X184360394Y-95119282D01*
X184354825Y-95122258D01*
X184348784Y-95124091D01*
X184339555Y-95125000D01*
X183535445Y-95125000D01*
X183526216Y-95124091D01*
X183520175Y-95122258D01*
X183514606Y-95119282D01*
X183509724Y-95115276D01*
X183505718Y-95110394D01*
X183502742Y-95104825D01*
X183500909Y-95098784D01*
X183500000Y-95089555D01*
X183500000Y-94910445D01*
X183500909Y-94901216D01*
X183502742Y-94895175D01*
X183505718Y-94889606D01*
X183509724Y-94884724D01*
X183514606Y-94880718D01*
X183520175Y-94877742D01*
X183526216Y-94875909D01*
X183535445Y-94875000D01*
X184339555Y-94875000D01*
X184348784Y-94875909D01*
G37*
G36*
X165825000Y-94930000D02*
G01*
X165175000Y-94930000D01*
X165175000Y-93870000D01*
X165825000Y-93870000D01*
X165825000Y-94930000D01*
G37*
G36*
X167725000Y-94930000D02*
G01*
X167075000Y-94930000D01*
X167075000Y-93870000D01*
X167725000Y-93870000D01*
X167725000Y-94930000D01*
G37*
G36*
X180473784Y-94375909D02*
G01*
X180479825Y-94377742D01*
X180485394Y-94380718D01*
X180490276Y-94384724D01*
X180494282Y-94389606D01*
X180497258Y-94395175D01*
X180499091Y-94401216D01*
X180500000Y-94410445D01*
X180500000Y-94589555D01*
X180499091Y-94598784D01*
X180497258Y-94604825D01*
X180494282Y-94610394D01*
X180490276Y-94615276D01*
X180485394Y-94619282D01*
X180479825Y-94622258D01*
X180473784Y-94624091D01*
X180464555Y-94625000D01*
X179660445Y-94625000D01*
X179651216Y-94624091D01*
X179645175Y-94622258D01*
X179639606Y-94619282D01*
X179634724Y-94615276D01*
X179630718Y-94610394D01*
X179627742Y-94604825D01*
X179625909Y-94598784D01*
X179625000Y-94589555D01*
X179625000Y-94410445D01*
X179625909Y-94401216D01*
X179627742Y-94395175D01*
X179630718Y-94389606D01*
X179634724Y-94384724D01*
X179639606Y-94380718D01*
X179645175Y-94377742D01*
X179651216Y-94375909D01*
X179660445Y-94375000D01*
X180464555Y-94375000D01*
X180473784Y-94375909D01*
G37*
G36*
X184348784Y-94375909D02*
G01*
X184354825Y-94377742D01*
X184360394Y-94380718D01*
X184365276Y-94384724D01*
X184369282Y-94389606D01*
X184372258Y-94395175D01*
X184374091Y-94401216D01*
X184375000Y-94410445D01*
X184375000Y-94589555D01*
X184374091Y-94598784D01*
X184372258Y-94604825D01*
X184369282Y-94610394D01*
X184365276Y-94615276D01*
X184360394Y-94619282D01*
X184354825Y-94622258D01*
X184348784Y-94624091D01*
X184339555Y-94625000D01*
X183535445Y-94625000D01*
X183526216Y-94624091D01*
X183520175Y-94622258D01*
X183514606Y-94619282D01*
X183509724Y-94615276D01*
X183505718Y-94610394D01*
X183502742Y-94604825D01*
X183500909Y-94598784D01*
X183500000Y-94589555D01*
X183500000Y-94410445D01*
X183500909Y-94401216D01*
X183502742Y-94395175D01*
X183505718Y-94389606D01*
X183509724Y-94384724D01*
X183514606Y-94380718D01*
X183520175Y-94377742D01*
X183526216Y-94375909D01*
X183535445Y-94375000D01*
X184339555Y-94375000D01*
X184348784Y-94375909D01*
G37*
G36*
X174416631Y-92587299D02*
G01*
X174576855Y-92635903D01*
X174724518Y-92714830D01*
X174853949Y-92821051D01*
X174960167Y-92950479D01*
X174960168Y-92950481D01*
X175039097Y-93098146D01*
X175040283Y-93102055D01*
X175087701Y-93258370D01*
X175100000Y-93383244D01*
X175100000Y-93616757D01*
X175087701Y-93741631D01*
X175039097Y-93901855D01*
X174960170Y-94049518D01*
X174853949Y-94178949D01*
X174724517Y-94285170D01*
X174576854Y-94364097D01*
X174416630Y-94412701D01*
X174250000Y-94429113D01*
X174083369Y-94412701D01*
X173923145Y-94364097D01*
X173775482Y-94285170D01*
X173646051Y-94178949D01*
X173539830Y-94049517D01*
X173460903Y-93901854D01*
X173412299Y-93741630D01*
X173400000Y-93616756D01*
X173400000Y-93383243D01*
X173412299Y-93258369D01*
X173460903Y-93098145D01*
X173539830Y-92950482D01*
X173646051Y-92821051D01*
X173775483Y-92714830D01*
X173923146Y-92635903D01*
X174083370Y-92587299D01*
X174250000Y-92570887D01*
X174416631Y-92587299D01*
G37*
G36*
X171916631Y-92587299D02*
G01*
X172076855Y-92635903D01*
X172224518Y-92714830D01*
X172353949Y-92821051D01*
X172460167Y-92950479D01*
X172460168Y-92950481D01*
X172539097Y-93098146D01*
X172540283Y-93102055D01*
X172587701Y-93258370D01*
X172600000Y-93383244D01*
X172600000Y-93616757D01*
X172587701Y-93741631D01*
X172539097Y-93901855D01*
X172460170Y-94049518D01*
X172353949Y-94178949D01*
X172224517Y-94285170D01*
X172076854Y-94364097D01*
X171916630Y-94412701D01*
X171750000Y-94429113D01*
X171583369Y-94412701D01*
X171423145Y-94364097D01*
X171275482Y-94285170D01*
X171146051Y-94178949D01*
X171039830Y-94049517D01*
X170960903Y-93901854D01*
X170912299Y-93741630D01*
X170900000Y-93616756D01*
X170900000Y-93383243D01*
X170912299Y-93258369D01*
X170960903Y-93098145D01*
X171039830Y-92950482D01*
X171146051Y-92821051D01*
X171275483Y-92714830D01*
X171423146Y-92635903D01*
X171583370Y-92587299D01*
X171750000Y-92570887D01*
X171916631Y-92587299D01*
G37*
G36*
X177432805Y-92579275D02*
G01*
X177471709Y-92591076D01*
X177507552Y-92610234D01*
X177538976Y-92636024D01*
X177564766Y-92667448D01*
X177583924Y-92703291D01*
X177595725Y-92742195D01*
X177600000Y-92785594D01*
X177600000Y-94214406D01*
X177595725Y-94257805D01*
X177583924Y-94296709D01*
X177564766Y-94332552D01*
X177538976Y-94363976D01*
X177507552Y-94389766D01*
X177471709Y-94408924D01*
X177432805Y-94420725D01*
X177389406Y-94425000D01*
X176110594Y-94425000D01*
X176067195Y-94420725D01*
X176028291Y-94408924D01*
X175992448Y-94389766D01*
X175961024Y-94363976D01*
X175935234Y-94332552D01*
X175916076Y-94296709D01*
X175904275Y-94257805D01*
X175900000Y-94214406D01*
X175900000Y-92785594D01*
X175904275Y-92742195D01*
X175916076Y-92703291D01*
X175935234Y-92667448D01*
X175961024Y-92636024D01*
X175992448Y-92610234D01*
X176028291Y-92591076D01*
X176067195Y-92579275D01*
X176110594Y-92575000D01*
X177389406Y-92575000D01*
X177432805Y-92579275D01*
G37*
G36*
X180473784Y-93875909D02*
G01*
X180479825Y-93877742D01*
X180485394Y-93880718D01*
X180490276Y-93884724D01*
X180494282Y-93889606D01*
X180497258Y-93895175D01*
X180499091Y-93901216D01*
X180500000Y-93910445D01*
X180500000Y-94089555D01*
X180499091Y-94098784D01*
X180497258Y-94104825D01*
X180494282Y-94110394D01*
X180490276Y-94115276D01*
X180485394Y-94119282D01*
X180479825Y-94122258D01*
X180473784Y-94124091D01*
X180464555Y-94125000D01*
X179660445Y-94125000D01*
X179651216Y-94124091D01*
X179645175Y-94122258D01*
X179639606Y-94119282D01*
X179634724Y-94115276D01*
X179630718Y-94110394D01*
X179627742Y-94104825D01*
X179625909Y-94098784D01*
X179625000Y-94089555D01*
X179625000Y-93910445D01*
X179625909Y-93901216D01*
X179627742Y-93895175D01*
X179630718Y-93889606D01*
X179634724Y-93884724D01*
X179639606Y-93880718D01*
X179645175Y-93877742D01*
X179651216Y-93875909D01*
X179660445Y-93875000D01*
X180464555Y-93875000D01*
X180473784Y-93875909D01*
G37*
G36*
X184348784Y-93875909D02*
G01*
X184354825Y-93877742D01*
X184360394Y-93880718D01*
X184365276Y-93884724D01*
X184369282Y-93889606D01*
X184372258Y-93895175D01*
X184374091Y-93901216D01*
X184375000Y-93910445D01*
X184375000Y-94089555D01*
X184374091Y-94098784D01*
X184372258Y-94104825D01*
X184369282Y-94110394D01*
X184365276Y-94115276D01*
X184360394Y-94119282D01*
X184354825Y-94122258D01*
X184348784Y-94124091D01*
X184339555Y-94125000D01*
X183535445Y-94125000D01*
X183526216Y-94124091D01*
X183520175Y-94122258D01*
X183514606Y-94119282D01*
X183509724Y-94115276D01*
X183505718Y-94110394D01*
X183502742Y-94104825D01*
X183500909Y-94098784D01*
X183500000Y-94089555D01*
X183500000Y-93910445D01*
X183500909Y-93901216D01*
X183502742Y-93895175D01*
X183505718Y-93889606D01*
X183509724Y-93884724D01*
X183514606Y-93880718D01*
X183520175Y-93877742D01*
X183526216Y-93875909D01*
X183535445Y-93875000D01*
X184339555Y-93875000D01*
X184348784Y-93875909D01*
G37*
G36*
X180473784Y-93375909D02*
G01*
X180479825Y-93377742D01*
X180485394Y-93380718D01*
X180490276Y-93384724D01*
X180494282Y-93389606D01*
X180497258Y-93395175D01*
X180499091Y-93401216D01*
X180500000Y-93410445D01*
X180500000Y-93589555D01*
X180499091Y-93598784D01*
X180497258Y-93604825D01*
X180494282Y-93610394D01*
X180490276Y-93615276D01*
X180485394Y-93619282D01*
X180479825Y-93622258D01*
X180473784Y-93624091D01*
X180464555Y-93625000D01*
X179660445Y-93625000D01*
X179651216Y-93624091D01*
X179645175Y-93622258D01*
X179639606Y-93619282D01*
X179634724Y-93615276D01*
X179630718Y-93610394D01*
X179627742Y-93604825D01*
X179625909Y-93598784D01*
X179625000Y-93589555D01*
X179625000Y-93410445D01*
X179625909Y-93401216D01*
X179627742Y-93395175D01*
X179630718Y-93389606D01*
X179634724Y-93384724D01*
X179639606Y-93380718D01*
X179645175Y-93377742D01*
X179651216Y-93375909D01*
X179660445Y-93375000D01*
X180464555Y-93375000D01*
X180473784Y-93375909D01*
G37*
G36*
X184348784Y-93375909D02*
G01*
X184354825Y-93377742D01*
X184360394Y-93380718D01*
X184365276Y-93384724D01*
X184369282Y-93389606D01*
X184372258Y-93395175D01*
X184374091Y-93401216D01*
X184375000Y-93410445D01*
X184375000Y-93589555D01*
X184374091Y-93598784D01*
X184372258Y-93604825D01*
X184369282Y-93610394D01*
X184365276Y-93615276D01*
X184360394Y-93619282D01*
X184354825Y-93622258D01*
X184348784Y-93624091D01*
X184339555Y-93625000D01*
X183535445Y-93625000D01*
X183526216Y-93624091D01*
X183520175Y-93622258D01*
X183514606Y-93619282D01*
X183509724Y-93615276D01*
X183505718Y-93610394D01*
X183502742Y-93604825D01*
X183500909Y-93598784D01*
X183500000Y-93589555D01*
X183500000Y-93410445D01*
X183500909Y-93401216D01*
X183502742Y-93395175D01*
X183505718Y-93389606D01*
X183509724Y-93384724D01*
X183514606Y-93380718D01*
X183520175Y-93377742D01*
X183526216Y-93375909D01*
X183535445Y-93375000D01*
X184339555Y-93375000D01*
X184348784Y-93375909D01*
G37*
G36*
X168813108Y-92328551D02*
G01*
X168844943Y-92338208D01*
X168874287Y-92353893D01*
X168900003Y-92374997D01*
X168921107Y-92400713D01*
X168936792Y-92430057D01*
X168946449Y-92461892D01*
X168950000Y-92497945D01*
X168950000Y-93102055D01*
X168946449Y-93138108D01*
X168936792Y-93169943D01*
X168921107Y-93199287D01*
X168900003Y-93225003D01*
X168874287Y-93246107D01*
X168844943Y-93261792D01*
X168813108Y-93271449D01*
X168777055Y-93275000D01*
X168322945Y-93275000D01*
X168286892Y-93271449D01*
X168255057Y-93261792D01*
X168225713Y-93246107D01*
X168199997Y-93225003D01*
X168178893Y-93199287D01*
X168163208Y-93169943D01*
X168153551Y-93138108D01*
X168150000Y-93102055D01*
X168150000Y-92497945D01*
X168153551Y-92461892D01*
X168163208Y-92430057D01*
X168178893Y-92400713D01*
X168199997Y-92374997D01*
X168225713Y-92353893D01*
X168255057Y-92338208D01*
X168286892Y-92328551D01*
X168322945Y-92325000D01*
X168777055Y-92325000D01*
X168813108Y-92328551D01*
G37*
G36*
X167163108Y-92328551D02*
G01*
X167194943Y-92338208D01*
X167224287Y-92353893D01*
X167250003Y-92374997D01*
X167271107Y-92400713D01*
X167286792Y-92430057D01*
X167296449Y-92461892D01*
X167300000Y-92497945D01*
X167300000Y-93102055D01*
X167296449Y-93138108D01*
X167286792Y-93169943D01*
X167271107Y-93199287D01*
X167250003Y-93225003D01*
X167224287Y-93246107D01*
X167194943Y-93261792D01*
X167163108Y-93271449D01*
X167127055Y-93275000D01*
X166672945Y-93275000D01*
X166636892Y-93271449D01*
X166605057Y-93261792D01*
X166575713Y-93246107D01*
X166549997Y-93225003D01*
X166528893Y-93199287D01*
X166513208Y-93169943D01*
X166503551Y-93138108D01*
X166500000Y-93102055D01*
X166500000Y-92497945D01*
X166503551Y-92461892D01*
X166513208Y-92430057D01*
X166528893Y-92400713D01*
X166549997Y-92374997D01*
X166575713Y-92353893D01*
X166605057Y-92338208D01*
X166636892Y-92328551D01*
X166672945Y-92325000D01*
X167127055Y-92325000D01*
X167163108Y-92328551D01*
G37*
G36*
X184331482Y-92874855D02*
G01*
X184335883Y-92875289D01*
X184341683Y-92876442D01*
X184344481Y-92877290D01*
X184349958Y-92879559D01*
X184352543Y-92880941D01*
X184357457Y-92884224D01*
X184359724Y-92886085D01*
X184361814Y-92888175D01*
X184361820Y-92888180D01*
X184361825Y-92888186D01*
X184363915Y-92890276D01*
X184365776Y-92892543D01*
X184369059Y-92897457D01*
X184370441Y-92900042D01*
X184372710Y-92905519D01*
X184373558Y-92908317D01*
X184374711Y-92914117D01*
X184375145Y-92918518D01*
X184375290Y-92921467D01*
X184375290Y-93078533D01*
X184375145Y-93081482D01*
X184374711Y-93085883D01*
X184373558Y-93091683D01*
X184372710Y-93094481D01*
X184370441Y-93099958D01*
X184369059Y-93102543D01*
X184365776Y-93107457D01*
X184363915Y-93109724D01*
X184361825Y-93111814D01*
X184361820Y-93111820D01*
X184361814Y-93111825D01*
X184359724Y-93113915D01*
X184357457Y-93115776D01*
X184352543Y-93119059D01*
X184349958Y-93120441D01*
X184344481Y-93122710D01*
X184341683Y-93123558D01*
X184335883Y-93124711D01*
X184331482Y-93125145D01*
X184328533Y-93125290D01*
X183666467Y-93125290D01*
X183663518Y-93125145D01*
X183659117Y-93124711D01*
X183653317Y-93123558D01*
X183650519Y-93122710D01*
X183645042Y-93120441D01*
X183642457Y-93119059D01*
X183637543Y-93115776D01*
X183635276Y-93113915D01*
X183633186Y-93111825D01*
X183633180Y-93111820D01*
X183633175Y-93111814D01*
X183631085Y-93109724D01*
X183629224Y-93107457D01*
X183625941Y-93102543D01*
X183624559Y-93099958D01*
X183622290Y-93094481D01*
X183621442Y-93091683D01*
X183620289Y-93085883D01*
X183619855Y-93081482D01*
X183619710Y-93078533D01*
X183619710Y-93055107D01*
X183619855Y-93052158D01*
X183620289Y-93047757D01*
X183621442Y-93041957D01*
X183622290Y-93039159D01*
X183624559Y-93033682D01*
X183625941Y-93031097D01*
X183629224Y-93026183D01*
X183632026Y-93022770D01*
X183634011Y-93020579D01*
X183765579Y-92889011D01*
X183767770Y-92887026D01*
X183771183Y-92884224D01*
X183776097Y-92880941D01*
X183778682Y-92879559D01*
X183784159Y-92877290D01*
X183786957Y-92876442D01*
X183792757Y-92875289D01*
X183797158Y-92874855D01*
X183800107Y-92874710D01*
X184328533Y-92874710D01*
X184331482Y-92874855D01*
G37*
G36*
X180202842Y-92874855D02*
G01*
X180207243Y-92875289D01*
X180213043Y-92876442D01*
X180215841Y-92877290D01*
X180221318Y-92879559D01*
X180223903Y-92880941D01*
X180228817Y-92884224D01*
X180232230Y-92887026D01*
X180234421Y-92889011D01*
X180365989Y-93020579D01*
X180367974Y-93022770D01*
X180370776Y-93026183D01*
X180374059Y-93031097D01*
X180375441Y-93033682D01*
X180377710Y-93039159D01*
X180378558Y-93041957D01*
X180379711Y-93047757D01*
X180380145Y-93052158D01*
X180380290Y-93055107D01*
X180380290Y-93078533D01*
X180380145Y-93081482D01*
X180379711Y-93085883D01*
X180378558Y-93091683D01*
X180377710Y-93094481D01*
X180375441Y-93099958D01*
X180374059Y-93102543D01*
X180370776Y-93107457D01*
X180368915Y-93109724D01*
X180366825Y-93111814D01*
X180366820Y-93111820D01*
X180366814Y-93111825D01*
X180364724Y-93113915D01*
X180362457Y-93115776D01*
X180357543Y-93119059D01*
X180354958Y-93120441D01*
X180349481Y-93122710D01*
X180346683Y-93123558D01*
X180340883Y-93124711D01*
X180336482Y-93125145D01*
X180333533Y-93125290D01*
X179671467Y-93125290D01*
X179668518Y-93125145D01*
X179664117Y-93124711D01*
X179658317Y-93123558D01*
X179655519Y-93122710D01*
X179650042Y-93120441D01*
X179647457Y-93119059D01*
X179642543Y-93115776D01*
X179640276Y-93113915D01*
X179638186Y-93111825D01*
X179638180Y-93111820D01*
X179638175Y-93111814D01*
X179636085Y-93109724D01*
X179634224Y-93107457D01*
X179630941Y-93102543D01*
X179629559Y-93099958D01*
X179627290Y-93094481D01*
X179626442Y-93091683D01*
X179625289Y-93085883D01*
X179624855Y-93081482D01*
X179624710Y-93078533D01*
X179624710Y-92921467D01*
X179624855Y-92918518D01*
X179625289Y-92914117D01*
X179626442Y-92908317D01*
X179627290Y-92905519D01*
X179629559Y-92900042D01*
X179630941Y-92897457D01*
X179634224Y-92892543D01*
X179636085Y-92890276D01*
X179638175Y-92888186D01*
X179638180Y-92888180D01*
X179638186Y-92888175D01*
X179640276Y-92886085D01*
X179642543Y-92884224D01*
X179647457Y-92880941D01*
X179650042Y-92879559D01*
X179655519Y-92877290D01*
X179658317Y-92876442D01*
X179664117Y-92875289D01*
X179668518Y-92874855D01*
X179671467Y-92874710D01*
X180199893Y-92874710D01*
X180202842Y-92874855D01*
G37*
G36*
X183098784Y-92125909D02*
G01*
X183104825Y-92127742D01*
X183110394Y-92130718D01*
X183115276Y-92134724D01*
X183119282Y-92139606D01*
X183122258Y-92145175D01*
X183124091Y-92151216D01*
X183125000Y-92160445D01*
X183125000Y-92964555D01*
X183124091Y-92973784D01*
X183122258Y-92979825D01*
X183119282Y-92985394D01*
X183115276Y-92990276D01*
X183110394Y-92994282D01*
X183104825Y-92997258D01*
X183098784Y-92999091D01*
X183089555Y-93000000D01*
X182910445Y-93000000D01*
X182901216Y-92999091D01*
X182895175Y-92997258D01*
X182889606Y-92994282D01*
X182884724Y-92990276D01*
X182880718Y-92985394D01*
X182877742Y-92979825D01*
X182875909Y-92973784D01*
X182875000Y-92964555D01*
X182875000Y-92160445D01*
X182875909Y-92151216D01*
X182877742Y-92145175D01*
X182880718Y-92139606D01*
X182884724Y-92134724D01*
X182889606Y-92130718D01*
X182895175Y-92127742D01*
X182901216Y-92125909D01*
X182910445Y-92125000D01*
X183089555Y-92125000D01*
X183098784Y-92125909D01*
G37*
G36*
X182598784Y-92125909D02*
G01*
X182604825Y-92127742D01*
X182610394Y-92130718D01*
X182615276Y-92134724D01*
X182619282Y-92139606D01*
X182622258Y-92145175D01*
X182624091Y-92151216D01*
X182625000Y-92160445D01*
X182625000Y-92964555D01*
X182624091Y-92973784D01*
X182622258Y-92979825D01*
X182619282Y-92985394D01*
X182615276Y-92990276D01*
X182610394Y-92994282D01*
X182604825Y-92997258D01*
X182598784Y-92999091D01*
X182589555Y-93000000D01*
X182410445Y-93000000D01*
X182401216Y-92999091D01*
X182395175Y-92997258D01*
X182389606Y-92994282D01*
X182384724Y-92990276D01*
X182380718Y-92985394D01*
X182377742Y-92979825D01*
X182375909Y-92973784D01*
X182375000Y-92964555D01*
X182375000Y-92160445D01*
X182375909Y-92151216D01*
X182377742Y-92145175D01*
X182380718Y-92139606D01*
X182384724Y-92134724D01*
X182389606Y-92130718D01*
X182395175Y-92127742D01*
X182401216Y-92125909D01*
X182410445Y-92125000D01*
X182589555Y-92125000D01*
X182598784Y-92125909D01*
G37*
G36*
X182098784Y-92125909D02*
G01*
X182104825Y-92127742D01*
X182110394Y-92130718D01*
X182115276Y-92134724D01*
X182119282Y-92139606D01*
X182122258Y-92145175D01*
X182124091Y-92151216D01*
X182125000Y-92160445D01*
X182125000Y-92964555D01*
X182124091Y-92973784D01*
X182122258Y-92979825D01*
X182119282Y-92985394D01*
X182115276Y-92990276D01*
X182110394Y-92994282D01*
X182104825Y-92997258D01*
X182098784Y-92999091D01*
X182089555Y-93000000D01*
X181910445Y-93000000D01*
X181901216Y-92999091D01*
X181895175Y-92997258D01*
X181889606Y-92994282D01*
X181884724Y-92990276D01*
X181880718Y-92985394D01*
X181877742Y-92979825D01*
X181875909Y-92973784D01*
X181875000Y-92964555D01*
X181875000Y-92160445D01*
X181875909Y-92151216D01*
X181877742Y-92145175D01*
X181880718Y-92139606D01*
X181884724Y-92134724D01*
X181889606Y-92130718D01*
X181895175Y-92127742D01*
X181901216Y-92125909D01*
X181910445Y-92125000D01*
X182089555Y-92125000D01*
X182098784Y-92125909D01*
G37*
G36*
X181598784Y-92125909D02*
G01*
X181604825Y-92127742D01*
X181610394Y-92130718D01*
X181615276Y-92134724D01*
X181619282Y-92139606D01*
X181622258Y-92145175D01*
X181624091Y-92151216D01*
X181625000Y-92160445D01*
X181625000Y-92964555D01*
X181624091Y-92973784D01*
X181622258Y-92979825D01*
X181619282Y-92985394D01*
X181615276Y-92990276D01*
X181610394Y-92994282D01*
X181604825Y-92997258D01*
X181598784Y-92999091D01*
X181589555Y-93000000D01*
X181410445Y-93000000D01*
X181401216Y-92999091D01*
X181395175Y-92997258D01*
X181389606Y-92994282D01*
X181384724Y-92990276D01*
X181380718Y-92985394D01*
X181377742Y-92979825D01*
X181375909Y-92973784D01*
X181375000Y-92964555D01*
X181375000Y-92160445D01*
X181375909Y-92151216D01*
X181377742Y-92145175D01*
X181380718Y-92139606D01*
X181384724Y-92134724D01*
X181389606Y-92130718D01*
X181395175Y-92127742D01*
X181401216Y-92125909D01*
X181410445Y-92125000D01*
X181589555Y-92125000D01*
X181598784Y-92125909D01*
G37*
G36*
X181098784Y-92125909D02*
G01*
X181104825Y-92127742D01*
X181110394Y-92130718D01*
X181115276Y-92134724D01*
X181119282Y-92139606D01*
X181122258Y-92145175D01*
X181124091Y-92151216D01*
X181125000Y-92160445D01*
X181125000Y-92964555D01*
X181124091Y-92973784D01*
X181122258Y-92979825D01*
X181119282Y-92985394D01*
X181115276Y-92990276D01*
X181110394Y-92994282D01*
X181104825Y-92997258D01*
X181098784Y-92999091D01*
X181089555Y-93000000D01*
X180910445Y-93000000D01*
X180901216Y-92999091D01*
X180895175Y-92997258D01*
X180889606Y-92994282D01*
X180884724Y-92990276D01*
X180880718Y-92985394D01*
X180877742Y-92979825D01*
X180875909Y-92973784D01*
X180875000Y-92964555D01*
X180875000Y-92160445D01*
X180875909Y-92151216D01*
X180877742Y-92145175D01*
X180880718Y-92139606D01*
X180884724Y-92134724D01*
X180889606Y-92130718D01*
X180895175Y-92127742D01*
X180901216Y-92125909D01*
X180910445Y-92125000D01*
X181089555Y-92125000D01*
X181098784Y-92125909D01*
G37*
G36*
X183581482Y-92124855D02*
G01*
X183585883Y-92125289D01*
X183591683Y-92126442D01*
X183594481Y-92127290D01*
X183599958Y-92129559D01*
X183602543Y-92130941D01*
X183607457Y-92134224D01*
X183609724Y-92136085D01*
X183611814Y-92138175D01*
X183611820Y-92138180D01*
X183611825Y-92138186D01*
X183613915Y-92140276D01*
X183615776Y-92142543D01*
X183619059Y-92147457D01*
X183620441Y-92150042D01*
X183622710Y-92155519D01*
X183623558Y-92158317D01*
X183624711Y-92164117D01*
X183625145Y-92168518D01*
X183625290Y-92171467D01*
X183625290Y-92699893D01*
X183625145Y-92702842D01*
X183624711Y-92707243D01*
X183623558Y-92713043D01*
X183622710Y-92715841D01*
X183620441Y-92721318D01*
X183619059Y-92723903D01*
X183615776Y-92728817D01*
X183612974Y-92732230D01*
X183610989Y-92734421D01*
X183479421Y-92865989D01*
X183477230Y-92867974D01*
X183473817Y-92870776D01*
X183468903Y-92874059D01*
X183466318Y-92875441D01*
X183460841Y-92877710D01*
X183458043Y-92878558D01*
X183452243Y-92879711D01*
X183447842Y-92880145D01*
X183444893Y-92880290D01*
X183421467Y-92880290D01*
X183418518Y-92880145D01*
X183414117Y-92879711D01*
X183408317Y-92878558D01*
X183405519Y-92877710D01*
X183400042Y-92875441D01*
X183397457Y-92874059D01*
X183392543Y-92870776D01*
X183390276Y-92868915D01*
X183388186Y-92866825D01*
X183388180Y-92866820D01*
X183388175Y-92866814D01*
X183386085Y-92864724D01*
X183384224Y-92862457D01*
X183380941Y-92857543D01*
X183379559Y-92854958D01*
X183377290Y-92849481D01*
X183376442Y-92846683D01*
X183375289Y-92840883D01*
X183374855Y-92836482D01*
X183374710Y-92833533D01*
X183374710Y-92171467D01*
X183374855Y-92168518D01*
X183375289Y-92164117D01*
X183376442Y-92158317D01*
X183377290Y-92155519D01*
X183379559Y-92150042D01*
X183380941Y-92147457D01*
X183384224Y-92142543D01*
X183386085Y-92140276D01*
X183388175Y-92138186D01*
X183388180Y-92138180D01*
X183388186Y-92138175D01*
X183390276Y-92136085D01*
X183392543Y-92134224D01*
X183397457Y-92130941D01*
X183400042Y-92129559D01*
X183405519Y-92127290D01*
X183408317Y-92126442D01*
X183414117Y-92125289D01*
X183418518Y-92124855D01*
X183421467Y-92124710D01*
X183578533Y-92124710D01*
X183581482Y-92124855D01*
G37*
G36*
X180581482Y-92124855D02*
G01*
X180585883Y-92125289D01*
X180591683Y-92126442D01*
X180594481Y-92127290D01*
X180599958Y-92129559D01*
X180602543Y-92130941D01*
X180607457Y-92134224D01*
X180609724Y-92136085D01*
X180611814Y-92138175D01*
X180611820Y-92138180D01*
X180611825Y-92138186D01*
X180613915Y-92140276D01*
X180615776Y-92142543D01*
X180619059Y-92147457D01*
X180620441Y-92150042D01*
X180622710Y-92155519D01*
X180623558Y-92158317D01*
X180624711Y-92164117D01*
X180625145Y-92168518D01*
X180625290Y-92171467D01*
X180625290Y-92833533D01*
X180625145Y-92836482D01*
X180624711Y-92840883D01*
X180623558Y-92846683D01*
X180622710Y-92849481D01*
X180620441Y-92854958D01*
X180619059Y-92857543D01*
X180615776Y-92862457D01*
X180613915Y-92864724D01*
X180611825Y-92866814D01*
X180611820Y-92866820D01*
X180611814Y-92866825D01*
X180609724Y-92868915D01*
X180607457Y-92870776D01*
X180602543Y-92874059D01*
X180599958Y-92875441D01*
X180594481Y-92877710D01*
X180591683Y-92878558D01*
X180585883Y-92879711D01*
X180581482Y-92880145D01*
X180578533Y-92880290D01*
X180555107Y-92880290D01*
X180552158Y-92880145D01*
X180547757Y-92879711D01*
X180541957Y-92878558D01*
X180539159Y-92877710D01*
X180533682Y-92875441D01*
X180531097Y-92874059D01*
X180526183Y-92870776D01*
X180522770Y-92867974D01*
X180520579Y-92865989D01*
X180389011Y-92734421D01*
X180387026Y-92732230D01*
X180384224Y-92728817D01*
X180380941Y-92723903D01*
X180379559Y-92721318D01*
X180377290Y-92715841D01*
X180376442Y-92713043D01*
X180375289Y-92707243D01*
X180374855Y-92702842D01*
X180374710Y-92699893D01*
X180374710Y-92171467D01*
X180374855Y-92168518D01*
X180375289Y-92164117D01*
X180376442Y-92158317D01*
X180377290Y-92155519D01*
X180379559Y-92150042D01*
X180380941Y-92147457D01*
X180384224Y-92142543D01*
X180386085Y-92140276D01*
X180388175Y-92138186D01*
X180388180Y-92138180D01*
X180388186Y-92138175D01*
X180390276Y-92136085D01*
X180392543Y-92134224D01*
X180397457Y-92130941D01*
X180400042Y-92129559D01*
X180405519Y-92127290D01*
X180408317Y-92126442D01*
X180414117Y-92125289D01*
X180418518Y-92124855D01*
X180421467Y-92124710D01*
X180578533Y-92124710D01*
X180581482Y-92124855D01*
G37*
G36*
X180567987Y-90829032D02*
G01*
X180604509Y-90840111D01*
X180638179Y-90858107D01*
X180667681Y-90882319D01*
X180691893Y-90911821D01*
X180709889Y-90945491D01*
X180720968Y-90982013D01*
X180725000Y-91022947D01*
X180725000Y-91577053D01*
X180720968Y-91617987D01*
X180709889Y-91654509D01*
X180691893Y-91688179D01*
X180667681Y-91717681D01*
X180638179Y-91741893D01*
X180604509Y-91759889D01*
X180567987Y-91770968D01*
X180527053Y-91775000D01*
X180022947Y-91775000D01*
X179982013Y-91770968D01*
X179945491Y-91759889D01*
X179911821Y-91741893D01*
X179882319Y-91717681D01*
X179858107Y-91688179D01*
X179840111Y-91654509D01*
X179829032Y-91617987D01*
X179825000Y-91577053D01*
X179825000Y-91022947D01*
X179829032Y-90982013D01*
X179840111Y-90945491D01*
X179858107Y-90911821D01*
X179882319Y-90882319D01*
X179911821Y-90858107D01*
X179945491Y-90840111D01*
X179982013Y-90829032D01*
X180022947Y-90825000D01*
X180527053Y-90825000D01*
X180567987Y-90829032D01*
G37*
G36*
X182117987Y-90829032D02*
G01*
X182154509Y-90840111D01*
X182188179Y-90858107D01*
X182217681Y-90882319D01*
X182241893Y-90911821D01*
X182259889Y-90945491D01*
X182270968Y-90982013D01*
X182275000Y-91022947D01*
X182275000Y-91577053D01*
X182270968Y-91617987D01*
X182259889Y-91654509D01*
X182241893Y-91688179D01*
X182217681Y-91717681D01*
X182188179Y-91741893D01*
X182154509Y-91759889D01*
X182117987Y-91770968D01*
X182077053Y-91775000D01*
X181572947Y-91775000D01*
X181532013Y-91770968D01*
X181495491Y-91759889D01*
X181461821Y-91741893D01*
X181432319Y-91717681D01*
X181408107Y-91688179D01*
X181390111Y-91654509D01*
X181379032Y-91617987D01*
X181375000Y-91577053D01*
X181375000Y-91022947D01*
X181379032Y-90982013D01*
X181390111Y-90945491D01*
X181408107Y-90911821D01*
X181432319Y-90882319D01*
X181461821Y-90858107D01*
X181495491Y-90840111D01*
X181532013Y-90829032D01*
X181572947Y-90825000D01*
X182077053Y-90825000D01*
X182117987Y-90829032D01*
G37*
G36*
X169648019Y-90428912D02*
G01*
X169683371Y-90439636D01*
X169715950Y-90457050D01*
X169744511Y-90480489D01*
X169767950Y-90509050D01*
X169785364Y-90541629D01*
X169796088Y-90576981D01*
X169800000Y-90616697D01*
X169800000Y-91183303D01*
X169796088Y-91223019D01*
X169785364Y-91258371D01*
X169767950Y-91290950D01*
X169744511Y-91319511D01*
X169715950Y-91342950D01*
X169683371Y-91360364D01*
X169648019Y-91371088D01*
X169608303Y-91375000D01*
X169116697Y-91375000D01*
X169076981Y-91371088D01*
X169041629Y-91360364D01*
X169009050Y-91342950D01*
X168980489Y-91319511D01*
X168957050Y-91290950D01*
X168939636Y-91258371D01*
X168928912Y-91223019D01*
X168925000Y-91183303D01*
X168925000Y-90616697D01*
X168928912Y-90576981D01*
X168939636Y-90541629D01*
X168957050Y-90509050D01*
X168980489Y-90480489D01*
X169009050Y-90457050D01*
X169041629Y-90439636D01*
X169076981Y-90428912D01*
X169116697Y-90425000D01*
X169608303Y-90425000D01*
X169648019Y-90428912D01*
G37*
G36*
X171223019Y-90428912D02*
G01*
X171258371Y-90439636D01*
X171290950Y-90457050D01*
X171319511Y-90480489D01*
X171342950Y-90509050D01*
X171360364Y-90541629D01*
X171371088Y-90576981D01*
X171375000Y-90616697D01*
X171375000Y-91183303D01*
X171371088Y-91223019D01*
X171360364Y-91258371D01*
X171342950Y-91290950D01*
X171319511Y-91319511D01*
X171290950Y-91342950D01*
X171258371Y-91360364D01*
X171223019Y-91371088D01*
X171183303Y-91375000D01*
X170691697Y-91375000D01*
X170651981Y-91371088D01*
X170616629Y-91360364D01*
X170584050Y-91342950D01*
X170555489Y-91319511D01*
X170532050Y-91290950D01*
X170514636Y-91258371D01*
X170503912Y-91223019D01*
X170500000Y-91183303D01*
X170500000Y-90616697D01*
X170503912Y-90576981D01*
X170514636Y-90541629D01*
X170532050Y-90509050D01*
X170555489Y-90480489D01*
X170584050Y-90457050D01*
X170616629Y-90439636D01*
X170651981Y-90428912D01*
X170691697Y-90425000D01*
X171183303Y-90425000D01*
X171223019Y-90428912D01*
G37*
G36*
X180592987Y-89629032D02*
G01*
X180629509Y-89640111D01*
X180663179Y-89658107D01*
X180692681Y-89682319D01*
X180716893Y-89711821D01*
X180734889Y-89745491D01*
X180745968Y-89782013D01*
X180750000Y-89822947D01*
X180750000Y-90377053D01*
X180745968Y-90417987D01*
X180734889Y-90454509D01*
X180716893Y-90488179D01*
X180692681Y-90517681D01*
X180663179Y-90541893D01*
X180629509Y-90559889D01*
X180592987Y-90570968D01*
X180552053Y-90575000D01*
X180047947Y-90575000D01*
X180007013Y-90570968D01*
X179970491Y-90559889D01*
X179936821Y-90541893D01*
X179907319Y-90517681D01*
X179883107Y-90488179D01*
X179865111Y-90454509D01*
X179854032Y-90417987D01*
X179850000Y-90377053D01*
X179850000Y-89822947D01*
X179854032Y-89782013D01*
X179865111Y-89745491D01*
X179883107Y-89711821D01*
X179907319Y-89682319D01*
X179936821Y-89658107D01*
X179970491Y-89640111D01*
X180007013Y-89629032D01*
X180047947Y-89625000D01*
X180552053Y-89625000D01*
X180592987Y-89629032D01*
G37*
G36*
X179042987Y-89629032D02*
G01*
X179079509Y-89640111D01*
X179113179Y-89658107D01*
X179142681Y-89682319D01*
X179166893Y-89711821D01*
X179184889Y-89745491D01*
X179195968Y-89782013D01*
X179200000Y-89822947D01*
X179200000Y-90377053D01*
X179195968Y-90417987D01*
X179184889Y-90454509D01*
X179166893Y-90488179D01*
X179142681Y-90517681D01*
X179113179Y-90541893D01*
X179079509Y-90559889D01*
X179042987Y-90570968D01*
X179002053Y-90575000D01*
X178497947Y-90575000D01*
X178457013Y-90570968D01*
X178420491Y-90559889D01*
X178386821Y-90541893D01*
X178357319Y-90517681D01*
X178333107Y-90488179D01*
X178315111Y-90454509D01*
X178304032Y-90417987D01*
X178300000Y-90377053D01*
X178300000Y-89822947D01*
X178304032Y-89782013D01*
X178315111Y-89745491D01*
X178333107Y-89711821D01*
X178357319Y-89682319D01*
X178386821Y-89658107D01*
X178420491Y-89640111D01*
X178457013Y-89629032D01*
X178497947Y-89625000D01*
X179002053Y-89625000D01*
X179042987Y-89629032D01*
G37*
G36*
X172850000Y-90200000D02*
G01*
X171850000Y-90200000D01*
X171850000Y-89200000D01*
X172850000Y-89200000D01*
X172850000Y-90200000D01*
G37*
G36*
X173765843Y-89219214D02*
G01*
X173856841Y-89256906D01*
X173938730Y-89311623D01*
X174008377Y-89381270D01*
X174063094Y-89463159D01*
X174100786Y-89554157D01*
X174120000Y-89650753D01*
X174120000Y-89749247D01*
X174100786Y-89845843D01*
X174063094Y-89936841D01*
X174008377Y-90018730D01*
X173938730Y-90088377D01*
X173856841Y-90143094D01*
X173765843Y-90180786D01*
X173669247Y-90200000D01*
X173570753Y-90200000D01*
X173474157Y-90180786D01*
X173383159Y-90143094D01*
X173301270Y-90088377D01*
X173231623Y-90018730D01*
X173176906Y-89936841D01*
X173139214Y-89845843D01*
X173120000Y-89749247D01*
X173120000Y-89650753D01*
X173139214Y-89554157D01*
X173176906Y-89463159D01*
X173231623Y-89381270D01*
X173301270Y-89311623D01*
X173383159Y-89256906D01*
X173474157Y-89219214D01*
X173570753Y-89200000D01*
X173669247Y-89200000D01*
X173765843Y-89219214D01*
G37*
G36*
X175035843Y-89219214D02*
G01*
X175126841Y-89256906D01*
X175208730Y-89311623D01*
X175278377Y-89381270D01*
X175333094Y-89463159D01*
X175370786Y-89554157D01*
X175390000Y-89650753D01*
X175390000Y-89749247D01*
X175370786Y-89845843D01*
X175333094Y-89936841D01*
X175278377Y-90018730D01*
X175208730Y-90088377D01*
X175126841Y-90143094D01*
X175035843Y-90180786D01*
X174939247Y-90200000D01*
X174840753Y-90200000D01*
X174744157Y-90180786D01*
X174653159Y-90143094D01*
X174571270Y-90088377D01*
X174501623Y-90018730D01*
X174446906Y-89936841D01*
X174409214Y-89845843D01*
X174390000Y-89749247D01*
X174390000Y-89650753D01*
X174409214Y-89554157D01*
X174446906Y-89463159D01*
X174501623Y-89381270D01*
X174571270Y-89311623D01*
X174653159Y-89256906D01*
X174744157Y-89219214D01*
X174840753Y-89200000D01*
X174939247Y-89200000D01*
X175035843Y-89219214D01*
G37*
G36*
X176305843Y-89219214D02*
G01*
X176396841Y-89256906D01*
X176478730Y-89311623D01*
X176548377Y-89381270D01*
X176603094Y-89463159D01*
X176640786Y-89554157D01*
X176660000Y-89650753D01*
X176660000Y-89749247D01*
X176640786Y-89845843D01*
X176603094Y-89936841D01*
X176548377Y-90018730D01*
X176478730Y-90088377D01*
X176396841Y-90143094D01*
X176305843Y-90180786D01*
X176209247Y-90200000D01*
X176110753Y-90200000D01*
X176014157Y-90180786D01*
X175923159Y-90143094D01*
X175841270Y-90088377D01*
X175771623Y-90018730D01*
X175716906Y-89936841D01*
X175679214Y-89845843D01*
X175660000Y-89749247D01*
X175660000Y-89650753D01*
X175679214Y-89554157D01*
X175716906Y-89463159D01*
X175771623Y-89381270D01*
X175841270Y-89311623D01*
X175923159Y-89256906D01*
X176014157Y-89219214D01*
X176110753Y-89200000D01*
X176209247Y-89200000D01*
X176305843Y-89219214D01*
G37*
G36*
X177575843Y-89219214D02*
G01*
X177666841Y-89256906D01*
X177748730Y-89311623D01*
X177818377Y-89381270D01*
X177873094Y-89463159D01*
X177910786Y-89554157D01*
X177930000Y-89650753D01*
X177930000Y-89749247D01*
X177910786Y-89845843D01*
X177873094Y-89936841D01*
X177818377Y-90018730D01*
X177748730Y-90088377D01*
X177666841Y-90143094D01*
X177575843Y-90180786D01*
X177479247Y-90200000D01*
X177380753Y-90200000D01*
X177284157Y-90180786D01*
X177193159Y-90143094D01*
X177111270Y-90088377D01*
X177041623Y-90018730D01*
X176986906Y-89936841D01*
X176949214Y-89845843D01*
X176930000Y-89749247D01*
X176930000Y-89650753D01*
X176949214Y-89554157D01*
X176986906Y-89463159D01*
X177041623Y-89381270D01*
X177111270Y-89311623D01*
X177193159Y-89256906D01*
X177284157Y-89219214D01*
X177380753Y-89200000D01*
X177479247Y-89200000D01*
X177575843Y-89219214D01*
G37*
M02*
