%TF.GenerationSoftware,KiCad,Pcbnew,(5.1.8)-1*%
%TF.CreationDate,2020-11-29T16:47:13+01:00*%
%TF.ProjectId,PX12_Board,50583132-5f42-46f6-9172-642e6b696361,V1.0*%
%TF.SameCoordinates,Original*%
%TF.FileFunction,Paste,Top*%
%TF.FilePolarity,Positive*%
%FSLAX46Y46*%
G04 Gerber Fmt 4.6, Leading zero omitted, Abs format (unit mm)*
G04 Created by KiCad (PCBNEW (5.1.8)-1) date 2020-11-29 16:47:13*
%MOMM*%
%LPD*%
G01*
G04 APERTURE LIST*
%ADD10R,0.650000X1.060000*%
%ADD11R,0.900000X0.800000*%
%ADD12R,0.900000X1.200000*%
%ADD13R,1.200000X0.900000*%
%ADD14R,1.060000X0.650000*%
%ADD15C,0.100000*%
G04 APERTURE END LIST*
D10*
%TO.C,U1*%
X165500000Y-94400000D03*
X167400000Y-94400000D03*
X167400000Y-96600000D03*
X166450000Y-96600000D03*
X165500000Y-96600000D03*
%TD*%
%TO.C,C7*%
G36*
G01*
X181000000Y-97225000D02*
X181500000Y-97225000D01*
G75*
G02*
X181725000Y-97450000I0J-225000D01*
G01*
X181725000Y-97900000D01*
G75*
G02*
X181500000Y-98125000I-225000J0D01*
G01*
X181000000Y-98125000D01*
G75*
G02*
X180775000Y-97900000I0J225000D01*
G01*
X180775000Y-97450000D01*
G75*
G02*
X181000000Y-97225000I225000J0D01*
G01*
G37*
G36*
G01*
X181000000Y-98775000D02*
X181500000Y-98775000D01*
G75*
G02*
X181725000Y-99000000I0J-225000D01*
G01*
X181725000Y-99450000D01*
G75*
G02*
X181500000Y-99675000I-225000J0D01*
G01*
X181000000Y-99675000D01*
G75*
G02*
X180775000Y-99450000I0J225000D01*
G01*
X180775000Y-99000000D01*
G75*
G02*
X181000000Y-98775000I225000J0D01*
G01*
G37*
%TD*%
%TO.C,D3*%
G36*
G01*
X168925000Y-91156250D02*
X168925000Y-90643750D01*
G75*
G02*
X169143750Y-90425000I218750J0D01*
G01*
X169581250Y-90425000D01*
G75*
G02*
X169800000Y-90643750I0J-218750D01*
G01*
X169800000Y-91156250D01*
G75*
G02*
X169581250Y-91375000I-218750J0D01*
G01*
X169143750Y-91375000D01*
G75*
G02*
X168925000Y-91156250I0J218750D01*
G01*
G37*
G36*
G01*
X170500000Y-91156250D02*
X170500000Y-90643750D01*
G75*
G02*
X170718750Y-90425000I218750J0D01*
G01*
X171156250Y-90425000D01*
G75*
G02*
X171375000Y-90643750I0J-218750D01*
G01*
X171375000Y-91156250D01*
G75*
G02*
X171156250Y-91375000I-218750J0D01*
G01*
X170718750Y-91375000D01*
G75*
G02*
X170500000Y-91156250I0J218750D01*
G01*
G37*
%TD*%
%TO.C,C3*%
G36*
G01*
X182275000Y-91050000D02*
X182275000Y-91550000D01*
G75*
G02*
X182050000Y-91775000I-225000J0D01*
G01*
X181600000Y-91775000D01*
G75*
G02*
X181375000Y-91550000I0J225000D01*
G01*
X181375000Y-91050000D01*
G75*
G02*
X181600000Y-90825000I225000J0D01*
G01*
X182050000Y-90825000D01*
G75*
G02*
X182275000Y-91050000I0J-225000D01*
G01*
G37*
G36*
G01*
X180725000Y-91050000D02*
X180725000Y-91550000D01*
G75*
G02*
X180500000Y-91775000I-225000J0D01*
G01*
X180050000Y-91775000D01*
G75*
G02*
X179825000Y-91550000I0J225000D01*
G01*
X179825000Y-91050000D01*
G75*
G02*
X180050000Y-90825000I225000J0D01*
G01*
X180500000Y-90825000D01*
G75*
G02*
X180725000Y-91050000I0J-225000D01*
G01*
G37*
%TD*%
D11*
%TO.C,Q1*%
X182000000Y-102500000D03*
X180000000Y-103450000D03*
X180000000Y-101550000D03*
%TD*%
%TO.C,R4*%
G36*
G01*
X166500000Y-93075000D02*
X166500000Y-92525000D01*
G75*
G02*
X166700000Y-92325000I200000J0D01*
G01*
X167100000Y-92325000D01*
G75*
G02*
X167300000Y-92525000I0J-200000D01*
G01*
X167300000Y-93075000D01*
G75*
G02*
X167100000Y-93275000I-200000J0D01*
G01*
X166700000Y-93275000D01*
G75*
G02*
X166500000Y-93075000I0J200000D01*
G01*
G37*
G36*
G01*
X168150000Y-93075000D02*
X168150000Y-92525000D01*
G75*
G02*
X168350000Y-92325000I200000J0D01*
G01*
X168750000Y-92325000D01*
G75*
G02*
X168950000Y-92525000I0J-200000D01*
G01*
X168950000Y-93075000D01*
G75*
G02*
X168750000Y-93275000I-200000J0D01*
G01*
X168350000Y-93275000D01*
G75*
G02*
X168150000Y-93075000I0J200000D01*
G01*
G37*
%TD*%
%TO.C,C5*%
G36*
G01*
X168850000Y-96325000D02*
X168350000Y-96325000D01*
G75*
G02*
X168125000Y-96100000I0J225000D01*
G01*
X168125000Y-95650000D01*
G75*
G02*
X168350000Y-95425000I225000J0D01*
G01*
X168850000Y-95425000D01*
G75*
G02*
X169075000Y-95650000I0J-225000D01*
G01*
X169075000Y-96100000D01*
G75*
G02*
X168850000Y-96325000I-225000J0D01*
G01*
G37*
G36*
G01*
X168850000Y-97875000D02*
X168350000Y-97875000D01*
G75*
G02*
X168125000Y-97650000I0J225000D01*
G01*
X168125000Y-97200000D01*
G75*
G02*
X168350000Y-96975000I225000J0D01*
G01*
X168850000Y-96975000D01*
G75*
G02*
X169075000Y-97200000I0J-225000D01*
G01*
X169075000Y-97650000D01*
G75*
G02*
X168850000Y-97875000I-225000J0D01*
G01*
G37*
%TD*%
%TO.C,C6*%
G36*
G01*
X164150000Y-97325000D02*
X164650000Y-97325000D01*
G75*
G02*
X164875000Y-97550000I0J-225000D01*
G01*
X164875000Y-98000000D01*
G75*
G02*
X164650000Y-98225000I-225000J0D01*
G01*
X164150000Y-98225000D01*
G75*
G02*
X163925000Y-98000000I0J225000D01*
G01*
X163925000Y-97550000D01*
G75*
G02*
X164150000Y-97325000I225000J0D01*
G01*
G37*
G36*
G01*
X164150000Y-95775000D02*
X164650000Y-95775000D01*
G75*
G02*
X164875000Y-96000000I0J-225000D01*
G01*
X164875000Y-96450000D01*
G75*
G02*
X164650000Y-96675000I-225000J0D01*
G01*
X164150000Y-96675000D01*
G75*
G02*
X163925000Y-96450000I0J225000D01*
G01*
X163925000Y-96000000D01*
G75*
G02*
X164150000Y-95775000I225000J0D01*
G01*
G37*
%TD*%
%TO.C,Q2*%
X176800000Y-108750000D03*
X176800000Y-110650000D03*
X178800000Y-109700000D03*
%TD*%
%TO.C,R1*%
G36*
G01*
X177025000Y-103050000D02*
X177575000Y-103050000D01*
G75*
G02*
X177775000Y-103250000I0J-200000D01*
G01*
X177775000Y-103650000D01*
G75*
G02*
X177575000Y-103850000I-200000J0D01*
G01*
X177025000Y-103850000D01*
G75*
G02*
X176825000Y-103650000I0J200000D01*
G01*
X176825000Y-103250000D01*
G75*
G02*
X177025000Y-103050000I200000J0D01*
G01*
G37*
G36*
G01*
X177025000Y-104700000D02*
X177575000Y-104700000D01*
G75*
G02*
X177775000Y-104900000I0J-200000D01*
G01*
X177775000Y-105300000D01*
G75*
G02*
X177575000Y-105500000I-200000J0D01*
G01*
X177025000Y-105500000D01*
G75*
G02*
X176825000Y-105300000I0J200000D01*
G01*
X176825000Y-104900000D01*
G75*
G02*
X177025000Y-104700000I200000J0D01*
G01*
G37*
%TD*%
%TO.C,R5*%
G36*
G01*
X180325000Y-98025000D02*
X179775000Y-98025000D01*
G75*
G02*
X179575000Y-97825000I0J200000D01*
G01*
X179575000Y-97425000D01*
G75*
G02*
X179775000Y-97225000I200000J0D01*
G01*
X180325000Y-97225000D01*
G75*
G02*
X180525000Y-97425000I0J-200000D01*
G01*
X180525000Y-97825000D01*
G75*
G02*
X180325000Y-98025000I-200000J0D01*
G01*
G37*
G36*
G01*
X180325000Y-99675000D02*
X179775000Y-99675000D01*
G75*
G02*
X179575000Y-99475000I0J200000D01*
G01*
X179575000Y-99075000D01*
G75*
G02*
X179775000Y-98875000I200000J0D01*
G01*
X180325000Y-98875000D01*
G75*
G02*
X180525000Y-99075000I0J-200000D01*
G01*
X180525000Y-99475000D01*
G75*
G02*
X180325000Y-99675000I-200000J0D01*
G01*
G37*
%TD*%
D12*
%TO.C,D1*%
X175250000Y-104050000D03*
X171950000Y-104050000D03*
%TD*%
D13*
%TO.C,D2*%
X183600000Y-106350000D03*
X183600000Y-103050000D03*
%TD*%
%TO.C,R2*%
G36*
G01*
X170062500Y-103274998D02*
X170062500Y-104525002D01*
G75*
G02*
X169812502Y-104775000I-249998J0D01*
G01*
X169187498Y-104775000D01*
G75*
G02*
X168937500Y-104525002I0J249998D01*
G01*
X168937500Y-103274998D01*
G75*
G02*
X169187498Y-103025000I249998J0D01*
G01*
X169812502Y-103025000D01*
G75*
G02*
X170062500Y-103274998I0J-249998D01*
G01*
G37*
G36*
G01*
X167137500Y-103274998D02*
X167137500Y-104525002D01*
G75*
G02*
X166887502Y-104775000I-249998J0D01*
G01*
X166262498Y-104775000D01*
G75*
G02*
X166012500Y-104525002I0J249998D01*
G01*
X166012500Y-103274998D01*
G75*
G02*
X166262498Y-103025000I249998J0D01*
G01*
X166887502Y-103025000D01*
G75*
G02*
X167137500Y-103274998I0J-249998D01*
G01*
G37*
%TD*%
%TO.C,R3*%
G36*
G01*
X178525000Y-106825000D02*
X178525000Y-107375000D01*
G75*
G02*
X178325000Y-107575000I-200000J0D01*
G01*
X177925000Y-107575000D01*
G75*
G02*
X177725000Y-107375000I0J200000D01*
G01*
X177725000Y-106825000D01*
G75*
G02*
X177925000Y-106625000I200000J0D01*
G01*
X178325000Y-106625000D01*
G75*
G02*
X178525000Y-106825000I0J-200000D01*
G01*
G37*
G36*
G01*
X176875000Y-106825000D02*
X176875000Y-107375000D01*
G75*
G02*
X176675000Y-107575000I-200000J0D01*
G01*
X176275000Y-107575000D01*
G75*
G02*
X176075000Y-107375000I0J200000D01*
G01*
X176075000Y-106825000D01*
G75*
G02*
X176275000Y-106625000I200000J0D01*
G01*
X176675000Y-106625000D01*
G75*
G02*
X176875000Y-106825000I0J-200000D01*
G01*
G37*
%TD*%
D14*
%TO.C,U2*%
X169500000Y-107900000D03*
X169500000Y-106950000D03*
X169500000Y-106000000D03*
X167300000Y-106000000D03*
X167300000Y-107900000D03*
%TD*%
D15*
%TO.C,U3*%
G36*
X180375865Y-96289861D02*
G01*
X180378425Y-96281419D01*
X180382584Y-96273639D01*
X180388180Y-96266820D01*
X180521820Y-96133180D01*
X180528639Y-96127584D01*
X180536419Y-96123425D01*
X180544861Y-96120865D01*
X180553640Y-96120000D01*
X180580000Y-96120000D01*
X180588779Y-96120865D01*
X180597221Y-96123425D01*
X180605001Y-96127584D01*
X180611820Y-96133180D01*
X180617416Y-96139999D01*
X180621575Y-96147779D01*
X180624135Y-96156221D01*
X180625000Y-96165000D01*
X180625000Y-96830000D01*
X180624135Y-96838779D01*
X180621575Y-96847221D01*
X180617416Y-96855001D01*
X180611820Y-96861820D01*
X180605001Y-96867416D01*
X180597221Y-96871575D01*
X180588779Y-96874135D01*
X180580000Y-96875000D01*
X180420000Y-96875000D01*
X180411221Y-96874135D01*
X180402779Y-96871575D01*
X180394999Y-96867416D01*
X180388180Y-96861820D01*
X180382584Y-96855001D01*
X180378425Y-96847221D01*
X180375865Y-96838779D01*
X180375000Y-96830000D01*
X180375000Y-96298640D01*
X180375865Y-96289861D01*
G37*
G36*
G01*
X181062500Y-96875000D02*
X180937500Y-96875000D01*
G75*
G02*
X180875000Y-96812500I0J62500D01*
G01*
X180875000Y-96062500D01*
G75*
G02*
X180937500Y-96000000I62500J0D01*
G01*
X181062500Y-96000000D01*
G75*
G02*
X181125000Y-96062500I0J-62500D01*
G01*
X181125000Y-96812500D01*
G75*
G02*
X181062500Y-96875000I-62500J0D01*
G01*
G37*
G36*
G01*
X181562500Y-96875000D02*
X181437500Y-96875000D01*
G75*
G02*
X181375000Y-96812500I0J62500D01*
G01*
X181375000Y-96062500D01*
G75*
G02*
X181437500Y-96000000I62500J0D01*
G01*
X181562500Y-96000000D01*
G75*
G02*
X181625000Y-96062500I0J-62500D01*
G01*
X181625000Y-96812500D01*
G75*
G02*
X181562500Y-96875000I-62500J0D01*
G01*
G37*
G36*
G01*
X182062500Y-96875000D02*
X181937500Y-96875000D01*
G75*
G02*
X181875000Y-96812500I0J62500D01*
G01*
X181875000Y-96062500D01*
G75*
G02*
X181937500Y-96000000I62500J0D01*
G01*
X182062500Y-96000000D01*
G75*
G02*
X182125000Y-96062500I0J-62500D01*
G01*
X182125000Y-96812500D01*
G75*
G02*
X182062500Y-96875000I-62500J0D01*
G01*
G37*
G36*
G01*
X182562500Y-96875000D02*
X182437500Y-96875000D01*
G75*
G02*
X182375000Y-96812500I0J62500D01*
G01*
X182375000Y-96062500D01*
G75*
G02*
X182437500Y-96000000I62500J0D01*
G01*
X182562500Y-96000000D01*
G75*
G02*
X182625000Y-96062500I0J-62500D01*
G01*
X182625000Y-96812500D01*
G75*
G02*
X182562500Y-96875000I-62500J0D01*
G01*
G37*
G36*
G01*
X183062500Y-96875000D02*
X182937500Y-96875000D01*
G75*
G02*
X182875000Y-96812500I0J62500D01*
G01*
X182875000Y-96062500D01*
G75*
G02*
X182937500Y-96000000I62500J0D01*
G01*
X183062500Y-96000000D01*
G75*
G02*
X183125000Y-96062500I0J-62500D01*
G01*
X183125000Y-96812500D01*
G75*
G02*
X183062500Y-96875000I-62500J0D01*
G01*
G37*
G36*
X183375865Y-96156221D02*
G01*
X183378425Y-96147779D01*
X183382584Y-96139999D01*
X183388180Y-96133180D01*
X183394999Y-96127584D01*
X183402779Y-96123425D01*
X183411221Y-96120865D01*
X183420000Y-96120000D01*
X183446360Y-96120000D01*
X183455139Y-96120865D01*
X183463581Y-96123425D01*
X183471361Y-96127584D01*
X183478180Y-96133180D01*
X183611820Y-96266820D01*
X183617416Y-96273639D01*
X183621575Y-96281419D01*
X183624135Y-96289861D01*
X183625000Y-96298640D01*
X183625000Y-96830000D01*
X183624135Y-96838779D01*
X183621575Y-96847221D01*
X183617416Y-96855001D01*
X183611820Y-96861820D01*
X183605001Y-96867416D01*
X183597221Y-96871575D01*
X183588779Y-96874135D01*
X183580000Y-96875000D01*
X183420000Y-96875000D01*
X183411221Y-96874135D01*
X183402779Y-96871575D01*
X183394999Y-96867416D01*
X183388180Y-96861820D01*
X183382584Y-96855001D01*
X183378425Y-96847221D01*
X183375865Y-96838779D01*
X183375000Y-96830000D01*
X183375000Y-96165000D01*
X183375865Y-96156221D01*
G37*
G36*
X183620865Y-95911221D02*
G01*
X183623425Y-95902779D01*
X183627584Y-95894999D01*
X183633180Y-95888180D01*
X183639999Y-95882584D01*
X183647779Y-95878425D01*
X183656221Y-95875865D01*
X183665000Y-95875000D01*
X184330000Y-95875000D01*
X184338779Y-95875865D01*
X184347221Y-95878425D01*
X184355001Y-95882584D01*
X184361820Y-95888180D01*
X184367416Y-95894999D01*
X184371575Y-95902779D01*
X184374135Y-95911221D01*
X184375000Y-95920000D01*
X184375000Y-96080000D01*
X184374135Y-96088779D01*
X184371575Y-96097221D01*
X184367416Y-96105001D01*
X184361820Y-96111820D01*
X184355001Y-96117416D01*
X184347221Y-96121575D01*
X184338779Y-96124135D01*
X184330000Y-96125000D01*
X183798640Y-96125000D01*
X183789861Y-96124135D01*
X183781419Y-96121575D01*
X183773639Y-96117416D01*
X183766820Y-96111820D01*
X183633180Y-95978180D01*
X183627584Y-95971361D01*
X183623425Y-95963581D01*
X183620865Y-95955139D01*
X183620000Y-95946360D01*
X183620000Y-95920000D01*
X183620865Y-95911221D01*
G37*
G36*
G01*
X184312500Y-95625000D02*
X183562500Y-95625000D01*
G75*
G02*
X183500000Y-95562500I0J62500D01*
G01*
X183500000Y-95437500D01*
G75*
G02*
X183562500Y-95375000I62500J0D01*
G01*
X184312500Y-95375000D01*
G75*
G02*
X184375000Y-95437500I0J-62500D01*
G01*
X184375000Y-95562500D01*
G75*
G02*
X184312500Y-95625000I-62500J0D01*
G01*
G37*
G36*
G01*
X184312500Y-95125000D02*
X183562500Y-95125000D01*
G75*
G02*
X183500000Y-95062500I0J62500D01*
G01*
X183500000Y-94937500D01*
G75*
G02*
X183562500Y-94875000I62500J0D01*
G01*
X184312500Y-94875000D01*
G75*
G02*
X184375000Y-94937500I0J-62500D01*
G01*
X184375000Y-95062500D01*
G75*
G02*
X184312500Y-95125000I-62500J0D01*
G01*
G37*
G36*
G01*
X184312500Y-94625000D02*
X183562500Y-94625000D01*
G75*
G02*
X183500000Y-94562500I0J62500D01*
G01*
X183500000Y-94437500D01*
G75*
G02*
X183562500Y-94375000I62500J0D01*
G01*
X184312500Y-94375000D01*
G75*
G02*
X184375000Y-94437500I0J-62500D01*
G01*
X184375000Y-94562500D01*
G75*
G02*
X184312500Y-94625000I-62500J0D01*
G01*
G37*
G36*
G01*
X184312500Y-94125000D02*
X183562500Y-94125000D01*
G75*
G02*
X183500000Y-94062500I0J62500D01*
G01*
X183500000Y-93937500D01*
G75*
G02*
X183562500Y-93875000I62500J0D01*
G01*
X184312500Y-93875000D01*
G75*
G02*
X184375000Y-93937500I0J-62500D01*
G01*
X184375000Y-94062500D01*
G75*
G02*
X184312500Y-94125000I-62500J0D01*
G01*
G37*
G36*
G01*
X184312500Y-93625000D02*
X183562500Y-93625000D01*
G75*
G02*
X183500000Y-93562500I0J62500D01*
G01*
X183500000Y-93437500D01*
G75*
G02*
X183562500Y-93375000I62500J0D01*
G01*
X184312500Y-93375000D01*
G75*
G02*
X184375000Y-93437500I0J-62500D01*
G01*
X184375000Y-93562500D01*
G75*
G02*
X184312500Y-93625000I-62500J0D01*
G01*
G37*
G36*
X183620865Y-93044861D02*
G01*
X183623425Y-93036419D01*
X183627584Y-93028639D01*
X183633180Y-93021820D01*
X183766820Y-92888180D01*
X183773639Y-92882584D01*
X183781419Y-92878425D01*
X183789861Y-92875865D01*
X183798640Y-92875000D01*
X184330000Y-92875000D01*
X184338779Y-92875865D01*
X184347221Y-92878425D01*
X184355001Y-92882584D01*
X184361820Y-92888180D01*
X184367416Y-92894999D01*
X184371575Y-92902779D01*
X184374135Y-92911221D01*
X184375000Y-92920000D01*
X184375000Y-93080000D01*
X184374135Y-93088779D01*
X184371575Y-93097221D01*
X184367416Y-93105001D01*
X184361820Y-93111820D01*
X184355001Y-93117416D01*
X184347221Y-93121575D01*
X184338779Y-93124135D01*
X184330000Y-93125000D01*
X183665000Y-93125000D01*
X183656221Y-93124135D01*
X183647779Y-93121575D01*
X183639999Y-93117416D01*
X183633180Y-93111820D01*
X183627584Y-93105001D01*
X183623425Y-93097221D01*
X183620865Y-93088779D01*
X183620000Y-93080000D01*
X183620000Y-93053640D01*
X183620865Y-93044861D01*
G37*
G36*
X183375865Y-92161221D02*
G01*
X183378425Y-92152779D01*
X183382584Y-92144999D01*
X183388180Y-92138180D01*
X183394999Y-92132584D01*
X183402779Y-92128425D01*
X183411221Y-92125865D01*
X183420000Y-92125000D01*
X183580000Y-92125000D01*
X183588779Y-92125865D01*
X183597221Y-92128425D01*
X183605001Y-92132584D01*
X183611820Y-92138180D01*
X183617416Y-92144999D01*
X183621575Y-92152779D01*
X183624135Y-92161221D01*
X183625000Y-92170000D01*
X183625000Y-92701360D01*
X183624135Y-92710139D01*
X183621575Y-92718581D01*
X183617416Y-92726361D01*
X183611820Y-92733180D01*
X183478180Y-92866820D01*
X183471361Y-92872416D01*
X183463581Y-92876575D01*
X183455139Y-92879135D01*
X183446360Y-92880000D01*
X183420000Y-92880000D01*
X183411221Y-92879135D01*
X183402779Y-92876575D01*
X183394999Y-92872416D01*
X183388180Y-92866820D01*
X183382584Y-92860001D01*
X183378425Y-92852221D01*
X183375865Y-92843779D01*
X183375000Y-92835000D01*
X183375000Y-92170000D01*
X183375865Y-92161221D01*
G37*
G36*
G01*
X183062500Y-93000000D02*
X182937500Y-93000000D01*
G75*
G02*
X182875000Y-92937500I0J62500D01*
G01*
X182875000Y-92187500D01*
G75*
G02*
X182937500Y-92125000I62500J0D01*
G01*
X183062500Y-92125000D01*
G75*
G02*
X183125000Y-92187500I0J-62500D01*
G01*
X183125000Y-92937500D01*
G75*
G02*
X183062500Y-93000000I-62500J0D01*
G01*
G37*
G36*
G01*
X182562500Y-93000000D02*
X182437500Y-93000000D01*
G75*
G02*
X182375000Y-92937500I0J62500D01*
G01*
X182375000Y-92187500D01*
G75*
G02*
X182437500Y-92125000I62500J0D01*
G01*
X182562500Y-92125000D01*
G75*
G02*
X182625000Y-92187500I0J-62500D01*
G01*
X182625000Y-92937500D01*
G75*
G02*
X182562500Y-93000000I-62500J0D01*
G01*
G37*
G36*
G01*
X182062500Y-93000000D02*
X181937500Y-93000000D01*
G75*
G02*
X181875000Y-92937500I0J62500D01*
G01*
X181875000Y-92187500D01*
G75*
G02*
X181937500Y-92125000I62500J0D01*
G01*
X182062500Y-92125000D01*
G75*
G02*
X182125000Y-92187500I0J-62500D01*
G01*
X182125000Y-92937500D01*
G75*
G02*
X182062500Y-93000000I-62500J0D01*
G01*
G37*
G36*
G01*
X181562500Y-93000000D02*
X181437500Y-93000000D01*
G75*
G02*
X181375000Y-92937500I0J62500D01*
G01*
X181375000Y-92187500D01*
G75*
G02*
X181437500Y-92125000I62500J0D01*
G01*
X181562500Y-92125000D01*
G75*
G02*
X181625000Y-92187500I0J-62500D01*
G01*
X181625000Y-92937500D01*
G75*
G02*
X181562500Y-93000000I-62500J0D01*
G01*
G37*
G36*
G01*
X181062500Y-93000000D02*
X180937500Y-93000000D01*
G75*
G02*
X180875000Y-92937500I0J62500D01*
G01*
X180875000Y-92187500D01*
G75*
G02*
X180937500Y-92125000I62500J0D01*
G01*
X181062500Y-92125000D01*
G75*
G02*
X181125000Y-92187500I0J-62500D01*
G01*
X181125000Y-92937500D01*
G75*
G02*
X181062500Y-93000000I-62500J0D01*
G01*
G37*
G36*
X180375865Y-92161221D02*
G01*
X180378425Y-92152779D01*
X180382584Y-92144999D01*
X180388180Y-92138180D01*
X180394999Y-92132584D01*
X180402779Y-92128425D01*
X180411221Y-92125865D01*
X180420000Y-92125000D01*
X180580000Y-92125000D01*
X180588779Y-92125865D01*
X180597221Y-92128425D01*
X180605001Y-92132584D01*
X180611820Y-92138180D01*
X180617416Y-92144999D01*
X180621575Y-92152779D01*
X180624135Y-92161221D01*
X180625000Y-92170000D01*
X180625000Y-92835000D01*
X180624135Y-92843779D01*
X180621575Y-92852221D01*
X180617416Y-92860001D01*
X180611820Y-92866820D01*
X180605001Y-92872416D01*
X180597221Y-92876575D01*
X180588779Y-92879135D01*
X180580000Y-92880000D01*
X180553640Y-92880000D01*
X180544861Y-92879135D01*
X180536419Y-92876575D01*
X180528639Y-92872416D01*
X180521820Y-92866820D01*
X180388180Y-92733180D01*
X180382584Y-92726361D01*
X180378425Y-92718581D01*
X180375865Y-92710139D01*
X180375000Y-92701360D01*
X180375000Y-92170000D01*
X180375865Y-92161221D01*
G37*
G36*
X179625865Y-92911221D02*
G01*
X179628425Y-92902779D01*
X179632584Y-92894999D01*
X179638180Y-92888180D01*
X179644999Y-92882584D01*
X179652779Y-92878425D01*
X179661221Y-92875865D01*
X179670000Y-92875000D01*
X180201360Y-92875000D01*
X180210139Y-92875865D01*
X180218581Y-92878425D01*
X180226361Y-92882584D01*
X180233180Y-92888180D01*
X180366820Y-93021820D01*
X180372416Y-93028639D01*
X180376575Y-93036419D01*
X180379135Y-93044861D01*
X180380000Y-93053640D01*
X180380000Y-93080000D01*
X180379135Y-93088779D01*
X180376575Y-93097221D01*
X180372416Y-93105001D01*
X180366820Y-93111820D01*
X180360001Y-93117416D01*
X180352221Y-93121575D01*
X180343779Y-93124135D01*
X180335000Y-93125000D01*
X179670000Y-93125000D01*
X179661221Y-93124135D01*
X179652779Y-93121575D01*
X179644999Y-93117416D01*
X179638180Y-93111820D01*
X179632584Y-93105001D01*
X179628425Y-93097221D01*
X179625865Y-93088779D01*
X179625000Y-93080000D01*
X179625000Y-92920000D01*
X179625865Y-92911221D01*
G37*
G36*
G01*
X180437500Y-93625000D02*
X179687500Y-93625000D01*
G75*
G02*
X179625000Y-93562500I0J62500D01*
G01*
X179625000Y-93437500D01*
G75*
G02*
X179687500Y-93375000I62500J0D01*
G01*
X180437500Y-93375000D01*
G75*
G02*
X180500000Y-93437500I0J-62500D01*
G01*
X180500000Y-93562500D01*
G75*
G02*
X180437500Y-93625000I-62500J0D01*
G01*
G37*
G36*
G01*
X180437500Y-94125000D02*
X179687500Y-94125000D01*
G75*
G02*
X179625000Y-94062500I0J62500D01*
G01*
X179625000Y-93937500D01*
G75*
G02*
X179687500Y-93875000I62500J0D01*
G01*
X180437500Y-93875000D01*
G75*
G02*
X180500000Y-93937500I0J-62500D01*
G01*
X180500000Y-94062500D01*
G75*
G02*
X180437500Y-94125000I-62500J0D01*
G01*
G37*
G36*
G01*
X180437500Y-94625000D02*
X179687500Y-94625000D01*
G75*
G02*
X179625000Y-94562500I0J62500D01*
G01*
X179625000Y-94437500D01*
G75*
G02*
X179687500Y-94375000I62500J0D01*
G01*
X180437500Y-94375000D01*
G75*
G02*
X180500000Y-94437500I0J-62500D01*
G01*
X180500000Y-94562500D01*
G75*
G02*
X180437500Y-94625000I-62500J0D01*
G01*
G37*
G36*
G01*
X180437500Y-95125000D02*
X179687500Y-95125000D01*
G75*
G02*
X179625000Y-95062500I0J62500D01*
G01*
X179625000Y-94937500D01*
G75*
G02*
X179687500Y-94875000I62500J0D01*
G01*
X180437500Y-94875000D01*
G75*
G02*
X180500000Y-94937500I0J-62500D01*
G01*
X180500000Y-95062500D01*
G75*
G02*
X180437500Y-95125000I-62500J0D01*
G01*
G37*
G36*
G01*
X180437500Y-95625000D02*
X179687500Y-95625000D01*
G75*
G02*
X179625000Y-95562500I0J62500D01*
G01*
X179625000Y-95437500D01*
G75*
G02*
X179687500Y-95375000I62500J0D01*
G01*
X180437500Y-95375000D01*
G75*
G02*
X180500000Y-95437500I0J-62500D01*
G01*
X180500000Y-95562500D01*
G75*
G02*
X180437500Y-95625000I-62500J0D01*
G01*
G37*
G36*
X179625865Y-95911221D02*
G01*
X179628425Y-95902779D01*
X179632584Y-95894999D01*
X179638180Y-95888180D01*
X179644999Y-95882584D01*
X179652779Y-95878425D01*
X179661221Y-95875865D01*
X179670000Y-95875000D01*
X180335000Y-95875000D01*
X180343779Y-95875865D01*
X180352221Y-95878425D01*
X180360001Y-95882584D01*
X180366820Y-95888180D01*
X180372416Y-95894999D01*
X180376575Y-95902779D01*
X180379135Y-95911221D01*
X180380000Y-95920000D01*
X180380000Y-95946360D01*
X180379135Y-95955139D01*
X180376575Y-95963581D01*
X180372416Y-95971361D01*
X180366820Y-95978180D01*
X180233180Y-96111820D01*
X180226361Y-96117416D01*
X180218581Y-96121575D01*
X180210139Y-96124135D01*
X180201360Y-96125000D01*
X179670000Y-96125000D01*
X179661221Y-96124135D01*
X179652779Y-96121575D01*
X179644999Y-96117416D01*
X179638180Y-96111820D01*
X179632584Y-96105001D01*
X179628425Y-96097221D01*
X179625865Y-96088779D01*
X179625000Y-96080000D01*
X179625000Y-95920000D01*
X179625865Y-95911221D01*
G37*
%TD*%
%TO.C,C1*%
G36*
G01*
X179200000Y-89850000D02*
X179200000Y-90350000D01*
G75*
G02*
X178975000Y-90575000I-225000J0D01*
G01*
X178525000Y-90575000D01*
G75*
G02*
X178300000Y-90350000I0J225000D01*
G01*
X178300000Y-89850000D01*
G75*
G02*
X178525000Y-89625000I225000J0D01*
G01*
X178975000Y-89625000D01*
G75*
G02*
X179200000Y-89850000I0J-225000D01*
G01*
G37*
G36*
G01*
X180750000Y-89850000D02*
X180750000Y-90350000D01*
G75*
G02*
X180525000Y-90575000I-225000J0D01*
G01*
X180075000Y-90575000D01*
G75*
G02*
X179850000Y-90350000I0J225000D01*
G01*
X179850000Y-89850000D01*
G75*
G02*
X180075000Y-89625000I225000J0D01*
G01*
X180525000Y-89625000D01*
G75*
G02*
X180750000Y-89850000I0J-225000D01*
G01*
G37*
%TD*%
%TO.C,C2*%
G36*
G01*
X165350000Y-104950000D02*
X164850000Y-104950000D01*
G75*
G02*
X164625000Y-104725000I0J225000D01*
G01*
X164625000Y-104275000D01*
G75*
G02*
X164850000Y-104050000I225000J0D01*
G01*
X165350000Y-104050000D01*
G75*
G02*
X165575000Y-104275000I0J-225000D01*
G01*
X165575000Y-104725000D01*
G75*
G02*
X165350000Y-104950000I-225000J0D01*
G01*
G37*
G36*
G01*
X165350000Y-103400000D02*
X164850000Y-103400000D01*
G75*
G02*
X164625000Y-103175000I0J225000D01*
G01*
X164625000Y-102725000D01*
G75*
G02*
X164850000Y-102500000I225000J0D01*
G01*
X165350000Y-102500000D01*
G75*
G02*
X165575000Y-102725000I0J-225000D01*
G01*
X165575000Y-103175000D01*
G75*
G02*
X165350000Y-103400000I-225000J0D01*
G01*
G37*
%TD*%
M02*
