%TF.GenerationSoftware,KiCad,Pcbnew,(5.1.8)-1*%
%TF.CreationDate,2021-07-18T18:57:16+02:00*%
%TF.ProjectId,PX12_Board,50583132-5f42-46f6-9172-642e6b696361,V1.0*%
%TF.SameCoordinates,Original*%
%TF.FileFunction,Copper,L1,Top*%
%TF.FilePolarity,Positive*%
%FSLAX46Y46*%
G04 Gerber Fmt 4.6, Leading zero omitted, Abs format (unit mm)*
G04 Created by KiCad (PCBNEW (5.1.8)-1) date 2021-07-18 18:57:16*
%MOMM*%
%LPD*%
G01*
G04 APERTURE LIST*
%TA.AperFunction,ComponentPad*%
%ADD10O,1.300000X0.800000*%
%TD*%
%TA.AperFunction,SMDPad,CuDef*%
%ADD11R,0.650000X1.060000*%
%TD*%
%TA.AperFunction,ComponentPad*%
%ADD12O,1.700000X1.850000*%
%TD*%
%TA.AperFunction,SMDPad,CuDef*%
%ADD13R,0.900000X0.800000*%
%TD*%
%TA.AperFunction,SMDPad,CuDef*%
%ADD14R,1.060000X0.650000*%
%TD*%
%TA.AperFunction,SMDPad,CuDef*%
%ADD15C,0.100000*%
%TD*%
%TA.AperFunction,ComponentPad*%
%ADD16R,1.600000X1.600000*%
%TD*%
%TA.AperFunction,ComponentPad*%
%ADD17C,1.600000*%
%TD*%
%TA.AperFunction,ComponentPad*%
%ADD18C,3.800000*%
%TD*%
%TA.AperFunction,SMDPad,CuDef*%
%ADD19R,0.450000X0.600000*%
%TD*%
%TA.AperFunction,ComponentPad*%
%ADD20O,0.800000X1.300000*%
%TD*%
%TA.AperFunction,ViaPad*%
%ADD21C,0.600000*%
%TD*%
%TA.AperFunction,Conductor*%
%ADD22C,0.500000*%
%TD*%
%TA.AperFunction,Conductor*%
%ADD23C,0.200000*%
%TD*%
%TA.AperFunction,Conductor*%
%ADD24C,0.600000*%
%TD*%
%TA.AperFunction,Conductor*%
%ADD25C,1.000000*%
%TD*%
%TA.AperFunction,Conductor*%
%ADD26C,0.750000*%
%TD*%
%TA.AperFunction,Conductor*%
%ADD27C,0.254000*%
%TD*%
%TA.AperFunction,Conductor*%
%ADD28C,0.100000*%
%TD*%
G04 APERTURE END LIST*
%TO.P,VALVE1,1*%
%TO.N,VCC*%
%TA.AperFunction,ComponentPad*%
G36*
G01*
X180250000Y-105500000D02*
X181150000Y-105500000D01*
G75*
G02*
X181350000Y-105700000I0J-200000D01*
G01*
X181350000Y-106100000D01*
G75*
G02*
X181150000Y-106300000I-200000J0D01*
G01*
X180250000Y-106300000D01*
G75*
G02*
X180050000Y-106100000I0J200000D01*
G01*
X180050000Y-105700000D01*
G75*
G02*
X180250000Y-105500000I200000J0D01*
G01*
G37*
%TD.AperFunction*%
D10*
%TO.P,VALVE1,2*%
%TO.N,/VALVE_GND*%
X180700000Y-107150000D03*
%TD*%
D11*
%TO.P,U1,5*%
%TO.N,+3V3*%
X165450000Y-94800000D03*
%TO.P,U1,4*%
%TO.N,N/C*%
X167350000Y-94800000D03*
%TO.P,U1,3*%
%TO.N,VCC*%
X167350000Y-97000000D03*
%TO.P,U1,2*%
%TO.N,GND*%
X166400000Y-97000000D03*
%TO.P,U1,1*%
%TO.N,VCC*%
X165450000Y-97000000D03*
%TD*%
D12*
%TO.P,AX12_2,3*%
%TO.N,GND*%
X171750000Y-100500000D03*
%TO.P,AX12_2,2*%
%TO.N,VCC*%
X174250000Y-100500000D03*
%TO.P,AX12_2,1*%
%TO.N,SERIAL*%
%TA.AperFunction,ComponentPad*%
G36*
G01*
X177600000Y-99825000D02*
X177600000Y-101175000D01*
G75*
G02*
X177350000Y-101425000I-250000J0D01*
G01*
X176150000Y-101425000D01*
G75*
G02*
X175900000Y-101175000I0J250000D01*
G01*
X175900000Y-99825000D01*
G75*
G02*
X176150000Y-99575000I250000J0D01*
G01*
X177350000Y-99575000D01*
G75*
G02*
X177600000Y-99825000I0J-250000D01*
G01*
G37*
%TD.AperFunction*%
%TD*%
%TO.P,D3,1*%
%TO.N,Net-(D3-Pad1)*%
%TA.AperFunction,SMDPad,CuDef*%
G36*
G01*
X166075000Y-93356250D02*
X166075000Y-92843750D01*
G75*
G02*
X166293750Y-92625000I218750J0D01*
G01*
X166731250Y-92625000D01*
G75*
G02*
X166950000Y-92843750I0J-218750D01*
G01*
X166950000Y-93356250D01*
G75*
G02*
X166731250Y-93575000I-218750J0D01*
G01*
X166293750Y-93575000D01*
G75*
G02*
X166075000Y-93356250I0J218750D01*
G01*
G37*
%TD.AperFunction*%
%TO.P,D3,2*%
%TO.N,Net-(D3-Pad2)*%
%TA.AperFunction,SMDPad,CuDef*%
G36*
G01*
X167650000Y-93356250D02*
X167650000Y-92843750D01*
G75*
G02*
X167868750Y-92625000I218750J0D01*
G01*
X168306250Y-92625000D01*
G75*
G02*
X168525000Y-92843750I0J-218750D01*
G01*
X168525000Y-93356250D01*
G75*
G02*
X168306250Y-93575000I-218750J0D01*
G01*
X167868750Y-93575000D01*
G75*
G02*
X167650000Y-93356250I0J218750D01*
G01*
G37*
%TD.AperFunction*%
%TD*%
%TO.P,AX12_1,1*%
%TO.N,SERIAL*%
%TA.AperFunction,ComponentPad*%
G36*
G01*
X177600000Y-94325000D02*
X177600000Y-95675000D01*
G75*
G02*
X177350000Y-95925000I-250000J0D01*
G01*
X176150000Y-95925000D01*
G75*
G02*
X175900000Y-95675000I0J250000D01*
G01*
X175900000Y-94325000D01*
G75*
G02*
X176150000Y-94075000I250000J0D01*
G01*
X177350000Y-94075000D01*
G75*
G02*
X177600000Y-94325000I0J-250000D01*
G01*
G37*
%TD.AperFunction*%
%TO.P,AX12_1,2*%
%TO.N,VCC*%
X174250000Y-95000000D03*
%TO.P,AX12_1,3*%
%TO.N,GND*%
X171750000Y-95000000D03*
%TD*%
D13*
%TO.P,Q1,3*%
%TO.N,/PUMP_GND*%
X182000000Y-102200000D03*
%TO.P,Q1,2*%
%TO.N,GND*%
X180000000Y-103150000D03*
%TO.P,Q1,1*%
%TO.N,Pump*%
X180000000Y-101250000D03*
%TD*%
%TO.P,Q2,1*%
%TO.N,Valve*%
X177300000Y-108550000D03*
%TO.P,Q2,2*%
%TO.N,GND*%
X177300000Y-110450000D03*
%TO.P,Q2,3*%
%TO.N,/VALVE_GND*%
X179300000Y-109500000D03*
%TD*%
%TO.P,R2,1*%
%TO.N,VCC*%
%TA.AperFunction,SMDPad,CuDef*%
G36*
G01*
X170532644Y-109182788D02*
X169729156Y-110140348D01*
G75*
G02*
X169376952Y-110171162I-191509J160695D01*
G01*
X168898170Y-109769416D01*
G75*
G02*
X168867356Y-109417212I160695J191509D01*
G01*
X169670844Y-108459652D01*
G75*
G02*
X170023048Y-108428838I191509J-160695D01*
G01*
X170501830Y-108830584D01*
G75*
G02*
X170532644Y-109182788I-160695J-191509D01*
G01*
G37*
%TD.AperFunction*%
%TO.P,R2,2*%
%TO.N,/P-*%
%TA.AperFunction,SMDPad,CuDef*%
G36*
G01*
X168291964Y-107302634D02*
X167488476Y-108260194D01*
G75*
G02*
X167136272Y-108291008I-191509J160695D01*
G01*
X166657490Y-107889262D01*
G75*
G02*
X166626676Y-107537058I160695J191509D01*
G01*
X167430164Y-106579498D01*
G75*
G02*
X167782368Y-106548684I191509J-160695D01*
G01*
X168261150Y-106950430D01*
G75*
G02*
X168291964Y-107302634I-160695J-191509D01*
G01*
G37*
%TD.AperFunction*%
%TD*%
D14*
%TO.P,U2,1*%
%TO.N,Va*%
X167800000Y-104850000D03*
%TO.P,U2,2*%
%TO.N,GND*%
X167800000Y-103900000D03*
%TO.P,U2,3*%
%TO.N,VCC*%
X167800000Y-102950000D03*
%TO.P,U2,4*%
%TO.N,/P-*%
X165600000Y-102950000D03*
%TO.P,U2,5*%
%TO.N,+3V3*%
X165600000Y-104850000D03*
%TD*%
%TA.AperFunction,SMDPad,CuDef*%
D15*
%TO.P,U3,1*%
%TO.N,N/C*%
G36*
X180625865Y-97039861D02*
G01*
X180628425Y-97031419D01*
X180632584Y-97023639D01*
X180638180Y-97016820D01*
X180771820Y-96883180D01*
X180778639Y-96877584D01*
X180786419Y-96873425D01*
X180794861Y-96870865D01*
X180803640Y-96870000D01*
X180830000Y-96870000D01*
X180838779Y-96870865D01*
X180847221Y-96873425D01*
X180855001Y-96877584D01*
X180861820Y-96883180D01*
X180867416Y-96889999D01*
X180871575Y-96897779D01*
X180874135Y-96906221D01*
X180875000Y-96915000D01*
X180875000Y-97580000D01*
X180874135Y-97588779D01*
X180871575Y-97597221D01*
X180867416Y-97605001D01*
X180861820Y-97611820D01*
X180855001Y-97617416D01*
X180847221Y-97621575D01*
X180838779Y-97624135D01*
X180830000Y-97625000D01*
X180670000Y-97625000D01*
X180661221Y-97624135D01*
X180652779Y-97621575D01*
X180644999Y-97617416D01*
X180638180Y-97611820D01*
X180632584Y-97605001D01*
X180628425Y-97597221D01*
X180625865Y-97588779D01*
X180625000Y-97580000D01*
X180625000Y-97048640D01*
X180625865Y-97039861D01*
G37*
%TD.AperFunction*%
%TO.P,U3,2*%
%TA.AperFunction,SMDPad,CuDef*%
G36*
G01*
X181312500Y-97625000D02*
X181187500Y-97625000D01*
G75*
G02*
X181125000Y-97562500I0J62500D01*
G01*
X181125000Y-96812500D01*
G75*
G02*
X181187500Y-96750000I62500J0D01*
G01*
X181312500Y-96750000D01*
G75*
G02*
X181375000Y-96812500I0J-62500D01*
G01*
X181375000Y-97562500D01*
G75*
G02*
X181312500Y-97625000I-62500J0D01*
G01*
G37*
%TD.AperFunction*%
%TO.P,U3,3*%
%TA.AperFunction,SMDPad,CuDef*%
G36*
G01*
X181812500Y-97625000D02*
X181687500Y-97625000D01*
G75*
G02*
X181625000Y-97562500I0J62500D01*
G01*
X181625000Y-96812500D01*
G75*
G02*
X181687500Y-96750000I62500J0D01*
G01*
X181812500Y-96750000D01*
G75*
G02*
X181875000Y-96812500I0J-62500D01*
G01*
X181875000Y-97562500D01*
G75*
G02*
X181812500Y-97625000I-62500J0D01*
G01*
G37*
%TD.AperFunction*%
%TO.P,U3,4*%
%TO.N,RST*%
%TA.AperFunction,SMDPad,CuDef*%
G36*
G01*
X182312500Y-97625000D02*
X182187500Y-97625000D01*
G75*
G02*
X182125000Y-97562500I0J62500D01*
G01*
X182125000Y-96812500D01*
G75*
G02*
X182187500Y-96750000I62500J0D01*
G01*
X182312500Y-96750000D01*
G75*
G02*
X182375000Y-96812500I0J-62500D01*
G01*
X182375000Y-97562500D01*
G75*
G02*
X182312500Y-97625000I-62500J0D01*
G01*
G37*
%TD.AperFunction*%
%TO.P,U3,5*%
%TO.N,+3V3*%
%TA.AperFunction,SMDPad,CuDef*%
G36*
G01*
X182812500Y-97625000D02*
X182687500Y-97625000D01*
G75*
G02*
X182625000Y-97562500I0J62500D01*
G01*
X182625000Y-96812500D01*
G75*
G02*
X182687500Y-96750000I62500J0D01*
G01*
X182812500Y-96750000D01*
G75*
G02*
X182875000Y-96812500I0J-62500D01*
G01*
X182875000Y-97562500D01*
G75*
G02*
X182812500Y-97625000I-62500J0D01*
G01*
G37*
%TD.AperFunction*%
%TO.P,U3,6*%
%TO.N,Pump*%
%TA.AperFunction,SMDPad,CuDef*%
G36*
G01*
X183312500Y-97625000D02*
X183187500Y-97625000D01*
G75*
G02*
X183125000Y-97562500I0J62500D01*
G01*
X183125000Y-96812500D01*
G75*
G02*
X183187500Y-96750000I62500J0D01*
G01*
X183312500Y-96750000D01*
G75*
G02*
X183375000Y-96812500I0J-62500D01*
G01*
X183375000Y-97562500D01*
G75*
G02*
X183312500Y-97625000I-62500J0D01*
G01*
G37*
%TD.AperFunction*%
%TA.AperFunction,SMDPad,CuDef*%
%TO.P,U3,7*%
%TO.N,Valve*%
G36*
X183625865Y-96906221D02*
G01*
X183628425Y-96897779D01*
X183632584Y-96889999D01*
X183638180Y-96883180D01*
X183644999Y-96877584D01*
X183652779Y-96873425D01*
X183661221Y-96870865D01*
X183670000Y-96870000D01*
X183696360Y-96870000D01*
X183705139Y-96870865D01*
X183713581Y-96873425D01*
X183721361Y-96877584D01*
X183728180Y-96883180D01*
X183861820Y-97016820D01*
X183867416Y-97023639D01*
X183871575Y-97031419D01*
X183874135Y-97039861D01*
X183875000Y-97048640D01*
X183875000Y-97580000D01*
X183874135Y-97588779D01*
X183871575Y-97597221D01*
X183867416Y-97605001D01*
X183861820Y-97611820D01*
X183855001Y-97617416D01*
X183847221Y-97621575D01*
X183838779Y-97624135D01*
X183830000Y-97625000D01*
X183670000Y-97625000D01*
X183661221Y-97624135D01*
X183652779Y-97621575D01*
X183644999Y-97617416D01*
X183638180Y-97611820D01*
X183632584Y-97605001D01*
X183628425Y-97597221D01*
X183625865Y-97588779D01*
X183625000Y-97580000D01*
X183625000Y-96915000D01*
X183625865Y-96906221D01*
G37*
%TD.AperFunction*%
%TA.AperFunction,SMDPad,CuDef*%
%TO.P,U3,8*%
%TO.N,Va*%
G36*
X183870865Y-96661221D02*
G01*
X183873425Y-96652779D01*
X183877584Y-96644999D01*
X183883180Y-96638180D01*
X183889999Y-96632584D01*
X183897779Y-96628425D01*
X183906221Y-96625865D01*
X183915000Y-96625000D01*
X184580000Y-96625000D01*
X184588779Y-96625865D01*
X184597221Y-96628425D01*
X184605001Y-96632584D01*
X184611820Y-96638180D01*
X184617416Y-96644999D01*
X184621575Y-96652779D01*
X184624135Y-96661221D01*
X184625000Y-96670000D01*
X184625000Y-96830000D01*
X184624135Y-96838779D01*
X184621575Y-96847221D01*
X184617416Y-96855001D01*
X184611820Y-96861820D01*
X184605001Y-96867416D01*
X184597221Y-96871575D01*
X184588779Y-96874135D01*
X184580000Y-96875000D01*
X184048640Y-96875000D01*
X184039861Y-96874135D01*
X184031419Y-96871575D01*
X184023639Y-96867416D01*
X184016820Y-96861820D01*
X183883180Y-96728180D01*
X183877584Y-96721361D01*
X183873425Y-96713581D01*
X183870865Y-96705139D01*
X183870000Y-96696360D01*
X183870000Y-96670000D01*
X183870865Y-96661221D01*
G37*
%TD.AperFunction*%
%TO.P,U3,9*%
%TO.N,N/C*%
%TA.AperFunction,SMDPad,CuDef*%
G36*
G01*
X184562500Y-96375000D02*
X183812500Y-96375000D01*
G75*
G02*
X183750000Y-96312500I0J62500D01*
G01*
X183750000Y-96187500D01*
G75*
G02*
X183812500Y-96125000I62500J0D01*
G01*
X184562500Y-96125000D01*
G75*
G02*
X184625000Y-96187500I0J-62500D01*
G01*
X184625000Y-96312500D01*
G75*
G02*
X184562500Y-96375000I-62500J0D01*
G01*
G37*
%TD.AperFunction*%
%TO.P,U3,10*%
%TA.AperFunction,SMDPad,CuDef*%
G36*
G01*
X184562500Y-95875000D02*
X183812500Y-95875000D01*
G75*
G02*
X183750000Y-95812500I0J62500D01*
G01*
X183750000Y-95687500D01*
G75*
G02*
X183812500Y-95625000I62500J0D01*
G01*
X184562500Y-95625000D01*
G75*
G02*
X184625000Y-95687500I0J-62500D01*
G01*
X184625000Y-95812500D01*
G75*
G02*
X184562500Y-95875000I-62500J0D01*
G01*
G37*
%TD.AperFunction*%
%TO.P,U3,11*%
%TA.AperFunction,SMDPad,CuDef*%
G36*
G01*
X184562500Y-95375000D02*
X183812500Y-95375000D01*
G75*
G02*
X183750000Y-95312500I0J62500D01*
G01*
X183750000Y-95187500D01*
G75*
G02*
X183812500Y-95125000I62500J0D01*
G01*
X184562500Y-95125000D01*
G75*
G02*
X184625000Y-95187500I0J-62500D01*
G01*
X184625000Y-95312500D01*
G75*
G02*
X184562500Y-95375000I-62500J0D01*
G01*
G37*
%TD.AperFunction*%
%TO.P,U3,12*%
%TA.AperFunction,SMDPad,CuDef*%
G36*
G01*
X184562500Y-94875000D02*
X183812500Y-94875000D01*
G75*
G02*
X183750000Y-94812500I0J62500D01*
G01*
X183750000Y-94687500D01*
G75*
G02*
X183812500Y-94625000I62500J0D01*
G01*
X184562500Y-94625000D01*
G75*
G02*
X184625000Y-94687500I0J-62500D01*
G01*
X184625000Y-94812500D01*
G75*
G02*
X184562500Y-94875000I-62500J0D01*
G01*
G37*
%TD.AperFunction*%
%TO.P,U3,13*%
%TA.AperFunction,SMDPad,CuDef*%
G36*
G01*
X184562500Y-94375000D02*
X183812500Y-94375000D01*
G75*
G02*
X183750000Y-94312500I0J62500D01*
G01*
X183750000Y-94187500D01*
G75*
G02*
X183812500Y-94125000I62500J0D01*
G01*
X184562500Y-94125000D01*
G75*
G02*
X184625000Y-94187500I0J-62500D01*
G01*
X184625000Y-94312500D01*
G75*
G02*
X184562500Y-94375000I-62500J0D01*
G01*
G37*
%TD.AperFunction*%
%TA.AperFunction,SMDPad,CuDef*%
%TO.P,U3,14*%
G36*
X183870865Y-93794861D02*
G01*
X183873425Y-93786419D01*
X183877584Y-93778639D01*
X183883180Y-93771820D01*
X184016820Y-93638180D01*
X184023639Y-93632584D01*
X184031419Y-93628425D01*
X184039861Y-93625865D01*
X184048640Y-93625000D01*
X184580000Y-93625000D01*
X184588779Y-93625865D01*
X184597221Y-93628425D01*
X184605001Y-93632584D01*
X184611820Y-93638180D01*
X184617416Y-93644999D01*
X184621575Y-93652779D01*
X184624135Y-93661221D01*
X184625000Y-93670000D01*
X184625000Y-93830000D01*
X184624135Y-93838779D01*
X184621575Y-93847221D01*
X184617416Y-93855001D01*
X184611820Y-93861820D01*
X184605001Y-93867416D01*
X184597221Y-93871575D01*
X184588779Y-93874135D01*
X184580000Y-93875000D01*
X183915000Y-93875000D01*
X183906221Y-93874135D01*
X183897779Y-93871575D01*
X183889999Y-93867416D01*
X183883180Y-93861820D01*
X183877584Y-93855001D01*
X183873425Y-93847221D01*
X183870865Y-93838779D01*
X183870000Y-93830000D01*
X183870000Y-93803640D01*
X183870865Y-93794861D01*
G37*
%TD.AperFunction*%
%TA.AperFunction,SMDPad,CuDef*%
%TO.P,U3,15*%
%TO.N,Net-(D3-Pad2)*%
G36*
X183625865Y-92911221D02*
G01*
X183628425Y-92902779D01*
X183632584Y-92894999D01*
X183638180Y-92888180D01*
X183644999Y-92882584D01*
X183652779Y-92878425D01*
X183661221Y-92875865D01*
X183670000Y-92875000D01*
X183830000Y-92875000D01*
X183838779Y-92875865D01*
X183847221Y-92878425D01*
X183855001Y-92882584D01*
X183861820Y-92888180D01*
X183867416Y-92894999D01*
X183871575Y-92902779D01*
X183874135Y-92911221D01*
X183875000Y-92920000D01*
X183875000Y-93451360D01*
X183874135Y-93460139D01*
X183871575Y-93468581D01*
X183867416Y-93476361D01*
X183861820Y-93483180D01*
X183728180Y-93616820D01*
X183721361Y-93622416D01*
X183713581Y-93626575D01*
X183705139Y-93629135D01*
X183696360Y-93630000D01*
X183670000Y-93630000D01*
X183661221Y-93629135D01*
X183652779Y-93626575D01*
X183644999Y-93622416D01*
X183638180Y-93616820D01*
X183632584Y-93610001D01*
X183628425Y-93602221D01*
X183625865Y-93593779D01*
X183625000Y-93585000D01*
X183625000Y-92920000D01*
X183625865Y-92911221D01*
G37*
%TD.AperFunction*%
%TO.P,U3,16*%
%TO.N,GND*%
%TA.AperFunction,SMDPad,CuDef*%
G36*
G01*
X183312500Y-93750000D02*
X183187500Y-93750000D01*
G75*
G02*
X183125000Y-93687500I0J62500D01*
G01*
X183125000Y-92937500D01*
G75*
G02*
X183187500Y-92875000I62500J0D01*
G01*
X183312500Y-92875000D01*
G75*
G02*
X183375000Y-92937500I0J-62500D01*
G01*
X183375000Y-93687500D01*
G75*
G02*
X183312500Y-93750000I-62500J0D01*
G01*
G37*
%TD.AperFunction*%
%TO.P,U3,17*%
%TO.N,+3V3*%
%TA.AperFunction,SMDPad,CuDef*%
G36*
G01*
X182812500Y-93750000D02*
X182687500Y-93750000D01*
G75*
G02*
X182625000Y-93687500I0J62500D01*
G01*
X182625000Y-92937500D01*
G75*
G02*
X182687500Y-92875000I62500J0D01*
G01*
X182812500Y-92875000D01*
G75*
G02*
X182875000Y-92937500I0J-62500D01*
G01*
X182875000Y-93687500D01*
G75*
G02*
X182812500Y-93750000I-62500J0D01*
G01*
G37*
%TD.AperFunction*%
%TO.P,U3,18*%
%TA.AperFunction,SMDPad,CuDef*%
G36*
G01*
X182312500Y-93750000D02*
X182187500Y-93750000D01*
G75*
G02*
X182125000Y-93687500I0J62500D01*
G01*
X182125000Y-92937500D01*
G75*
G02*
X182187500Y-92875000I62500J0D01*
G01*
X182312500Y-92875000D01*
G75*
G02*
X182375000Y-92937500I0J-62500D01*
G01*
X182375000Y-93687500D01*
G75*
G02*
X182312500Y-93750000I-62500J0D01*
G01*
G37*
%TD.AperFunction*%
%TO.P,U3,19*%
%TO.N,SERIAL*%
%TA.AperFunction,SMDPad,CuDef*%
G36*
G01*
X181812500Y-93750000D02*
X181687500Y-93750000D01*
G75*
G02*
X181625000Y-93687500I0J62500D01*
G01*
X181625000Y-92937500D01*
G75*
G02*
X181687500Y-92875000I62500J0D01*
G01*
X181812500Y-92875000D01*
G75*
G02*
X181875000Y-92937500I0J-62500D01*
G01*
X181875000Y-93687500D01*
G75*
G02*
X181812500Y-93750000I-62500J0D01*
G01*
G37*
%TD.AperFunction*%
%TO.P,U3,20*%
%TO.N,N/C*%
%TA.AperFunction,SMDPad,CuDef*%
G36*
G01*
X181312500Y-93750000D02*
X181187500Y-93750000D01*
G75*
G02*
X181125000Y-93687500I0J62500D01*
G01*
X181125000Y-92937500D01*
G75*
G02*
X181187500Y-92875000I62500J0D01*
G01*
X181312500Y-92875000D01*
G75*
G02*
X181375000Y-92937500I0J-62500D01*
G01*
X181375000Y-93687500D01*
G75*
G02*
X181312500Y-93750000I-62500J0D01*
G01*
G37*
%TD.AperFunction*%
%TA.AperFunction,SMDPad,CuDef*%
%TO.P,U3,21*%
%TO.N,SWDIO*%
G36*
X180625865Y-92911221D02*
G01*
X180628425Y-92902779D01*
X180632584Y-92894999D01*
X180638180Y-92888180D01*
X180644999Y-92882584D01*
X180652779Y-92878425D01*
X180661221Y-92875865D01*
X180670000Y-92875000D01*
X180830000Y-92875000D01*
X180838779Y-92875865D01*
X180847221Y-92878425D01*
X180855001Y-92882584D01*
X180861820Y-92888180D01*
X180867416Y-92894999D01*
X180871575Y-92902779D01*
X180874135Y-92911221D01*
X180875000Y-92920000D01*
X180875000Y-93585000D01*
X180874135Y-93593779D01*
X180871575Y-93602221D01*
X180867416Y-93610001D01*
X180861820Y-93616820D01*
X180855001Y-93622416D01*
X180847221Y-93626575D01*
X180838779Y-93629135D01*
X180830000Y-93630000D01*
X180803640Y-93630000D01*
X180794861Y-93629135D01*
X180786419Y-93626575D01*
X180778639Y-93622416D01*
X180771820Y-93616820D01*
X180638180Y-93483180D01*
X180632584Y-93476361D01*
X180628425Y-93468581D01*
X180625865Y-93460139D01*
X180625000Y-93451360D01*
X180625000Y-92920000D01*
X180625865Y-92911221D01*
G37*
%TD.AperFunction*%
%TA.AperFunction,SMDPad,CuDef*%
%TO.P,U3,22*%
%TO.N,SWCLK*%
G36*
X179875865Y-93661221D02*
G01*
X179878425Y-93652779D01*
X179882584Y-93644999D01*
X179888180Y-93638180D01*
X179894999Y-93632584D01*
X179902779Y-93628425D01*
X179911221Y-93625865D01*
X179920000Y-93625000D01*
X180451360Y-93625000D01*
X180460139Y-93625865D01*
X180468581Y-93628425D01*
X180476361Y-93632584D01*
X180483180Y-93638180D01*
X180616820Y-93771820D01*
X180622416Y-93778639D01*
X180626575Y-93786419D01*
X180629135Y-93794861D01*
X180630000Y-93803640D01*
X180630000Y-93830000D01*
X180629135Y-93838779D01*
X180626575Y-93847221D01*
X180622416Y-93855001D01*
X180616820Y-93861820D01*
X180610001Y-93867416D01*
X180602221Y-93871575D01*
X180593779Y-93874135D01*
X180585000Y-93875000D01*
X179920000Y-93875000D01*
X179911221Y-93874135D01*
X179902779Y-93871575D01*
X179894999Y-93867416D01*
X179888180Y-93861820D01*
X179882584Y-93855001D01*
X179878425Y-93847221D01*
X179875865Y-93838779D01*
X179875000Y-93830000D01*
X179875000Y-93670000D01*
X179875865Y-93661221D01*
G37*
%TD.AperFunction*%
%TO.P,U3,23*%
%TO.N,N/C*%
%TA.AperFunction,SMDPad,CuDef*%
G36*
G01*
X180687500Y-94375000D02*
X179937500Y-94375000D01*
G75*
G02*
X179875000Y-94312500I0J62500D01*
G01*
X179875000Y-94187500D01*
G75*
G02*
X179937500Y-94125000I62500J0D01*
G01*
X180687500Y-94125000D01*
G75*
G02*
X180750000Y-94187500I0J-62500D01*
G01*
X180750000Y-94312500D01*
G75*
G02*
X180687500Y-94375000I-62500J0D01*
G01*
G37*
%TD.AperFunction*%
%TO.P,U3,24*%
%TA.AperFunction,SMDPad,CuDef*%
G36*
G01*
X180687500Y-94875000D02*
X179937500Y-94875000D01*
G75*
G02*
X179875000Y-94812500I0J62500D01*
G01*
X179875000Y-94687500D01*
G75*
G02*
X179937500Y-94625000I62500J0D01*
G01*
X180687500Y-94625000D01*
G75*
G02*
X180750000Y-94687500I0J-62500D01*
G01*
X180750000Y-94812500D01*
G75*
G02*
X180687500Y-94875000I-62500J0D01*
G01*
G37*
%TD.AperFunction*%
%TO.P,U3,25*%
%TA.AperFunction,SMDPad,CuDef*%
G36*
G01*
X180687500Y-95375000D02*
X179937500Y-95375000D01*
G75*
G02*
X179875000Y-95312500I0J62500D01*
G01*
X179875000Y-95187500D01*
G75*
G02*
X179937500Y-95125000I62500J0D01*
G01*
X180687500Y-95125000D01*
G75*
G02*
X180750000Y-95187500I0J-62500D01*
G01*
X180750000Y-95312500D01*
G75*
G02*
X180687500Y-95375000I-62500J0D01*
G01*
G37*
%TD.AperFunction*%
%TO.P,U3,26*%
%TA.AperFunction,SMDPad,CuDef*%
G36*
G01*
X180687500Y-95875000D02*
X179937500Y-95875000D01*
G75*
G02*
X179875000Y-95812500I0J62500D01*
G01*
X179875000Y-95687500D01*
G75*
G02*
X179937500Y-95625000I62500J0D01*
G01*
X180687500Y-95625000D01*
G75*
G02*
X180750000Y-95687500I0J-62500D01*
G01*
X180750000Y-95812500D01*
G75*
G02*
X180687500Y-95875000I-62500J0D01*
G01*
G37*
%TD.AperFunction*%
%TO.P,U3,27*%
%TA.AperFunction,SMDPad,CuDef*%
G36*
G01*
X180687500Y-96375000D02*
X179937500Y-96375000D01*
G75*
G02*
X179875000Y-96312500I0J62500D01*
G01*
X179875000Y-96187500D01*
G75*
G02*
X179937500Y-96125000I62500J0D01*
G01*
X180687500Y-96125000D01*
G75*
G02*
X180750000Y-96187500I0J-62500D01*
G01*
X180750000Y-96312500D01*
G75*
G02*
X180687500Y-96375000I-62500J0D01*
G01*
G37*
%TD.AperFunction*%
%TA.AperFunction,SMDPad,CuDef*%
%TO.P,U3,28*%
G36*
X179875865Y-96661221D02*
G01*
X179878425Y-96652779D01*
X179882584Y-96644999D01*
X179888180Y-96638180D01*
X179894999Y-96632584D01*
X179902779Y-96628425D01*
X179911221Y-96625865D01*
X179920000Y-96625000D01*
X180585000Y-96625000D01*
X180593779Y-96625865D01*
X180602221Y-96628425D01*
X180610001Y-96632584D01*
X180616820Y-96638180D01*
X180622416Y-96644999D01*
X180626575Y-96652779D01*
X180629135Y-96661221D01*
X180630000Y-96670000D01*
X180630000Y-96696360D01*
X180629135Y-96705139D01*
X180626575Y-96713581D01*
X180622416Y-96721361D01*
X180616820Y-96728180D01*
X180483180Y-96861820D01*
X180476361Y-96867416D01*
X180468581Y-96871575D01*
X180460139Y-96874135D01*
X180451360Y-96875000D01*
X179920000Y-96875000D01*
X179911221Y-96874135D01*
X179902779Y-96871575D01*
X179894999Y-96867416D01*
X179888180Y-96861820D01*
X179882584Y-96855001D01*
X179878425Y-96847221D01*
X179875865Y-96838779D01*
X179875000Y-96830000D01*
X179875000Y-96670000D01*
X179875865Y-96661221D01*
G37*
%TD.AperFunction*%
%TD*%
D16*
%TO.P,C4,1*%
%TO.N,VCC*%
X173700000Y-108200000D03*
D17*
%TO.P,C4,2*%
%TO.N,GND*%
X173700000Y-110200000D03*
%TD*%
D18*
%TO.P,PGND,1*%
%TO.N,/PUMP_GND*%
X184000000Y-100000000D03*
%TD*%
%TO.P,PVCC,1*%
%TO.N,/P-*%
X166000000Y-100000000D03*
%TD*%
%TO.P,C1,2*%
%TO.N,GND*%
%TA.AperFunction,SMDPad,CuDef*%
G36*
G01*
X180380000Y-90830000D02*
X180380000Y-91170000D01*
G75*
G02*
X180240000Y-91310000I-140000J0D01*
G01*
X179960000Y-91310000D01*
G75*
G02*
X179820000Y-91170000I0J140000D01*
G01*
X179820000Y-90830000D01*
G75*
G02*
X179960000Y-90690000I140000J0D01*
G01*
X180240000Y-90690000D01*
G75*
G02*
X180380000Y-90830000I0J-140000D01*
G01*
G37*
%TD.AperFunction*%
%TO.P,C1,1*%
%TO.N,+3V3*%
%TA.AperFunction,SMDPad,CuDef*%
G36*
G01*
X181340000Y-90830000D02*
X181340000Y-91170000D01*
G75*
G02*
X181200000Y-91310000I-140000J0D01*
G01*
X180920000Y-91310000D01*
G75*
G02*
X180780000Y-91170000I0J140000D01*
G01*
X180780000Y-90830000D01*
G75*
G02*
X180920000Y-90690000I140000J0D01*
G01*
X181200000Y-90690000D01*
G75*
G02*
X181340000Y-90830000I0J-140000D01*
G01*
G37*
%TD.AperFunction*%
%TD*%
%TO.P,C2,1*%
%TO.N,+3V3*%
%TA.AperFunction,SMDPad,CuDef*%
G36*
G01*
X164570000Y-103760000D02*
X164230000Y-103760000D01*
G75*
G02*
X164090000Y-103620000I0J140000D01*
G01*
X164090000Y-103340000D01*
G75*
G02*
X164230000Y-103200000I140000J0D01*
G01*
X164570000Y-103200000D01*
G75*
G02*
X164710000Y-103340000I0J-140000D01*
G01*
X164710000Y-103620000D01*
G75*
G02*
X164570000Y-103760000I-140000J0D01*
G01*
G37*
%TD.AperFunction*%
%TO.P,C2,2*%
%TO.N,GND*%
%TA.AperFunction,SMDPad,CuDef*%
G36*
G01*
X164570000Y-102800000D02*
X164230000Y-102800000D01*
G75*
G02*
X164090000Y-102660000I0J140000D01*
G01*
X164090000Y-102380000D01*
G75*
G02*
X164230000Y-102240000I140000J0D01*
G01*
X164570000Y-102240000D01*
G75*
G02*
X164710000Y-102380000I0J-140000D01*
G01*
X164710000Y-102660000D01*
G75*
G02*
X164570000Y-102800000I-140000J0D01*
G01*
G37*
%TD.AperFunction*%
%TD*%
%TO.P,C3,2*%
%TO.N,GND*%
%TA.AperFunction,SMDPad,CuDef*%
G36*
G01*
X180380000Y-91830000D02*
X180380000Y-92170000D01*
G75*
G02*
X180240000Y-92310000I-140000J0D01*
G01*
X179960000Y-92310000D01*
G75*
G02*
X179820000Y-92170000I0J140000D01*
G01*
X179820000Y-91830000D01*
G75*
G02*
X179960000Y-91690000I140000J0D01*
G01*
X180240000Y-91690000D01*
G75*
G02*
X180380000Y-91830000I0J-140000D01*
G01*
G37*
%TD.AperFunction*%
%TO.P,C3,1*%
%TO.N,+3V3*%
%TA.AperFunction,SMDPad,CuDef*%
G36*
G01*
X181340000Y-91830000D02*
X181340000Y-92170000D01*
G75*
G02*
X181200000Y-92310000I-140000J0D01*
G01*
X180920000Y-92310000D01*
G75*
G02*
X180780000Y-92170000I0J140000D01*
G01*
X180780000Y-91830000D01*
G75*
G02*
X180920000Y-91690000I140000J0D01*
G01*
X181200000Y-91690000D01*
G75*
G02*
X181340000Y-91830000I0J-140000D01*
G01*
G37*
%TD.AperFunction*%
%TD*%
%TO.P,C5,1*%
%TO.N,VCC*%
%TA.AperFunction,SMDPad,CuDef*%
G36*
G01*
X168770000Y-97660000D02*
X168430000Y-97660000D01*
G75*
G02*
X168290000Y-97520000I0J140000D01*
G01*
X168290000Y-97240000D01*
G75*
G02*
X168430000Y-97100000I140000J0D01*
G01*
X168770000Y-97100000D01*
G75*
G02*
X168910000Y-97240000I0J-140000D01*
G01*
X168910000Y-97520000D01*
G75*
G02*
X168770000Y-97660000I-140000J0D01*
G01*
G37*
%TD.AperFunction*%
%TO.P,C5,2*%
%TO.N,GND*%
%TA.AperFunction,SMDPad,CuDef*%
G36*
G01*
X168770000Y-96700000D02*
X168430000Y-96700000D01*
G75*
G02*
X168290000Y-96560000I0J140000D01*
G01*
X168290000Y-96280000D01*
G75*
G02*
X168430000Y-96140000I140000J0D01*
G01*
X168770000Y-96140000D01*
G75*
G02*
X168910000Y-96280000I0J-140000D01*
G01*
X168910000Y-96560000D01*
G75*
G02*
X168770000Y-96700000I-140000J0D01*
G01*
G37*
%TD.AperFunction*%
%TD*%
%TO.P,C6,2*%
%TO.N,GND*%
%TA.AperFunction,SMDPad,CuDef*%
G36*
G01*
X163930000Y-97100000D02*
X164270000Y-97100000D01*
G75*
G02*
X164410000Y-97240000I0J-140000D01*
G01*
X164410000Y-97520000D01*
G75*
G02*
X164270000Y-97660000I-140000J0D01*
G01*
X163930000Y-97660000D01*
G75*
G02*
X163790000Y-97520000I0J140000D01*
G01*
X163790000Y-97240000D01*
G75*
G02*
X163930000Y-97100000I140000J0D01*
G01*
G37*
%TD.AperFunction*%
%TO.P,C6,1*%
%TO.N,+3V3*%
%TA.AperFunction,SMDPad,CuDef*%
G36*
G01*
X163930000Y-96140000D02*
X164270000Y-96140000D01*
G75*
G02*
X164410000Y-96280000I0J-140000D01*
G01*
X164410000Y-96560000D01*
G75*
G02*
X164270000Y-96700000I-140000J0D01*
G01*
X163930000Y-96700000D01*
G75*
G02*
X163790000Y-96560000I0J140000D01*
G01*
X163790000Y-96280000D01*
G75*
G02*
X163930000Y-96140000I140000J0D01*
G01*
G37*
%TD.AperFunction*%
%TD*%
%TO.P,C7,1*%
%TO.N,RST*%
%TA.AperFunction,SMDPad,CuDef*%
G36*
G01*
X181130000Y-98640000D02*
X181470000Y-98640000D01*
G75*
G02*
X181610000Y-98780000I0J-140000D01*
G01*
X181610000Y-99060000D01*
G75*
G02*
X181470000Y-99200000I-140000J0D01*
G01*
X181130000Y-99200000D01*
G75*
G02*
X180990000Y-99060000I0J140000D01*
G01*
X180990000Y-98780000D01*
G75*
G02*
X181130000Y-98640000I140000J0D01*
G01*
G37*
%TD.AperFunction*%
%TO.P,C7,2*%
%TO.N,GND*%
%TA.AperFunction,SMDPad,CuDef*%
G36*
G01*
X181130000Y-99600000D02*
X181470000Y-99600000D01*
G75*
G02*
X181610000Y-99740000I0J-140000D01*
G01*
X181610000Y-100020000D01*
G75*
G02*
X181470000Y-100160000I-140000J0D01*
G01*
X181130000Y-100160000D01*
G75*
G02*
X180990000Y-100020000I0J140000D01*
G01*
X180990000Y-99740000D01*
G75*
G02*
X181130000Y-99600000I140000J0D01*
G01*
G37*
%TD.AperFunction*%
%TD*%
%TA.AperFunction,SMDPad,CuDef*%
D15*
%TO.P,D1,1*%
%TO.N,/P-*%
G36*
X168821212Y-105904597D02*
G01*
X169110467Y-105559877D01*
X169570094Y-105945549D01*
X169280839Y-106290269D01*
X168821212Y-105904597D01*
G37*
%TD.AperFunction*%
%TA.AperFunction,SMDPad,CuDef*%
%TO.P,D1,2*%
%TO.N,/PUMP_GND*%
G36*
X170429906Y-107254451D02*
G01*
X170719161Y-106909731D01*
X171178788Y-107295403D01*
X170889533Y-107640123D01*
X170429906Y-107254451D01*
G37*
%TD.AperFunction*%
%TD*%
D19*
%TO.P,D2,2*%
%TO.N,/VALVE_GND*%
X184700000Y-105150000D03*
%TO.P,D2,1*%
%TO.N,VCC*%
X184700000Y-103050000D03*
%TD*%
%TO.P,R1,2*%
%TO.N,GND*%
%TA.AperFunction,SMDPad,CuDef*%
G36*
G01*
X178040000Y-104585000D02*
X178040000Y-104215000D01*
G75*
G02*
X178175000Y-104080000I135000J0D01*
G01*
X178445000Y-104080000D01*
G75*
G02*
X178580000Y-104215000I0J-135000D01*
G01*
X178580000Y-104585000D01*
G75*
G02*
X178445000Y-104720000I-135000J0D01*
G01*
X178175000Y-104720000D01*
G75*
G02*
X178040000Y-104585000I0J135000D01*
G01*
G37*
%TD.AperFunction*%
%TO.P,R1,1*%
%TO.N,Pump*%
%TA.AperFunction,SMDPad,CuDef*%
G36*
G01*
X177020000Y-104585000D02*
X177020000Y-104215000D01*
G75*
G02*
X177155000Y-104080000I135000J0D01*
G01*
X177425000Y-104080000D01*
G75*
G02*
X177560000Y-104215000I0J-135000D01*
G01*
X177560000Y-104585000D01*
G75*
G02*
X177425000Y-104720000I-135000J0D01*
G01*
X177155000Y-104720000D01*
G75*
G02*
X177020000Y-104585000I0J135000D01*
G01*
G37*
%TD.AperFunction*%
%TD*%
%TO.P,R3,1*%
%TO.N,Valve*%
%TA.AperFunction,SMDPad,CuDef*%
G36*
G01*
X177020000Y-107385000D02*
X177020000Y-107015000D01*
G75*
G02*
X177155000Y-106880000I135000J0D01*
G01*
X177425000Y-106880000D01*
G75*
G02*
X177560000Y-107015000I0J-135000D01*
G01*
X177560000Y-107385000D01*
G75*
G02*
X177425000Y-107520000I-135000J0D01*
G01*
X177155000Y-107520000D01*
G75*
G02*
X177020000Y-107385000I0J135000D01*
G01*
G37*
%TD.AperFunction*%
%TO.P,R3,2*%
%TO.N,GND*%
%TA.AperFunction,SMDPad,CuDef*%
G36*
G01*
X178040000Y-107385000D02*
X178040000Y-107015000D01*
G75*
G02*
X178175000Y-106880000I135000J0D01*
G01*
X178445000Y-106880000D01*
G75*
G02*
X178580000Y-107015000I0J-135000D01*
G01*
X178580000Y-107385000D01*
G75*
G02*
X178445000Y-107520000I-135000J0D01*
G01*
X178175000Y-107520000D01*
G75*
G02*
X178040000Y-107385000I0J135000D01*
G01*
G37*
%TD.AperFunction*%
%TD*%
%TO.P,R4,1*%
%TO.N,Net-(D3-Pad1)*%
%TA.AperFunction,SMDPad,CuDef*%
G36*
G01*
X167020000Y-91885000D02*
X167020000Y-91515000D01*
G75*
G02*
X167155000Y-91380000I135000J0D01*
G01*
X167425000Y-91380000D01*
G75*
G02*
X167560000Y-91515000I0J-135000D01*
G01*
X167560000Y-91885000D01*
G75*
G02*
X167425000Y-92020000I-135000J0D01*
G01*
X167155000Y-92020000D01*
G75*
G02*
X167020000Y-91885000I0J135000D01*
G01*
G37*
%TD.AperFunction*%
%TO.P,R4,2*%
%TO.N,GND*%
%TA.AperFunction,SMDPad,CuDef*%
G36*
G01*
X168040000Y-91885000D02*
X168040000Y-91515000D01*
G75*
G02*
X168175000Y-91380000I135000J0D01*
G01*
X168445000Y-91380000D01*
G75*
G02*
X168580000Y-91515000I0J-135000D01*
G01*
X168580000Y-91885000D01*
G75*
G02*
X168445000Y-92020000I-135000J0D01*
G01*
X168175000Y-92020000D01*
G75*
G02*
X168040000Y-91885000I0J135000D01*
G01*
G37*
%TD.AperFunction*%
%TD*%
%TO.P,R5,2*%
%TO.N,GND*%
%TA.AperFunction,SMDPad,CuDef*%
G36*
G01*
X180485000Y-99160000D02*
X180115000Y-99160000D01*
G75*
G02*
X179980000Y-99025000I0J135000D01*
G01*
X179980000Y-98755000D01*
G75*
G02*
X180115000Y-98620000I135000J0D01*
G01*
X180485000Y-98620000D01*
G75*
G02*
X180620000Y-98755000I0J-135000D01*
G01*
X180620000Y-99025000D01*
G75*
G02*
X180485000Y-99160000I-135000J0D01*
G01*
G37*
%TD.AperFunction*%
%TO.P,R5,1*%
%TO.N,Va*%
%TA.AperFunction,SMDPad,CuDef*%
G36*
G01*
X180485000Y-100180000D02*
X180115000Y-100180000D01*
G75*
G02*
X179980000Y-100045000I0J135000D01*
G01*
X179980000Y-99775000D01*
G75*
G02*
X180115000Y-99640000I135000J0D01*
G01*
X180485000Y-99640000D01*
G75*
G02*
X180620000Y-99775000I0J-135000D01*
G01*
X180620000Y-100045000D01*
G75*
G02*
X180485000Y-100180000I-135000J0D01*
G01*
G37*
%TD.AperFunction*%
%TD*%
%TO.P,SWD,1*%
%TO.N,+3V3*%
%TA.AperFunction,ComponentPad*%
G36*
G01*
X172100000Y-91550000D02*
X172100000Y-90650000D01*
G75*
G02*
X172300000Y-90450000I200000J0D01*
G01*
X172700000Y-90450000D01*
G75*
G02*
X172900000Y-90650000I0J-200000D01*
G01*
X172900000Y-91550000D01*
G75*
G02*
X172700000Y-91750000I-200000J0D01*
G01*
X172300000Y-91750000D01*
G75*
G02*
X172100000Y-91550000I0J200000D01*
G01*
G37*
%TD.AperFunction*%
D20*
%TO.P,SWD,2*%
%TO.N,RST*%
X173750000Y-91100000D03*
%TO.P,SWD,3*%
%TO.N,SWCLK*%
X175000000Y-91100000D03*
%TO.P,SWD,4*%
%TO.N,SWDIO*%
X176250000Y-91100000D03*
%TO.P,SWD,5*%
%TO.N,GND*%
X177500000Y-91100000D03*
%TD*%
D21*
%TO.N,GND*%
X168700000Y-103900000D03*
X183200000Y-94100000D03*
X179400000Y-98700000D03*
X169700000Y-91500000D03*
X171200000Y-90500000D03*
X169600000Y-95500000D03*
X172800000Y-92900000D03*
X176100000Y-93500000D03*
X178900000Y-96000000D03*
X177800000Y-97500000D03*
X178400000Y-100200000D03*
X176000000Y-102200000D03*
X172000000Y-102200000D03*
X169400000Y-98500000D03*
X169000000Y-101800000D03*
X176200000Y-107400000D03*
X182000000Y-108300000D03*
X179000000Y-107900000D03*
X175800000Y-109800000D03*
X179100000Y-103400000D03*
X179100000Y-91600000D03*
X164100000Y-101600000D03*
X164600000Y-98000000D03*
%TO.N,RST*%
X182100000Y-95700000D03*
%TO.N,Va*%
X169100000Y-104600000D03*
X170000000Y-103700000D03*
X181000000Y-100700000D03*
X183400000Y-95500000D03*
%TO.N,SERIAL*%
X181300000Y-95900000D03*
%TD*%
D22*
%TO.N,+3V3*%
X164100000Y-96150000D02*
X165450000Y-94800000D01*
X164100000Y-96420000D02*
X164100000Y-96150000D01*
X169670001Y-93929999D02*
X172500000Y-91100000D01*
X166320001Y-93929999D02*
X169670001Y-93929999D01*
X165450000Y-94800000D02*
X166320001Y-93929999D01*
X182250000Y-92500000D02*
X182250000Y-93312500D01*
X182250000Y-93312500D02*
X182684990Y-93312500D01*
D23*
X164400000Y-103650000D02*
X165600000Y-104850000D01*
X164400000Y-103480000D02*
X164400000Y-103650000D01*
X163491156Y-102563708D02*
X163493410Y-102573409D01*
X163446238Y-102353013D02*
X163491156Y-102563708D01*
X163400000Y-102111993D02*
X163405203Y-102141679D01*
X163400000Y-97888005D02*
X163400000Y-102111993D01*
X163446239Y-97646986D02*
X163405204Y-97858316D01*
X163491159Y-97436280D02*
X163446239Y-97646986D01*
X163539891Y-97226557D02*
X163491159Y-97436280D01*
X163592463Y-97017687D02*
X163539891Y-97226557D01*
X163405204Y-97858316D02*
X163400000Y-97888005D01*
X164100000Y-96510150D02*
X163592463Y-97017687D01*
X163493410Y-102573409D02*
X164400000Y-103480000D01*
X163405203Y-102141679D02*
X163446238Y-102353013D01*
X164100000Y-96420000D02*
X164100000Y-96510150D01*
D22*
X180198828Y-90109990D02*
X181060000Y-90971162D01*
X173443478Y-90109990D02*
X180198828Y-90109990D01*
X172500000Y-91053468D02*
X173443478Y-90109990D01*
X181060000Y-90971162D02*
X181060000Y-91000000D01*
X172500000Y-91100000D02*
X172500000Y-91053468D01*
X181060000Y-91000000D02*
X181060000Y-92000000D01*
X181750000Y-92000000D02*
X182250000Y-92500000D01*
X181060000Y-92000000D02*
X181750000Y-92000000D01*
X182750000Y-96397202D02*
X182750000Y-97187500D01*
X182750000Y-95402796D02*
X182750000Y-96397202D01*
X182250000Y-94902796D02*
X182750000Y-95402796D01*
X182250000Y-93312500D02*
X182250000Y-94902796D01*
D23*
%TO.N,GND*%
X183250000Y-93312500D02*
X183250000Y-93635065D01*
D22*
X177250000Y-110400000D02*
X177300000Y-110450000D01*
X173900000Y-110400000D02*
X177250000Y-110400000D01*
X173700000Y-110200000D02*
X173900000Y-110400000D01*
D23*
X164440001Y-97720001D02*
X164100000Y-97380000D01*
X165927001Y-97720001D02*
X164440001Y-97720001D01*
X166400000Y-97247002D02*
X165927001Y-97720001D01*
X166400000Y-97000000D02*
X166400000Y-97247002D01*
X167800000Y-103900000D02*
X168700000Y-103900000D01*
D22*
X178310000Y-109440000D02*
X177300000Y-110450000D01*
X178310000Y-107200000D02*
X178310000Y-109440000D01*
D23*
X183250000Y-94050000D02*
X183200000Y-94100000D01*
X183250000Y-93312500D02*
X183250000Y-94050000D01*
X181300000Y-99700000D02*
X181300000Y-99680000D01*
X169500000Y-91700000D02*
X169700000Y-91500000D01*
X168310000Y-91700000D02*
X169500000Y-91700000D01*
X163700000Y-101820000D02*
X164400000Y-102520000D01*
X163700000Y-98060000D02*
X163700000Y-101820000D01*
X164100000Y-97660000D02*
X163700000Y-98060000D01*
X164100000Y-97380000D02*
X164100000Y-97660000D01*
X163880000Y-101820000D02*
X164100000Y-101600000D01*
X163700000Y-101820000D02*
X163880000Y-101820000D01*
X163860000Y-98060000D02*
X164100000Y-98300000D01*
X163700000Y-98060000D02*
X163860000Y-98060000D01*
X179590000Y-98890000D02*
X179400000Y-98700000D01*
X180300000Y-98890000D02*
X179590000Y-98890000D01*
X181290000Y-99880000D02*
X180300000Y-98890000D01*
X181300000Y-99880000D02*
X181290000Y-99880000D01*
%TO.N,Net-(D3-Pad1)*%
X166512500Y-93100000D02*
X166512500Y-93087500D01*
X167290000Y-92310000D02*
X167290000Y-91700000D01*
X166512500Y-93087500D02*
X167290000Y-92310000D01*
%TO.N,RST*%
X182250000Y-97187500D02*
X182250000Y-95850000D01*
X182250000Y-95850000D02*
X182100000Y-95700000D01*
X182250000Y-97870000D02*
X182250000Y-97187500D01*
X181300000Y-98820000D02*
X182250000Y-97870000D01*
X181300000Y-98920000D02*
X181300000Y-98820000D01*
%TO.N,SWCLK*%
X177650000Y-93750000D02*
X180252500Y-93750000D01*
X175000000Y-91100000D02*
X177650000Y-93750000D01*
%TO.N,SWDIO*%
X178402500Y-93252500D02*
X180750000Y-93252500D01*
X176250000Y-91100000D02*
X178402500Y-93252500D01*
%TO.N,Pump*%
X179734990Y-101484990D02*
X179800000Y-101550000D01*
X177290000Y-103960000D02*
X180000000Y-101250000D01*
X177290000Y-104400000D02*
X177290000Y-103960000D01*
X181250000Y-101250000D02*
X180000000Y-101250000D01*
X181800010Y-99074990D02*
X181800010Y-100699990D01*
X181800010Y-100699990D02*
X181250000Y-101250000D01*
X183250000Y-97625000D02*
X181800010Y-99074990D01*
X183250000Y-97187500D02*
X183250000Y-97625000D01*
D22*
%TO.N,Valve*%
X177300000Y-107210000D02*
X177290000Y-107200000D01*
X177300000Y-108550000D02*
X177300000Y-107210000D01*
D23*
X184340702Y-97247500D02*
X183750000Y-97247500D01*
X186090001Y-98996799D02*
X184340702Y-97247500D01*
X186090001Y-102527001D02*
X186090001Y-98996799D01*
X182057012Y-106559990D02*
X186090001Y-102527001D01*
X177930010Y-106559990D02*
X182057012Y-106559990D01*
X177290000Y-107200000D02*
X177930010Y-106559990D01*
%TO.N,Va*%
X168850000Y-104850000D02*
X169100000Y-104600000D01*
X167800000Y-104850000D02*
X168850000Y-104850000D01*
X170000000Y-103700000D02*
X176357998Y-103700000D01*
X183400000Y-96257104D02*
X183400000Y-95500000D01*
X184247500Y-96750000D02*
X183892896Y-96750000D01*
X183892896Y-96750000D02*
X183400000Y-96257104D01*
X181000000Y-100610000D02*
X180300000Y-99910000D01*
X181000000Y-100700000D02*
X181000000Y-100610000D01*
X180147998Y-99910000D02*
X180300000Y-99910000D01*
X176357998Y-103700000D02*
X180147998Y-99910000D01*
D24*
%TO.N,/PUMP_GND*%
X184000000Y-100000000D02*
X184000000Y-100500000D01*
D25*
X182000000Y-102000000D02*
X184000000Y-100000000D01*
X182000000Y-102200000D02*
X182000000Y-102000000D01*
D26*
X182000000Y-102800000D02*
X182000000Y-102200000D01*
X179515011Y-105284989D02*
X182000000Y-102800000D01*
X172794285Y-105284989D02*
X179515011Y-105284989D01*
X170804347Y-107274927D02*
X172794285Y-105284989D01*
D22*
%TO.N,VCC*%
X181850000Y-105900000D02*
X184700000Y-103050000D01*
X180700000Y-105900000D02*
X181850000Y-105900000D01*
X167730000Y-97380000D02*
X167350000Y-97000000D01*
X168600000Y-97380000D02*
X167730000Y-97380000D01*
X171130000Y-97380000D02*
X174250000Y-100500000D01*
X168600000Y-97380000D02*
X171130000Y-97380000D01*
X167350000Y-96482998D02*
X167350000Y-97000000D01*
X166997001Y-96129999D02*
X167350000Y-96482998D01*
X165802999Y-96129999D02*
X166997001Y-96129999D01*
X165450000Y-96482998D02*
X165802999Y-96129999D01*
X165450000Y-97000000D02*
X165450000Y-96482998D01*
D26*
X172600000Y-109300000D02*
X173700000Y-108200000D01*
X169700000Y-109300000D02*
X172600000Y-109300000D01*
D23*
X169760662Y-109239338D02*
X169700000Y-109300000D01*
X169760662Y-104180662D02*
X169760662Y-109239338D01*
X168530000Y-102950000D02*
X169760662Y-104180662D01*
X167800000Y-102950000D02*
X168530000Y-102950000D01*
D22*
X180600000Y-106000000D02*
X180700000Y-105900000D01*
X175900000Y-106000000D02*
X180600000Y-106000000D01*
X173700000Y-108200000D02*
X175900000Y-106000000D01*
%TO.N,/VALVE_GND*%
X180700000Y-108100000D02*
X179300000Y-109500000D01*
X180700000Y-107150000D02*
X180700000Y-108100000D01*
X182700000Y-107150000D02*
X184700000Y-105150000D01*
X180700000Y-107150000D02*
X182700000Y-107150000D01*
D24*
%TO.N,/P-*%
X166575000Y-100575000D02*
X166000000Y-100000000D01*
D26*
X166700000Y-100700000D02*
X166000000Y-100000000D01*
X167459320Y-107419846D02*
X166700000Y-106660526D01*
X166650000Y-102950000D02*
X166700000Y-103000000D01*
X165600000Y-102950000D02*
X166650000Y-102950000D01*
X166700000Y-103000000D02*
X166700000Y-100700000D01*
X166700000Y-106660526D02*
X166700000Y-103000000D01*
X167700880Y-107419846D02*
X169195653Y-105925073D01*
X167459320Y-107419846D02*
X167700880Y-107419846D01*
D23*
%TO.N,SERIAL*%
X176750000Y-100500000D02*
X176750000Y-95000000D01*
X181750000Y-95025736D02*
X181750000Y-93312500D01*
X181300000Y-95475736D02*
X181750000Y-95025736D01*
X181300000Y-95900000D02*
X181300000Y-95475736D01*
%TO.N,Net-(D3-Pad2)*%
X168087500Y-92257134D02*
X168087500Y-93100000D01*
X167849990Y-91380376D02*
X167849990Y-92019624D01*
X169630366Y-89600000D02*
X167849990Y-91380376D01*
X180555222Y-89600000D02*
X169630366Y-89600000D01*
X167849990Y-92019624D02*
X168087500Y-92257134D01*
X183750000Y-92794778D02*
X183750000Y-93252500D01*
X180555222Y-89600000D02*
X183750000Y-92794778D01*
%TD*%
D27*
%TO.N,GND*%
X184304589Y-106927010D02*
X183437498Y-107960369D01*
X182456304Y-108886077D01*
X181374277Y-109691617D01*
X180206048Y-110366094D01*
X178967417Y-110900387D01*
X177675133Y-111287272D01*
X176346672Y-111521515D01*
X175000000Y-111599950D01*
X173653328Y-111521515D01*
X172324867Y-111287272D01*
X171032583Y-110900387D01*
X169966950Y-110440718D01*
X170022431Y-110386435D01*
X170299699Y-110056000D01*
X172562871Y-110056000D01*
X172600000Y-110059657D01*
X172637129Y-110056000D01*
X172748202Y-110045060D01*
X172890708Y-110001832D01*
X173022043Y-109931632D01*
X173137159Y-109837159D01*
X173160838Y-109808306D01*
X173586301Y-109382843D01*
X174500000Y-109382843D01*
X174574689Y-109375487D01*
X174646508Y-109353701D01*
X174712696Y-109318322D01*
X174770711Y-109270711D01*
X174818322Y-109212696D01*
X174853701Y-109146508D01*
X174875487Y-109074689D01*
X174882843Y-109000000D01*
X174882843Y-107909525D01*
X176161369Y-106631000D01*
X176810556Y-106631000D01*
X176788830Y-106648830D01*
X176724429Y-106727302D01*
X176676575Y-106816830D01*
X176647107Y-106913974D01*
X176637157Y-107015000D01*
X176637157Y-107385000D01*
X176647107Y-107486026D01*
X176669001Y-107558201D01*
X176669001Y-107814735D01*
X176637304Y-107831678D01*
X176579289Y-107879289D01*
X176531678Y-107937304D01*
X176496299Y-108003492D01*
X176474513Y-108075311D01*
X176467157Y-108150000D01*
X176467157Y-108950000D01*
X176474513Y-109024689D01*
X176496299Y-109096508D01*
X176531678Y-109162696D01*
X176579289Y-109220711D01*
X176637304Y-109268322D01*
X176703492Y-109303701D01*
X176775311Y-109325487D01*
X176850000Y-109332843D01*
X177750000Y-109332843D01*
X177824689Y-109325487D01*
X177896508Y-109303701D01*
X177962696Y-109268322D01*
X178020711Y-109220711D01*
X178068322Y-109162696D01*
X178103701Y-109096508D01*
X178125487Y-109024689D01*
X178132843Y-108950000D01*
X178132843Y-108150000D01*
X178125487Y-108075311D01*
X178103701Y-108003492D01*
X178068322Y-107937304D01*
X178020711Y-107879289D01*
X177962696Y-107831678D01*
X177931000Y-107814736D01*
X177931000Y-107492266D01*
X177932893Y-107486026D01*
X177942843Y-107385000D01*
X177942843Y-107227393D01*
X178129247Y-107040990D01*
X179675958Y-107040990D01*
X179665222Y-107150000D01*
X179680301Y-107303103D01*
X179724960Y-107450322D01*
X179797481Y-107585999D01*
X179895078Y-107704922D01*
X180014001Y-107802519D01*
X180069001Y-107831917D01*
X180069001Y-107838630D01*
X179190475Y-108717157D01*
X178850000Y-108717157D01*
X178775311Y-108724513D01*
X178703492Y-108746299D01*
X178637304Y-108781678D01*
X178579289Y-108829289D01*
X178531678Y-108887304D01*
X178496299Y-108953492D01*
X178474513Y-109025311D01*
X178467157Y-109100000D01*
X178467157Y-109900000D01*
X178474513Y-109974689D01*
X178496299Y-110046508D01*
X178531678Y-110112696D01*
X178579289Y-110170711D01*
X178637304Y-110218322D01*
X178703492Y-110253701D01*
X178775311Y-110275487D01*
X178850000Y-110282843D01*
X179750000Y-110282843D01*
X179824689Y-110275487D01*
X179896508Y-110253701D01*
X179962696Y-110218322D01*
X180020711Y-110170711D01*
X180068322Y-110112696D01*
X180103701Y-110046508D01*
X180125487Y-109974689D01*
X180132843Y-109900000D01*
X180132843Y-109559525D01*
X181124268Y-108568101D01*
X181148343Y-108548343D01*
X181169015Y-108523155D01*
X181227196Y-108452261D01*
X181285789Y-108342642D01*
X181321870Y-108223698D01*
X181325924Y-108182536D01*
X181331000Y-108130998D01*
X181331000Y-108130991D01*
X181334052Y-108100000D01*
X181331000Y-108069010D01*
X181331000Y-107831917D01*
X181385999Y-107802519D01*
X181412220Y-107781000D01*
X182669010Y-107781000D01*
X182700000Y-107784052D01*
X182730990Y-107781000D01*
X182730998Y-107781000D01*
X182823698Y-107771870D01*
X182942642Y-107735789D01*
X183052261Y-107677196D01*
X183148343Y-107598343D01*
X183168105Y-107574263D01*
X184909526Y-105832843D01*
X184925000Y-105832843D01*
X184999689Y-105825487D01*
X185036395Y-105814352D01*
X184304589Y-106927010D01*
%TA.AperFunction,Conductor*%
D28*
G36*
X184304589Y-106927010D02*
G01*
X183437498Y-107960369D01*
X182456304Y-108886077D01*
X181374277Y-109691617D01*
X180206048Y-110366094D01*
X178967417Y-110900387D01*
X177675133Y-111287272D01*
X176346672Y-111521515D01*
X175000000Y-111599950D01*
X173653328Y-111521515D01*
X172324867Y-111287272D01*
X171032583Y-110900387D01*
X169966950Y-110440718D01*
X170022431Y-110386435D01*
X170299699Y-110056000D01*
X172562871Y-110056000D01*
X172600000Y-110059657D01*
X172637129Y-110056000D01*
X172748202Y-110045060D01*
X172890708Y-110001832D01*
X173022043Y-109931632D01*
X173137159Y-109837159D01*
X173160838Y-109808306D01*
X173586301Y-109382843D01*
X174500000Y-109382843D01*
X174574689Y-109375487D01*
X174646508Y-109353701D01*
X174712696Y-109318322D01*
X174770711Y-109270711D01*
X174818322Y-109212696D01*
X174853701Y-109146508D01*
X174875487Y-109074689D01*
X174882843Y-109000000D01*
X174882843Y-107909525D01*
X176161369Y-106631000D01*
X176810556Y-106631000D01*
X176788830Y-106648830D01*
X176724429Y-106727302D01*
X176676575Y-106816830D01*
X176647107Y-106913974D01*
X176637157Y-107015000D01*
X176637157Y-107385000D01*
X176647107Y-107486026D01*
X176669001Y-107558201D01*
X176669001Y-107814735D01*
X176637304Y-107831678D01*
X176579289Y-107879289D01*
X176531678Y-107937304D01*
X176496299Y-108003492D01*
X176474513Y-108075311D01*
X176467157Y-108150000D01*
X176467157Y-108950000D01*
X176474513Y-109024689D01*
X176496299Y-109096508D01*
X176531678Y-109162696D01*
X176579289Y-109220711D01*
X176637304Y-109268322D01*
X176703492Y-109303701D01*
X176775311Y-109325487D01*
X176850000Y-109332843D01*
X177750000Y-109332843D01*
X177824689Y-109325487D01*
X177896508Y-109303701D01*
X177962696Y-109268322D01*
X178020711Y-109220711D01*
X178068322Y-109162696D01*
X178103701Y-109096508D01*
X178125487Y-109024689D01*
X178132843Y-108950000D01*
X178132843Y-108150000D01*
X178125487Y-108075311D01*
X178103701Y-108003492D01*
X178068322Y-107937304D01*
X178020711Y-107879289D01*
X177962696Y-107831678D01*
X177931000Y-107814736D01*
X177931000Y-107492266D01*
X177932893Y-107486026D01*
X177942843Y-107385000D01*
X177942843Y-107227393D01*
X178129247Y-107040990D01*
X179675958Y-107040990D01*
X179665222Y-107150000D01*
X179680301Y-107303103D01*
X179724960Y-107450322D01*
X179797481Y-107585999D01*
X179895078Y-107704922D01*
X180014001Y-107802519D01*
X180069001Y-107831917D01*
X180069001Y-107838630D01*
X179190475Y-108717157D01*
X178850000Y-108717157D01*
X178775311Y-108724513D01*
X178703492Y-108746299D01*
X178637304Y-108781678D01*
X178579289Y-108829289D01*
X178531678Y-108887304D01*
X178496299Y-108953492D01*
X178474513Y-109025311D01*
X178467157Y-109100000D01*
X178467157Y-109900000D01*
X178474513Y-109974689D01*
X178496299Y-110046508D01*
X178531678Y-110112696D01*
X178579289Y-110170711D01*
X178637304Y-110218322D01*
X178703492Y-110253701D01*
X178775311Y-110275487D01*
X178850000Y-110282843D01*
X179750000Y-110282843D01*
X179824689Y-110275487D01*
X179896508Y-110253701D01*
X179962696Y-110218322D01*
X180020711Y-110170711D01*
X180068322Y-110112696D01*
X180103701Y-110046508D01*
X180125487Y-109974689D01*
X180132843Y-109900000D01*
X180132843Y-109559525D01*
X181124268Y-108568101D01*
X181148343Y-108548343D01*
X181169015Y-108523155D01*
X181227196Y-108452261D01*
X181285789Y-108342642D01*
X181321870Y-108223698D01*
X181325924Y-108182536D01*
X181331000Y-108130998D01*
X181331000Y-108130991D01*
X181334052Y-108100000D01*
X181331000Y-108069010D01*
X181331000Y-107831917D01*
X181385999Y-107802519D01*
X181412220Y-107781000D01*
X182669010Y-107781000D01*
X182700000Y-107784052D01*
X182730990Y-107781000D01*
X182730998Y-107781000D01*
X182823698Y-107771870D01*
X182942642Y-107735789D01*
X183052261Y-107677196D01*
X183148343Y-107598343D01*
X183168105Y-107574263D01*
X184909526Y-105832843D01*
X184925000Y-105832843D01*
X184999689Y-105825487D01*
X185036395Y-105814352D01*
X184304589Y-106927010D01*
G37*
%TD.AperFunction*%
D27*
X181131748Y-101827294D02*
X181119184Y-101954857D01*
X181114738Y-102000000D01*
X181119000Y-102043270D01*
X181119000Y-102243272D01*
X181131748Y-102372705D01*
X181167157Y-102489432D01*
X181167157Y-102563698D01*
X179201867Y-104528989D01*
X177942843Y-104528989D01*
X177942843Y-104215000D01*
X177932893Y-104113974D01*
X177905748Y-104024488D01*
X179897394Y-102032843D01*
X180450000Y-102032843D01*
X180524689Y-102025487D01*
X180596508Y-102003701D01*
X180662696Y-101968322D01*
X180720711Y-101920711D01*
X180768322Y-101862696D01*
X180803701Y-101796508D01*
X180823573Y-101731000D01*
X181160959Y-101731000D01*
X181131748Y-101827294D01*
%TA.AperFunction,Conductor*%
D28*
G36*
X181131748Y-101827294D02*
G01*
X181119184Y-101954857D01*
X181114738Y-102000000D01*
X181119000Y-102043270D01*
X181119000Y-102243272D01*
X181131748Y-102372705D01*
X181167157Y-102489432D01*
X181167157Y-102563698D01*
X179201867Y-104528989D01*
X177942843Y-104528989D01*
X177942843Y-104215000D01*
X177932893Y-104113974D01*
X177905748Y-104024488D01*
X179897394Y-102032843D01*
X180450000Y-102032843D01*
X180524689Y-102025487D01*
X180596508Y-102003701D01*
X180662696Y-101968322D01*
X180720711Y-101920711D01*
X180768322Y-101862696D01*
X180803701Y-101796508D01*
X180823573Y-101731000D01*
X181160959Y-101731000D01*
X181131748Y-101827294D01*
G37*
%TD.AperFunction*%
D27*
X168861461Y-103961698D02*
X168777426Y-103996506D01*
X168665888Y-104071033D01*
X168571033Y-104165888D01*
X168543395Y-104207252D01*
X168542696Y-104206678D01*
X168476508Y-104171299D01*
X168404689Y-104149513D01*
X168330000Y-104142157D01*
X167456000Y-104142157D01*
X167456000Y-103657843D01*
X168330000Y-103657843D01*
X168404689Y-103650487D01*
X168476508Y-103628701D01*
X168510367Y-103610603D01*
X168861461Y-103961698D01*
%TA.AperFunction,Conductor*%
D28*
G36*
X168861461Y-103961698D02*
G01*
X168777426Y-103996506D01*
X168665888Y-104071033D01*
X168571033Y-104165888D01*
X168543395Y-104207252D01*
X168542696Y-104206678D01*
X168476508Y-104171299D01*
X168404689Y-104149513D01*
X168330000Y-104142157D01*
X167456000Y-104142157D01*
X167456000Y-103657843D01*
X168330000Y-103657843D01*
X168404689Y-103650487D01*
X168476508Y-103628701D01*
X168510367Y-103610603D01*
X168861461Y-103961698D01*
G37*
%TD.AperFunction*%
D27*
X166642157Y-97530000D02*
X166649513Y-97604689D01*
X166671299Y-97676508D01*
X166706678Y-97742696D01*
X166754289Y-97800711D01*
X166812304Y-97848322D01*
X166878492Y-97883701D01*
X166950311Y-97905487D01*
X167025000Y-97912843D01*
X167388304Y-97912843D01*
X167487358Y-97965789D01*
X167606302Y-98001870D01*
X167699002Y-98011000D01*
X167699011Y-98011000D01*
X167729999Y-98014052D01*
X167760987Y-98011000D01*
X168256144Y-98011000D01*
X168327998Y-98032797D01*
X168430000Y-98042843D01*
X168770000Y-98042843D01*
X168872002Y-98032797D01*
X168943856Y-98011000D01*
X170868632Y-98011000D01*
X172519000Y-99661369D01*
X172519000Y-100450000D01*
X172520450Y-100483207D01*
X172540960Y-100717632D01*
X172552492Y-100783034D01*
X172613397Y-101010336D01*
X172636112Y-101072745D01*
X172735563Y-101286018D01*
X172768769Y-101343533D01*
X172903743Y-101536296D01*
X172946432Y-101587171D01*
X173112829Y-101753568D01*
X173163704Y-101796257D01*
X173356467Y-101931231D01*
X173413982Y-101964437D01*
X173627255Y-102063888D01*
X173689664Y-102086603D01*
X173916966Y-102147508D01*
X173982368Y-102159040D01*
X174216793Y-102179550D01*
X174283207Y-102179550D01*
X174517632Y-102159040D01*
X174583034Y-102147508D01*
X174810336Y-102086603D01*
X174872745Y-102063888D01*
X175086018Y-101964437D01*
X175143533Y-101931231D01*
X175336296Y-101796257D01*
X175387171Y-101753568D01*
X175553568Y-101587171D01*
X175596257Y-101536296D01*
X175614825Y-101509779D01*
X175623810Y-101526589D01*
X175702512Y-101622488D01*
X175798411Y-101701190D01*
X175907821Y-101759671D01*
X176026538Y-101795683D01*
X176150000Y-101807843D01*
X177350000Y-101807843D01*
X177473462Y-101795683D01*
X177592179Y-101759671D01*
X177647844Y-101729917D01*
X176158762Y-103219000D01*
X170482079Y-103219000D01*
X170434112Y-103171033D01*
X170322574Y-103096506D01*
X170198640Y-103045171D01*
X170067073Y-103019000D01*
X169932927Y-103019000D01*
X169801360Y-103045171D01*
X169677426Y-103096506D01*
X169565888Y-103171033D01*
X169498579Y-103238342D01*
X168886830Y-102626594D01*
X168871764Y-102608236D01*
X168798522Y-102548128D01*
X168714961Y-102503464D01*
X168688876Y-102495551D01*
X168683701Y-102478492D01*
X168648322Y-102412304D01*
X168600711Y-102354289D01*
X168542696Y-102306678D01*
X168476508Y-102271299D01*
X168404689Y-102249513D01*
X168330000Y-102242157D01*
X167456000Y-102242157D01*
X167456000Y-101769822D01*
X167771769Y-101454053D01*
X168021396Y-101080459D01*
X168193343Y-100665343D01*
X168281000Y-100224659D01*
X168281000Y-99775341D01*
X168193343Y-99334657D01*
X168021396Y-98919541D01*
X167771769Y-98545947D01*
X167454053Y-98228231D01*
X167080459Y-97978604D01*
X166665343Y-97806657D01*
X166224659Y-97719000D01*
X166105988Y-97719000D01*
X166128701Y-97676508D01*
X166150487Y-97604689D01*
X166157843Y-97530000D01*
X166157843Y-96760999D01*
X166642157Y-96760999D01*
X166642157Y-97530000D01*
%TA.AperFunction,Conductor*%
D28*
G36*
X166642157Y-97530000D02*
G01*
X166649513Y-97604689D01*
X166671299Y-97676508D01*
X166706678Y-97742696D01*
X166754289Y-97800711D01*
X166812304Y-97848322D01*
X166878492Y-97883701D01*
X166950311Y-97905487D01*
X167025000Y-97912843D01*
X167388304Y-97912843D01*
X167487358Y-97965789D01*
X167606302Y-98001870D01*
X167699002Y-98011000D01*
X167699011Y-98011000D01*
X167729999Y-98014052D01*
X167760987Y-98011000D01*
X168256144Y-98011000D01*
X168327998Y-98032797D01*
X168430000Y-98042843D01*
X168770000Y-98042843D01*
X168872002Y-98032797D01*
X168943856Y-98011000D01*
X170868632Y-98011000D01*
X172519000Y-99661369D01*
X172519000Y-100450000D01*
X172520450Y-100483207D01*
X172540960Y-100717632D01*
X172552492Y-100783034D01*
X172613397Y-101010336D01*
X172636112Y-101072745D01*
X172735563Y-101286018D01*
X172768769Y-101343533D01*
X172903743Y-101536296D01*
X172946432Y-101587171D01*
X173112829Y-101753568D01*
X173163704Y-101796257D01*
X173356467Y-101931231D01*
X173413982Y-101964437D01*
X173627255Y-102063888D01*
X173689664Y-102086603D01*
X173916966Y-102147508D01*
X173982368Y-102159040D01*
X174216793Y-102179550D01*
X174283207Y-102179550D01*
X174517632Y-102159040D01*
X174583034Y-102147508D01*
X174810336Y-102086603D01*
X174872745Y-102063888D01*
X175086018Y-101964437D01*
X175143533Y-101931231D01*
X175336296Y-101796257D01*
X175387171Y-101753568D01*
X175553568Y-101587171D01*
X175596257Y-101536296D01*
X175614825Y-101509779D01*
X175623810Y-101526589D01*
X175702512Y-101622488D01*
X175798411Y-101701190D01*
X175907821Y-101759671D01*
X176026538Y-101795683D01*
X176150000Y-101807843D01*
X177350000Y-101807843D01*
X177473462Y-101795683D01*
X177592179Y-101759671D01*
X177647844Y-101729917D01*
X176158762Y-103219000D01*
X170482079Y-103219000D01*
X170434112Y-103171033D01*
X170322574Y-103096506D01*
X170198640Y-103045171D01*
X170067073Y-103019000D01*
X169932927Y-103019000D01*
X169801360Y-103045171D01*
X169677426Y-103096506D01*
X169565888Y-103171033D01*
X169498579Y-103238342D01*
X168886830Y-102626594D01*
X168871764Y-102608236D01*
X168798522Y-102548128D01*
X168714961Y-102503464D01*
X168688876Y-102495551D01*
X168683701Y-102478492D01*
X168648322Y-102412304D01*
X168600711Y-102354289D01*
X168542696Y-102306678D01*
X168476508Y-102271299D01*
X168404689Y-102249513D01*
X168330000Y-102242157D01*
X167456000Y-102242157D01*
X167456000Y-101769822D01*
X167771769Y-101454053D01*
X168021396Y-101080459D01*
X168193343Y-100665343D01*
X168281000Y-100224659D01*
X168281000Y-99775341D01*
X168193343Y-99334657D01*
X168021396Y-98919541D01*
X167771769Y-98545947D01*
X167454053Y-98228231D01*
X167080459Y-97978604D01*
X166665343Y-97806657D01*
X166224659Y-97719000D01*
X166105988Y-97719000D01*
X166128701Y-97676508D01*
X166150487Y-97604689D01*
X166157843Y-97530000D01*
X166157843Y-96760999D01*
X166642157Y-96760999D01*
X166642157Y-97530000D01*
G37*
%TD.AperFunction*%
D27*
X163978604Y-101080459D02*
X164228231Y-101454053D01*
X164545947Y-101771769D01*
X164919541Y-102021396D01*
X165334657Y-102193343D01*
X165428496Y-102212009D01*
X165329108Y-102242157D01*
X165070000Y-102242157D01*
X164995311Y-102249513D01*
X164923492Y-102271299D01*
X164857304Y-102306678D01*
X164799289Y-102354289D01*
X164751678Y-102412304D01*
X164716299Y-102478492D01*
X164694513Y-102550311D01*
X164687157Y-102625000D01*
X164687157Y-102831800D01*
X164672002Y-102827203D01*
X164570000Y-102817157D01*
X164417393Y-102817157D01*
X163933928Y-102333691D01*
X163917580Y-102257009D01*
X163881000Y-102068621D01*
X163881000Y-100844823D01*
X163978604Y-101080459D01*
%TA.AperFunction,Conductor*%
D28*
G36*
X163978604Y-101080459D02*
G01*
X164228231Y-101454053D01*
X164545947Y-101771769D01*
X164919541Y-102021396D01*
X165334657Y-102193343D01*
X165428496Y-102212009D01*
X165329108Y-102242157D01*
X165070000Y-102242157D01*
X164995311Y-102249513D01*
X164923492Y-102271299D01*
X164857304Y-102306678D01*
X164799289Y-102354289D01*
X164751678Y-102412304D01*
X164716299Y-102478492D01*
X164694513Y-102550311D01*
X164687157Y-102625000D01*
X164687157Y-102831800D01*
X164672002Y-102827203D01*
X164570000Y-102817157D01*
X164417393Y-102817157D01*
X163933928Y-102333691D01*
X163917580Y-102257009D01*
X163881000Y-102068621D01*
X163881000Y-100844823D01*
X163978604Y-101080459D01*
G37*
%TD.AperFunction*%
D27*
X179492157Y-94312500D02*
X179500714Y-94399382D01*
X179526057Y-94482925D01*
X179535184Y-94500000D01*
X179526057Y-94517075D01*
X179500714Y-94600618D01*
X179492157Y-94687500D01*
X179492157Y-94812500D01*
X179500714Y-94899382D01*
X179526057Y-94982925D01*
X179535184Y-95000000D01*
X179526057Y-95017075D01*
X179500714Y-95100618D01*
X179492157Y-95187500D01*
X179492157Y-95312500D01*
X179500714Y-95399382D01*
X179526057Y-95482925D01*
X179535184Y-95500000D01*
X179526057Y-95517075D01*
X179500714Y-95600618D01*
X179492157Y-95687500D01*
X179492157Y-95812500D01*
X179500714Y-95899382D01*
X179526057Y-95982925D01*
X179535184Y-96000000D01*
X179526057Y-96017075D01*
X179500714Y-96100618D01*
X179492157Y-96187500D01*
X179492157Y-96312500D01*
X179500714Y-96399382D01*
X179526057Y-96482925D01*
X179531880Y-96493819D01*
X179512057Y-96541679D01*
X179509497Y-96550121D01*
X179494867Y-96623681D01*
X179494002Y-96632460D01*
X179492157Y-96670000D01*
X179492157Y-96830000D01*
X179494002Y-96867540D01*
X179494867Y-96876319D01*
X179509497Y-96949879D01*
X179512057Y-96958321D01*
X179540797Y-97027709D01*
X179544956Y-97035489D01*
X179586638Y-97097869D01*
X179592234Y-97104688D01*
X179645312Y-97157766D01*
X179652131Y-97163362D01*
X179714511Y-97205044D01*
X179722291Y-97209203D01*
X179791679Y-97237943D01*
X179800121Y-97240503D01*
X179873681Y-97255133D01*
X179882460Y-97255998D01*
X179920000Y-97257843D01*
X180242157Y-97257843D01*
X180242157Y-97580000D01*
X180244002Y-97617540D01*
X180244867Y-97626319D01*
X180259497Y-97699879D01*
X180262057Y-97708321D01*
X180290797Y-97777709D01*
X180294956Y-97785489D01*
X180336638Y-97847869D01*
X180342234Y-97854688D01*
X180395312Y-97907766D01*
X180402131Y-97913362D01*
X180464511Y-97955044D01*
X180472291Y-97959203D01*
X180541679Y-97987943D01*
X180550121Y-97990503D01*
X180623681Y-98005133D01*
X180632460Y-98005998D01*
X180670000Y-98007843D01*
X180830000Y-98007843D01*
X180867540Y-98005998D01*
X180876319Y-98005133D01*
X180949879Y-97990503D01*
X180958321Y-97987943D01*
X181006181Y-97968120D01*
X181017075Y-97973943D01*
X181100618Y-97999286D01*
X181187500Y-98007843D01*
X181312500Y-98007843D01*
X181399382Y-97999286D01*
X181458372Y-97981391D01*
X181182607Y-98257157D01*
X181130000Y-98257157D01*
X181027998Y-98267203D01*
X180929917Y-98296956D01*
X180839524Y-98345272D01*
X180760294Y-98410294D01*
X180695272Y-98489524D01*
X180646956Y-98579917D01*
X180617203Y-98677998D01*
X180607157Y-98780000D01*
X180607157Y-99060000D01*
X180617203Y-99162002D01*
X180646956Y-99260083D01*
X180663228Y-99290526D01*
X180586026Y-99267107D01*
X180485000Y-99257157D01*
X180115000Y-99257157D01*
X180013974Y-99267107D01*
X179916830Y-99296575D01*
X179827302Y-99344429D01*
X179748830Y-99408830D01*
X179684429Y-99487302D01*
X179636575Y-99576830D01*
X179607107Y-99673974D01*
X179597157Y-99775000D01*
X179597157Y-99780604D01*
X177904917Y-101472844D01*
X177934671Y-101417179D01*
X177970683Y-101298462D01*
X177982843Y-101175000D01*
X177982843Y-99825000D01*
X177970683Y-99701538D01*
X177934671Y-99582821D01*
X177876190Y-99473411D01*
X177797488Y-99377512D01*
X177701589Y-99298810D01*
X177592179Y-99240329D01*
X177473462Y-99204317D01*
X177350000Y-99192157D01*
X177231000Y-99192157D01*
X177231000Y-96307843D01*
X177350000Y-96307843D01*
X177473462Y-96295683D01*
X177592179Y-96259671D01*
X177701589Y-96201190D01*
X177797488Y-96122488D01*
X177876190Y-96026589D01*
X177934671Y-95917179D01*
X177970683Y-95798462D01*
X177982843Y-95675000D01*
X177982843Y-94325000D01*
X177973585Y-94231000D01*
X179492157Y-94231000D01*
X179492157Y-94312500D01*
%TA.AperFunction,Conductor*%
D28*
G36*
X179492157Y-94312500D02*
G01*
X179500714Y-94399382D01*
X179526057Y-94482925D01*
X179535184Y-94500000D01*
X179526057Y-94517075D01*
X179500714Y-94600618D01*
X179492157Y-94687500D01*
X179492157Y-94812500D01*
X179500714Y-94899382D01*
X179526057Y-94982925D01*
X179535184Y-95000000D01*
X179526057Y-95017075D01*
X179500714Y-95100618D01*
X179492157Y-95187500D01*
X179492157Y-95312500D01*
X179500714Y-95399382D01*
X179526057Y-95482925D01*
X179535184Y-95500000D01*
X179526057Y-95517075D01*
X179500714Y-95600618D01*
X179492157Y-95687500D01*
X179492157Y-95812500D01*
X179500714Y-95899382D01*
X179526057Y-95982925D01*
X179535184Y-96000000D01*
X179526057Y-96017075D01*
X179500714Y-96100618D01*
X179492157Y-96187500D01*
X179492157Y-96312500D01*
X179500714Y-96399382D01*
X179526057Y-96482925D01*
X179531880Y-96493819D01*
X179512057Y-96541679D01*
X179509497Y-96550121D01*
X179494867Y-96623681D01*
X179494002Y-96632460D01*
X179492157Y-96670000D01*
X179492157Y-96830000D01*
X179494002Y-96867540D01*
X179494867Y-96876319D01*
X179509497Y-96949879D01*
X179512057Y-96958321D01*
X179540797Y-97027709D01*
X179544956Y-97035489D01*
X179586638Y-97097869D01*
X179592234Y-97104688D01*
X179645312Y-97157766D01*
X179652131Y-97163362D01*
X179714511Y-97205044D01*
X179722291Y-97209203D01*
X179791679Y-97237943D01*
X179800121Y-97240503D01*
X179873681Y-97255133D01*
X179882460Y-97255998D01*
X179920000Y-97257843D01*
X180242157Y-97257843D01*
X180242157Y-97580000D01*
X180244002Y-97617540D01*
X180244867Y-97626319D01*
X180259497Y-97699879D01*
X180262057Y-97708321D01*
X180290797Y-97777709D01*
X180294956Y-97785489D01*
X180336638Y-97847869D01*
X180342234Y-97854688D01*
X180395312Y-97907766D01*
X180402131Y-97913362D01*
X180464511Y-97955044D01*
X180472291Y-97959203D01*
X180541679Y-97987943D01*
X180550121Y-97990503D01*
X180623681Y-98005133D01*
X180632460Y-98005998D01*
X180670000Y-98007843D01*
X180830000Y-98007843D01*
X180867540Y-98005998D01*
X180876319Y-98005133D01*
X180949879Y-97990503D01*
X180958321Y-97987943D01*
X181006181Y-97968120D01*
X181017075Y-97973943D01*
X181100618Y-97999286D01*
X181187500Y-98007843D01*
X181312500Y-98007843D01*
X181399382Y-97999286D01*
X181458372Y-97981391D01*
X181182607Y-98257157D01*
X181130000Y-98257157D01*
X181027998Y-98267203D01*
X180929917Y-98296956D01*
X180839524Y-98345272D01*
X180760294Y-98410294D01*
X180695272Y-98489524D01*
X180646956Y-98579917D01*
X180617203Y-98677998D01*
X180607157Y-98780000D01*
X180607157Y-99060000D01*
X180617203Y-99162002D01*
X180646956Y-99260083D01*
X180663228Y-99290526D01*
X180586026Y-99267107D01*
X180485000Y-99257157D01*
X180115000Y-99257157D01*
X180013974Y-99267107D01*
X179916830Y-99296575D01*
X179827302Y-99344429D01*
X179748830Y-99408830D01*
X179684429Y-99487302D01*
X179636575Y-99576830D01*
X179607107Y-99673974D01*
X179597157Y-99775000D01*
X179597157Y-99780604D01*
X177904917Y-101472844D01*
X177934671Y-101417179D01*
X177970683Y-101298462D01*
X177982843Y-101175000D01*
X177982843Y-99825000D01*
X177970683Y-99701538D01*
X177934671Y-99582821D01*
X177876190Y-99473411D01*
X177797488Y-99377512D01*
X177701589Y-99298810D01*
X177592179Y-99240329D01*
X177473462Y-99204317D01*
X177350000Y-99192157D01*
X177231000Y-99192157D01*
X177231000Y-96307843D01*
X177350000Y-96307843D01*
X177473462Y-96295683D01*
X177592179Y-96259671D01*
X177701589Y-96201190D01*
X177797488Y-96122488D01*
X177876190Y-96026589D01*
X177934671Y-95917179D01*
X177970683Y-95798462D01*
X177982843Y-95675000D01*
X177982843Y-94325000D01*
X177973585Y-94231000D01*
X179492157Y-94231000D01*
X179492157Y-94312500D01*
G37*
%TD.AperFunction*%
D27*
X181027998Y-99572797D02*
X181130000Y-99582843D01*
X181319010Y-99582843D01*
X181319011Y-100095030D01*
X181198640Y-100045171D01*
X181094740Y-100024503D01*
X181002843Y-99932606D01*
X181002843Y-99775000D01*
X180992893Y-99673974D01*
X180963425Y-99576830D01*
X180948356Y-99548637D01*
X181027998Y-99572797D01*
%TA.AperFunction,Conductor*%
D28*
G36*
X181027998Y-99572797D02*
G01*
X181130000Y-99582843D01*
X181319010Y-99582843D01*
X181319011Y-100095030D01*
X181198640Y-100045171D01*
X181094740Y-100024503D01*
X181002843Y-99932606D01*
X181002843Y-99775000D01*
X180992893Y-99673974D01*
X180963425Y-99576830D01*
X180948356Y-99548637D01*
X181027998Y-99572797D01*
G37*
%TD.AperFunction*%
D27*
X164742157Y-97530000D02*
X164749513Y-97604689D01*
X164771299Y-97676508D01*
X164806678Y-97742696D01*
X164854289Y-97800711D01*
X164912304Y-97848322D01*
X164978492Y-97883701D01*
X165050311Y-97905487D01*
X165087272Y-97909127D01*
X164919541Y-97978604D01*
X164545947Y-98228231D01*
X164228231Y-98545947D01*
X163978604Y-98919541D01*
X163881000Y-99155177D01*
X163881000Y-97931382D01*
X163917587Y-97742960D01*
X163960672Y-97540863D01*
X164007422Y-97339671D01*
X164026496Y-97263891D01*
X164207544Y-97082843D01*
X164270000Y-97082843D01*
X164372002Y-97072797D01*
X164470083Y-97043044D01*
X164560476Y-96994728D01*
X164639706Y-96929706D01*
X164704728Y-96850476D01*
X164742157Y-96780451D01*
X164742157Y-97530000D01*
%TA.AperFunction,Conductor*%
D28*
G36*
X164742157Y-97530000D02*
G01*
X164749513Y-97604689D01*
X164771299Y-97676508D01*
X164806678Y-97742696D01*
X164854289Y-97800711D01*
X164912304Y-97848322D01*
X164978492Y-97883701D01*
X165050311Y-97905487D01*
X165087272Y-97909127D01*
X164919541Y-97978604D01*
X164545947Y-98228231D01*
X164228231Y-98545947D01*
X163978604Y-98919541D01*
X163881000Y-99155177D01*
X163881000Y-97931382D01*
X163917587Y-97742960D01*
X163960672Y-97540863D01*
X164007422Y-97339671D01*
X164026496Y-97263891D01*
X164207544Y-97082843D01*
X164270000Y-97082843D01*
X164372002Y-97072797D01*
X164470083Y-97043044D01*
X164560476Y-96994728D01*
X164639706Y-96929706D01*
X164704728Y-96850476D01*
X164742157Y-96780451D01*
X164742157Y-97530000D01*
G37*
%TD.AperFunction*%
D27*
X174445079Y-91904922D02*
X174564002Y-92002519D01*
X174699679Y-92075040D01*
X174846898Y-92119699D01*
X175000000Y-92134778D01*
X175153103Y-92119699D01*
X175296088Y-92076324D01*
X176911920Y-93692157D01*
X176150000Y-93692157D01*
X176026538Y-93704317D01*
X175907821Y-93740329D01*
X175798411Y-93798810D01*
X175702512Y-93877512D01*
X175650393Y-93941019D01*
X175596257Y-93863704D01*
X175553568Y-93812829D01*
X175387171Y-93646432D01*
X175336296Y-93603743D01*
X175143533Y-93468769D01*
X175086018Y-93435563D01*
X174872745Y-93336112D01*
X174810336Y-93313397D01*
X174583034Y-93252492D01*
X174517632Y-93240960D01*
X174283207Y-93220450D01*
X174216793Y-93220450D01*
X173982368Y-93240960D01*
X173916966Y-93252492D01*
X173689664Y-93313397D01*
X173627255Y-93336112D01*
X173413982Y-93435563D01*
X173356467Y-93468769D01*
X173163704Y-93603743D01*
X173112829Y-93646432D01*
X172946432Y-93812829D01*
X172903743Y-93863704D01*
X172768769Y-94056467D01*
X172735563Y-94113982D01*
X172636112Y-94327255D01*
X172613397Y-94389664D01*
X172552492Y-94616966D01*
X172540960Y-94682368D01*
X172520450Y-94916793D01*
X172519000Y-94950000D01*
X172519000Y-97876632D01*
X171598103Y-96955735D01*
X171578343Y-96931657D01*
X171482261Y-96852804D01*
X171372642Y-96794211D01*
X171253698Y-96758130D01*
X171160998Y-96749000D01*
X171160990Y-96749000D01*
X171130000Y-96745948D01*
X171099010Y-96749000D01*
X168943856Y-96749000D01*
X168872002Y-96727203D01*
X168770000Y-96717157D01*
X168430000Y-96717157D01*
X168327998Y-96727203D01*
X168256144Y-96749000D01*
X168057843Y-96749000D01*
X168057843Y-96470000D01*
X168050487Y-96395311D01*
X168028701Y-96323492D01*
X167993322Y-96257304D01*
X167945711Y-96199289D01*
X167888931Y-96152692D01*
X167877196Y-96130737D01*
X167798343Y-96034655D01*
X167774264Y-96014894D01*
X167472213Y-95712843D01*
X167675000Y-95712843D01*
X167749689Y-95705487D01*
X167821508Y-95683701D01*
X167887696Y-95648322D01*
X167945711Y-95600711D01*
X167993322Y-95542696D01*
X168028701Y-95476508D01*
X168050487Y-95404689D01*
X168057843Y-95330000D01*
X168057843Y-94560999D01*
X169639011Y-94560999D01*
X169670001Y-94564051D01*
X169700991Y-94560999D01*
X169700999Y-94560999D01*
X169793699Y-94551869D01*
X169912643Y-94515788D01*
X170022262Y-94457195D01*
X170118344Y-94378342D01*
X170138106Y-94354262D01*
X172359526Y-92132843D01*
X172700000Y-92132843D01*
X172813707Y-92121644D01*
X172923044Y-92088477D01*
X173023810Y-92034616D01*
X173112132Y-91962132D01*
X173177081Y-91882991D01*
X173195079Y-91904922D01*
X173314002Y-92002519D01*
X173449679Y-92075040D01*
X173596898Y-92119699D01*
X173750000Y-92134778D01*
X173903103Y-92119699D01*
X174050322Y-92075040D01*
X174185999Y-92002519D01*
X174304922Y-91904922D01*
X174375000Y-91819531D01*
X174445079Y-91904922D01*
%TA.AperFunction,Conductor*%
D28*
G36*
X174445079Y-91904922D02*
G01*
X174564002Y-92002519D01*
X174699679Y-92075040D01*
X174846898Y-92119699D01*
X175000000Y-92134778D01*
X175153103Y-92119699D01*
X175296088Y-92076324D01*
X176911920Y-93692157D01*
X176150000Y-93692157D01*
X176026538Y-93704317D01*
X175907821Y-93740329D01*
X175798411Y-93798810D01*
X175702512Y-93877512D01*
X175650393Y-93941019D01*
X175596257Y-93863704D01*
X175553568Y-93812829D01*
X175387171Y-93646432D01*
X175336296Y-93603743D01*
X175143533Y-93468769D01*
X175086018Y-93435563D01*
X174872745Y-93336112D01*
X174810336Y-93313397D01*
X174583034Y-93252492D01*
X174517632Y-93240960D01*
X174283207Y-93220450D01*
X174216793Y-93220450D01*
X173982368Y-93240960D01*
X173916966Y-93252492D01*
X173689664Y-93313397D01*
X173627255Y-93336112D01*
X173413982Y-93435563D01*
X173356467Y-93468769D01*
X173163704Y-93603743D01*
X173112829Y-93646432D01*
X172946432Y-93812829D01*
X172903743Y-93863704D01*
X172768769Y-94056467D01*
X172735563Y-94113982D01*
X172636112Y-94327255D01*
X172613397Y-94389664D01*
X172552492Y-94616966D01*
X172540960Y-94682368D01*
X172520450Y-94916793D01*
X172519000Y-94950000D01*
X172519000Y-97876632D01*
X171598103Y-96955735D01*
X171578343Y-96931657D01*
X171482261Y-96852804D01*
X171372642Y-96794211D01*
X171253698Y-96758130D01*
X171160998Y-96749000D01*
X171160990Y-96749000D01*
X171130000Y-96745948D01*
X171099010Y-96749000D01*
X168943856Y-96749000D01*
X168872002Y-96727203D01*
X168770000Y-96717157D01*
X168430000Y-96717157D01*
X168327998Y-96727203D01*
X168256144Y-96749000D01*
X168057843Y-96749000D01*
X168057843Y-96470000D01*
X168050487Y-96395311D01*
X168028701Y-96323492D01*
X167993322Y-96257304D01*
X167945711Y-96199289D01*
X167888931Y-96152692D01*
X167877196Y-96130737D01*
X167798343Y-96034655D01*
X167774264Y-96014894D01*
X167472213Y-95712843D01*
X167675000Y-95712843D01*
X167749689Y-95705487D01*
X167821508Y-95683701D01*
X167887696Y-95648322D01*
X167945711Y-95600711D01*
X167993322Y-95542696D01*
X168028701Y-95476508D01*
X168050487Y-95404689D01*
X168057843Y-95330000D01*
X168057843Y-94560999D01*
X169639011Y-94560999D01*
X169670001Y-94564051D01*
X169700991Y-94560999D01*
X169700999Y-94560999D01*
X169793699Y-94551869D01*
X169912643Y-94515788D01*
X170022262Y-94457195D01*
X170118344Y-94378342D01*
X170138106Y-94354262D01*
X172359526Y-92132843D01*
X172700000Y-92132843D01*
X172813707Y-92121644D01*
X172923044Y-92088477D01*
X173023810Y-92034616D01*
X173112132Y-91962132D01*
X173177081Y-91882991D01*
X173195079Y-91904922D01*
X173314002Y-92002519D01*
X173449679Y-92075040D01*
X173596898Y-92119699D01*
X173750000Y-92134778D01*
X173903103Y-92119699D01*
X174050322Y-92075040D01*
X174185999Y-92002519D01*
X174304922Y-91904922D01*
X174375000Y-91819531D01*
X174445079Y-91904922D01*
G37*
%TD.AperFunction*%
D27*
X183259497Y-93704879D02*
X183262057Y-93713321D01*
X183290797Y-93782709D01*
X183294956Y-93790489D01*
X183336638Y-93852869D01*
X183342234Y-93859688D01*
X183395312Y-93912766D01*
X183402131Y-93918362D01*
X183440217Y-93943811D01*
X183401057Y-94017075D01*
X183375714Y-94100618D01*
X183367157Y-94187500D01*
X183367157Y-94312500D01*
X183375714Y-94399382D01*
X183401057Y-94482925D01*
X183410184Y-94500000D01*
X183401057Y-94517075D01*
X183375714Y-94600618D01*
X183367157Y-94687500D01*
X183367157Y-94812500D01*
X183367797Y-94819000D01*
X183332927Y-94819000D01*
X183201360Y-94845171D01*
X183118900Y-94879327D01*
X182881000Y-94641428D01*
X182881000Y-94126096D01*
X182899382Y-94124286D01*
X182982925Y-94098943D01*
X183059919Y-94057789D01*
X183127405Y-94002405D01*
X183182789Y-93934919D01*
X183223943Y-93857925D01*
X183249286Y-93774382D01*
X183257246Y-93693561D01*
X183259497Y-93704879D01*
%TA.AperFunction,Conductor*%
D28*
G36*
X183259497Y-93704879D02*
G01*
X183262057Y-93713321D01*
X183290797Y-93782709D01*
X183294956Y-93790489D01*
X183336638Y-93852869D01*
X183342234Y-93859688D01*
X183395312Y-93912766D01*
X183402131Y-93918362D01*
X183440217Y-93943811D01*
X183401057Y-94017075D01*
X183375714Y-94100618D01*
X183367157Y-94187500D01*
X183367157Y-94312500D01*
X183375714Y-94399382D01*
X183401057Y-94482925D01*
X183410184Y-94500000D01*
X183401057Y-94517075D01*
X183375714Y-94600618D01*
X183367157Y-94687500D01*
X183367157Y-94812500D01*
X183367797Y-94819000D01*
X183332927Y-94819000D01*
X183201360Y-94845171D01*
X183118900Y-94879327D01*
X182881000Y-94641428D01*
X182881000Y-94126096D01*
X182899382Y-94124286D01*
X182982925Y-94098943D01*
X183059919Y-94057789D01*
X183127405Y-94002405D01*
X183182789Y-93934919D01*
X183223943Y-93857925D01*
X183249286Y-93774382D01*
X183257246Y-93693561D01*
X183259497Y-93704879D01*
G37*
%TD.AperFunction*%
D27*
X172076956Y-90111523D02*
X171976190Y-90165384D01*
X171887868Y-90237868D01*
X171815384Y-90326190D01*
X171761523Y-90426956D01*
X171728356Y-90536293D01*
X171717157Y-90650000D01*
X171717157Y-90990474D01*
X169408633Y-93298999D01*
X168907843Y-93298999D01*
X168907843Y-92843750D01*
X168896284Y-92726385D01*
X168862049Y-92613530D01*
X168806456Y-92509523D01*
X168731640Y-92418360D01*
X168640477Y-92343544D01*
X168568500Y-92305071D01*
X168568500Y-92280760D01*
X168570827Y-92257134D01*
X168561540Y-92162841D01*
X168549666Y-92123698D01*
X168534036Y-92072173D01*
X168489372Y-91988612D01*
X168429264Y-91915370D01*
X168410906Y-91900304D01*
X168330990Y-91820388D01*
X168330990Y-91579612D01*
X169829603Y-90081000D01*
X172177577Y-90081000D01*
X172076956Y-90111523D01*
%TA.AperFunction,Conductor*%
D28*
G36*
X172076956Y-90111523D02*
G01*
X171976190Y-90165384D01*
X171887868Y-90237868D01*
X171815384Y-90326190D01*
X171761523Y-90426956D01*
X171728356Y-90536293D01*
X171717157Y-90650000D01*
X171717157Y-90990474D01*
X169408633Y-93298999D01*
X168907843Y-93298999D01*
X168907843Y-92843750D01*
X168896284Y-92726385D01*
X168862049Y-92613530D01*
X168806456Y-92509523D01*
X168731640Y-92418360D01*
X168640477Y-92343544D01*
X168568500Y-92305071D01*
X168568500Y-92280760D01*
X168570827Y-92257134D01*
X168561540Y-92162841D01*
X168549666Y-92123698D01*
X168534036Y-92072173D01*
X168489372Y-91988612D01*
X168429264Y-91915370D01*
X168410906Y-91900304D01*
X168330990Y-91820388D01*
X168330990Y-91579612D01*
X169829603Y-90081000D01*
X172177577Y-90081000D01*
X172076956Y-90111523D01*
G37*
%TD.AperFunction*%
D27*
X180400510Y-91204040D02*
X180407203Y-91272002D01*
X180429000Y-91343857D01*
X180429001Y-91656142D01*
X180407203Y-91727998D01*
X180397157Y-91830000D01*
X180397157Y-92170000D01*
X180407203Y-92272002D01*
X180436956Y-92370083D01*
X180485272Y-92460476D01*
X180531174Y-92516408D01*
X180472291Y-92540797D01*
X180464511Y-92544956D01*
X180402131Y-92586638D01*
X180395312Y-92592234D01*
X180342234Y-92645312D01*
X180336638Y-92652131D01*
X180294956Y-92714511D01*
X180290797Y-92722291D01*
X180270415Y-92771500D01*
X178601737Y-92771500D01*
X177031000Y-91200764D01*
X177031000Y-90811640D01*
X177024042Y-90740990D01*
X179937460Y-90740990D01*
X180400510Y-91204040D01*
%TA.AperFunction,Conductor*%
D28*
G36*
X180400510Y-91204040D02*
G01*
X180407203Y-91272002D01*
X180429000Y-91343857D01*
X180429001Y-91656142D01*
X180407203Y-91727998D01*
X180397157Y-91830000D01*
X180397157Y-92170000D01*
X180407203Y-92272002D01*
X180436956Y-92370083D01*
X180485272Y-92460476D01*
X180531174Y-92516408D01*
X180472291Y-92540797D01*
X180464511Y-92544956D01*
X180402131Y-92586638D01*
X180395312Y-92592234D01*
X180342234Y-92645312D01*
X180336638Y-92652131D01*
X180294956Y-92714511D01*
X180290797Y-92722291D01*
X180270415Y-92771500D01*
X178601737Y-92771500D01*
X177031000Y-91200764D01*
X177031000Y-90811640D01*
X177024042Y-90740990D01*
X179937460Y-90740990D01*
X180400510Y-91204040D01*
G37*
%TD.AperFunction*%
%TD*%
D27*
%TO.N,VCC*%
X174462287Y-93746059D02*
X174668126Y-93801213D01*
X174861260Y-93891273D01*
X175035813Y-94013496D01*
X175186504Y-94164187D01*
X175308727Y-94338740D01*
X175398787Y-94531874D01*
X175453941Y-94737713D01*
X175473000Y-94955548D01*
X175473000Y-100444452D01*
X175453941Y-100662287D01*
X175398787Y-100868126D01*
X175308727Y-101061260D01*
X175186504Y-101235813D01*
X175035813Y-101386504D01*
X174861260Y-101508727D01*
X174668126Y-101598787D01*
X174462287Y-101653941D01*
X174250000Y-101672515D01*
X174037713Y-101653941D01*
X173831874Y-101598787D01*
X173638740Y-101508727D01*
X173464187Y-101386504D01*
X173313496Y-101235813D01*
X173191273Y-101061260D01*
X173101213Y-100868126D01*
X173046059Y-100662287D01*
X173027000Y-100444452D01*
X173027000Y-94955548D01*
X173046059Y-94737713D01*
X173101213Y-94531874D01*
X173191273Y-94338740D01*
X173313496Y-94164187D01*
X173464187Y-94013496D01*
X173638740Y-93891273D01*
X173831874Y-93801213D01*
X174037713Y-93746059D01*
X174250000Y-93727485D01*
X174462287Y-93746059D01*
%TA.AperFunction,Conductor*%
D28*
G36*
X174462287Y-93746059D02*
G01*
X174668126Y-93801213D01*
X174861260Y-93891273D01*
X175035813Y-94013496D01*
X175186504Y-94164187D01*
X175308727Y-94338740D01*
X175398787Y-94531874D01*
X175453941Y-94737713D01*
X175473000Y-94955548D01*
X175473000Y-100444452D01*
X175453941Y-100662287D01*
X175398787Y-100868126D01*
X175308727Y-101061260D01*
X175186504Y-101235813D01*
X175035813Y-101386504D01*
X174861260Y-101508727D01*
X174668126Y-101598787D01*
X174462287Y-101653941D01*
X174250000Y-101672515D01*
X174037713Y-101653941D01*
X173831874Y-101598787D01*
X173638740Y-101508727D01*
X173464187Y-101386504D01*
X173313496Y-101235813D01*
X173191273Y-101061260D01*
X173101213Y-100868126D01*
X173046059Y-100662287D01*
X173027000Y-100444452D01*
X173027000Y-94955548D01*
X173046059Y-94737713D01*
X173101213Y-94531874D01*
X173191273Y-94338740D01*
X173313496Y-94164187D01*
X173464187Y-94013496D01*
X173638740Y-93891273D01*
X173831874Y-93801213D01*
X174037713Y-93746059D01*
X174250000Y-93727485D01*
X174462287Y-93746059D01*
G37*
%TD.AperFunction*%
%TD*%
M02*
