%TF.GenerationSoftware,KiCad,Pcbnew,(5.1.8)-1*%
%TF.CreationDate,2021-07-18T18:57:16+02:00*%
%TF.ProjectId,PX12_Board,50583132-5f42-46f6-9172-642e6b696361,V1.0*%
%TF.SameCoordinates,Original*%
%TF.FileFunction,Legend,Top*%
%TF.FilePolarity,Positive*%
%FSLAX46Y46*%
G04 Gerber Fmt 4.6, Leading zero omitted, Abs format (unit mm)*
G04 Created by KiCad (PCBNEW (5.1.8)-1) date 2021-07-18 18:57:16*
%MOMM*%
%LPD*%
G01*
G04 APERTURE LIST*
%ADD10C,0.100000*%
%ADD11C,0.120000*%
%ADD12C,0.125000*%
%ADD13C,0.150000*%
G04 APERTURE END LIST*
D10*
X171754761Y-105001190D02*
X171754761Y-104501190D01*
X171945238Y-104501190D01*
X171992857Y-104525000D01*
X172016666Y-104548809D01*
X172040476Y-104596428D01*
X172040476Y-104667857D01*
X172016666Y-104715476D01*
X171992857Y-104739285D01*
X171945238Y-104763095D01*
X171754761Y-104763095D01*
X172207142Y-104501190D02*
X172540476Y-105001190D01*
X172540476Y-104501190D02*
X172207142Y-105001190D01*
X172992857Y-105001190D02*
X172707142Y-105001190D01*
X172850000Y-105001190D02*
X172850000Y-104501190D01*
X172802380Y-104572619D01*
X172754761Y-104620238D01*
X172707142Y-104644047D01*
X173183333Y-104548809D02*
X173207142Y-104525000D01*
X173254761Y-104501190D01*
X173373809Y-104501190D01*
X173421428Y-104525000D01*
X173445238Y-104548809D01*
X173469047Y-104596428D01*
X173469047Y-104644047D01*
X173445238Y-104715476D01*
X173159523Y-105001190D01*
X173469047Y-105001190D01*
X174064285Y-104810714D02*
X174445238Y-104810714D01*
X174992857Y-104501190D02*
X175159523Y-105001190D01*
X175326190Y-104501190D01*
X175754761Y-105001190D02*
X175469047Y-105001190D01*
X175611904Y-105001190D02*
X175611904Y-104501190D01*
X175564285Y-104572619D01*
X175516666Y-104620238D01*
X175469047Y-104644047D01*
X175969047Y-104953571D02*
X175992857Y-104977380D01*
X175969047Y-105001190D01*
X175945238Y-104977380D01*
X175969047Y-104953571D01*
X175969047Y-105001190D01*
X176469047Y-105001190D02*
X176183333Y-105001190D01*
X176326190Y-105001190D02*
X176326190Y-104501190D01*
X176278571Y-104572619D01*
X176230952Y-104620238D01*
X176183333Y-104644047D01*
X173242857Y-105398809D02*
X173266666Y-105375000D01*
X173314285Y-105351190D01*
X173433333Y-105351190D01*
X173480952Y-105375000D01*
X173504761Y-105398809D01*
X173528571Y-105446428D01*
X173528571Y-105494047D01*
X173504761Y-105565476D01*
X173219047Y-105851190D01*
X173528571Y-105851190D01*
X173838095Y-105351190D02*
X173885714Y-105351190D01*
X173933333Y-105375000D01*
X173957142Y-105398809D01*
X173980952Y-105446428D01*
X174004761Y-105541666D01*
X174004761Y-105660714D01*
X173980952Y-105755952D01*
X173957142Y-105803571D01*
X173933333Y-105827380D01*
X173885714Y-105851190D01*
X173838095Y-105851190D01*
X173790476Y-105827380D01*
X173766666Y-105803571D01*
X173742857Y-105755952D01*
X173719047Y-105660714D01*
X173719047Y-105541666D01*
X173742857Y-105446428D01*
X173766666Y-105398809D01*
X173790476Y-105375000D01*
X173838095Y-105351190D01*
X174195238Y-105398809D02*
X174219047Y-105375000D01*
X174266666Y-105351190D01*
X174385714Y-105351190D01*
X174433333Y-105375000D01*
X174457142Y-105398809D01*
X174480952Y-105446428D01*
X174480952Y-105494047D01*
X174457142Y-105565476D01*
X174171428Y-105851190D01*
X174480952Y-105851190D01*
X174957142Y-105851190D02*
X174671428Y-105851190D01*
X174814285Y-105851190D02*
X174814285Y-105351190D01*
X174766666Y-105422619D01*
X174719047Y-105470238D01*
X174671428Y-105494047D01*
X180417857Y-109646428D02*
X180667857Y-109646428D01*
X180775000Y-110039285D02*
X180417857Y-110039285D01*
X180417857Y-109289285D01*
X180775000Y-109289285D01*
X180989285Y-109289285D02*
X181239285Y-110039285D01*
X181489285Y-109289285D01*
D11*
%TO.C,VALVE1*%
X179150000Y-104000000D02*
X179150000Y-105000000D01*
X179150000Y-104000000D02*
X180150000Y-104000000D01*
X182350000Y-108250000D02*
X182350000Y-106525000D01*
X181500000Y-108250000D02*
X182350000Y-108250000D01*
X181500000Y-108450000D02*
X181500000Y-108250000D01*
X180700000Y-108450000D02*
X181500000Y-108450000D01*
X180700000Y-108250000D02*
X180700000Y-108450000D01*
X179950000Y-108250000D02*
X180700000Y-108250000D01*
X179950000Y-106525000D02*
X179950000Y-108250000D01*
X182350000Y-104800000D02*
X182350000Y-106525000D01*
X181500000Y-104800000D02*
X182350000Y-104800000D01*
X181500000Y-104600000D02*
X181500000Y-104800000D01*
X180700000Y-104600000D02*
X181500000Y-104600000D01*
X180700000Y-104800000D02*
X180700000Y-104600000D01*
X179950000Y-104800000D02*
X180700000Y-104800000D01*
X179950000Y-106525000D02*
X179950000Y-104800000D01*
X182860000Y-108760000D02*
X182860000Y-104290000D01*
X179440000Y-108760000D02*
X182860000Y-108760000D01*
X179440000Y-104290000D02*
X179440000Y-108760000D01*
X182860000Y-104290000D02*
X179440000Y-104290000D01*
%TO.C,U1*%
X168010000Y-96800000D02*
X168010000Y-95000000D01*
X164790000Y-95000000D02*
X164790000Y-97450000D01*
%TO.C,AX12_2*%
X179310000Y-103710000D02*
X179310000Y-98590000D01*
X179310000Y-98590000D02*
X170190000Y-98590000D01*
X170190000Y-98590000D02*
X169190000Y-99590000D01*
X169190000Y-99590000D02*
X169190000Y-103710000D01*
X169190000Y-103710000D02*
X179310000Y-103710000D01*
X179610000Y-100700000D02*
X179610000Y-98290000D01*
X179610000Y-98290000D02*
X177200000Y-98290000D01*
%TO.C,D3*%
X168100000Y-92365000D02*
X165815000Y-92365000D01*
X165815000Y-92365000D02*
X165815000Y-93835000D01*
X165815000Y-93835000D02*
X168100000Y-93835000D01*
%TO.C,AX12_1*%
X179610000Y-92790000D02*
X177200000Y-92790000D01*
X179610000Y-95200000D02*
X179610000Y-92790000D01*
X169190000Y-98210000D02*
X179310000Y-98210000D01*
X169190000Y-94090000D02*
X169190000Y-98210000D01*
X170190000Y-93090000D02*
X169190000Y-94090000D01*
X179310000Y-93090000D02*
X170190000Y-93090000D01*
X179310000Y-98210000D02*
X179310000Y-93090000D01*
%TO.C,Q1*%
X181760000Y-103780000D02*
X181760000Y-102850000D01*
X181760000Y-100620000D02*
X181760000Y-101550000D01*
X181760000Y-100620000D02*
X179600000Y-100620000D01*
X181760000Y-103780000D02*
X180300000Y-103780000D01*
%TO.C,Q2*%
X179060000Y-111080000D02*
X177600000Y-111080000D01*
X179060000Y-107920000D02*
X176900000Y-107920000D01*
X179060000Y-107920000D02*
X179060000Y-108850000D01*
X179060000Y-111080000D02*
X179060000Y-110150000D01*
%TO.C,R2*%
X168551687Y-109524371D02*
X167437760Y-108589676D01*
X169721560Y-108130170D02*
X168607633Y-107195475D01*
%TO.C,U2*%
X167600000Y-102290000D02*
X165800000Y-102290000D01*
X165800000Y-105510000D02*
X168250000Y-105510000D01*
%TO.C,U3*%
X180140000Y-93365000D02*
X180140000Y-93140000D01*
X180140000Y-93140000D02*
X180365000Y-93140000D01*
X184360000Y-97135000D02*
X184360000Y-97360000D01*
X184360000Y-97360000D02*
X184135000Y-97360000D01*
X184360000Y-93365000D02*
X184360000Y-93140000D01*
X184360000Y-93140000D02*
X184135000Y-93140000D01*
X180140000Y-97135000D02*
X180140000Y-97360000D01*
%TO.C,C4*%
X176320000Y-109200000D02*
G75*
G03*
X176320000Y-109200000I-2620000J0D01*
G01*
X172660000Y-109200000D02*
X171120000Y-109200000D01*
X176280000Y-109200000D02*
X174740000Y-109200000D01*
X172660000Y-109240000D02*
X171120000Y-109240000D01*
X176280000Y-109240000D02*
X174740000Y-109240000D01*
X176279000Y-109280000D02*
X174740000Y-109280000D01*
X172660000Y-109280000D02*
X171121000Y-109280000D01*
X176278000Y-109320000D02*
X174740000Y-109320000D01*
X172660000Y-109320000D02*
X171122000Y-109320000D01*
X176276000Y-109360000D02*
X174740000Y-109360000D01*
X172660000Y-109360000D02*
X171124000Y-109360000D01*
X176273000Y-109400000D02*
X174740000Y-109400000D01*
X172660000Y-109400000D02*
X171127000Y-109400000D01*
X176269000Y-109440000D02*
X174740000Y-109440000D01*
X172660000Y-109440000D02*
X171131000Y-109440000D01*
X176265000Y-109480000D02*
X174740000Y-109480000D01*
X172660000Y-109480000D02*
X171135000Y-109480000D01*
X176261000Y-109520000D02*
X174740000Y-109520000D01*
X172660000Y-109520000D02*
X171139000Y-109520000D01*
X176256000Y-109560000D02*
X174740000Y-109560000D01*
X172660000Y-109560000D02*
X171144000Y-109560000D01*
X176250000Y-109600000D02*
X174740000Y-109600000D01*
X172660000Y-109600000D02*
X171150000Y-109600000D01*
X176243000Y-109640000D02*
X174740000Y-109640000D01*
X172660000Y-109640000D02*
X171157000Y-109640000D01*
X176236000Y-109680000D02*
X174740000Y-109680000D01*
X172660000Y-109680000D02*
X171164000Y-109680000D01*
X176228000Y-109720000D02*
X174740000Y-109720000D01*
X172660000Y-109720000D02*
X171172000Y-109720000D01*
X176220000Y-109760000D02*
X174740000Y-109760000D01*
X172660000Y-109760000D02*
X171180000Y-109760000D01*
X176211000Y-109800000D02*
X174740000Y-109800000D01*
X172660000Y-109800000D02*
X171189000Y-109800000D01*
X176201000Y-109840000D02*
X174740000Y-109840000D01*
X172660000Y-109840000D02*
X171199000Y-109840000D01*
X176191000Y-109880000D02*
X174740000Y-109880000D01*
X172660000Y-109880000D02*
X171209000Y-109880000D01*
X176180000Y-109921000D02*
X174740000Y-109921000D01*
X172660000Y-109921000D02*
X171220000Y-109921000D01*
X176168000Y-109961000D02*
X174740000Y-109961000D01*
X172660000Y-109961000D02*
X171232000Y-109961000D01*
X176155000Y-110001000D02*
X174740000Y-110001000D01*
X172660000Y-110001000D02*
X171245000Y-110001000D01*
X176142000Y-110041000D02*
X174740000Y-110041000D01*
X172660000Y-110041000D02*
X171258000Y-110041000D01*
X176128000Y-110081000D02*
X174740000Y-110081000D01*
X172660000Y-110081000D02*
X171272000Y-110081000D01*
X176114000Y-110121000D02*
X174740000Y-110121000D01*
X172660000Y-110121000D02*
X171286000Y-110121000D01*
X176098000Y-110161000D02*
X174740000Y-110161000D01*
X172660000Y-110161000D02*
X171302000Y-110161000D01*
X176082000Y-110201000D02*
X174740000Y-110201000D01*
X172660000Y-110201000D02*
X171318000Y-110201000D01*
X176065000Y-110241000D02*
X174740000Y-110241000D01*
X172660000Y-110241000D02*
X171335000Y-110241000D01*
X176048000Y-110281000D02*
X174740000Y-110281000D01*
X172660000Y-110281000D02*
X171352000Y-110281000D01*
X176029000Y-110321000D02*
X174740000Y-110321000D01*
X172660000Y-110321000D02*
X171371000Y-110321000D01*
X176010000Y-110361000D02*
X174740000Y-110361000D01*
X172660000Y-110361000D02*
X171390000Y-110361000D01*
X175990000Y-110401000D02*
X174740000Y-110401000D01*
X172660000Y-110401000D02*
X171410000Y-110401000D01*
X175968000Y-110441000D02*
X174740000Y-110441000D01*
X172660000Y-110441000D02*
X171432000Y-110441000D01*
X175947000Y-110481000D02*
X174740000Y-110481000D01*
X172660000Y-110481000D02*
X171453000Y-110481000D01*
X175924000Y-110521000D02*
X174740000Y-110521000D01*
X172660000Y-110521000D02*
X171476000Y-110521000D01*
X175900000Y-110561000D02*
X174740000Y-110561000D01*
X172660000Y-110561000D02*
X171500000Y-110561000D01*
X175875000Y-110601000D02*
X174740000Y-110601000D01*
X172660000Y-110601000D02*
X171525000Y-110601000D01*
X175849000Y-110641000D02*
X174740000Y-110641000D01*
X172660000Y-110641000D02*
X171551000Y-110641000D01*
X175822000Y-110681000D02*
X174740000Y-110681000D01*
X172660000Y-110681000D02*
X171578000Y-110681000D01*
X175795000Y-110721000D02*
X174740000Y-110721000D01*
X172660000Y-110721000D02*
X171605000Y-110721000D01*
X175765000Y-110761000D02*
X174740000Y-110761000D01*
X172660000Y-110761000D02*
X171635000Y-110761000D01*
X175735000Y-110801000D02*
X174740000Y-110801000D01*
X172660000Y-110801000D02*
X171665000Y-110801000D01*
X175704000Y-110841000D02*
X174740000Y-110841000D01*
X172660000Y-110841000D02*
X171696000Y-110841000D01*
X175671000Y-110881000D02*
X174740000Y-110881000D01*
X172660000Y-110881000D02*
X171729000Y-110881000D01*
X175637000Y-110921000D02*
X174740000Y-110921000D01*
X172660000Y-110921000D02*
X171763000Y-110921000D01*
X175601000Y-110961000D02*
X174740000Y-110961000D01*
X172660000Y-110961000D02*
X171799000Y-110961000D01*
X175564000Y-111001000D02*
X174740000Y-111001000D01*
X172660000Y-111001000D02*
X171836000Y-111001000D01*
X175526000Y-111041000D02*
X174740000Y-111041000D01*
X172660000Y-111041000D02*
X171874000Y-111041000D01*
X175485000Y-111081000D02*
X174740000Y-111081000D01*
X172660000Y-111081000D02*
X171915000Y-111081000D01*
X175443000Y-111121000D02*
X174740000Y-111121000D01*
X172660000Y-111121000D02*
X171957000Y-111121000D01*
X175399000Y-111161000D02*
X174740000Y-111161000D01*
X172660000Y-111161000D02*
X172001000Y-111161000D01*
X175353000Y-111201000D02*
X174740000Y-111201000D01*
X172660000Y-111201000D02*
X172047000Y-111201000D01*
X175305000Y-111241000D02*
X172095000Y-111241000D01*
X175254000Y-111281000D02*
X172146000Y-111281000D01*
X175200000Y-111321000D02*
X172200000Y-111321000D01*
X175143000Y-111361000D02*
X172257000Y-111361000D01*
X175083000Y-111401000D02*
X172317000Y-111401000D01*
X175019000Y-111441000D02*
X172381000Y-111441000D01*
X174951000Y-111481000D02*
X172449000Y-111481000D01*
X174878000Y-111521000D02*
X172522000Y-111521000D01*
X174798000Y-111561000D02*
X172602000Y-111561000D01*
X174711000Y-111601000D02*
X172689000Y-111601000D01*
X174615000Y-111641000D02*
X172785000Y-111641000D01*
X174505000Y-111681000D02*
X172895000Y-111681000D01*
X174377000Y-111721000D02*
X173023000Y-111721000D01*
X174218000Y-111761000D02*
X173182000Y-111761000D01*
X173984000Y-111801000D02*
X173416000Y-111801000D01*
X175175000Y-106395225D02*
X175175000Y-106895225D01*
X175425000Y-106645225D02*
X174925000Y-106645225D01*
%TO.C,C1*%
X180687836Y-91360000D02*
X180472164Y-91360000D01*
X180687836Y-90640000D02*
X180472164Y-90640000D01*
%TO.C,C2*%
X164760000Y-103107836D02*
X164760000Y-102892164D01*
X164040000Y-103107836D02*
X164040000Y-102892164D01*
%TO.C,C3*%
X180687836Y-92360000D02*
X180472164Y-92360000D01*
X180687836Y-91640000D02*
X180472164Y-91640000D01*
%TO.C,C5*%
X168960000Y-97007836D02*
X168960000Y-96792164D01*
X168240000Y-97007836D02*
X168240000Y-96792164D01*
%TO.C,C6*%
X164460000Y-96792164D02*
X164460000Y-97007836D01*
X163740000Y-96792164D02*
X163740000Y-97007836D01*
%TO.C,C7*%
X180940000Y-99292164D02*
X180940000Y-99507836D01*
X181660000Y-99292164D02*
X181660000Y-99507836D01*
%TO.C,D1*%
X169397303Y-104984681D02*
X171350716Y-106623789D01*
X168304564Y-106286956D02*
X170257977Y-107926065D01*
X169397303Y-104984681D02*
X168304564Y-106286956D01*
%TO.C,D2*%
X185550000Y-102600000D02*
X183850000Y-102600000D01*
X183850000Y-102600000D02*
X183850000Y-105150000D01*
X185550000Y-102600000D02*
X185550000Y-105150000D01*
%TO.C,R1*%
X177646359Y-104020000D02*
X177953641Y-104020000D01*
X177646359Y-104780000D02*
X177953641Y-104780000D01*
%TO.C,R3*%
X177646359Y-107580000D02*
X177953641Y-107580000D01*
X177646359Y-106820000D02*
X177953641Y-106820000D01*
%TO.C,R4*%
X167646359Y-92080000D02*
X167953641Y-92080000D01*
X167646359Y-91320000D02*
X167953641Y-91320000D01*
%TO.C,R5*%
X179920000Y-99553641D02*
X179920000Y-99246359D01*
X180680000Y-99553641D02*
X180680000Y-99246359D01*
%TO.C,SWD*%
X170600000Y-92650000D02*
X171600000Y-92650000D01*
X170600000Y-92650000D02*
X170600000Y-91650000D01*
X178600000Y-89450000D02*
X175000000Y-89450000D01*
X178600000Y-90300000D02*
X178600000Y-89450000D01*
X178800000Y-90300000D02*
X178600000Y-90300000D01*
X178800000Y-91100000D02*
X178800000Y-90300000D01*
X178600000Y-91100000D02*
X178800000Y-91100000D01*
X178600000Y-91850000D02*
X178600000Y-91100000D01*
X175000000Y-91850000D02*
X178600000Y-91850000D01*
X171400000Y-89450000D02*
X175000000Y-89450000D01*
X171400000Y-90300000D02*
X171400000Y-89450000D01*
X171200000Y-90300000D02*
X171400000Y-90300000D01*
X171200000Y-91100000D02*
X171200000Y-90300000D01*
X171400000Y-91100000D02*
X171200000Y-91100000D01*
X171400000Y-91850000D02*
X171400000Y-91100000D01*
X175000000Y-91850000D02*
X171400000Y-91850000D01*
X179110000Y-88940000D02*
X170890000Y-88940000D01*
X179110000Y-92360000D02*
X179110000Y-88940000D01*
X170890000Y-92360000D02*
X179110000Y-92360000D01*
X170890000Y-88940000D02*
X170890000Y-92360000D01*
%TD*%
%TO.C,U1*%
D10*
X168426190Y-95180952D02*
X168830952Y-95180952D01*
X168878571Y-95157142D01*
X168902380Y-95133333D01*
X168926190Y-95085714D01*
X168926190Y-94990476D01*
X168902380Y-94942857D01*
X168878571Y-94919047D01*
X168830952Y-94895238D01*
X168426190Y-94895238D01*
X168926190Y-94395238D02*
X168926190Y-94680952D01*
X168926190Y-94538095D02*
X168426190Y-94538095D01*
X168497619Y-94585714D01*
X168545238Y-94633333D01*
X168569047Y-94680952D01*
%TO.C,D3*%
D12*
X168930952Y-93326190D02*
X168930952Y-92826190D01*
X169050000Y-92826190D01*
X169121428Y-92850000D01*
X169169047Y-92897619D01*
X169192857Y-92945238D01*
X169216666Y-93040476D01*
X169216666Y-93111904D01*
X169192857Y-93207142D01*
X169169047Y-93254761D01*
X169121428Y-93302380D01*
X169050000Y-93326190D01*
X168930952Y-93326190D01*
X169383333Y-92826190D02*
X169692857Y-92826190D01*
X169526190Y-93016666D01*
X169597619Y-93016666D01*
X169645238Y-93040476D01*
X169669047Y-93064285D01*
X169692857Y-93111904D01*
X169692857Y-93230952D01*
X169669047Y-93278571D01*
X169645238Y-93302380D01*
X169597619Y-93326190D01*
X169454761Y-93326190D01*
X169407142Y-93302380D01*
X169383333Y-93278571D01*
%TO.C,Q1*%
D10*
X182573809Y-103347619D02*
X182550000Y-103395238D01*
X182502380Y-103442857D01*
X182430952Y-103514285D01*
X182407142Y-103561904D01*
X182407142Y-103609523D01*
X182526190Y-103585714D02*
X182502380Y-103633333D01*
X182454761Y-103680952D01*
X182359523Y-103704761D01*
X182192857Y-103704761D01*
X182097619Y-103680952D01*
X182050000Y-103633333D01*
X182026190Y-103585714D01*
X182026190Y-103490476D01*
X182050000Y-103442857D01*
X182097619Y-103395238D01*
X182192857Y-103371428D01*
X182359523Y-103371428D01*
X182454761Y-103395238D01*
X182502380Y-103442857D01*
X182526190Y-103490476D01*
X182526190Y-103585714D01*
X182526190Y-102895238D02*
X182526190Y-103180952D01*
X182526190Y-103038095D02*
X182026190Y-103038095D01*
X182097619Y-103085714D01*
X182145238Y-103133333D01*
X182169047Y-103180952D01*
%TO.C,Q2*%
X179873809Y-110547619D02*
X179850000Y-110595238D01*
X179802380Y-110642857D01*
X179730952Y-110714285D01*
X179707142Y-110761904D01*
X179707142Y-110809523D01*
X179826190Y-110785714D02*
X179802380Y-110833333D01*
X179754761Y-110880952D01*
X179659523Y-110904761D01*
X179492857Y-110904761D01*
X179397619Y-110880952D01*
X179350000Y-110833333D01*
X179326190Y-110785714D01*
X179326190Y-110690476D01*
X179350000Y-110642857D01*
X179397619Y-110595238D01*
X179492857Y-110571428D01*
X179659523Y-110571428D01*
X179754761Y-110595238D01*
X179802380Y-110642857D01*
X179826190Y-110690476D01*
X179826190Y-110785714D01*
X179373809Y-110380952D02*
X179350000Y-110357142D01*
X179326190Y-110309523D01*
X179326190Y-110190476D01*
X179350000Y-110142857D01*
X179373809Y-110119047D01*
X179421428Y-110095238D01*
X179469047Y-110095238D01*
X179540476Y-110119047D01*
X179826190Y-110404761D01*
X179826190Y-110095238D01*
%TO.C,R2*%
X170390770Y-110419706D02*
X170416141Y-110130183D01*
X170171900Y-110236052D02*
X170493294Y-109853030D01*
X170639207Y-109975466D01*
X170660381Y-110024314D01*
X170663316Y-110057857D01*
X170650946Y-110109640D01*
X170605033Y-110164358D01*
X170556184Y-110185532D01*
X170522641Y-110188466D01*
X170470858Y-110176096D01*
X170324945Y-110053661D01*
X170827468Y-110195598D02*
X170861012Y-110192663D01*
X170912795Y-110205033D01*
X171003990Y-110281555D01*
X171025164Y-110330403D01*
X171028099Y-110363947D01*
X171015729Y-110415730D01*
X170985120Y-110452208D01*
X170920968Y-110491621D01*
X170518444Y-110526837D01*
X170755553Y-110725795D01*
%TO.C,U2*%
D12*
X166319047Y-105826190D02*
X166319047Y-106230952D01*
X166342857Y-106278571D01*
X166366666Y-106302380D01*
X166414285Y-106326190D01*
X166509523Y-106326190D01*
X166557142Y-106302380D01*
X166580952Y-106278571D01*
X166604761Y-106230952D01*
X166604761Y-105826190D01*
X166819047Y-105873809D02*
X166842857Y-105850000D01*
X166890476Y-105826190D01*
X167009523Y-105826190D01*
X167057142Y-105850000D01*
X167080952Y-105873809D01*
X167104761Y-105921428D01*
X167104761Y-105969047D01*
X167080952Y-106040476D01*
X166795238Y-106326190D01*
X167104761Y-106326190D01*
%TO.C,U3*%
D13*
X185052380Y-97561904D02*
X185861904Y-97561904D01*
X185957142Y-97514285D01*
X186004761Y-97466666D01*
X186052380Y-97371428D01*
X186052380Y-97180952D01*
X186004761Y-97085714D01*
X185957142Y-97038095D01*
X185861904Y-96990476D01*
X185052380Y-96990476D01*
X185052380Y-96609523D02*
X185052380Y-95990476D01*
X185433333Y-96323809D01*
X185433333Y-96180952D01*
X185480952Y-96085714D01*
X185528571Y-96038095D01*
X185623809Y-95990476D01*
X185861904Y-95990476D01*
X185957142Y-96038095D01*
X186004761Y-96085714D01*
X186052380Y-96180952D01*
X186052380Y-96466666D01*
X186004761Y-96561904D01*
X185957142Y-96609523D01*
%TO.C,C4*%
D12*
X175916666Y-111778571D02*
X175892857Y-111802380D01*
X175821428Y-111826190D01*
X175773809Y-111826190D01*
X175702380Y-111802380D01*
X175654761Y-111754761D01*
X175630952Y-111707142D01*
X175607142Y-111611904D01*
X175607142Y-111540476D01*
X175630952Y-111445238D01*
X175654761Y-111397619D01*
X175702380Y-111350000D01*
X175773809Y-111326190D01*
X175821428Y-111326190D01*
X175892857Y-111350000D01*
X175916666Y-111373809D01*
X176345238Y-111492857D02*
X176345238Y-111826190D01*
X176226190Y-111302380D02*
X176107142Y-111659523D01*
X176416666Y-111659523D01*
%TO.C,PGND*%
D10*
X186826190Y-100892857D02*
X186326190Y-100892857D01*
X186326190Y-100702380D01*
X186350000Y-100654761D01*
X186373809Y-100630952D01*
X186421428Y-100607142D01*
X186492857Y-100607142D01*
X186540476Y-100630952D01*
X186564285Y-100654761D01*
X186588095Y-100702380D01*
X186588095Y-100892857D01*
X186350000Y-100130952D02*
X186326190Y-100178571D01*
X186326190Y-100250000D01*
X186350000Y-100321428D01*
X186397619Y-100369047D01*
X186445238Y-100392857D01*
X186540476Y-100416666D01*
X186611904Y-100416666D01*
X186707142Y-100392857D01*
X186754761Y-100369047D01*
X186802380Y-100321428D01*
X186826190Y-100250000D01*
X186826190Y-100202380D01*
X186802380Y-100130952D01*
X186778571Y-100107142D01*
X186611904Y-100107142D01*
X186611904Y-100202380D01*
X186826190Y-99892857D02*
X186326190Y-99892857D01*
X186826190Y-99607142D01*
X186326190Y-99607142D01*
X186826190Y-99369047D02*
X186326190Y-99369047D01*
X186326190Y-99250000D01*
X186350000Y-99178571D01*
X186397619Y-99130952D01*
X186445238Y-99107142D01*
X186540476Y-99083333D01*
X186611904Y-99083333D01*
X186707142Y-99107142D01*
X186754761Y-99130952D01*
X186802380Y-99178571D01*
X186826190Y-99250000D01*
X186826190Y-99369047D01*
%TO.C,PVCC*%
X163776190Y-100845238D02*
X163276190Y-100845238D01*
X163276190Y-100654761D01*
X163300000Y-100607142D01*
X163323809Y-100583333D01*
X163371428Y-100559523D01*
X163442857Y-100559523D01*
X163490476Y-100583333D01*
X163514285Y-100607142D01*
X163538095Y-100654761D01*
X163538095Y-100845238D01*
X163276190Y-100416666D02*
X163776190Y-100250000D01*
X163276190Y-100083333D01*
X163728571Y-99630952D02*
X163752380Y-99654761D01*
X163776190Y-99726190D01*
X163776190Y-99773809D01*
X163752380Y-99845238D01*
X163704761Y-99892857D01*
X163657142Y-99916666D01*
X163561904Y-99940476D01*
X163490476Y-99940476D01*
X163395238Y-99916666D01*
X163347619Y-99892857D01*
X163300000Y-99845238D01*
X163276190Y-99773809D01*
X163276190Y-99726190D01*
X163300000Y-99654761D01*
X163323809Y-99630952D01*
X163728571Y-99130952D02*
X163752380Y-99154761D01*
X163776190Y-99226190D01*
X163776190Y-99273809D01*
X163752380Y-99345238D01*
X163704761Y-99392857D01*
X163657142Y-99416666D01*
X163561904Y-99440476D01*
X163490476Y-99440476D01*
X163395238Y-99416666D01*
X163347619Y-99392857D01*
X163300000Y-99345238D01*
X163276190Y-99273809D01*
X163276190Y-99226190D01*
X163300000Y-99154761D01*
X163323809Y-99130952D01*
%TO.C,C1*%
D12*
X181916666Y-91178571D02*
X181892857Y-91202380D01*
X181821428Y-91226190D01*
X181773809Y-91226190D01*
X181702380Y-91202380D01*
X181654761Y-91154761D01*
X181630952Y-91107142D01*
X181607142Y-91011904D01*
X181607142Y-90940476D01*
X181630952Y-90845238D01*
X181654761Y-90797619D01*
X181702380Y-90750000D01*
X181773809Y-90726190D01*
X181821428Y-90726190D01*
X181892857Y-90750000D01*
X181916666Y-90773809D01*
X182392857Y-91226190D02*
X182107142Y-91226190D01*
X182250000Y-91226190D02*
X182250000Y-90726190D01*
X182202380Y-90797619D01*
X182154761Y-90845238D01*
X182107142Y-90869047D01*
%TO.C,C2*%
X164578571Y-104483333D02*
X164602380Y-104507142D01*
X164626190Y-104578571D01*
X164626190Y-104626190D01*
X164602380Y-104697619D01*
X164554761Y-104745238D01*
X164507142Y-104769047D01*
X164411904Y-104792857D01*
X164340476Y-104792857D01*
X164245238Y-104769047D01*
X164197619Y-104745238D01*
X164150000Y-104697619D01*
X164126190Y-104626190D01*
X164126190Y-104578571D01*
X164150000Y-104507142D01*
X164173809Y-104483333D01*
X164173809Y-104292857D02*
X164150000Y-104269047D01*
X164126190Y-104221428D01*
X164126190Y-104102380D01*
X164150000Y-104054761D01*
X164173809Y-104030952D01*
X164221428Y-104007142D01*
X164269047Y-104007142D01*
X164340476Y-104030952D01*
X164626190Y-104316666D01*
X164626190Y-104007142D01*
%TO.C,C3*%
X181916666Y-92178571D02*
X181892857Y-92202380D01*
X181821428Y-92226190D01*
X181773809Y-92226190D01*
X181702380Y-92202380D01*
X181654761Y-92154761D01*
X181630952Y-92107142D01*
X181607142Y-92011904D01*
X181607142Y-91940476D01*
X181630952Y-91845238D01*
X181654761Y-91797619D01*
X181702380Y-91750000D01*
X181773809Y-91726190D01*
X181821428Y-91726190D01*
X181892857Y-91750000D01*
X181916666Y-91773809D01*
X182083333Y-91726190D02*
X182392857Y-91726190D01*
X182226190Y-91916666D01*
X182297619Y-91916666D01*
X182345238Y-91940476D01*
X182369047Y-91964285D01*
X182392857Y-92011904D01*
X182392857Y-92130952D01*
X182369047Y-92178571D01*
X182345238Y-92202380D01*
X182297619Y-92226190D01*
X182154761Y-92226190D01*
X182107142Y-92202380D01*
X182083333Y-92178571D01*
%TO.C,C5*%
X168778571Y-98483333D02*
X168802380Y-98507142D01*
X168826190Y-98578571D01*
X168826190Y-98626190D01*
X168802380Y-98697619D01*
X168754761Y-98745238D01*
X168707142Y-98769047D01*
X168611904Y-98792857D01*
X168540476Y-98792857D01*
X168445238Y-98769047D01*
X168397619Y-98745238D01*
X168350000Y-98697619D01*
X168326190Y-98626190D01*
X168326190Y-98578571D01*
X168350000Y-98507142D01*
X168373809Y-98483333D01*
X168326190Y-98030952D02*
X168326190Y-98269047D01*
X168564285Y-98292857D01*
X168540476Y-98269047D01*
X168516666Y-98221428D01*
X168516666Y-98102380D01*
X168540476Y-98054761D01*
X168564285Y-98030952D01*
X168611904Y-98007142D01*
X168730952Y-98007142D01*
X168778571Y-98030952D01*
X168802380Y-98054761D01*
X168826190Y-98102380D01*
X168826190Y-98221428D01*
X168802380Y-98269047D01*
X168778571Y-98292857D01*
%TO.C,C6*%
X163978571Y-98483333D02*
X164002380Y-98507142D01*
X164026190Y-98578571D01*
X164026190Y-98626190D01*
X164002380Y-98697619D01*
X163954761Y-98745238D01*
X163907142Y-98769047D01*
X163811904Y-98792857D01*
X163740476Y-98792857D01*
X163645238Y-98769047D01*
X163597619Y-98745238D01*
X163550000Y-98697619D01*
X163526190Y-98626190D01*
X163526190Y-98578571D01*
X163550000Y-98507142D01*
X163573809Y-98483333D01*
X163526190Y-98054761D02*
X163526190Y-98150000D01*
X163550000Y-98197619D01*
X163573809Y-98221428D01*
X163645238Y-98269047D01*
X163740476Y-98292857D01*
X163930952Y-98292857D01*
X163978571Y-98269047D01*
X164002380Y-98245238D01*
X164026190Y-98197619D01*
X164026190Y-98102380D01*
X164002380Y-98054761D01*
X163978571Y-98030952D01*
X163930952Y-98007142D01*
X163811904Y-98007142D01*
X163764285Y-98030952D01*
X163740476Y-98054761D01*
X163716666Y-98102380D01*
X163716666Y-98197619D01*
X163740476Y-98245238D01*
X163764285Y-98269047D01*
X163811904Y-98292857D01*
%TO.C,C7*%
X181216666Y-98378571D02*
X181192857Y-98402380D01*
X181121428Y-98426190D01*
X181073809Y-98426190D01*
X181002380Y-98402380D01*
X180954761Y-98354761D01*
X180930952Y-98307142D01*
X180907142Y-98211904D01*
X180907142Y-98140476D01*
X180930952Y-98045238D01*
X180954761Y-97997619D01*
X181002380Y-97950000D01*
X181073809Y-97926190D01*
X181121428Y-97926190D01*
X181192857Y-97950000D01*
X181216666Y-97973809D01*
X181383333Y-97926190D02*
X181716666Y-97926190D01*
X181502380Y-98426190D01*
%TO.C,D1*%
X170471900Y-105436052D02*
X170793294Y-105053030D01*
X170884490Y-105129552D01*
X170923903Y-105193705D01*
X170929772Y-105260792D01*
X170917402Y-105312575D01*
X170874424Y-105400836D01*
X170828510Y-105455553D01*
X170749053Y-105513206D01*
X170700205Y-105534379D01*
X170633118Y-105540249D01*
X170563096Y-105512575D01*
X170471900Y-105436052D01*
X171055553Y-105925795D02*
X170836683Y-105742142D01*
X170946118Y-105833968D02*
X171267512Y-105450946D01*
X171185120Y-105475055D01*
X171118033Y-105480924D01*
X171066250Y-105468554D01*
%TO.C,D2*%
X186326190Y-103269047D02*
X185826190Y-103269047D01*
X185826190Y-103150000D01*
X185850000Y-103078571D01*
X185897619Y-103030952D01*
X185945238Y-103007142D01*
X186040476Y-102983333D01*
X186111904Y-102983333D01*
X186207142Y-103007142D01*
X186254761Y-103030952D01*
X186302380Y-103078571D01*
X186326190Y-103150000D01*
X186326190Y-103269047D01*
X185873809Y-102792857D02*
X185850000Y-102769047D01*
X185826190Y-102721428D01*
X185826190Y-102602380D01*
X185850000Y-102554761D01*
X185873809Y-102530952D01*
X185921428Y-102507142D01*
X185969047Y-102507142D01*
X186040476Y-102530952D01*
X186326190Y-102816666D01*
X186326190Y-102507142D01*
%TO.C,R1*%
X177716666Y-105526190D02*
X177550000Y-105288095D01*
X177430952Y-105526190D02*
X177430952Y-105026190D01*
X177621428Y-105026190D01*
X177669047Y-105050000D01*
X177692857Y-105073809D01*
X177716666Y-105121428D01*
X177716666Y-105192857D01*
X177692857Y-105240476D01*
X177669047Y-105264285D01*
X177621428Y-105288095D01*
X177430952Y-105288095D01*
X178192857Y-105526190D02*
X177907142Y-105526190D01*
X178050000Y-105526190D02*
X178050000Y-105026190D01*
X178002380Y-105097619D01*
X177954761Y-105145238D01*
X177907142Y-105169047D01*
%TO.C,R3*%
X177716666Y-106526190D02*
X177550000Y-106288095D01*
X177430952Y-106526190D02*
X177430952Y-106026190D01*
X177621428Y-106026190D01*
X177669047Y-106050000D01*
X177692857Y-106073809D01*
X177716666Y-106121428D01*
X177716666Y-106192857D01*
X177692857Y-106240476D01*
X177669047Y-106264285D01*
X177621428Y-106288095D01*
X177430952Y-106288095D01*
X177883333Y-106026190D02*
X178192857Y-106026190D01*
X178026190Y-106216666D01*
X178097619Y-106216666D01*
X178145238Y-106240476D01*
X178169047Y-106264285D01*
X178192857Y-106311904D01*
X178192857Y-106430952D01*
X178169047Y-106478571D01*
X178145238Y-106502380D01*
X178097619Y-106526190D01*
X177954761Y-106526190D01*
X177907142Y-106502380D01*
X177883333Y-106478571D01*
%TO.C,R4*%
X168216666Y-91026190D02*
X168050000Y-90788095D01*
X167930952Y-91026190D02*
X167930952Y-90526190D01*
X168121428Y-90526190D01*
X168169047Y-90550000D01*
X168192857Y-90573809D01*
X168216666Y-90621428D01*
X168216666Y-90692857D01*
X168192857Y-90740476D01*
X168169047Y-90764285D01*
X168121428Y-90788095D01*
X167930952Y-90788095D01*
X168645238Y-90692857D02*
X168645238Y-91026190D01*
X168526190Y-90502380D02*
X168407142Y-90859523D01*
X168716666Y-90859523D01*
%TO.C,R5*%
X180216666Y-98426190D02*
X180050000Y-98188095D01*
X179930952Y-98426190D02*
X179930952Y-97926190D01*
X180121428Y-97926190D01*
X180169047Y-97950000D01*
X180192857Y-97973809D01*
X180216666Y-98021428D01*
X180216666Y-98092857D01*
X180192857Y-98140476D01*
X180169047Y-98164285D01*
X180121428Y-98188095D01*
X179930952Y-98188095D01*
X180669047Y-97926190D02*
X180430952Y-97926190D01*
X180407142Y-98164285D01*
X180430952Y-98140476D01*
X180478571Y-98116666D01*
X180597619Y-98116666D01*
X180645238Y-98140476D01*
X180669047Y-98164285D01*
X180692857Y-98211904D01*
X180692857Y-98330952D01*
X180669047Y-98378571D01*
X180645238Y-98402380D01*
X180597619Y-98426190D01*
X180478571Y-98426190D01*
X180430952Y-98402380D01*
X180407142Y-98378571D01*
%TO.C,SWD*%
X174321428Y-88702380D02*
X174392857Y-88726190D01*
X174511904Y-88726190D01*
X174559523Y-88702380D01*
X174583333Y-88678571D01*
X174607142Y-88630952D01*
X174607142Y-88583333D01*
X174583333Y-88535714D01*
X174559523Y-88511904D01*
X174511904Y-88488095D01*
X174416666Y-88464285D01*
X174369047Y-88440476D01*
X174345238Y-88416666D01*
X174321428Y-88369047D01*
X174321428Y-88321428D01*
X174345238Y-88273809D01*
X174369047Y-88250000D01*
X174416666Y-88226190D01*
X174535714Y-88226190D01*
X174607142Y-88250000D01*
X174773809Y-88226190D02*
X174892857Y-88726190D01*
X174988095Y-88369047D01*
X175083333Y-88726190D01*
X175202380Y-88226190D01*
X175392857Y-88726190D02*
X175392857Y-88226190D01*
X175511904Y-88226190D01*
X175583333Y-88250000D01*
X175630952Y-88297619D01*
X175654761Y-88345238D01*
X175678571Y-88440476D01*
X175678571Y-88511904D01*
X175654761Y-88607142D01*
X175630952Y-88654761D01*
X175583333Y-88702380D01*
X175511904Y-88726190D01*
X175392857Y-88726190D01*
%TD*%
M02*
