%TF.GenerationSoftware,KiCad,Pcbnew,(5.1.6)-1*%
%TF.CreationDate,2020-11-30T19:53:59+01:00*%
%TF.ProjectId,PX12_Board,50583132-5f42-46f6-9172-642e6b696361,V1.0*%
%TF.SameCoordinates,Original*%
%TF.FileFunction,Legend,Top*%
%TF.FilePolarity,Positive*%
%FSLAX46Y46*%
G04 Gerber Fmt 4.6, Leading zero omitted, Abs format (unit mm)*
G04 Created by KiCad (PCBNEW (5.1.6)-1) date 2020-11-30 19:53:59*
%MOMM*%
%LPD*%
G01*
G04 APERTURE LIST*
%ADD10C,0.100000*%
%ADD11C,0.120000*%
%ADD12C,0.150000*%
G04 APERTURE END LIST*
D10*
X169654761Y-89876190D02*
X169654761Y-89376190D01*
X169807142Y-89376190D01*
X169845238Y-89400000D01*
X169864285Y-89423809D01*
X169883333Y-89471428D01*
X169883333Y-89542857D01*
X169864285Y-89590476D01*
X169845238Y-89614285D01*
X169807142Y-89638095D01*
X169654761Y-89638095D01*
X170188095Y-89614285D02*
X170245238Y-89638095D01*
X170264285Y-89661904D01*
X170283333Y-89709523D01*
X170283333Y-89780952D01*
X170264285Y-89828571D01*
X170245238Y-89852380D01*
X170207142Y-89876190D01*
X170054761Y-89876190D01*
X170054761Y-89376190D01*
X170188095Y-89376190D01*
X170226190Y-89400000D01*
X170245238Y-89423809D01*
X170264285Y-89471428D01*
X170264285Y-89519047D01*
X170245238Y-89566666D01*
X170226190Y-89590476D01*
X170188095Y-89614285D01*
X170054761Y-89614285D01*
X170416666Y-89376190D02*
X170664285Y-89376190D01*
X170530952Y-89566666D01*
X170588095Y-89566666D01*
X170626190Y-89590476D01*
X170645238Y-89614285D01*
X170664285Y-89661904D01*
X170664285Y-89780952D01*
X170645238Y-89828571D01*
X170626190Y-89852380D01*
X170588095Y-89876190D01*
X170473809Y-89876190D01*
X170435714Y-89852380D01*
X170416666Y-89828571D01*
X180017857Y-109846428D02*
X180267857Y-109846428D01*
X180375000Y-110239285D02*
X180017857Y-110239285D01*
X180017857Y-109489285D01*
X180375000Y-109489285D01*
X180589285Y-109489285D02*
X180839285Y-110239285D01*
X181089285Y-109489285D01*
D11*
%TO.C,U1*%
X168060000Y-96400000D02*
X168060000Y-94600000D01*
X164840000Y-94600000D02*
X164840000Y-97050000D01*
%TO.C,C7*%
X180740000Y-98309420D02*
X180740000Y-98590580D01*
X181760000Y-98309420D02*
X181760000Y-98590580D01*
%TO.C,KLIN2*%
X179310000Y-102460000D02*
X179310000Y-97340000D01*
X179310000Y-97340000D02*
X170190000Y-97340000D01*
X170190000Y-97340000D02*
X169190000Y-98340000D01*
X169190000Y-98340000D02*
X169190000Y-102460000D01*
X169190000Y-102460000D02*
X179310000Y-102460000D01*
X179610000Y-99450000D02*
X179610000Y-97040000D01*
X179610000Y-97040000D02*
X177200000Y-97040000D01*
%TO.C,D3*%
X170950000Y-90165000D02*
X168665000Y-90165000D01*
X168665000Y-90165000D02*
X168665000Y-91635000D01*
X168665000Y-91635000D02*
X170950000Y-91635000D01*
%TO.C,KLIN1*%
X179610000Y-91290000D02*
X177200000Y-91290000D01*
X179610000Y-93700000D02*
X179610000Y-91290000D01*
X169190000Y-96710000D02*
X179310000Y-96710000D01*
X169190000Y-92590000D02*
X169190000Y-96710000D01*
X170190000Y-91590000D02*
X169190000Y-92590000D01*
X179310000Y-91590000D02*
X170190000Y-91590000D01*
X179310000Y-96710000D02*
X179310000Y-91590000D01*
%TO.C,C3*%
X181190580Y-90790000D02*
X180909420Y-90790000D01*
X181190580Y-91810000D02*
X180909420Y-91810000D01*
%TO.C,Q1*%
X181760000Y-104080000D02*
X181760000Y-103150000D01*
X181760000Y-100920000D02*
X181760000Y-101850000D01*
X181760000Y-100920000D02*
X179600000Y-100920000D01*
X181760000Y-104080000D02*
X180300000Y-104080000D01*
%TO.C,VALVE1*%
X178650000Y-104100000D02*
X178650000Y-105100000D01*
X178650000Y-104100000D02*
X179650000Y-104100000D01*
X181850000Y-108350000D02*
X181850000Y-106625000D01*
X181000000Y-108350000D02*
X181850000Y-108350000D01*
X181000000Y-108550000D02*
X181000000Y-108350000D01*
X180200000Y-108550000D02*
X181000000Y-108550000D01*
X180200000Y-108350000D02*
X180200000Y-108550000D01*
X179450000Y-108350000D02*
X180200000Y-108350000D01*
X179450000Y-106625000D02*
X179450000Y-108350000D01*
X181850000Y-104900000D02*
X181850000Y-106625000D01*
X181000000Y-104900000D02*
X181850000Y-104900000D01*
X181000000Y-104700000D02*
X181000000Y-104900000D01*
X180200000Y-104700000D02*
X181000000Y-104700000D01*
X180200000Y-104900000D02*
X180200000Y-104700000D01*
X179450000Y-104900000D02*
X180200000Y-104900000D01*
X179450000Y-106625000D02*
X179450000Y-104900000D01*
X182360000Y-108860000D02*
X182360000Y-104390000D01*
X178940000Y-108860000D02*
X182360000Y-108860000D01*
X178940000Y-104390000D02*
X178940000Y-108860000D01*
X182360000Y-104390000D02*
X178940000Y-104390000D01*
%TO.C,R4*%
X167487742Y-93322500D02*
X167962258Y-93322500D01*
X167487742Y-92277500D02*
X167962258Y-92277500D01*
%TO.C,C5*%
X168090000Y-96790580D02*
X168090000Y-96509420D01*
X169110000Y-96790580D02*
X169110000Y-96509420D01*
%TO.C,C6*%
X164910000Y-96859420D02*
X164910000Y-97140580D01*
X163890000Y-96859420D02*
X163890000Y-97140580D01*
%TO.C,Q2*%
X178560000Y-111280000D02*
X177100000Y-111280000D01*
X178560000Y-108120000D02*
X176400000Y-108120000D01*
X178560000Y-108120000D02*
X178560000Y-109050000D01*
X178560000Y-111280000D02*
X178560000Y-110350000D01*
%TO.C,R1*%
X176777500Y-104037742D02*
X176777500Y-104512258D01*
X177822500Y-104037742D02*
X177822500Y-104512258D01*
%TO.C,R5*%
X179527500Y-98687258D02*
X179527500Y-98212742D01*
X180572500Y-98687258D02*
X180572500Y-98212742D01*
%TO.C,D1*%
X171350000Y-103050000D02*
X171350000Y-105050000D01*
X171350000Y-105050000D02*
X175250000Y-105050000D01*
X171350000Y-103050000D02*
X175250000Y-103050000D01*
%TO.C,SWD1*%
X171590000Y-90810000D02*
X171590000Y-89700000D01*
X172350000Y-90810000D02*
X171590000Y-90810000D01*
X173110000Y-89136529D02*
X173110000Y-88590000D01*
X173110000Y-90810000D02*
X173110000Y-90263471D01*
X173110000Y-88590000D02*
X178125000Y-88590000D01*
X173110000Y-90810000D02*
X178125000Y-90810000D01*
X178125000Y-89392470D02*
X178125000Y-88590000D01*
X178125000Y-90810000D02*
X178125000Y-90007530D01*
%TO.C,D2*%
X184600000Y-102450000D02*
X184600000Y-106350000D01*
X182600000Y-102450000D02*
X182600000Y-106350000D01*
X184600000Y-102450000D02*
X182600000Y-102450000D01*
%TO.C,R2*%
X168764564Y-104810000D02*
X167310436Y-104810000D01*
X168764564Y-102990000D02*
X167310436Y-102990000D01*
%TO.C,R3*%
X177537258Y-107622500D02*
X177062742Y-107622500D01*
X177537258Y-106577500D02*
X177062742Y-106577500D01*
%TO.C,U2*%
X169300000Y-105340000D02*
X167500000Y-105340000D01*
X167500000Y-108560000D02*
X169950000Y-108560000D01*
%TO.C,U3*%
X179890000Y-92615000D02*
X179890000Y-92390000D01*
X179890000Y-92390000D02*
X180115000Y-92390000D01*
X184110000Y-96385000D02*
X184110000Y-96610000D01*
X184110000Y-96610000D02*
X183885000Y-96610000D01*
X184110000Y-92615000D02*
X184110000Y-92390000D01*
X184110000Y-92390000D02*
X183885000Y-92390000D01*
X179890000Y-96385000D02*
X179890000Y-96610000D01*
%TO.C,C4*%
X175720000Y-108400000D02*
G75*
G03*
X175720000Y-108400000I-2620000J0D01*
G01*
X172060000Y-108400000D02*
X170520000Y-108400000D01*
X175680000Y-108400000D02*
X174140000Y-108400000D01*
X172060000Y-108440000D02*
X170520000Y-108440000D01*
X175680000Y-108440000D02*
X174140000Y-108440000D01*
X175679000Y-108480000D02*
X174140000Y-108480000D01*
X172060000Y-108480000D02*
X170521000Y-108480000D01*
X175678000Y-108520000D02*
X174140000Y-108520000D01*
X172060000Y-108520000D02*
X170522000Y-108520000D01*
X175676000Y-108560000D02*
X174140000Y-108560000D01*
X172060000Y-108560000D02*
X170524000Y-108560000D01*
X175673000Y-108600000D02*
X174140000Y-108600000D01*
X172060000Y-108600000D02*
X170527000Y-108600000D01*
X175669000Y-108640000D02*
X174140000Y-108640000D01*
X172060000Y-108640000D02*
X170531000Y-108640000D01*
X175665000Y-108680000D02*
X174140000Y-108680000D01*
X172060000Y-108680000D02*
X170535000Y-108680000D01*
X175661000Y-108720000D02*
X174140000Y-108720000D01*
X172060000Y-108720000D02*
X170539000Y-108720000D01*
X175656000Y-108760000D02*
X174140000Y-108760000D01*
X172060000Y-108760000D02*
X170544000Y-108760000D01*
X175650000Y-108800000D02*
X174140000Y-108800000D01*
X172060000Y-108800000D02*
X170550000Y-108800000D01*
X175643000Y-108840000D02*
X174140000Y-108840000D01*
X172060000Y-108840000D02*
X170557000Y-108840000D01*
X175636000Y-108880000D02*
X174140000Y-108880000D01*
X172060000Y-108880000D02*
X170564000Y-108880000D01*
X175628000Y-108920000D02*
X174140000Y-108920000D01*
X172060000Y-108920000D02*
X170572000Y-108920000D01*
X175620000Y-108960000D02*
X174140000Y-108960000D01*
X172060000Y-108960000D02*
X170580000Y-108960000D01*
X175611000Y-109000000D02*
X174140000Y-109000000D01*
X172060000Y-109000000D02*
X170589000Y-109000000D01*
X175601000Y-109040000D02*
X174140000Y-109040000D01*
X172060000Y-109040000D02*
X170599000Y-109040000D01*
X175591000Y-109080000D02*
X174140000Y-109080000D01*
X172060000Y-109080000D02*
X170609000Y-109080000D01*
X175580000Y-109121000D02*
X174140000Y-109121000D01*
X172060000Y-109121000D02*
X170620000Y-109121000D01*
X175568000Y-109161000D02*
X174140000Y-109161000D01*
X172060000Y-109161000D02*
X170632000Y-109161000D01*
X175555000Y-109201000D02*
X174140000Y-109201000D01*
X172060000Y-109201000D02*
X170645000Y-109201000D01*
X175542000Y-109241000D02*
X174140000Y-109241000D01*
X172060000Y-109241000D02*
X170658000Y-109241000D01*
X175528000Y-109281000D02*
X174140000Y-109281000D01*
X172060000Y-109281000D02*
X170672000Y-109281000D01*
X175514000Y-109321000D02*
X174140000Y-109321000D01*
X172060000Y-109321000D02*
X170686000Y-109321000D01*
X175498000Y-109361000D02*
X174140000Y-109361000D01*
X172060000Y-109361000D02*
X170702000Y-109361000D01*
X175482000Y-109401000D02*
X174140000Y-109401000D01*
X172060000Y-109401000D02*
X170718000Y-109401000D01*
X175465000Y-109441000D02*
X174140000Y-109441000D01*
X172060000Y-109441000D02*
X170735000Y-109441000D01*
X175448000Y-109481000D02*
X174140000Y-109481000D01*
X172060000Y-109481000D02*
X170752000Y-109481000D01*
X175429000Y-109521000D02*
X174140000Y-109521000D01*
X172060000Y-109521000D02*
X170771000Y-109521000D01*
X175410000Y-109561000D02*
X174140000Y-109561000D01*
X172060000Y-109561000D02*
X170790000Y-109561000D01*
X175390000Y-109601000D02*
X174140000Y-109601000D01*
X172060000Y-109601000D02*
X170810000Y-109601000D01*
X175368000Y-109641000D02*
X174140000Y-109641000D01*
X172060000Y-109641000D02*
X170832000Y-109641000D01*
X175347000Y-109681000D02*
X174140000Y-109681000D01*
X172060000Y-109681000D02*
X170853000Y-109681000D01*
X175324000Y-109721000D02*
X174140000Y-109721000D01*
X172060000Y-109721000D02*
X170876000Y-109721000D01*
X175300000Y-109761000D02*
X174140000Y-109761000D01*
X172060000Y-109761000D02*
X170900000Y-109761000D01*
X175275000Y-109801000D02*
X174140000Y-109801000D01*
X172060000Y-109801000D02*
X170925000Y-109801000D01*
X175249000Y-109841000D02*
X174140000Y-109841000D01*
X172060000Y-109841000D02*
X170951000Y-109841000D01*
X175222000Y-109881000D02*
X174140000Y-109881000D01*
X172060000Y-109881000D02*
X170978000Y-109881000D01*
X175195000Y-109921000D02*
X174140000Y-109921000D01*
X172060000Y-109921000D02*
X171005000Y-109921000D01*
X175165000Y-109961000D02*
X174140000Y-109961000D01*
X172060000Y-109961000D02*
X171035000Y-109961000D01*
X175135000Y-110001000D02*
X174140000Y-110001000D01*
X172060000Y-110001000D02*
X171065000Y-110001000D01*
X175104000Y-110041000D02*
X174140000Y-110041000D01*
X172060000Y-110041000D02*
X171096000Y-110041000D01*
X175071000Y-110081000D02*
X174140000Y-110081000D01*
X172060000Y-110081000D02*
X171129000Y-110081000D01*
X175037000Y-110121000D02*
X174140000Y-110121000D01*
X172060000Y-110121000D02*
X171163000Y-110121000D01*
X175001000Y-110161000D02*
X174140000Y-110161000D01*
X172060000Y-110161000D02*
X171199000Y-110161000D01*
X174964000Y-110201000D02*
X174140000Y-110201000D01*
X172060000Y-110201000D02*
X171236000Y-110201000D01*
X174926000Y-110241000D02*
X174140000Y-110241000D01*
X172060000Y-110241000D02*
X171274000Y-110241000D01*
X174885000Y-110281000D02*
X174140000Y-110281000D01*
X172060000Y-110281000D02*
X171315000Y-110281000D01*
X174843000Y-110321000D02*
X174140000Y-110321000D01*
X172060000Y-110321000D02*
X171357000Y-110321000D01*
X174799000Y-110361000D02*
X174140000Y-110361000D01*
X172060000Y-110361000D02*
X171401000Y-110361000D01*
X174753000Y-110401000D02*
X174140000Y-110401000D01*
X172060000Y-110401000D02*
X171447000Y-110401000D01*
X174705000Y-110441000D02*
X171495000Y-110441000D01*
X174654000Y-110481000D02*
X171546000Y-110481000D01*
X174600000Y-110521000D02*
X171600000Y-110521000D01*
X174543000Y-110561000D02*
X171657000Y-110561000D01*
X174483000Y-110601000D02*
X171717000Y-110601000D01*
X174419000Y-110641000D02*
X171781000Y-110641000D01*
X174351000Y-110681000D02*
X171849000Y-110681000D01*
X174278000Y-110721000D02*
X171922000Y-110721000D01*
X174198000Y-110761000D02*
X172002000Y-110761000D01*
X174111000Y-110801000D02*
X172089000Y-110801000D01*
X174015000Y-110841000D02*
X172185000Y-110841000D01*
X173905000Y-110881000D02*
X172295000Y-110881000D01*
X173777000Y-110921000D02*
X172423000Y-110921000D01*
X173618000Y-110961000D02*
X172582000Y-110961000D01*
X173384000Y-111001000D02*
X172816000Y-111001000D01*
X174575000Y-105595225D02*
X174575000Y-106095225D01*
X174825000Y-105845225D02*
X174325000Y-105845225D01*
%TO.C,C1*%
X179665580Y-90610000D02*
X179384420Y-90610000D01*
X179665580Y-89590000D02*
X179384420Y-89590000D01*
%TO.C,C2*%
X165610000Y-103865580D02*
X165610000Y-103584420D01*
X164590000Y-103865580D02*
X164590000Y-103584420D01*
%TO.C,U1*%
D10*
X166069047Y-93976190D02*
X166069047Y-94380952D01*
X166092857Y-94428571D01*
X166116666Y-94452380D01*
X166164285Y-94476190D01*
X166259523Y-94476190D01*
X166307142Y-94452380D01*
X166330952Y-94428571D01*
X166354761Y-94380952D01*
X166354761Y-93976190D01*
X166854761Y-94476190D02*
X166569047Y-94476190D01*
X166711904Y-94476190D02*
X166711904Y-93976190D01*
X166664285Y-94047619D01*
X166616666Y-94095238D01*
X166569047Y-94119047D01*
%TO.C,C7*%
X181428571Y-100433333D02*
X181452380Y-100457142D01*
X181476190Y-100528571D01*
X181476190Y-100576190D01*
X181452380Y-100647619D01*
X181404761Y-100695238D01*
X181357142Y-100719047D01*
X181261904Y-100742857D01*
X181190476Y-100742857D01*
X181095238Y-100719047D01*
X181047619Y-100695238D01*
X181000000Y-100647619D01*
X180976190Y-100576190D01*
X180976190Y-100528571D01*
X181000000Y-100457142D01*
X181023809Y-100433333D01*
X180976190Y-100266666D02*
X180976190Y-99933333D01*
X181476190Y-100147619D01*
%TO.C,C3*%
X182666666Y-91628571D02*
X182642857Y-91652380D01*
X182571428Y-91676190D01*
X182523809Y-91676190D01*
X182452380Y-91652380D01*
X182404761Y-91604761D01*
X182380952Y-91557142D01*
X182357142Y-91461904D01*
X182357142Y-91390476D01*
X182380952Y-91295238D01*
X182404761Y-91247619D01*
X182452380Y-91200000D01*
X182523809Y-91176190D01*
X182571428Y-91176190D01*
X182642857Y-91200000D01*
X182666666Y-91223809D01*
X182833333Y-91176190D02*
X183142857Y-91176190D01*
X182976190Y-91366666D01*
X183047619Y-91366666D01*
X183095238Y-91390476D01*
X183119047Y-91414285D01*
X183142857Y-91461904D01*
X183142857Y-91580952D01*
X183119047Y-91628571D01*
X183095238Y-91652380D01*
X183047619Y-91676190D01*
X182904761Y-91676190D01*
X182857142Y-91652380D01*
X182833333Y-91628571D01*
%TO.C,Q1*%
X182473809Y-101597619D02*
X182450000Y-101645238D01*
X182402380Y-101692857D01*
X182330952Y-101764285D01*
X182307142Y-101811904D01*
X182307142Y-101859523D01*
X182426190Y-101835714D02*
X182402380Y-101883333D01*
X182354761Y-101930952D01*
X182259523Y-101954761D01*
X182092857Y-101954761D01*
X181997619Y-101930952D01*
X181950000Y-101883333D01*
X181926190Y-101835714D01*
X181926190Y-101740476D01*
X181950000Y-101692857D01*
X181997619Y-101645238D01*
X182092857Y-101621428D01*
X182259523Y-101621428D01*
X182354761Y-101645238D01*
X182402380Y-101692857D01*
X182426190Y-101740476D01*
X182426190Y-101835714D01*
X182426190Y-101145238D02*
X182426190Y-101430952D01*
X182426190Y-101288095D02*
X181926190Y-101288095D01*
X181997619Y-101335714D01*
X182045238Y-101383333D01*
X182069047Y-101430952D01*
%TO.C,R4*%
X167641666Y-91876190D02*
X167475000Y-91638095D01*
X167355952Y-91876190D02*
X167355952Y-91376190D01*
X167546428Y-91376190D01*
X167594047Y-91400000D01*
X167617857Y-91423809D01*
X167641666Y-91471428D01*
X167641666Y-91542857D01*
X167617857Y-91590476D01*
X167594047Y-91614285D01*
X167546428Y-91638095D01*
X167355952Y-91638095D01*
X168070238Y-91542857D02*
X168070238Y-91876190D01*
X167951190Y-91352380D02*
X167832142Y-91709523D01*
X168141666Y-91709523D01*
%TO.C,C5*%
X168678571Y-98708333D02*
X168702380Y-98732142D01*
X168726190Y-98803571D01*
X168726190Y-98851190D01*
X168702380Y-98922619D01*
X168654761Y-98970238D01*
X168607142Y-98994047D01*
X168511904Y-99017857D01*
X168440476Y-99017857D01*
X168345238Y-98994047D01*
X168297619Y-98970238D01*
X168250000Y-98922619D01*
X168226190Y-98851190D01*
X168226190Y-98803571D01*
X168250000Y-98732142D01*
X168273809Y-98708333D01*
X168226190Y-98255952D02*
X168226190Y-98494047D01*
X168464285Y-98517857D01*
X168440476Y-98494047D01*
X168416666Y-98446428D01*
X168416666Y-98327380D01*
X168440476Y-98279761D01*
X168464285Y-98255952D01*
X168511904Y-98232142D01*
X168630952Y-98232142D01*
X168678571Y-98255952D01*
X168702380Y-98279761D01*
X168726190Y-98327380D01*
X168726190Y-98446428D01*
X168702380Y-98494047D01*
X168678571Y-98517857D01*
%TO.C,C6*%
X163728571Y-98433333D02*
X163752380Y-98457142D01*
X163776190Y-98528571D01*
X163776190Y-98576190D01*
X163752380Y-98647619D01*
X163704761Y-98695238D01*
X163657142Y-98719047D01*
X163561904Y-98742857D01*
X163490476Y-98742857D01*
X163395238Y-98719047D01*
X163347619Y-98695238D01*
X163300000Y-98647619D01*
X163276190Y-98576190D01*
X163276190Y-98528571D01*
X163300000Y-98457142D01*
X163323809Y-98433333D01*
X163276190Y-98004761D02*
X163276190Y-98100000D01*
X163300000Y-98147619D01*
X163323809Y-98171428D01*
X163395238Y-98219047D01*
X163490476Y-98242857D01*
X163680952Y-98242857D01*
X163728571Y-98219047D01*
X163752380Y-98195238D01*
X163776190Y-98147619D01*
X163776190Y-98052380D01*
X163752380Y-98004761D01*
X163728571Y-97980952D01*
X163680952Y-97957142D01*
X163561904Y-97957142D01*
X163514285Y-97980952D01*
X163490476Y-98004761D01*
X163466666Y-98052380D01*
X163466666Y-98147619D01*
X163490476Y-98195238D01*
X163514285Y-98219047D01*
X163561904Y-98242857D01*
%TO.C,Q2*%
X179373809Y-110747619D02*
X179350000Y-110795238D01*
X179302380Y-110842857D01*
X179230952Y-110914285D01*
X179207142Y-110961904D01*
X179207142Y-111009523D01*
X179326190Y-110985714D02*
X179302380Y-111033333D01*
X179254761Y-111080952D01*
X179159523Y-111104761D01*
X178992857Y-111104761D01*
X178897619Y-111080952D01*
X178850000Y-111033333D01*
X178826190Y-110985714D01*
X178826190Y-110890476D01*
X178850000Y-110842857D01*
X178897619Y-110795238D01*
X178992857Y-110771428D01*
X179159523Y-110771428D01*
X179254761Y-110795238D01*
X179302380Y-110842857D01*
X179326190Y-110890476D01*
X179326190Y-110985714D01*
X178873809Y-110580952D02*
X178850000Y-110557142D01*
X178826190Y-110509523D01*
X178826190Y-110390476D01*
X178850000Y-110342857D01*
X178873809Y-110319047D01*
X178921428Y-110295238D01*
X178969047Y-110295238D01*
X179040476Y-110319047D01*
X179326190Y-110604761D01*
X179326190Y-110295238D01*
%TO.C,R1*%
X178726190Y-103483333D02*
X178488095Y-103650000D01*
X178726190Y-103769047D02*
X178226190Y-103769047D01*
X178226190Y-103578571D01*
X178250000Y-103530952D01*
X178273809Y-103507142D01*
X178321428Y-103483333D01*
X178392857Y-103483333D01*
X178440476Y-103507142D01*
X178464285Y-103530952D01*
X178488095Y-103578571D01*
X178488095Y-103769047D01*
X178726190Y-103007142D02*
X178726190Y-103292857D01*
X178726190Y-103150000D02*
X178226190Y-103150000D01*
X178297619Y-103197619D01*
X178345238Y-103245238D01*
X178369047Y-103292857D01*
%TO.C,R5*%
X180276190Y-100433333D02*
X180038095Y-100600000D01*
X180276190Y-100719047D02*
X179776190Y-100719047D01*
X179776190Y-100528571D01*
X179800000Y-100480952D01*
X179823809Y-100457142D01*
X179871428Y-100433333D01*
X179942857Y-100433333D01*
X179990476Y-100457142D01*
X180014285Y-100480952D01*
X180038095Y-100528571D01*
X180038095Y-100719047D01*
X179776190Y-99980952D02*
X179776190Y-100219047D01*
X180014285Y-100242857D01*
X179990476Y-100219047D01*
X179966666Y-100171428D01*
X179966666Y-100052380D01*
X179990476Y-100004761D01*
X180014285Y-99980952D01*
X180061904Y-99957142D01*
X180180952Y-99957142D01*
X180228571Y-99980952D01*
X180252380Y-100004761D01*
X180276190Y-100052380D01*
X180276190Y-100171428D01*
X180252380Y-100219047D01*
X180228571Y-100242857D01*
%TO.C,D1*%
D12*
X171139285Y-104553571D02*
X170389285Y-104553571D01*
X170389285Y-104375000D01*
X170425000Y-104267857D01*
X170496428Y-104196428D01*
X170567857Y-104160714D01*
X170710714Y-104125000D01*
X170817857Y-104125000D01*
X170960714Y-104160714D01*
X171032142Y-104196428D01*
X171103571Y-104267857D01*
X171139285Y-104375000D01*
X171139285Y-104553571D01*
X171139285Y-103410714D02*
X171139285Y-103839285D01*
X171139285Y-103625000D02*
X170389285Y-103625000D01*
X170496428Y-103696428D01*
X170567857Y-103767857D01*
X170603571Y-103839285D01*
%TO.C,D2*%
X185639285Y-105003571D02*
X184889285Y-105003571D01*
X184889285Y-104825000D01*
X184925000Y-104717857D01*
X184996428Y-104646428D01*
X185067857Y-104610714D01*
X185210714Y-104575000D01*
X185317857Y-104575000D01*
X185460714Y-104610714D01*
X185532142Y-104646428D01*
X185603571Y-104717857D01*
X185639285Y-104825000D01*
X185639285Y-105003571D01*
X184960714Y-104289285D02*
X184925000Y-104253571D01*
X184889285Y-104182142D01*
X184889285Y-104003571D01*
X184925000Y-103932142D01*
X184960714Y-103896428D01*
X185032142Y-103860714D01*
X185103571Y-103860714D01*
X185210714Y-103896428D01*
X185639285Y-104325000D01*
X185639285Y-103860714D01*
%TO.C,R2*%
D10*
X167966666Y-102426190D02*
X167800000Y-102188095D01*
X167680952Y-102426190D02*
X167680952Y-101926190D01*
X167871428Y-101926190D01*
X167919047Y-101950000D01*
X167942857Y-101973809D01*
X167966666Y-102021428D01*
X167966666Y-102092857D01*
X167942857Y-102140476D01*
X167919047Y-102164285D01*
X167871428Y-102188095D01*
X167680952Y-102188095D01*
X168157142Y-101973809D02*
X168180952Y-101950000D01*
X168228571Y-101926190D01*
X168347619Y-101926190D01*
X168395238Y-101950000D01*
X168419047Y-101973809D01*
X168442857Y-102021428D01*
X168442857Y-102069047D01*
X168419047Y-102140476D01*
X168133333Y-102426190D01*
X168442857Y-102426190D01*
%TO.C,R3*%
X175816666Y-106226190D02*
X175650000Y-105988095D01*
X175530952Y-106226190D02*
X175530952Y-105726190D01*
X175721428Y-105726190D01*
X175769047Y-105750000D01*
X175792857Y-105773809D01*
X175816666Y-105821428D01*
X175816666Y-105892857D01*
X175792857Y-105940476D01*
X175769047Y-105964285D01*
X175721428Y-105988095D01*
X175530952Y-105988095D01*
X175983333Y-105726190D02*
X176292857Y-105726190D01*
X176126190Y-105916666D01*
X176197619Y-105916666D01*
X176245238Y-105940476D01*
X176269047Y-105964285D01*
X176292857Y-106011904D01*
X176292857Y-106130952D01*
X176269047Y-106178571D01*
X176245238Y-106202380D01*
X176197619Y-106226190D01*
X176054761Y-106226190D01*
X176007142Y-106202380D01*
X175983333Y-106178571D01*
%TO.C,U2*%
D12*
X168438095Y-109052380D02*
X168438095Y-109861904D01*
X168485714Y-109957142D01*
X168533333Y-110004761D01*
X168628571Y-110052380D01*
X168819047Y-110052380D01*
X168914285Y-110004761D01*
X168961904Y-109957142D01*
X169009523Y-109861904D01*
X169009523Y-109052380D01*
X169438095Y-109147619D02*
X169485714Y-109100000D01*
X169580952Y-109052380D01*
X169819047Y-109052380D01*
X169914285Y-109100000D01*
X169961904Y-109147619D01*
X170009523Y-109242857D01*
X170009523Y-109338095D01*
X169961904Y-109480952D01*
X169390476Y-110052380D01*
X170009523Y-110052380D01*
%TO.C,U3*%
X184852380Y-97061904D02*
X185661904Y-97061904D01*
X185757142Y-97014285D01*
X185804761Y-96966666D01*
X185852380Y-96871428D01*
X185852380Y-96680952D01*
X185804761Y-96585714D01*
X185757142Y-96538095D01*
X185661904Y-96490476D01*
X184852380Y-96490476D01*
X184852380Y-96109523D02*
X184852380Y-95490476D01*
X185233333Y-95823809D01*
X185233333Y-95680952D01*
X185280952Y-95585714D01*
X185328571Y-95538095D01*
X185423809Y-95490476D01*
X185661904Y-95490476D01*
X185757142Y-95538095D01*
X185804761Y-95585714D01*
X185852380Y-95680952D01*
X185852380Y-95966666D01*
X185804761Y-96061904D01*
X185757142Y-96109523D01*
%TO.C,C4*%
X175033333Y-111757142D02*
X174985714Y-111804761D01*
X174842857Y-111852380D01*
X174747619Y-111852380D01*
X174604761Y-111804761D01*
X174509523Y-111709523D01*
X174461904Y-111614285D01*
X174414285Y-111423809D01*
X174414285Y-111280952D01*
X174461904Y-111090476D01*
X174509523Y-110995238D01*
X174604761Y-110900000D01*
X174747619Y-110852380D01*
X174842857Y-110852380D01*
X174985714Y-110900000D01*
X175033333Y-110947619D01*
X175890476Y-111185714D02*
X175890476Y-111852380D01*
X175652380Y-110804761D02*
X175414285Y-111519047D01*
X176033333Y-111519047D01*
%TO.C,C1*%
D10*
X178616666Y-89178571D02*
X178592857Y-89202380D01*
X178521428Y-89226190D01*
X178473809Y-89226190D01*
X178402380Y-89202380D01*
X178354761Y-89154761D01*
X178330952Y-89107142D01*
X178307142Y-89011904D01*
X178307142Y-88940476D01*
X178330952Y-88845238D01*
X178354761Y-88797619D01*
X178402380Y-88750000D01*
X178473809Y-88726190D01*
X178521428Y-88726190D01*
X178592857Y-88750000D01*
X178616666Y-88773809D01*
X179092857Y-89226190D02*
X178807142Y-89226190D01*
X178950000Y-89226190D02*
X178950000Y-88726190D01*
X178902380Y-88797619D01*
X178854761Y-88845238D01*
X178807142Y-88869047D01*
%TO.C,C2*%
X165478571Y-105933333D02*
X165502380Y-105957142D01*
X165526190Y-106028571D01*
X165526190Y-106076190D01*
X165502380Y-106147619D01*
X165454761Y-106195238D01*
X165407142Y-106219047D01*
X165311904Y-106242857D01*
X165240476Y-106242857D01*
X165145238Y-106219047D01*
X165097619Y-106195238D01*
X165050000Y-106147619D01*
X165026190Y-106076190D01*
X165026190Y-106028571D01*
X165050000Y-105957142D01*
X165073809Y-105933333D01*
X165073809Y-105742857D02*
X165050000Y-105719047D01*
X165026190Y-105671428D01*
X165026190Y-105552380D01*
X165050000Y-105504761D01*
X165073809Y-105480952D01*
X165121428Y-105457142D01*
X165169047Y-105457142D01*
X165240476Y-105480952D01*
X165526190Y-105766666D01*
X165526190Y-105457142D01*
%TO.C,PGND1*%
X186826190Y-101130952D02*
X186326190Y-101130952D01*
X186326190Y-100940476D01*
X186350000Y-100892857D01*
X186373809Y-100869047D01*
X186421428Y-100845238D01*
X186492857Y-100845238D01*
X186540476Y-100869047D01*
X186564285Y-100892857D01*
X186588095Y-100940476D01*
X186588095Y-101130952D01*
X186350000Y-100369047D02*
X186326190Y-100416666D01*
X186326190Y-100488095D01*
X186350000Y-100559523D01*
X186397619Y-100607142D01*
X186445238Y-100630952D01*
X186540476Y-100654761D01*
X186611904Y-100654761D01*
X186707142Y-100630952D01*
X186754761Y-100607142D01*
X186802380Y-100559523D01*
X186826190Y-100488095D01*
X186826190Y-100440476D01*
X186802380Y-100369047D01*
X186778571Y-100345238D01*
X186611904Y-100345238D01*
X186611904Y-100440476D01*
X186826190Y-100130952D02*
X186326190Y-100130952D01*
X186826190Y-99845238D01*
X186326190Y-99845238D01*
X186826190Y-99607142D02*
X186326190Y-99607142D01*
X186326190Y-99488095D01*
X186350000Y-99416666D01*
X186397619Y-99369047D01*
X186445238Y-99345238D01*
X186540476Y-99321428D01*
X186611904Y-99321428D01*
X186707142Y-99345238D01*
X186754761Y-99369047D01*
X186802380Y-99416666D01*
X186826190Y-99488095D01*
X186826190Y-99607142D01*
X186826190Y-98845238D02*
X186826190Y-99130952D01*
X186826190Y-98988095D02*
X186326190Y-98988095D01*
X186397619Y-99035714D01*
X186445238Y-99083333D01*
X186469047Y-99130952D01*
%TO.C,PVCC1*%
X163776190Y-101083333D02*
X163276190Y-101083333D01*
X163276190Y-100892857D01*
X163300000Y-100845238D01*
X163323809Y-100821428D01*
X163371428Y-100797619D01*
X163442857Y-100797619D01*
X163490476Y-100821428D01*
X163514285Y-100845238D01*
X163538095Y-100892857D01*
X163538095Y-101083333D01*
X163276190Y-100654761D02*
X163776190Y-100488095D01*
X163276190Y-100321428D01*
X163728571Y-99869047D02*
X163752380Y-99892857D01*
X163776190Y-99964285D01*
X163776190Y-100011904D01*
X163752380Y-100083333D01*
X163704761Y-100130952D01*
X163657142Y-100154761D01*
X163561904Y-100178571D01*
X163490476Y-100178571D01*
X163395238Y-100154761D01*
X163347619Y-100130952D01*
X163300000Y-100083333D01*
X163276190Y-100011904D01*
X163276190Y-99964285D01*
X163300000Y-99892857D01*
X163323809Y-99869047D01*
X163728571Y-99369047D02*
X163752380Y-99392857D01*
X163776190Y-99464285D01*
X163776190Y-99511904D01*
X163752380Y-99583333D01*
X163704761Y-99630952D01*
X163657142Y-99654761D01*
X163561904Y-99678571D01*
X163490476Y-99678571D01*
X163395238Y-99654761D01*
X163347619Y-99630952D01*
X163300000Y-99583333D01*
X163276190Y-99511904D01*
X163276190Y-99464285D01*
X163300000Y-99392857D01*
X163323809Y-99369047D01*
X163776190Y-98892857D02*
X163776190Y-99178571D01*
X163776190Y-99035714D02*
X163276190Y-99035714D01*
X163347619Y-99083333D01*
X163395238Y-99130952D01*
X163419047Y-99178571D01*
%TD*%
M02*
