%
M48
METRIC,000.000
T01C0.50
%
T01
X036480Y021694
X036628Y022683
X036695Y023681
X036680Y024680
X036584Y025675
X036406Y026659
X039519Y026777
X039332Y025795
X039226Y024801
X039201Y023802
X039259Y022804
X039397Y021814
X026991Y035982
X026006Y036150
X025010Y036237
X024010Y036241
X023013Y036164
X022026Y036007
X025371Y037785
X026364Y037901
X027344Y038097
X022415Y037920
X023407Y037794
X026991Y061982
X026006Y062150
X025010Y062237
X024010Y062241
X023013Y062164
X022026Y062007
X025371Y063785
X026364Y063901
X027344Y064097
X022415Y063920
X023407Y063794
X036480Y047694
X036628Y048683
X036695Y049681
X036680Y050680
X036584Y051675
X036406Y052659
X039519Y052777
X039332Y051795
X039226Y050801
X039201Y049802
X039259Y048804
X039397Y047814
X053991Y035982
X053006Y036150
X052010Y036237
X051010Y036241
X050013Y036164
X049026Y036007
X052371Y037785
X053364Y037901
X054344Y038097
X049415Y037920
X050407Y037794
X080991Y035982
X080006Y036150
X079010Y036237
X078010Y036241
X077013Y036164
X076026Y036007
X079371Y037785
X080364Y037901
X081344Y038097
X076415Y037920
X077407Y037794
X063480Y047694
X063628Y048683
X063695Y049681
X063680Y050680
X063584Y051675
X063406Y052659
X066519Y052777
X066332Y051795
X066226Y050801
X066201Y049802
X066259Y048804
X066397Y047814
X063480Y021694
X063628Y022683
X063695Y023681
X063680Y024680
X063584Y025675
X063406Y026659
X066519Y026777
X066332Y025795
X066226Y024801
X066201Y023802
X066259Y022804
X066397Y021814
X080991Y061982
X080006Y062150
X079010Y062237
X078010Y062241
X077013Y062164
X076026Y062007
X079371Y063785
X080364Y063901
X081344Y064097
X076415Y063920
X077407Y063794
X063480Y073694
X063628Y074683
X063695Y075681
X063680Y076680
X063584Y077675
X063406Y078659
X066519Y078777
X066332Y077795
X066226Y076801
X066201Y075802
X066259Y074804
X066397Y073814
X053991Y061982
X053006Y062150
X052010Y062237
X051010Y062241
X050013Y062164
X049026Y062007
X052371Y063785
X053364Y063901
X054344Y064097
X049415Y063920
X050407Y063794
X036480Y073694
X036628Y074683
X036695Y075681
X036680Y076680
X036584Y077675
X036406Y078659
X039519Y078777
X039332Y077795
X039226Y076801
X039201Y075802
X039259Y074804
X039397Y073814
X079371Y011785
X080364Y011901
X081344Y012097
X076415Y011920
X077407Y011794
X075247Y009601
X076230Y009418
X077223Y009301
X078221Y009252
X079221Y009270
X080217Y009356
X081205Y009510
X082180Y009729
X052371Y011785
X053364Y011901
X054344Y012097
X048437Y012126
X049415Y011920
X050407Y011794
X052357Y009278
X053352Y009373
X054339Y009536
X055312Y009765
X047773Y009716
X048749Y009499
X049738Y009350
X050734Y009268
X025371Y011785
X026364Y011901
X027344Y012097
X021437Y012126
X022415Y011920
X023407Y011794
X020905Y009681
X021884Y009475
X022873Y009334
X023871Y009262
X024870Y009256
X025868Y009318
X026859Y009449
X027840Y009645
X026991Y087982
X026006Y088150
X025010Y088237
X024010Y088241
X023013Y088164
X022026Y088007
X021055Y087769
X027953Y090326
X026974Y090531
X025984Y090669
X024987Y090739
X023987Y090742
X022989Y090676
X021998Y090544
X021019Y090344
X020055Y090079
X053991Y087982
X053006Y088150
X052010Y088237
X051010Y088241
X050013Y088164
X049026Y088007
X048055Y087769
X054820Y090359
X053840Y090554
X052848Y090683
X051850Y090743
X050851Y090737
X049854Y090663
X048864Y090520
X047886Y090313
X080991Y087982
X080006Y088150
X079010Y088237
X078010Y088241
X077013Y088164
X076026Y088007
X082655Y090137
X081687Y090389
X080705Y090576
X079712Y090694
X078714Y090747
X077714Y090730
X076718Y090647
X075730Y090496
M30