%MOIN*%
%OFA0B0*%
%FSLAX46Y46*%
%IPPOS*%
%LPD*%
%ADD10R,0.031496062992125991X0.035433070866141732*%
%ADD11R,0.013779527559055118X0.025590551181102365*%
%ADD12R,0.03937007874015748X0.023622047244094488*%
%ADD13R,0.041732283464566935X0.025590551181102365*%
%ADD14R,0.025590551181102365X0.041732283464566935*%
%ADD15C,0.0039370078740157488*%
%ADD26R,0.031496062992125991X0.035433070866141732*%
%ADD27R,0.013779527559055118X0.025590551181102365*%
%ADD28R,0.03937007874015748X0.023622047244094488*%
%ADD29R,0.041732283464566935X0.025590551181102365*%
%ADD30R,0.025590551181102365X0.041732283464566935*%
%ADD31C,0.0039370078740157488*%
%ADD32R,0.031496062992125991X0.035433070866141732*%
%ADD33R,0.013779527559055118X0.025590551181102365*%
%ADD34R,0.03937007874015748X0.023622047244094488*%
%ADD35R,0.041732283464566935X0.025590551181102365*%
%ADD36R,0.025590551181102365X0.041732283464566935*%
%ADD37C,0.0039370078740157488*%
%ADD38R,0.031496062992125991X0.035433070866141732*%
%ADD39R,0.013779527559055118X0.025590551181102365*%
%ADD40R,0.03937007874015748X0.023622047244094488*%
%ADD41R,0.041732283464566935X0.025590551181102365*%
%ADD42R,0.025590551181102365X0.041732283464566935*%
%ADD43C,0.0039370078740157488*%
%ADD44R,0.031496062992125991X0.035433070866141732*%
%ADD45R,0.013779527559055118X0.025590551181102365*%
%ADD46R,0.03937007874015748X0.023622047244094488*%
%ADD47R,0.041732283464566935X0.025590551181102365*%
%ADD48R,0.025590551181102365X0.041732283464566935*%
%ADD49C,0.0039370078740157488*%
%ADD50R,0.031496062992125991X0.035433070866141732*%
%ADD51R,0.013779527559055118X0.025590551181102365*%
%ADD52R,0.03937007874015748X0.023622047244094488*%
%ADD53R,0.041732283464566935X0.025590551181102365*%
%ADD54R,0.025590551181102365X0.041732283464566935*%
%ADD55C,0.0039370078740157488*%
%ADD56R,0.031496062992125991X0.035433070866141732*%
%ADD57R,0.013779527559055118X0.025590551181102365*%
%ADD58R,0.03937007874015748X0.023622047244094488*%
%ADD59R,0.041732283464566935X0.025590551181102365*%
%ADD60R,0.025590551181102365X0.041732283464566935*%
%ADD61C,0.0039370078740157488*%
%ADD62R,0.031496062992125991X0.035433070866141732*%
%ADD63R,0.013779527559055118X0.025590551181102365*%
%ADD64R,0.03937007874015748X0.023622047244094488*%
%ADD65R,0.041732283464566935X0.025590551181102365*%
%ADD66R,0.025590551181102365X0.041732283464566935*%
%ADD67C,0.0039370078740157488*%
%ADD68R,0.031496062992125991X0.035433070866141732*%
%ADD69R,0.013779527559055118X0.025590551181102365*%
%ADD70R,0.03937007874015748X0.023622047244094488*%
%ADD71R,0.041732283464566935X0.025590551181102365*%
%ADD72R,0.025590551181102365X0.041732283464566935*%
%ADD73C,0.0039370078740157488*%
G01*
G36*
G01*
X0001240649Y0000816683D02*
X0001240649Y0000836860D01*
G75*
G02*
X0001249261Y0000845472I0000008612D01*
G01*
X0001266486Y0000845472D01*
G75*
G02*
X0001275098Y0000836860J-0000008612D01*
G01*
X0001275098Y0000816683D01*
G75*
G02*
X0001266486Y0000808070I-0000008612D01*
G01*
X0001249261Y0000808070D01*
G75*
G02*
X0001240649Y0000816683J0000008612D01*
G01*
G37*
G36*
G01*
X0001302657Y0000816683D02*
X0001302657Y0000836860D01*
G75*
G02*
X0001311269Y0000845472I0000008612D01*
G01*
X0001328494Y0000845472D01*
G75*
G02*
X0001337106Y0000836860J-0000008612D01*
G01*
X0001337106Y0000816683D01*
G75*
G02*
X0001328494Y0000808070I-0000008612D01*
G01*
X0001311269Y0000808070D01*
G75*
G02*
X0001302657Y0000816683J0000008612D01*
G01*
G37*
D10*
X0001326771Y0001151574D03*
X0001364173Y0001072834D03*
X0001289370Y0001072834D03*
X0000945866Y0001200787D03*
X0001020669Y0001200787D03*
X0000983267Y0001279527D03*
G36*
G01*
X0001239173Y0001063976D02*
X0001217519Y0001063976D01*
G75*
G02*
X0001209645Y0001071850J0000007874D01*
G01*
X0001209645Y0001087598D01*
G75*
G02*
X0001217519Y0001095472I0000007874D01*
G01*
X0001239173Y0001095472D01*
G75*
G02*
X0001247047Y0001087598J-0000007874D01*
G01*
X0001247047Y0001071850D01*
G75*
G02*
X0001239173Y0001063976I-0000007874D01*
G01*
G37*
G36*
G01*
X0001239173Y0001128937D02*
X0001217519Y0001128937D01*
G75*
G02*
X0001209645Y0001136811J0000007874D01*
G01*
X0001209645Y0001152559D01*
G75*
G02*
X0001217519Y0001160433I0000007874D01*
G01*
X0001239173Y0001160433D01*
G75*
G02*
X0001247047Y0001152559J-0000007874D01*
G01*
X0001247047Y0001136811D01*
G75*
G02*
X0001239173Y0001128937I-0000007874D01*
G01*
G37*
G36*
G01*
X0000894685Y0001247047D02*
X0000873031Y0001247047D01*
G75*
G02*
X0000865157Y0001254921J0000007874D01*
G01*
X0000865157Y0001270669D01*
G75*
G02*
X0000873031Y0001278543I0000007874D01*
G01*
X0000894685Y0001278543D01*
G75*
G02*
X0000902559Y0001270669J-0000007874D01*
G01*
X0000902559Y0001254921D01*
G75*
G02*
X0000894685Y0001247047I-0000007874D01*
G01*
G37*
G36*
G01*
X0000894685Y0001182086D02*
X0000873031Y0001182086D01*
G75*
G02*
X0000865157Y0001189960J0000007874D01*
G01*
X0000865157Y0001205708D01*
G75*
G02*
X0000873031Y0001213582I0000007874D01*
G01*
X0000894685Y0001213582D01*
G75*
G02*
X0000902559Y0001205708J-0000007874D01*
G01*
X0000902559Y0001189960D01*
G75*
G02*
X0000894685Y0001182086I-0000007874D01*
G01*
G37*
G36*
G01*
X0001064960Y0001239173D02*
X0001064960Y0001260826D01*
G75*
G02*
X0001072834Y0001268700I0000007874D01*
G01*
X0001088582Y0001268700D01*
G75*
G02*
X0001096456Y0001260826J-0000007874D01*
G01*
X0001096456Y0001239173D01*
G75*
G02*
X0001088582Y0001231299I-0000007874D01*
G01*
X0001072834Y0001231299D01*
G75*
G02*
X0001064960Y0001239173J0000007874D01*
G01*
G37*
G36*
G01*
X0001129921Y0001239173D02*
X0001129921Y0001260826D01*
G75*
G02*
X0001137795Y0001268700I0000007874D01*
G01*
X0001153543Y0001268700D01*
G75*
G02*
X0001161417Y0001260826J-0000007874D01*
G01*
X0001161417Y0001239173D01*
G75*
G02*
X0001153543Y0001231299I-0000007874D01*
G01*
X0001137795Y0001231299D01*
G75*
G02*
X0001129921Y0001239173J0000007874D01*
G01*
G37*
D11*
X0000705708Y0000809055D03*
X0000680118Y0000809055D03*
X0000654527Y0000809055D03*
X0000628937Y0000809055D03*
X0000628937Y0000687007D03*
X0000654527Y0000687007D03*
X0000680118Y0000687007D03*
X0000705708Y0000687007D03*
D12*
X0000643700Y0000763287D03*
X0000643700Y0000732775D03*
X0000690944Y0000732775D03*
X0000690944Y0000763287D03*
D13*
X0001086614Y0001179133D03*
X0001086614Y0001141732D03*
X0001086614Y0001104330D03*
X0001173228Y0001104330D03*
X0001173228Y0001179133D03*
D14*
X0001230314Y0000771653D03*
X0001305118Y0000771653D03*
X0001305118Y0000685039D03*
X0001267716Y0000685039D03*
X0001230314Y0000685039D03*
D15*
G36*
X0000787002Y0001085171D02*
G01*
X0000786670Y0001085272D01*
X0000786363Y0001085436D01*
X0000786095Y0001085656D01*
X0000780833Y0001090918D01*
X0000780613Y0001091186D01*
X0000780449Y0001091492D01*
X0000780349Y0001091825D01*
X0000780314Y0001092170D01*
X0000780314Y0001093208D01*
X0000780349Y0001093554D01*
X0000780449Y0001093886D01*
X0000780613Y0001094192D01*
X0000780833Y0001094461D01*
X0000781102Y0001094681D01*
X0000781408Y0001094845D01*
X0000781740Y0001094946D01*
X0000782086Y0001094980D01*
X0000808267Y0001094980D01*
X0000808613Y0001094946D01*
X0000808945Y0001094845D01*
X0000809252Y0001094681D01*
X0000809520Y0001094461D01*
X0000809740Y0001094192D01*
X0000809904Y0001093886D01*
X0000810005Y0001093554D01*
X0000810039Y0001093208D01*
X0000810039Y0001086909D01*
X0000810005Y0001086563D01*
X0000809904Y0001086231D01*
X0000809740Y0001085925D01*
X0000809520Y0001085656D01*
X0000809252Y0001085436D01*
X0000808945Y0001085272D01*
X0000808613Y0001085171D01*
X0000808267Y0001085137D01*
X0000787348Y0001085137D01*
X0000787002Y0001085171D01*
G37*
G36*
G01*
X0000810039Y0001112204D02*
X0000810039Y0001107283D01*
G75*
G02*
X0000807578Y0001104822I-0000002460D01*
G01*
X0000778051Y0001104822D01*
G75*
G02*
X0000775590Y0001107283J0000002460D01*
G01*
X0000775590Y0001112204D01*
G75*
G02*
X0000778051Y0001114665I0000002460D01*
G01*
X0000807578Y0001114665D01*
G75*
G02*
X0000810039Y0001112204J-0000002460D01*
G01*
G37*
G36*
G01*
X0000810039Y0001131889D02*
X0000810039Y0001126968D01*
G75*
G02*
X0000807578Y0001124507I-0000002460D01*
G01*
X0000778051Y0001124507D01*
G75*
G02*
X0000775590Y0001126968J0000002460D01*
G01*
X0000775590Y0001131889D01*
G75*
G02*
X0000778051Y0001134350I0000002460D01*
G01*
X0000807578Y0001134350D01*
G75*
G02*
X0000810039Y0001131889J-0000002460D01*
G01*
G37*
G36*
G01*
X0000810039Y0001151574D02*
X0000810039Y0001146653D01*
G75*
G02*
X0000807578Y0001144192I-0000002460D01*
G01*
X0000778051Y0001144192D01*
G75*
G02*
X0000775590Y0001146653J0000002460D01*
G01*
X0000775590Y0001151574D01*
G75*
G02*
X0000778051Y0001154035I0000002460D01*
G01*
X0000807578Y0001154035D01*
G75*
G02*
X0000810039Y0001151574J-0000002460D01*
G01*
G37*
G36*
G01*
X0000810039Y0001171259D02*
X0000810039Y0001166338D01*
G75*
G02*
X0000807578Y0001163877I-0000002460D01*
G01*
X0000778051Y0001163877D01*
G75*
G02*
X0000775590Y0001166338J0000002460D01*
G01*
X0000775590Y0001171259D01*
G75*
G02*
X0000778051Y0001173720I0000002460D01*
G01*
X0000807578Y0001173720D01*
G75*
G02*
X0000810039Y0001171259J-0000002460D01*
G01*
G37*
G36*
G01*
X0000810039Y0001190944D02*
X0000810039Y0001186023D01*
G75*
G02*
X0000807578Y0001183562I-0000002460D01*
G01*
X0000778051Y0001183562D01*
G75*
G02*
X0000775590Y0001186023J0000002460D01*
G01*
X0000775590Y0001190944D01*
G75*
G02*
X0000778051Y0001193405I0000002460D01*
G01*
X0000807578Y0001193405D01*
G75*
G02*
X0000810039Y0001190944J-0000002460D01*
G01*
G37*
G36*
X0000781740Y0001203282D02*
G01*
X0000781408Y0001203382D01*
X0000781102Y0001203546D01*
X0000780833Y0001203766D01*
X0000780613Y0001204035D01*
X0000780449Y0001204341D01*
X0000780349Y0001204674D01*
X0000780314Y0001205019D01*
X0000780314Y0001206057D01*
X0000780349Y0001206403D01*
X0000780449Y0001206735D01*
X0000780613Y0001207041D01*
X0000780833Y0001207310D01*
X0000786095Y0001212571D01*
X0000786363Y0001212791D01*
X0000786670Y0001212955D01*
X0000787002Y0001213056D01*
X0000787348Y0001213090D01*
X0000808267Y0001213090D01*
X0000808613Y0001213056D01*
X0000808945Y0001212955D01*
X0000809252Y0001212791D01*
X0000809520Y0001212571D01*
X0000809740Y0001212303D01*
X0000809904Y0001211996D01*
X0000810005Y0001211664D01*
X0000810039Y0001211318D01*
X0000810039Y0001205019D01*
X0000810005Y0001204674D01*
X0000809904Y0001204341D01*
X0000809740Y0001204035D01*
X0000809520Y0001203766D01*
X0000809252Y0001203546D01*
X0000808945Y0001203382D01*
X0000808613Y0001203282D01*
X0000808267Y0001203248D01*
X0000782086Y0001203248D01*
X0000781740Y0001203282D01*
G37*
G36*
X0000772095Y0001212927D02*
G01*
X0000771762Y0001213028D01*
X0000771456Y0001213192D01*
X0000771188Y0001213412D01*
X0000770967Y0001213681D01*
X0000770804Y0001213987D01*
X0000770703Y0001214319D01*
X0000770669Y0001214665D01*
X0000770669Y0001240846D01*
X0000770703Y0001241192D01*
X0000770804Y0001241524D01*
X0000770967Y0001241830D01*
X0000771188Y0001242099D01*
X0000771456Y0001242319D01*
X0000771762Y0001242483D01*
X0000772095Y0001242584D01*
X0000772440Y0001242618D01*
X0000778740Y0001242618D01*
X0000779085Y0001242584D01*
X0000779418Y0001242483D01*
X0000779724Y0001242319D01*
X0000779992Y0001242099D01*
X0000780213Y0001241830D01*
X0000780376Y0001241524D01*
X0000780477Y0001241192D01*
X0000780511Y0001240846D01*
X0000780511Y0001219926D01*
X0000780477Y0001219581D01*
X0000780376Y0001219248D01*
X0000780213Y0001218942D01*
X0000779992Y0001218674D01*
X0000774731Y0001213412D01*
X0000774463Y0001213192D01*
X0000774156Y0001213028D01*
X0000773824Y0001212927D01*
X0000773478Y0001212893D01*
X0000772440Y0001212893D01*
X0000772095Y0001212927D01*
G37*
G36*
G01*
X0000760826Y0001240157D02*
X0000760826Y0001210629D01*
G75*
G02*
X0000758366Y0001208169I-0000002460D01*
G01*
X0000753444Y0001208169D01*
G75*
G02*
X0000750984Y0001210629J0000002460D01*
G01*
X0000750984Y0001240157D01*
G75*
G02*
X0000753444Y0001242618I0000002460D01*
G01*
X0000758366Y0001242618D01*
G75*
G02*
X0000760826Y0001240157J-0000002460D01*
G01*
G37*
G36*
G01*
X0000741141Y0001240157D02*
X0000741141Y0001210629D01*
G75*
G02*
X0000738681Y0001208169I-0000002460D01*
G01*
X0000733759Y0001208169D01*
G75*
G02*
X0000731299Y0001210629J0000002460D01*
G01*
X0000731299Y0001240157D01*
G75*
G02*
X0000733759Y0001242618I0000002460D01*
G01*
X0000738681Y0001242618D01*
G75*
G02*
X0000741141Y0001240157J-0000002460D01*
G01*
G37*
G36*
G01*
X0000721456Y0001240157D02*
X0000721456Y0001210629D01*
G75*
G02*
X0000718996Y0001208169I-0000002460D01*
G01*
X0000714074Y0001208169D01*
G75*
G02*
X0000711614Y0001210629J0000002460D01*
G01*
X0000711614Y0001240157D01*
G75*
G02*
X0000714074Y0001242618I0000002460D01*
G01*
X0000718996Y0001242618D01*
G75*
G02*
X0000721456Y0001240157J-0000002460D01*
G01*
G37*
G36*
G01*
X0000701771Y0001240157D02*
X0000701771Y0001210629D01*
G75*
G02*
X0000699311Y0001208169I-0000002460D01*
G01*
X0000694389Y0001208169D01*
G75*
G02*
X0000691929Y0001210629J0000002460D01*
G01*
X0000691929Y0001240157D01*
G75*
G02*
X0000694389Y0001242618I0000002460D01*
G01*
X0000699311Y0001242618D01*
G75*
G02*
X0000701771Y0001240157J-0000002460D01*
G01*
G37*
G36*
G01*
X0000682086Y0001240157D02*
X0000682086Y0001210629D01*
G75*
G02*
X0000679625Y0001208169I-0000002460D01*
G01*
X0000674704Y0001208169D01*
G75*
G02*
X0000672244Y0001210629J0000002460D01*
G01*
X0000672244Y0001240157D01*
G75*
G02*
X0000674704Y0001242618I0000002460D01*
G01*
X0000679625Y0001242618D01*
G75*
G02*
X0000682086Y0001240157J-0000002460D01*
G01*
G37*
G36*
X0000659246Y0001212927D02*
G01*
X0000658914Y0001213028D01*
X0000658607Y0001213192D01*
X0000658339Y0001213412D01*
X0000653077Y0001218674D01*
X0000652857Y0001218942D01*
X0000652693Y0001219248D01*
X0000652593Y0001219581D01*
X0000652559Y0001219926D01*
X0000652559Y0001240846D01*
X0000652593Y0001241192D01*
X0000652693Y0001241524D01*
X0000652857Y0001241830D01*
X0000653077Y0001242099D01*
X0000653346Y0001242319D01*
X0000653652Y0001242483D01*
X0000653985Y0001242584D01*
X0000654330Y0001242618D01*
X0000660629Y0001242618D01*
X0000660975Y0001242584D01*
X0000661307Y0001242483D01*
X0000661614Y0001242319D01*
X0000661882Y0001242099D01*
X0000662102Y0001241830D01*
X0000662266Y0001241524D01*
X0000662367Y0001241192D01*
X0000662401Y0001240846D01*
X0000662401Y0001214665D01*
X0000662367Y0001214319D01*
X0000662266Y0001213987D01*
X0000662102Y0001213681D01*
X0000661882Y0001213412D01*
X0000661614Y0001213192D01*
X0000661307Y0001213028D01*
X0000660975Y0001212927D01*
X0000660629Y0001212893D01*
X0000659592Y0001212893D01*
X0000659246Y0001212927D01*
G37*
G36*
X0000624457Y0001203282D02*
G01*
X0000624125Y0001203382D01*
X0000623818Y0001203546D01*
X0000623550Y0001203766D01*
X0000623330Y0001204035D01*
X0000623166Y0001204341D01*
X0000623065Y0001204674D01*
X0000623031Y0001205019D01*
X0000623031Y0001211318D01*
X0000623065Y0001211664D01*
X0000623166Y0001211996D01*
X0000623330Y0001212303D01*
X0000623550Y0001212571D01*
X0000623818Y0001212791D01*
X0000624125Y0001212955D01*
X0000624457Y0001213056D01*
X0000624803Y0001213090D01*
X0000645722Y0001213090D01*
X0000646068Y0001213056D01*
X0000646400Y0001212955D01*
X0000646707Y0001212791D01*
X0000646975Y0001212571D01*
X0000652237Y0001207310D01*
X0000652457Y0001207041D01*
X0000652621Y0001206735D01*
X0000652721Y0001206403D01*
X0000652755Y0001206057D01*
X0000652755Y0001205019D01*
X0000652721Y0001204674D01*
X0000652621Y0001204341D01*
X0000652457Y0001204035D01*
X0000652237Y0001203766D01*
X0000651968Y0001203546D01*
X0000651662Y0001203382D01*
X0000651329Y0001203282D01*
X0000650984Y0001203248D01*
X0000624803Y0001203248D01*
X0000624457Y0001203282D01*
G37*
G36*
G01*
X0000657480Y0001190944D02*
X0000657480Y0001186023D01*
G75*
G02*
X0000655019Y0001183562I-0000002460D01*
G01*
X0000625492Y0001183562D01*
G75*
G02*
X0000623031Y0001186023J0000002460D01*
G01*
X0000623031Y0001190944D01*
G75*
G02*
X0000625492Y0001193405I0000002460D01*
G01*
X0000655019Y0001193405D01*
G75*
G02*
X0000657480Y0001190944J-0000002460D01*
G01*
G37*
G36*
G01*
X0000657480Y0001171259D02*
X0000657480Y0001166338D01*
G75*
G02*
X0000655019Y0001163877I-0000002460D01*
G01*
X0000625492Y0001163877D01*
G75*
G02*
X0000623031Y0001166338J0000002460D01*
G01*
X0000623031Y0001171259D01*
G75*
G02*
X0000625492Y0001173720I0000002460D01*
G01*
X0000655019Y0001173720D01*
G75*
G02*
X0000657480Y0001171259J-0000002460D01*
G01*
G37*
G36*
G01*
X0000657480Y0001151574D02*
X0000657480Y0001146653D01*
G75*
G02*
X0000655019Y0001144192I-0000002460D01*
G01*
X0000625492Y0001144192D01*
G75*
G02*
X0000623031Y0001146653J0000002460D01*
G01*
X0000623031Y0001151574D01*
G75*
G02*
X0000625492Y0001154035I0000002460D01*
G01*
X0000655019Y0001154035D01*
G75*
G02*
X0000657480Y0001151574J-0000002460D01*
G01*
G37*
G36*
G01*
X0000657480Y0001131889D02*
X0000657480Y0001126968D01*
G75*
G02*
X0000655019Y0001124507I-0000002460D01*
G01*
X0000625492Y0001124507D01*
G75*
G02*
X0000623031Y0001126968J0000002460D01*
G01*
X0000623031Y0001131889D01*
G75*
G02*
X0000625492Y0001134350I0000002460D01*
G01*
X0000655019Y0001134350D01*
G75*
G02*
X0000657480Y0001131889J-0000002460D01*
G01*
G37*
G36*
G01*
X0000657480Y0001112204D02*
X0000657480Y0001107283D01*
G75*
G02*
X0000655019Y0001104822I-0000002460D01*
G01*
X0000625492Y0001104822D01*
G75*
G02*
X0000623031Y0001107283J0000002460D01*
G01*
X0000623031Y0001112204D01*
G75*
G02*
X0000625492Y0001114665I0000002460D01*
G01*
X0000655019Y0001114665D01*
G75*
G02*
X0000657480Y0001112204J-0000002460D01*
G01*
G37*
G36*
X0000624457Y0001085171D02*
G01*
X0000624125Y0001085272D01*
X0000623818Y0001085436D01*
X0000623550Y0001085656D01*
X0000623330Y0001085925D01*
X0000623166Y0001086231D01*
X0000623065Y0001086563D01*
X0000623031Y0001086909D01*
X0000623031Y0001093208D01*
X0000623065Y0001093554D01*
X0000623166Y0001093886D01*
X0000623330Y0001094192D01*
X0000623550Y0001094461D01*
X0000623818Y0001094681D01*
X0000624125Y0001094845D01*
X0000624457Y0001094946D01*
X0000624803Y0001094980D01*
X0000650984Y0001094980D01*
X0000651329Y0001094946D01*
X0000651662Y0001094845D01*
X0000651968Y0001094681D01*
X0000652237Y0001094461D01*
X0000652457Y0001094192D01*
X0000652621Y0001093886D01*
X0000652721Y0001093554D01*
X0000652755Y0001093208D01*
X0000652755Y0001092170D01*
X0000652721Y0001091825D01*
X0000652621Y0001091492D01*
X0000652457Y0001091186D01*
X0000652237Y0001090918D01*
X0000646975Y0001085656D01*
X0000646707Y0001085436D01*
X0000646400Y0001085272D01*
X0000646068Y0001085171D01*
X0000645722Y0001085137D01*
X0000624803Y0001085137D01*
X0000624457Y0001085171D01*
G37*
G36*
X0000653985Y0001055644D02*
G01*
X0000653652Y0001055745D01*
X0000653346Y0001055908D01*
X0000653077Y0001056129D01*
X0000652857Y0001056397D01*
X0000652693Y0001056703D01*
X0000652593Y0001057036D01*
X0000652559Y0001057381D01*
X0000652559Y0001078301D01*
X0000652593Y0001078647D01*
X0000652693Y0001078979D01*
X0000652857Y0001079285D01*
X0000653077Y0001079554D01*
X0000658339Y0001084815D01*
X0000658607Y0001085036D01*
X0000658914Y0001085199D01*
X0000659246Y0001085300D01*
X0000659592Y0001085334D01*
X0000660629Y0001085334D01*
X0000660975Y0001085300D01*
X0000661307Y0001085199D01*
X0000661614Y0001085036D01*
X0000661882Y0001084815D01*
X0000662102Y0001084547D01*
X0000662266Y0001084240D01*
X0000662367Y0001083908D01*
X0000662401Y0001083562D01*
X0000662401Y0001057381D01*
X0000662367Y0001057036D01*
X0000662266Y0001056703D01*
X0000662102Y0001056397D01*
X0000661882Y0001056129D01*
X0000661614Y0001055908D01*
X0000661307Y0001055745D01*
X0000660975Y0001055644D01*
X0000660629Y0001055610D01*
X0000654330Y0001055610D01*
X0000653985Y0001055644D01*
G37*
G36*
G01*
X0000682086Y0001087598D02*
X0000682086Y0001058070D01*
G75*
G02*
X0000679625Y0001055610I-0000002460D01*
G01*
X0000674704Y0001055610D01*
G75*
G02*
X0000672244Y0001058070J0000002460D01*
G01*
X0000672244Y0001087598D01*
G75*
G02*
X0000674704Y0001090059I0000002460D01*
G01*
X0000679625Y0001090059D01*
G75*
G02*
X0000682086Y0001087598J-0000002460D01*
G01*
G37*
G36*
G01*
X0000701771Y0001087598D02*
X0000701771Y0001058070D01*
G75*
G02*
X0000699311Y0001055610I-0000002460D01*
G01*
X0000694389Y0001055610D01*
G75*
G02*
X0000691929Y0001058070J0000002460D01*
G01*
X0000691929Y0001087598D01*
G75*
G02*
X0000694389Y0001090059I0000002460D01*
G01*
X0000699311Y0001090059D01*
G75*
G02*
X0000701771Y0001087598J-0000002460D01*
G01*
G37*
G36*
G01*
X0000721456Y0001087598D02*
X0000721456Y0001058070D01*
G75*
G02*
X0000718996Y0001055610I-0000002460D01*
G01*
X0000714074Y0001055610D01*
G75*
G02*
X0000711614Y0001058070J0000002460D01*
G01*
X0000711614Y0001087598D01*
G75*
G02*
X0000714074Y0001090059I0000002460D01*
G01*
X0000718996Y0001090059D01*
G75*
G02*
X0000721456Y0001087598J-0000002460D01*
G01*
G37*
G36*
G01*
X0000741141Y0001087598D02*
X0000741141Y0001058070D01*
G75*
G02*
X0000738681Y0001055610I-0000002460D01*
G01*
X0000733759Y0001055610D01*
G75*
G02*
X0000731299Y0001058070J0000002460D01*
G01*
X0000731299Y0001087598D01*
G75*
G02*
X0000733759Y0001090059I0000002460D01*
G01*
X0000738681Y0001090059D01*
G75*
G02*
X0000741141Y0001087598J-0000002460D01*
G01*
G37*
G36*
G01*
X0000760826Y0001087598D02*
X0000760826Y0001058070D01*
G75*
G02*
X0000758366Y0001055610I-0000002460D01*
G01*
X0000753444Y0001055610D01*
G75*
G02*
X0000750984Y0001058070J0000002460D01*
G01*
X0000750984Y0001087598D01*
G75*
G02*
X0000753444Y0001090059I0000002460D01*
G01*
X0000758366Y0001090059D01*
G75*
G02*
X0000760826Y0001087598J-0000002460D01*
G01*
G37*
G36*
X0000772095Y0001055644D02*
G01*
X0000771762Y0001055745D01*
X0000771456Y0001055908D01*
X0000771188Y0001056129D01*
X0000770967Y0001056397D01*
X0000770804Y0001056703D01*
X0000770703Y0001057036D01*
X0000770669Y0001057381D01*
X0000770669Y0001083562D01*
X0000770703Y0001083908D01*
X0000770804Y0001084240D01*
X0000770967Y0001084547D01*
X0000771188Y0001084815D01*
X0000771456Y0001085036D01*
X0000771762Y0001085199D01*
X0000772095Y0001085300D01*
X0000772440Y0001085334D01*
X0000773478Y0001085334D01*
X0000773824Y0001085300D01*
X0000774156Y0001085199D01*
X0000774463Y0001085036D01*
X0000774731Y0001084815D01*
X0000779992Y0001079554D01*
X0000780213Y0001079285D01*
X0000780376Y0001078979D01*
X0000780477Y0001078647D01*
X0000780511Y0001078301D01*
X0000780511Y0001057381D01*
X0000780477Y0001057036D01*
X0000780376Y0001056703D01*
X0000780213Y0001056397D01*
X0000779992Y0001056129D01*
X0000779724Y0001055908D01*
X0000779418Y0001055745D01*
X0000779085Y0001055644D01*
X0000778740Y0001055610D01*
X0000772440Y0001055610D01*
X0000772095Y0001055644D01*
G37*
G04 next file*
G04 Gerber Fmt 4.6, Leading zero omitted, Abs format (unit mm)*
G04 Created by KiCad (PCBNEW (5.1.8)-1) date 2020-11-23 23:28:54*
G01*
G04 APERTURE LIST*
G04 APERTURE END LIST*
G36*
G01*
X0002303641Y0000816683D02*
X0002303641Y0000836860D01*
G75*
G02*
X0002312253Y0000845472I0000008612D01*
G01*
X0002329478Y0000845472D01*
G75*
G02*
X0002338090Y0000836860J-0000008612D01*
G01*
X0002338090Y0000816683D01*
G75*
G02*
X0002329478Y0000808070I-0000008612D01*
G01*
X0002312253Y0000808070D01*
G75*
G02*
X0002303641Y0000816683J0000008612D01*
G01*
G37*
G36*
G01*
X0002365649Y0000816683D02*
X0002365649Y0000836860D01*
G75*
G02*
X0002374261Y0000845472I0000008612D01*
G01*
X0002391486Y0000845472D01*
G75*
G02*
X0002400098Y0000836860J-0000008612D01*
G01*
X0002400098Y0000816683D01*
G75*
G02*
X0002391486Y0000808070I-0000008612D01*
G01*
X0002374261Y0000808070D01*
G75*
G02*
X0002365649Y0000816683J0000008612D01*
G01*
G37*
D26*
X0002389763Y0001151574D03*
X0002427165Y0001072834D03*
X0002352362Y0001072834D03*
X0002008858Y0001200787D03*
X0002083661Y0001200787D03*
X0002046259Y0001279527D03*
G36*
G01*
X0002302165Y0001063976D02*
X0002280511Y0001063976D01*
G75*
G02*
X0002272637Y0001071850J0000007874D01*
G01*
X0002272637Y0001087598D01*
G75*
G02*
X0002280511Y0001095472I0000007874D01*
G01*
X0002302165Y0001095472D01*
G75*
G02*
X0002310039Y0001087598J-0000007874D01*
G01*
X0002310039Y0001071850D01*
G75*
G02*
X0002302165Y0001063976I-0000007874D01*
G01*
G37*
G36*
G01*
X0002302165Y0001128937D02*
X0002280511Y0001128937D01*
G75*
G02*
X0002272637Y0001136811J0000007874D01*
G01*
X0002272637Y0001152559D01*
G75*
G02*
X0002280511Y0001160433I0000007874D01*
G01*
X0002302165Y0001160433D01*
G75*
G02*
X0002310039Y0001152559J-0000007874D01*
G01*
X0002310039Y0001136811D01*
G75*
G02*
X0002302165Y0001128937I-0000007874D01*
G01*
G37*
G36*
G01*
X0001957677Y0001247047D02*
X0001936023Y0001247047D01*
G75*
G02*
X0001928149Y0001254921J0000007874D01*
G01*
X0001928149Y0001270669D01*
G75*
G02*
X0001936023Y0001278543I0000007874D01*
G01*
X0001957677Y0001278543D01*
G75*
G02*
X0001965551Y0001270669J-0000007874D01*
G01*
X0001965551Y0001254921D01*
G75*
G02*
X0001957677Y0001247047I-0000007874D01*
G01*
G37*
G36*
G01*
X0001957677Y0001182086D02*
X0001936023Y0001182086D01*
G75*
G02*
X0001928149Y0001189960J0000007874D01*
G01*
X0001928149Y0001205708D01*
G75*
G02*
X0001936023Y0001213582I0000007874D01*
G01*
X0001957677Y0001213582D01*
G75*
G02*
X0001965551Y0001205708J-0000007874D01*
G01*
X0001965551Y0001189960D01*
G75*
G02*
X0001957677Y0001182086I-0000007874D01*
G01*
G37*
G36*
G01*
X0002127952Y0001239173D02*
X0002127952Y0001260826D01*
G75*
G02*
X0002135826Y0001268700I0000007874D01*
G01*
X0002151574Y0001268700D01*
G75*
G02*
X0002159448Y0001260826J-0000007874D01*
G01*
X0002159448Y0001239173D01*
G75*
G02*
X0002151574Y0001231299I-0000007874D01*
G01*
X0002135826Y0001231299D01*
G75*
G02*
X0002127952Y0001239173J0000007874D01*
G01*
G37*
G36*
G01*
X0002192913Y0001239173D02*
X0002192913Y0001260826D01*
G75*
G02*
X0002200787Y0001268700I0000007874D01*
G01*
X0002216535Y0001268700D01*
G75*
G02*
X0002224409Y0001260826J-0000007874D01*
G01*
X0002224409Y0001239173D01*
G75*
G02*
X0002216535Y0001231299I-0000007874D01*
G01*
X0002200787Y0001231299D01*
G75*
G02*
X0002192913Y0001239173J0000007874D01*
G01*
G37*
D27*
X0001768700Y0000809055D03*
X0001743110Y0000809055D03*
X0001717519Y0000809055D03*
X0001691929Y0000809055D03*
X0001691929Y0000687007D03*
X0001717519Y0000687007D03*
X0001743110Y0000687007D03*
X0001768700Y0000687007D03*
D28*
X0001706692Y0000763287D03*
X0001706692Y0000732775D03*
X0001753937Y0000732775D03*
X0001753937Y0000763287D03*
D29*
X0002149606Y0001179133D03*
X0002149606Y0001141732D03*
X0002149606Y0001104330D03*
X0002236220Y0001104330D03*
X0002236220Y0001179133D03*
D30*
X0002293307Y0000771653D03*
X0002368110Y0000771653D03*
X0002368110Y0000685039D03*
X0002330708Y0000685039D03*
X0002293307Y0000685039D03*
D31*
G36*
X0001849994Y0001085171D02*
G01*
X0001849662Y0001085272D01*
X0001849355Y0001085436D01*
X0001849087Y0001085656D01*
X0001843825Y0001090918D01*
X0001843605Y0001091186D01*
X0001843441Y0001091492D01*
X0001843341Y0001091825D01*
X0001843307Y0001092170D01*
X0001843307Y0001093208D01*
X0001843341Y0001093554D01*
X0001843441Y0001093886D01*
X0001843605Y0001094192D01*
X0001843825Y0001094461D01*
X0001844094Y0001094681D01*
X0001844400Y0001094845D01*
X0001844733Y0001094946D01*
X0001845078Y0001094980D01*
X0001871259Y0001094980D01*
X0001871605Y0001094946D01*
X0001871937Y0001094845D01*
X0001872244Y0001094681D01*
X0001872512Y0001094461D01*
X0001872732Y0001094192D01*
X0001872896Y0001093886D01*
X0001872997Y0001093554D01*
X0001873031Y0001093208D01*
X0001873031Y0001086909D01*
X0001872997Y0001086563D01*
X0001872896Y0001086231D01*
X0001872732Y0001085925D01*
X0001872512Y0001085656D01*
X0001872244Y0001085436D01*
X0001871937Y0001085272D01*
X0001871605Y0001085171D01*
X0001871259Y0001085137D01*
X0001850340Y0001085137D01*
X0001849994Y0001085171D01*
G37*
G36*
G01*
X0001873031Y0001112204D02*
X0001873031Y0001107283D01*
G75*
G02*
X0001870570Y0001104822I-0000002460D01*
G01*
X0001841043Y0001104822D01*
G75*
G02*
X0001838582Y0001107283J0000002460D01*
G01*
X0001838582Y0001112204D01*
G75*
G02*
X0001841043Y0001114665I0000002460D01*
G01*
X0001870570Y0001114665D01*
G75*
G02*
X0001873031Y0001112204J-0000002460D01*
G01*
G37*
G36*
G01*
X0001873031Y0001131889D02*
X0001873031Y0001126968D01*
G75*
G02*
X0001870570Y0001124507I-0000002460D01*
G01*
X0001841043Y0001124507D01*
G75*
G02*
X0001838582Y0001126968J0000002460D01*
G01*
X0001838582Y0001131889D01*
G75*
G02*
X0001841043Y0001134350I0000002460D01*
G01*
X0001870570Y0001134350D01*
G75*
G02*
X0001873031Y0001131889J-0000002460D01*
G01*
G37*
G36*
G01*
X0001873031Y0001151574D02*
X0001873031Y0001146653D01*
G75*
G02*
X0001870570Y0001144192I-0000002460D01*
G01*
X0001841043Y0001144192D01*
G75*
G02*
X0001838582Y0001146653J0000002460D01*
G01*
X0001838582Y0001151574D01*
G75*
G02*
X0001841043Y0001154035I0000002460D01*
G01*
X0001870570Y0001154035D01*
G75*
G02*
X0001873031Y0001151574J-0000002460D01*
G01*
G37*
G36*
G01*
X0001873031Y0001171259D02*
X0001873031Y0001166338D01*
G75*
G02*
X0001870570Y0001163877I-0000002460D01*
G01*
X0001841043Y0001163877D01*
G75*
G02*
X0001838582Y0001166338J0000002460D01*
G01*
X0001838582Y0001171259D01*
G75*
G02*
X0001841043Y0001173720I0000002460D01*
G01*
X0001870570Y0001173720D01*
G75*
G02*
X0001873031Y0001171259J-0000002460D01*
G01*
G37*
G36*
G01*
X0001873031Y0001190944D02*
X0001873031Y0001186023D01*
G75*
G02*
X0001870570Y0001183562I-0000002460D01*
G01*
X0001841043Y0001183562D01*
G75*
G02*
X0001838582Y0001186023J0000002460D01*
G01*
X0001838582Y0001190944D01*
G75*
G02*
X0001841043Y0001193405I0000002460D01*
G01*
X0001870570Y0001193405D01*
G75*
G02*
X0001873031Y0001190944J-0000002460D01*
G01*
G37*
G36*
X0001844733Y0001203282D02*
G01*
X0001844400Y0001203382D01*
X0001844094Y0001203546D01*
X0001843825Y0001203766D01*
X0001843605Y0001204035D01*
X0001843441Y0001204341D01*
X0001843341Y0001204674D01*
X0001843307Y0001205019D01*
X0001843307Y0001206057D01*
X0001843341Y0001206403D01*
X0001843441Y0001206735D01*
X0001843605Y0001207041D01*
X0001843825Y0001207310D01*
X0001849087Y0001212571D01*
X0001849355Y0001212791D01*
X0001849662Y0001212955D01*
X0001849994Y0001213056D01*
X0001850340Y0001213090D01*
X0001871259Y0001213090D01*
X0001871605Y0001213056D01*
X0001871937Y0001212955D01*
X0001872244Y0001212791D01*
X0001872512Y0001212571D01*
X0001872732Y0001212303D01*
X0001872896Y0001211996D01*
X0001872997Y0001211664D01*
X0001873031Y0001211318D01*
X0001873031Y0001205019D01*
X0001872997Y0001204674D01*
X0001872896Y0001204341D01*
X0001872732Y0001204035D01*
X0001872512Y0001203766D01*
X0001872244Y0001203546D01*
X0001871937Y0001203382D01*
X0001871605Y0001203282D01*
X0001871259Y0001203248D01*
X0001845078Y0001203248D01*
X0001844733Y0001203282D01*
G37*
G36*
X0001835087Y0001212927D02*
G01*
X0001834755Y0001213028D01*
X0001834448Y0001213192D01*
X0001834180Y0001213412D01*
X0001833960Y0001213681D01*
X0001833796Y0001213987D01*
X0001833695Y0001214319D01*
X0001833661Y0001214665D01*
X0001833661Y0001240846D01*
X0001833695Y0001241192D01*
X0001833796Y0001241524D01*
X0001833960Y0001241830D01*
X0001834180Y0001242099D01*
X0001834448Y0001242319D01*
X0001834755Y0001242483D01*
X0001835087Y0001242584D01*
X0001835433Y0001242618D01*
X0001841732Y0001242618D01*
X0001842077Y0001242584D01*
X0001842410Y0001242483D01*
X0001842716Y0001242319D01*
X0001842985Y0001242099D01*
X0001843205Y0001241830D01*
X0001843369Y0001241524D01*
X0001843469Y0001241192D01*
X0001843503Y0001240846D01*
X0001843503Y0001219926D01*
X0001843469Y0001219581D01*
X0001843369Y0001219248D01*
X0001843205Y0001218942D01*
X0001842985Y0001218674D01*
X0001837723Y0001213412D01*
X0001837455Y0001213192D01*
X0001837148Y0001213028D01*
X0001836816Y0001212927D01*
X0001836470Y0001212893D01*
X0001835433Y0001212893D01*
X0001835087Y0001212927D01*
G37*
G36*
G01*
X0001823818Y0001240157D02*
X0001823818Y0001210629D01*
G75*
G02*
X0001821358Y0001208169I-0000002460D01*
G01*
X0001816437Y0001208169D01*
G75*
G02*
X0001813976Y0001210629J0000002460D01*
G01*
X0001813976Y0001240157D01*
G75*
G02*
X0001816437Y0001242618I0000002460D01*
G01*
X0001821358Y0001242618D01*
G75*
G02*
X0001823818Y0001240157J-0000002460D01*
G01*
G37*
G36*
G01*
X0001804133Y0001240157D02*
X0001804133Y0001210629D01*
G75*
G02*
X0001801673Y0001208169I-0000002460D01*
G01*
X0001796751Y0001208169D01*
G75*
G02*
X0001794291Y0001210629J0000002460D01*
G01*
X0001794291Y0001240157D01*
G75*
G02*
X0001796751Y0001242618I0000002460D01*
G01*
X0001801673Y0001242618D01*
G75*
G02*
X0001804133Y0001240157J-0000002460D01*
G01*
G37*
G36*
G01*
X0001784448Y0001240157D02*
X0001784448Y0001210629D01*
G75*
G02*
X0001781988Y0001208169I-0000002460D01*
G01*
X0001777066Y0001208169D01*
G75*
G02*
X0001774606Y0001210629J0000002460D01*
G01*
X0001774606Y0001240157D01*
G75*
G02*
X0001777066Y0001242618I0000002460D01*
G01*
X0001781988Y0001242618D01*
G75*
G02*
X0001784448Y0001240157J-0000002460D01*
G01*
G37*
G36*
G01*
X0001764763Y0001240157D02*
X0001764763Y0001210629D01*
G75*
G02*
X0001762303Y0001208169I-0000002460D01*
G01*
X0001757381Y0001208169D01*
G75*
G02*
X0001754921Y0001210629J0000002460D01*
G01*
X0001754921Y0001240157D01*
G75*
G02*
X0001757381Y0001242618I0000002460D01*
G01*
X0001762303Y0001242618D01*
G75*
G02*
X0001764763Y0001240157J-0000002460D01*
G01*
G37*
G36*
G01*
X0001745078Y0001240157D02*
X0001745078Y0001210629D01*
G75*
G02*
X0001742618Y0001208169I-0000002460D01*
G01*
X0001737696Y0001208169D01*
G75*
G02*
X0001735236Y0001210629J0000002460D01*
G01*
X0001735236Y0001240157D01*
G75*
G02*
X0001737696Y0001242618I0000002460D01*
G01*
X0001742618Y0001242618D01*
G75*
G02*
X0001745078Y0001240157J-0000002460D01*
G01*
G37*
G36*
X0001722238Y0001212927D02*
G01*
X0001721906Y0001213028D01*
X0001721599Y0001213192D01*
X0001721331Y0001213412D01*
X0001716070Y0001218674D01*
X0001715849Y0001218942D01*
X0001715686Y0001219248D01*
X0001715585Y0001219581D01*
X0001715551Y0001219926D01*
X0001715551Y0001240846D01*
X0001715585Y0001241192D01*
X0001715686Y0001241524D01*
X0001715849Y0001241830D01*
X0001716070Y0001242099D01*
X0001716338Y0001242319D01*
X0001716644Y0001242483D01*
X0001716977Y0001242584D01*
X0001717322Y0001242618D01*
X0001723622Y0001242618D01*
X0001723967Y0001242584D01*
X0001724300Y0001242483D01*
X0001724606Y0001242319D01*
X0001724874Y0001242099D01*
X0001725095Y0001241830D01*
X0001725258Y0001241524D01*
X0001725359Y0001241192D01*
X0001725393Y0001240846D01*
X0001725393Y0001214665D01*
X0001725359Y0001214319D01*
X0001725258Y0001213987D01*
X0001725095Y0001213681D01*
X0001724874Y0001213412D01*
X0001724606Y0001213192D01*
X0001724300Y0001213028D01*
X0001723967Y0001212927D01*
X0001723622Y0001212893D01*
X0001722584Y0001212893D01*
X0001722238Y0001212927D01*
G37*
G36*
X0001687449Y0001203282D02*
G01*
X0001687117Y0001203382D01*
X0001686810Y0001203546D01*
X0001686542Y0001203766D01*
X0001686322Y0001204035D01*
X0001686158Y0001204341D01*
X0001686057Y0001204674D01*
X0001686023Y0001205019D01*
X0001686023Y0001211318D01*
X0001686057Y0001211664D01*
X0001686158Y0001211996D01*
X0001686322Y0001212303D01*
X0001686542Y0001212571D01*
X0001686810Y0001212791D01*
X0001687117Y0001212955D01*
X0001687449Y0001213056D01*
X0001687795Y0001213090D01*
X0001708714Y0001213090D01*
X0001709060Y0001213056D01*
X0001709392Y0001212955D01*
X0001709699Y0001212791D01*
X0001709967Y0001212571D01*
X0001715229Y0001207310D01*
X0001715449Y0001207041D01*
X0001715613Y0001206735D01*
X0001715713Y0001206403D01*
X0001715748Y0001206057D01*
X0001715748Y0001205019D01*
X0001715713Y0001204674D01*
X0001715613Y0001204341D01*
X0001715449Y0001204035D01*
X0001715229Y0001203766D01*
X0001714960Y0001203546D01*
X0001714654Y0001203382D01*
X0001714322Y0001203282D01*
X0001713976Y0001203248D01*
X0001687795Y0001203248D01*
X0001687449Y0001203282D01*
G37*
G36*
G01*
X0001720472Y0001190944D02*
X0001720472Y0001186023D01*
G75*
G02*
X0001718011Y0001183562I-0000002460D01*
G01*
X0001688484Y0001183562D01*
G75*
G02*
X0001686023Y0001186023J0000002460D01*
G01*
X0001686023Y0001190944D01*
G75*
G02*
X0001688484Y0001193405I0000002460D01*
G01*
X0001718011Y0001193405D01*
G75*
G02*
X0001720472Y0001190944J-0000002460D01*
G01*
G37*
G36*
G01*
X0001720472Y0001171259D02*
X0001720472Y0001166338D01*
G75*
G02*
X0001718011Y0001163877I-0000002460D01*
G01*
X0001688484Y0001163877D01*
G75*
G02*
X0001686023Y0001166338J0000002460D01*
G01*
X0001686023Y0001171259D01*
G75*
G02*
X0001688484Y0001173720I0000002460D01*
G01*
X0001718011Y0001173720D01*
G75*
G02*
X0001720472Y0001171259J-0000002460D01*
G01*
G37*
G36*
G01*
X0001720472Y0001151574D02*
X0001720472Y0001146653D01*
G75*
G02*
X0001718011Y0001144192I-0000002460D01*
G01*
X0001688484Y0001144192D01*
G75*
G02*
X0001686023Y0001146653J0000002460D01*
G01*
X0001686023Y0001151574D01*
G75*
G02*
X0001688484Y0001154035I0000002460D01*
G01*
X0001718011Y0001154035D01*
G75*
G02*
X0001720472Y0001151574J-0000002460D01*
G01*
G37*
G36*
G01*
X0001720472Y0001131889D02*
X0001720472Y0001126968D01*
G75*
G02*
X0001718011Y0001124507I-0000002460D01*
G01*
X0001688484Y0001124507D01*
G75*
G02*
X0001686023Y0001126968J0000002460D01*
G01*
X0001686023Y0001131889D01*
G75*
G02*
X0001688484Y0001134350I0000002460D01*
G01*
X0001718011Y0001134350D01*
G75*
G02*
X0001720472Y0001131889J-0000002460D01*
G01*
G37*
G36*
G01*
X0001720472Y0001112204D02*
X0001720472Y0001107283D01*
G75*
G02*
X0001718011Y0001104822I-0000002460D01*
G01*
X0001688484Y0001104822D01*
G75*
G02*
X0001686023Y0001107283J0000002460D01*
G01*
X0001686023Y0001112204D01*
G75*
G02*
X0001688484Y0001114665I0000002460D01*
G01*
X0001718011Y0001114665D01*
G75*
G02*
X0001720472Y0001112204J-0000002460D01*
G01*
G37*
G36*
X0001687449Y0001085171D02*
G01*
X0001687117Y0001085272D01*
X0001686810Y0001085436D01*
X0001686542Y0001085656D01*
X0001686322Y0001085925D01*
X0001686158Y0001086231D01*
X0001686057Y0001086563D01*
X0001686023Y0001086909D01*
X0001686023Y0001093208D01*
X0001686057Y0001093554D01*
X0001686158Y0001093886D01*
X0001686322Y0001094192D01*
X0001686542Y0001094461D01*
X0001686810Y0001094681D01*
X0001687117Y0001094845D01*
X0001687449Y0001094946D01*
X0001687795Y0001094980D01*
X0001713976Y0001094980D01*
X0001714322Y0001094946D01*
X0001714654Y0001094845D01*
X0001714960Y0001094681D01*
X0001715229Y0001094461D01*
X0001715449Y0001094192D01*
X0001715613Y0001093886D01*
X0001715713Y0001093554D01*
X0001715748Y0001093208D01*
X0001715748Y0001092170D01*
X0001715713Y0001091825D01*
X0001715613Y0001091492D01*
X0001715449Y0001091186D01*
X0001715229Y0001090918D01*
X0001709967Y0001085656D01*
X0001709699Y0001085436D01*
X0001709392Y0001085272D01*
X0001709060Y0001085171D01*
X0001708714Y0001085137D01*
X0001687795Y0001085137D01*
X0001687449Y0001085171D01*
G37*
G36*
X0001716977Y0001055644D02*
G01*
X0001716644Y0001055745D01*
X0001716338Y0001055908D01*
X0001716070Y0001056129D01*
X0001715849Y0001056397D01*
X0001715686Y0001056703D01*
X0001715585Y0001057036D01*
X0001715551Y0001057381D01*
X0001715551Y0001078301D01*
X0001715585Y0001078647D01*
X0001715686Y0001078979D01*
X0001715849Y0001079285D01*
X0001716070Y0001079554D01*
X0001721331Y0001084815D01*
X0001721599Y0001085036D01*
X0001721906Y0001085199D01*
X0001722238Y0001085300D01*
X0001722584Y0001085334D01*
X0001723622Y0001085334D01*
X0001723967Y0001085300D01*
X0001724300Y0001085199D01*
X0001724606Y0001085036D01*
X0001724874Y0001084815D01*
X0001725095Y0001084547D01*
X0001725258Y0001084240D01*
X0001725359Y0001083908D01*
X0001725393Y0001083562D01*
X0001725393Y0001057381D01*
X0001725359Y0001057036D01*
X0001725258Y0001056703D01*
X0001725095Y0001056397D01*
X0001724874Y0001056129D01*
X0001724606Y0001055908D01*
X0001724300Y0001055745D01*
X0001723967Y0001055644D01*
X0001723622Y0001055610D01*
X0001717322Y0001055610D01*
X0001716977Y0001055644D01*
G37*
G36*
G01*
X0001745078Y0001087598D02*
X0001745078Y0001058070D01*
G75*
G02*
X0001742618Y0001055610I-0000002460D01*
G01*
X0001737696Y0001055610D01*
G75*
G02*
X0001735236Y0001058070J0000002460D01*
G01*
X0001735236Y0001087598D01*
G75*
G02*
X0001737696Y0001090059I0000002460D01*
G01*
X0001742618Y0001090059D01*
G75*
G02*
X0001745078Y0001087598J-0000002460D01*
G01*
G37*
G36*
G01*
X0001764763Y0001087598D02*
X0001764763Y0001058070D01*
G75*
G02*
X0001762303Y0001055610I-0000002460D01*
G01*
X0001757381Y0001055610D01*
G75*
G02*
X0001754921Y0001058070J0000002460D01*
G01*
X0001754921Y0001087598D01*
G75*
G02*
X0001757381Y0001090059I0000002460D01*
G01*
X0001762303Y0001090059D01*
G75*
G02*
X0001764763Y0001087598J-0000002460D01*
G01*
G37*
G36*
G01*
X0001784448Y0001087598D02*
X0001784448Y0001058070D01*
G75*
G02*
X0001781988Y0001055610I-0000002460D01*
G01*
X0001777066Y0001055610D01*
G75*
G02*
X0001774606Y0001058070J0000002460D01*
G01*
X0001774606Y0001087598D01*
G75*
G02*
X0001777066Y0001090059I0000002460D01*
G01*
X0001781988Y0001090059D01*
G75*
G02*
X0001784448Y0001087598J-0000002460D01*
G01*
G37*
G36*
G01*
X0001804133Y0001087598D02*
X0001804133Y0001058070D01*
G75*
G02*
X0001801673Y0001055610I-0000002460D01*
G01*
X0001796751Y0001055610D01*
G75*
G02*
X0001794291Y0001058070J0000002460D01*
G01*
X0001794291Y0001087598D01*
G75*
G02*
X0001796751Y0001090059I0000002460D01*
G01*
X0001801673Y0001090059D01*
G75*
G02*
X0001804133Y0001087598J-0000002460D01*
G01*
G37*
G36*
G01*
X0001823818Y0001087598D02*
X0001823818Y0001058070D01*
G75*
G02*
X0001821358Y0001055610I-0000002460D01*
G01*
X0001816437Y0001055610D01*
G75*
G02*
X0001813976Y0001058070J0000002460D01*
G01*
X0001813976Y0001087598D01*
G75*
G02*
X0001816437Y0001090059I0000002460D01*
G01*
X0001821358Y0001090059D01*
G75*
G02*
X0001823818Y0001087598J-0000002460D01*
G01*
G37*
G36*
X0001835087Y0001055644D02*
G01*
X0001834755Y0001055745D01*
X0001834448Y0001055908D01*
X0001834180Y0001056129D01*
X0001833960Y0001056397D01*
X0001833796Y0001056703D01*
X0001833695Y0001057036D01*
X0001833661Y0001057381D01*
X0001833661Y0001083562D01*
X0001833695Y0001083908D01*
X0001833796Y0001084240D01*
X0001833960Y0001084547D01*
X0001834180Y0001084815D01*
X0001834448Y0001085036D01*
X0001834755Y0001085199D01*
X0001835087Y0001085300D01*
X0001835433Y0001085334D01*
X0001836470Y0001085334D01*
X0001836816Y0001085300D01*
X0001837148Y0001085199D01*
X0001837455Y0001085036D01*
X0001837723Y0001084815D01*
X0001842985Y0001079554D01*
X0001843205Y0001079285D01*
X0001843369Y0001078979D01*
X0001843469Y0001078647D01*
X0001843503Y0001078301D01*
X0001843503Y0001057381D01*
X0001843469Y0001057036D01*
X0001843369Y0001056703D01*
X0001843205Y0001056397D01*
X0001842985Y0001056129D01*
X0001842716Y0001055908D01*
X0001842410Y0001055745D01*
X0001842077Y0001055644D01*
X0001841732Y0001055610D01*
X0001835433Y0001055610D01*
X0001835087Y0001055644D01*
G37*
G04 next file*
G04 Gerber Fmt 4.6, Leading zero omitted, Abs format (unit mm)*
G04 Created by KiCad (PCBNEW (5.1.8)-1) date 2020-11-23 23:28:54*
G01*
G04 APERTURE LIST*
G04 APERTURE END LIST*
G36*
G01*
X0003366633Y0000816683D02*
X0003366633Y0000836860D01*
G75*
G02*
X0003375246Y0000845472I0000008612D01*
G01*
X0003392470Y0000845472D01*
G75*
G02*
X0003401082Y0000836860J-0000008612D01*
G01*
X0003401082Y0000816683D01*
G75*
G02*
X0003392470Y0000808070I-0000008612D01*
G01*
X0003375246Y0000808070D01*
G75*
G02*
X0003366633Y0000816683J0000008612D01*
G01*
G37*
G36*
G01*
X0003428641Y0000816683D02*
X0003428641Y0000836860D01*
G75*
G02*
X0003437253Y0000845472I0000008612D01*
G01*
X0003454478Y0000845472D01*
G75*
G02*
X0003463090Y0000836860J-0000008612D01*
G01*
X0003463090Y0000816683D01*
G75*
G02*
X0003454478Y0000808070I-0000008612D01*
G01*
X0003437253Y0000808070D01*
G75*
G02*
X0003428641Y0000816683J0000008612D01*
G01*
G37*
D32*
X0003452755Y0001151574D03*
X0003490157Y0001072834D03*
X0003415354Y0001072834D03*
X0003071850Y0001200787D03*
X0003146653Y0001200787D03*
X0003109252Y0001279527D03*
G36*
G01*
X0003365157Y0001063976D02*
X0003343503Y0001063976D01*
G75*
G02*
X0003335629Y0001071850J0000007874D01*
G01*
X0003335629Y0001087598D01*
G75*
G02*
X0003343503Y0001095472I0000007874D01*
G01*
X0003365157Y0001095472D01*
G75*
G02*
X0003373031Y0001087598J-0000007874D01*
G01*
X0003373031Y0001071850D01*
G75*
G02*
X0003365157Y0001063976I-0000007874D01*
G01*
G37*
G36*
G01*
X0003365157Y0001128937D02*
X0003343503Y0001128937D01*
G75*
G02*
X0003335629Y0001136811J0000007874D01*
G01*
X0003335629Y0001152559D01*
G75*
G02*
X0003343503Y0001160433I0000007874D01*
G01*
X0003365157Y0001160433D01*
G75*
G02*
X0003373031Y0001152559J-0000007874D01*
G01*
X0003373031Y0001136811D01*
G75*
G02*
X0003365157Y0001128937I-0000007874D01*
G01*
G37*
G36*
G01*
X0003020669Y0001247047D02*
X0002999015Y0001247047D01*
G75*
G02*
X0002991141Y0001254921J0000007874D01*
G01*
X0002991141Y0001270669D01*
G75*
G02*
X0002999015Y0001278543I0000007874D01*
G01*
X0003020669Y0001278543D01*
G75*
G02*
X0003028543Y0001270669J-0000007874D01*
G01*
X0003028543Y0001254921D01*
G75*
G02*
X0003020669Y0001247047I-0000007874D01*
G01*
G37*
G36*
G01*
X0003020669Y0001182086D02*
X0002999015Y0001182086D01*
G75*
G02*
X0002991141Y0001189960J0000007874D01*
G01*
X0002991141Y0001205708D01*
G75*
G02*
X0002999015Y0001213582I0000007874D01*
G01*
X0003020669Y0001213582D01*
G75*
G02*
X0003028543Y0001205708J-0000007874D01*
G01*
X0003028543Y0001189960D01*
G75*
G02*
X0003020669Y0001182086I-0000007874D01*
G01*
G37*
G36*
G01*
X0003190944Y0001239173D02*
X0003190944Y0001260826D01*
G75*
G02*
X0003198818Y0001268700I0000007874D01*
G01*
X0003214566Y0001268700D01*
G75*
G02*
X0003222440Y0001260826J-0000007874D01*
G01*
X0003222440Y0001239173D01*
G75*
G02*
X0003214566Y0001231299I-0000007874D01*
G01*
X0003198818Y0001231299D01*
G75*
G02*
X0003190944Y0001239173J0000007874D01*
G01*
G37*
G36*
G01*
X0003255905Y0001239173D02*
X0003255905Y0001260826D01*
G75*
G02*
X0003263779Y0001268700I0000007874D01*
G01*
X0003279527Y0001268700D01*
G75*
G02*
X0003287401Y0001260826J-0000007874D01*
G01*
X0003287401Y0001239173D01*
G75*
G02*
X0003279527Y0001231299I-0000007874D01*
G01*
X0003263779Y0001231299D01*
G75*
G02*
X0003255905Y0001239173J0000007874D01*
G01*
G37*
D33*
X0002831692Y0000809055D03*
X0002806102Y0000809055D03*
X0002780511Y0000809055D03*
X0002754921Y0000809055D03*
X0002754921Y0000687007D03*
X0002780511Y0000687007D03*
X0002806102Y0000687007D03*
X0002831692Y0000687007D03*
D34*
X0002769685Y0000763287D03*
X0002769685Y0000732775D03*
X0002816929Y0000732775D03*
X0002816929Y0000763287D03*
D35*
X0003212598Y0001179133D03*
X0003212598Y0001141732D03*
X0003212598Y0001104330D03*
X0003299212Y0001104330D03*
X0003299212Y0001179133D03*
D36*
X0003356299Y0000771653D03*
X0003431102Y0000771653D03*
X0003431102Y0000685039D03*
X0003393700Y0000685039D03*
X0003356299Y0000685039D03*
D37*
G36*
X0002912986Y0001085171D02*
G01*
X0002912654Y0001085272D01*
X0002912347Y0001085436D01*
X0002912079Y0001085656D01*
X0002906818Y0001090918D01*
X0002906597Y0001091186D01*
X0002906434Y0001091492D01*
X0002906333Y0001091825D01*
X0002906299Y0001092170D01*
X0002906299Y0001093208D01*
X0002906333Y0001093554D01*
X0002906434Y0001093886D01*
X0002906597Y0001094192D01*
X0002906818Y0001094461D01*
X0002907086Y0001094681D01*
X0002907392Y0001094845D01*
X0002907725Y0001094946D01*
X0002908070Y0001094980D01*
X0002934251Y0001094980D01*
X0002934597Y0001094946D01*
X0002934929Y0001094845D01*
X0002935236Y0001094681D01*
X0002935504Y0001094461D01*
X0002935725Y0001094192D01*
X0002935888Y0001093886D01*
X0002935989Y0001093554D01*
X0002936023Y0001093208D01*
X0002936023Y0001086909D01*
X0002935989Y0001086563D01*
X0002935888Y0001086231D01*
X0002935725Y0001085925D01*
X0002935504Y0001085656D01*
X0002935236Y0001085436D01*
X0002934929Y0001085272D01*
X0002934597Y0001085171D01*
X0002934251Y0001085137D01*
X0002913332Y0001085137D01*
X0002912986Y0001085171D01*
G37*
G36*
G01*
X0002936023Y0001112204D02*
X0002936023Y0001107283D01*
G75*
G02*
X0002933562Y0001104822I-0000002460D01*
G01*
X0002904035Y0001104822D01*
G75*
G02*
X0002901574Y0001107283J0000002460D01*
G01*
X0002901574Y0001112204D01*
G75*
G02*
X0002904035Y0001114665I0000002460D01*
G01*
X0002933562Y0001114665D01*
G75*
G02*
X0002936023Y0001112204J-0000002460D01*
G01*
G37*
G36*
G01*
X0002936023Y0001131889D02*
X0002936023Y0001126968D01*
G75*
G02*
X0002933562Y0001124507I-0000002460D01*
G01*
X0002904035Y0001124507D01*
G75*
G02*
X0002901574Y0001126968J0000002460D01*
G01*
X0002901574Y0001131889D01*
G75*
G02*
X0002904035Y0001134350I0000002460D01*
G01*
X0002933562Y0001134350D01*
G75*
G02*
X0002936023Y0001131889J-0000002460D01*
G01*
G37*
G36*
G01*
X0002936023Y0001151574D02*
X0002936023Y0001146653D01*
G75*
G02*
X0002933562Y0001144192I-0000002460D01*
G01*
X0002904035Y0001144192D01*
G75*
G02*
X0002901574Y0001146653J0000002460D01*
G01*
X0002901574Y0001151574D01*
G75*
G02*
X0002904035Y0001154035I0000002460D01*
G01*
X0002933562Y0001154035D01*
G75*
G02*
X0002936023Y0001151574J-0000002460D01*
G01*
G37*
G36*
G01*
X0002936023Y0001171259D02*
X0002936023Y0001166338D01*
G75*
G02*
X0002933562Y0001163877I-0000002460D01*
G01*
X0002904035Y0001163877D01*
G75*
G02*
X0002901574Y0001166338J0000002460D01*
G01*
X0002901574Y0001171259D01*
G75*
G02*
X0002904035Y0001173720I0000002460D01*
G01*
X0002933562Y0001173720D01*
G75*
G02*
X0002936023Y0001171259J-0000002460D01*
G01*
G37*
G36*
G01*
X0002936023Y0001190944D02*
X0002936023Y0001186023D01*
G75*
G02*
X0002933562Y0001183562I-0000002460D01*
G01*
X0002904035Y0001183562D01*
G75*
G02*
X0002901574Y0001186023J0000002460D01*
G01*
X0002901574Y0001190944D01*
G75*
G02*
X0002904035Y0001193405I0000002460D01*
G01*
X0002933562Y0001193405D01*
G75*
G02*
X0002936023Y0001190944J-0000002460D01*
G01*
G37*
G36*
X0002907725Y0001203282D02*
G01*
X0002907392Y0001203382D01*
X0002907086Y0001203546D01*
X0002906818Y0001203766D01*
X0002906597Y0001204035D01*
X0002906434Y0001204341D01*
X0002906333Y0001204674D01*
X0002906299Y0001205019D01*
X0002906299Y0001206057D01*
X0002906333Y0001206403D01*
X0002906434Y0001206735D01*
X0002906597Y0001207041D01*
X0002906818Y0001207310D01*
X0002912079Y0001212571D01*
X0002912347Y0001212791D01*
X0002912654Y0001212955D01*
X0002912986Y0001213056D01*
X0002913332Y0001213090D01*
X0002934251Y0001213090D01*
X0002934597Y0001213056D01*
X0002934929Y0001212955D01*
X0002935236Y0001212791D01*
X0002935504Y0001212571D01*
X0002935725Y0001212303D01*
X0002935888Y0001211996D01*
X0002935989Y0001211664D01*
X0002936023Y0001211318D01*
X0002936023Y0001205019D01*
X0002935989Y0001204674D01*
X0002935888Y0001204341D01*
X0002935725Y0001204035D01*
X0002935504Y0001203766D01*
X0002935236Y0001203546D01*
X0002934929Y0001203382D01*
X0002934597Y0001203282D01*
X0002934251Y0001203248D01*
X0002908070Y0001203248D01*
X0002907725Y0001203282D01*
G37*
G36*
X0002898079Y0001212927D02*
G01*
X0002897747Y0001213028D01*
X0002897440Y0001213192D01*
X0002897172Y0001213412D01*
X0002896952Y0001213681D01*
X0002896788Y0001213987D01*
X0002896687Y0001214319D01*
X0002896653Y0001214665D01*
X0002896653Y0001240846D01*
X0002896687Y0001241192D01*
X0002896788Y0001241524D01*
X0002896952Y0001241830D01*
X0002897172Y0001242099D01*
X0002897440Y0001242319D01*
X0002897747Y0001242483D01*
X0002898079Y0001242584D01*
X0002898425Y0001242618D01*
X0002904724Y0001242618D01*
X0002905070Y0001242584D01*
X0002905402Y0001242483D01*
X0002905708Y0001242319D01*
X0002905977Y0001242099D01*
X0002906197Y0001241830D01*
X0002906361Y0001241524D01*
X0002906462Y0001241192D01*
X0002906496Y0001240846D01*
X0002906496Y0001219926D01*
X0002906462Y0001219581D01*
X0002906361Y0001219248D01*
X0002906197Y0001218942D01*
X0002905977Y0001218674D01*
X0002900715Y0001213412D01*
X0002900447Y0001213192D01*
X0002900140Y0001213028D01*
X0002899808Y0001212927D01*
X0002899462Y0001212893D01*
X0002898425Y0001212893D01*
X0002898079Y0001212927D01*
G37*
G36*
G01*
X0002886811Y0001240157D02*
X0002886811Y0001210629D01*
G75*
G02*
X0002884350Y0001208169I-0000002460D01*
G01*
X0002879429Y0001208169D01*
G75*
G02*
X0002876968Y0001210629J0000002460D01*
G01*
X0002876968Y0001240157D01*
G75*
G02*
X0002879429Y0001242618I0000002460D01*
G01*
X0002884350Y0001242618D01*
G75*
G02*
X0002886811Y0001240157J-0000002460D01*
G01*
G37*
G36*
G01*
X0002867125Y0001240157D02*
X0002867125Y0001210629D01*
G75*
G02*
X0002864665Y0001208169I-0000002460D01*
G01*
X0002859744Y0001208169D01*
G75*
G02*
X0002857283Y0001210629J0000002460D01*
G01*
X0002857283Y0001240157D01*
G75*
G02*
X0002859744Y0001242618I0000002460D01*
G01*
X0002864665Y0001242618D01*
G75*
G02*
X0002867125Y0001240157J-0000002460D01*
G01*
G37*
G36*
G01*
X0002847440Y0001240157D02*
X0002847440Y0001210629D01*
G75*
G02*
X0002844980Y0001208169I-0000002460D01*
G01*
X0002840059Y0001208169D01*
G75*
G02*
X0002837598Y0001210629J0000002460D01*
G01*
X0002837598Y0001240157D01*
G75*
G02*
X0002840059Y0001242618I0000002460D01*
G01*
X0002844980Y0001242618D01*
G75*
G02*
X0002847440Y0001240157J-0000002460D01*
G01*
G37*
G36*
G01*
X0002827755Y0001240157D02*
X0002827755Y0001210629D01*
G75*
G02*
X0002825295Y0001208169I-0000002460D01*
G01*
X0002820374Y0001208169D01*
G75*
G02*
X0002817913Y0001210629J0000002460D01*
G01*
X0002817913Y0001240157D01*
G75*
G02*
X0002820374Y0001242618I0000002460D01*
G01*
X0002825295Y0001242618D01*
G75*
G02*
X0002827755Y0001240157J-0000002460D01*
G01*
G37*
G36*
G01*
X0002808070Y0001240157D02*
X0002808070Y0001210629D01*
G75*
G02*
X0002805610Y0001208169I-0000002460D01*
G01*
X0002800688Y0001208169D01*
G75*
G02*
X0002798228Y0001210629J0000002460D01*
G01*
X0002798228Y0001240157D01*
G75*
G02*
X0002800688Y0001242618I0000002460D01*
G01*
X0002805610Y0001242618D01*
G75*
G02*
X0002808070Y0001240157J-0000002460D01*
G01*
G37*
G36*
X0002785230Y0001212927D02*
G01*
X0002784898Y0001213028D01*
X0002784592Y0001213192D01*
X0002784323Y0001213412D01*
X0002779062Y0001218674D01*
X0002778841Y0001218942D01*
X0002778678Y0001219248D01*
X0002778577Y0001219581D01*
X0002778543Y0001219926D01*
X0002778543Y0001240846D01*
X0002778577Y0001241192D01*
X0002778678Y0001241524D01*
X0002778841Y0001241830D01*
X0002779062Y0001242099D01*
X0002779330Y0001242319D01*
X0002779636Y0001242483D01*
X0002779969Y0001242584D01*
X0002780314Y0001242618D01*
X0002786614Y0001242618D01*
X0002786959Y0001242584D01*
X0002787292Y0001242483D01*
X0002787598Y0001242319D01*
X0002787866Y0001242099D01*
X0002788087Y0001241830D01*
X0002788250Y0001241524D01*
X0002788351Y0001241192D01*
X0002788385Y0001240846D01*
X0002788385Y0001214665D01*
X0002788351Y0001214319D01*
X0002788250Y0001213987D01*
X0002788087Y0001213681D01*
X0002787866Y0001213412D01*
X0002787598Y0001213192D01*
X0002787292Y0001213028D01*
X0002786959Y0001212927D01*
X0002786614Y0001212893D01*
X0002785576Y0001212893D01*
X0002785230Y0001212927D01*
G37*
G36*
X0002750441Y0001203282D02*
G01*
X0002750109Y0001203382D01*
X0002749803Y0001203546D01*
X0002749534Y0001203766D01*
X0002749314Y0001204035D01*
X0002749150Y0001204341D01*
X0002749049Y0001204674D01*
X0002749015Y0001205019D01*
X0002749015Y0001211318D01*
X0002749049Y0001211664D01*
X0002749150Y0001211996D01*
X0002749314Y0001212303D01*
X0002749534Y0001212571D01*
X0002749803Y0001212791D01*
X0002750109Y0001212955D01*
X0002750441Y0001213056D01*
X0002750787Y0001213090D01*
X0002771707Y0001213090D01*
X0002772052Y0001213056D01*
X0002772385Y0001212955D01*
X0002772691Y0001212791D01*
X0002772959Y0001212571D01*
X0002778221Y0001207310D01*
X0002778441Y0001207041D01*
X0002778605Y0001206735D01*
X0002778706Y0001206403D01*
X0002778740Y0001206057D01*
X0002778740Y0001205019D01*
X0002778706Y0001204674D01*
X0002778605Y0001204341D01*
X0002778441Y0001204035D01*
X0002778221Y0001203766D01*
X0002777952Y0001203546D01*
X0002777646Y0001203382D01*
X0002777314Y0001203282D01*
X0002776968Y0001203248D01*
X0002750787Y0001203248D01*
X0002750441Y0001203282D01*
G37*
G36*
G01*
X0002783464Y0001190944D02*
X0002783464Y0001186023D01*
G75*
G02*
X0002781003Y0001183562I-0000002460D01*
G01*
X0002751476Y0001183562D01*
G75*
G02*
X0002749015Y0001186023J0000002460D01*
G01*
X0002749015Y0001190944D01*
G75*
G02*
X0002751476Y0001193405I0000002460D01*
G01*
X0002781003Y0001193405D01*
G75*
G02*
X0002783464Y0001190944J-0000002460D01*
G01*
G37*
G36*
G01*
X0002783464Y0001171259D02*
X0002783464Y0001166338D01*
G75*
G02*
X0002781003Y0001163877I-0000002460D01*
G01*
X0002751476Y0001163877D01*
G75*
G02*
X0002749015Y0001166338J0000002460D01*
G01*
X0002749015Y0001171259D01*
G75*
G02*
X0002751476Y0001173720I0000002460D01*
G01*
X0002781003Y0001173720D01*
G75*
G02*
X0002783464Y0001171259J-0000002460D01*
G01*
G37*
G36*
G01*
X0002783464Y0001151574D02*
X0002783464Y0001146653D01*
G75*
G02*
X0002781003Y0001144192I-0000002460D01*
G01*
X0002751476Y0001144192D01*
G75*
G02*
X0002749015Y0001146653J0000002460D01*
G01*
X0002749015Y0001151574D01*
G75*
G02*
X0002751476Y0001154035I0000002460D01*
G01*
X0002781003Y0001154035D01*
G75*
G02*
X0002783464Y0001151574J-0000002460D01*
G01*
G37*
G36*
G01*
X0002783464Y0001131889D02*
X0002783464Y0001126968D01*
G75*
G02*
X0002781003Y0001124507I-0000002460D01*
G01*
X0002751476Y0001124507D01*
G75*
G02*
X0002749015Y0001126968J0000002460D01*
G01*
X0002749015Y0001131889D01*
G75*
G02*
X0002751476Y0001134350I0000002460D01*
G01*
X0002781003Y0001134350D01*
G75*
G02*
X0002783464Y0001131889J-0000002460D01*
G01*
G37*
G36*
G01*
X0002783464Y0001112204D02*
X0002783464Y0001107283D01*
G75*
G02*
X0002781003Y0001104822I-0000002460D01*
G01*
X0002751476Y0001104822D01*
G75*
G02*
X0002749015Y0001107283J0000002460D01*
G01*
X0002749015Y0001112204D01*
G75*
G02*
X0002751476Y0001114665I0000002460D01*
G01*
X0002781003Y0001114665D01*
G75*
G02*
X0002783464Y0001112204J-0000002460D01*
G01*
G37*
G36*
X0002750441Y0001085171D02*
G01*
X0002750109Y0001085272D01*
X0002749803Y0001085436D01*
X0002749534Y0001085656D01*
X0002749314Y0001085925D01*
X0002749150Y0001086231D01*
X0002749049Y0001086563D01*
X0002749015Y0001086909D01*
X0002749015Y0001093208D01*
X0002749049Y0001093554D01*
X0002749150Y0001093886D01*
X0002749314Y0001094192D01*
X0002749534Y0001094461D01*
X0002749803Y0001094681D01*
X0002750109Y0001094845D01*
X0002750441Y0001094946D01*
X0002750787Y0001094980D01*
X0002776968Y0001094980D01*
X0002777314Y0001094946D01*
X0002777646Y0001094845D01*
X0002777952Y0001094681D01*
X0002778221Y0001094461D01*
X0002778441Y0001094192D01*
X0002778605Y0001093886D01*
X0002778706Y0001093554D01*
X0002778740Y0001093208D01*
X0002778740Y0001092170D01*
X0002778706Y0001091825D01*
X0002778605Y0001091492D01*
X0002778441Y0001091186D01*
X0002778221Y0001090918D01*
X0002772959Y0001085656D01*
X0002772691Y0001085436D01*
X0002772385Y0001085272D01*
X0002772052Y0001085171D01*
X0002771707Y0001085137D01*
X0002750787Y0001085137D01*
X0002750441Y0001085171D01*
G37*
G36*
X0002779969Y0001055644D02*
G01*
X0002779636Y0001055745D01*
X0002779330Y0001055908D01*
X0002779062Y0001056129D01*
X0002778841Y0001056397D01*
X0002778678Y0001056703D01*
X0002778577Y0001057036D01*
X0002778543Y0001057381D01*
X0002778543Y0001078301D01*
X0002778577Y0001078647D01*
X0002778678Y0001078979D01*
X0002778841Y0001079285D01*
X0002779062Y0001079554D01*
X0002784323Y0001084815D01*
X0002784592Y0001085036D01*
X0002784898Y0001085199D01*
X0002785230Y0001085300D01*
X0002785576Y0001085334D01*
X0002786614Y0001085334D01*
X0002786959Y0001085300D01*
X0002787292Y0001085199D01*
X0002787598Y0001085036D01*
X0002787866Y0001084815D01*
X0002788087Y0001084547D01*
X0002788250Y0001084240D01*
X0002788351Y0001083908D01*
X0002788385Y0001083562D01*
X0002788385Y0001057381D01*
X0002788351Y0001057036D01*
X0002788250Y0001056703D01*
X0002788087Y0001056397D01*
X0002787866Y0001056129D01*
X0002787598Y0001055908D01*
X0002787292Y0001055745D01*
X0002786959Y0001055644D01*
X0002786614Y0001055610D01*
X0002780314Y0001055610D01*
X0002779969Y0001055644D01*
G37*
G36*
G01*
X0002808070Y0001087598D02*
X0002808070Y0001058070D01*
G75*
G02*
X0002805610Y0001055610I-0000002460D01*
G01*
X0002800688Y0001055610D01*
G75*
G02*
X0002798228Y0001058070J0000002460D01*
G01*
X0002798228Y0001087598D01*
G75*
G02*
X0002800688Y0001090059I0000002460D01*
G01*
X0002805610Y0001090059D01*
G75*
G02*
X0002808070Y0001087598J-0000002460D01*
G01*
G37*
G36*
G01*
X0002827755Y0001087598D02*
X0002827755Y0001058070D01*
G75*
G02*
X0002825295Y0001055610I-0000002460D01*
G01*
X0002820374Y0001055610D01*
G75*
G02*
X0002817913Y0001058070J0000002460D01*
G01*
X0002817913Y0001087598D01*
G75*
G02*
X0002820374Y0001090059I0000002460D01*
G01*
X0002825295Y0001090059D01*
G75*
G02*
X0002827755Y0001087598J-0000002460D01*
G01*
G37*
G36*
G01*
X0002847440Y0001087598D02*
X0002847440Y0001058070D01*
G75*
G02*
X0002844980Y0001055610I-0000002460D01*
G01*
X0002840059Y0001055610D01*
G75*
G02*
X0002837598Y0001058070J0000002460D01*
G01*
X0002837598Y0001087598D01*
G75*
G02*
X0002840059Y0001090059I0000002460D01*
G01*
X0002844980Y0001090059D01*
G75*
G02*
X0002847440Y0001087598J-0000002460D01*
G01*
G37*
G36*
G01*
X0002867125Y0001087598D02*
X0002867125Y0001058070D01*
G75*
G02*
X0002864665Y0001055610I-0000002460D01*
G01*
X0002859744Y0001055610D01*
G75*
G02*
X0002857283Y0001058070J0000002460D01*
G01*
X0002857283Y0001087598D01*
G75*
G02*
X0002859744Y0001090059I0000002460D01*
G01*
X0002864665Y0001090059D01*
G75*
G02*
X0002867125Y0001087598J-0000002460D01*
G01*
G37*
G36*
G01*
X0002886811Y0001087598D02*
X0002886811Y0001058070D01*
G75*
G02*
X0002884350Y0001055610I-0000002460D01*
G01*
X0002879429Y0001055610D01*
G75*
G02*
X0002876968Y0001058070J0000002460D01*
G01*
X0002876968Y0001087598D01*
G75*
G02*
X0002879429Y0001090059I0000002460D01*
G01*
X0002884350Y0001090059D01*
G75*
G02*
X0002886811Y0001087598J-0000002460D01*
G01*
G37*
G36*
X0002898079Y0001055644D02*
G01*
X0002897747Y0001055745D01*
X0002897440Y0001055908D01*
X0002897172Y0001056129D01*
X0002896952Y0001056397D01*
X0002896788Y0001056703D01*
X0002896687Y0001057036D01*
X0002896653Y0001057381D01*
X0002896653Y0001083562D01*
X0002896687Y0001083908D01*
X0002896788Y0001084240D01*
X0002896952Y0001084547D01*
X0002897172Y0001084815D01*
X0002897440Y0001085036D01*
X0002897747Y0001085199D01*
X0002898079Y0001085300D01*
X0002898425Y0001085334D01*
X0002899462Y0001085334D01*
X0002899808Y0001085300D01*
X0002900140Y0001085199D01*
X0002900447Y0001085036D01*
X0002900715Y0001084815D01*
X0002905977Y0001079554D01*
X0002906197Y0001079285D01*
X0002906361Y0001078979D01*
X0002906462Y0001078647D01*
X0002906496Y0001078301D01*
X0002906496Y0001057381D01*
X0002906462Y0001057036D01*
X0002906361Y0001056703D01*
X0002906197Y0001056397D01*
X0002905977Y0001056129D01*
X0002905708Y0001055908D01*
X0002905402Y0001055745D01*
X0002905070Y0001055644D01*
X0002904724Y0001055610D01*
X0002898425Y0001055610D01*
X0002898079Y0001055644D01*
G37*
G04 next file*
G04 Gerber Fmt 4.6, Leading zero omitted, Abs format (unit mm)*
G04 Created by KiCad (PCBNEW (5.1.8)-1) date 2020-11-23 23:28:54*
G01*
G04 APERTURE LIST*
G04 APERTURE END LIST*
G36*
G01*
X0001240649Y0001840305D02*
X0001240649Y0001860482D01*
G75*
G02*
X0001249261Y0001869094I0000008612D01*
G01*
X0001266486Y0001869094D01*
G75*
G02*
X0001275098Y0001860482J-0000008612D01*
G01*
X0001275098Y0001840305D01*
G75*
G02*
X0001266486Y0001831692I-0000008612D01*
G01*
X0001249261Y0001831692D01*
G75*
G02*
X0001240649Y0001840305J0000008612D01*
G01*
G37*
G36*
G01*
X0001302657Y0001840305D02*
X0001302657Y0001860482D01*
G75*
G02*
X0001311269Y0001869094I0000008612D01*
G01*
X0001328494Y0001869094D01*
G75*
G02*
X0001337106Y0001860482J-0000008612D01*
G01*
X0001337106Y0001840305D01*
G75*
G02*
X0001328494Y0001831692I-0000008612D01*
G01*
X0001311269Y0001831692D01*
G75*
G02*
X0001302657Y0001840305J0000008612D01*
G01*
G37*
D38*
X0001326771Y0002175196D03*
X0001364173Y0002096456D03*
X0001289370Y0002096456D03*
X0000945866Y0002224409D03*
X0001020669Y0002224409D03*
X0000983267Y0002303149D03*
G36*
G01*
X0001239173Y0002087598D02*
X0001217519Y0002087598D01*
G75*
G02*
X0001209645Y0002095472J0000007874D01*
G01*
X0001209645Y0002111220D01*
G75*
G02*
X0001217519Y0002119094I0000007874D01*
G01*
X0001239173Y0002119094D01*
G75*
G02*
X0001247047Y0002111220J-0000007874D01*
G01*
X0001247047Y0002095472D01*
G75*
G02*
X0001239173Y0002087598I-0000007874D01*
G01*
G37*
G36*
G01*
X0001239173Y0002152559D02*
X0001217519Y0002152559D01*
G75*
G02*
X0001209645Y0002160433J0000007874D01*
G01*
X0001209645Y0002176181D01*
G75*
G02*
X0001217519Y0002184055I0000007874D01*
G01*
X0001239173Y0002184055D01*
G75*
G02*
X0001247047Y0002176181J-0000007874D01*
G01*
X0001247047Y0002160433D01*
G75*
G02*
X0001239173Y0002152559I-0000007874D01*
G01*
G37*
G36*
G01*
X0000894685Y0002270669D02*
X0000873031Y0002270669D01*
G75*
G02*
X0000865157Y0002278543J0000007874D01*
G01*
X0000865157Y0002294291D01*
G75*
G02*
X0000873031Y0002302165I0000007874D01*
G01*
X0000894685Y0002302165D01*
G75*
G02*
X0000902559Y0002294291J-0000007874D01*
G01*
X0000902559Y0002278543D01*
G75*
G02*
X0000894685Y0002270669I-0000007874D01*
G01*
G37*
G36*
G01*
X0000894685Y0002205708D02*
X0000873031Y0002205708D01*
G75*
G02*
X0000865157Y0002213582J0000007874D01*
G01*
X0000865157Y0002229330D01*
G75*
G02*
X0000873031Y0002237204I0000007874D01*
G01*
X0000894685Y0002237204D01*
G75*
G02*
X0000902559Y0002229330J-0000007874D01*
G01*
X0000902559Y0002213582D01*
G75*
G02*
X0000894685Y0002205708I-0000007874D01*
G01*
G37*
G36*
G01*
X0001064960Y0002262795D02*
X0001064960Y0002284448D01*
G75*
G02*
X0001072834Y0002292322I0000007874D01*
G01*
X0001088582Y0002292322D01*
G75*
G02*
X0001096456Y0002284448J-0000007874D01*
G01*
X0001096456Y0002262795D01*
G75*
G02*
X0001088582Y0002254921I-0000007874D01*
G01*
X0001072834Y0002254921D01*
G75*
G02*
X0001064960Y0002262795J0000007874D01*
G01*
G37*
G36*
G01*
X0001129921Y0002262795D02*
X0001129921Y0002284448D01*
G75*
G02*
X0001137795Y0002292322I0000007874D01*
G01*
X0001153543Y0002292322D01*
G75*
G02*
X0001161417Y0002284448J-0000007874D01*
G01*
X0001161417Y0002262795D01*
G75*
G02*
X0001153543Y0002254921I-0000007874D01*
G01*
X0001137795Y0002254921D01*
G75*
G02*
X0001129921Y0002262795J0000007874D01*
G01*
G37*
D39*
X0000705708Y0001832677D03*
X0000680118Y0001832677D03*
X0000654527Y0001832677D03*
X0000628937Y0001832677D03*
X0000628937Y0001710629D03*
X0000654527Y0001710629D03*
X0000680118Y0001710629D03*
X0000705708Y0001710629D03*
D40*
X0000643700Y0001786909D03*
X0000643700Y0001756397D03*
X0000690944Y0001756397D03*
X0000690944Y0001786909D03*
D41*
X0001086614Y0002202755D03*
X0001086614Y0002165354D03*
X0001086614Y0002127952D03*
X0001173228Y0002127952D03*
X0001173228Y0002202755D03*
D42*
X0001230314Y0001795275D03*
X0001305118Y0001795275D03*
X0001305118Y0001708661D03*
X0001267716Y0001708661D03*
X0001230314Y0001708661D03*
D43*
G36*
X0000787002Y0002108793D02*
G01*
X0000786670Y0002108894D01*
X0000786363Y0002109058D01*
X0000786095Y0002109278D01*
X0000780833Y0002114540D01*
X0000780613Y0002114808D01*
X0000780449Y0002115114D01*
X0000780349Y0002115447D01*
X0000780314Y0002115792D01*
X0000780314Y0002116830D01*
X0000780349Y0002117176D01*
X0000780449Y0002117508D01*
X0000780613Y0002117815D01*
X0000780833Y0002118083D01*
X0000781102Y0002118303D01*
X0000781408Y0002118467D01*
X0000781740Y0002118568D01*
X0000782086Y0002118602D01*
X0000808267Y0002118602D01*
X0000808613Y0002118568D01*
X0000808945Y0002118467D01*
X0000809252Y0002118303D01*
X0000809520Y0002118083D01*
X0000809740Y0002117815D01*
X0000809904Y0002117508D01*
X0000810005Y0002117176D01*
X0000810039Y0002116830D01*
X0000810039Y0002110531D01*
X0000810005Y0002110185D01*
X0000809904Y0002109853D01*
X0000809740Y0002109547D01*
X0000809520Y0002109278D01*
X0000809252Y0002109058D01*
X0000808945Y0002108894D01*
X0000808613Y0002108793D01*
X0000808267Y0002108759D01*
X0000787348Y0002108759D01*
X0000787002Y0002108793D01*
G37*
G36*
G01*
X0000810039Y0002135826D02*
X0000810039Y0002130905D01*
G75*
G02*
X0000807578Y0002128444I-0000002460D01*
G01*
X0000778051Y0002128444D01*
G75*
G02*
X0000775590Y0002130905J0000002460D01*
G01*
X0000775590Y0002135826D01*
G75*
G02*
X0000778051Y0002138287I0000002460D01*
G01*
X0000807578Y0002138287D01*
G75*
G02*
X0000810039Y0002135826J-0000002460D01*
G01*
G37*
G36*
G01*
X0000810039Y0002155511D02*
X0000810039Y0002150590D01*
G75*
G02*
X0000807578Y0002148129I-0000002460D01*
G01*
X0000778051Y0002148129D01*
G75*
G02*
X0000775590Y0002150590J0000002460D01*
G01*
X0000775590Y0002155511D01*
G75*
G02*
X0000778051Y0002157972I0000002460D01*
G01*
X0000807578Y0002157972D01*
G75*
G02*
X0000810039Y0002155511J-0000002460D01*
G01*
G37*
G36*
G01*
X0000810039Y0002175196D02*
X0000810039Y0002170275D01*
G75*
G02*
X0000807578Y0002167814I-0000002460D01*
G01*
X0000778051Y0002167814D01*
G75*
G02*
X0000775590Y0002170275J0000002460D01*
G01*
X0000775590Y0002175196D01*
G75*
G02*
X0000778051Y0002177657I0000002460D01*
G01*
X0000807578Y0002177657D01*
G75*
G02*
X0000810039Y0002175196J-0000002460D01*
G01*
G37*
G36*
G01*
X0000810039Y0002194881D02*
X0000810039Y0002189960D01*
G75*
G02*
X0000807578Y0002187500I-0000002460D01*
G01*
X0000778051Y0002187500D01*
G75*
G02*
X0000775590Y0002189960J0000002460D01*
G01*
X0000775590Y0002194881D01*
G75*
G02*
X0000778051Y0002197342I0000002460D01*
G01*
X0000807578Y0002197342D01*
G75*
G02*
X0000810039Y0002194881J-0000002460D01*
G01*
G37*
G36*
G01*
X0000810039Y0002214566D02*
X0000810039Y0002209645D01*
G75*
G02*
X0000807578Y0002207185I-0000002460D01*
G01*
X0000778051Y0002207185D01*
G75*
G02*
X0000775590Y0002209645J0000002460D01*
G01*
X0000775590Y0002214566D01*
G75*
G02*
X0000778051Y0002217027I0000002460D01*
G01*
X0000807578Y0002217027D01*
G75*
G02*
X0000810039Y0002214566J-0000002460D01*
G01*
G37*
G36*
X0000781740Y0002226904D02*
G01*
X0000781408Y0002227004D01*
X0000781102Y0002227168D01*
X0000780833Y0002227388D01*
X0000780613Y0002227657D01*
X0000780449Y0002227963D01*
X0000780349Y0002228296D01*
X0000780314Y0002228641D01*
X0000780314Y0002229679D01*
X0000780349Y0002230025D01*
X0000780449Y0002230357D01*
X0000780613Y0002230663D01*
X0000780833Y0002230932D01*
X0000786095Y0002236193D01*
X0000786363Y0002236414D01*
X0000786670Y0002236577D01*
X0000787002Y0002236678D01*
X0000787348Y0002236712D01*
X0000808267Y0002236712D01*
X0000808613Y0002236678D01*
X0000808945Y0002236577D01*
X0000809252Y0002236414D01*
X0000809520Y0002236193D01*
X0000809740Y0002235925D01*
X0000809904Y0002235618D01*
X0000810005Y0002235286D01*
X0000810039Y0002234940D01*
X0000810039Y0002228641D01*
X0000810005Y0002228296D01*
X0000809904Y0002227963D01*
X0000809740Y0002227657D01*
X0000809520Y0002227388D01*
X0000809252Y0002227168D01*
X0000808945Y0002227004D01*
X0000808613Y0002226904D01*
X0000808267Y0002226870D01*
X0000782086Y0002226870D01*
X0000781740Y0002226904D01*
G37*
G36*
X0000772095Y0002236549D02*
G01*
X0000771762Y0002236650D01*
X0000771456Y0002236814D01*
X0000771188Y0002237034D01*
X0000770967Y0002237303D01*
X0000770804Y0002237609D01*
X0000770703Y0002237941D01*
X0000770669Y0002238287D01*
X0000770669Y0002264468D01*
X0000770703Y0002264814D01*
X0000770804Y0002265146D01*
X0000770967Y0002265452D01*
X0000771188Y0002265721D01*
X0000771456Y0002265941D01*
X0000771762Y0002266105D01*
X0000772095Y0002266206D01*
X0000772440Y0002266240D01*
X0000778740Y0002266240D01*
X0000779085Y0002266206D01*
X0000779418Y0002266105D01*
X0000779724Y0002265941D01*
X0000779992Y0002265721D01*
X0000780213Y0002265452D01*
X0000780376Y0002265146D01*
X0000780477Y0002264814D01*
X0000780511Y0002264468D01*
X0000780511Y0002243548D01*
X0000780477Y0002243203D01*
X0000780376Y0002242870D01*
X0000780213Y0002242564D01*
X0000779992Y0002242296D01*
X0000774731Y0002237034D01*
X0000774463Y0002236814D01*
X0000774156Y0002236650D01*
X0000773824Y0002236549D01*
X0000773478Y0002236515D01*
X0000772440Y0002236515D01*
X0000772095Y0002236549D01*
G37*
G36*
G01*
X0000760826Y0002263779D02*
X0000760826Y0002234251D01*
G75*
G02*
X0000758366Y0002231791I-0000002460D01*
G01*
X0000753444Y0002231791D01*
G75*
G02*
X0000750984Y0002234251J0000002460D01*
G01*
X0000750984Y0002263779D01*
G75*
G02*
X0000753444Y0002266240I0000002460D01*
G01*
X0000758366Y0002266240D01*
G75*
G02*
X0000760826Y0002263779J-0000002460D01*
G01*
G37*
G36*
G01*
X0000741141Y0002263779D02*
X0000741141Y0002234251D01*
G75*
G02*
X0000738681Y0002231791I-0000002460D01*
G01*
X0000733759Y0002231791D01*
G75*
G02*
X0000731299Y0002234251J0000002460D01*
G01*
X0000731299Y0002263779D01*
G75*
G02*
X0000733759Y0002266240I0000002460D01*
G01*
X0000738681Y0002266240D01*
G75*
G02*
X0000741141Y0002263779J-0000002460D01*
G01*
G37*
G36*
G01*
X0000721456Y0002263779D02*
X0000721456Y0002234251D01*
G75*
G02*
X0000718996Y0002231791I-0000002460D01*
G01*
X0000714074Y0002231791D01*
G75*
G02*
X0000711614Y0002234251J0000002460D01*
G01*
X0000711614Y0002263779D01*
G75*
G02*
X0000714074Y0002266240I0000002460D01*
G01*
X0000718996Y0002266240D01*
G75*
G02*
X0000721456Y0002263779J-0000002460D01*
G01*
G37*
G36*
G01*
X0000701771Y0002263779D02*
X0000701771Y0002234251D01*
G75*
G02*
X0000699311Y0002231791I-0000002460D01*
G01*
X0000694389Y0002231791D01*
G75*
G02*
X0000691929Y0002234251J0000002460D01*
G01*
X0000691929Y0002263779D01*
G75*
G02*
X0000694389Y0002266240I0000002460D01*
G01*
X0000699311Y0002266240D01*
G75*
G02*
X0000701771Y0002263779J-0000002460D01*
G01*
G37*
G36*
G01*
X0000682086Y0002263779D02*
X0000682086Y0002234251D01*
G75*
G02*
X0000679625Y0002231791I-0000002460D01*
G01*
X0000674704Y0002231791D01*
G75*
G02*
X0000672244Y0002234251J0000002460D01*
G01*
X0000672244Y0002263779D01*
G75*
G02*
X0000674704Y0002266240I0000002460D01*
G01*
X0000679625Y0002266240D01*
G75*
G02*
X0000682086Y0002263779J-0000002460D01*
G01*
G37*
G36*
X0000659246Y0002236549D02*
G01*
X0000658914Y0002236650D01*
X0000658607Y0002236814D01*
X0000658339Y0002237034D01*
X0000653077Y0002242296D01*
X0000652857Y0002242564D01*
X0000652693Y0002242870D01*
X0000652593Y0002243203D01*
X0000652559Y0002243548D01*
X0000652559Y0002264468D01*
X0000652593Y0002264814D01*
X0000652693Y0002265146D01*
X0000652857Y0002265452D01*
X0000653077Y0002265721D01*
X0000653346Y0002265941D01*
X0000653652Y0002266105D01*
X0000653985Y0002266206D01*
X0000654330Y0002266240D01*
X0000660629Y0002266240D01*
X0000660975Y0002266206D01*
X0000661307Y0002266105D01*
X0000661614Y0002265941D01*
X0000661882Y0002265721D01*
X0000662102Y0002265452D01*
X0000662266Y0002265146D01*
X0000662367Y0002264814D01*
X0000662401Y0002264468D01*
X0000662401Y0002238287D01*
X0000662367Y0002237941D01*
X0000662266Y0002237609D01*
X0000662102Y0002237303D01*
X0000661882Y0002237034D01*
X0000661614Y0002236814D01*
X0000661307Y0002236650D01*
X0000660975Y0002236549D01*
X0000660629Y0002236515D01*
X0000659592Y0002236515D01*
X0000659246Y0002236549D01*
G37*
G36*
X0000624457Y0002226904D02*
G01*
X0000624125Y0002227004D01*
X0000623818Y0002227168D01*
X0000623550Y0002227388D01*
X0000623330Y0002227657D01*
X0000623166Y0002227963D01*
X0000623065Y0002228296D01*
X0000623031Y0002228641D01*
X0000623031Y0002234940D01*
X0000623065Y0002235286D01*
X0000623166Y0002235618D01*
X0000623330Y0002235925D01*
X0000623550Y0002236193D01*
X0000623818Y0002236414D01*
X0000624125Y0002236577D01*
X0000624457Y0002236678D01*
X0000624803Y0002236712D01*
X0000645722Y0002236712D01*
X0000646068Y0002236678D01*
X0000646400Y0002236577D01*
X0000646707Y0002236414D01*
X0000646975Y0002236193D01*
X0000652237Y0002230932D01*
X0000652457Y0002230663D01*
X0000652621Y0002230357D01*
X0000652721Y0002230025D01*
X0000652755Y0002229679D01*
X0000652755Y0002228641D01*
X0000652721Y0002228296D01*
X0000652621Y0002227963D01*
X0000652457Y0002227657D01*
X0000652237Y0002227388D01*
X0000651968Y0002227168D01*
X0000651662Y0002227004D01*
X0000651329Y0002226904D01*
X0000650984Y0002226870D01*
X0000624803Y0002226870D01*
X0000624457Y0002226904D01*
G37*
G36*
G01*
X0000657480Y0002214566D02*
X0000657480Y0002209645D01*
G75*
G02*
X0000655019Y0002207185I-0000002460D01*
G01*
X0000625492Y0002207185D01*
G75*
G02*
X0000623031Y0002209645J0000002460D01*
G01*
X0000623031Y0002214566D01*
G75*
G02*
X0000625492Y0002217027I0000002460D01*
G01*
X0000655019Y0002217027D01*
G75*
G02*
X0000657480Y0002214566J-0000002460D01*
G01*
G37*
G36*
G01*
X0000657480Y0002194881D02*
X0000657480Y0002189960D01*
G75*
G02*
X0000655019Y0002187500I-0000002460D01*
G01*
X0000625492Y0002187500D01*
G75*
G02*
X0000623031Y0002189960J0000002460D01*
G01*
X0000623031Y0002194881D01*
G75*
G02*
X0000625492Y0002197342I0000002460D01*
G01*
X0000655019Y0002197342D01*
G75*
G02*
X0000657480Y0002194881J-0000002460D01*
G01*
G37*
G36*
G01*
X0000657480Y0002175196D02*
X0000657480Y0002170275D01*
G75*
G02*
X0000655019Y0002167814I-0000002460D01*
G01*
X0000625492Y0002167814D01*
G75*
G02*
X0000623031Y0002170275J0000002460D01*
G01*
X0000623031Y0002175196D01*
G75*
G02*
X0000625492Y0002177657I0000002460D01*
G01*
X0000655019Y0002177657D01*
G75*
G02*
X0000657480Y0002175196J-0000002460D01*
G01*
G37*
G36*
G01*
X0000657480Y0002155511D02*
X0000657480Y0002150590D01*
G75*
G02*
X0000655019Y0002148129I-0000002460D01*
G01*
X0000625492Y0002148129D01*
G75*
G02*
X0000623031Y0002150590J0000002460D01*
G01*
X0000623031Y0002155511D01*
G75*
G02*
X0000625492Y0002157972I0000002460D01*
G01*
X0000655019Y0002157972D01*
G75*
G02*
X0000657480Y0002155511J-0000002460D01*
G01*
G37*
G36*
G01*
X0000657480Y0002135826D02*
X0000657480Y0002130905D01*
G75*
G02*
X0000655019Y0002128444I-0000002460D01*
G01*
X0000625492Y0002128444D01*
G75*
G02*
X0000623031Y0002130905J0000002460D01*
G01*
X0000623031Y0002135826D01*
G75*
G02*
X0000625492Y0002138287I0000002460D01*
G01*
X0000655019Y0002138287D01*
G75*
G02*
X0000657480Y0002135826J-0000002460D01*
G01*
G37*
G36*
X0000624457Y0002108793D02*
G01*
X0000624125Y0002108894D01*
X0000623818Y0002109058D01*
X0000623550Y0002109278D01*
X0000623330Y0002109547D01*
X0000623166Y0002109853D01*
X0000623065Y0002110185D01*
X0000623031Y0002110531D01*
X0000623031Y0002116830D01*
X0000623065Y0002117176D01*
X0000623166Y0002117508D01*
X0000623330Y0002117815D01*
X0000623550Y0002118083D01*
X0000623818Y0002118303D01*
X0000624125Y0002118467D01*
X0000624457Y0002118568D01*
X0000624803Y0002118602D01*
X0000650984Y0002118602D01*
X0000651329Y0002118568D01*
X0000651662Y0002118467D01*
X0000651968Y0002118303D01*
X0000652237Y0002118083D01*
X0000652457Y0002117815D01*
X0000652621Y0002117508D01*
X0000652721Y0002117176D01*
X0000652755Y0002116830D01*
X0000652755Y0002115792D01*
X0000652721Y0002115447D01*
X0000652621Y0002115114D01*
X0000652457Y0002114808D01*
X0000652237Y0002114540D01*
X0000646975Y0002109278D01*
X0000646707Y0002109058D01*
X0000646400Y0002108894D01*
X0000646068Y0002108793D01*
X0000645722Y0002108759D01*
X0000624803Y0002108759D01*
X0000624457Y0002108793D01*
G37*
G36*
X0000653985Y0002079266D02*
G01*
X0000653652Y0002079367D01*
X0000653346Y0002079530D01*
X0000653077Y0002079751D01*
X0000652857Y0002080019D01*
X0000652693Y0002080325D01*
X0000652593Y0002080658D01*
X0000652559Y0002081003D01*
X0000652559Y0002101923D01*
X0000652593Y0002102269D01*
X0000652693Y0002102601D01*
X0000652857Y0002102907D01*
X0000653077Y0002103176D01*
X0000658339Y0002108437D01*
X0000658607Y0002108658D01*
X0000658914Y0002108821D01*
X0000659246Y0002108922D01*
X0000659592Y0002108956D01*
X0000660629Y0002108956D01*
X0000660975Y0002108922D01*
X0000661307Y0002108821D01*
X0000661614Y0002108658D01*
X0000661882Y0002108437D01*
X0000662102Y0002108169D01*
X0000662266Y0002107863D01*
X0000662367Y0002107530D01*
X0000662401Y0002107185D01*
X0000662401Y0002081003D01*
X0000662367Y0002080658D01*
X0000662266Y0002080325D01*
X0000662102Y0002080019D01*
X0000661882Y0002079751D01*
X0000661614Y0002079530D01*
X0000661307Y0002079367D01*
X0000660975Y0002079266D01*
X0000660629Y0002079232D01*
X0000654330Y0002079232D01*
X0000653985Y0002079266D01*
G37*
G36*
G01*
X0000682086Y0002111220D02*
X0000682086Y0002081692D01*
G75*
G02*
X0000679625Y0002079232I-0000002460D01*
G01*
X0000674704Y0002079232D01*
G75*
G02*
X0000672244Y0002081692J0000002460D01*
G01*
X0000672244Y0002111220D01*
G75*
G02*
X0000674704Y0002113681I0000002460D01*
G01*
X0000679625Y0002113681D01*
G75*
G02*
X0000682086Y0002111220J-0000002460D01*
G01*
G37*
G36*
G01*
X0000701771Y0002111220D02*
X0000701771Y0002081692D01*
G75*
G02*
X0000699311Y0002079232I-0000002460D01*
G01*
X0000694389Y0002079232D01*
G75*
G02*
X0000691929Y0002081692J0000002460D01*
G01*
X0000691929Y0002111220D01*
G75*
G02*
X0000694389Y0002113681I0000002460D01*
G01*
X0000699311Y0002113681D01*
G75*
G02*
X0000701771Y0002111220J-0000002460D01*
G01*
G37*
G36*
G01*
X0000721456Y0002111220D02*
X0000721456Y0002081692D01*
G75*
G02*
X0000718996Y0002079232I-0000002460D01*
G01*
X0000714074Y0002079232D01*
G75*
G02*
X0000711614Y0002081692J0000002460D01*
G01*
X0000711614Y0002111220D01*
G75*
G02*
X0000714074Y0002113681I0000002460D01*
G01*
X0000718996Y0002113681D01*
G75*
G02*
X0000721456Y0002111220J-0000002460D01*
G01*
G37*
G36*
G01*
X0000741141Y0002111220D02*
X0000741141Y0002081692D01*
G75*
G02*
X0000738681Y0002079232I-0000002460D01*
G01*
X0000733759Y0002079232D01*
G75*
G02*
X0000731299Y0002081692J0000002460D01*
G01*
X0000731299Y0002111220D01*
G75*
G02*
X0000733759Y0002113681I0000002460D01*
G01*
X0000738681Y0002113681D01*
G75*
G02*
X0000741141Y0002111220J-0000002460D01*
G01*
G37*
G36*
G01*
X0000760826Y0002111220D02*
X0000760826Y0002081692D01*
G75*
G02*
X0000758366Y0002079232I-0000002460D01*
G01*
X0000753444Y0002079232D01*
G75*
G02*
X0000750984Y0002081692J0000002460D01*
G01*
X0000750984Y0002111220D01*
G75*
G02*
X0000753444Y0002113681I0000002460D01*
G01*
X0000758366Y0002113681D01*
G75*
G02*
X0000760826Y0002111220J-0000002460D01*
G01*
G37*
G36*
X0000772095Y0002079266D02*
G01*
X0000771762Y0002079367D01*
X0000771456Y0002079530D01*
X0000771188Y0002079751D01*
X0000770967Y0002080019D01*
X0000770804Y0002080325D01*
X0000770703Y0002080658D01*
X0000770669Y0002081003D01*
X0000770669Y0002107185D01*
X0000770703Y0002107530D01*
X0000770804Y0002107863D01*
X0000770967Y0002108169D01*
X0000771188Y0002108437D01*
X0000771456Y0002108658D01*
X0000771762Y0002108821D01*
X0000772095Y0002108922D01*
X0000772440Y0002108956D01*
X0000773478Y0002108956D01*
X0000773824Y0002108922D01*
X0000774156Y0002108821D01*
X0000774463Y0002108658D01*
X0000774731Y0002108437D01*
X0000779992Y0002103176D01*
X0000780213Y0002102907D01*
X0000780376Y0002102601D01*
X0000780477Y0002102269D01*
X0000780511Y0002101923D01*
X0000780511Y0002081003D01*
X0000780477Y0002080658D01*
X0000780376Y0002080325D01*
X0000780213Y0002080019D01*
X0000779992Y0002079751D01*
X0000779724Y0002079530D01*
X0000779418Y0002079367D01*
X0000779085Y0002079266D01*
X0000778740Y0002079232D01*
X0000772440Y0002079232D01*
X0000772095Y0002079266D01*
G37*
G04 next file*
G04 Gerber Fmt 4.6, Leading zero omitted, Abs format (unit mm)*
G04 Created by KiCad (PCBNEW (5.1.8)-1) date 2020-11-23 23:28:54*
G01*
G04 APERTURE LIST*
G04 APERTURE END LIST*
G36*
G01*
X0002303641Y0001840305D02*
X0002303641Y0001860482D01*
G75*
G02*
X0002312253Y0001869094I0000008612D01*
G01*
X0002329478Y0001869094D01*
G75*
G02*
X0002338090Y0001860482J-0000008612D01*
G01*
X0002338090Y0001840305D01*
G75*
G02*
X0002329478Y0001831692I-0000008612D01*
G01*
X0002312253Y0001831692D01*
G75*
G02*
X0002303641Y0001840305J0000008612D01*
G01*
G37*
G36*
G01*
X0002365649Y0001840305D02*
X0002365649Y0001860482D01*
G75*
G02*
X0002374261Y0001869094I0000008612D01*
G01*
X0002391486Y0001869094D01*
G75*
G02*
X0002400098Y0001860482J-0000008612D01*
G01*
X0002400098Y0001840305D01*
G75*
G02*
X0002391486Y0001831692I-0000008612D01*
G01*
X0002374261Y0001831692D01*
G75*
G02*
X0002365649Y0001840305J0000008612D01*
G01*
G37*
D44*
X0002389763Y0002175196D03*
X0002427165Y0002096456D03*
X0002352362Y0002096456D03*
X0002008858Y0002224409D03*
X0002083661Y0002224409D03*
X0002046259Y0002303149D03*
G36*
G01*
X0002302165Y0002087598D02*
X0002280511Y0002087598D01*
G75*
G02*
X0002272637Y0002095472J0000007874D01*
G01*
X0002272637Y0002111220D01*
G75*
G02*
X0002280511Y0002119094I0000007874D01*
G01*
X0002302165Y0002119094D01*
G75*
G02*
X0002310039Y0002111220J-0000007874D01*
G01*
X0002310039Y0002095472D01*
G75*
G02*
X0002302165Y0002087598I-0000007874D01*
G01*
G37*
G36*
G01*
X0002302165Y0002152559D02*
X0002280511Y0002152559D01*
G75*
G02*
X0002272637Y0002160433J0000007874D01*
G01*
X0002272637Y0002176181D01*
G75*
G02*
X0002280511Y0002184055I0000007874D01*
G01*
X0002302165Y0002184055D01*
G75*
G02*
X0002310039Y0002176181J-0000007874D01*
G01*
X0002310039Y0002160433D01*
G75*
G02*
X0002302165Y0002152559I-0000007874D01*
G01*
G37*
G36*
G01*
X0001957677Y0002270669D02*
X0001936023Y0002270669D01*
G75*
G02*
X0001928149Y0002278543J0000007874D01*
G01*
X0001928149Y0002294291D01*
G75*
G02*
X0001936023Y0002302165I0000007874D01*
G01*
X0001957677Y0002302165D01*
G75*
G02*
X0001965551Y0002294291J-0000007874D01*
G01*
X0001965551Y0002278543D01*
G75*
G02*
X0001957677Y0002270669I-0000007874D01*
G01*
G37*
G36*
G01*
X0001957677Y0002205708D02*
X0001936023Y0002205708D01*
G75*
G02*
X0001928149Y0002213582J0000007874D01*
G01*
X0001928149Y0002229330D01*
G75*
G02*
X0001936023Y0002237204I0000007874D01*
G01*
X0001957677Y0002237204D01*
G75*
G02*
X0001965551Y0002229330J-0000007874D01*
G01*
X0001965551Y0002213582D01*
G75*
G02*
X0001957677Y0002205708I-0000007874D01*
G01*
G37*
G36*
G01*
X0002127952Y0002262795D02*
X0002127952Y0002284448D01*
G75*
G02*
X0002135826Y0002292322I0000007874D01*
G01*
X0002151574Y0002292322D01*
G75*
G02*
X0002159448Y0002284448J-0000007874D01*
G01*
X0002159448Y0002262795D01*
G75*
G02*
X0002151574Y0002254921I-0000007874D01*
G01*
X0002135826Y0002254921D01*
G75*
G02*
X0002127952Y0002262795J0000007874D01*
G01*
G37*
G36*
G01*
X0002192913Y0002262795D02*
X0002192913Y0002284448D01*
G75*
G02*
X0002200787Y0002292322I0000007874D01*
G01*
X0002216535Y0002292322D01*
G75*
G02*
X0002224409Y0002284448J-0000007874D01*
G01*
X0002224409Y0002262795D01*
G75*
G02*
X0002216535Y0002254921I-0000007874D01*
G01*
X0002200787Y0002254921D01*
G75*
G02*
X0002192913Y0002262795J0000007874D01*
G01*
G37*
D45*
X0001768700Y0001832677D03*
X0001743110Y0001832677D03*
X0001717519Y0001832677D03*
X0001691929Y0001832677D03*
X0001691929Y0001710629D03*
X0001717519Y0001710629D03*
X0001743110Y0001710629D03*
X0001768700Y0001710629D03*
D46*
X0001706692Y0001786909D03*
X0001706692Y0001756397D03*
X0001753937Y0001756397D03*
X0001753937Y0001786909D03*
D47*
X0002149606Y0002202755D03*
X0002149606Y0002165354D03*
X0002149606Y0002127952D03*
X0002236220Y0002127952D03*
X0002236220Y0002202755D03*
D48*
X0002293307Y0001795275D03*
X0002368110Y0001795275D03*
X0002368110Y0001708661D03*
X0002330708Y0001708661D03*
X0002293307Y0001708661D03*
D49*
G36*
X0001849994Y0002108793D02*
G01*
X0001849662Y0002108894D01*
X0001849355Y0002109058D01*
X0001849087Y0002109278D01*
X0001843825Y0002114540D01*
X0001843605Y0002114808D01*
X0001843441Y0002115114D01*
X0001843341Y0002115447D01*
X0001843307Y0002115792D01*
X0001843307Y0002116830D01*
X0001843341Y0002117176D01*
X0001843441Y0002117508D01*
X0001843605Y0002117815D01*
X0001843825Y0002118083D01*
X0001844094Y0002118303D01*
X0001844400Y0002118467D01*
X0001844733Y0002118568D01*
X0001845078Y0002118602D01*
X0001871259Y0002118602D01*
X0001871605Y0002118568D01*
X0001871937Y0002118467D01*
X0001872244Y0002118303D01*
X0001872512Y0002118083D01*
X0001872732Y0002117815D01*
X0001872896Y0002117508D01*
X0001872997Y0002117176D01*
X0001873031Y0002116830D01*
X0001873031Y0002110531D01*
X0001872997Y0002110185D01*
X0001872896Y0002109853D01*
X0001872732Y0002109547D01*
X0001872512Y0002109278D01*
X0001872244Y0002109058D01*
X0001871937Y0002108894D01*
X0001871605Y0002108793D01*
X0001871259Y0002108759D01*
X0001850340Y0002108759D01*
X0001849994Y0002108793D01*
G37*
G36*
G01*
X0001873031Y0002135826D02*
X0001873031Y0002130905D01*
G75*
G02*
X0001870570Y0002128444I-0000002460D01*
G01*
X0001841043Y0002128444D01*
G75*
G02*
X0001838582Y0002130905J0000002460D01*
G01*
X0001838582Y0002135826D01*
G75*
G02*
X0001841043Y0002138287I0000002460D01*
G01*
X0001870570Y0002138287D01*
G75*
G02*
X0001873031Y0002135826J-0000002460D01*
G01*
G37*
G36*
G01*
X0001873031Y0002155511D02*
X0001873031Y0002150590D01*
G75*
G02*
X0001870570Y0002148129I-0000002460D01*
G01*
X0001841043Y0002148129D01*
G75*
G02*
X0001838582Y0002150590J0000002460D01*
G01*
X0001838582Y0002155511D01*
G75*
G02*
X0001841043Y0002157972I0000002460D01*
G01*
X0001870570Y0002157972D01*
G75*
G02*
X0001873031Y0002155511J-0000002460D01*
G01*
G37*
G36*
G01*
X0001873031Y0002175196D02*
X0001873031Y0002170275D01*
G75*
G02*
X0001870570Y0002167814I-0000002460D01*
G01*
X0001841043Y0002167814D01*
G75*
G02*
X0001838582Y0002170275J0000002460D01*
G01*
X0001838582Y0002175196D01*
G75*
G02*
X0001841043Y0002177657I0000002460D01*
G01*
X0001870570Y0002177657D01*
G75*
G02*
X0001873031Y0002175196J-0000002460D01*
G01*
G37*
G36*
G01*
X0001873031Y0002194881D02*
X0001873031Y0002189960D01*
G75*
G02*
X0001870570Y0002187500I-0000002460D01*
G01*
X0001841043Y0002187500D01*
G75*
G02*
X0001838582Y0002189960J0000002460D01*
G01*
X0001838582Y0002194881D01*
G75*
G02*
X0001841043Y0002197342I0000002460D01*
G01*
X0001870570Y0002197342D01*
G75*
G02*
X0001873031Y0002194881J-0000002460D01*
G01*
G37*
G36*
G01*
X0001873031Y0002214566D02*
X0001873031Y0002209645D01*
G75*
G02*
X0001870570Y0002207185I-0000002460D01*
G01*
X0001841043Y0002207185D01*
G75*
G02*
X0001838582Y0002209645J0000002460D01*
G01*
X0001838582Y0002214566D01*
G75*
G02*
X0001841043Y0002217027I0000002460D01*
G01*
X0001870570Y0002217027D01*
G75*
G02*
X0001873031Y0002214566J-0000002460D01*
G01*
G37*
G36*
X0001844733Y0002226904D02*
G01*
X0001844400Y0002227004D01*
X0001844094Y0002227168D01*
X0001843825Y0002227388D01*
X0001843605Y0002227657D01*
X0001843441Y0002227963D01*
X0001843341Y0002228296D01*
X0001843307Y0002228641D01*
X0001843307Y0002229679D01*
X0001843341Y0002230025D01*
X0001843441Y0002230357D01*
X0001843605Y0002230663D01*
X0001843825Y0002230932D01*
X0001849087Y0002236193D01*
X0001849355Y0002236414D01*
X0001849662Y0002236577D01*
X0001849994Y0002236678D01*
X0001850340Y0002236712D01*
X0001871259Y0002236712D01*
X0001871605Y0002236678D01*
X0001871937Y0002236577D01*
X0001872244Y0002236414D01*
X0001872512Y0002236193D01*
X0001872732Y0002235925D01*
X0001872896Y0002235618D01*
X0001872997Y0002235286D01*
X0001873031Y0002234940D01*
X0001873031Y0002228641D01*
X0001872997Y0002228296D01*
X0001872896Y0002227963D01*
X0001872732Y0002227657D01*
X0001872512Y0002227388D01*
X0001872244Y0002227168D01*
X0001871937Y0002227004D01*
X0001871605Y0002226904D01*
X0001871259Y0002226870D01*
X0001845078Y0002226870D01*
X0001844733Y0002226904D01*
G37*
G36*
X0001835087Y0002236549D02*
G01*
X0001834755Y0002236650D01*
X0001834448Y0002236814D01*
X0001834180Y0002237034D01*
X0001833960Y0002237303D01*
X0001833796Y0002237609D01*
X0001833695Y0002237941D01*
X0001833661Y0002238287D01*
X0001833661Y0002264468D01*
X0001833695Y0002264814D01*
X0001833796Y0002265146D01*
X0001833960Y0002265452D01*
X0001834180Y0002265721D01*
X0001834448Y0002265941D01*
X0001834755Y0002266105D01*
X0001835087Y0002266206D01*
X0001835433Y0002266240D01*
X0001841732Y0002266240D01*
X0001842077Y0002266206D01*
X0001842410Y0002266105D01*
X0001842716Y0002265941D01*
X0001842985Y0002265721D01*
X0001843205Y0002265452D01*
X0001843369Y0002265146D01*
X0001843469Y0002264814D01*
X0001843503Y0002264468D01*
X0001843503Y0002243548D01*
X0001843469Y0002243203D01*
X0001843369Y0002242870D01*
X0001843205Y0002242564D01*
X0001842985Y0002242296D01*
X0001837723Y0002237034D01*
X0001837455Y0002236814D01*
X0001837148Y0002236650D01*
X0001836816Y0002236549D01*
X0001836470Y0002236515D01*
X0001835433Y0002236515D01*
X0001835087Y0002236549D01*
G37*
G36*
G01*
X0001823818Y0002263779D02*
X0001823818Y0002234251D01*
G75*
G02*
X0001821358Y0002231791I-0000002460D01*
G01*
X0001816437Y0002231791D01*
G75*
G02*
X0001813976Y0002234251J0000002460D01*
G01*
X0001813976Y0002263779D01*
G75*
G02*
X0001816437Y0002266240I0000002460D01*
G01*
X0001821358Y0002266240D01*
G75*
G02*
X0001823818Y0002263779J-0000002460D01*
G01*
G37*
G36*
G01*
X0001804133Y0002263779D02*
X0001804133Y0002234251D01*
G75*
G02*
X0001801673Y0002231791I-0000002460D01*
G01*
X0001796751Y0002231791D01*
G75*
G02*
X0001794291Y0002234251J0000002460D01*
G01*
X0001794291Y0002263779D01*
G75*
G02*
X0001796751Y0002266240I0000002460D01*
G01*
X0001801673Y0002266240D01*
G75*
G02*
X0001804133Y0002263779J-0000002460D01*
G01*
G37*
G36*
G01*
X0001784448Y0002263779D02*
X0001784448Y0002234251D01*
G75*
G02*
X0001781988Y0002231791I-0000002460D01*
G01*
X0001777066Y0002231791D01*
G75*
G02*
X0001774606Y0002234251J0000002460D01*
G01*
X0001774606Y0002263779D01*
G75*
G02*
X0001777066Y0002266240I0000002460D01*
G01*
X0001781988Y0002266240D01*
G75*
G02*
X0001784448Y0002263779J-0000002460D01*
G01*
G37*
G36*
G01*
X0001764763Y0002263779D02*
X0001764763Y0002234251D01*
G75*
G02*
X0001762303Y0002231791I-0000002460D01*
G01*
X0001757381Y0002231791D01*
G75*
G02*
X0001754921Y0002234251J0000002460D01*
G01*
X0001754921Y0002263779D01*
G75*
G02*
X0001757381Y0002266240I0000002460D01*
G01*
X0001762303Y0002266240D01*
G75*
G02*
X0001764763Y0002263779J-0000002460D01*
G01*
G37*
G36*
G01*
X0001745078Y0002263779D02*
X0001745078Y0002234251D01*
G75*
G02*
X0001742618Y0002231791I-0000002460D01*
G01*
X0001737696Y0002231791D01*
G75*
G02*
X0001735236Y0002234251J0000002460D01*
G01*
X0001735236Y0002263779D01*
G75*
G02*
X0001737696Y0002266240I0000002460D01*
G01*
X0001742618Y0002266240D01*
G75*
G02*
X0001745078Y0002263779J-0000002460D01*
G01*
G37*
G36*
X0001722238Y0002236549D02*
G01*
X0001721906Y0002236650D01*
X0001721599Y0002236814D01*
X0001721331Y0002237034D01*
X0001716070Y0002242296D01*
X0001715849Y0002242564D01*
X0001715686Y0002242870D01*
X0001715585Y0002243203D01*
X0001715551Y0002243548D01*
X0001715551Y0002264468D01*
X0001715585Y0002264814D01*
X0001715686Y0002265146D01*
X0001715849Y0002265452D01*
X0001716070Y0002265721D01*
X0001716338Y0002265941D01*
X0001716644Y0002266105D01*
X0001716977Y0002266206D01*
X0001717322Y0002266240D01*
X0001723622Y0002266240D01*
X0001723967Y0002266206D01*
X0001724300Y0002266105D01*
X0001724606Y0002265941D01*
X0001724874Y0002265721D01*
X0001725095Y0002265452D01*
X0001725258Y0002265146D01*
X0001725359Y0002264814D01*
X0001725393Y0002264468D01*
X0001725393Y0002238287D01*
X0001725359Y0002237941D01*
X0001725258Y0002237609D01*
X0001725095Y0002237303D01*
X0001724874Y0002237034D01*
X0001724606Y0002236814D01*
X0001724300Y0002236650D01*
X0001723967Y0002236549D01*
X0001723622Y0002236515D01*
X0001722584Y0002236515D01*
X0001722238Y0002236549D01*
G37*
G36*
X0001687449Y0002226904D02*
G01*
X0001687117Y0002227004D01*
X0001686810Y0002227168D01*
X0001686542Y0002227388D01*
X0001686322Y0002227657D01*
X0001686158Y0002227963D01*
X0001686057Y0002228296D01*
X0001686023Y0002228641D01*
X0001686023Y0002234940D01*
X0001686057Y0002235286D01*
X0001686158Y0002235618D01*
X0001686322Y0002235925D01*
X0001686542Y0002236193D01*
X0001686810Y0002236414D01*
X0001687117Y0002236577D01*
X0001687449Y0002236678D01*
X0001687795Y0002236712D01*
X0001708714Y0002236712D01*
X0001709060Y0002236678D01*
X0001709392Y0002236577D01*
X0001709699Y0002236414D01*
X0001709967Y0002236193D01*
X0001715229Y0002230932D01*
X0001715449Y0002230663D01*
X0001715613Y0002230357D01*
X0001715713Y0002230025D01*
X0001715748Y0002229679D01*
X0001715748Y0002228641D01*
X0001715713Y0002228296D01*
X0001715613Y0002227963D01*
X0001715449Y0002227657D01*
X0001715229Y0002227388D01*
X0001714960Y0002227168D01*
X0001714654Y0002227004D01*
X0001714322Y0002226904D01*
X0001713976Y0002226870D01*
X0001687795Y0002226870D01*
X0001687449Y0002226904D01*
G37*
G36*
G01*
X0001720472Y0002214566D02*
X0001720472Y0002209645D01*
G75*
G02*
X0001718011Y0002207185I-0000002460D01*
G01*
X0001688484Y0002207185D01*
G75*
G02*
X0001686023Y0002209645J0000002460D01*
G01*
X0001686023Y0002214566D01*
G75*
G02*
X0001688484Y0002217027I0000002460D01*
G01*
X0001718011Y0002217027D01*
G75*
G02*
X0001720472Y0002214566J-0000002460D01*
G01*
G37*
G36*
G01*
X0001720472Y0002194881D02*
X0001720472Y0002189960D01*
G75*
G02*
X0001718011Y0002187500I-0000002460D01*
G01*
X0001688484Y0002187500D01*
G75*
G02*
X0001686023Y0002189960J0000002460D01*
G01*
X0001686023Y0002194881D01*
G75*
G02*
X0001688484Y0002197342I0000002460D01*
G01*
X0001718011Y0002197342D01*
G75*
G02*
X0001720472Y0002194881J-0000002460D01*
G01*
G37*
G36*
G01*
X0001720472Y0002175196D02*
X0001720472Y0002170275D01*
G75*
G02*
X0001718011Y0002167814I-0000002460D01*
G01*
X0001688484Y0002167814D01*
G75*
G02*
X0001686023Y0002170275J0000002460D01*
G01*
X0001686023Y0002175196D01*
G75*
G02*
X0001688484Y0002177657I0000002460D01*
G01*
X0001718011Y0002177657D01*
G75*
G02*
X0001720472Y0002175196J-0000002460D01*
G01*
G37*
G36*
G01*
X0001720472Y0002155511D02*
X0001720472Y0002150590D01*
G75*
G02*
X0001718011Y0002148129I-0000002460D01*
G01*
X0001688484Y0002148129D01*
G75*
G02*
X0001686023Y0002150590J0000002460D01*
G01*
X0001686023Y0002155511D01*
G75*
G02*
X0001688484Y0002157972I0000002460D01*
G01*
X0001718011Y0002157972D01*
G75*
G02*
X0001720472Y0002155511J-0000002460D01*
G01*
G37*
G36*
G01*
X0001720472Y0002135826D02*
X0001720472Y0002130905D01*
G75*
G02*
X0001718011Y0002128444I-0000002460D01*
G01*
X0001688484Y0002128444D01*
G75*
G02*
X0001686023Y0002130905J0000002460D01*
G01*
X0001686023Y0002135826D01*
G75*
G02*
X0001688484Y0002138287I0000002460D01*
G01*
X0001718011Y0002138287D01*
G75*
G02*
X0001720472Y0002135826J-0000002460D01*
G01*
G37*
G36*
X0001687449Y0002108793D02*
G01*
X0001687117Y0002108894D01*
X0001686810Y0002109058D01*
X0001686542Y0002109278D01*
X0001686322Y0002109547D01*
X0001686158Y0002109853D01*
X0001686057Y0002110185D01*
X0001686023Y0002110531D01*
X0001686023Y0002116830D01*
X0001686057Y0002117176D01*
X0001686158Y0002117508D01*
X0001686322Y0002117815D01*
X0001686542Y0002118083D01*
X0001686810Y0002118303D01*
X0001687117Y0002118467D01*
X0001687449Y0002118568D01*
X0001687795Y0002118602D01*
X0001713976Y0002118602D01*
X0001714322Y0002118568D01*
X0001714654Y0002118467D01*
X0001714960Y0002118303D01*
X0001715229Y0002118083D01*
X0001715449Y0002117815D01*
X0001715613Y0002117508D01*
X0001715713Y0002117176D01*
X0001715748Y0002116830D01*
X0001715748Y0002115792D01*
X0001715713Y0002115447D01*
X0001715613Y0002115114D01*
X0001715449Y0002114808D01*
X0001715229Y0002114540D01*
X0001709967Y0002109278D01*
X0001709699Y0002109058D01*
X0001709392Y0002108894D01*
X0001709060Y0002108793D01*
X0001708714Y0002108759D01*
X0001687795Y0002108759D01*
X0001687449Y0002108793D01*
G37*
G36*
X0001716977Y0002079266D02*
G01*
X0001716644Y0002079367D01*
X0001716338Y0002079530D01*
X0001716070Y0002079751D01*
X0001715849Y0002080019D01*
X0001715686Y0002080325D01*
X0001715585Y0002080658D01*
X0001715551Y0002081003D01*
X0001715551Y0002101923D01*
X0001715585Y0002102269D01*
X0001715686Y0002102601D01*
X0001715849Y0002102907D01*
X0001716070Y0002103176D01*
X0001721331Y0002108437D01*
X0001721599Y0002108658D01*
X0001721906Y0002108821D01*
X0001722238Y0002108922D01*
X0001722584Y0002108956D01*
X0001723622Y0002108956D01*
X0001723967Y0002108922D01*
X0001724300Y0002108821D01*
X0001724606Y0002108658D01*
X0001724874Y0002108437D01*
X0001725095Y0002108169D01*
X0001725258Y0002107863D01*
X0001725359Y0002107530D01*
X0001725393Y0002107185D01*
X0001725393Y0002081003D01*
X0001725359Y0002080658D01*
X0001725258Y0002080325D01*
X0001725095Y0002080019D01*
X0001724874Y0002079751D01*
X0001724606Y0002079530D01*
X0001724300Y0002079367D01*
X0001723967Y0002079266D01*
X0001723622Y0002079232D01*
X0001717322Y0002079232D01*
X0001716977Y0002079266D01*
G37*
G36*
G01*
X0001745078Y0002111220D02*
X0001745078Y0002081692D01*
G75*
G02*
X0001742618Y0002079232I-0000002460D01*
G01*
X0001737696Y0002079232D01*
G75*
G02*
X0001735236Y0002081692J0000002460D01*
G01*
X0001735236Y0002111220D01*
G75*
G02*
X0001737696Y0002113681I0000002460D01*
G01*
X0001742618Y0002113681D01*
G75*
G02*
X0001745078Y0002111220J-0000002460D01*
G01*
G37*
G36*
G01*
X0001764763Y0002111220D02*
X0001764763Y0002081692D01*
G75*
G02*
X0001762303Y0002079232I-0000002460D01*
G01*
X0001757381Y0002079232D01*
G75*
G02*
X0001754921Y0002081692J0000002460D01*
G01*
X0001754921Y0002111220D01*
G75*
G02*
X0001757381Y0002113681I0000002460D01*
G01*
X0001762303Y0002113681D01*
G75*
G02*
X0001764763Y0002111220J-0000002460D01*
G01*
G37*
G36*
G01*
X0001784448Y0002111220D02*
X0001784448Y0002081692D01*
G75*
G02*
X0001781988Y0002079232I-0000002460D01*
G01*
X0001777066Y0002079232D01*
G75*
G02*
X0001774606Y0002081692J0000002460D01*
G01*
X0001774606Y0002111220D01*
G75*
G02*
X0001777066Y0002113681I0000002460D01*
G01*
X0001781988Y0002113681D01*
G75*
G02*
X0001784448Y0002111220J-0000002460D01*
G01*
G37*
G36*
G01*
X0001804133Y0002111220D02*
X0001804133Y0002081692D01*
G75*
G02*
X0001801673Y0002079232I-0000002460D01*
G01*
X0001796751Y0002079232D01*
G75*
G02*
X0001794291Y0002081692J0000002460D01*
G01*
X0001794291Y0002111220D01*
G75*
G02*
X0001796751Y0002113681I0000002460D01*
G01*
X0001801673Y0002113681D01*
G75*
G02*
X0001804133Y0002111220J-0000002460D01*
G01*
G37*
G36*
G01*
X0001823818Y0002111220D02*
X0001823818Y0002081692D01*
G75*
G02*
X0001821358Y0002079232I-0000002460D01*
G01*
X0001816437Y0002079232D01*
G75*
G02*
X0001813976Y0002081692J0000002460D01*
G01*
X0001813976Y0002111220D01*
G75*
G02*
X0001816437Y0002113681I0000002460D01*
G01*
X0001821358Y0002113681D01*
G75*
G02*
X0001823818Y0002111220J-0000002460D01*
G01*
G37*
G36*
X0001835087Y0002079266D02*
G01*
X0001834755Y0002079367D01*
X0001834448Y0002079530D01*
X0001834180Y0002079751D01*
X0001833960Y0002080019D01*
X0001833796Y0002080325D01*
X0001833695Y0002080658D01*
X0001833661Y0002081003D01*
X0001833661Y0002107185D01*
X0001833695Y0002107530D01*
X0001833796Y0002107863D01*
X0001833960Y0002108169D01*
X0001834180Y0002108437D01*
X0001834448Y0002108658D01*
X0001834755Y0002108821D01*
X0001835087Y0002108922D01*
X0001835433Y0002108956D01*
X0001836470Y0002108956D01*
X0001836816Y0002108922D01*
X0001837148Y0002108821D01*
X0001837455Y0002108658D01*
X0001837723Y0002108437D01*
X0001842985Y0002103176D01*
X0001843205Y0002102907D01*
X0001843369Y0002102601D01*
X0001843469Y0002102269D01*
X0001843503Y0002101923D01*
X0001843503Y0002081003D01*
X0001843469Y0002080658D01*
X0001843369Y0002080325D01*
X0001843205Y0002080019D01*
X0001842985Y0002079751D01*
X0001842716Y0002079530D01*
X0001842410Y0002079367D01*
X0001842077Y0002079266D01*
X0001841732Y0002079232D01*
X0001835433Y0002079232D01*
X0001835087Y0002079266D01*
G37*
G04 next file*
G04 Gerber Fmt 4.6, Leading zero omitted, Abs format (unit mm)*
G04 Created by KiCad (PCBNEW (5.1.8)-1) date 2020-11-23 23:28:54*
G01*
G04 APERTURE LIST*
G04 APERTURE END LIST*
G36*
G01*
X0003366633Y0001840305D02*
X0003366633Y0001860482D01*
G75*
G02*
X0003375246Y0001869094I0000008612D01*
G01*
X0003392470Y0001869094D01*
G75*
G02*
X0003401082Y0001860482J-0000008612D01*
G01*
X0003401082Y0001840305D01*
G75*
G02*
X0003392470Y0001831692I-0000008612D01*
G01*
X0003375246Y0001831692D01*
G75*
G02*
X0003366633Y0001840305J0000008612D01*
G01*
G37*
G36*
G01*
X0003428641Y0001840305D02*
X0003428641Y0001860482D01*
G75*
G02*
X0003437253Y0001869094I0000008612D01*
G01*
X0003454478Y0001869094D01*
G75*
G02*
X0003463090Y0001860482J-0000008612D01*
G01*
X0003463090Y0001840305D01*
G75*
G02*
X0003454478Y0001831692I-0000008612D01*
G01*
X0003437253Y0001831692D01*
G75*
G02*
X0003428641Y0001840305J0000008612D01*
G01*
G37*
D50*
X0003452755Y0002175196D03*
X0003490157Y0002096456D03*
X0003415354Y0002096456D03*
X0003071850Y0002224409D03*
X0003146653Y0002224409D03*
X0003109252Y0002303149D03*
G36*
G01*
X0003365157Y0002087598D02*
X0003343503Y0002087598D01*
G75*
G02*
X0003335629Y0002095472J0000007874D01*
G01*
X0003335629Y0002111220D01*
G75*
G02*
X0003343503Y0002119094I0000007874D01*
G01*
X0003365157Y0002119094D01*
G75*
G02*
X0003373031Y0002111220J-0000007874D01*
G01*
X0003373031Y0002095472D01*
G75*
G02*
X0003365157Y0002087598I-0000007874D01*
G01*
G37*
G36*
G01*
X0003365157Y0002152559D02*
X0003343503Y0002152559D01*
G75*
G02*
X0003335629Y0002160433J0000007874D01*
G01*
X0003335629Y0002176181D01*
G75*
G02*
X0003343503Y0002184055I0000007874D01*
G01*
X0003365157Y0002184055D01*
G75*
G02*
X0003373031Y0002176181J-0000007874D01*
G01*
X0003373031Y0002160433D01*
G75*
G02*
X0003365157Y0002152559I-0000007874D01*
G01*
G37*
G36*
G01*
X0003020669Y0002270669D02*
X0002999015Y0002270669D01*
G75*
G02*
X0002991141Y0002278543J0000007874D01*
G01*
X0002991141Y0002294291D01*
G75*
G02*
X0002999015Y0002302165I0000007874D01*
G01*
X0003020669Y0002302165D01*
G75*
G02*
X0003028543Y0002294291J-0000007874D01*
G01*
X0003028543Y0002278543D01*
G75*
G02*
X0003020669Y0002270669I-0000007874D01*
G01*
G37*
G36*
G01*
X0003020669Y0002205708D02*
X0002999015Y0002205708D01*
G75*
G02*
X0002991141Y0002213582J0000007874D01*
G01*
X0002991141Y0002229330D01*
G75*
G02*
X0002999015Y0002237204I0000007874D01*
G01*
X0003020669Y0002237204D01*
G75*
G02*
X0003028543Y0002229330J-0000007874D01*
G01*
X0003028543Y0002213582D01*
G75*
G02*
X0003020669Y0002205708I-0000007874D01*
G01*
G37*
G36*
G01*
X0003190944Y0002262795D02*
X0003190944Y0002284448D01*
G75*
G02*
X0003198818Y0002292322I0000007874D01*
G01*
X0003214566Y0002292322D01*
G75*
G02*
X0003222440Y0002284448J-0000007874D01*
G01*
X0003222440Y0002262795D01*
G75*
G02*
X0003214566Y0002254921I-0000007874D01*
G01*
X0003198818Y0002254921D01*
G75*
G02*
X0003190944Y0002262795J0000007874D01*
G01*
G37*
G36*
G01*
X0003255905Y0002262795D02*
X0003255905Y0002284448D01*
G75*
G02*
X0003263779Y0002292322I0000007874D01*
G01*
X0003279527Y0002292322D01*
G75*
G02*
X0003287401Y0002284448J-0000007874D01*
G01*
X0003287401Y0002262795D01*
G75*
G02*
X0003279527Y0002254921I-0000007874D01*
G01*
X0003263779Y0002254921D01*
G75*
G02*
X0003255905Y0002262795J0000007874D01*
G01*
G37*
D51*
X0002831692Y0001832677D03*
X0002806102Y0001832677D03*
X0002780511Y0001832677D03*
X0002754921Y0001832677D03*
X0002754921Y0001710629D03*
X0002780511Y0001710629D03*
X0002806102Y0001710629D03*
X0002831692Y0001710629D03*
D52*
X0002769685Y0001786909D03*
X0002769685Y0001756397D03*
X0002816929Y0001756397D03*
X0002816929Y0001786909D03*
D53*
X0003212598Y0002202755D03*
X0003212598Y0002165354D03*
X0003212598Y0002127952D03*
X0003299212Y0002127952D03*
X0003299212Y0002202755D03*
D54*
X0003356299Y0001795275D03*
X0003431102Y0001795275D03*
X0003431102Y0001708661D03*
X0003393700Y0001708661D03*
X0003356299Y0001708661D03*
D55*
G36*
X0002912986Y0002108793D02*
G01*
X0002912654Y0002108894D01*
X0002912347Y0002109058D01*
X0002912079Y0002109278D01*
X0002906818Y0002114540D01*
X0002906597Y0002114808D01*
X0002906434Y0002115114D01*
X0002906333Y0002115447D01*
X0002906299Y0002115792D01*
X0002906299Y0002116830D01*
X0002906333Y0002117176D01*
X0002906434Y0002117508D01*
X0002906597Y0002117815D01*
X0002906818Y0002118083D01*
X0002907086Y0002118303D01*
X0002907392Y0002118467D01*
X0002907725Y0002118568D01*
X0002908070Y0002118602D01*
X0002934251Y0002118602D01*
X0002934597Y0002118568D01*
X0002934929Y0002118467D01*
X0002935236Y0002118303D01*
X0002935504Y0002118083D01*
X0002935725Y0002117815D01*
X0002935888Y0002117508D01*
X0002935989Y0002117176D01*
X0002936023Y0002116830D01*
X0002936023Y0002110531D01*
X0002935989Y0002110185D01*
X0002935888Y0002109853D01*
X0002935725Y0002109547D01*
X0002935504Y0002109278D01*
X0002935236Y0002109058D01*
X0002934929Y0002108894D01*
X0002934597Y0002108793D01*
X0002934251Y0002108759D01*
X0002913332Y0002108759D01*
X0002912986Y0002108793D01*
G37*
G36*
G01*
X0002936023Y0002135826D02*
X0002936023Y0002130905D01*
G75*
G02*
X0002933562Y0002128444I-0000002460D01*
G01*
X0002904035Y0002128444D01*
G75*
G02*
X0002901574Y0002130905J0000002460D01*
G01*
X0002901574Y0002135826D01*
G75*
G02*
X0002904035Y0002138287I0000002460D01*
G01*
X0002933562Y0002138287D01*
G75*
G02*
X0002936023Y0002135826J-0000002460D01*
G01*
G37*
G36*
G01*
X0002936023Y0002155511D02*
X0002936023Y0002150590D01*
G75*
G02*
X0002933562Y0002148129I-0000002460D01*
G01*
X0002904035Y0002148129D01*
G75*
G02*
X0002901574Y0002150590J0000002460D01*
G01*
X0002901574Y0002155511D01*
G75*
G02*
X0002904035Y0002157972I0000002460D01*
G01*
X0002933562Y0002157972D01*
G75*
G02*
X0002936023Y0002155511J-0000002460D01*
G01*
G37*
G36*
G01*
X0002936023Y0002175196D02*
X0002936023Y0002170275D01*
G75*
G02*
X0002933562Y0002167814I-0000002460D01*
G01*
X0002904035Y0002167814D01*
G75*
G02*
X0002901574Y0002170275J0000002460D01*
G01*
X0002901574Y0002175196D01*
G75*
G02*
X0002904035Y0002177657I0000002460D01*
G01*
X0002933562Y0002177657D01*
G75*
G02*
X0002936023Y0002175196J-0000002460D01*
G01*
G37*
G36*
G01*
X0002936023Y0002194881D02*
X0002936023Y0002189960D01*
G75*
G02*
X0002933562Y0002187500I-0000002460D01*
G01*
X0002904035Y0002187500D01*
G75*
G02*
X0002901574Y0002189960J0000002460D01*
G01*
X0002901574Y0002194881D01*
G75*
G02*
X0002904035Y0002197342I0000002460D01*
G01*
X0002933562Y0002197342D01*
G75*
G02*
X0002936023Y0002194881J-0000002460D01*
G01*
G37*
G36*
G01*
X0002936023Y0002214566D02*
X0002936023Y0002209645D01*
G75*
G02*
X0002933562Y0002207185I-0000002460D01*
G01*
X0002904035Y0002207185D01*
G75*
G02*
X0002901574Y0002209645J0000002460D01*
G01*
X0002901574Y0002214566D01*
G75*
G02*
X0002904035Y0002217027I0000002460D01*
G01*
X0002933562Y0002217027D01*
G75*
G02*
X0002936023Y0002214566J-0000002460D01*
G01*
G37*
G36*
X0002907725Y0002226904D02*
G01*
X0002907392Y0002227004D01*
X0002907086Y0002227168D01*
X0002906818Y0002227388D01*
X0002906597Y0002227657D01*
X0002906434Y0002227963D01*
X0002906333Y0002228296D01*
X0002906299Y0002228641D01*
X0002906299Y0002229679D01*
X0002906333Y0002230025D01*
X0002906434Y0002230357D01*
X0002906597Y0002230663D01*
X0002906818Y0002230932D01*
X0002912079Y0002236193D01*
X0002912347Y0002236414D01*
X0002912654Y0002236577D01*
X0002912986Y0002236678D01*
X0002913332Y0002236712D01*
X0002934251Y0002236712D01*
X0002934597Y0002236678D01*
X0002934929Y0002236577D01*
X0002935236Y0002236414D01*
X0002935504Y0002236193D01*
X0002935725Y0002235925D01*
X0002935888Y0002235618D01*
X0002935989Y0002235286D01*
X0002936023Y0002234940D01*
X0002936023Y0002228641D01*
X0002935989Y0002228296D01*
X0002935888Y0002227963D01*
X0002935725Y0002227657D01*
X0002935504Y0002227388D01*
X0002935236Y0002227168D01*
X0002934929Y0002227004D01*
X0002934597Y0002226904D01*
X0002934251Y0002226870D01*
X0002908070Y0002226870D01*
X0002907725Y0002226904D01*
G37*
G36*
X0002898079Y0002236549D02*
G01*
X0002897747Y0002236650D01*
X0002897440Y0002236814D01*
X0002897172Y0002237034D01*
X0002896952Y0002237303D01*
X0002896788Y0002237609D01*
X0002896687Y0002237941D01*
X0002896653Y0002238287D01*
X0002896653Y0002264468D01*
X0002896687Y0002264814D01*
X0002896788Y0002265146D01*
X0002896952Y0002265452D01*
X0002897172Y0002265721D01*
X0002897440Y0002265941D01*
X0002897747Y0002266105D01*
X0002898079Y0002266206D01*
X0002898425Y0002266240D01*
X0002904724Y0002266240D01*
X0002905070Y0002266206D01*
X0002905402Y0002266105D01*
X0002905708Y0002265941D01*
X0002905977Y0002265721D01*
X0002906197Y0002265452D01*
X0002906361Y0002265146D01*
X0002906462Y0002264814D01*
X0002906496Y0002264468D01*
X0002906496Y0002243548D01*
X0002906462Y0002243203D01*
X0002906361Y0002242870D01*
X0002906197Y0002242564D01*
X0002905977Y0002242296D01*
X0002900715Y0002237034D01*
X0002900447Y0002236814D01*
X0002900140Y0002236650D01*
X0002899808Y0002236549D01*
X0002899462Y0002236515D01*
X0002898425Y0002236515D01*
X0002898079Y0002236549D01*
G37*
G36*
G01*
X0002886811Y0002263779D02*
X0002886811Y0002234251D01*
G75*
G02*
X0002884350Y0002231791I-0000002460D01*
G01*
X0002879429Y0002231791D01*
G75*
G02*
X0002876968Y0002234251J0000002460D01*
G01*
X0002876968Y0002263779D01*
G75*
G02*
X0002879429Y0002266240I0000002460D01*
G01*
X0002884350Y0002266240D01*
G75*
G02*
X0002886811Y0002263779J-0000002460D01*
G01*
G37*
G36*
G01*
X0002867125Y0002263779D02*
X0002867125Y0002234251D01*
G75*
G02*
X0002864665Y0002231791I-0000002460D01*
G01*
X0002859744Y0002231791D01*
G75*
G02*
X0002857283Y0002234251J0000002460D01*
G01*
X0002857283Y0002263779D01*
G75*
G02*
X0002859744Y0002266240I0000002460D01*
G01*
X0002864665Y0002266240D01*
G75*
G02*
X0002867125Y0002263779J-0000002460D01*
G01*
G37*
G36*
G01*
X0002847440Y0002263779D02*
X0002847440Y0002234251D01*
G75*
G02*
X0002844980Y0002231791I-0000002460D01*
G01*
X0002840059Y0002231791D01*
G75*
G02*
X0002837598Y0002234251J0000002460D01*
G01*
X0002837598Y0002263779D01*
G75*
G02*
X0002840059Y0002266240I0000002460D01*
G01*
X0002844980Y0002266240D01*
G75*
G02*
X0002847440Y0002263779J-0000002460D01*
G01*
G37*
G36*
G01*
X0002827755Y0002263779D02*
X0002827755Y0002234251D01*
G75*
G02*
X0002825295Y0002231791I-0000002460D01*
G01*
X0002820374Y0002231791D01*
G75*
G02*
X0002817913Y0002234251J0000002460D01*
G01*
X0002817913Y0002263779D01*
G75*
G02*
X0002820374Y0002266240I0000002460D01*
G01*
X0002825295Y0002266240D01*
G75*
G02*
X0002827755Y0002263779J-0000002460D01*
G01*
G37*
G36*
G01*
X0002808070Y0002263779D02*
X0002808070Y0002234251D01*
G75*
G02*
X0002805610Y0002231791I-0000002460D01*
G01*
X0002800688Y0002231791D01*
G75*
G02*
X0002798228Y0002234251J0000002460D01*
G01*
X0002798228Y0002263779D01*
G75*
G02*
X0002800688Y0002266240I0000002460D01*
G01*
X0002805610Y0002266240D01*
G75*
G02*
X0002808070Y0002263779J-0000002460D01*
G01*
G37*
G36*
X0002785230Y0002236549D02*
G01*
X0002784898Y0002236650D01*
X0002784592Y0002236814D01*
X0002784323Y0002237034D01*
X0002779062Y0002242296D01*
X0002778841Y0002242564D01*
X0002778678Y0002242870D01*
X0002778577Y0002243203D01*
X0002778543Y0002243548D01*
X0002778543Y0002264468D01*
X0002778577Y0002264814D01*
X0002778678Y0002265146D01*
X0002778841Y0002265452D01*
X0002779062Y0002265721D01*
X0002779330Y0002265941D01*
X0002779636Y0002266105D01*
X0002779969Y0002266206D01*
X0002780314Y0002266240D01*
X0002786614Y0002266240D01*
X0002786959Y0002266206D01*
X0002787292Y0002266105D01*
X0002787598Y0002265941D01*
X0002787866Y0002265721D01*
X0002788087Y0002265452D01*
X0002788250Y0002265146D01*
X0002788351Y0002264814D01*
X0002788385Y0002264468D01*
X0002788385Y0002238287D01*
X0002788351Y0002237941D01*
X0002788250Y0002237609D01*
X0002788087Y0002237303D01*
X0002787866Y0002237034D01*
X0002787598Y0002236814D01*
X0002787292Y0002236650D01*
X0002786959Y0002236549D01*
X0002786614Y0002236515D01*
X0002785576Y0002236515D01*
X0002785230Y0002236549D01*
G37*
G36*
X0002750441Y0002226904D02*
G01*
X0002750109Y0002227004D01*
X0002749803Y0002227168D01*
X0002749534Y0002227388D01*
X0002749314Y0002227657D01*
X0002749150Y0002227963D01*
X0002749049Y0002228296D01*
X0002749015Y0002228641D01*
X0002749015Y0002234940D01*
X0002749049Y0002235286D01*
X0002749150Y0002235618D01*
X0002749314Y0002235925D01*
X0002749534Y0002236193D01*
X0002749803Y0002236414D01*
X0002750109Y0002236577D01*
X0002750441Y0002236678D01*
X0002750787Y0002236712D01*
X0002771707Y0002236712D01*
X0002772052Y0002236678D01*
X0002772385Y0002236577D01*
X0002772691Y0002236414D01*
X0002772959Y0002236193D01*
X0002778221Y0002230932D01*
X0002778441Y0002230663D01*
X0002778605Y0002230357D01*
X0002778706Y0002230025D01*
X0002778740Y0002229679D01*
X0002778740Y0002228641D01*
X0002778706Y0002228296D01*
X0002778605Y0002227963D01*
X0002778441Y0002227657D01*
X0002778221Y0002227388D01*
X0002777952Y0002227168D01*
X0002777646Y0002227004D01*
X0002777314Y0002226904D01*
X0002776968Y0002226870D01*
X0002750787Y0002226870D01*
X0002750441Y0002226904D01*
G37*
G36*
G01*
X0002783464Y0002214566D02*
X0002783464Y0002209645D01*
G75*
G02*
X0002781003Y0002207185I-0000002460D01*
G01*
X0002751476Y0002207185D01*
G75*
G02*
X0002749015Y0002209645J0000002460D01*
G01*
X0002749015Y0002214566D01*
G75*
G02*
X0002751476Y0002217027I0000002460D01*
G01*
X0002781003Y0002217027D01*
G75*
G02*
X0002783464Y0002214566J-0000002460D01*
G01*
G37*
G36*
G01*
X0002783464Y0002194881D02*
X0002783464Y0002189960D01*
G75*
G02*
X0002781003Y0002187500I-0000002460D01*
G01*
X0002751476Y0002187500D01*
G75*
G02*
X0002749015Y0002189960J0000002460D01*
G01*
X0002749015Y0002194881D01*
G75*
G02*
X0002751476Y0002197342I0000002460D01*
G01*
X0002781003Y0002197342D01*
G75*
G02*
X0002783464Y0002194881J-0000002460D01*
G01*
G37*
G36*
G01*
X0002783464Y0002175196D02*
X0002783464Y0002170275D01*
G75*
G02*
X0002781003Y0002167814I-0000002460D01*
G01*
X0002751476Y0002167814D01*
G75*
G02*
X0002749015Y0002170275J0000002460D01*
G01*
X0002749015Y0002175196D01*
G75*
G02*
X0002751476Y0002177657I0000002460D01*
G01*
X0002781003Y0002177657D01*
G75*
G02*
X0002783464Y0002175196J-0000002460D01*
G01*
G37*
G36*
G01*
X0002783464Y0002155511D02*
X0002783464Y0002150590D01*
G75*
G02*
X0002781003Y0002148129I-0000002460D01*
G01*
X0002751476Y0002148129D01*
G75*
G02*
X0002749015Y0002150590J0000002460D01*
G01*
X0002749015Y0002155511D01*
G75*
G02*
X0002751476Y0002157972I0000002460D01*
G01*
X0002781003Y0002157972D01*
G75*
G02*
X0002783464Y0002155511J-0000002460D01*
G01*
G37*
G36*
G01*
X0002783464Y0002135826D02*
X0002783464Y0002130905D01*
G75*
G02*
X0002781003Y0002128444I-0000002460D01*
G01*
X0002751476Y0002128444D01*
G75*
G02*
X0002749015Y0002130905J0000002460D01*
G01*
X0002749015Y0002135826D01*
G75*
G02*
X0002751476Y0002138287I0000002460D01*
G01*
X0002781003Y0002138287D01*
G75*
G02*
X0002783464Y0002135826J-0000002460D01*
G01*
G37*
G36*
X0002750441Y0002108793D02*
G01*
X0002750109Y0002108894D01*
X0002749803Y0002109058D01*
X0002749534Y0002109278D01*
X0002749314Y0002109547D01*
X0002749150Y0002109853D01*
X0002749049Y0002110185D01*
X0002749015Y0002110531D01*
X0002749015Y0002116830D01*
X0002749049Y0002117176D01*
X0002749150Y0002117508D01*
X0002749314Y0002117815D01*
X0002749534Y0002118083D01*
X0002749803Y0002118303D01*
X0002750109Y0002118467D01*
X0002750441Y0002118568D01*
X0002750787Y0002118602D01*
X0002776968Y0002118602D01*
X0002777314Y0002118568D01*
X0002777646Y0002118467D01*
X0002777952Y0002118303D01*
X0002778221Y0002118083D01*
X0002778441Y0002117815D01*
X0002778605Y0002117508D01*
X0002778706Y0002117176D01*
X0002778740Y0002116830D01*
X0002778740Y0002115792D01*
X0002778706Y0002115447D01*
X0002778605Y0002115114D01*
X0002778441Y0002114808D01*
X0002778221Y0002114540D01*
X0002772959Y0002109278D01*
X0002772691Y0002109058D01*
X0002772385Y0002108894D01*
X0002772052Y0002108793D01*
X0002771707Y0002108759D01*
X0002750787Y0002108759D01*
X0002750441Y0002108793D01*
G37*
G36*
X0002779969Y0002079266D02*
G01*
X0002779636Y0002079367D01*
X0002779330Y0002079530D01*
X0002779062Y0002079751D01*
X0002778841Y0002080019D01*
X0002778678Y0002080325D01*
X0002778577Y0002080658D01*
X0002778543Y0002081003D01*
X0002778543Y0002101923D01*
X0002778577Y0002102269D01*
X0002778678Y0002102601D01*
X0002778841Y0002102907D01*
X0002779062Y0002103176D01*
X0002784323Y0002108437D01*
X0002784592Y0002108658D01*
X0002784898Y0002108821D01*
X0002785230Y0002108922D01*
X0002785576Y0002108956D01*
X0002786614Y0002108956D01*
X0002786959Y0002108922D01*
X0002787292Y0002108821D01*
X0002787598Y0002108658D01*
X0002787866Y0002108437D01*
X0002788087Y0002108169D01*
X0002788250Y0002107863D01*
X0002788351Y0002107530D01*
X0002788385Y0002107185D01*
X0002788385Y0002081003D01*
X0002788351Y0002080658D01*
X0002788250Y0002080325D01*
X0002788087Y0002080019D01*
X0002787866Y0002079751D01*
X0002787598Y0002079530D01*
X0002787292Y0002079367D01*
X0002786959Y0002079266D01*
X0002786614Y0002079232D01*
X0002780314Y0002079232D01*
X0002779969Y0002079266D01*
G37*
G36*
G01*
X0002808070Y0002111220D02*
X0002808070Y0002081692D01*
G75*
G02*
X0002805610Y0002079232I-0000002460D01*
G01*
X0002800688Y0002079232D01*
G75*
G02*
X0002798228Y0002081692J0000002460D01*
G01*
X0002798228Y0002111220D01*
G75*
G02*
X0002800688Y0002113681I0000002460D01*
G01*
X0002805610Y0002113681D01*
G75*
G02*
X0002808070Y0002111220J-0000002460D01*
G01*
G37*
G36*
G01*
X0002827755Y0002111220D02*
X0002827755Y0002081692D01*
G75*
G02*
X0002825295Y0002079232I-0000002460D01*
G01*
X0002820374Y0002079232D01*
G75*
G02*
X0002817913Y0002081692J0000002460D01*
G01*
X0002817913Y0002111220D01*
G75*
G02*
X0002820374Y0002113681I0000002460D01*
G01*
X0002825295Y0002113681D01*
G75*
G02*
X0002827755Y0002111220J-0000002460D01*
G01*
G37*
G36*
G01*
X0002847440Y0002111220D02*
X0002847440Y0002081692D01*
G75*
G02*
X0002844980Y0002079232I-0000002460D01*
G01*
X0002840059Y0002079232D01*
G75*
G02*
X0002837598Y0002081692J0000002460D01*
G01*
X0002837598Y0002111220D01*
G75*
G02*
X0002840059Y0002113681I0000002460D01*
G01*
X0002844980Y0002113681D01*
G75*
G02*
X0002847440Y0002111220J-0000002460D01*
G01*
G37*
G36*
G01*
X0002867125Y0002111220D02*
X0002867125Y0002081692D01*
G75*
G02*
X0002864665Y0002079232I-0000002460D01*
G01*
X0002859744Y0002079232D01*
G75*
G02*
X0002857283Y0002081692J0000002460D01*
G01*
X0002857283Y0002111220D01*
G75*
G02*
X0002859744Y0002113681I0000002460D01*
G01*
X0002864665Y0002113681D01*
G75*
G02*
X0002867125Y0002111220J-0000002460D01*
G01*
G37*
G36*
G01*
X0002886811Y0002111220D02*
X0002886811Y0002081692D01*
G75*
G02*
X0002884350Y0002079232I-0000002460D01*
G01*
X0002879429Y0002079232D01*
G75*
G02*
X0002876968Y0002081692J0000002460D01*
G01*
X0002876968Y0002111220D01*
G75*
G02*
X0002879429Y0002113681I0000002460D01*
G01*
X0002884350Y0002113681D01*
G75*
G02*
X0002886811Y0002111220J-0000002460D01*
G01*
G37*
G36*
X0002898079Y0002079266D02*
G01*
X0002897747Y0002079367D01*
X0002897440Y0002079530D01*
X0002897172Y0002079751D01*
X0002896952Y0002080019D01*
X0002896788Y0002080325D01*
X0002896687Y0002080658D01*
X0002896653Y0002081003D01*
X0002896653Y0002107185D01*
X0002896687Y0002107530D01*
X0002896788Y0002107863D01*
X0002896952Y0002108169D01*
X0002897172Y0002108437D01*
X0002897440Y0002108658D01*
X0002897747Y0002108821D01*
X0002898079Y0002108922D01*
X0002898425Y0002108956D01*
X0002899462Y0002108956D01*
X0002899808Y0002108922D01*
X0002900140Y0002108821D01*
X0002900447Y0002108658D01*
X0002900715Y0002108437D01*
X0002905977Y0002103176D01*
X0002906197Y0002102907D01*
X0002906361Y0002102601D01*
X0002906462Y0002102269D01*
X0002906496Y0002101923D01*
X0002906496Y0002081003D01*
X0002906462Y0002080658D01*
X0002906361Y0002080325D01*
X0002906197Y0002080019D01*
X0002905977Y0002079751D01*
X0002905708Y0002079530D01*
X0002905402Y0002079367D01*
X0002905070Y0002079266D01*
X0002904724Y0002079232D01*
X0002898425Y0002079232D01*
X0002898079Y0002079266D01*
G37*
G04 next file*
G04 Gerber Fmt 4.6, Leading zero omitted, Abs format (unit mm)*
G04 Created by KiCad (PCBNEW (5.1.8)-1) date 2020-11-23 23:28:54*
G01*
G04 APERTURE LIST*
G04 APERTURE END LIST*
G36*
G01*
X0001240649Y0002863927D02*
X0001240649Y0002884104D01*
G75*
G02*
X0001249261Y0002892716I0000008612D01*
G01*
X0001266486Y0002892716D01*
G75*
G02*
X0001275098Y0002884104J-0000008612D01*
G01*
X0001275098Y0002863927D01*
G75*
G02*
X0001266486Y0002855314I-0000008612D01*
G01*
X0001249261Y0002855314D01*
G75*
G02*
X0001240649Y0002863927J0000008612D01*
G01*
G37*
G36*
G01*
X0001302657Y0002863927D02*
X0001302657Y0002884104D01*
G75*
G02*
X0001311269Y0002892716I0000008612D01*
G01*
X0001328494Y0002892716D01*
G75*
G02*
X0001337106Y0002884104J-0000008612D01*
G01*
X0001337106Y0002863927D01*
G75*
G02*
X0001328494Y0002855314I-0000008612D01*
G01*
X0001311269Y0002855314D01*
G75*
G02*
X0001302657Y0002863927J0000008612D01*
G01*
G37*
D56*
X0001326771Y0003198818D03*
X0001364173Y0003120078D03*
X0001289370Y0003120078D03*
X0000945866Y0003248031D03*
X0001020669Y0003248031D03*
X0000983267Y0003326771D03*
G36*
G01*
X0001239173Y0003111220D02*
X0001217519Y0003111220D01*
G75*
G02*
X0001209645Y0003119094J0000007874D01*
G01*
X0001209645Y0003134842D01*
G75*
G02*
X0001217519Y0003142716I0000007874D01*
G01*
X0001239173Y0003142716D01*
G75*
G02*
X0001247047Y0003134842J-0000007874D01*
G01*
X0001247047Y0003119094D01*
G75*
G02*
X0001239173Y0003111220I-0000007874D01*
G01*
G37*
G36*
G01*
X0001239173Y0003176181D02*
X0001217519Y0003176181D01*
G75*
G02*
X0001209645Y0003184055J0000007874D01*
G01*
X0001209645Y0003199803D01*
G75*
G02*
X0001217519Y0003207677I0000007874D01*
G01*
X0001239173Y0003207677D01*
G75*
G02*
X0001247047Y0003199803J-0000007874D01*
G01*
X0001247047Y0003184055D01*
G75*
G02*
X0001239173Y0003176181I-0000007874D01*
G01*
G37*
G36*
G01*
X0000894685Y0003294291D02*
X0000873031Y0003294291D01*
G75*
G02*
X0000865157Y0003302165J0000007874D01*
G01*
X0000865157Y0003317913D01*
G75*
G02*
X0000873031Y0003325787I0000007874D01*
G01*
X0000894685Y0003325787D01*
G75*
G02*
X0000902559Y0003317913J-0000007874D01*
G01*
X0000902559Y0003302165D01*
G75*
G02*
X0000894685Y0003294291I-0000007874D01*
G01*
G37*
G36*
G01*
X0000894685Y0003229330D02*
X0000873031Y0003229330D01*
G75*
G02*
X0000865157Y0003237204J0000007874D01*
G01*
X0000865157Y0003252952D01*
G75*
G02*
X0000873031Y0003260826I0000007874D01*
G01*
X0000894685Y0003260826D01*
G75*
G02*
X0000902559Y0003252952J-0000007874D01*
G01*
X0000902559Y0003237204D01*
G75*
G02*
X0000894685Y0003229330I-0000007874D01*
G01*
G37*
G36*
G01*
X0001064960Y0003286417D02*
X0001064960Y0003308070D01*
G75*
G02*
X0001072834Y0003315944I0000007874D01*
G01*
X0001088582Y0003315944D01*
G75*
G02*
X0001096456Y0003308070J-0000007874D01*
G01*
X0001096456Y0003286417D01*
G75*
G02*
X0001088582Y0003278543I-0000007874D01*
G01*
X0001072834Y0003278543D01*
G75*
G02*
X0001064960Y0003286417J0000007874D01*
G01*
G37*
G36*
G01*
X0001129921Y0003286417D02*
X0001129921Y0003308070D01*
G75*
G02*
X0001137795Y0003315944I0000007874D01*
G01*
X0001153543Y0003315944D01*
G75*
G02*
X0001161417Y0003308070J-0000007874D01*
G01*
X0001161417Y0003286417D01*
G75*
G02*
X0001153543Y0003278543I-0000007874D01*
G01*
X0001137795Y0003278543D01*
G75*
G02*
X0001129921Y0003286417J0000007874D01*
G01*
G37*
D57*
X0000705708Y0002856299D03*
X0000680118Y0002856299D03*
X0000654527Y0002856299D03*
X0000628937Y0002856299D03*
X0000628937Y0002734251D03*
X0000654527Y0002734251D03*
X0000680118Y0002734251D03*
X0000705708Y0002734251D03*
D58*
X0000643700Y0002810531D03*
X0000643700Y0002780019D03*
X0000690944Y0002780019D03*
X0000690944Y0002810531D03*
D59*
X0001086614Y0003226377D03*
X0001086614Y0003188976D03*
X0001086614Y0003151574D03*
X0001173228Y0003151574D03*
X0001173228Y0003226377D03*
D60*
X0001230314Y0002818897D03*
X0001305118Y0002818897D03*
X0001305118Y0002732283D03*
X0001267716Y0002732283D03*
X0001230314Y0002732283D03*
D61*
G36*
X0000787002Y0003132415D02*
G01*
X0000786670Y0003132516D01*
X0000786363Y0003132680D01*
X0000786095Y0003132900D01*
X0000780833Y0003138162D01*
X0000780613Y0003138430D01*
X0000780449Y0003138736D01*
X0000780349Y0003139069D01*
X0000780314Y0003139414D01*
X0000780314Y0003140452D01*
X0000780349Y0003140798D01*
X0000780449Y0003141130D01*
X0000780613Y0003141437D01*
X0000780833Y0003141705D01*
X0000781102Y0003141925D01*
X0000781408Y0003142089D01*
X0000781740Y0003142190D01*
X0000782086Y0003142224D01*
X0000808267Y0003142224D01*
X0000808613Y0003142190D01*
X0000808945Y0003142089D01*
X0000809252Y0003141925D01*
X0000809520Y0003141705D01*
X0000809740Y0003141437D01*
X0000809904Y0003141130D01*
X0000810005Y0003140798D01*
X0000810039Y0003140452D01*
X0000810039Y0003134153D01*
X0000810005Y0003133807D01*
X0000809904Y0003133475D01*
X0000809740Y0003133169D01*
X0000809520Y0003132900D01*
X0000809252Y0003132680D01*
X0000808945Y0003132516D01*
X0000808613Y0003132415D01*
X0000808267Y0003132381D01*
X0000787348Y0003132381D01*
X0000787002Y0003132415D01*
G37*
G36*
G01*
X0000810039Y0003159448D02*
X0000810039Y0003154527D01*
G75*
G02*
X0000807578Y0003152066I-0000002460D01*
G01*
X0000778051Y0003152066D01*
G75*
G02*
X0000775590Y0003154527J0000002460D01*
G01*
X0000775590Y0003159448D01*
G75*
G02*
X0000778051Y0003161909I0000002460D01*
G01*
X0000807578Y0003161909D01*
G75*
G02*
X0000810039Y0003159448J-0000002460D01*
G01*
G37*
G36*
G01*
X0000810039Y0003179133D02*
X0000810039Y0003174212D01*
G75*
G02*
X0000807578Y0003171751I-0000002460D01*
G01*
X0000778051Y0003171751D01*
G75*
G02*
X0000775590Y0003174212J0000002460D01*
G01*
X0000775590Y0003179133D01*
G75*
G02*
X0000778051Y0003181594I0000002460D01*
G01*
X0000807578Y0003181594D01*
G75*
G02*
X0000810039Y0003179133J-0000002460D01*
G01*
G37*
G36*
G01*
X0000810039Y0003198818D02*
X0000810039Y0003193897D01*
G75*
G02*
X0000807578Y0003191437I-0000002460D01*
G01*
X0000778051Y0003191437D01*
G75*
G02*
X0000775590Y0003193897J0000002460D01*
G01*
X0000775590Y0003198818D01*
G75*
G02*
X0000778051Y0003201279I0000002460D01*
G01*
X0000807578Y0003201279D01*
G75*
G02*
X0000810039Y0003198818J-0000002460D01*
G01*
G37*
G36*
G01*
X0000810039Y0003218503D02*
X0000810039Y0003213582D01*
G75*
G02*
X0000807578Y0003211122I-0000002460D01*
G01*
X0000778051Y0003211122D01*
G75*
G02*
X0000775590Y0003213582J0000002460D01*
G01*
X0000775590Y0003218503D01*
G75*
G02*
X0000778051Y0003220964I0000002460D01*
G01*
X0000807578Y0003220964D01*
G75*
G02*
X0000810039Y0003218503J-0000002460D01*
G01*
G37*
G36*
G01*
X0000810039Y0003238188D02*
X0000810039Y0003233267D01*
G75*
G02*
X0000807578Y0003230807I-0000002460D01*
G01*
X0000778051Y0003230807D01*
G75*
G02*
X0000775590Y0003233267J0000002460D01*
G01*
X0000775590Y0003238188D01*
G75*
G02*
X0000778051Y0003240649I0000002460D01*
G01*
X0000807578Y0003240649D01*
G75*
G02*
X0000810039Y0003238188J-0000002460D01*
G01*
G37*
G36*
X0000781740Y0003250526D02*
G01*
X0000781408Y0003250626D01*
X0000781102Y0003250790D01*
X0000780833Y0003251011D01*
X0000780613Y0003251279D01*
X0000780449Y0003251585D01*
X0000780349Y0003251918D01*
X0000780314Y0003252263D01*
X0000780314Y0003253301D01*
X0000780349Y0003253647D01*
X0000780449Y0003253979D01*
X0000780613Y0003254285D01*
X0000780833Y0003254554D01*
X0000786095Y0003259815D01*
X0000786363Y0003260036D01*
X0000786670Y0003260199D01*
X0000787002Y0003260300D01*
X0000787348Y0003260334D01*
X0000808267Y0003260334D01*
X0000808613Y0003260300D01*
X0000808945Y0003260199D01*
X0000809252Y0003260036D01*
X0000809520Y0003259815D01*
X0000809740Y0003259547D01*
X0000809904Y0003259240D01*
X0000810005Y0003258908D01*
X0000810039Y0003258562D01*
X0000810039Y0003252263D01*
X0000810005Y0003251918D01*
X0000809904Y0003251585D01*
X0000809740Y0003251279D01*
X0000809520Y0003251011D01*
X0000809252Y0003250790D01*
X0000808945Y0003250626D01*
X0000808613Y0003250526D01*
X0000808267Y0003250492D01*
X0000782086Y0003250492D01*
X0000781740Y0003250526D01*
G37*
G36*
X0000772095Y0003260171D02*
G01*
X0000771762Y0003260272D01*
X0000771456Y0003260436D01*
X0000771188Y0003260656D01*
X0000770967Y0003260925D01*
X0000770804Y0003261231D01*
X0000770703Y0003261563D01*
X0000770669Y0003261909D01*
X0000770669Y0003288090D01*
X0000770703Y0003288436D01*
X0000770804Y0003288768D01*
X0000770967Y0003289074D01*
X0000771188Y0003289343D01*
X0000771456Y0003289563D01*
X0000771762Y0003289727D01*
X0000772095Y0003289828D01*
X0000772440Y0003289862D01*
X0000778740Y0003289862D01*
X0000779085Y0003289828D01*
X0000779418Y0003289727D01*
X0000779724Y0003289563D01*
X0000779992Y0003289343D01*
X0000780213Y0003289074D01*
X0000780376Y0003288768D01*
X0000780477Y0003288436D01*
X0000780511Y0003288090D01*
X0000780511Y0003267170D01*
X0000780477Y0003266825D01*
X0000780376Y0003266492D01*
X0000780213Y0003266186D01*
X0000779992Y0003265918D01*
X0000774731Y0003260656D01*
X0000774463Y0003260436D01*
X0000774156Y0003260272D01*
X0000773824Y0003260171D01*
X0000773478Y0003260137D01*
X0000772440Y0003260137D01*
X0000772095Y0003260171D01*
G37*
G36*
G01*
X0000760826Y0003287401D02*
X0000760826Y0003257874D01*
G75*
G02*
X0000758366Y0003255413I-0000002460D01*
G01*
X0000753444Y0003255413D01*
G75*
G02*
X0000750984Y0003257874J0000002460D01*
G01*
X0000750984Y0003287401D01*
G75*
G02*
X0000753444Y0003289862I0000002460D01*
G01*
X0000758366Y0003289862D01*
G75*
G02*
X0000760826Y0003287401J-0000002460D01*
G01*
G37*
G36*
G01*
X0000741141Y0003287401D02*
X0000741141Y0003257874D01*
G75*
G02*
X0000738681Y0003255413I-0000002460D01*
G01*
X0000733759Y0003255413D01*
G75*
G02*
X0000731299Y0003257874J0000002460D01*
G01*
X0000731299Y0003287401D01*
G75*
G02*
X0000733759Y0003289862I0000002460D01*
G01*
X0000738681Y0003289862D01*
G75*
G02*
X0000741141Y0003287401J-0000002460D01*
G01*
G37*
G36*
G01*
X0000721456Y0003287401D02*
X0000721456Y0003257874D01*
G75*
G02*
X0000718996Y0003255413I-0000002460D01*
G01*
X0000714074Y0003255413D01*
G75*
G02*
X0000711614Y0003257874J0000002460D01*
G01*
X0000711614Y0003287401D01*
G75*
G02*
X0000714074Y0003289862I0000002460D01*
G01*
X0000718996Y0003289862D01*
G75*
G02*
X0000721456Y0003287401J-0000002460D01*
G01*
G37*
G36*
G01*
X0000701771Y0003287401D02*
X0000701771Y0003257874D01*
G75*
G02*
X0000699311Y0003255413I-0000002460D01*
G01*
X0000694389Y0003255413D01*
G75*
G02*
X0000691929Y0003257874J0000002460D01*
G01*
X0000691929Y0003287401D01*
G75*
G02*
X0000694389Y0003289862I0000002460D01*
G01*
X0000699311Y0003289862D01*
G75*
G02*
X0000701771Y0003287401J-0000002460D01*
G01*
G37*
G36*
G01*
X0000682086Y0003287401D02*
X0000682086Y0003257874D01*
G75*
G02*
X0000679625Y0003255413I-0000002460D01*
G01*
X0000674704Y0003255413D01*
G75*
G02*
X0000672244Y0003257874J0000002460D01*
G01*
X0000672244Y0003287401D01*
G75*
G02*
X0000674704Y0003289862I0000002460D01*
G01*
X0000679625Y0003289862D01*
G75*
G02*
X0000682086Y0003287401J-0000002460D01*
G01*
G37*
G36*
X0000659246Y0003260171D02*
G01*
X0000658914Y0003260272D01*
X0000658607Y0003260436D01*
X0000658339Y0003260656D01*
X0000653077Y0003265918D01*
X0000652857Y0003266186D01*
X0000652693Y0003266492D01*
X0000652593Y0003266825D01*
X0000652559Y0003267170D01*
X0000652559Y0003288090D01*
X0000652593Y0003288436D01*
X0000652693Y0003288768D01*
X0000652857Y0003289074D01*
X0000653077Y0003289343D01*
X0000653346Y0003289563D01*
X0000653652Y0003289727D01*
X0000653985Y0003289828D01*
X0000654330Y0003289862D01*
X0000660629Y0003289862D01*
X0000660975Y0003289828D01*
X0000661307Y0003289727D01*
X0000661614Y0003289563D01*
X0000661882Y0003289343D01*
X0000662102Y0003289074D01*
X0000662266Y0003288768D01*
X0000662367Y0003288436D01*
X0000662401Y0003288090D01*
X0000662401Y0003261909D01*
X0000662367Y0003261563D01*
X0000662266Y0003261231D01*
X0000662102Y0003260925D01*
X0000661882Y0003260656D01*
X0000661614Y0003260436D01*
X0000661307Y0003260272D01*
X0000660975Y0003260171D01*
X0000660629Y0003260137D01*
X0000659592Y0003260137D01*
X0000659246Y0003260171D01*
G37*
G36*
X0000624457Y0003250526D02*
G01*
X0000624125Y0003250626D01*
X0000623818Y0003250790D01*
X0000623550Y0003251011D01*
X0000623330Y0003251279D01*
X0000623166Y0003251585D01*
X0000623065Y0003251918D01*
X0000623031Y0003252263D01*
X0000623031Y0003258562D01*
X0000623065Y0003258908D01*
X0000623166Y0003259240D01*
X0000623330Y0003259547D01*
X0000623550Y0003259815D01*
X0000623818Y0003260036D01*
X0000624125Y0003260199D01*
X0000624457Y0003260300D01*
X0000624803Y0003260334D01*
X0000645722Y0003260334D01*
X0000646068Y0003260300D01*
X0000646400Y0003260199D01*
X0000646707Y0003260036D01*
X0000646975Y0003259815D01*
X0000652237Y0003254554D01*
X0000652457Y0003254285D01*
X0000652621Y0003253979D01*
X0000652721Y0003253647D01*
X0000652755Y0003253301D01*
X0000652755Y0003252263D01*
X0000652721Y0003251918D01*
X0000652621Y0003251585D01*
X0000652457Y0003251279D01*
X0000652237Y0003251011D01*
X0000651968Y0003250790D01*
X0000651662Y0003250626D01*
X0000651329Y0003250526D01*
X0000650984Y0003250492D01*
X0000624803Y0003250492D01*
X0000624457Y0003250526D01*
G37*
G36*
G01*
X0000657480Y0003238188D02*
X0000657480Y0003233267D01*
G75*
G02*
X0000655019Y0003230807I-0000002460D01*
G01*
X0000625492Y0003230807D01*
G75*
G02*
X0000623031Y0003233267J0000002460D01*
G01*
X0000623031Y0003238188D01*
G75*
G02*
X0000625492Y0003240649I0000002460D01*
G01*
X0000655019Y0003240649D01*
G75*
G02*
X0000657480Y0003238188J-0000002460D01*
G01*
G37*
G36*
G01*
X0000657480Y0003218503D02*
X0000657480Y0003213582D01*
G75*
G02*
X0000655019Y0003211122I-0000002460D01*
G01*
X0000625492Y0003211122D01*
G75*
G02*
X0000623031Y0003213582J0000002460D01*
G01*
X0000623031Y0003218503D01*
G75*
G02*
X0000625492Y0003220964I0000002460D01*
G01*
X0000655019Y0003220964D01*
G75*
G02*
X0000657480Y0003218503J-0000002460D01*
G01*
G37*
G36*
G01*
X0000657480Y0003198818D02*
X0000657480Y0003193897D01*
G75*
G02*
X0000655019Y0003191437I-0000002460D01*
G01*
X0000625492Y0003191437D01*
G75*
G02*
X0000623031Y0003193897J0000002460D01*
G01*
X0000623031Y0003198818D01*
G75*
G02*
X0000625492Y0003201279I0000002460D01*
G01*
X0000655019Y0003201279D01*
G75*
G02*
X0000657480Y0003198818J-0000002460D01*
G01*
G37*
G36*
G01*
X0000657480Y0003179133D02*
X0000657480Y0003174212D01*
G75*
G02*
X0000655019Y0003171751I-0000002460D01*
G01*
X0000625492Y0003171751D01*
G75*
G02*
X0000623031Y0003174212J0000002460D01*
G01*
X0000623031Y0003179133D01*
G75*
G02*
X0000625492Y0003181594I0000002460D01*
G01*
X0000655019Y0003181594D01*
G75*
G02*
X0000657480Y0003179133J-0000002460D01*
G01*
G37*
G36*
G01*
X0000657480Y0003159448D02*
X0000657480Y0003154527D01*
G75*
G02*
X0000655019Y0003152066I-0000002460D01*
G01*
X0000625492Y0003152066D01*
G75*
G02*
X0000623031Y0003154527J0000002460D01*
G01*
X0000623031Y0003159448D01*
G75*
G02*
X0000625492Y0003161909I0000002460D01*
G01*
X0000655019Y0003161909D01*
G75*
G02*
X0000657480Y0003159448J-0000002460D01*
G01*
G37*
G36*
X0000624457Y0003132415D02*
G01*
X0000624125Y0003132516D01*
X0000623818Y0003132680D01*
X0000623550Y0003132900D01*
X0000623330Y0003133169D01*
X0000623166Y0003133475D01*
X0000623065Y0003133807D01*
X0000623031Y0003134153D01*
X0000623031Y0003140452D01*
X0000623065Y0003140798D01*
X0000623166Y0003141130D01*
X0000623330Y0003141437D01*
X0000623550Y0003141705D01*
X0000623818Y0003141925D01*
X0000624125Y0003142089D01*
X0000624457Y0003142190D01*
X0000624803Y0003142224D01*
X0000650984Y0003142224D01*
X0000651329Y0003142190D01*
X0000651662Y0003142089D01*
X0000651968Y0003141925D01*
X0000652237Y0003141705D01*
X0000652457Y0003141437D01*
X0000652621Y0003141130D01*
X0000652721Y0003140798D01*
X0000652755Y0003140452D01*
X0000652755Y0003139414D01*
X0000652721Y0003139069D01*
X0000652621Y0003138736D01*
X0000652457Y0003138430D01*
X0000652237Y0003138162D01*
X0000646975Y0003132900D01*
X0000646707Y0003132680D01*
X0000646400Y0003132516D01*
X0000646068Y0003132415D01*
X0000645722Y0003132381D01*
X0000624803Y0003132381D01*
X0000624457Y0003132415D01*
G37*
G36*
X0000653985Y0003102888D02*
G01*
X0000653652Y0003102989D01*
X0000653346Y0003103152D01*
X0000653077Y0003103373D01*
X0000652857Y0003103641D01*
X0000652693Y0003103947D01*
X0000652593Y0003104280D01*
X0000652559Y0003104625D01*
X0000652559Y0003125545D01*
X0000652593Y0003125891D01*
X0000652693Y0003126223D01*
X0000652857Y0003126529D01*
X0000653077Y0003126798D01*
X0000658339Y0003132059D01*
X0000658607Y0003132280D01*
X0000658914Y0003132443D01*
X0000659246Y0003132544D01*
X0000659592Y0003132578D01*
X0000660629Y0003132578D01*
X0000660975Y0003132544D01*
X0000661307Y0003132443D01*
X0000661614Y0003132280D01*
X0000661882Y0003132059D01*
X0000662102Y0003131791D01*
X0000662266Y0003131485D01*
X0000662367Y0003131152D01*
X0000662401Y0003130807D01*
X0000662401Y0003104625D01*
X0000662367Y0003104280D01*
X0000662266Y0003103947D01*
X0000662102Y0003103641D01*
X0000661882Y0003103373D01*
X0000661614Y0003103152D01*
X0000661307Y0003102989D01*
X0000660975Y0003102888D01*
X0000660629Y0003102854D01*
X0000654330Y0003102854D01*
X0000653985Y0003102888D01*
G37*
G36*
G01*
X0000682086Y0003134842D02*
X0000682086Y0003105314D01*
G75*
G02*
X0000679625Y0003102854I-0000002460D01*
G01*
X0000674704Y0003102854D01*
G75*
G02*
X0000672244Y0003105314J0000002460D01*
G01*
X0000672244Y0003134842D01*
G75*
G02*
X0000674704Y0003137303I0000002460D01*
G01*
X0000679625Y0003137303D01*
G75*
G02*
X0000682086Y0003134842J-0000002460D01*
G01*
G37*
G36*
G01*
X0000701771Y0003134842D02*
X0000701771Y0003105314D01*
G75*
G02*
X0000699311Y0003102854I-0000002460D01*
G01*
X0000694389Y0003102854D01*
G75*
G02*
X0000691929Y0003105314J0000002460D01*
G01*
X0000691929Y0003134842D01*
G75*
G02*
X0000694389Y0003137303I0000002460D01*
G01*
X0000699311Y0003137303D01*
G75*
G02*
X0000701771Y0003134842J-0000002460D01*
G01*
G37*
G36*
G01*
X0000721456Y0003134842D02*
X0000721456Y0003105314D01*
G75*
G02*
X0000718996Y0003102854I-0000002460D01*
G01*
X0000714074Y0003102854D01*
G75*
G02*
X0000711614Y0003105314J0000002460D01*
G01*
X0000711614Y0003134842D01*
G75*
G02*
X0000714074Y0003137303I0000002460D01*
G01*
X0000718996Y0003137303D01*
G75*
G02*
X0000721456Y0003134842J-0000002460D01*
G01*
G37*
G36*
G01*
X0000741141Y0003134842D02*
X0000741141Y0003105314D01*
G75*
G02*
X0000738681Y0003102854I-0000002460D01*
G01*
X0000733759Y0003102854D01*
G75*
G02*
X0000731299Y0003105314J0000002460D01*
G01*
X0000731299Y0003134842D01*
G75*
G02*
X0000733759Y0003137303I0000002460D01*
G01*
X0000738681Y0003137303D01*
G75*
G02*
X0000741141Y0003134842J-0000002460D01*
G01*
G37*
G36*
G01*
X0000760826Y0003134842D02*
X0000760826Y0003105314D01*
G75*
G02*
X0000758366Y0003102854I-0000002460D01*
G01*
X0000753444Y0003102854D01*
G75*
G02*
X0000750984Y0003105314J0000002460D01*
G01*
X0000750984Y0003134842D01*
G75*
G02*
X0000753444Y0003137303I0000002460D01*
G01*
X0000758366Y0003137303D01*
G75*
G02*
X0000760826Y0003134842J-0000002460D01*
G01*
G37*
G36*
X0000772095Y0003102888D02*
G01*
X0000771762Y0003102989D01*
X0000771456Y0003103152D01*
X0000771188Y0003103373D01*
X0000770967Y0003103641D01*
X0000770804Y0003103947D01*
X0000770703Y0003104280D01*
X0000770669Y0003104625D01*
X0000770669Y0003130807D01*
X0000770703Y0003131152D01*
X0000770804Y0003131485D01*
X0000770967Y0003131791D01*
X0000771188Y0003132059D01*
X0000771456Y0003132280D01*
X0000771762Y0003132443D01*
X0000772095Y0003132544D01*
X0000772440Y0003132578D01*
X0000773478Y0003132578D01*
X0000773824Y0003132544D01*
X0000774156Y0003132443D01*
X0000774463Y0003132280D01*
X0000774731Y0003132059D01*
X0000779992Y0003126798D01*
X0000780213Y0003126529D01*
X0000780376Y0003126223D01*
X0000780477Y0003125891D01*
X0000780511Y0003125545D01*
X0000780511Y0003104625D01*
X0000780477Y0003104280D01*
X0000780376Y0003103947D01*
X0000780213Y0003103641D01*
X0000779992Y0003103373D01*
X0000779724Y0003103152D01*
X0000779418Y0003102989D01*
X0000779085Y0003102888D01*
X0000778740Y0003102854D01*
X0000772440Y0003102854D01*
X0000772095Y0003102888D01*
G37*
G04 next file*
G04 Gerber Fmt 4.6, Leading zero omitted, Abs format (unit mm)*
G04 Created by KiCad (PCBNEW (5.1.8)-1) date 2020-11-23 23:28:54*
G01*
G04 APERTURE LIST*
G04 APERTURE END LIST*
G36*
G01*
X0002303641Y0002863927D02*
X0002303641Y0002884104D01*
G75*
G02*
X0002312253Y0002892716I0000008612D01*
G01*
X0002329478Y0002892716D01*
G75*
G02*
X0002338090Y0002884104J-0000008612D01*
G01*
X0002338090Y0002863927D01*
G75*
G02*
X0002329478Y0002855314I-0000008612D01*
G01*
X0002312253Y0002855314D01*
G75*
G02*
X0002303641Y0002863927J0000008612D01*
G01*
G37*
G36*
G01*
X0002365649Y0002863927D02*
X0002365649Y0002884104D01*
G75*
G02*
X0002374261Y0002892716I0000008612D01*
G01*
X0002391486Y0002892716D01*
G75*
G02*
X0002400098Y0002884104J-0000008612D01*
G01*
X0002400098Y0002863927D01*
G75*
G02*
X0002391486Y0002855314I-0000008612D01*
G01*
X0002374261Y0002855314D01*
G75*
G02*
X0002365649Y0002863927J0000008612D01*
G01*
G37*
D62*
X0002389763Y0003198818D03*
X0002427165Y0003120078D03*
X0002352362Y0003120078D03*
X0002008858Y0003248031D03*
X0002083661Y0003248031D03*
X0002046259Y0003326771D03*
G36*
G01*
X0002302165Y0003111220D02*
X0002280511Y0003111220D01*
G75*
G02*
X0002272637Y0003119094J0000007874D01*
G01*
X0002272637Y0003134842D01*
G75*
G02*
X0002280511Y0003142716I0000007874D01*
G01*
X0002302165Y0003142716D01*
G75*
G02*
X0002310039Y0003134842J-0000007874D01*
G01*
X0002310039Y0003119094D01*
G75*
G02*
X0002302165Y0003111220I-0000007874D01*
G01*
G37*
G36*
G01*
X0002302165Y0003176181D02*
X0002280511Y0003176181D01*
G75*
G02*
X0002272637Y0003184055J0000007874D01*
G01*
X0002272637Y0003199803D01*
G75*
G02*
X0002280511Y0003207677I0000007874D01*
G01*
X0002302165Y0003207677D01*
G75*
G02*
X0002310039Y0003199803J-0000007874D01*
G01*
X0002310039Y0003184055D01*
G75*
G02*
X0002302165Y0003176181I-0000007874D01*
G01*
G37*
G36*
G01*
X0001957677Y0003294291D02*
X0001936023Y0003294291D01*
G75*
G02*
X0001928149Y0003302165J0000007874D01*
G01*
X0001928149Y0003317913D01*
G75*
G02*
X0001936023Y0003325787I0000007874D01*
G01*
X0001957677Y0003325787D01*
G75*
G02*
X0001965551Y0003317913J-0000007874D01*
G01*
X0001965551Y0003302165D01*
G75*
G02*
X0001957677Y0003294291I-0000007874D01*
G01*
G37*
G36*
G01*
X0001957677Y0003229330D02*
X0001936023Y0003229330D01*
G75*
G02*
X0001928149Y0003237204J0000007874D01*
G01*
X0001928149Y0003252952D01*
G75*
G02*
X0001936023Y0003260826I0000007874D01*
G01*
X0001957677Y0003260826D01*
G75*
G02*
X0001965551Y0003252952J-0000007874D01*
G01*
X0001965551Y0003237204D01*
G75*
G02*
X0001957677Y0003229330I-0000007874D01*
G01*
G37*
G36*
G01*
X0002127952Y0003286417D02*
X0002127952Y0003308070D01*
G75*
G02*
X0002135826Y0003315944I0000007874D01*
G01*
X0002151574Y0003315944D01*
G75*
G02*
X0002159448Y0003308070J-0000007874D01*
G01*
X0002159448Y0003286417D01*
G75*
G02*
X0002151574Y0003278543I-0000007874D01*
G01*
X0002135826Y0003278543D01*
G75*
G02*
X0002127952Y0003286417J0000007874D01*
G01*
G37*
G36*
G01*
X0002192913Y0003286417D02*
X0002192913Y0003308070D01*
G75*
G02*
X0002200787Y0003315944I0000007874D01*
G01*
X0002216535Y0003315944D01*
G75*
G02*
X0002224409Y0003308070J-0000007874D01*
G01*
X0002224409Y0003286417D01*
G75*
G02*
X0002216535Y0003278543I-0000007874D01*
G01*
X0002200787Y0003278543D01*
G75*
G02*
X0002192913Y0003286417J0000007874D01*
G01*
G37*
D63*
X0001768700Y0002856299D03*
X0001743110Y0002856299D03*
X0001717519Y0002856299D03*
X0001691929Y0002856299D03*
X0001691929Y0002734251D03*
X0001717519Y0002734251D03*
X0001743110Y0002734251D03*
X0001768700Y0002734251D03*
D64*
X0001706692Y0002810531D03*
X0001706692Y0002780019D03*
X0001753937Y0002780019D03*
X0001753937Y0002810531D03*
D65*
X0002149606Y0003226377D03*
X0002149606Y0003188976D03*
X0002149606Y0003151574D03*
X0002236220Y0003151574D03*
X0002236220Y0003226377D03*
D66*
X0002293307Y0002818897D03*
X0002368110Y0002818897D03*
X0002368110Y0002732283D03*
X0002330708Y0002732283D03*
X0002293307Y0002732283D03*
D67*
G36*
X0001849994Y0003132415D02*
G01*
X0001849662Y0003132516D01*
X0001849355Y0003132680D01*
X0001849087Y0003132900D01*
X0001843825Y0003138162D01*
X0001843605Y0003138430D01*
X0001843441Y0003138736D01*
X0001843341Y0003139069D01*
X0001843307Y0003139414D01*
X0001843307Y0003140452D01*
X0001843341Y0003140798D01*
X0001843441Y0003141130D01*
X0001843605Y0003141437D01*
X0001843825Y0003141705D01*
X0001844094Y0003141925D01*
X0001844400Y0003142089D01*
X0001844733Y0003142190D01*
X0001845078Y0003142224D01*
X0001871259Y0003142224D01*
X0001871605Y0003142190D01*
X0001871937Y0003142089D01*
X0001872244Y0003141925D01*
X0001872512Y0003141705D01*
X0001872732Y0003141437D01*
X0001872896Y0003141130D01*
X0001872997Y0003140798D01*
X0001873031Y0003140452D01*
X0001873031Y0003134153D01*
X0001872997Y0003133807D01*
X0001872896Y0003133475D01*
X0001872732Y0003133169D01*
X0001872512Y0003132900D01*
X0001872244Y0003132680D01*
X0001871937Y0003132516D01*
X0001871605Y0003132415D01*
X0001871259Y0003132381D01*
X0001850340Y0003132381D01*
X0001849994Y0003132415D01*
G37*
G36*
G01*
X0001873031Y0003159448D02*
X0001873031Y0003154527D01*
G75*
G02*
X0001870570Y0003152066I-0000002460D01*
G01*
X0001841043Y0003152066D01*
G75*
G02*
X0001838582Y0003154527J0000002460D01*
G01*
X0001838582Y0003159448D01*
G75*
G02*
X0001841043Y0003161909I0000002460D01*
G01*
X0001870570Y0003161909D01*
G75*
G02*
X0001873031Y0003159448J-0000002460D01*
G01*
G37*
G36*
G01*
X0001873031Y0003179133D02*
X0001873031Y0003174212D01*
G75*
G02*
X0001870570Y0003171751I-0000002460D01*
G01*
X0001841043Y0003171751D01*
G75*
G02*
X0001838582Y0003174212J0000002460D01*
G01*
X0001838582Y0003179133D01*
G75*
G02*
X0001841043Y0003181594I0000002460D01*
G01*
X0001870570Y0003181594D01*
G75*
G02*
X0001873031Y0003179133J-0000002460D01*
G01*
G37*
G36*
G01*
X0001873031Y0003198818D02*
X0001873031Y0003193897D01*
G75*
G02*
X0001870570Y0003191437I-0000002460D01*
G01*
X0001841043Y0003191437D01*
G75*
G02*
X0001838582Y0003193897J0000002460D01*
G01*
X0001838582Y0003198818D01*
G75*
G02*
X0001841043Y0003201279I0000002460D01*
G01*
X0001870570Y0003201279D01*
G75*
G02*
X0001873031Y0003198818J-0000002460D01*
G01*
G37*
G36*
G01*
X0001873031Y0003218503D02*
X0001873031Y0003213582D01*
G75*
G02*
X0001870570Y0003211122I-0000002460D01*
G01*
X0001841043Y0003211122D01*
G75*
G02*
X0001838582Y0003213582J0000002460D01*
G01*
X0001838582Y0003218503D01*
G75*
G02*
X0001841043Y0003220964I0000002460D01*
G01*
X0001870570Y0003220964D01*
G75*
G02*
X0001873031Y0003218503J-0000002460D01*
G01*
G37*
G36*
G01*
X0001873031Y0003238188D02*
X0001873031Y0003233267D01*
G75*
G02*
X0001870570Y0003230807I-0000002460D01*
G01*
X0001841043Y0003230807D01*
G75*
G02*
X0001838582Y0003233267J0000002460D01*
G01*
X0001838582Y0003238188D01*
G75*
G02*
X0001841043Y0003240649I0000002460D01*
G01*
X0001870570Y0003240649D01*
G75*
G02*
X0001873031Y0003238188J-0000002460D01*
G01*
G37*
G36*
X0001844733Y0003250526D02*
G01*
X0001844400Y0003250626D01*
X0001844094Y0003250790D01*
X0001843825Y0003251011D01*
X0001843605Y0003251279D01*
X0001843441Y0003251585D01*
X0001843341Y0003251918D01*
X0001843307Y0003252263D01*
X0001843307Y0003253301D01*
X0001843341Y0003253647D01*
X0001843441Y0003253979D01*
X0001843605Y0003254285D01*
X0001843825Y0003254554D01*
X0001849087Y0003259815D01*
X0001849355Y0003260036D01*
X0001849662Y0003260199D01*
X0001849994Y0003260300D01*
X0001850340Y0003260334D01*
X0001871259Y0003260334D01*
X0001871605Y0003260300D01*
X0001871937Y0003260199D01*
X0001872244Y0003260036D01*
X0001872512Y0003259815D01*
X0001872732Y0003259547D01*
X0001872896Y0003259240D01*
X0001872997Y0003258908D01*
X0001873031Y0003258562D01*
X0001873031Y0003252263D01*
X0001872997Y0003251918D01*
X0001872896Y0003251585D01*
X0001872732Y0003251279D01*
X0001872512Y0003251011D01*
X0001872244Y0003250790D01*
X0001871937Y0003250626D01*
X0001871605Y0003250526D01*
X0001871259Y0003250492D01*
X0001845078Y0003250492D01*
X0001844733Y0003250526D01*
G37*
G36*
X0001835087Y0003260171D02*
G01*
X0001834755Y0003260272D01*
X0001834448Y0003260436D01*
X0001834180Y0003260656D01*
X0001833960Y0003260925D01*
X0001833796Y0003261231D01*
X0001833695Y0003261563D01*
X0001833661Y0003261909D01*
X0001833661Y0003288090D01*
X0001833695Y0003288436D01*
X0001833796Y0003288768D01*
X0001833960Y0003289074D01*
X0001834180Y0003289343D01*
X0001834448Y0003289563D01*
X0001834755Y0003289727D01*
X0001835087Y0003289828D01*
X0001835433Y0003289862D01*
X0001841732Y0003289862D01*
X0001842077Y0003289828D01*
X0001842410Y0003289727D01*
X0001842716Y0003289563D01*
X0001842985Y0003289343D01*
X0001843205Y0003289074D01*
X0001843369Y0003288768D01*
X0001843469Y0003288436D01*
X0001843503Y0003288090D01*
X0001843503Y0003267170D01*
X0001843469Y0003266825D01*
X0001843369Y0003266492D01*
X0001843205Y0003266186D01*
X0001842985Y0003265918D01*
X0001837723Y0003260656D01*
X0001837455Y0003260436D01*
X0001837148Y0003260272D01*
X0001836816Y0003260171D01*
X0001836470Y0003260137D01*
X0001835433Y0003260137D01*
X0001835087Y0003260171D01*
G37*
G36*
G01*
X0001823818Y0003287401D02*
X0001823818Y0003257874D01*
G75*
G02*
X0001821358Y0003255413I-0000002460D01*
G01*
X0001816437Y0003255413D01*
G75*
G02*
X0001813976Y0003257874J0000002460D01*
G01*
X0001813976Y0003287401D01*
G75*
G02*
X0001816437Y0003289862I0000002460D01*
G01*
X0001821358Y0003289862D01*
G75*
G02*
X0001823818Y0003287401J-0000002460D01*
G01*
G37*
G36*
G01*
X0001804133Y0003287401D02*
X0001804133Y0003257874D01*
G75*
G02*
X0001801673Y0003255413I-0000002460D01*
G01*
X0001796751Y0003255413D01*
G75*
G02*
X0001794291Y0003257874J0000002460D01*
G01*
X0001794291Y0003287401D01*
G75*
G02*
X0001796751Y0003289862I0000002460D01*
G01*
X0001801673Y0003289862D01*
G75*
G02*
X0001804133Y0003287401J-0000002460D01*
G01*
G37*
G36*
G01*
X0001784448Y0003287401D02*
X0001784448Y0003257874D01*
G75*
G02*
X0001781988Y0003255413I-0000002460D01*
G01*
X0001777066Y0003255413D01*
G75*
G02*
X0001774606Y0003257874J0000002460D01*
G01*
X0001774606Y0003287401D01*
G75*
G02*
X0001777066Y0003289862I0000002460D01*
G01*
X0001781988Y0003289862D01*
G75*
G02*
X0001784448Y0003287401J-0000002460D01*
G01*
G37*
G36*
G01*
X0001764763Y0003287401D02*
X0001764763Y0003257874D01*
G75*
G02*
X0001762303Y0003255413I-0000002460D01*
G01*
X0001757381Y0003255413D01*
G75*
G02*
X0001754921Y0003257874J0000002460D01*
G01*
X0001754921Y0003287401D01*
G75*
G02*
X0001757381Y0003289862I0000002460D01*
G01*
X0001762303Y0003289862D01*
G75*
G02*
X0001764763Y0003287401J-0000002460D01*
G01*
G37*
G36*
G01*
X0001745078Y0003287401D02*
X0001745078Y0003257874D01*
G75*
G02*
X0001742618Y0003255413I-0000002460D01*
G01*
X0001737696Y0003255413D01*
G75*
G02*
X0001735236Y0003257874J0000002460D01*
G01*
X0001735236Y0003287401D01*
G75*
G02*
X0001737696Y0003289862I0000002460D01*
G01*
X0001742618Y0003289862D01*
G75*
G02*
X0001745078Y0003287401J-0000002460D01*
G01*
G37*
G36*
X0001722238Y0003260171D02*
G01*
X0001721906Y0003260272D01*
X0001721599Y0003260436D01*
X0001721331Y0003260656D01*
X0001716070Y0003265918D01*
X0001715849Y0003266186D01*
X0001715686Y0003266492D01*
X0001715585Y0003266825D01*
X0001715551Y0003267170D01*
X0001715551Y0003288090D01*
X0001715585Y0003288436D01*
X0001715686Y0003288768D01*
X0001715849Y0003289074D01*
X0001716070Y0003289343D01*
X0001716338Y0003289563D01*
X0001716644Y0003289727D01*
X0001716977Y0003289828D01*
X0001717322Y0003289862D01*
X0001723622Y0003289862D01*
X0001723967Y0003289828D01*
X0001724300Y0003289727D01*
X0001724606Y0003289563D01*
X0001724874Y0003289343D01*
X0001725095Y0003289074D01*
X0001725258Y0003288768D01*
X0001725359Y0003288436D01*
X0001725393Y0003288090D01*
X0001725393Y0003261909D01*
X0001725359Y0003261563D01*
X0001725258Y0003261231D01*
X0001725095Y0003260925D01*
X0001724874Y0003260656D01*
X0001724606Y0003260436D01*
X0001724300Y0003260272D01*
X0001723967Y0003260171D01*
X0001723622Y0003260137D01*
X0001722584Y0003260137D01*
X0001722238Y0003260171D01*
G37*
G36*
X0001687449Y0003250526D02*
G01*
X0001687117Y0003250626D01*
X0001686810Y0003250790D01*
X0001686542Y0003251011D01*
X0001686322Y0003251279D01*
X0001686158Y0003251585D01*
X0001686057Y0003251918D01*
X0001686023Y0003252263D01*
X0001686023Y0003258562D01*
X0001686057Y0003258908D01*
X0001686158Y0003259240D01*
X0001686322Y0003259547D01*
X0001686542Y0003259815D01*
X0001686810Y0003260036D01*
X0001687117Y0003260199D01*
X0001687449Y0003260300D01*
X0001687795Y0003260334D01*
X0001708714Y0003260334D01*
X0001709060Y0003260300D01*
X0001709392Y0003260199D01*
X0001709699Y0003260036D01*
X0001709967Y0003259815D01*
X0001715229Y0003254554D01*
X0001715449Y0003254285D01*
X0001715613Y0003253979D01*
X0001715713Y0003253647D01*
X0001715748Y0003253301D01*
X0001715748Y0003252263D01*
X0001715713Y0003251918D01*
X0001715613Y0003251585D01*
X0001715449Y0003251279D01*
X0001715229Y0003251011D01*
X0001714960Y0003250790D01*
X0001714654Y0003250626D01*
X0001714322Y0003250526D01*
X0001713976Y0003250492D01*
X0001687795Y0003250492D01*
X0001687449Y0003250526D01*
G37*
G36*
G01*
X0001720472Y0003238188D02*
X0001720472Y0003233267D01*
G75*
G02*
X0001718011Y0003230807I-0000002460D01*
G01*
X0001688484Y0003230807D01*
G75*
G02*
X0001686023Y0003233267J0000002460D01*
G01*
X0001686023Y0003238188D01*
G75*
G02*
X0001688484Y0003240649I0000002460D01*
G01*
X0001718011Y0003240649D01*
G75*
G02*
X0001720472Y0003238188J-0000002460D01*
G01*
G37*
G36*
G01*
X0001720472Y0003218503D02*
X0001720472Y0003213582D01*
G75*
G02*
X0001718011Y0003211122I-0000002460D01*
G01*
X0001688484Y0003211122D01*
G75*
G02*
X0001686023Y0003213582J0000002460D01*
G01*
X0001686023Y0003218503D01*
G75*
G02*
X0001688484Y0003220964I0000002460D01*
G01*
X0001718011Y0003220964D01*
G75*
G02*
X0001720472Y0003218503J-0000002460D01*
G01*
G37*
G36*
G01*
X0001720472Y0003198818D02*
X0001720472Y0003193897D01*
G75*
G02*
X0001718011Y0003191437I-0000002460D01*
G01*
X0001688484Y0003191437D01*
G75*
G02*
X0001686023Y0003193897J0000002460D01*
G01*
X0001686023Y0003198818D01*
G75*
G02*
X0001688484Y0003201279I0000002460D01*
G01*
X0001718011Y0003201279D01*
G75*
G02*
X0001720472Y0003198818J-0000002460D01*
G01*
G37*
G36*
G01*
X0001720472Y0003179133D02*
X0001720472Y0003174212D01*
G75*
G02*
X0001718011Y0003171751I-0000002460D01*
G01*
X0001688484Y0003171751D01*
G75*
G02*
X0001686023Y0003174212J0000002460D01*
G01*
X0001686023Y0003179133D01*
G75*
G02*
X0001688484Y0003181594I0000002460D01*
G01*
X0001718011Y0003181594D01*
G75*
G02*
X0001720472Y0003179133J-0000002460D01*
G01*
G37*
G36*
G01*
X0001720472Y0003159448D02*
X0001720472Y0003154527D01*
G75*
G02*
X0001718011Y0003152066I-0000002460D01*
G01*
X0001688484Y0003152066D01*
G75*
G02*
X0001686023Y0003154527J0000002460D01*
G01*
X0001686023Y0003159448D01*
G75*
G02*
X0001688484Y0003161909I0000002460D01*
G01*
X0001718011Y0003161909D01*
G75*
G02*
X0001720472Y0003159448J-0000002460D01*
G01*
G37*
G36*
X0001687449Y0003132415D02*
G01*
X0001687117Y0003132516D01*
X0001686810Y0003132680D01*
X0001686542Y0003132900D01*
X0001686322Y0003133169D01*
X0001686158Y0003133475D01*
X0001686057Y0003133807D01*
X0001686023Y0003134153D01*
X0001686023Y0003140452D01*
X0001686057Y0003140798D01*
X0001686158Y0003141130D01*
X0001686322Y0003141437D01*
X0001686542Y0003141705D01*
X0001686810Y0003141925D01*
X0001687117Y0003142089D01*
X0001687449Y0003142190D01*
X0001687795Y0003142224D01*
X0001713976Y0003142224D01*
X0001714322Y0003142190D01*
X0001714654Y0003142089D01*
X0001714960Y0003141925D01*
X0001715229Y0003141705D01*
X0001715449Y0003141437D01*
X0001715613Y0003141130D01*
X0001715713Y0003140798D01*
X0001715748Y0003140452D01*
X0001715748Y0003139414D01*
X0001715713Y0003139069D01*
X0001715613Y0003138736D01*
X0001715449Y0003138430D01*
X0001715229Y0003138162D01*
X0001709967Y0003132900D01*
X0001709699Y0003132680D01*
X0001709392Y0003132516D01*
X0001709060Y0003132415D01*
X0001708714Y0003132381D01*
X0001687795Y0003132381D01*
X0001687449Y0003132415D01*
G37*
G36*
X0001716977Y0003102888D02*
G01*
X0001716644Y0003102989D01*
X0001716338Y0003103152D01*
X0001716070Y0003103373D01*
X0001715849Y0003103641D01*
X0001715686Y0003103947D01*
X0001715585Y0003104280D01*
X0001715551Y0003104625D01*
X0001715551Y0003125545D01*
X0001715585Y0003125891D01*
X0001715686Y0003126223D01*
X0001715849Y0003126529D01*
X0001716070Y0003126798D01*
X0001721331Y0003132059D01*
X0001721599Y0003132280D01*
X0001721906Y0003132443D01*
X0001722238Y0003132544D01*
X0001722584Y0003132578D01*
X0001723622Y0003132578D01*
X0001723967Y0003132544D01*
X0001724300Y0003132443D01*
X0001724606Y0003132280D01*
X0001724874Y0003132059D01*
X0001725095Y0003131791D01*
X0001725258Y0003131485D01*
X0001725359Y0003131152D01*
X0001725393Y0003130807D01*
X0001725393Y0003104625D01*
X0001725359Y0003104280D01*
X0001725258Y0003103947D01*
X0001725095Y0003103641D01*
X0001724874Y0003103373D01*
X0001724606Y0003103152D01*
X0001724300Y0003102989D01*
X0001723967Y0003102888D01*
X0001723622Y0003102854D01*
X0001717322Y0003102854D01*
X0001716977Y0003102888D01*
G37*
G36*
G01*
X0001745078Y0003134842D02*
X0001745078Y0003105314D01*
G75*
G02*
X0001742618Y0003102854I-0000002460D01*
G01*
X0001737696Y0003102854D01*
G75*
G02*
X0001735236Y0003105314J0000002460D01*
G01*
X0001735236Y0003134842D01*
G75*
G02*
X0001737696Y0003137303I0000002460D01*
G01*
X0001742618Y0003137303D01*
G75*
G02*
X0001745078Y0003134842J-0000002460D01*
G01*
G37*
G36*
G01*
X0001764763Y0003134842D02*
X0001764763Y0003105314D01*
G75*
G02*
X0001762303Y0003102854I-0000002460D01*
G01*
X0001757381Y0003102854D01*
G75*
G02*
X0001754921Y0003105314J0000002460D01*
G01*
X0001754921Y0003134842D01*
G75*
G02*
X0001757381Y0003137303I0000002460D01*
G01*
X0001762303Y0003137303D01*
G75*
G02*
X0001764763Y0003134842J-0000002460D01*
G01*
G37*
G36*
G01*
X0001784448Y0003134842D02*
X0001784448Y0003105314D01*
G75*
G02*
X0001781988Y0003102854I-0000002460D01*
G01*
X0001777066Y0003102854D01*
G75*
G02*
X0001774606Y0003105314J0000002460D01*
G01*
X0001774606Y0003134842D01*
G75*
G02*
X0001777066Y0003137303I0000002460D01*
G01*
X0001781988Y0003137303D01*
G75*
G02*
X0001784448Y0003134842J-0000002460D01*
G01*
G37*
G36*
G01*
X0001804133Y0003134842D02*
X0001804133Y0003105314D01*
G75*
G02*
X0001801673Y0003102854I-0000002460D01*
G01*
X0001796751Y0003102854D01*
G75*
G02*
X0001794291Y0003105314J0000002460D01*
G01*
X0001794291Y0003134842D01*
G75*
G02*
X0001796751Y0003137303I0000002460D01*
G01*
X0001801673Y0003137303D01*
G75*
G02*
X0001804133Y0003134842J-0000002460D01*
G01*
G37*
G36*
G01*
X0001823818Y0003134842D02*
X0001823818Y0003105314D01*
G75*
G02*
X0001821358Y0003102854I-0000002460D01*
G01*
X0001816437Y0003102854D01*
G75*
G02*
X0001813976Y0003105314J0000002460D01*
G01*
X0001813976Y0003134842D01*
G75*
G02*
X0001816437Y0003137303I0000002460D01*
G01*
X0001821358Y0003137303D01*
G75*
G02*
X0001823818Y0003134842J-0000002460D01*
G01*
G37*
G36*
X0001835087Y0003102888D02*
G01*
X0001834755Y0003102989D01*
X0001834448Y0003103152D01*
X0001834180Y0003103373D01*
X0001833960Y0003103641D01*
X0001833796Y0003103947D01*
X0001833695Y0003104280D01*
X0001833661Y0003104625D01*
X0001833661Y0003130807D01*
X0001833695Y0003131152D01*
X0001833796Y0003131485D01*
X0001833960Y0003131791D01*
X0001834180Y0003132059D01*
X0001834448Y0003132280D01*
X0001834755Y0003132443D01*
X0001835087Y0003132544D01*
X0001835433Y0003132578D01*
X0001836470Y0003132578D01*
X0001836816Y0003132544D01*
X0001837148Y0003132443D01*
X0001837455Y0003132280D01*
X0001837723Y0003132059D01*
X0001842985Y0003126798D01*
X0001843205Y0003126529D01*
X0001843369Y0003126223D01*
X0001843469Y0003125891D01*
X0001843503Y0003125545D01*
X0001843503Y0003104625D01*
X0001843469Y0003104280D01*
X0001843369Y0003103947D01*
X0001843205Y0003103641D01*
X0001842985Y0003103373D01*
X0001842716Y0003103152D01*
X0001842410Y0003102989D01*
X0001842077Y0003102888D01*
X0001841732Y0003102854D01*
X0001835433Y0003102854D01*
X0001835087Y0003102888D01*
G37*
G04 next file*
G04 Gerber Fmt 4.6, Leading zero omitted, Abs format (unit mm)*
G04 Created by KiCad (PCBNEW (5.1.8)-1) date 2020-11-23 23:28:54*
G01*
G04 APERTURE LIST*
G04 APERTURE END LIST*
G36*
G01*
X0003366633Y0002863927D02*
X0003366633Y0002884104D01*
G75*
G02*
X0003375246Y0002892716I0000008612D01*
G01*
X0003392470Y0002892716D01*
G75*
G02*
X0003401082Y0002884104J-0000008612D01*
G01*
X0003401082Y0002863927D01*
G75*
G02*
X0003392470Y0002855314I-0000008612D01*
G01*
X0003375246Y0002855314D01*
G75*
G02*
X0003366633Y0002863927J0000008612D01*
G01*
G37*
G36*
G01*
X0003428641Y0002863927D02*
X0003428641Y0002884104D01*
G75*
G02*
X0003437253Y0002892716I0000008612D01*
G01*
X0003454478Y0002892716D01*
G75*
G02*
X0003463090Y0002884104J-0000008612D01*
G01*
X0003463090Y0002863927D01*
G75*
G02*
X0003454478Y0002855314I-0000008612D01*
G01*
X0003437253Y0002855314D01*
G75*
G02*
X0003428641Y0002863927J0000008612D01*
G01*
G37*
D68*
X0003452755Y0003198818D03*
X0003490157Y0003120078D03*
X0003415354Y0003120078D03*
X0003071850Y0003248031D03*
X0003146653Y0003248031D03*
X0003109252Y0003326771D03*
G36*
G01*
X0003365157Y0003111220D02*
X0003343503Y0003111220D01*
G75*
G02*
X0003335629Y0003119094J0000007874D01*
G01*
X0003335629Y0003134842D01*
G75*
G02*
X0003343503Y0003142716I0000007874D01*
G01*
X0003365157Y0003142716D01*
G75*
G02*
X0003373031Y0003134842J-0000007874D01*
G01*
X0003373031Y0003119094D01*
G75*
G02*
X0003365157Y0003111220I-0000007874D01*
G01*
G37*
G36*
G01*
X0003365157Y0003176181D02*
X0003343503Y0003176181D01*
G75*
G02*
X0003335629Y0003184055J0000007874D01*
G01*
X0003335629Y0003199803D01*
G75*
G02*
X0003343503Y0003207677I0000007874D01*
G01*
X0003365157Y0003207677D01*
G75*
G02*
X0003373031Y0003199803J-0000007874D01*
G01*
X0003373031Y0003184055D01*
G75*
G02*
X0003365157Y0003176181I-0000007874D01*
G01*
G37*
G36*
G01*
X0003020669Y0003294291D02*
X0002999015Y0003294291D01*
G75*
G02*
X0002991141Y0003302165J0000007874D01*
G01*
X0002991141Y0003317913D01*
G75*
G02*
X0002999015Y0003325787I0000007874D01*
G01*
X0003020669Y0003325787D01*
G75*
G02*
X0003028543Y0003317913J-0000007874D01*
G01*
X0003028543Y0003302165D01*
G75*
G02*
X0003020669Y0003294291I-0000007874D01*
G01*
G37*
G36*
G01*
X0003020669Y0003229330D02*
X0002999015Y0003229330D01*
G75*
G02*
X0002991141Y0003237204J0000007874D01*
G01*
X0002991141Y0003252952D01*
G75*
G02*
X0002999015Y0003260826I0000007874D01*
G01*
X0003020669Y0003260826D01*
G75*
G02*
X0003028543Y0003252952J-0000007874D01*
G01*
X0003028543Y0003237204D01*
G75*
G02*
X0003020669Y0003229330I-0000007874D01*
G01*
G37*
G36*
G01*
X0003190944Y0003286417D02*
X0003190944Y0003308070D01*
G75*
G02*
X0003198818Y0003315944I0000007874D01*
G01*
X0003214566Y0003315944D01*
G75*
G02*
X0003222440Y0003308070J-0000007874D01*
G01*
X0003222440Y0003286417D01*
G75*
G02*
X0003214566Y0003278543I-0000007874D01*
G01*
X0003198818Y0003278543D01*
G75*
G02*
X0003190944Y0003286417J0000007874D01*
G01*
G37*
G36*
G01*
X0003255905Y0003286417D02*
X0003255905Y0003308070D01*
G75*
G02*
X0003263779Y0003315944I0000007874D01*
G01*
X0003279527Y0003315944D01*
G75*
G02*
X0003287401Y0003308070J-0000007874D01*
G01*
X0003287401Y0003286417D01*
G75*
G02*
X0003279527Y0003278543I-0000007874D01*
G01*
X0003263779Y0003278543D01*
G75*
G02*
X0003255905Y0003286417J0000007874D01*
G01*
G37*
D69*
X0002831692Y0002856299D03*
X0002806102Y0002856299D03*
X0002780511Y0002856299D03*
X0002754921Y0002856299D03*
X0002754921Y0002734251D03*
X0002780511Y0002734251D03*
X0002806102Y0002734251D03*
X0002831692Y0002734251D03*
D70*
X0002769685Y0002810531D03*
X0002769685Y0002780019D03*
X0002816929Y0002780019D03*
X0002816929Y0002810531D03*
D71*
X0003212598Y0003226377D03*
X0003212598Y0003188976D03*
X0003212598Y0003151574D03*
X0003299212Y0003151574D03*
X0003299212Y0003226377D03*
D72*
X0003356299Y0002818897D03*
X0003431102Y0002818897D03*
X0003431102Y0002732283D03*
X0003393700Y0002732283D03*
X0003356299Y0002732283D03*
D73*
G36*
X0002912986Y0003132415D02*
G01*
X0002912654Y0003132516D01*
X0002912347Y0003132680D01*
X0002912079Y0003132900D01*
X0002906818Y0003138162D01*
X0002906597Y0003138430D01*
X0002906434Y0003138736D01*
X0002906333Y0003139069D01*
X0002906299Y0003139414D01*
X0002906299Y0003140452D01*
X0002906333Y0003140798D01*
X0002906434Y0003141130D01*
X0002906597Y0003141437D01*
X0002906818Y0003141705D01*
X0002907086Y0003141925D01*
X0002907392Y0003142089D01*
X0002907725Y0003142190D01*
X0002908070Y0003142224D01*
X0002934251Y0003142224D01*
X0002934597Y0003142190D01*
X0002934929Y0003142089D01*
X0002935236Y0003141925D01*
X0002935504Y0003141705D01*
X0002935725Y0003141437D01*
X0002935888Y0003141130D01*
X0002935989Y0003140798D01*
X0002936023Y0003140452D01*
X0002936023Y0003134153D01*
X0002935989Y0003133807D01*
X0002935888Y0003133475D01*
X0002935725Y0003133169D01*
X0002935504Y0003132900D01*
X0002935236Y0003132680D01*
X0002934929Y0003132516D01*
X0002934597Y0003132415D01*
X0002934251Y0003132381D01*
X0002913332Y0003132381D01*
X0002912986Y0003132415D01*
G37*
G36*
G01*
X0002936023Y0003159448D02*
X0002936023Y0003154527D01*
G75*
G02*
X0002933562Y0003152066I-0000002460D01*
G01*
X0002904035Y0003152066D01*
G75*
G02*
X0002901574Y0003154527J0000002460D01*
G01*
X0002901574Y0003159448D01*
G75*
G02*
X0002904035Y0003161909I0000002460D01*
G01*
X0002933562Y0003161909D01*
G75*
G02*
X0002936023Y0003159448J-0000002460D01*
G01*
G37*
G36*
G01*
X0002936023Y0003179133D02*
X0002936023Y0003174212D01*
G75*
G02*
X0002933562Y0003171751I-0000002460D01*
G01*
X0002904035Y0003171751D01*
G75*
G02*
X0002901574Y0003174212J0000002460D01*
G01*
X0002901574Y0003179133D01*
G75*
G02*
X0002904035Y0003181594I0000002460D01*
G01*
X0002933562Y0003181594D01*
G75*
G02*
X0002936023Y0003179133J-0000002460D01*
G01*
G37*
G36*
G01*
X0002936023Y0003198818D02*
X0002936023Y0003193897D01*
G75*
G02*
X0002933562Y0003191437I-0000002460D01*
G01*
X0002904035Y0003191437D01*
G75*
G02*
X0002901574Y0003193897J0000002460D01*
G01*
X0002901574Y0003198818D01*
G75*
G02*
X0002904035Y0003201279I0000002460D01*
G01*
X0002933562Y0003201279D01*
G75*
G02*
X0002936023Y0003198818J-0000002460D01*
G01*
G37*
G36*
G01*
X0002936023Y0003218503D02*
X0002936023Y0003213582D01*
G75*
G02*
X0002933562Y0003211122I-0000002460D01*
G01*
X0002904035Y0003211122D01*
G75*
G02*
X0002901574Y0003213582J0000002460D01*
G01*
X0002901574Y0003218503D01*
G75*
G02*
X0002904035Y0003220964I0000002460D01*
G01*
X0002933562Y0003220964D01*
G75*
G02*
X0002936023Y0003218503J-0000002460D01*
G01*
G37*
G36*
G01*
X0002936023Y0003238188D02*
X0002936023Y0003233267D01*
G75*
G02*
X0002933562Y0003230807I-0000002460D01*
G01*
X0002904035Y0003230807D01*
G75*
G02*
X0002901574Y0003233267J0000002460D01*
G01*
X0002901574Y0003238188D01*
G75*
G02*
X0002904035Y0003240649I0000002460D01*
G01*
X0002933562Y0003240649D01*
G75*
G02*
X0002936023Y0003238188J-0000002460D01*
G01*
G37*
G36*
X0002907725Y0003250526D02*
G01*
X0002907392Y0003250626D01*
X0002907086Y0003250790D01*
X0002906818Y0003251011D01*
X0002906597Y0003251279D01*
X0002906434Y0003251585D01*
X0002906333Y0003251918D01*
X0002906299Y0003252263D01*
X0002906299Y0003253301D01*
X0002906333Y0003253647D01*
X0002906434Y0003253979D01*
X0002906597Y0003254285D01*
X0002906818Y0003254554D01*
X0002912079Y0003259815D01*
X0002912347Y0003260036D01*
X0002912654Y0003260199D01*
X0002912986Y0003260300D01*
X0002913332Y0003260334D01*
X0002934251Y0003260334D01*
X0002934597Y0003260300D01*
X0002934929Y0003260199D01*
X0002935236Y0003260036D01*
X0002935504Y0003259815D01*
X0002935725Y0003259547D01*
X0002935888Y0003259240D01*
X0002935989Y0003258908D01*
X0002936023Y0003258562D01*
X0002936023Y0003252263D01*
X0002935989Y0003251918D01*
X0002935888Y0003251585D01*
X0002935725Y0003251279D01*
X0002935504Y0003251011D01*
X0002935236Y0003250790D01*
X0002934929Y0003250626D01*
X0002934597Y0003250526D01*
X0002934251Y0003250492D01*
X0002908070Y0003250492D01*
X0002907725Y0003250526D01*
G37*
G36*
X0002898079Y0003260171D02*
G01*
X0002897747Y0003260272D01*
X0002897440Y0003260436D01*
X0002897172Y0003260656D01*
X0002896952Y0003260925D01*
X0002896788Y0003261231D01*
X0002896687Y0003261563D01*
X0002896653Y0003261909D01*
X0002896653Y0003288090D01*
X0002896687Y0003288436D01*
X0002896788Y0003288768D01*
X0002896952Y0003289074D01*
X0002897172Y0003289343D01*
X0002897440Y0003289563D01*
X0002897747Y0003289727D01*
X0002898079Y0003289828D01*
X0002898425Y0003289862D01*
X0002904724Y0003289862D01*
X0002905070Y0003289828D01*
X0002905402Y0003289727D01*
X0002905708Y0003289563D01*
X0002905977Y0003289343D01*
X0002906197Y0003289074D01*
X0002906361Y0003288768D01*
X0002906462Y0003288436D01*
X0002906496Y0003288090D01*
X0002906496Y0003267170D01*
X0002906462Y0003266825D01*
X0002906361Y0003266492D01*
X0002906197Y0003266186D01*
X0002905977Y0003265918D01*
X0002900715Y0003260656D01*
X0002900447Y0003260436D01*
X0002900140Y0003260272D01*
X0002899808Y0003260171D01*
X0002899462Y0003260137D01*
X0002898425Y0003260137D01*
X0002898079Y0003260171D01*
G37*
G36*
G01*
X0002886811Y0003287401D02*
X0002886811Y0003257874D01*
G75*
G02*
X0002884350Y0003255413I-0000002460D01*
G01*
X0002879429Y0003255413D01*
G75*
G02*
X0002876968Y0003257874J0000002460D01*
G01*
X0002876968Y0003287401D01*
G75*
G02*
X0002879429Y0003289862I0000002460D01*
G01*
X0002884350Y0003289862D01*
G75*
G02*
X0002886811Y0003287401J-0000002460D01*
G01*
G37*
G36*
G01*
X0002867125Y0003287401D02*
X0002867125Y0003257874D01*
G75*
G02*
X0002864665Y0003255413I-0000002460D01*
G01*
X0002859744Y0003255413D01*
G75*
G02*
X0002857283Y0003257874J0000002460D01*
G01*
X0002857283Y0003287401D01*
G75*
G02*
X0002859744Y0003289862I0000002460D01*
G01*
X0002864665Y0003289862D01*
G75*
G02*
X0002867125Y0003287401J-0000002460D01*
G01*
G37*
G36*
G01*
X0002847440Y0003287401D02*
X0002847440Y0003257874D01*
G75*
G02*
X0002844980Y0003255413I-0000002460D01*
G01*
X0002840059Y0003255413D01*
G75*
G02*
X0002837598Y0003257874J0000002460D01*
G01*
X0002837598Y0003287401D01*
G75*
G02*
X0002840059Y0003289862I0000002460D01*
G01*
X0002844980Y0003289862D01*
G75*
G02*
X0002847440Y0003287401J-0000002460D01*
G01*
G37*
G36*
G01*
X0002827755Y0003287401D02*
X0002827755Y0003257874D01*
G75*
G02*
X0002825295Y0003255413I-0000002460D01*
G01*
X0002820374Y0003255413D01*
G75*
G02*
X0002817913Y0003257874J0000002460D01*
G01*
X0002817913Y0003287401D01*
G75*
G02*
X0002820374Y0003289862I0000002460D01*
G01*
X0002825295Y0003289862D01*
G75*
G02*
X0002827755Y0003287401J-0000002460D01*
G01*
G37*
G36*
G01*
X0002808070Y0003287401D02*
X0002808070Y0003257874D01*
G75*
G02*
X0002805610Y0003255413I-0000002460D01*
G01*
X0002800688Y0003255413D01*
G75*
G02*
X0002798228Y0003257874J0000002460D01*
G01*
X0002798228Y0003287401D01*
G75*
G02*
X0002800688Y0003289862I0000002460D01*
G01*
X0002805610Y0003289862D01*
G75*
G02*
X0002808070Y0003287401J-0000002460D01*
G01*
G37*
G36*
X0002785230Y0003260171D02*
G01*
X0002784898Y0003260272D01*
X0002784592Y0003260436D01*
X0002784323Y0003260656D01*
X0002779062Y0003265918D01*
X0002778841Y0003266186D01*
X0002778678Y0003266492D01*
X0002778577Y0003266825D01*
X0002778543Y0003267170D01*
X0002778543Y0003288090D01*
X0002778577Y0003288436D01*
X0002778678Y0003288768D01*
X0002778841Y0003289074D01*
X0002779062Y0003289343D01*
X0002779330Y0003289563D01*
X0002779636Y0003289727D01*
X0002779969Y0003289828D01*
X0002780314Y0003289862D01*
X0002786614Y0003289862D01*
X0002786959Y0003289828D01*
X0002787292Y0003289727D01*
X0002787598Y0003289563D01*
X0002787866Y0003289343D01*
X0002788087Y0003289074D01*
X0002788250Y0003288768D01*
X0002788351Y0003288436D01*
X0002788385Y0003288090D01*
X0002788385Y0003261909D01*
X0002788351Y0003261563D01*
X0002788250Y0003261231D01*
X0002788087Y0003260925D01*
X0002787866Y0003260656D01*
X0002787598Y0003260436D01*
X0002787292Y0003260272D01*
X0002786959Y0003260171D01*
X0002786614Y0003260137D01*
X0002785576Y0003260137D01*
X0002785230Y0003260171D01*
G37*
G36*
X0002750441Y0003250526D02*
G01*
X0002750109Y0003250626D01*
X0002749803Y0003250790D01*
X0002749534Y0003251011D01*
X0002749314Y0003251279D01*
X0002749150Y0003251585D01*
X0002749049Y0003251918D01*
X0002749015Y0003252263D01*
X0002749015Y0003258562D01*
X0002749049Y0003258908D01*
X0002749150Y0003259240D01*
X0002749314Y0003259547D01*
X0002749534Y0003259815D01*
X0002749803Y0003260036D01*
X0002750109Y0003260199D01*
X0002750441Y0003260300D01*
X0002750787Y0003260334D01*
X0002771707Y0003260334D01*
X0002772052Y0003260300D01*
X0002772385Y0003260199D01*
X0002772691Y0003260036D01*
X0002772959Y0003259815D01*
X0002778221Y0003254554D01*
X0002778441Y0003254285D01*
X0002778605Y0003253979D01*
X0002778706Y0003253647D01*
X0002778740Y0003253301D01*
X0002778740Y0003252263D01*
X0002778706Y0003251918D01*
X0002778605Y0003251585D01*
X0002778441Y0003251279D01*
X0002778221Y0003251011D01*
X0002777952Y0003250790D01*
X0002777646Y0003250626D01*
X0002777314Y0003250526D01*
X0002776968Y0003250492D01*
X0002750787Y0003250492D01*
X0002750441Y0003250526D01*
G37*
G36*
G01*
X0002783464Y0003238188D02*
X0002783464Y0003233267D01*
G75*
G02*
X0002781003Y0003230807I-0000002460D01*
G01*
X0002751476Y0003230807D01*
G75*
G02*
X0002749015Y0003233267J0000002460D01*
G01*
X0002749015Y0003238188D01*
G75*
G02*
X0002751476Y0003240649I0000002460D01*
G01*
X0002781003Y0003240649D01*
G75*
G02*
X0002783464Y0003238188J-0000002460D01*
G01*
G37*
G36*
G01*
X0002783464Y0003218503D02*
X0002783464Y0003213582D01*
G75*
G02*
X0002781003Y0003211122I-0000002460D01*
G01*
X0002751476Y0003211122D01*
G75*
G02*
X0002749015Y0003213582J0000002460D01*
G01*
X0002749015Y0003218503D01*
G75*
G02*
X0002751476Y0003220964I0000002460D01*
G01*
X0002781003Y0003220964D01*
G75*
G02*
X0002783464Y0003218503J-0000002460D01*
G01*
G37*
G36*
G01*
X0002783464Y0003198818D02*
X0002783464Y0003193897D01*
G75*
G02*
X0002781003Y0003191437I-0000002460D01*
G01*
X0002751476Y0003191437D01*
G75*
G02*
X0002749015Y0003193897J0000002460D01*
G01*
X0002749015Y0003198818D01*
G75*
G02*
X0002751476Y0003201279I0000002460D01*
G01*
X0002781003Y0003201279D01*
G75*
G02*
X0002783464Y0003198818J-0000002460D01*
G01*
G37*
G36*
G01*
X0002783464Y0003179133D02*
X0002783464Y0003174212D01*
G75*
G02*
X0002781003Y0003171751I-0000002460D01*
G01*
X0002751476Y0003171751D01*
G75*
G02*
X0002749015Y0003174212J0000002460D01*
G01*
X0002749015Y0003179133D01*
G75*
G02*
X0002751476Y0003181594I0000002460D01*
G01*
X0002781003Y0003181594D01*
G75*
G02*
X0002783464Y0003179133J-0000002460D01*
G01*
G37*
G36*
G01*
X0002783464Y0003159448D02*
X0002783464Y0003154527D01*
G75*
G02*
X0002781003Y0003152066I-0000002460D01*
G01*
X0002751476Y0003152066D01*
G75*
G02*
X0002749015Y0003154527J0000002460D01*
G01*
X0002749015Y0003159448D01*
G75*
G02*
X0002751476Y0003161909I0000002460D01*
G01*
X0002781003Y0003161909D01*
G75*
G02*
X0002783464Y0003159448J-0000002460D01*
G01*
G37*
G36*
X0002750441Y0003132415D02*
G01*
X0002750109Y0003132516D01*
X0002749803Y0003132680D01*
X0002749534Y0003132900D01*
X0002749314Y0003133169D01*
X0002749150Y0003133475D01*
X0002749049Y0003133807D01*
X0002749015Y0003134153D01*
X0002749015Y0003140452D01*
X0002749049Y0003140798D01*
X0002749150Y0003141130D01*
X0002749314Y0003141437D01*
X0002749534Y0003141705D01*
X0002749803Y0003141925D01*
X0002750109Y0003142089D01*
X0002750441Y0003142190D01*
X0002750787Y0003142224D01*
X0002776968Y0003142224D01*
X0002777314Y0003142190D01*
X0002777646Y0003142089D01*
X0002777952Y0003141925D01*
X0002778221Y0003141705D01*
X0002778441Y0003141437D01*
X0002778605Y0003141130D01*
X0002778706Y0003140798D01*
X0002778740Y0003140452D01*
X0002778740Y0003139414D01*
X0002778706Y0003139069D01*
X0002778605Y0003138736D01*
X0002778441Y0003138430D01*
X0002778221Y0003138162D01*
X0002772959Y0003132900D01*
X0002772691Y0003132680D01*
X0002772385Y0003132516D01*
X0002772052Y0003132415D01*
X0002771707Y0003132381D01*
X0002750787Y0003132381D01*
X0002750441Y0003132415D01*
G37*
G36*
X0002779969Y0003102888D02*
G01*
X0002779636Y0003102989D01*
X0002779330Y0003103152D01*
X0002779062Y0003103373D01*
X0002778841Y0003103641D01*
X0002778678Y0003103947D01*
X0002778577Y0003104280D01*
X0002778543Y0003104625D01*
X0002778543Y0003125545D01*
X0002778577Y0003125891D01*
X0002778678Y0003126223D01*
X0002778841Y0003126529D01*
X0002779062Y0003126798D01*
X0002784323Y0003132059D01*
X0002784592Y0003132280D01*
X0002784898Y0003132443D01*
X0002785230Y0003132544D01*
X0002785576Y0003132578D01*
X0002786614Y0003132578D01*
X0002786959Y0003132544D01*
X0002787292Y0003132443D01*
X0002787598Y0003132280D01*
X0002787866Y0003132059D01*
X0002788087Y0003131791D01*
X0002788250Y0003131485D01*
X0002788351Y0003131152D01*
X0002788385Y0003130807D01*
X0002788385Y0003104625D01*
X0002788351Y0003104280D01*
X0002788250Y0003103947D01*
X0002788087Y0003103641D01*
X0002787866Y0003103373D01*
X0002787598Y0003103152D01*
X0002787292Y0003102989D01*
X0002786959Y0003102888D01*
X0002786614Y0003102854D01*
X0002780314Y0003102854D01*
X0002779969Y0003102888D01*
G37*
G36*
G01*
X0002808070Y0003134842D02*
X0002808070Y0003105314D01*
G75*
G02*
X0002805610Y0003102854I-0000002460D01*
G01*
X0002800688Y0003102854D01*
G75*
G02*
X0002798228Y0003105314J0000002460D01*
G01*
X0002798228Y0003134842D01*
G75*
G02*
X0002800688Y0003137303I0000002460D01*
G01*
X0002805610Y0003137303D01*
G75*
G02*
X0002808070Y0003134842J-0000002460D01*
G01*
G37*
G36*
G01*
X0002827755Y0003134842D02*
X0002827755Y0003105314D01*
G75*
G02*
X0002825295Y0003102854I-0000002460D01*
G01*
X0002820374Y0003102854D01*
G75*
G02*
X0002817913Y0003105314J0000002460D01*
G01*
X0002817913Y0003134842D01*
G75*
G02*
X0002820374Y0003137303I0000002460D01*
G01*
X0002825295Y0003137303D01*
G75*
G02*
X0002827755Y0003134842J-0000002460D01*
G01*
G37*
G36*
G01*
X0002847440Y0003134842D02*
X0002847440Y0003105314D01*
G75*
G02*
X0002844980Y0003102854I-0000002460D01*
G01*
X0002840059Y0003102854D01*
G75*
G02*
X0002837598Y0003105314J0000002460D01*
G01*
X0002837598Y0003134842D01*
G75*
G02*
X0002840059Y0003137303I0000002460D01*
G01*
X0002844980Y0003137303D01*
G75*
G02*
X0002847440Y0003134842J-0000002460D01*
G01*
G37*
G36*
G01*
X0002867125Y0003134842D02*
X0002867125Y0003105314D01*
G75*
G02*
X0002864665Y0003102854I-0000002460D01*
G01*
X0002859744Y0003102854D01*
G75*
G02*
X0002857283Y0003105314J0000002460D01*
G01*
X0002857283Y0003134842D01*
G75*
G02*
X0002859744Y0003137303I0000002460D01*
G01*
X0002864665Y0003137303D01*
G75*
G02*
X0002867125Y0003134842J-0000002460D01*
G01*
G37*
G36*
G01*
X0002886811Y0003134842D02*
X0002886811Y0003105314D01*
G75*
G02*
X0002884350Y0003102854I-0000002460D01*
G01*
X0002879429Y0003102854D01*
G75*
G02*
X0002876968Y0003105314J0000002460D01*
G01*
X0002876968Y0003134842D01*
G75*
G02*
X0002879429Y0003137303I0000002460D01*
G01*
X0002884350Y0003137303D01*
G75*
G02*
X0002886811Y0003134842J-0000002460D01*
G01*
G37*
G36*
X0002898079Y0003102888D02*
G01*
X0002897747Y0003102989D01*
X0002897440Y0003103152D01*
X0002897172Y0003103373D01*
X0002896952Y0003103641D01*
X0002896788Y0003103947D01*
X0002896687Y0003104280D01*
X0002896653Y0003104625D01*
X0002896653Y0003130807D01*
X0002896687Y0003131152D01*
X0002896788Y0003131485D01*
X0002896952Y0003131791D01*
X0002897172Y0003132059D01*
X0002897440Y0003132280D01*
X0002897747Y0003132443D01*
X0002898079Y0003132544D01*
X0002898425Y0003132578D01*
X0002899462Y0003132578D01*
X0002899808Y0003132544D01*
X0002900140Y0003132443D01*
X0002900447Y0003132280D01*
X0002900715Y0003132059D01*
X0002905977Y0003126798D01*
X0002906197Y0003126529D01*
X0002906361Y0003126223D01*
X0002906462Y0003125891D01*
X0002906496Y0003125545D01*
X0002906496Y0003104625D01*
X0002906462Y0003104280D01*
X0002906361Y0003103947D01*
X0002906197Y0003103641D01*
X0002905977Y0003103373D01*
X0002905708Y0003103152D01*
X0002905402Y0003102989D01*
X0002905070Y0003102888D01*
X0002904724Y0003102854D01*
X0002898425Y0003102854D01*
X0002898079Y0003102888D01*
G37*
M02*