%TF.GenerationSoftware,KiCad,Pcbnew,(5.1.8)-1*%
%TF.CreationDate,2020-11-23T23:28:54+01:00*%
%TF.ProjectId,KLinPump_PCB,4b4c696e-5075-46d7-905f-5043422e6b69,rev?*%
%TF.SameCoordinates,PX6a9eec0PY52f83c0*%
%TF.FileFunction,Copper,L2,Bot*%
%TF.FilePolarity,Positive*%
%FSLAX46Y46*%
G04 Gerber Fmt 4.6, Leading zero omitted, Abs format (unit mm)*
G04 Created by KiCad (PCBNEW (5.1.8)-1) date 2020-11-23 23:28:54*
%MOMM*%
%LPD*%
G01*
G04 APERTURE LIST*
%TA.AperFunction,ComponentPad*%
%ADD10O,1.000000X1.000000*%
%TD*%
%TA.AperFunction,ComponentPad*%
%ADD11R,1.000000X1.000000*%
%TD*%
%TA.AperFunction,ComponentPad*%
%ADD12O,0.800000X1.300000*%
%TD*%
%TA.AperFunction,ComponentPad*%
%ADD13C,4.400000*%
%TD*%
%TA.AperFunction,ComponentPad*%
%ADD14O,1.700000X1.850000*%
%TD*%
%TA.AperFunction,SMDPad,CuDef*%
%ADD15R,0.900000X1.200000*%
%TD*%
%TA.AperFunction,ViaPad*%
%ADD16C,0.600000*%
%TD*%
%TA.AperFunction,Conductor*%
%ADD17C,0.200000*%
%TD*%
%TA.AperFunction,Conductor*%
%ADD18C,0.150000*%
%TD*%
%TA.AperFunction,Conductor*%
%ADD19C,0.400000*%
%TD*%
%TA.AperFunction,Conductor*%
%ADD20C,0.600000*%
%TD*%
%TA.AperFunction,Conductor*%
%ADD21C,0.254000*%
%TD*%
%TA.AperFunction,Conductor*%
%ADD22C,0.100000*%
%TD*%
G04 APERTURE END LIST*
D10*
%TO.P,SWD1,5*%
%TO.N,GND*%
X15240000Y-2500000D03*
%TO.P,SWD1,4*%
%TO.N,SWDIO*%
X13970000Y-2500000D03*
%TO.P,SWD1,3*%
%TO.N,SWCLK*%
X12700000Y-2500000D03*
%TO.P,SWD1,2*%
%TO.N,RST*%
X11430000Y-2500000D03*
D11*
%TO.P,SWD1,1*%
%TO.N,+3V3*%
X10160000Y-2500000D03*
%TD*%
%TO.P,VALVE1,1*%
%TO.N,VCC*%
%TA.AperFunction,ComponentPad*%
G36*
G01*
X12600000Y-8800000D02*
X12600000Y-9700000D01*
G75*
G02*
X12400000Y-9900000I-200000J0D01*
G01*
X12000000Y-9900000D01*
G75*
G02*
X11800000Y-9700000I0J200000D01*
G01*
X11800000Y-8800000D01*
G75*
G02*
X12000000Y-8600000I200000J0D01*
G01*
X12400000Y-8600000D01*
G75*
G02*
X12600000Y-8800000I0J-200000D01*
G01*
G37*
%TD.AperFunction*%
D12*
%TO.P,VALVE1,2*%
%TO.N,/VALVE_GND*%
X10950000Y-9250000D03*
%TD*%
%TO.P,R3,1*%
%TO.N,VCC*%
%TA.AperFunction,SMDPad,CuDef*%
G36*
G01*
X18225000Y-9474999D02*
X18225000Y-10725001D01*
G75*
G02*
X17975001Y-10975000I-249999J0D01*
G01*
X17349999Y-10975000D01*
G75*
G02*
X17100000Y-10725001I0J249999D01*
G01*
X17100000Y-9474999D01*
G75*
G02*
X17349999Y-9225000I249999J0D01*
G01*
X17975001Y-9225000D01*
G75*
G02*
X18225000Y-9474999I0J-249999D01*
G01*
G37*
%TD.AperFunction*%
%TO.P,R3,2*%
%TO.N,/P-*%
%TA.AperFunction,SMDPad,CuDef*%
G36*
G01*
X15300000Y-9474999D02*
X15300000Y-10725001D01*
G75*
G02*
X15050001Y-10975000I-249999J0D01*
G01*
X14424999Y-10975000D01*
G75*
G02*
X14175000Y-10725001I0J249999D01*
G01*
X14175000Y-9474999D01*
G75*
G02*
X14424999Y-9225000I249999J0D01*
G01*
X15050001Y-9225000D01*
G75*
G02*
X15300000Y-9474999I0J-249999D01*
G01*
G37*
%TD.AperFunction*%
%TD*%
%TO.P,C8,2*%
%TO.N,GND*%
%TA.AperFunction,SMDPad,CuDef*%
G36*
G01*
X14700000Y-4925000D02*
X14200000Y-4925000D01*
G75*
G02*
X13975000Y-4700000I0J225000D01*
G01*
X13975000Y-4250000D01*
G75*
G02*
X14200000Y-4025000I225000J0D01*
G01*
X14700000Y-4025000D01*
G75*
G02*
X14925000Y-4250000I0J-225000D01*
G01*
X14925000Y-4700000D01*
G75*
G02*
X14700000Y-4925000I-225000J0D01*
G01*
G37*
%TD.AperFunction*%
%TO.P,C8,1*%
%TO.N,+3V3*%
%TA.AperFunction,SMDPad,CuDef*%
G36*
G01*
X14700000Y-6475000D02*
X14200000Y-6475000D01*
G75*
G02*
X13975000Y-6250000I0J225000D01*
G01*
X13975000Y-5800000D01*
G75*
G02*
X14200000Y-5575000I225000J0D01*
G01*
X14700000Y-5575000D01*
G75*
G02*
X14925000Y-5800000I0J-225000D01*
G01*
X14925000Y-6250000D01*
G75*
G02*
X14700000Y-6475000I-225000J0D01*
G01*
G37*
%TD.AperFunction*%
%TD*%
%TO.P,C4,2*%
%TO.N,GND*%
%TA.AperFunction,SMDPad,CuDef*%
G36*
G01*
X13190000Y-4925000D02*
X12690000Y-4925000D01*
G75*
G02*
X12465000Y-4700000I0J225000D01*
G01*
X12465000Y-4250000D01*
G75*
G02*
X12690000Y-4025000I225000J0D01*
G01*
X13190000Y-4025000D01*
G75*
G02*
X13415000Y-4250000I0J-225000D01*
G01*
X13415000Y-4700000D01*
G75*
G02*
X13190000Y-4925000I-225000J0D01*
G01*
G37*
%TD.AperFunction*%
%TO.P,C4,1*%
%TO.N,+3V3*%
%TA.AperFunction,SMDPad,CuDef*%
G36*
G01*
X13190000Y-6475000D02*
X12690000Y-6475000D01*
G75*
G02*
X12465000Y-6250000I0J225000D01*
G01*
X12465000Y-5800000D01*
G75*
G02*
X12690000Y-5575000I225000J0D01*
G01*
X13190000Y-5575000D01*
G75*
G02*
X13415000Y-5800000I0J-225000D01*
G01*
X13415000Y-6250000D01*
G75*
G02*
X13190000Y-6475000I-225000J0D01*
G01*
G37*
%TD.AperFunction*%
%TD*%
%TO.P,C1,1*%
%TO.N,+3V3*%
%TA.AperFunction,SMDPad,CuDef*%
G36*
G01*
X11700000Y-6500000D02*
X11200000Y-6500000D01*
G75*
G02*
X10975000Y-6275000I0J225000D01*
G01*
X10975000Y-5825000D01*
G75*
G02*
X11200000Y-5600000I225000J0D01*
G01*
X11700000Y-5600000D01*
G75*
G02*
X11925000Y-5825000I0J-225000D01*
G01*
X11925000Y-6275000D01*
G75*
G02*
X11700000Y-6500000I-225000J0D01*
G01*
G37*
%TD.AperFunction*%
%TO.P,C1,2*%
%TO.N,GND*%
%TA.AperFunction,SMDPad,CuDef*%
G36*
G01*
X11700000Y-4950000D02*
X11200000Y-4950000D01*
G75*
G02*
X10975000Y-4725000I0J225000D01*
G01*
X10975000Y-4275000D01*
G75*
G02*
X11200000Y-4050000I225000J0D01*
G01*
X11700000Y-4050000D01*
G75*
G02*
X11925000Y-4275000I0J-225000D01*
G01*
X11925000Y-4725000D01*
G75*
G02*
X11700000Y-4950000I-225000J0D01*
G01*
G37*
%TD.AperFunction*%
%TD*%
%TO.P,C3,1*%
%TO.N,+3V3*%
%TA.AperFunction,SMDPad,CuDef*%
G36*
G01*
X10200000Y-6475000D02*
X9700000Y-6475000D01*
G75*
G02*
X9475000Y-6250000I0J225000D01*
G01*
X9475000Y-5800000D01*
G75*
G02*
X9700000Y-5575000I225000J0D01*
G01*
X10200000Y-5575000D01*
G75*
G02*
X10425000Y-5800000I0J-225000D01*
G01*
X10425000Y-6250000D01*
G75*
G02*
X10200000Y-6475000I-225000J0D01*
G01*
G37*
%TD.AperFunction*%
%TO.P,C3,2*%
%TO.N,GND*%
%TA.AperFunction,SMDPad,CuDef*%
G36*
G01*
X10200000Y-4925000D02*
X9700000Y-4925000D01*
G75*
G02*
X9475000Y-4700000I0J225000D01*
G01*
X9475000Y-4250000D01*
G75*
G02*
X9700000Y-4025000I225000J0D01*
G01*
X10200000Y-4025000D01*
G75*
G02*
X10425000Y-4250000I0J-225000D01*
G01*
X10425000Y-4700000D01*
G75*
G02*
X10200000Y-4925000I-225000J0D01*
G01*
G37*
%TD.AperFunction*%
%TD*%
D13*
%TO.P,PGND,1*%
%TO.N,/PUMP_GND*%
X20700000Y-13000000D03*
%TD*%
%TO.P,Pump+,1*%
%TO.N,/P-*%
X4200000Y-13000000D03*
%TD*%
%TO.P,C2,2*%
%TO.N,/PUMP_GND*%
%TA.AperFunction,SMDPad,CuDef*%
G36*
G01*
X17025000Y-12500000D02*
X17025000Y-12000000D01*
G75*
G02*
X17250000Y-11775000I225000J0D01*
G01*
X17700000Y-11775000D01*
G75*
G02*
X17925000Y-12000000I0J-225000D01*
G01*
X17925000Y-12500000D01*
G75*
G02*
X17700000Y-12725000I-225000J0D01*
G01*
X17250000Y-12725000D01*
G75*
G02*
X17025000Y-12500000I0J225000D01*
G01*
G37*
%TD.AperFunction*%
%TO.P,C2,1*%
%TO.N,/P-*%
%TA.AperFunction,SMDPad,CuDef*%
G36*
G01*
X15475000Y-12500000D02*
X15475000Y-12000000D01*
G75*
G02*
X15700000Y-11775000I225000J0D01*
G01*
X16150000Y-11775000D01*
G75*
G02*
X16375000Y-12000000I0J-225000D01*
G01*
X16375000Y-12500000D01*
G75*
G02*
X16150000Y-12725000I-225000J0D01*
G01*
X15700000Y-12725000D01*
G75*
G02*
X15475000Y-12500000I0J225000D01*
G01*
G37*
%TD.AperFunction*%
%TD*%
%TO.P,C5,1*%
%TO.N,+3V3*%
%TA.AperFunction,SMDPad,CuDef*%
G36*
G01*
X3270000Y-9690000D02*
X3270000Y-9190000D01*
G75*
G02*
X3495000Y-8965000I225000J0D01*
G01*
X3945000Y-8965000D01*
G75*
G02*
X4170000Y-9190000I0J-225000D01*
G01*
X4170000Y-9690000D01*
G75*
G02*
X3945000Y-9915000I-225000J0D01*
G01*
X3495000Y-9915000D01*
G75*
G02*
X3270000Y-9690000I0J225000D01*
G01*
G37*
%TD.AperFunction*%
%TO.P,C5,2*%
%TO.N,GND*%
%TA.AperFunction,SMDPad,CuDef*%
G36*
G01*
X4820000Y-9690000D02*
X4820000Y-9190000D01*
G75*
G02*
X5045000Y-8965000I225000J0D01*
G01*
X5495000Y-8965000D01*
G75*
G02*
X5720000Y-9190000I0J-225000D01*
G01*
X5720000Y-9690000D01*
G75*
G02*
X5495000Y-9915000I-225000J0D01*
G01*
X5045000Y-9915000D01*
G75*
G02*
X4820000Y-9690000I0J225000D01*
G01*
G37*
%TD.AperFunction*%
%TD*%
%TO.P,C6,2*%
%TO.N,GND*%
%TA.AperFunction,SMDPad,CuDef*%
G36*
G01*
X4825000Y-8150000D02*
X4825000Y-7650000D01*
G75*
G02*
X5050000Y-7425000I225000J0D01*
G01*
X5500000Y-7425000D01*
G75*
G02*
X5725000Y-7650000I0J-225000D01*
G01*
X5725000Y-8150000D01*
G75*
G02*
X5500000Y-8375000I-225000J0D01*
G01*
X5050000Y-8375000D01*
G75*
G02*
X4825000Y-8150000I0J225000D01*
G01*
G37*
%TD.AperFunction*%
%TO.P,C6,1*%
%TO.N,+3V3*%
%TA.AperFunction,SMDPad,CuDef*%
G36*
G01*
X3275000Y-8150000D02*
X3275000Y-7650000D01*
G75*
G02*
X3500000Y-7425000I225000J0D01*
G01*
X3950000Y-7425000D01*
G75*
G02*
X4175000Y-7650000I0J-225000D01*
G01*
X4175000Y-8150000D01*
G75*
G02*
X3950000Y-8375000I-225000J0D01*
G01*
X3500000Y-8375000D01*
G75*
G02*
X3275000Y-8150000I0J225000D01*
G01*
G37*
%TD.AperFunction*%
%TD*%
%TO.P,C7,1*%
%TO.N,VCC*%
%TA.AperFunction,SMDPad,CuDef*%
G36*
G01*
X12925000Y-7500000D02*
X12925000Y-8000000D01*
G75*
G02*
X12700000Y-8225000I-225000J0D01*
G01*
X12250000Y-8225000D01*
G75*
G02*
X12025000Y-8000000I0J225000D01*
G01*
X12025000Y-7500000D01*
G75*
G02*
X12250000Y-7275000I225000J0D01*
G01*
X12700000Y-7275000D01*
G75*
G02*
X12925000Y-7500000I0J-225000D01*
G01*
G37*
%TD.AperFunction*%
%TO.P,C7,2*%
%TO.N,/VALVE_GND*%
%TA.AperFunction,SMDPad,CuDef*%
G36*
G01*
X11375000Y-7500000D02*
X11375000Y-8000000D01*
G75*
G02*
X11150000Y-8225000I-225000J0D01*
G01*
X10700000Y-8225000D01*
G75*
G02*
X10475000Y-8000000I0J225000D01*
G01*
X10475000Y-7500000D01*
G75*
G02*
X10700000Y-7275000I225000J0D01*
G01*
X11150000Y-7275000D01*
G75*
G02*
X11375000Y-7500000I0J-225000D01*
G01*
G37*
%TD.AperFunction*%
%TD*%
%TO.P,C9,1*%
%TO.N,+3V3*%
%TA.AperFunction,SMDPad,CuDef*%
G36*
G01*
X3225000Y-6575000D02*
X3225000Y-6075000D01*
G75*
G02*
X3450000Y-5850000I225000J0D01*
G01*
X3900000Y-5850000D01*
G75*
G02*
X4125000Y-6075000I0J-225000D01*
G01*
X4125000Y-6575000D01*
G75*
G02*
X3900000Y-6800000I-225000J0D01*
G01*
X3450000Y-6800000D01*
G75*
G02*
X3225000Y-6575000I0J225000D01*
G01*
G37*
%TD.AperFunction*%
%TO.P,C9,2*%
%TO.N,GND*%
%TA.AperFunction,SMDPad,CuDef*%
G36*
G01*
X4775000Y-6575000D02*
X4775000Y-6075000D01*
G75*
G02*
X5000000Y-5850000I225000J0D01*
G01*
X5450000Y-5850000D01*
G75*
G02*
X5675000Y-6075000I0J-225000D01*
G01*
X5675000Y-6575000D01*
G75*
G02*
X5450000Y-6800000I-225000J0D01*
G01*
X5000000Y-6800000D01*
G75*
G02*
X4775000Y-6575000I0J225000D01*
G01*
G37*
%TD.AperFunction*%
%TD*%
%TO.P,C10,1*%
%TO.N,VCC*%
%TA.AperFunction,SMDPad,CuDef*%
G36*
G01*
X13925000Y-22000000D02*
X13925000Y-22500000D01*
G75*
G02*
X13700000Y-22725000I-225000J0D01*
G01*
X13250000Y-22725000D01*
G75*
G02*
X13025000Y-22500000I0J225000D01*
G01*
X13025000Y-22000000D01*
G75*
G02*
X13250000Y-21775000I225000J0D01*
G01*
X13700000Y-21775000D01*
G75*
G02*
X13925000Y-22000000I0J-225000D01*
G01*
G37*
%TD.AperFunction*%
%TO.P,C10,2*%
%TO.N,GND*%
%TA.AperFunction,SMDPad,CuDef*%
G36*
G01*
X12375000Y-22000000D02*
X12375000Y-22500000D01*
G75*
G02*
X12150000Y-22725000I-225000J0D01*
G01*
X11700000Y-22725000D01*
G75*
G02*
X11475000Y-22500000I0J225000D01*
G01*
X11475000Y-22000000D01*
G75*
G02*
X11700000Y-21775000I225000J0D01*
G01*
X12150000Y-21775000D01*
G75*
G02*
X12375000Y-22000000I0J-225000D01*
G01*
G37*
%TD.AperFunction*%
%TD*%
%TO.P,C11,2*%
%TO.N,GND*%
%TA.AperFunction,SMDPad,CuDef*%
G36*
G01*
X21450000Y-18175000D02*
X20950000Y-18175000D01*
G75*
G02*
X20725000Y-17950000I0J225000D01*
G01*
X20725000Y-17500000D01*
G75*
G02*
X20950000Y-17275000I225000J0D01*
G01*
X21450000Y-17275000D01*
G75*
G02*
X21675000Y-17500000I0J-225000D01*
G01*
X21675000Y-17950000D01*
G75*
G02*
X21450000Y-18175000I-225000J0D01*
G01*
G37*
%TD.AperFunction*%
%TO.P,C11,1*%
%TO.N,VCC*%
%TA.AperFunction,SMDPad,CuDef*%
G36*
G01*
X21450000Y-19725000D02*
X20950000Y-19725000D01*
G75*
G02*
X20725000Y-19500000I0J225000D01*
G01*
X20725000Y-19050000D01*
G75*
G02*
X20950000Y-18825000I225000J0D01*
G01*
X21450000Y-18825000D01*
G75*
G02*
X21675000Y-19050000I0J-225000D01*
G01*
X21675000Y-19500000D01*
G75*
G02*
X21450000Y-19725000I-225000J0D01*
G01*
G37*
%TD.AperFunction*%
%TD*%
%TO.P,C12,2*%
%TO.N,GND*%
%TA.AperFunction,SMDPad,CuDef*%
G36*
G01*
X18950000Y-18825000D02*
X19450000Y-18825000D01*
G75*
G02*
X19675000Y-19050000I0J-225000D01*
G01*
X19675000Y-19500000D01*
G75*
G02*
X19450000Y-19725000I-225000J0D01*
G01*
X18950000Y-19725000D01*
G75*
G02*
X18725000Y-19500000I0J225000D01*
G01*
X18725000Y-19050000D01*
G75*
G02*
X18950000Y-18825000I225000J0D01*
G01*
G37*
%TD.AperFunction*%
%TO.P,C12,1*%
%TO.N,+3V3*%
%TA.AperFunction,SMDPad,CuDef*%
G36*
G01*
X18950000Y-17275000D02*
X19450000Y-17275000D01*
G75*
G02*
X19675000Y-17500000I0J-225000D01*
G01*
X19675000Y-17950000D01*
G75*
G02*
X19450000Y-18175000I-225000J0D01*
G01*
X18950000Y-18175000D01*
G75*
G02*
X18725000Y-17950000I0J225000D01*
G01*
X18725000Y-17500000D01*
G75*
G02*
X18950000Y-17275000I225000J0D01*
G01*
G37*
%TD.AperFunction*%
%TD*%
%TO.P,KLIN1,1*%
%TO.N,VCC*%
%TA.AperFunction,ComponentPad*%
G36*
G01*
X16050000Y-13575000D02*
X16050000Y-14925000D01*
G75*
G02*
X15800000Y-15175000I-250000J0D01*
G01*
X14600000Y-15175000D01*
G75*
G02*
X14350000Y-14925000I0J250000D01*
G01*
X14350000Y-13575000D01*
G75*
G02*
X14600000Y-13325000I250000J0D01*
G01*
X15800000Y-13325000D01*
G75*
G02*
X16050000Y-13575000I0J-250000D01*
G01*
G37*
%TD.AperFunction*%
D14*
%TO.P,KLIN1,2*%
%TO.N,LIN*%
X12700000Y-14250000D03*
%TO.P,KLIN1,3*%
%TO.N,GND*%
X10200000Y-14250000D03*
%TD*%
%TO.P,KLIN2,3*%
%TO.N,GND*%
X10200000Y-20000000D03*
%TO.P,KLIN2,2*%
%TO.N,LIN*%
X12700000Y-20000000D03*
%TO.P,KLIN2,1*%
%TO.N,VCC*%
%TA.AperFunction,ComponentPad*%
G36*
G01*
X16050000Y-19325000D02*
X16050000Y-20675000D01*
G75*
G02*
X15800000Y-20925000I-250000J0D01*
G01*
X14600000Y-20925000D01*
G75*
G02*
X14350000Y-20675000I0J250000D01*
G01*
X14350000Y-19325000D01*
G75*
G02*
X14600000Y-19075000I250000J0D01*
G01*
X15800000Y-19075000D01*
G75*
G02*
X16050000Y-19325000I0J-250000D01*
G01*
G37*
%TD.AperFunction*%
%TD*%
%TO.P,R5,2*%
%TO.N,GND*%
%TA.AperFunction,SMDPad,CuDef*%
G36*
G01*
X17175000Y-19000000D02*
X17725000Y-19000000D01*
G75*
G02*
X17925000Y-19200000I0J-200000D01*
G01*
X17925000Y-19600000D01*
G75*
G02*
X17725000Y-19800000I-200000J0D01*
G01*
X17175000Y-19800000D01*
G75*
G02*
X16975000Y-19600000I0J200000D01*
G01*
X16975000Y-19200000D01*
G75*
G02*
X17175000Y-19000000I200000J0D01*
G01*
G37*
%TD.AperFunction*%
%TO.P,R5,1*%
%TO.N,Net-(D3-Pad1)*%
%TA.AperFunction,SMDPad,CuDef*%
G36*
G01*
X17175000Y-17350000D02*
X17725000Y-17350000D01*
G75*
G02*
X17925000Y-17550000I0J-200000D01*
G01*
X17925000Y-17950000D01*
G75*
G02*
X17725000Y-18150000I-200000J0D01*
G01*
X17175000Y-18150000D01*
G75*
G02*
X16975000Y-17950000I0J200000D01*
G01*
X16975000Y-17550000D01*
G75*
G02*
X17175000Y-17350000I200000J0D01*
G01*
G37*
%TD.AperFunction*%
%TD*%
D15*
%TO.P,D1,2*%
%TO.N,/PUMP_GND*%
X14200000Y-16400000D03*
%TO.P,D1,1*%
%TO.N,/P-*%
X10900000Y-16400000D03*
%TD*%
%TO.P,D2,1*%
%TO.N,VCC*%
X14150000Y-12250000D03*
%TO.P,D2,2*%
%TO.N,/VALVE_GND*%
X10850000Y-12250000D03*
%TD*%
%TO.P,R7,1*%
%TO.N,LIN_RX*%
%TA.AperFunction,SMDPad,CuDef*%
G36*
G01*
X7425000Y-15025000D02*
X7975000Y-15025000D01*
G75*
G02*
X8175000Y-15225000I0J-200000D01*
G01*
X8175000Y-15625000D01*
G75*
G02*
X7975000Y-15825000I-200000J0D01*
G01*
X7425000Y-15825000D01*
G75*
G02*
X7225000Y-15625000I0J200000D01*
G01*
X7225000Y-15225000D01*
G75*
G02*
X7425000Y-15025000I200000J0D01*
G01*
G37*
%TD.AperFunction*%
%TO.P,R7,2*%
%TO.N,+3V3*%
%TA.AperFunction,SMDPad,CuDef*%
G36*
G01*
X7425000Y-16675000D02*
X7975000Y-16675000D01*
G75*
G02*
X8175000Y-16875000I0J-200000D01*
G01*
X8175000Y-17275000D01*
G75*
G02*
X7975000Y-17475000I-200000J0D01*
G01*
X7425000Y-17475000D01*
G75*
G02*
X7225000Y-17275000I0J200000D01*
G01*
X7225000Y-16875000D01*
G75*
G02*
X7425000Y-16675000I200000J0D01*
G01*
G37*
%TD.AperFunction*%
%TD*%
D16*
%TO.N,*%
X3300000Y-18000000D03*
%TO.N,+3V3*%
X2950000Y-7750000D03*
X20200000Y-17500030D03*
X6950000Y-17250000D03*
X16485000Y-6465000D03*
X9400000Y-7900000D03*
%TO.N,GND*%
X22200000Y-9000000D03*
X20200000Y-7750000D03*
X4950000Y-6750000D03*
X22950000Y-16250000D03*
X9200000Y-5250000D03*
X17200000Y-4500000D03*
%TO.N,Net-(D3-Pad1)*%
X18200000Y-16000000D03*
%TO.N,RST*%
X9450000Y-8750000D03*
X9166939Y-3541920D03*
%TO.N,SWCLK*%
X8200000Y-3500000D03*
X5694815Y-10884903D03*
X10369504Y-1597530D03*
%TO.N,SWDIO*%
X6200000Y-7250000D03*
X6200000Y-4750000D03*
X7950000Y-2500000D03*
%TO.N,LIN*%
X4700000Y-20500000D03*
%TO.N,Pump*%
X20000000Y-9000000D03*
X9588433Y-7028093D03*
%TO.N,LIN_RX*%
X6200000Y-15500000D03*
%TO.N,VCC*%
X14700000Y-22250000D03*
X13200000Y-23000000D03*
X21950000Y-18990000D03*
X16400000Y-9400000D03*
%TO.N,/P-*%
X15700000Y-10100000D03*
%TD*%
D17*
%TO.N,+3V3*%
X3675000Y-9395000D02*
X3720000Y-9440000D01*
X3475000Y-8275000D02*
X3450000Y-8250000D01*
X3675000Y-6325000D02*
X3675000Y-8525000D01*
X3675000Y-8525000D02*
X3675000Y-9395000D01*
X14450000Y-6025000D02*
X9950000Y-6025000D01*
X3575000Y-7750000D02*
X3725000Y-7900000D01*
X2950000Y-7750000D02*
X3575000Y-7750000D01*
X19975030Y-17725000D02*
X20200000Y-17500030D01*
X19200000Y-17725000D02*
X19975030Y-17725000D01*
D18*
X7125000Y-17075000D02*
X6950000Y-17250000D01*
X7700000Y-17075000D02*
X7125000Y-17075000D01*
X16045000Y-6025000D02*
X16485000Y-6465000D01*
X14450000Y-6025000D02*
X16045000Y-6025000D01*
D17*
X18584990Y-18340010D02*
X19200000Y-17725000D01*
X7700000Y-17075000D02*
X8965010Y-18340010D01*
X8965010Y-18340010D02*
X12359990Y-18340010D01*
X14040010Y-18340010D02*
X18584990Y-18340010D01*
X12359990Y-18340010D02*
X14040010Y-18340010D01*
X8925000Y-6025000D02*
X8709999Y-6240001D01*
X9950000Y-6025000D02*
X8925000Y-6025000D01*
X8709999Y-7209999D02*
X9400000Y-7900000D01*
X8709999Y-6240001D02*
X8709999Y-7209999D01*
%TO.N,GND*%
X5225000Y-9395000D02*
X5270000Y-9440000D01*
X5225000Y-6325000D02*
X5225000Y-9395000D01*
X9950000Y-4475000D02*
X14450000Y-4475000D01*
X5225000Y-6475000D02*
X4950000Y-6750000D01*
X5225000Y-6325000D02*
X5225000Y-6475000D01*
D18*
X14475000Y-4500000D02*
X14450000Y-4475000D01*
X17200000Y-4500000D02*
X14475000Y-4500000D01*
X14450000Y-3290000D02*
X15240000Y-2500000D01*
X14450000Y-4475000D02*
X14450000Y-3290000D01*
D17*
%TO.N,Net-(D3-Pad1)*%
X17700000Y-16500000D02*
X18200000Y-16000000D01*
X17450000Y-16750000D02*
X17700000Y-16500000D01*
X17450000Y-17750000D02*
X17450000Y-16750000D01*
%TO.N,RST*%
X9450000Y-8750000D02*
X8419990Y-7719990D01*
X8419990Y-7719990D02*
X8419990Y-4288869D01*
X8419990Y-4288869D02*
X9166939Y-3541920D01*
%TO.N,SWCLK*%
X7200000Y-4500000D02*
X8200000Y-3500000D01*
X7200000Y-7000000D02*
X7200000Y-4500000D01*
X7200000Y-9379718D02*
X7200000Y-7000000D01*
X5694815Y-10884903D02*
X7200000Y-9379718D01*
X12497530Y-1597530D02*
X10369504Y-1597530D01*
X12700000Y-1800000D02*
X12497530Y-1597530D01*
X12700000Y-2500000D02*
X12700000Y-1800000D01*
%TO.N,SWDIO*%
X6200000Y-4750000D02*
X6200000Y-7250000D01*
X13970000Y-2530000D02*
X13970000Y-2500000D01*
X9617998Y-3300000D02*
X13200000Y-3300000D01*
X9469999Y-2962001D02*
X9469999Y-3152001D01*
X13200000Y-3300000D02*
X13970000Y-2530000D01*
X9007998Y-2500000D02*
X9469999Y-2962001D01*
X9469999Y-3152001D02*
X9617998Y-3300000D01*
X7950000Y-2500000D02*
X9007998Y-2500000D01*
%TO.N,LIN*%
X12700000Y-21250000D02*
X12700000Y-20000000D01*
X12450000Y-21500000D02*
X12700000Y-21250000D01*
X5700000Y-21500000D02*
X12450000Y-21500000D01*
X4700000Y-20500000D02*
X5700000Y-21500000D01*
D18*
%TO.N,Pump*%
X18028093Y-7028093D02*
X9588433Y-7028093D01*
X20000000Y-9000000D02*
X18028093Y-7028093D01*
%TO.N,LIN_RX*%
X7625000Y-15500000D02*
X7700000Y-15425000D01*
X6200000Y-15500000D02*
X7625000Y-15500000D01*
D19*
%TO.N,/PUMP_GND*%
X17475000Y-14013692D02*
X17475000Y-12250000D01*
X15088692Y-16400000D02*
X17475000Y-14013692D01*
X14200000Y-16400000D02*
X15088692Y-16400000D01*
X19950000Y-12250000D02*
X20700000Y-13000000D01*
X17475000Y-12250000D02*
X19950000Y-12250000D01*
%TO.N,VCC*%
X14700000Y-22250000D02*
X13475000Y-22250000D01*
X13475000Y-22725000D02*
X13200000Y-23000000D01*
X13475000Y-22250000D02*
X13475000Y-22725000D01*
D17*
X21665000Y-19275000D02*
X21950000Y-18990000D01*
X21200000Y-19275000D02*
X21665000Y-19275000D01*
D19*
X12200000Y-8025000D02*
X12475000Y-7750000D01*
X12200000Y-9250000D02*
X12200000Y-8025000D01*
X14150000Y-13200000D02*
X15200000Y-14250000D01*
X14150000Y-12250000D02*
X14150000Y-13200000D01*
D18*
X17100000Y-10100000D02*
X17662500Y-10100000D01*
X16400000Y-9400000D02*
X17100000Y-10100000D01*
D19*
X16050000Y-14250000D02*
X16734990Y-13565010D01*
X16734990Y-11027510D02*
X17662500Y-10100000D01*
X16734990Y-13565010D02*
X16734990Y-11027510D01*
X15200000Y-14250000D02*
X16050000Y-14250000D01*
%TO.N,/VALVE_GND*%
X10950000Y-7775000D02*
X10925000Y-7750000D01*
X10950000Y-9250000D02*
X10950000Y-7775000D01*
X10850000Y-9350000D02*
X10950000Y-9250000D01*
X10850000Y-12250000D02*
X10850000Y-9350000D01*
D20*
%TO.N,/P-*%
X14737500Y-11062500D02*
X15925000Y-12250000D01*
X14737500Y-10100000D02*
X14737500Y-11062500D01*
D19*
X10662783Y-16400000D02*
X10900000Y-16400000D01*
X7262783Y-13000000D02*
X10662783Y-16400000D01*
X4200000Y-13000000D02*
X7262783Y-13000000D01*
X13765498Y-11062500D02*
X14737500Y-11062500D01*
X11559990Y-13268008D02*
X13765498Y-11062500D01*
X11559990Y-15740010D02*
X11559990Y-13268008D01*
X10900000Y-16400000D02*
X11559990Y-15740010D01*
D18*
X14737500Y-10100000D02*
X15700000Y-10100000D01*
%TD*%
D21*
%TO.N,GND*%
X13811416Y-1352343D02*
X15154421Y-1589151D01*
X16460853Y-1980272D01*
X17713046Y-2520415D01*
X18894064Y-3202276D01*
X19987938Y-4016635D01*
X20979874Y-4952479D01*
X21856459Y-5997151D01*
X22605837Y-7136525D01*
X23217874Y-8355192D01*
X23684295Y-9636673D01*
X23998791Y-10963637D01*
X24157110Y-12318138D01*
X24157110Y-13681862D01*
X23998791Y-15036363D01*
X23684295Y-16363327D01*
X23217874Y-17644808D01*
X22605837Y-18863475D01*
X22504000Y-19018311D01*
X22504000Y-18935436D01*
X22482711Y-18828404D01*
X22440949Y-18727582D01*
X22380320Y-18636845D01*
X22303155Y-18559680D01*
X22212418Y-18499051D01*
X22111596Y-18457289D01*
X22004564Y-18436000D01*
X21895436Y-18436000D01*
X21788404Y-18457289D01*
X21687582Y-18499051D01*
X21596845Y-18559680D01*
X21569650Y-18586875D01*
X21543688Y-18578999D01*
X21450000Y-18569772D01*
X20950000Y-18569772D01*
X20856312Y-18578999D01*
X20766225Y-18606327D01*
X20683200Y-18650705D01*
X20610428Y-18710428D01*
X20550705Y-18783200D01*
X20506327Y-18866225D01*
X20478999Y-18956312D01*
X20469772Y-19050000D01*
X20469772Y-19500000D01*
X20478999Y-19593688D01*
X20506327Y-19683775D01*
X20550705Y-19766800D01*
X20610428Y-19839572D01*
X20683200Y-19899295D01*
X20766225Y-19943673D01*
X20856312Y-19971001D01*
X20950000Y-19980228D01*
X21450000Y-19980228D01*
X21543688Y-19971001D01*
X21633775Y-19943673D01*
X21716800Y-19899295D01*
X21789572Y-19839572D01*
X21849295Y-19766800D01*
X21893673Y-19683775D01*
X21921001Y-19593688D01*
X21925895Y-19544000D01*
X22004564Y-19544000D01*
X22111596Y-19522711D01*
X22194963Y-19488179D01*
X21856459Y-20002849D01*
X20979874Y-21047521D01*
X19987938Y-21983365D01*
X18894064Y-22797724D01*
X17713046Y-23479585D01*
X16460853Y-24019728D01*
X15154421Y-24410849D01*
X13811416Y-24647657D01*
X12450000Y-24726950D01*
X11088584Y-24647657D01*
X9745579Y-24410849D01*
X8439147Y-24019728D01*
X7186954Y-23479585D01*
X6261781Y-22945436D01*
X12646000Y-22945436D01*
X12646000Y-23054564D01*
X12667289Y-23161596D01*
X12709051Y-23262418D01*
X12769680Y-23353155D01*
X12846845Y-23430320D01*
X12937582Y-23490949D01*
X13038404Y-23532711D01*
X13145436Y-23554000D01*
X13254564Y-23554000D01*
X13361596Y-23532711D01*
X13462418Y-23490949D01*
X13553155Y-23430320D01*
X13630320Y-23353155D01*
X13690949Y-23262418D01*
X13732711Y-23161596D01*
X13745685Y-23096367D01*
X13780257Y-23061795D01*
X13797579Y-23047579D01*
X13854313Y-22978449D01*
X13870797Y-22947610D01*
X13883775Y-22943673D01*
X13966800Y-22899295D01*
X14039572Y-22839572D01*
X14099295Y-22766800D01*
X14132862Y-22704000D01*
X14382284Y-22704000D01*
X14437582Y-22740949D01*
X14538404Y-22782711D01*
X14645436Y-22804000D01*
X14754564Y-22804000D01*
X14861596Y-22782711D01*
X14962418Y-22740949D01*
X15053155Y-22680320D01*
X15130320Y-22603155D01*
X15190949Y-22512418D01*
X15232711Y-22411596D01*
X15254000Y-22304564D01*
X15254000Y-22195436D01*
X15232711Y-22088404D01*
X15190949Y-21987582D01*
X15130320Y-21896845D01*
X15053155Y-21819680D01*
X14962418Y-21759051D01*
X14861596Y-21717289D01*
X14754564Y-21696000D01*
X14645436Y-21696000D01*
X14538404Y-21717289D01*
X14437582Y-21759051D01*
X14382284Y-21796000D01*
X14132862Y-21796000D01*
X14099295Y-21733200D01*
X14039572Y-21660428D01*
X13966800Y-21600705D01*
X13883775Y-21556327D01*
X13793688Y-21528999D01*
X13700000Y-21519772D01*
X13250000Y-21519772D01*
X13156312Y-21528999D01*
X13066225Y-21556327D01*
X12983200Y-21600705D01*
X12910428Y-21660428D01*
X12850705Y-21733200D01*
X12806327Y-21816225D01*
X12778999Y-21906312D01*
X12769772Y-22000000D01*
X12769772Y-22500000D01*
X12778999Y-22593688D01*
X12789202Y-22627323D01*
X12769680Y-22646845D01*
X12709051Y-22737582D01*
X12667289Y-22838404D01*
X12646000Y-22945436D01*
X6261781Y-22945436D01*
X6005936Y-22797724D01*
X4912062Y-21983365D01*
X3920126Y-21047521D01*
X3414917Y-20445436D01*
X4146000Y-20445436D01*
X4146000Y-20554564D01*
X4167289Y-20661596D01*
X4209051Y-20762418D01*
X4269680Y-20853155D01*
X4346845Y-20930320D01*
X4437582Y-20990949D01*
X4538404Y-21032711D01*
X4645436Y-21054000D01*
X4753369Y-21054000D01*
X5437397Y-21738029D01*
X5448474Y-21751526D01*
X5461971Y-21762603D01*
X5461975Y-21762607D01*
X5479646Y-21777109D01*
X5502377Y-21795764D01*
X5563875Y-21828635D01*
X5630604Y-21848877D01*
X5682618Y-21854000D01*
X5682626Y-21854000D01*
X5700000Y-21855711D01*
X5717374Y-21854000D01*
X12432626Y-21854000D01*
X12450000Y-21855711D01*
X12467374Y-21854000D01*
X12467382Y-21854000D01*
X12519396Y-21848877D01*
X12586125Y-21828635D01*
X12647623Y-21795764D01*
X12701526Y-21751526D01*
X12712611Y-21738019D01*
X12938033Y-21512599D01*
X12951525Y-21501526D01*
X12962598Y-21488034D01*
X12962606Y-21488026D01*
X12995763Y-21447624D01*
X12995764Y-21447623D01*
X13028635Y-21386125D01*
X13048877Y-21319396D01*
X13054000Y-21267382D01*
X13054000Y-21267375D01*
X13055711Y-21250001D01*
X13054000Y-21232627D01*
X13054000Y-21121291D01*
X13124525Y-21099897D01*
X13316317Y-20997383D01*
X13484423Y-20859423D01*
X13622383Y-20691317D01*
X13724897Y-20499526D01*
X13788025Y-20291422D01*
X13804000Y-20129227D01*
X13804000Y-19870774D01*
X13788025Y-19708579D01*
X13724897Y-19500475D01*
X13631105Y-19325000D01*
X14094772Y-19325000D01*
X14094772Y-20675000D01*
X14104480Y-20773565D01*
X14133230Y-20868342D01*
X14179918Y-20955690D01*
X14242750Y-21032250D01*
X14319310Y-21095082D01*
X14406658Y-21141770D01*
X14501435Y-21170520D01*
X14600000Y-21180228D01*
X15800000Y-21180228D01*
X15898565Y-21170520D01*
X15993342Y-21141770D01*
X16080690Y-21095082D01*
X16157250Y-21032250D01*
X16220082Y-20955690D01*
X16266770Y-20868342D01*
X16295520Y-20773565D01*
X16305228Y-20675000D01*
X16305228Y-19325000D01*
X16295520Y-19226435D01*
X16266770Y-19131658D01*
X16220082Y-19044310D01*
X16157250Y-18967750D01*
X16080690Y-18904918D01*
X15993342Y-18858230D01*
X15898565Y-18829480D01*
X15800000Y-18819772D01*
X14600000Y-18819772D01*
X14501435Y-18829480D01*
X14406658Y-18858230D01*
X14319310Y-18904918D01*
X14242750Y-18967750D01*
X14179918Y-19044310D01*
X14133230Y-19131658D01*
X14104480Y-19226435D01*
X14094772Y-19325000D01*
X13631105Y-19325000D01*
X13622383Y-19308683D01*
X13484423Y-19140577D01*
X13316317Y-19002617D01*
X13124526Y-18900103D01*
X12916422Y-18836975D01*
X12700000Y-18815659D01*
X12483579Y-18836975D01*
X12275475Y-18900103D01*
X12083684Y-19002617D01*
X11915577Y-19140577D01*
X11777617Y-19308683D01*
X11675103Y-19500474D01*
X11611975Y-19708578D01*
X11596000Y-19870773D01*
X11596000Y-20129226D01*
X11611975Y-20291421D01*
X11675103Y-20499525D01*
X11777617Y-20691317D01*
X11915577Y-20859423D01*
X12083683Y-20997383D01*
X12275474Y-21099897D01*
X12332249Y-21117120D01*
X12303369Y-21146000D01*
X5846632Y-21146000D01*
X5254000Y-20553369D01*
X5254000Y-20445436D01*
X5232711Y-20338404D01*
X5190949Y-20237582D01*
X5130320Y-20146845D01*
X5053155Y-20069680D01*
X4962418Y-20009051D01*
X4861596Y-19967289D01*
X4754564Y-19946000D01*
X4645436Y-19946000D01*
X4538404Y-19967289D01*
X4437582Y-20009051D01*
X4346845Y-20069680D01*
X4269680Y-20146845D01*
X4209051Y-20237582D01*
X4167289Y-20338404D01*
X4146000Y-20445436D01*
X3414917Y-20445436D01*
X3043541Y-20002849D01*
X2294163Y-18863475D01*
X1833107Y-17945436D01*
X2746000Y-17945436D01*
X2746000Y-18054564D01*
X2767289Y-18161596D01*
X2809051Y-18262418D01*
X2869680Y-18353155D01*
X2946845Y-18430320D01*
X3037582Y-18490949D01*
X3138404Y-18532711D01*
X3245436Y-18554000D01*
X3354564Y-18554000D01*
X3461596Y-18532711D01*
X3562418Y-18490949D01*
X3653155Y-18430320D01*
X3730320Y-18353155D01*
X3790949Y-18262418D01*
X3832711Y-18161596D01*
X3854000Y-18054564D01*
X3854000Y-17945436D01*
X3832711Y-17838404D01*
X3790949Y-17737582D01*
X3730320Y-17646845D01*
X3653155Y-17569680D01*
X3562418Y-17509051D01*
X3461596Y-17467289D01*
X3354564Y-17446000D01*
X3245436Y-17446000D01*
X3138404Y-17467289D01*
X3037582Y-17509051D01*
X2946845Y-17569680D01*
X2869680Y-17646845D01*
X2809051Y-17737582D01*
X2767289Y-17838404D01*
X2746000Y-17945436D01*
X1833107Y-17945436D01*
X1682126Y-17644808D01*
X1518568Y-17195436D01*
X6396000Y-17195436D01*
X6396000Y-17304564D01*
X6417289Y-17411596D01*
X6459051Y-17512418D01*
X6519680Y-17603155D01*
X6596845Y-17680320D01*
X6687582Y-17740949D01*
X6788404Y-17782711D01*
X6895436Y-17804000D01*
X7004564Y-17804000D01*
X7111596Y-17782711D01*
X7212418Y-17740949D01*
X7271102Y-17701737D01*
X7336189Y-17721481D01*
X7425000Y-17730228D01*
X7854597Y-17730228D01*
X8702407Y-18578039D01*
X8713484Y-18591536D01*
X8726981Y-18602613D01*
X8726984Y-18602616D01*
X8731506Y-18606327D01*
X8767387Y-18635774D01*
X8828885Y-18668645D01*
X8875371Y-18682746D01*
X8895613Y-18688887D01*
X8902446Y-18689560D01*
X8947628Y-18694010D01*
X8947635Y-18694010D01*
X8965009Y-18695721D01*
X8982383Y-18694010D01*
X18567616Y-18694010D01*
X18584990Y-18695721D01*
X18602364Y-18694010D01*
X18602372Y-18694010D01*
X18654386Y-18688887D01*
X18721115Y-18668645D01*
X18782613Y-18635774D01*
X18836516Y-18591536D01*
X18847601Y-18578029D01*
X18995403Y-18430228D01*
X19450000Y-18430228D01*
X19543688Y-18421001D01*
X19633775Y-18393673D01*
X19716800Y-18349295D01*
X19789572Y-18289572D01*
X19849295Y-18216800D01*
X19893673Y-18133775D01*
X19910289Y-18079000D01*
X19957656Y-18079000D01*
X19975030Y-18080711D01*
X19992404Y-18079000D01*
X19992412Y-18079000D01*
X20044426Y-18073877D01*
X20111155Y-18053635D01*
X20119914Y-18048954D01*
X20145436Y-18054030D01*
X20254564Y-18054030D01*
X20361596Y-18032741D01*
X20462418Y-17990979D01*
X20553155Y-17930350D01*
X20630320Y-17853185D01*
X20690949Y-17762448D01*
X20732711Y-17661626D01*
X20754000Y-17554594D01*
X20754000Y-17445466D01*
X20732711Y-17338434D01*
X20690949Y-17237612D01*
X20630320Y-17146875D01*
X20553155Y-17069710D01*
X20462418Y-17009081D01*
X20361596Y-16967319D01*
X20254564Y-16946030D01*
X20145436Y-16946030D01*
X20038404Y-16967319D01*
X19937582Y-17009081D01*
X19846845Y-17069710D01*
X19771203Y-17145352D01*
X19716800Y-17100705D01*
X19633775Y-17056327D01*
X19543688Y-17028999D01*
X19450000Y-17019772D01*
X18950000Y-17019772D01*
X18856312Y-17028999D01*
X18766225Y-17056327D01*
X18683200Y-17100705D01*
X18610428Y-17160428D01*
X18550705Y-17233200D01*
X18506327Y-17316225D01*
X18478999Y-17406312D01*
X18469772Y-17500000D01*
X18469772Y-17950000D01*
X18470184Y-17954185D01*
X18438360Y-17986010D01*
X18176681Y-17986010D01*
X18180228Y-17950000D01*
X18180228Y-17550000D01*
X18171481Y-17461189D01*
X18145576Y-17375792D01*
X18103508Y-17297089D01*
X18046895Y-17228105D01*
X17977911Y-17171492D01*
X17899208Y-17129424D01*
X17813811Y-17103519D01*
X17804000Y-17102553D01*
X17804000Y-16896631D01*
X17962606Y-16738026D01*
X17962615Y-16738015D01*
X18146630Y-16554000D01*
X18254564Y-16554000D01*
X18361596Y-16532711D01*
X18462418Y-16490949D01*
X18553155Y-16430320D01*
X18630320Y-16353155D01*
X18690949Y-16262418D01*
X18732711Y-16161596D01*
X18754000Y-16054564D01*
X18754000Y-15945436D01*
X18732711Y-15838404D01*
X18690949Y-15737582D01*
X18630320Y-15646845D01*
X18553155Y-15569680D01*
X18462418Y-15509051D01*
X18361596Y-15467289D01*
X18254564Y-15446000D01*
X18145436Y-15446000D01*
X18038404Y-15467289D01*
X17937582Y-15509051D01*
X17846845Y-15569680D01*
X17769680Y-15646845D01*
X17709051Y-15737582D01*
X17667289Y-15838404D01*
X17646000Y-15945436D01*
X17646000Y-16053370D01*
X17461985Y-16237385D01*
X17461974Y-16237394D01*
X17211976Y-16487394D01*
X17198475Y-16498474D01*
X17154237Y-16552377D01*
X17142370Y-16574579D01*
X17121366Y-16613875D01*
X17101123Y-16680604D01*
X17094289Y-16750000D01*
X17096001Y-16767384D01*
X17096001Y-17102553D01*
X17086189Y-17103519D01*
X17000792Y-17129424D01*
X16922089Y-17171492D01*
X16853105Y-17228105D01*
X16796492Y-17297089D01*
X16754424Y-17375792D01*
X16728519Y-17461189D01*
X16719772Y-17550000D01*
X16719772Y-17950000D01*
X16723319Y-17986010D01*
X9111642Y-17986010D01*
X8427574Y-17301944D01*
X8430228Y-17275000D01*
X8430228Y-16875000D01*
X8421481Y-16786189D01*
X8395576Y-16700792D01*
X8353508Y-16622089D01*
X8296895Y-16553105D01*
X8227911Y-16496492D01*
X8149208Y-16454424D01*
X8063811Y-16428519D01*
X7975000Y-16419772D01*
X7425000Y-16419772D01*
X7336189Y-16428519D01*
X7250792Y-16454424D01*
X7172089Y-16496492D01*
X7103105Y-16553105D01*
X7046492Y-16622089D01*
X7006753Y-16696435D01*
X7004564Y-16696000D01*
X6895436Y-16696000D01*
X6788404Y-16717289D01*
X6687582Y-16759051D01*
X6596845Y-16819680D01*
X6519680Y-16896845D01*
X6459051Y-16987582D01*
X6417289Y-17088404D01*
X6396000Y-17195436D01*
X1518568Y-17195436D01*
X1215705Y-16363327D01*
X901209Y-15036363D01*
X827000Y-14401467D01*
X827000Y-11598533D01*
X901209Y-10963637D01*
X1215705Y-9636673D01*
X1682126Y-8355192D01*
X2294163Y-7136525D01*
X2969772Y-6109311D01*
X2969772Y-6575000D01*
X2978999Y-6668688D01*
X3006327Y-6758775D01*
X3050705Y-6841800D01*
X3110428Y-6914572D01*
X3183200Y-6974295D01*
X3266225Y-7018673D01*
X3321000Y-7035289D01*
X3321000Y-7204878D01*
X3316225Y-7206327D01*
X3233200Y-7250705D01*
X3218268Y-7262960D01*
X3212418Y-7259051D01*
X3111596Y-7217289D01*
X3004564Y-7196000D01*
X2895436Y-7196000D01*
X2788404Y-7217289D01*
X2687582Y-7259051D01*
X2596845Y-7319680D01*
X2519680Y-7396845D01*
X2459051Y-7487582D01*
X2417289Y-7588404D01*
X2396000Y-7695436D01*
X2396000Y-7804564D01*
X2417289Y-7911596D01*
X2459051Y-8012418D01*
X2519680Y-8103155D01*
X2596845Y-8180320D01*
X2687582Y-8240949D01*
X2788404Y-8282711D01*
X2895436Y-8304000D01*
X3004564Y-8304000D01*
X3044863Y-8295984D01*
X3056327Y-8333775D01*
X3100705Y-8416800D01*
X3160428Y-8489572D01*
X3233200Y-8549295D01*
X3316225Y-8593673D01*
X3321000Y-8595122D01*
X3321000Y-8743362D01*
X3311225Y-8746327D01*
X3228200Y-8790705D01*
X3155428Y-8850428D01*
X3095705Y-8923200D01*
X3051327Y-9006225D01*
X3023999Y-9096312D01*
X3014772Y-9190000D01*
X3014772Y-9690000D01*
X3023999Y-9783688D01*
X3051327Y-9873775D01*
X3095705Y-9956800D01*
X3155428Y-10029572D01*
X3228200Y-10089295D01*
X3311225Y-10133673D01*
X3401312Y-10161001D01*
X3495000Y-10170228D01*
X3945000Y-10170228D01*
X4038688Y-10161001D01*
X4128775Y-10133673D01*
X4211800Y-10089295D01*
X4284572Y-10029572D01*
X4344295Y-9956800D01*
X4388673Y-9873775D01*
X4416001Y-9783688D01*
X4425228Y-9690000D01*
X4425228Y-9190000D01*
X4416001Y-9096312D01*
X4388673Y-9006225D01*
X4344295Y-8923200D01*
X4284572Y-8850428D01*
X4211800Y-8790705D01*
X4128775Y-8746327D01*
X4038688Y-8718999D01*
X4029000Y-8718045D01*
X4029000Y-8622448D01*
X4043688Y-8621001D01*
X4133775Y-8593673D01*
X4216800Y-8549295D01*
X4289572Y-8489572D01*
X4349295Y-8416800D01*
X4393673Y-8333775D01*
X4421001Y-8243688D01*
X4430228Y-8150000D01*
X4430228Y-7650000D01*
X4421001Y-7556312D01*
X4393673Y-7466225D01*
X4349295Y-7383200D01*
X4289572Y-7310428D01*
X4216800Y-7250705D01*
X4133775Y-7206327D01*
X4043688Y-7178999D01*
X4029000Y-7177552D01*
X4029000Y-7035289D01*
X4083775Y-7018673D01*
X4166800Y-6974295D01*
X4239572Y-6914572D01*
X4299295Y-6841800D01*
X4343673Y-6758775D01*
X4371001Y-6668688D01*
X4380228Y-6575000D01*
X4380228Y-6075000D01*
X4371001Y-5981312D01*
X4343673Y-5891225D01*
X4299295Y-5808200D01*
X4239572Y-5735428D01*
X4166800Y-5675705D01*
X4083775Y-5631327D01*
X3993688Y-5603999D01*
X3900000Y-5594772D01*
X3450000Y-5594772D01*
X3374978Y-5602161D01*
X3920126Y-4952479D01*
X4192575Y-4695436D01*
X5646000Y-4695436D01*
X5646000Y-4804564D01*
X5667289Y-4911596D01*
X5709051Y-5012418D01*
X5769680Y-5103155D01*
X5846000Y-5179475D01*
X5846001Y-6820524D01*
X5769680Y-6896845D01*
X5709051Y-6987582D01*
X5667289Y-7088404D01*
X5646000Y-7195436D01*
X5646000Y-7304564D01*
X5667289Y-7411596D01*
X5709051Y-7512418D01*
X5769680Y-7603155D01*
X5846845Y-7680320D01*
X5937582Y-7740949D01*
X6038404Y-7782711D01*
X6145436Y-7804000D01*
X6254564Y-7804000D01*
X6361596Y-7782711D01*
X6462418Y-7740949D01*
X6553155Y-7680320D01*
X6630320Y-7603155D01*
X6690949Y-7512418D01*
X6732711Y-7411596D01*
X6754000Y-7304564D01*
X6754000Y-7195436D01*
X6732711Y-7088404D01*
X6690949Y-6987582D01*
X6630320Y-6896845D01*
X6554000Y-6820525D01*
X6554000Y-5179475D01*
X6630320Y-5103155D01*
X6690949Y-5012418D01*
X6732711Y-4911596D01*
X6754000Y-4804564D01*
X6754000Y-4695436D01*
X6732711Y-4588404D01*
X6690949Y-4487582D01*
X6630320Y-4396845D01*
X6553155Y-4319680D01*
X6462418Y-4259051D01*
X6361596Y-4217289D01*
X6254564Y-4196000D01*
X6145436Y-4196000D01*
X6038404Y-4217289D01*
X5937582Y-4259051D01*
X5846845Y-4319680D01*
X5769680Y-4396845D01*
X5709051Y-4487582D01*
X5667289Y-4588404D01*
X5646000Y-4695436D01*
X4192575Y-4695436D01*
X4912062Y-4016635D01*
X6005936Y-3202276D01*
X7186954Y-2520415D01*
X7399306Y-2428815D01*
X7396000Y-2445436D01*
X7396000Y-2554564D01*
X7417289Y-2661596D01*
X7459051Y-2762418D01*
X7519680Y-2853155D01*
X7596845Y-2930320D01*
X7687582Y-2990949D01*
X7788404Y-3032711D01*
X7876075Y-3050149D01*
X7846845Y-3069680D01*
X7769680Y-3146845D01*
X7709051Y-3237582D01*
X7667289Y-3338404D01*
X7646000Y-3445436D01*
X7646000Y-3553369D01*
X6961977Y-4237393D01*
X6948475Y-4248474D01*
X6904237Y-4302377D01*
X6874365Y-4358265D01*
X6871366Y-4363875D01*
X6851123Y-4430604D01*
X6844289Y-4500000D01*
X6846001Y-4517384D01*
X6846000Y-7017381D01*
X6846001Y-7017391D01*
X6846000Y-9233087D01*
X5748185Y-10330903D01*
X5640251Y-10330903D01*
X5533219Y-10352192D01*
X5432397Y-10393954D01*
X5341660Y-10454583D01*
X5264495Y-10531748D01*
X5203866Y-10622485D01*
X5162104Y-10723307D01*
X5158609Y-10740878D01*
X4915805Y-10640306D01*
X4441698Y-10546000D01*
X3958302Y-10546000D01*
X3484195Y-10640306D01*
X3037595Y-10825293D01*
X2635666Y-11093854D01*
X2293854Y-11435666D01*
X2025293Y-11837595D01*
X1840306Y-12284195D01*
X1746000Y-12758302D01*
X1746000Y-13241698D01*
X1840306Y-13715805D01*
X2025293Y-14162405D01*
X2293854Y-14564334D01*
X2635666Y-14906146D01*
X3037595Y-15174707D01*
X3484195Y-15359694D01*
X3958302Y-15454000D01*
X4441698Y-15454000D01*
X4484752Y-15445436D01*
X5646000Y-15445436D01*
X5646000Y-15554564D01*
X5667289Y-15661596D01*
X5709051Y-15762418D01*
X5769680Y-15853155D01*
X5846845Y-15930320D01*
X5937582Y-15990949D01*
X6038404Y-16032711D01*
X6145436Y-16054000D01*
X6254564Y-16054000D01*
X6361596Y-16032711D01*
X6462418Y-15990949D01*
X6553155Y-15930320D01*
X6630320Y-15853155D01*
X6646460Y-15829000D01*
X7020348Y-15829000D01*
X7046492Y-15877911D01*
X7103105Y-15946895D01*
X7172089Y-16003508D01*
X7250792Y-16045576D01*
X7336189Y-16071481D01*
X7425000Y-16080228D01*
X7975000Y-16080228D01*
X8063811Y-16071481D01*
X8149208Y-16045576D01*
X8227911Y-16003508D01*
X8296895Y-15946895D01*
X8353508Y-15877911D01*
X8395576Y-15799208D01*
X8421481Y-15713811D01*
X8430228Y-15625000D01*
X8430228Y-15225000D01*
X8421481Y-15136189D01*
X8395576Y-15050792D01*
X8353508Y-14972089D01*
X8296895Y-14903105D01*
X8227911Y-14846492D01*
X8149208Y-14804424D01*
X8063811Y-14778519D01*
X7975000Y-14769772D01*
X7425000Y-14769772D01*
X7336189Y-14778519D01*
X7250792Y-14804424D01*
X7172089Y-14846492D01*
X7103105Y-14903105D01*
X7046492Y-14972089D01*
X7004424Y-15050792D01*
X6978519Y-15136189D01*
X6975090Y-15171000D01*
X6646460Y-15171000D01*
X6630320Y-15146845D01*
X6553155Y-15069680D01*
X6462418Y-15009051D01*
X6361596Y-14967289D01*
X6254564Y-14946000D01*
X6145436Y-14946000D01*
X6038404Y-14967289D01*
X5937582Y-15009051D01*
X5846845Y-15069680D01*
X5769680Y-15146845D01*
X5709051Y-15237582D01*
X5667289Y-15338404D01*
X5646000Y-15445436D01*
X4484752Y-15445436D01*
X4915805Y-15359694D01*
X5362405Y-15174707D01*
X5764334Y-14906146D01*
X6106146Y-14564334D01*
X6374707Y-14162405D01*
X6559694Y-13715805D01*
X6611770Y-13454000D01*
X7074731Y-13454000D01*
X10194772Y-16574042D01*
X10194772Y-17000000D01*
X10199676Y-17049793D01*
X10214200Y-17097672D01*
X10237786Y-17141797D01*
X10269527Y-17180473D01*
X10308203Y-17212214D01*
X10352328Y-17235800D01*
X10400207Y-17250324D01*
X10450000Y-17255228D01*
X11350000Y-17255228D01*
X11399793Y-17250324D01*
X11447672Y-17235800D01*
X11491797Y-17212214D01*
X11530473Y-17180473D01*
X11562214Y-17141797D01*
X11585800Y-17097672D01*
X11600324Y-17049793D01*
X11605228Y-17000000D01*
X11605228Y-16336825D01*
X11865254Y-16076799D01*
X11882569Y-16062589D01*
X11939303Y-15993459D01*
X11981460Y-15914589D01*
X12004570Y-15838404D01*
X12007420Y-15829010D01*
X12010355Y-15799208D01*
X12013990Y-15762305D01*
X12013990Y-15762298D01*
X12016185Y-15740010D01*
X12013990Y-15717722D01*
X12013990Y-15190188D01*
X12083683Y-15247383D01*
X12275474Y-15349897D01*
X12483578Y-15413025D01*
X12700000Y-15434341D01*
X12916421Y-15413025D01*
X13124525Y-15349897D01*
X13316317Y-15247383D01*
X13484423Y-15109423D01*
X13622383Y-14941317D01*
X13724897Y-14749526D01*
X13788025Y-14541422D01*
X13804000Y-14379227D01*
X13804000Y-14120774D01*
X13788025Y-13958579D01*
X13724897Y-13750475D01*
X13622383Y-13558683D01*
X13484423Y-13390577D01*
X13316317Y-13252617D01*
X13124526Y-13150103D01*
X12916422Y-13086975D01*
X12700000Y-13065659D01*
X12483579Y-13086975D01*
X12339312Y-13130738D01*
X13444772Y-12025279D01*
X13444772Y-12850000D01*
X13449676Y-12899793D01*
X13464200Y-12947672D01*
X13487786Y-12991797D01*
X13519527Y-13030473D01*
X13558203Y-13062214D01*
X13602328Y-13085800D01*
X13650207Y-13100324D01*
X13696001Y-13104834D01*
X13696001Y-13177702D01*
X13693805Y-13200000D01*
X13702570Y-13288999D01*
X13728530Y-13374578D01*
X13737082Y-13390577D01*
X13770688Y-13453449D01*
X13827422Y-13522579D01*
X13844738Y-13536790D01*
X14094772Y-13786824D01*
X14094772Y-14925000D01*
X14104480Y-15023565D01*
X14133230Y-15118342D01*
X14179918Y-15205690D01*
X14242750Y-15282250D01*
X14319310Y-15345082D01*
X14406658Y-15391770D01*
X14501435Y-15420520D01*
X14600000Y-15430228D01*
X15416412Y-15430228D01*
X14905228Y-15941412D01*
X14905228Y-15800000D01*
X14900324Y-15750207D01*
X14885800Y-15702328D01*
X14862214Y-15658203D01*
X14830473Y-15619527D01*
X14791797Y-15587786D01*
X14747672Y-15564200D01*
X14699793Y-15549676D01*
X14650000Y-15544772D01*
X13750000Y-15544772D01*
X13700207Y-15549676D01*
X13652328Y-15564200D01*
X13608203Y-15587786D01*
X13569527Y-15619527D01*
X13537786Y-15658203D01*
X13514200Y-15702328D01*
X13499676Y-15750207D01*
X13494772Y-15800000D01*
X13494772Y-17000000D01*
X13499676Y-17049793D01*
X13514200Y-17097672D01*
X13537786Y-17141797D01*
X13569527Y-17180473D01*
X13608203Y-17212214D01*
X13652328Y-17235800D01*
X13700207Y-17250324D01*
X13750000Y-17255228D01*
X14650000Y-17255228D01*
X14699793Y-17250324D01*
X14747672Y-17235800D01*
X14791797Y-17212214D01*
X14830473Y-17180473D01*
X14862214Y-17141797D01*
X14885800Y-17097672D01*
X14900324Y-17049793D01*
X14905228Y-17000000D01*
X14905228Y-16854000D01*
X15066404Y-16854000D01*
X15088692Y-16856195D01*
X15110980Y-16854000D01*
X15110987Y-16854000D01*
X15177691Y-16847430D01*
X15263271Y-16821470D01*
X15342141Y-16779313D01*
X15411271Y-16722579D01*
X15425486Y-16705258D01*
X17780264Y-14350481D01*
X17797579Y-14336271D01*
X17854313Y-14267141D01*
X17896470Y-14188271D01*
X17904742Y-14161001D01*
X17922430Y-14102692D01*
X17925116Y-14075421D01*
X17929000Y-14035987D01*
X17929000Y-14035981D01*
X17931195Y-14013693D01*
X17929000Y-13991405D01*
X17929000Y-12919500D01*
X17966800Y-12899295D01*
X18039572Y-12839572D01*
X18099295Y-12766800D01*
X18132862Y-12704000D01*
X18256801Y-12704000D01*
X18246000Y-12758302D01*
X18246000Y-13241698D01*
X18340306Y-13715805D01*
X18525293Y-14162405D01*
X18793854Y-14564334D01*
X19135666Y-14906146D01*
X19537595Y-15174707D01*
X19984195Y-15359694D01*
X20458302Y-15454000D01*
X20941698Y-15454000D01*
X21415805Y-15359694D01*
X21862405Y-15174707D01*
X22264334Y-14906146D01*
X22606146Y-14564334D01*
X22874707Y-14162405D01*
X23059694Y-13715805D01*
X23154000Y-13241698D01*
X23154000Y-12758302D01*
X23059694Y-12284195D01*
X22874707Y-11837595D01*
X22606146Y-11435666D01*
X22264334Y-11093854D01*
X21862405Y-10825293D01*
X21415805Y-10640306D01*
X20941698Y-10546000D01*
X20458302Y-10546000D01*
X19984195Y-10640306D01*
X19537595Y-10825293D01*
X19135666Y-11093854D01*
X18793854Y-11435666D01*
X18553086Y-11796000D01*
X18132862Y-11796000D01*
X18099295Y-11733200D01*
X18039572Y-11660428D01*
X17966800Y-11600705D01*
X17883775Y-11556327D01*
X17793688Y-11528999D01*
X17700000Y-11519772D01*
X17250000Y-11519772D01*
X17188990Y-11525781D01*
X17188990Y-11215562D01*
X17199719Y-11204833D01*
X17251434Y-11220520D01*
X17349999Y-11230228D01*
X17975001Y-11230228D01*
X18073566Y-11220520D01*
X18168343Y-11191770D01*
X18255690Y-11145082D01*
X18332250Y-11082250D01*
X18395082Y-11005690D01*
X18441770Y-10918343D01*
X18470520Y-10823566D01*
X18480228Y-10725001D01*
X18480228Y-9474999D01*
X18470520Y-9376434D01*
X18441770Y-9281657D01*
X18395082Y-9194310D01*
X18332250Y-9117750D01*
X18255690Y-9054918D01*
X18168343Y-9008230D01*
X18073566Y-8979480D01*
X17975001Y-8969772D01*
X17349999Y-8969772D01*
X17251434Y-8979480D01*
X17156657Y-9008230D01*
X17069310Y-9054918D01*
X16992750Y-9117750D01*
X16929918Y-9194310D01*
X16921201Y-9210618D01*
X16890949Y-9137582D01*
X16830320Y-9046845D01*
X16753155Y-8969680D01*
X16662418Y-8909051D01*
X16561596Y-8867289D01*
X16454564Y-8846000D01*
X16345436Y-8846000D01*
X16238404Y-8867289D01*
X16137582Y-8909051D01*
X16046845Y-8969680D01*
X15969680Y-9046845D01*
X15909051Y-9137582D01*
X15867289Y-9238404D01*
X15846000Y-9345436D01*
X15846000Y-9454564D01*
X15867289Y-9561596D01*
X15871315Y-9571315D01*
X15861596Y-9567289D01*
X15754564Y-9546000D01*
X15645436Y-9546000D01*
X15555228Y-9563943D01*
X15555228Y-9474999D01*
X15545520Y-9376434D01*
X15516770Y-9281657D01*
X15470082Y-9194310D01*
X15407250Y-9117750D01*
X15330690Y-9054918D01*
X15243343Y-9008230D01*
X15148566Y-8979480D01*
X15050001Y-8969772D01*
X14424999Y-8969772D01*
X14326434Y-8979480D01*
X14231657Y-9008230D01*
X14144310Y-9054918D01*
X14067750Y-9117750D01*
X14004918Y-9194310D01*
X13958230Y-9281657D01*
X13929480Y-9376434D01*
X13919772Y-9474999D01*
X13919772Y-10608500D01*
X13787785Y-10608500D01*
X13765497Y-10606305D01*
X13743209Y-10608500D01*
X13743203Y-10608500D01*
X13685799Y-10614154D01*
X13676498Y-10615070D01*
X13593306Y-10640306D01*
X13590919Y-10641030D01*
X13512049Y-10683187D01*
X13442919Y-10739921D01*
X13428708Y-10757237D01*
X11555228Y-12630718D01*
X11555228Y-11650000D01*
X11550324Y-11600207D01*
X11535800Y-11552328D01*
X11512214Y-11508203D01*
X11480473Y-11469527D01*
X11441797Y-11437786D01*
X11397672Y-11414200D01*
X11349793Y-11399676D01*
X11304000Y-11395166D01*
X11304000Y-10052345D01*
X11315100Y-10046412D01*
X11414685Y-9964685D01*
X11496412Y-9865101D01*
X11550978Y-9763014D01*
X11553519Y-9788811D01*
X11579424Y-9874208D01*
X11621492Y-9952911D01*
X11678105Y-10021895D01*
X11747089Y-10078508D01*
X11825792Y-10120576D01*
X11911189Y-10146481D01*
X12000000Y-10155228D01*
X12400000Y-10155228D01*
X12488811Y-10146481D01*
X12574208Y-10120576D01*
X12652911Y-10078508D01*
X12721895Y-10021895D01*
X12778508Y-9952911D01*
X12820576Y-9874208D01*
X12846481Y-9788811D01*
X12855228Y-9700000D01*
X12855228Y-8800000D01*
X12846481Y-8711189D01*
X12820576Y-8625792D01*
X12778508Y-8547089D01*
X12721895Y-8478105D01*
X12721859Y-8478075D01*
X12793688Y-8471001D01*
X12883775Y-8443673D01*
X12966800Y-8399295D01*
X13039572Y-8339572D01*
X13099295Y-8266800D01*
X13143673Y-8183775D01*
X13171001Y-8093688D01*
X13180228Y-8000000D01*
X13180228Y-7500000D01*
X13171001Y-7406312D01*
X13156070Y-7357093D01*
X17891818Y-7357093D01*
X19451667Y-8916944D01*
X19446000Y-8945436D01*
X19446000Y-9054564D01*
X19467289Y-9161596D01*
X19509051Y-9262418D01*
X19569680Y-9353155D01*
X19646845Y-9430320D01*
X19737582Y-9490949D01*
X19838404Y-9532711D01*
X19945436Y-9554000D01*
X20054564Y-9554000D01*
X20161596Y-9532711D01*
X20262418Y-9490949D01*
X20353155Y-9430320D01*
X20430320Y-9353155D01*
X20490949Y-9262418D01*
X20532711Y-9161596D01*
X20554000Y-9054564D01*
X20554000Y-8945436D01*
X20532711Y-8838404D01*
X20490949Y-8737582D01*
X20430320Y-8646845D01*
X20353155Y-8569680D01*
X20262418Y-8509051D01*
X20161596Y-8467289D01*
X20054564Y-8446000D01*
X19945436Y-8446000D01*
X19916944Y-8451667D01*
X18272158Y-6806883D01*
X18261856Y-6794330D01*
X18211760Y-6753217D01*
X18154605Y-6722667D01*
X18092588Y-6703854D01*
X18044247Y-6699093D01*
X18044237Y-6699093D01*
X18028093Y-6697503D01*
X18011949Y-6699093D01*
X16987682Y-6699093D01*
X17017711Y-6626596D01*
X17039000Y-6519564D01*
X17039000Y-6410436D01*
X17017711Y-6303404D01*
X16975949Y-6202582D01*
X16915320Y-6111845D01*
X16838155Y-6034680D01*
X16747418Y-5974051D01*
X16646596Y-5932289D01*
X16539564Y-5911000D01*
X16430436Y-5911000D01*
X16401943Y-5916667D01*
X16289065Y-5803790D01*
X16278763Y-5791237D01*
X16228667Y-5750124D01*
X16171512Y-5719574D01*
X16109495Y-5700761D01*
X16061154Y-5696000D01*
X16061144Y-5696000D01*
X16045000Y-5694410D01*
X16028856Y-5696000D01*
X15167873Y-5696000D01*
X15143673Y-5616225D01*
X15099295Y-5533200D01*
X15039572Y-5460428D01*
X14966800Y-5400705D01*
X14883775Y-5356327D01*
X14793688Y-5328999D01*
X14700000Y-5319772D01*
X14200000Y-5319772D01*
X14106312Y-5328999D01*
X14016225Y-5356327D01*
X13933200Y-5400705D01*
X13860428Y-5460428D01*
X13800705Y-5533200D01*
X13756327Y-5616225D01*
X13739711Y-5671000D01*
X13650289Y-5671000D01*
X13633673Y-5616225D01*
X13589295Y-5533200D01*
X13529572Y-5460428D01*
X13456800Y-5400705D01*
X13373775Y-5356327D01*
X13283688Y-5328999D01*
X13190000Y-5319772D01*
X12690000Y-5319772D01*
X12596312Y-5328999D01*
X12506225Y-5356327D01*
X12423200Y-5400705D01*
X12350428Y-5460428D01*
X12290705Y-5533200D01*
X12246327Y-5616225D01*
X12229711Y-5671000D01*
X12152705Y-5671000D01*
X12143673Y-5641225D01*
X12099295Y-5558200D01*
X12039572Y-5485428D01*
X11966800Y-5425705D01*
X11883775Y-5381327D01*
X11793688Y-5353999D01*
X11700000Y-5344772D01*
X11200000Y-5344772D01*
X11106312Y-5353999D01*
X11016225Y-5381327D01*
X10933200Y-5425705D01*
X10860428Y-5485428D01*
X10800705Y-5558200D01*
X10756327Y-5641225D01*
X10747295Y-5671000D01*
X10660289Y-5671000D01*
X10643673Y-5616225D01*
X10599295Y-5533200D01*
X10539572Y-5460428D01*
X10466800Y-5400705D01*
X10383775Y-5356327D01*
X10293688Y-5328999D01*
X10200000Y-5319772D01*
X9700000Y-5319772D01*
X9606312Y-5328999D01*
X9516225Y-5356327D01*
X9433200Y-5400705D01*
X9360428Y-5460428D01*
X9300705Y-5533200D01*
X9256327Y-5616225D01*
X9239711Y-5671000D01*
X8942373Y-5671000D01*
X8924999Y-5669289D01*
X8907625Y-5671000D01*
X8907618Y-5671000D01*
X8862436Y-5675450D01*
X8855603Y-5676123D01*
X8835361Y-5682264D01*
X8788875Y-5696365D01*
X8773990Y-5704321D01*
X8773990Y-4435499D01*
X9113570Y-4095920D01*
X9221503Y-4095920D01*
X9328535Y-4074631D01*
X9429357Y-4032869D01*
X9520094Y-3972240D01*
X9597259Y-3895075D01*
X9657888Y-3804338D01*
X9699650Y-3703516D01*
X9709499Y-3654000D01*
X13182626Y-3654000D01*
X13200000Y-3655711D01*
X13217374Y-3654000D01*
X13217382Y-3654000D01*
X13269396Y-3648877D01*
X13336125Y-3628635D01*
X13397623Y-3595764D01*
X13451526Y-3551526D01*
X13462612Y-3538019D01*
X13771369Y-3229262D01*
X13895738Y-3254000D01*
X14044262Y-3254000D01*
X14189934Y-3225024D01*
X14327153Y-3168186D01*
X14450647Y-3085670D01*
X14555670Y-2980647D01*
X14638186Y-2857153D01*
X14695024Y-2719934D01*
X14724000Y-2574262D01*
X14724000Y-2425738D01*
X14695024Y-2280066D01*
X14638186Y-2142847D01*
X14555670Y-2019353D01*
X14450647Y-1914330D01*
X14327153Y-1831814D01*
X14189934Y-1774976D01*
X14044262Y-1746000D01*
X13895738Y-1746000D01*
X13750066Y-1774976D01*
X13612847Y-1831814D01*
X13489353Y-1914330D01*
X13384330Y-2019353D01*
X13335000Y-2093181D01*
X13285670Y-2019353D01*
X13180647Y-1914330D01*
X13057153Y-1831814D01*
X13054000Y-1830508D01*
X13054000Y-1817374D01*
X13055711Y-1800000D01*
X13054000Y-1782625D01*
X13054000Y-1782618D01*
X13048877Y-1730604D01*
X13028635Y-1663875D01*
X12995764Y-1602377D01*
X12951526Y-1548474D01*
X12938018Y-1537388D01*
X12760142Y-1359512D01*
X12749056Y-1346004D01*
X12695153Y-1301766D01*
X12664839Y-1285563D01*
X13811416Y-1352343D01*
%TA.AperFunction,Conductor*%
D22*
G36*
X13811416Y-1352343D02*
G01*
X15154421Y-1589151D01*
X16460853Y-1980272D01*
X17713046Y-2520415D01*
X18894064Y-3202276D01*
X19987938Y-4016635D01*
X20979874Y-4952479D01*
X21856459Y-5997151D01*
X22605837Y-7136525D01*
X23217874Y-8355192D01*
X23684295Y-9636673D01*
X23998791Y-10963637D01*
X24157110Y-12318138D01*
X24157110Y-13681862D01*
X23998791Y-15036363D01*
X23684295Y-16363327D01*
X23217874Y-17644808D01*
X22605837Y-18863475D01*
X22504000Y-19018311D01*
X22504000Y-18935436D01*
X22482711Y-18828404D01*
X22440949Y-18727582D01*
X22380320Y-18636845D01*
X22303155Y-18559680D01*
X22212418Y-18499051D01*
X22111596Y-18457289D01*
X22004564Y-18436000D01*
X21895436Y-18436000D01*
X21788404Y-18457289D01*
X21687582Y-18499051D01*
X21596845Y-18559680D01*
X21569650Y-18586875D01*
X21543688Y-18578999D01*
X21450000Y-18569772D01*
X20950000Y-18569772D01*
X20856312Y-18578999D01*
X20766225Y-18606327D01*
X20683200Y-18650705D01*
X20610428Y-18710428D01*
X20550705Y-18783200D01*
X20506327Y-18866225D01*
X20478999Y-18956312D01*
X20469772Y-19050000D01*
X20469772Y-19500000D01*
X20478999Y-19593688D01*
X20506327Y-19683775D01*
X20550705Y-19766800D01*
X20610428Y-19839572D01*
X20683200Y-19899295D01*
X20766225Y-19943673D01*
X20856312Y-19971001D01*
X20950000Y-19980228D01*
X21450000Y-19980228D01*
X21543688Y-19971001D01*
X21633775Y-19943673D01*
X21716800Y-19899295D01*
X21789572Y-19839572D01*
X21849295Y-19766800D01*
X21893673Y-19683775D01*
X21921001Y-19593688D01*
X21925895Y-19544000D01*
X22004564Y-19544000D01*
X22111596Y-19522711D01*
X22194963Y-19488179D01*
X21856459Y-20002849D01*
X20979874Y-21047521D01*
X19987938Y-21983365D01*
X18894064Y-22797724D01*
X17713046Y-23479585D01*
X16460853Y-24019728D01*
X15154421Y-24410849D01*
X13811416Y-24647657D01*
X12450000Y-24726950D01*
X11088584Y-24647657D01*
X9745579Y-24410849D01*
X8439147Y-24019728D01*
X7186954Y-23479585D01*
X6261781Y-22945436D01*
X12646000Y-22945436D01*
X12646000Y-23054564D01*
X12667289Y-23161596D01*
X12709051Y-23262418D01*
X12769680Y-23353155D01*
X12846845Y-23430320D01*
X12937582Y-23490949D01*
X13038404Y-23532711D01*
X13145436Y-23554000D01*
X13254564Y-23554000D01*
X13361596Y-23532711D01*
X13462418Y-23490949D01*
X13553155Y-23430320D01*
X13630320Y-23353155D01*
X13690949Y-23262418D01*
X13732711Y-23161596D01*
X13745685Y-23096367D01*
X13780257Y-23061795D01*
X13797579Y-23047579D01*
X13854313Y-22978449D01*
X13870797Y-22947610D01*
X13883775Y-22943673D01*
X13966800Y-22899295D01*
X14039572Y-22839572D01*
X14099295Y-22766800D01*
X14132862Y-22704000D01*
X14382284Y-22704000D01*
X14437582Y-22740949D01*
X14538404Y-22782711D01*
X14645436Y-22804000D01*
X14754564Y-22804000D01*
X14861596Y-22782711D01*
X14962418Y-22740949D01*
X15053155Y-22680320D01*
X15130320Y-22603155D01*
X15190949Y-22512418D01*
X15232711Y-22411596D01*
X15254000Y-22304564D01*
X15254000Y-22195436D01*
X15232711Y-22088404D01*
X15190949Y-21987582D01*
X15130320Y-21896845D01*
X15053155Y-21819680D01*
X14962418Y-21759051D01*
X14861596Y-21717289D01*
X14754564Y-21696000D01*
X14645436Y-21696000D01*
X14538404Y-21717289D01*
X14437582Y-21759051D01*
X14382284Y-21796000D01*
X14132862Y-21796000D01*
X14099295Y-21733200D01*
X14039572Y-21660428D01*
X13966800Y-21600705D01*
X13883775Y-21556327D01*
X13793688Y-21528999D01*
X13700000Y-21519772D01*
X13250000Y-21519772D01*
X13156312Y-21528999D01*
X13066225Y-21556327D01*
X12983200Y-21600705D01*
X12910428Y-21660428D01*
X12850705Y-21733200D01*
X12806327Y-21816225D01*
X12778999Y-21906312D01*
X12769772Y-22000000D01*
X12769772Y-22500000D01*
X12778999Y-22593688D01*
X12789202Y-22627323D01*
X12769680Y-22646845D01*
X12709051Y-22737582D01*
X12667289Y-22838404D01*
X12646000Y-22945436D01*
X6261781Y-22945436D01*
X6005936Y-22797724D01*
X4912062Y-21983365D01*
X3920126Y-21047521D01*
X3414917Y-20445436D01*
X4146000Y-20445436D01*
X4146000Y-20554564D01*
X4167289Y-20661596D01*
X4209051Y-20762418D01*
X4269680Y-20853155D01*
X4346845Y-20930320D01*
X4437582Y-20990949D01*
X4538404Y-21032711D01*
X4645436Y-21054000D01*
X4753369Y-21054000D01*
X5437397Y-21738029D01*
X5448474Y-21751526D01*
X5461971Y-21762603D01*
X5461975Y-21762607D01*
X5479646Y-21777109D01*
X5502377Y-21795764D01*
X5563875Y-21828635D01*
X5630604Y-21848877D01*
X5682618Y-21854000D01*
X5682626Y-21854000D01*
X5700000Y-21855711D01*
X5717374Y-21854000D01*
X12432626Y-21854000D01*
X12450000Y-21855711D01*
X12467374Y-21854000D01*
X12467382Y-21854000D01*
X12519396Y-21848877D01*
X12586125Y-21828635D01*
X12647623Y-21795764D01*
X12701526Y-21751526D01*
X12712611Y-21738019D01*
X12938033Y-21512599D01*
X12951525Y-21501526D01*
X12962598Y-21488034D01*
X12962606Y-21488026D01*
X12995763Y-21447624D01*
X12995764Y-21447623D01*
X13028635Y-21386125D01*
X13048877Y-21319396D01*
X13054000Y-21267382D01*
X13054000Y-21267375D01*
X13055711Y-21250001D01*
X13054000Y-21232627D01*
X13054000Y-21121291D01*
X13124525Y-21099897D01*
X13316317Y-20997383D01*
X13484423Y-20859423D01*
X13622383Y-20691317D01*
X13724897Y-20499526D01*
X13788025Y-20291422D01*
X13804000Y-20129227D01*
X13804000Y-19870774D01*
X13788025Y-19708579D01*
X13724897Y-19500475D01*
X13631105Y-19325000D01*
X14094772Y-19325000D01*
X14094772Y-20675000D01*
X14104480Y-20773565D01*
X14133230Y-20868342D01*
X14179918Y-20955690D01*
X14242750Y-21032250D01*
X14319310Y-21095082D01*
X14406658Y-21141770D01*
X14501435Y-21170520D01*
X14600000Y-21180228D01*
X15800000Y-21180228D01*
X15898565Y-21170520D01*
X15993342Y-21141770D01*
X16080690Y-21095082D01*
X16157250Y-21032250D01*
X16220082Y-20955690D01*
X16266770Y-20868342D01*
X16295520Y-20773565D01*
X16305228Y-20675000D01*
X16305228Y-19325000D01*
X16295520Y-19226435D01*
X16266770Y-19131658D01*
X16220082Y-19044310D01*
X16157250Y-18967750D01*
X16080690Y-18904918D01*
X15993342Y-18858230D01*
X15898565Y-18829480D01*
X15800000Y-18819772D01*
X14600000Y-18819772D01*
X14501435Y-18829480D01*
X14406658Y-18858230D01*
X14319310Y-18904918D01*
X14242750Y-18967750D01*
X14179918Y-19044310D01*
X14133230Y-19131658D01*
X14104480Y-19226435D01*
X14094772Y-19325000D01*
X13631105Y-19325000D01*
X13622383Y-19308683D01*
X13484423Y-19140577D01*
X13316317Y-19002617D01*
X13124526Y-18900103D01*
X12916422Y-18836975D01*
X12700000Y-18815659D01*
X12483579Y-18836975D01*
X12275475Y-18900103D01*
X12083684Y-19002617D01*
X11915577Y-19140577D01*
X11777617Y-19308683D01*
X11675103Y-19500474D01*
X11611975Y-19708578D01*
X11596000Y-19870773D01*
X11596000Y-20129226D01*
X11611975Y-20291421D01*
X11675103Y-20499525D01*
X11777617Y-20691317D01*
X11915577Y-20859423D01*
X12083683Y-20997383D01*
X12275474Y-21099897D01*
X12332249Y-21117120D01*
X12303369Y-21146000D01*
X5846632Y-21146000D01*
X5254000Y-20553369D01*
X5254000Y-20445436D01*
X5232711Y-20338404D01*
X5190949Y-20237582D01*
X5130320Y-20146845D01*
X5053155Y-20069680D01*
X4962418Y-20009051D01*
X4861596Y-19967289D01*
X4754564Y-19946000D01*
X4645436Y-19946000D01*
X4538404Y-19967289D01*
X4437582Y-20009051D01*
X4346845Y-20069680D01*
X4269680Y-20146845D01*
X4209051Y-20237582D01*
X4167289Y-20338404D01*
X4146000Y-20445436D01*
X3414917Y-20445436D01*
X3043541Y-20002849D01*
X2294163Y-18863475D01*
X1833107Y-17945436D01*
X2746000Y-17945436D01*
X2746000Y-18054564D01*
X2767289Y-18161596D01*
X2809051Y-18262418D01*
X2869680Y-18353155D01*
X2946845Y-18430320D01*
X3037582Y-18490949D01*
X3138404Y-18532711D01*
X3245436Y-18554000D01*
X3354564Y-18554000D01*
X3461596Y-18532711D01*
X3562418Y-18490949D01*
X3653155Y-18430320D01*
X3730320Y-18353155D01*
X3790949Y-18262418D01*
X3832711Y-18161596D01*
X3854000Y-18054564D01*
X3854000Y-17945436D01*
X3832711Y-17838404D01*
X3790949Y-17737582D01*
X3730320Y-17646845D01*
X3653155Y-17569680D01*
X3562418Y-17509051D01*
X3461596Y-17467289D01*
X3354564Y-17446000D01*
X3245436Y-17446000D01*
X3138404Y-17467289D01*
X3037582Y-17509051D01*
X2946845Y-17569680D01*
X2869680Y-17646845D01*
X2809051Y-17737582D01*
X2767289Y-17838404D01*
X2746000Y-17945436D01*
X1833107Y-17945436D01*
X1682126Y-17644808D01*
X1518568Y-17195436D01*
X6396000Y-17195436D01*
X6396000Y-17304564D01*
X6417289Y-17411596D01*
X6459051Y-17512418D01*
X6519680Y-17603155D01*
X6596845Y-17680320D01*
X6687582Y-17740949D01*
X6788404Y-17782711D01*
X6895436Y-17804000D01*
X7004564Y-17804000D01*
X7111596Y-17782711D01*
X7212418Y-17740949D01*
X7271102Y-17701737D01*
X7336189Y-17721481D01*
X7425000Y-17730228D01*
X7854597Y-17730228D01*
X8702407Y-18578039D01*
X8713484Y-18591536D01*
X8726981Y-18602613D01*
X8726984Y-18602616D01*
X8731506Y-18606327D01*
X8767387Y-18635774D01*
X8828885Y-18668645D01*
X8875371Y-18682746D01*
X8895613Y-18688887D01*
X8902446Y-18689560D01*
X8947628Y-18694010D01*
X8947635Y-18694010D01*
X8965009Y-18695721D01*
X8982383Y-18694010D01*
X18567616Y-18694010D01*
X18584990Y-18695721D01*
X18602364Y-18694010D01*
X18602372Y-18694010D01*
X18654386Y-18688887D01*
X18721115Y-18668645D01*
X18782613Y-18635774D01*
X18836516Y-18591536D01*
X18847601Y-18578029D01*
X18995403Y-18430228D01*
X19450000Y-18430228D01*
X19543688Y-18421001D01*
X19633775Y-18393673D01*
X19716800Y-18349295D01*
X19789572Y-18289572D01*
X19849295Y-18216800D01*
X19893673Y-18133775D01*
X19910289Y-18079000D01*
X19957656Y-18079000D01*
X19975030Y-18080711D01*
X19992404Y-18079000D01*
X19992412Y-18079000D01*
X20044426Y-18073877D01*
X20111155Y-18053635D01*
X20119914Y-18048954D01*
X20145436Y-18054030D01*
X20254564Y-18054030D01*
X20361596Y-18032741D01*
X20462418Y-17990979D01*
X20553155Y-17930350D01*
X20630320Y-17853185D01*
X20690949Y-17762448D01*
X20732711Y-17661626D01*
X20754000Y-17554594D01*
X20754000Y-17445466D01*
X20732711Y-17338434D01*
X20690949Y-17237612D01*
X20630320Y-17146875D01*
X20553155Y-17069710D01*
X20462418Y-17009081D01*
X20361596Y-16967319D01*
X20254564Y-16946030D01*
X20145436Y-16946030D01*
X20038404Y-16967319D01*
X19937582Y-17009081D01*
X19846845Y-17069710D01*
X19771203Y-17145352D01*
X19716800Y-17100705D01*
X19633775Y-17056327D01*
X19543688Y-17028999D01*
X19450000Y-17019772D01*
X18950000Y-17019772D01*
X18856312Y-17028999D01*
X18766225Y-17056327D01*
X18683200Y-17100705D01*
X18610428Y-17160428D01*
X18550705Y-17233200D01*
X18506327Y-17316225D01*
X18478999Y-17406312D01*
X18469772Y-17500000D01*
X18469772Y-17950000D01*
X18470184Y-17954185D01*
X18438360Y-17986010D01*
X18176681Y-17986010D01*
X18180228Y-17950000D01*
X18180228Y-17550000D01*
X18171481Y-17461189D01*
X18145576Y-17375792D01*
X18103508Y-17297089D01*
X18046895Y-17228105D01*
X17977911Y-17171492D01*
X17899208Y-17129424D01*
X17813811Y-17103519D01*
X17804000Y-17102553D01*
X17804000Y-16896631D01*
X17962606Y-16738026D01*
X17962615Y-16738015D01*
X18146630Y-16554000D01*
X18254564Y-16554000D01*
X18361596Y-16532711D01*
X18462418Y-16490949D01*
X18553155Y-16430320D01*
X18630320Y-16353155D01*
X18690949Y-16262418D01*
X18732711Y-16161596D01*
X18754000Y-16054564D01*
X18754000Y-15945436D01*
X18732711Y-15838404D01*
X18690949Y-15737582D01*
X18630320Y-15646845D01*
X18553155Y-15569680D01*
X18462418Y-15509051D01*
X18361596Y-15467289D01*
X18254564Y-15446000D01*
X18145436Y-15446000D01*
X18038404Y-15467289D01*
X17937582Y-15509051D01*
X17846845Y-15569680D01*
X17769680Y-15646845D01*
X17709051Y-15737582D01*
X17667289Y-15838404D01*
X17646000Y-15945436D01*
X17646000Y-16053370D01*
X17461985Y-16237385D01*
X17461974Y-16237394D01*
X17211976Y-16487394D01*
X17198475Y-16498474D01*
X17154237Y-16552377D01*
X17142370Y-16574579D01*
X17121366Y-16613875D01*
X17101123Y-16680604D01*
X17094289Y-16750000D01*
X17096001Y-16767384D01*
X17096001Y-17102553D01*
X17086189Y-17103519D01*
X17000792Y-17129424D01*
X16922089Y-17171492D01*
X16853105Y-17228105D01*
X16796492Y-17297089D01*
X16754424Y-17375792D01*
X16728519Y-17461189D01*
X16719772Y-17550000D01*
X16719772Y-17950000D01*
X16723319Y-17986010D01*
X9111642Y-17986010D01*
X8427574Y-17301944D01*
X8430228Y-17275000D01*
X8430228Y-16875000D01*
X8421481Y-16786189D01*
X8395576Y-16700792D01*
X8353508Y-16622089D01*
X8296895Y-16553105D01*
X8227911Y-16496492D01*
X8149208Y-16454424D01*
X8063811Y-16428519D01*
X7975000Y-16419772D01*
X7425000Y-16419772D01*
X7336189Y-16428519D01*
X7250792Y-16454424D01*
X7172089Y-16496492D01*
X7103105Y-16553105D01*
X7046492Y-16622089D01*
X7006753Y-16696435D01*
X7004564Y-16696000D01*
X6895436Y-16696000D01*
X6788404Y-16717289D01*
X6687582Y-16759051D01*
X6596845Y-16819680D01*
X6519680Y-16896845D01*
X6459051Y-16987582D01*
X6417289Y-17088404D01*
X6396000Y-17195436D01*
X1518568Y-17195436D01*
X1215705Y-16363327D01*
X901209Y-15036363D01*
X827000Y-14401467D01*
X827000Y-11598533D01*
X901209Y-10963637D01*
X1215705Y-9636673D01*
X1682126Y-8355192D01*
X2294163Y-7136525D01*
X2969772Y-6109311D01*
X2969772Y-6575000D01*
X2978999Y-6668688D01*
X3006327Y-6758775D01*
X3050705Y-6841800D01*
X3110428Y-6914572D01*
X3183200Y-6974295D01*
X3266225Y-7018673D01*
X3321000Y-7035289D01*
X3321000Y-7204878D01*
X3316225Y-7206327D01*
X3233200Y-7250705D01*
X3218268Y-7262960D01*
X3212418Y-7259051D01*
X3111596Y-7217289D01*
X3004564Y-7196000D01*
X2895436Y-7196000D01*
X2788404Y-7217289D01*
X2687582Y-7259051D01*
X2596845Y-7319680D01*
X2519680Y-7396845D01*
X2459051Y-7487582D01*
X2417289Y-7588404D01*
X2396000Y-7695436D01*
X2396000Y-7804564D01*
X2417289Y-7911596D01*
X2459051Y-8012418D01*
X2519680Y-8103155D01*
X2596845Y-8180320D01*
X2687582Y-8240949D01*
X2788404Y-8282711D01*
X2895436Y-8304000D01*
X3004564Y-8304000D01*
X3044863Y-8295984D01*
X3056327Y-8333775D01*
X3100705Y-8416800D01*
X3160428Y-8489572D01*
X3233200Y-8549295D01*
X3316225Y-8593673D01*
X3321000Y-8595122D01*
X3321000Y-8743362D01*
X3311225Y-8746327D01*
X3228200Y-8790705D01*
X3155428Y-8850428D01*
X3095705Y-8923200D01*
X3051327Y-9006225D01*
X3023999Y-9096312D01*
X3014772Y-9190000D01*
X3014772Y-9690000D01*
X3023999Y-9783688D01*
X3051327Y-9873775D01*
X3095705Y-9956800D01*
X3155428Y-10029572D01*
X3228200Y-10089295D01*
X3311225Y-10133673D01*
X3401312Y-10161001D01*
X3495000Y-10170228D01*
X3945000Y-10170228D01*
X4038688Y-10161001D01*
X4128775Y-10133673D01*
X4211800Y-10089295D01*
X4284572Y-10029572D01*
X4344295Y-9956800D01*
X4388673Y-9873775D01*
X4416001Y-9783688D01*
X4425228Y-9690000D01*
X4425228Y-9190000D01*
X4416001Y-9096312D01*
X4388673Y-9006225D01*
X4344295Y-8923200D01*
X4284572Y-8850428D01*
X4211800Y-8790705D01*
X4128775Y-8746327D01*
X4038688Y-8718999D01*
X4029000Y-8718045D01*
X4029000Y-8622448D01*
X4043688Y-8621001D01*
X4133775Y-8593673D01*
X4216800Y-8549295D01*
X4289572Y-8489572D01*
X4349295Y-8416800D01*
X4393673Y-8333775D01*
X4421001Y-8243688D01*
X4430228Y-8150000D01*
X4430228Y-7650000D01*
X4421001Y-7556312D01*
X4393673Y-7466225D01*
X4349295Y-7383200D01*
X4289572Y-7310428D01*
X4216800Y-7250705D01*
X4133775Y-7206327D01*
X4043688Y-7178999D01*
X4029000Y-7177552D01*
X4029000Y-7035289D01*
X4083775Y-7018673D01*
X4166800Y-6974295D01*
X4239572Y-6914572D01*
X4299295Y-6841800D01*
X4343673Y-6758775D01*
X4371001Y-6668688D01*
X4380228Y-6575000D01*
X4380228Y-6075000D01*
X4371001Y-5981312D01*
X4343673Y-5891225D01*
X4299295Y-5808200D01*
X4239572Y-5735428D01*
X4166800Y-5675705D01*
X4083775Y-5631327D01*
X3993688Y-5603999D01*
X3900000Y-5594772D01*
X3450000Y-5594772D01*
X3374978Y-5602161D01*
X3920126Y-4952479D01*
X4192575Y-4695436D01*
X5646000Y-4695436D01*
X5646000Y-4804564D01*
X5667289Y-4911596D01*
X5709051Y-5012418D01*
X5769680Y-5103155D01*
X5846000Y-5179475D01*
X5846001Y-6820524D01*
X5769680Y-6896845D01*
X5709051Y-6987582D01*
X5667289Y-7088404D01*
X5646000Y-7195436D01*
X5646000Y-7304564D01*
X5667289Y-7411596D01*
X5709051Y-7512418D01*
X5769680Y-7603155D01*
X5846845Y-7680320D01*
X5937582Y-7740949D01*
X6038404Y-7782711D01*
X6145436Y-7804000D01*
X6254564Y-7804000D01*
X6361596Y-7782711D01*
X6462418Y-7740949D01*
X6553155Y-7680320D01*
X6630320Y-7603155D01*
X6690949Y-7512418D01*
X6732711Y-7411596D01*
X6754000Y-7304564D01*
X6754000Y-7195436D01*
X6732711Y-7088404D01*
X6690949Y-6987582D01*
X6630320Y-6896845D01*
X6554000Y-6820525D01*
X6554000Y-5179475D01*
X6630320Y-5103155D01*
X6690949Y-5012418D01*
X6732711Y-4911596D01*
X6754000Y-4804564D01*
X6754000Y-4695436D01*
X6732711Y-4588404D01*
X6690949Y-4487582D01*
X6630320Y-4396845D01*
X6553155Y-4319680D01*
X6462418Y-4259051D01*
X6361596Y-4217289D01*
X6254564Y-4196000D01*
X6145436Y-4196000D01*
X6038404Y-4217289D01*
X5937582Y-4259051D01*
X5846845Y-4319680D01*
X5769680Y-4396845D01*
X5709051Y-4487582D01*
X5667289Y-4588404D01*
X5646000Y-4695436D01*
X4192575Y-4695436D01*
X4912062Y-4016635D01*
X6005936Y-3202276D01*
X7186954Y-2520415D01*
X7399306Y-2428815D01*
X7396000Y-2445436D01*
X7396000Y-2554564D01*
X7417289Y-2661596D01*
X7459051Y-2762418D01*
X7519680Y-2853155D01*
X7596845Y-2930320D01*
X7687582Y-2990949D01*
X7788404Y-3032711D01*
X7876075Y-3050149D01*
X7846845Y-3069680D01*
X7769680Y-3146845D01*
X7709051Y-3237582D01*
X7667289Y-3338404D01*
X7646000Y-3445436D01*
X7646000Y-3553369D01*
X6961977Y-4237393D01*
X6948475Y-4248474D01*
X6904237Y-4302377D01*
X6874365Y-4358265D01*
X6871366Y-4363875D01*
X6851123Y-4430604D01*
X6844289Y-4500000D01*
X6846001Y-4517384D01*
X6846000Y-7017381D01*
X6846001Y-7017391D01*
X6846000Y-9233087D01*
X5748185Y-10330903D01*
X5640251Y-10330903D01*
X5533219Y-10352192D01*
X5432397Y-10393954D01*
X5341660Y-10454583D01*
X5264495Y-10531748D01*
X5203866Y-10622485D01*
X5162104Y-10723307D01*
X5158609Y-10740878D01*
X4915805Y-10640306D01*
X4441698Y-10546000D01*
X3958302Y-10546000D01*
X3484195Y-10640306D01*
X3037595Y-10825293D01*
X2635666Y-11093854D01*
X2293854Y-11435666D01*
X2025293Y-11837595D01*
X1840306Y-12284195D01*
X1746000Y-12758302D01*
X1746000Y-13241698D01*
X1840306Y-13715805D01*
X2025293Y-14162405D01*
X2293854Y-14564334D01*
X2635666Y-14906146D01*
X3037595Y-15174707D01*
X3484195Y-15359694D01*
X3958302Y-15454000D01*
X4441698Y-15454000D01*
X4484752Y-15445436D01*
X5646000Y-15445436D01*
X5646000Y-15554564D01*
X5667289Y-15661596D01*
X5709051Y-15762418D01*
X5769680Y-15853155D01*
X5846845Y-15930320D01*
X5937582Y-15990949D01*
X6038404Y-16032711D01*
X6145436Y-16054000D01*
X6254564Y-16054000D01*
X6361596Y-16032711D01*
X6462418Y-15990949D01*
X6553155Y-15930320D01*
X6630320Y-15853155D01*
X6646460Y-15829000D01*
X7020348Y-15829000D01*
X7046492Y-15877911D01*
X7103105Y-15946895D01*
X7172089Y-16003508D01*
X7250792Y-16045576D01*
X7336189Y-16071481D01*
X7425000Y-16080228D01*
X7975000Y-16080228D01*
X8063811Y-16071481D01*
X8149208Y-16045576D01*
X8227911Y-16003508D01*
X8296895Y-15946895D01*
X8353508Y-15877911D01*
X8395576Y-15799208D01*
X8421481Y-15713811D01*
X8430228Y-15625000D01*
X8430228Y-15225000D01*
X8421481Y-15136189D01*
X8395576Y-15050792D01*
X8353508Y-14972089D01*
X8296895Y-14903105D01*
X8227911Y-14846492D01*
X8149208Y-14804424D01*
X8063811Y-14778519D01*
X7975000Y-14769772D01*
X7425000Y-14769772D01*
X7336189Y-14778519D01*
X7250792Y-14804424D01*
X7172089Y-14846492D01*
X7103105Y-14903105D01*
X7046492Y-14972089D01*
X7004424Y-15050792D01*
X6978519Y-15136189D01*
X6975090Y-15171000D01*
X6646460Y-15171000D01*
X6630320Y-15146845D01*
X6553155Y-15069680D01*
X6462418Y-15009051D01*
X6361596Y-14967289D01*
X6254564Y-14946000D01*
X6145436Y-14946000D01*
X6038404Y-14967289D01*
X5937582Y-15009051D01*
X5846845Y-15069680D01*
X5769680Y-15146845D01*
X5709051Y-15237582D01*
X5667289Y-15338404D01*
X5646000Y-15445436D01*
X4484752Y-15445436D01*
X4915805Y-15359694D01*
X5362405Y-15174707D01*
X5764334Y-14906146D01*
X6106146Y-14564334D01*
X6374707Y-14162405D01*
X6559694Y-13715805D01*
X6611770Y-13454000D01*
X7074731Y-13454000D01*
X10194772Y-16574042D01*
X10194772Y-17000000D01*
X10199676Y-17049793D01*
X10214200Y-17097672D01*
X10237786Y-17141797D01*
X10269527Y-17180473D01*
X10308203Y-17212214D01*
X10352328Y-17235800D01*
X10400207Y-17250324D01*
X10450000Y-17255228D01*
X11350000Y-17255228D01*
X11399793Y-17250324D01*
X11447672Y-17235800D01*
X11491797Y-17212214D01*
X11530473Y-17180473D01*
X11562214Y-17141797D01*
X11585800Y-17097672D01*
X11600324Y-17049793D01*
X11605228Y-17000000D01*
X11605228Y-16336825D01*
X11865254Y-16076799D01*
X11882569Y-16062589D01*
X11939303Y-15993459D01*
X11981460Y-15914589D01*
X12004570Y-15838404D01*
X12007420Y-15829010D01*
X12010355Y-15799208D01*
X12013990Y-15762305D01*
X12013990Y-15762298D01*
X12016185Y-15740010D01*
X12013990Y-15717722D01*
X12013990Y-15190188D01*
X12083683Y-15247383D01*
X12275474Y-15349897D01*
X12483578Y-15413025D01*
X12700000Y-15434341D01*
X12916421Y-15413025D01*
X13124525Y-15349897D01*
X13316317Y-15247383D01*
X13484423Y-15109423D01*
X13622383Y-14941317D01*
X13724897Y-14749526D01*
X13788025Y-14541422D01*
X13804000Y-14379227D01*
X13804000Y-14120774D01*
X13788025Y-13958579D01*
X13724897Y-13750475D01*
X13622383Y-13558683D01*
X13484423Y-13390577D01*
X13316317Y-13252617D01*
X13124526Y-13150103D01*
X12916422Y-13086975D01*
X12700000Y-13065659D01*
X12483579Y-13086975D01*
X12339312Y-13130738D01*
X13444772Y-12025279D01*
X13444772Y-12850000D01*
X13449676Y-12899793D01*
X13464200Y-12947672D01*
X13487786Y-12991797D01*
X13519527Y-13030473D01*
X13558203Y-13062214D01*
X13602328Y-13085800D01*
X13650207Y-13100324D01*
X13696001Y-13104834D01*
X13696001Y-13177702D01*
X13693805Y-13200000D01*
X13702570Y-13288999D01*
X13728530Y-13374578D01*
X13737082Y-13390577D01*
X13770688Y-13453449D01*
X13827422Y-13522579D01*
X13844738Y-13536790D01*
X14094772Y-13786824D01*
X14094772Y-14925000D01*
X14104480Y-15023565D01*
X14133230Y-15118342D01*
X14179918Y-15205690D01*
X14242750Y-15282250D01*
X14319310Y-15345082D01*
X14406658Y-15391770D01*
X14501435Y-15420520D01*
X14600000Y-15430228D01*
X15416412Y-15430228D01*
X14905228Y-15941412D01*
X14905228Y-15800000D01*
X14900324Y-15750207D01*
X14885800Y-15702328D01*
X14862214Y-15658203D01*
X14830473Y-15619527D01*
X14791797Y-15587786D01*
X14747672Y-15564200D01*
X14699793Y-15549676D01*
X14650000Y-15544772D01*
X13750000Y-15544772D01*
X13700207Y-15549676D01*
X13652328Y-15564200D01*
X13608203Y-15587786D01*
X13569527Y-15619527D01*
X13537786Y-15658203D01*
X13514200Y-15702328D01*
X13499676Y-15750207D01*
X13494772Y-15800000D01*
X13494772Y-17000000D01*
X13499676Y-17049793D01*
X13514200Y-17097672D01*
X13537786Y-17141797D01*
X13569527Y-17180473D01*
X13608203Y-17212214D01*
X13652328Y-17235800D01*
X13700207Y-17250324D01*
X13750000Y-17255228D01*
X14650000Y-17255228D01*
X14699793Y-17250324D01*
X14747672Y-17235800D01*
X14791797Y-17212214D01*
X14830473Y-17180473D01*
X14862214Y-17141797D01*
X14885800Y-17097672D01*
X14900324Y-17049793D01*
X14905228Y-17000000D01*
X14905228Y-16854000D01*
X15066404Y-16854000D01*
X15088692Y-16856195D01*
X15110980Y-16854000D01*
X15110987Y-16854000D01*
X15177691Y-16847430D01*
X15263271Y-16821470D01*
X15342141Y-16779313D01*
X15411271Y-16722579D01*
X15425486Y-16705258D01*
X17780264Y-14350481D01*
X17797579Y-14336271D01*
X17854313Y-14267141D01*
X17896470Y-14188271D01*
X17904742Y-14161001D01*
X17922430Y-14102692D01*
X17925116Y-14075421D01*
X17929000Y-14035987D01*
X17929000Y-14035981D01*
X17931195Y-14013693D01*
X17929000Y-13991405D01*
X17929000Y-12919500D01*
X17966800Y-12899295D01*
X18039572Y-12839572D01*
X18099295Y-12766800D01*
X18132862Y-12704000D01*
X18256801Y-12704000D01*
X18246000Y-12758302D01*
X18246000Y-13241698D01*
X18340306Y-13715805D01*
X18525293Y-14162405D01*
X18793854Y-14564334D01*
X19135666Y-14906146D01*
X19537595Y-15174707D01*
X19984195Y-15359694D01*
X20458302Y-15454000D01*
X20941698Y-15454000D01*
X21415805Y-15359694D01*
X21862405Y-15174707D01*
X22264334Y-14906146D01*
X22606146Y-14564334D01*
X22874707Y-14162405D01*
X23059694Y-13715805D01*
X23154000Y-13241698D01*
X23154000Y-12758302D01*
X23059694Y-12284195D01*
X22874707Y-11837595D01*
X22606146Y-11435666D01*
X22264334Y-11093854D01*
X21862405Y-10825293D01*
X21415805Y-10640306D01*
X20941698Y-10546000D01*
X20458302Y-10546000D01*
X19984195Y-10640306D01*
X19537595Y-10825293D01*
X19135666Y-11093854D01*
X18793854Y-11435666D01*
X18553086Y-11796000D01*
X18132862Y-11796000D01*
X18099295Y-11733200D01*
X18039572Y-11660428D01*
X17966800Y-11600705D01*
X17883775Y-11556327D01*
X17793688Y-11528999D01*
X17700000Y-11519772D01*
X17250000Y-11519772D01*
X17188990Y-11525781D01*
X17188990Y-11215562D01*
X17199719Y-11204833D01*
X17251434Y-11220520D01*
X17349999Y-11230228D01*
X17975001Y-11230228D01*
X18073566Y-11220520D01*
X18168343Y-11191770D01*
X18255690Y-11145082D01*
X18332250Y-11082250D01*
X18395082Y-11005690D01*
X18441770Y-10918343D01*
X18470520Y-10823566D01*
X18480228Y-10725001D01*
X18480228Y-9474999D01*
X18470520Y-9376434D01*
X18441770Y-9281657D01*
X18395082Y-9194310D01*
X18332250Y-9117750D01*
X18255690Y-9054918D01*
X18168343Y-9008230D01*
X18073566Y-8979480D01*
X17975001Y-8969772D01*
X17349999Y-8969772D01*
X17251434Y-8979480D01*
X17156657Y-9008230D01*
X17069310Y-9054918D01*
X16992750Y-9117750D01*
X16929918Y-9194310D01*
X16921201Y-9210618D01*
X16890949Y-9137582D01*
X16830320Y-9046845D01*
X16753155Y-8969680D01*
X16662418Y-8909051D01*
X16561596Y-8867289D01*
X16454564Y-8846000D01*
X16345436Y-8846000D01*
X16238404Y-8867289D01*
X16137582Y-8909051D01*
X16046845Y-8969680D01*
X15969680Y-9046845D01*
X15909051Y-9137582D01*
X15867289Y-9238404D01*
X15846000Y-9345436D01*
X15846000Y-9454564D01*
X15867289Y-9561596D01*
X15871315Y-9571315D01*
X15861596Y-9567289D01*
X15754564Y-9546000D01*
X15645436Y-9546000D01*
X15555228Y-9563943D01*
X15555228Y-9474999D01*
X15545520Y-9376434D01*
X15516770Y-9281657D01*
X15470082Y-9194310D01*
X15407250Y-9117750D01*
X15330690Y-9054918D01*
X15243343Y-9008230D01*
X15148566Y-8979480D01*
X15050001Y-8969772D01*
X14424999Y-8969772D01*
X14326434Y-8979480D01*
X14231657Y-9008230D01*
X14144310Y-9054918D01*
X14067750Y-9117750D01*
X14004918Y-9194310D01*
X13958230Y-9281657D01*
X13929480Y-9376434D01*
X13919772Y-9474999D01*
X13919772Y-10608500D01*
X13787785Y-10608500D01*
X13765497Y-10606305D01*
X13743209Y-10608500D01*
X13743203Y-10608500D01*
X13685799Y-10614154D01*
X13676498Y-10615070D01*
X13593306Y-10640306D01*
X13590919Y-10641030D01*
X13512049Y-10683187D01*
X13442919Y-10739921D01*
X13428708Y-10757237D01*
X11555228Y-12630718D01*
X11555228Y-11650000D01*
X11550324Y-11600207D01*
X11535800Y-11552328D01*
X11512214Y-11508203D01*
X11480473Y-11469527D01*
X11441797Y-11437786D01*
X11397672Y-11414200D01*
X11349793Y-11399676D01*
X11304000Y-11395166D01*
X11304000Y-10052345D01*
X11315100Y-10046412D01*
X11414685Y-9964685D01*
X11496412Y-9865101D01*
X11550978Y-9763014D01*
X11553519Y-9788811D01*
X11579424Y-9874208D01*
X11621492Y-9952911D01*
X11678105Y-10021895D01*
X11747089Y-10078508D01*
X11825792Y-10120576D01*
X11911189Y-10146481D01*
X12000000Y-10155228D01*
X12400000Y-10155228D01*
X12488811Y-10146481D01*
X12574208Y-10120576D01*
X12652911Y-10078508D01*
X12721895Y-10021895D01*
X12778508Y-9952911D01*
X12820576Y-9874208D01*
X12846481Y-9788811D01*
X12855228Y-9700000D01*
X12855228Y-8800000D01*
X12846481Y-8711189D01*
X12820576Y-8625792D01*
X12778508Y-8547089D01*
X12721895Y-8478105D01*
X12721859Y-8478075D01*
X12793688Y-8471001D01*
X12883775Y-8443673D01*
X12966800Y-8399295D01*
X13039572Y-8339572D01*
X13099295Y-8266800D01*
X13143673Y-8183775D01*
X13171001Y-8093688D01*
X13180228Y-8000000D01*
X13180228Y-7500000D01*
X13171001Y-7406312D01*
X13156070Y-7357093D01*
X17891818Y-7357093D01*
X19451667Y-8916944D01*
X19446000Y-8945436D01*
X19446000Y-9054564D01*
X19467289Y-9161596D01*
X19509051Y-9262418D01*
X19569680Y-9353155D01*
X19646845Y-9430320D01*
X19737582Y-9490949D01*
X19838404Y-9532711D01*
X19945436Y-9554000D01*
X20054564Y-9554000D01*
X20161596Y-9532711D01*
X20262418Y-9490949D01*
X20353155Y-9430320D01*
X20430320Y-9353155D01*
X20490949Y-9262418D01*
X20532711Y-9161596D01*
X20554000Y-9054564D01*
X20554000Y-8945436D01*
X20532711Y-8838404D01*
X20490949Y-8737582D01*
X20430320Y-8646845D01*
X20353155Y-8569680D01*
X20262418Y-8509051D01*
X20161596Y-8467289D01*
X20054564Y-8446000D01*
X19945436Y-8446000D01*
X19916944Y-8451667D01*
X18272158Y-6806883D01*
X18261856Y-6794330D01*
X18211760Y-6753217D01*
X18154605Y-6722667D01*
X18092588Y-6703854D01*
X18044247Y-6699093D01*
X18044237Y-6699093D01*
X18028093Y-6697503D01*
X18011949Y-6699093D01*
X16987682Y-6699093D01*
X17017711Y-6626596D01*
X17039000Y-6519564D01*
X17039000Y-6410436D01*
X17017711Y-6303404D01*
X16975949Y-6202582D01*
X16915320Y-6111845D01*
X16838155Y-6034680D01*
X16747418Y-5974051D01*
X16646596Y-5932289D01*
X16539564Y-5911000D01*
X16430436Y-5911000D01*
X16401943Y-5916667D01*
X16289065Y-5803790D01*
X16278763Y-5791237D01*
X16228667Y-5750124D01*
X16171512Y-5719574D01*
X16109495Y-5700761D01*
X16061154Y-5696000D01*
X16061144Y-5696000D01*
X16045000Y-5694410D01*
X16028856Y-5696000D01*
X15167873Y-5696000D01*
X15143673Y-5616225D01*
X15099295Y-5533200D01*
X15039572Y-5460428D01*
X14966800Y-5400705D01*
X14883775Y-5356327D01*
X14793688Y-5328999D01*
X14700000Y-5319772D01*
X14200000Y-5319772D01*
X14106312Y-5328999D01*
X14016225Y-5356327D01*
X13933200Y-5400705D01*
X13860428Y-5460428D01*
X13800705Y-5533200D01*
X13756327Y-5616225D01*
X13739711Y-5671000D01*
X13650289Y-5671000D01*
X13633673Y-5616225D01*
X13589295Y-5533200D01*
X13529572Y-5460428D01*
X13456800Y-5400705D01*
X13373775Y-5356327D01*
X13283688Y-5328999D01*
X13190000Y-5319772D01*
X12690000Y-5319772D01*
X12596312Y-5328999D01*
X12506225Y-5356327D01*
X12423200Y-5400705D01*
X12350428Y-5460428D01*
X12290705Y-5533200D01*
X12246327Y-5616225D01*
X12229711Y-5671000D01*
X12152705Y-5671000D01*
X12143673Y-5641225D01*
X12099295Y-5558200D01*
X12039572Y-5485428D01*
X11966800Y-5425705D01*
X11883775Y-5381327D01*
X11793688Y-5353999D01*
X11700000Y-5344772D01*
X11200000Y-5344772D01*
X11106312Y-5353999D01*
X11016225Y-5381327D01*
X10933200Y-5425705D01*
X10860428Y-5485428D01*
X10800705Y-5558200D01*
X10756327Y-5641225D01*
X10747295Y-5671000D01*
X10660289Y-5671000D01*
X10643673Y-5616225D01*
X10599295Y-5533200D01*
X10539572Y-5460428D01*
X10466800Y-5400705D01*
X10383775Y-5356327D01*
X10293688Y-5328999D01*
X10200000Y-5319772D01*
X9700000Y-5319772D01*
X9606312Y-5328999D01*
X9516225Y-5356327D01*
X9433200Y-5400705D01*
X9360428Y-5460428D01*
X9300705Y-5533200D01*
X9256327Y-5616225D01*
X9239711Y-5671000D01*
X8942373Y-5671000D01*
X8924999Y-5669289D01*
X8907625Y-5671000D01*
X8907618Y-5671000D01*
X8862436Y-5675450D01*
X8855603Y-5676123D01*
X8835361Y-5682264D01*
X8788875Y-5696365D01*
X8773990Y-5704321D01*
X8773990Y-4435499D01*
X9113570Y-4095920D01*
X9221503Y-4095920D01*
X9328535Y-4074631D01*
X9429357Y-4032869D01*
X9520094Y-3972240D01*
X9597259Y-3895075D01*
X9657888Y-3804338D01*
X9699650Y-3703516D01*
X9709499Y-3654000D01*
X13182626Y-3654000D01*
X13200000Y-3655711D01*
X13217374Y-3654000D01*
X13217382Y-3654000D01*
X13269396Y-3648877D01*
X13336125Y-3628635D01*
X13397623Y-3595764D01*
X13451526Y-3551526D01*
X13462612Y-3538019D01*
X13771369Y-3229262D01*
X13895738Y-3254000D01*
X14044262Y-3254000D01*
X14189934Y-3225024D01*
X14327153Y-3168186D01*
X14450647Y-3085670D01*
X14555670Y-2980647D01*
X14638186Y-2857153D01*
X14695024Y-2719934D01*
X14724000Y-2574262D01*
X14724000Y-2425738D01*
X14695024Y-2280066D01*
X14638186Y-2142847D01*
X14555670Y-2019353D01*
X14450647Y-1914330D01*
X14327153Y-1831814D01*
X14189934Y-1774976D01*
X14044262Y-1746000D01*
X13895738Y-1746000D01*
X13750066Y-1774976D01*
X13612847Y-1831814D01*
X13489353Y-1914330D01*
X13384330Y-2019353D01*
X13335000Y-2093181D01*
X13285670Y-2019353D01*
X13180647Y-1914330D01*
X13057153Y-1831814D01*
X13054000Y-1830508D01*
X13054000Y-1817374D01*
X13055711Y-1800000D01*
X13054000Y-1782625D01*
X13054000Y-1782618D01*
X13048877Y-1730604D01*
X13028635Y-1663875D01*
X12995764Y-1602377D01*
X12951526Y-1548474D01*
X12938018Y-1537388D01*
X12760142Y-1359512D01*
X12749056Y-1346004D01*
X12695153Y-1301766D01*
X12664839Y-1285563D01*
X13811416Y-1352343D01*
G37*
%TD.AperFunction*%
D21*
X8124227Y-4091246D02*
X8121729Y-4095920D01*
X8091356Y-4152744D01*
X8071113Y-4219473D01*
X8064279Y-4288869D01*
X8065991Y-4306253D01*
X8065990Y-7702616D01*
X8064279Y-7719990D01*
X8065990Y-7737364D01*
X8065990Y-7737371D01*
X8071113Y-7789385D01*
X8091355Y-7856114D01*
X8124226Y-7917612D01*
X8168464Y-7971515D01*
X8181968Y-7982598D01*
X8896000Y-8696631D01*
X8896000Y-8804564D01*
X8917289Y-8911596D01*
X8959051Y-9012418D01*
X9019680Y-9103155D01*
X9096845Y-9180320D01*
X9187582Y-9240949D01*
X9288404Y-9282711D01*
X9395436Y-9304000D01*
X9504564Y-9304000D01*
X9611596Y-9282711D01*
X9712418Y-9240949D01*
X9803155Y-9180320D01*
X9880320Y-9103155D01*
X9940949Y-9012418D01*
X9982711Y-8911596D01*
X10004000Y-8804564D01*
X10004000Y-8695436D01*
X9982711Y-8588404D01*
X9940949Y-8487582D01*
X9880320Y-8396845D01*
X9803155Y-8319680D01*
X9779560Y-8303915D01*
X9830320Y-8253155D01*
X9890949Y-8162418D01*
X9932711Y-8061596D01*
X9954000Y-7954564D01*
X9954000Y-7845436D01*
X9932711Y-7738404D01*
X9890949Y-7637582D01*
X9830320Y-7546845D01*
X9816674Y-7533199D01*
X9850851Y-7519042D01*
X9941588Y-7458413D01*
X10018753Y-7381248D01*
X10034893Y-7357093D01*
X10243930Y-7357093D01*
X10228999Y-7406312D01*
X10219772Y-7500000D01*
X10219772Y-8000000D01*
X10228999Y-8093688D01*
X10256327Y-8183775D01*
X10300705Y-8266800D01*
X10360428Y-8339572D01*
X10433200Y-8399295D01*
X10496001Y-8432863D01*
X10496000Y-8526546D01*
X10485316Y-8535315D01*
X10403588Y-8634899D01*
X10342860Y-8748514D01*
X10305463Y-8871794D01*
X10296000Y-8967875D01*
X10296000Y-9532124D01*
X10305463Y-9628205D01*
X10342860Y-9751485D01*
X10396001Y-9850905D01*
X10396000Y-11395166D01*
X10350207Y-11399676D01*
X10302328Y-11414200D01*
X10258203Y-11437786D01*
X10219527Y-11469527D01*
X10187786Y-11508203D01*
X10164200Y-11552328D01*
X10149676Y-11600207D01*
X10144772Y-11650000D01*
X10144772Y-12850000D01*
X10149676Y-12899793D01*
X10164200Y-12947672D01*
X10187786Y-12991797D01*
X10219527Y-13030473D01*
X10258203Y-13062214D01*
X10302328Y-13085800D01*
X10350207Y-13100324D01*
X10400000Y-13105228D01*
X11134941Y-13105228D01*
X11112560Y-13179009D01*
X11103795Y-13268008D01*
X11105991Y-13290306D01*
X11105990Y-15544772D01*
X10450000Y-15544772D01*
X10449643Y-15544807D01*
X7599577Y-12694742D01*
X7585362Y-12677421D01*
X7516232Y-12620687D01*
X7437362Y-12578530D01*
X7351782Y-12552570D01*
X7285078Y-12546000D01*
X7285071Y-12546000D01*
X7262783Y-12543805D01*
X7240495Y-12546000D01*
X6611770Y-12546000D01*
X6559694Y-12284195D01*
X6374707Y-11837595D01*
X6106146Y-11435666D01*
X6010644Y-11340164D01*
X6047970Y-11315223D01*
X6125135Y-11238058D01*
X6185764Y-11147321D01*
X6227526Y-11046499D01*
X6248815Y-10939467D01*
X6248815Y-10831533D01*
X7438028Y-9642321D01*
X7451525Y-9631244D01*
X7462603Y-9617746D01*
X7462606Y-9617743D01*
X7474338Y-9603448D01*
X7495764Y-9577341D01*
X7528635Y-9515843D01*
X7548877Y-9449114D01*
X7554000Y-9397100D01*
X7554000Y-9397093D01*
X7555711Y-9379719D01*
X7554000Y-9362344D01*
X7554000Y-4646630D01*
X8146631Y-4054000D01*
X8154795Y-4054000D01*
X8124227Y-4091246D01*
%TA.AperFunction,Conductor*%
D22*
G36*
X8124227Y-4091246D02*
G01*
X8121729Y-4095920D01*
X8091356Y-4152744D01*
X8071113Y-4219473D01*
X8064279Y-4288869D01*
X8065991Y-4306253D01*
X8065990Y-7702616D01*
X8064279Y-7719990D01*
X8065990Y-7737364D01*
X8065990Y-7737371D01*
X8071113Y-7789385D01*
X8091355Y-7856114D01*
X8124226Y-7917612D01*
X8168464Y-7971515D01*
X8181968Y-7982598D01*
X8896000Y-8696631D01*
X8896000Y-8804564D01*
X8917289Y-8911596D01*
X8959051Y-9012418D01*
X9019680Y-9103155D01*
X9096845Y-9180320D01*
X9187582Y-9240949D01*
X9288404Y-9282711D01*
X9395436Y-9304000D01*
X9504564Y-9304000D01*
X9611596Y-9282711D01*
X9712418Y-9240949D01*
X9803155Y-9180320D01*
X9880320Y-9103155D01*
X9940949Y-9012418D01*
X9982711Y-8911596D01*
X10004000Y-8804564D01*
X10004000Y-8695436D01*
X9982711Y-8588404D01*
X9940949Y-8487582D01*
X9880320Y-8396845D01*
X9803155Y-8319680D01*
X9779560Y-8303915D01*
X9830320Y-8253155D01*
X9890949Y-8162418D01*
X9932711Y-8061596D01*
X9954000Y-7954564D01*
X9954000Y-7845436D01*
X9932711Y-7738404D01*
X9890949Y-7637582D01*
X9830320Y-7546845D01*
X9816674Y-7533199D01*
X9850851Y-7519042D01*
X9941588Y-7458413D01*
X10018753Y-7381248D01*
X10034893Y-7357093D01*
X10243930Y-7357093D01*
X10228999Y-7406312D01*
X10219772Y-7500000D01*
X10219772Y-8000000D01*
X10228999Y-8093688D01*
X10256327Y-8183775D01*
X10300705Y-8266800D01*
X10360428Y-8339572D01*
X10433200Y-8399295D01*
X10496001Y-8432863D01*
X10496000Y-8526546D01*
X10485316Y-8535315D01*
X10403588Y-8634899D01*
X10342860Y-8748514D01*
X10305463Y-8871794D01*
X10296000Y-8967875D01*
X10296000Y-9532124D01*
X10305463Y-9628205D01*
X10342860Y-9751485D01*
X10396001Y-9850905D01*
X10396000Y-11395166D01*
X10350207Y-11399676D01*
X10302328Y-11414200D01*
X10258203Y-11437786D01*
X10219527Y-11469527D01*
X10187786Y-11508203D01*
X10164200Y-11552328D01*
X10149676Y-11600207D01*
X10144772Y-11650000D01*
X10144772Y-12850000D01*
X10149676Y-12899793D01*
X10164200Y-12947672D01*
X10187786Y-12991797D01*
X10219527Y-13030473D01*
X10258203Y-13062214D01*
X10302328Y-13085800D01*
X10350207Y-13100324D01*
X10400000Y-13105228D01*
X11134941Y-13105228D01*
X11112560Y-13179009D01*
X11103795Y-13268008D01*
X11105991Y-13290306D01*
X11105990Y-15544772D01*
X10450000Y-15544772D01*
X10449643Y-15544807D01*
X7599577Y-12694742D01*
X7585362Y-12677421D01*
X7516232Y-12620687D01*
X7437362Y-12578530D01*
X7351782Y-12552570D01*
X7285078Y-12546000D01*
X7285071Y-12546000D01*
X7262783Y-12543805D01*
X7240495Y-12546000D01*
X6611770Y-12546000D01*
X6559694Y-12284195D01*
X6374707Y-11837595D01*
X6106146Y-11435666D01*
X6010644Y-11340164D01*
X6047970Y-11315223D01*
X6125135Y-11238058D01*
X6185764Y-11147321D01*
X6227526Y-11046499D01*
X6248815Y-10939467D01*
X6248815Y-10831533D01*
X7438028Y-9642321D01*
X7451525Y-9631244D01*
X7462603Y-9617746D01*
X7462606Y-9617743D01*
X7474338Y-9603448D01*
X7495764Y-9577341D01*
X7528635Y-9515843D01*
X7548877Y-9449114D01*
X7554000Y-9397100D01*
X7554000Y-9397093D01*
X7555711Y-9379719D01*
X7554000Y-9362344D01*
X7554000Y-4646630D01*
X8146631Y-4054000D01*
X8154795Y-4054000D01*
X8124227Y-4091246D01*
G37*
%TD.AperFunction*%
%TD*%
M02*
