%TF.GenerationSoftware,KiCad,Pcbnew,(5.1.8)-1*%
%TF.CreationDate,2020-11-23T23:28:54+01:00*%
%TF.ProjectId,KLinPump_PCB,4b4c696e-5075-46d7-905f-5043422e6b69,rev?*%
%TF.SameCoordinates,PX6a9eec0PY52f83c0*%
%TF.FileFunction,Legend,Top*%
%TF.FilePolarity,Positive*%
%FSLAX46Y46*%
G04 Gerber Fmt 4.6, Leading zero omitted, Abs format (unit mm)*
G04 Created by KiCad (PCBNEW (5.1.8)-1) date 2020-11-23 23:28:54*
%MOMM*%
%LPD*%
G01*
G04 APERTURE LIST*
%ADD10C,0.100000*%
%ADD11C,0.187500*%
%ADD12C,0.125000*%
%ADD13C,0.120000*%
%ADD14C,0.150000*%
G04 APERTURE END LIST*
D10*
X15682142Y-3003571D02*
X15789285Y-3039285D01*
X15967857Y-3039285D01*
X16039285Y-3003571D01*
X16075000Y-2967857D01*
X16110714Y-2896428D01*
X16110714Y-2825000D01*
X16075000Y-2753571D01*
X16039285Y-2717857D01*
X15967857Y-2682142D01*
X15825000Y-2646428D01*
X15753571Y-2610714D01*
X15717857Y-2575000D01*
X15682142Y-2503571D01*
X15682142Y-2432142D01*
X15717857Y-2360714D01*
X15753571Y-2325000D01*
X15825000Y-2289285D01*
X16003571Y-2289285D01*
X16110714Y-2325000D01*
X16360714Y-2289285D02*
X16539285Y-3039285D01*
X16682142Y-2503571D01*
X16825000Y-3039285D01*
X17003571Y-2289285D01*
X17289285Y-3039285D02*
X17289285Y-2289285D01*
X17467857Y-2289285D01*
X17575000Y-2325000D01*
X17646428Y-2396428D01*
X17682142Y-2467857D01*
X17717857Y-2610714D01*
X17717857Y-2717857D01*
X17682142Y-2860714D01*
X17646428Y-2932142D01*
X17575000Y-3003571D01*
X17467857Y-3039285D01*
X17289285Y-3039285D01*
X6307142Y-10789285D02*
X6557142Y-11539285D01*
X6807142Y-10789285D01*
X7378571Y-11539285D02*
X7378571Y-11146428D01*
X7342857Y-11075000D01*
X7271428Y-11039285D01*
X7128571Y-11039285D01*
X7057142Y-11075000D01*
X7378571Y-11503571D02*
X7307142Y-11539285D01*
X7128571Y-11539285D01*
X7057142Y-11503571D01*
X7021428Y-11432142D01*
X7021428Y-11360714D01*
X7057142Y-11289285D01*
X7128571Y-11253571D01*
X7307142Y-11253571D01*
X7378571Y-11217857D01*
X7842857Y-11539285D02*
X7771428Y-11503571D01*
X7735714Y-11432142D01*
X7735714Y-10789285D01*
X8057142Y-11039285D02*
X8235714Y-11539285D01*
X8414285Y-11039285D01*
X8985714Y-11503571D02*
X8914285Y-11539285D01*
X8771428Y-11539285D01*
X8700000Y-11503571D01*
X8664285Y-11432142D01*
X8664285Y-11146428D01*
X8700000Y-11075000D01*
X8771428Y-11039285D01*
X8914285Y-11039285D01*
X8985714Y-11075000D01*
X9021428Y-11146428D01*
X9021428Y-11217857D01*
X8664285Y-11289285D01*
D11*
X12635714Y-7446428D02*
X12064285Y-7446428D01*
X12350000Y-7160714D02*
X12350000Y-7732142D01*
X11135714Y-7446428D02*
X10564285Y-7446428D01*
D10*
X7742857Y-3935714D02*
X8123809Y-3935714D01*
X7933333Y-4126190D02*
X7933333Y-3745238D01*
X8314285Y-3626190D02*
X8623809Y-3626190D01*
X8457142Y-3816666D01*
X8528571Y-3816666D01*
X8576190Y-3840476D01*
X8600000Y-3864285D01*
X8623809Y-3911904D01*
X8623809Y-4030952D01*
X8600000Y-4078571D01*
X8576190Y-4102380D01*
X8528571Y-4126190D01*
X8385714Y-4126190D01*
X8338095Y-4102380D01*
X8314285Y-4078571D01*
X8766666Y-3626190D02*
X8933333Y-4126190D01*
X9100000Y-3626190D01*
X9219047Y-3626190D02*
X9528571Y-3626190D01*
X9361904Y-3816666D01*
X9433333Y-3816666D01*
X9480952Y-3840476D01*
X9504761Y-3864285D01*
X9528571Y-3911904D01*
X9528571Y-4030952D01*
X9504761Y-4078571D01*
X9480952Y-4102380D01*
X9433333Y-4126190D01*
X9290476Y-4126190D01*
X9242857Y-4102380D01*
X9219047Y-4078571D01*
X9861904Y-4292857D02*
X9861904Y-3578571D01*
X10504761Y-4126190D02*
X10338095Y-3888095D01*
X10219047Y-4126190D02*
X10219047Y-3626190D01*
X10409523Y-3626190D01*
X10457142Y-3650000D01*
X10480952Y-3673809D01*
X10504761Y-3721428D01*
X10504761Y-3792857D01*
X10480952Y-3840476D01*
X10457142Y-3864285D01*
X10409523Y-3888095D01*
X10219047Y-3888095D01*
X10695238Y-4102380D02*
X10766666Y-4126190D01*
X10885714Y-4126190D01*
X10933333Y-4102380D01*
X10957142Y-4078571D01*
X10980952Y-4030952D01*
X10980952Y-3983333D01*
X10957142Y-3935714D01*
X10933333Y-3911904D01*
X10885714Y-3888095D01*
X10790476Y-3864285D01*
X10742857Y-3840476D01*
X10719047Y-3816666D01*
X10695238Y-3769047D01*
X10695238Y-3721428D01*
X10719047Y-3673809D01*
X10742857Y-3650000D01*
X10790476Y-3626190D01*
X10909523Y-3626190D01*
X10980952Y-3650000D01*
X11123809Y-3626190D02*
X11409523Y-3626190D01*
X11266666Y-4126190D02*
X11266666Y-3626190D01*
X11695238Y-4292857D02*
X11695238Y-3578571D01*
X12338095Y-4078571D02*
X12314285Y-4102380D01*
X12242857Y-4126190D01*
X12195238Y-4126190D01*
X12123809Y-4102380D01*
X12076190Y-4054761D01*
X12052380Y-4007142D01*
X12028571Y-3911904D01*
X12028571Y-3840476D01*
X12052380Y-3745238D01*
X12076190Y-3697619D01*
X12123809Y-3650000D01*
X12195238Y-3626190D01*
X12242857Y-3626190D01*
X12314285Y-3650000D01*
X12338095Y-3673809D01*
X12790476Y-4126190D02*
X12552380Y-4126190D01*
X12552380Y-3626190D01*
X12957142Y-4126190D02*
X12957142Y-3626190D01*
X13242857Y-4126190D02*
X13028571Y-3840476D01*
X13242857Y-3626190D02*
X12957142Y-3911904D01*
X13576190Y-4292857D02*
X13576190Y-3578571D01*
X13933333Y-4126190D02*
X13933333Y-3626190D01*
X14266666Y-3626190D02*
X14361904Y-3626190D01*
X14409523Y-3650000D01*
X14457142Y-3697619D01*
X14480952Y-3792857D01*
X14480952Y-3959523D01*
X14457142Y-4054761D01*
X14409523Y-4102380D01*
X14361904Y-4126190D01*
X14266666Y-4126190D01*
X14219047Y-4102380D01*
X14171428Y-4054761D01*
X14147619Y-3959523D01*
X14147619Y-3792857D01*
X14171428Y-3697619D01*
X14219047Y-3650000D01*
X14266666Y-3626190D01*
X14814285Y-4292857D02*
X14814285Y-3578571D01*
X15433333Y-3650000D02*
X15385714Y-3626190D01*
X15314285Y-3626190D01*
X15242857Y-3650000D01*
X15195238Y-3697619D01*
X15171428Y-3745238D01*
X15147619Y-3840476D01*
X15147619Y-3911904D01*
X15171428Y-4007142D01*
X15195238Y-4054761D01*
X15242857Y-4102380D01*
X15314285Y-4126190D01*
X15361904Y-4126190D01*
X15433333Y-4102380D01*
X15457142Y-4078571D01*
X15457142Y-3911904D01*
X15361904Y-3911904D01*
X15671428Y-4126190D02*
X15671428Y-3626190D01*
X15957142Y-4126190D01*
X15957142Y-3626190D01*
X16195238Y-4126190D02*
X16195238Y-3626190D01*
X16314285Y-3626190D01*
X16385714Y-3650000D01*
X16433333Y-3697619D01*
X16457142Y-3745238D01*
X16480952Y-3840476D01*
X16480952Y-3911904D01*
X16457142Y-4007142D01*
X16433333Y-4054761D01*
X16385714Y-4102380D01*
X16314285Y-4126190D01*
X16195238Y-4126190D01*
D12*
X9628571Y-23525000D02*
X9557142Y-23489285D01*
X9450000Y-23489285D01*
X9342857Y-23525000D01*
X9271428Y-23596428D01*
X9235714Y-23667857D01*
X9200000Y-23810714D01*
X9200000Y-23917857D01*
X9235714Y-24060714D01*
X9271428Y-24132142D01*
X9342857Y-24203571D01*
X9450000Y-24239285D01*
X9521428Y-24239285D01*
X9628571Y-24203571D01*
X9664285Y-24167857D01*
X9664285Y-23917857D01*
X9521428Y-23917857D01*
X9985714Y-24239285D02*
X9985714Y-23489285D01*
X10414285Y-24239285D01*
X10414285Y-23489285D01*
X10771428Y-24239285D02*
X10771428Y-23489285D01*
X10950000Y-23489285D01*
X11057142Y-23525000D01*
X11128571Y-23596428D01*
X11164285Y-23667857D01*
X11200000Y-23810714D01*
X11200000Y-23917857D01*
X11164285Y-24060714D01*
X11128571Y-24132142D01*
X11057142Y-24203571D01*
X10950000Y-24239285D01*
X10771428Y-24239285D01*
X12360714Y-24239285D02*
X12003571Y-24239285D01*
X12003571Y-23489285D01*
X12610714Y-24239285D02*
X12610714Y-23489285D01*
X12967857Y-24239285D02*
X12967857Y-23489285D01*
X13396428Y-24239285D01*
X13396428Y-23489285D01*
X14200000Y-23489285D02*
X14450000Y-24239285D01*
X14700000Y-23489285D01*
X15378571Y-24167857D02*
X15342857Y-24203571D01*
X15235714Y-24239285D01*
X15164285Y-24239285D01*
X15057142Y-24203571D01*
X14985714Y-24132142D01*
X14950000Y-24060714D01*
X14914285Y-23917857D01*
X14914285Y-23810714D01*
X14950000Y-23667857D01*
X14985714Y-23596428D01*
X15057142Y-23525000D01*
X15164285Y-23489285D01*
X15235714Y-23489285D01*
X15342857Y-23525000D01*
X15378571Y-23560714D01*
X16128571Y-24167857D02*
X16092857Y-24203571D01*
X15985714Y-24239285D01*
X15914285Y-24239285D01*
X15807142Y-24203571D01*
X15735714Y-24132142D01*
X15700000Y-24060714D01*
X15664285Y-23917857D01*
X15664285Y-23810714D01*
X15700000Y-23667857D01*
X15735714Y-23596428D01*
X15807142Y-23525000D01*
X15914285Y-23489285D01*
X15985714Y-23489285D01*
X16092857Y-23525000D01*
X16128571Y-23560714D01*
D13*
%TO.C,SWD1*%
X9400000Y-3610000D02*
X9400000Y-2500000D01*
X10160000Y-3610000D02*
X9400000Y-3610000D01*
X10920000Y-1936529D02*
X10920000Y-1390000D01*
X10920000Y-3610000D02*
X10920000Y-3063471D01*
X10920000Y-1390000D02*
X15935000Y-1390000D01*
X10920000Y-3610000D02*
X15935000Y-3610000D01*
X15935000Y-2192470D02*
X15935000Y-1390000D01*
X15935000Y-3610000D02*
X15935000Y-2807530D01*
%TO.C,VALVE1*%
X13810000Y-11410000D02*
X13810000Y-7990000D01*
X13810000Y-7990000D02*
X9340000Y-7990000D01*
X9340000Y-7990000D02*
X9340000Y-11410000D01*
X9340000Y-11410000D02*
X13810000Y-11410000D01*
X11575000Y-8500000D02*
X13300000Y-8500000D01*
X13300000Y-8500000D02*
X13300000Y-9250000D01*
X13300000Y-9250000D02*
X13500000Y-9250000D01*
X13500000Y-9250000D02*
X13500000Y-10050000D01*
X13500000Y-10050000D02*
X13300000Y-10050000D01*
X13300000Y-10050000D02*
X13300000Y-10900000D01*
X13300000Y-10900000D02*
X11575000Y-10900000D01*
X11575000Y-8500000D02*
X9850000Y-8500000D01*
X9850000Y-8500000D02*
X9850000Y-9250000D01*
X9850000Y-9250000D02*
X9650000Y-9250000D01*
X9650000Y-9250000D02*
X9650000Y-10050000D01*
X9650000Y-10050000D02*
X9850000Y-10050000D01*
X9850000Y-10050000D02*
X9850000Y-10900000D01*
X9850000Y-10900000D02*
X11575000Y-10900000D01*
X14100000Y-7700000D02*
X14100000Y-8700000D01*
X14100000Y-7700000D02*
X13100000Y-7700000D01*
%TO.C,D3*%
X21537500Y-15265000D02*
X19252500Y-15265000D01*
X19252500Y-15265000D02*
X19252500Y-16735000D01*
X19252500Y-16735000D02*
X21537500Y-16735000D01*
%TO.C,KLIN1*%
X17760000Y-17460000D02*
X17760000Y-12340000D01*
X17760000Y-12340000D02*
X8640000Y-12340000D01*
X8640000Y-12340000D02*
X7640000Y-13340000D01*
X7640000Y-13340000D02*
X7640000Y-17460000D01*
X7640000Y-17460000D02*
X17760000Y-17460000D01*
X18060000Y-14450000D02*
X18060000Y-12040000D01*
X18060000Y-12040000D02*
X15650000Y-12040000D01*
%TO.C,KLIN2*%
X18060000Y-17790000D02*
X15650000Y-17790000D01*
X18060000Y-20200000D02*
X18060000Y-17790000D01*
X7640000Y-23210000D02*
X17760000Y-23210000D01*
X7640000Y-19090000D02*
X7640000Y-23210000D01*
X8640000Y-18090000D02*
X7640000Y-19090000D01*
X17760000Y-18090000D02*
X8640000Y-18090000D01*
X17760000Y-23210000D02*
X17760000Y-18090000D01*
%TO.C,Q1*%
X23280000Y-7990000D02*
X23280000Y-9450000D01*
X20120000Y-7990000D02*
X20120000Y-10150000D01*
X20120000Y-7990000D02*
X21050000Y-7990000D01*
X23280000Y-7990000D02*
X22350000Y-7990000D01*
%TO.C,Q2*%
X14555001Y-4740000D02*
X13625001Y-4740000D01*
X11395001Y-4740000D02*
X12325001Y-4740000D01*
X11395001Y-4740000D02*
X11395001Y-6900000D01*
X14555001Y-4740000D02*
X14555001Y-6200000D01*
%TO.C,R1*%
X18677500Y-8987258D02*
X18677500Y-8512742D01*
X19722500Y-8987258D02*
X19722500Y-8512742D01*
%TO.C,R2*%
X10972500Y-5987258D02*
X10972500Y-5512742D01*
X9927500Y-5987258D02*
X9927500Y-5512742D01*
%TO.C,R4*%
X16037742Y-4727500D02*
X16512258Y-4727500D01*
X16037742Y-5772500D02*
X16512258Y-5772500D01*
%TO.C,U1*%
X3390000Y-19560000D02*
X3540000Y-19560000D01*
X3390000Y-16440000D02*
X3390000Y-19560000D01*
X6510000Y-18000000D02*
X6510000Y-19560000D01*
X3390000Y-16440000D02*
X3540000Y-16440000D01*
X6510000Y-19560000D02*
X6360000Y-19560000D01*
%TO.C,U3*%
X15800000Y-9610000D02*
X17600000Y-9610000D01*
X17600000Y-6390000D02*
X15150000Y-6390000D01*
%TO.C,U4*%
X18590000Y-17600000D02*
X18590000Y-20050000D01*
X21810000Y-19400000D02*
X21810000Y-17600000D01*
%TO.C,U2*%
X4315000Y-9922500D02*
X4090000Y-9922500D01*
X4090000Y-9922500D02*
X4090000Y-9697500D01*
X8085000Y-5702500D02*
X8310000Y-5702500D01*
X8310000Y-5702500D02*
X8310000Y-5927500D01*
X4315000Y-5702500D02*
X4090000Y-5702500D01*
X4090000Y-5702500D02*
X4090000Y-5927500D01*
X8085000Y-9922500D02*
X8310000Y-9922500D01*
%TO.C,PGND*%
D10*
X23676190Y-13892857D02*
X23176190Y-13892857D01*
X23176190Y-13702380D01*
X23200000Y-13654761D01*
X23223809Y-13630952D01*
X23271428Y-13607142D01*
X23342857Y-13607142D01*
X23390476Y-13630952D01*
X23414285Y-13654761D01*
X23438095Y-13702380D01*
X23438095Y-13892857D01*
X23200000Y-13130952D02*
X23176190Y-13178571D01*
X23176190Y-13250000D01*
X23200000Y-13321428D01*
X23247619Y-13369047D01*
X23295238Y-13392857D01*
X23390476Y-13416666D01*
X23461904Y-13416666D01*
X23557142Y-13392857D01*
X23604761Y-13369047D01*
X23652380Y-13321428D01*
X23676190Y-13250000D01*
X23676190Y-13202380D01*
X23652380Y-13130952D01*
X23628571Y-13107142D01*
X23461904Y-13107142D01*
X23461904Y-13202380D01*
X23676190Y-12892857D02*
X23176190Y-12892857D01*
X23676190Y-12607142D01*
X23176190Y-12607142D01*
X23676190Y-12369047D02*
X23176190Y-12369047D01*
X23176190Y-12250000D01*
X23200000Y-12178571D01*
X23247619Y-12130952D01*
X23295238Y-12107142D01*
X23390476Y-12083333D01*
X23461904Y-12083333D01*
X23557142Y-12107142D01*
X23604761Y-12130952D01*
X23652380Y-12178571D01*
X23676190Y-12250000D01*
X23676190Y-12369047D01*
%TO.C,Pump+*%
X1676190Y-14226190D02*
X1176190Y-14226190D01*
X1176190Y-14035714D01*
X1200000Y-13988095D01*
X1223809Y-13964285D01*
X1271428Y-13940476D01*
X1342857Y-13940476D01*
X1390476Y-13964285D01*
X1414285Y-13988095D01*
X1438095Y-14035714D01*
X1438095Y-14226190D01*
X1342857Y-13511904D02*
X1676190Y-13511904D01*
X1342857Y-13726190D02*
X1604761Y-13726190D01*
X1652380Y-13702380D01*
X1676190Y-13654761D01*
X1676190Y-13583333D01*
X1652380Y-13535714D01*
X1628571Y-13511904D01*
X1676190Y-13273809D02*
X1342857Y-13273809D01*
X1390476Y-13273809D02*
X1366666Y-13250000D01*
X1342857Y-13202380D01*
X1342857Y-13130952D01*
X1366666Y-13083333D01*
X1414285Y-13059523D01*
X1676190Y-13059523D01*
X1414285Y-13059523D02*
X1366666Y-13035714D01*
X1342857Y-12988095D01*
X1342857Y-12916666D01*
X1366666Y-12869047D01*
X1414285Y-12845238D01*
X1676190Y-12845238D01*
X1342857Y-12607142D02*
X1842857Y-12607142D01*
X1366666Y-12607142D02*
X1342857Y-12559523D01*
X1342857Y-12464285D01*
X1366666Y-12416666D01*
X1390476Y-12392857D01*
X1438095Y-12369047D01*
X1580952Y-12369047D01*
X1628571Y-12392857D01*
X1652380Y-12416666D01*
X1676190Y-12464285D01*
X1676190Y-12559523D01*
X1652380Y-12607142D01*
X1485714Y-12154761D02*
X1485714Y-11773809D01*
X1676190Y-11964285D02*
X1295238Y-11964285D01*
%TO.C,D3*%
X22330952Y-16226190D02*
X22330952Y-15726190D01*
X22450000Y-15726190D01*
X22521428Y-15750000D01*
X22569047Y-15797619D01*
X22592857Y-15845238D01*
X22616666Y-15940476D01*
X22616666Y-16011904D01*
X22592857Y-16107142D01*
X22569047Y-16154761D01*
X22521428Y-16202380D01*
X22450000Y-16226190D01*
X22330952Y-16226190D01*
X22783333Y-15726190D02*
X23092857Y-15726190D01*
X22926190Y-15916666D01*
X22997619Y-15916666D01*
X23045238Y-15940476D01*
X23069047Y-15964285D01*
X23092857Y-16011904D01*
X23092857Y-16130952D01*
X23069047Y-16178571D01*
X23045238Y-16202380D01*
X22997619Y-16226190D01*
X22854761Y-16226190D01*
X22807142Y-16202380D01*
X22783333Y-16178571D01*
%TO.C,Q1*%
X20252380Y-7573809D02*
X20204761Y-7550000D01*
X20157142Y-7502380D01*
X20085714Y-7430952D01*
X20038095Y-7407142D01*
X19990476Y-7407142D01*
X20014285Y-7526190D02*
X19966666Y-7502380D01*
X19919047Y-7454761D01*
X19895238Y-7359523D01*
X19895238Y-7192857D01*
X19919047Y-7097619D01*
X19966666Y-7050000D01*
X20014285Y-7026190D01*
X20109523Y-7026190D01*
X20157142Y-7050000D01*
X20204761Y-7097619D01*
X20228571Y-7192857D01*
X20228571Y-7359523D01*
X20204761Y-7454761D01*
X20157142Y-7502380D01*
X20109523Y-7526190D01*
X20014285Y-7526190D01*
X20704761Y-7526190D02*
X20419047Y-7526190D01*
X20561904Y-7526190D02*
X20561904Y-7026190D01*
X20514285Y-7097619D01*
X20466666Y-7145238D01*
X20419047Y-7169047D01*
%TO.C,Q2*%
X10452380Y-5073809D02*
X10404761Y-5050000D01*
X10357142Y-5002380D01*
X10285714Y-4930952D01*
X10238095Y-4907142D01*
X10190476Y-4907142D01*
X10214285Y-5026190D02*
X10166666Y-5002380D01*
X10119047Y-4954761D01*
X10095238Y-4859523D01*
X10095238Y-4692857D01*
X10119047Y-4597619D01*
X10166666Y-4550000D01*
X10214285Y-4526190D01*
X10309523Y-4526190D01*
X10357142Y-4550000D01*
X10404761Y-4597619D01*
X10428571Y-4692857D01*
X10428571Y-4859523D01*
X10404761Y-4954761D01*
X10357142Y-5002380D01*
X10309523Y-5026190D01*
X10214285Y-5026190D01*
X10619047Y-4573809D02*
X10642857Y-4550000D01*
X10690476Y-4526190D01*
X10809523Y-4526190D01*
X10857142Y-4550000D01*
X10880952Y-4573809D01*
X10904761Y-4621428D01*
X10904761Y-4669047D01*
X10880952Y-4740476D01*
X10595238Y-5026190D01*
X10904761Y-5026190D01*
%TO.C,R1*%
X19426190Y-6883333D02*
X19188095Y-7050000D01*
X19426190Y-7169047D02*
X18926190Y-7169047D01*
X18926190Y-6978571D01*
X18950000Y-6930952D01*
X18973809Y-6907142D01*
X19021428Y-6883333D01*
X19092857Y-6883333D01*
X19140476Y-6907142D01*
X19164285Y-6930952D01*
X19188095Y-6978571D01*
X19188095Y-7169047D01*
X19426190Y-6407142D02*
X19426190Y-6692857D01*
X19426190Y-6550000D02*
X18926190Y-6550000D01*
X18997619Y-6597619D01*
X19045238Y-6645238D01*
X19069047Y-6692857D01*
%TO.C,R2*%
X9216666Y-5926190D02*
X9050000Y-5688095D01*
X8930952Y-5926190D02*
X8930952Y-5426190D01*
X9121428Y-5426190D01*
X9169047Y-5450000D01*
X9192857Y-5473809D01*
X9216666Y-5521428D01*
X9216666Y-5592857D01*
X9192857Y-5640476D01*
X9169047Y-5664285D01*
X9121428Y-5688095D01*
X8930952Y-5688095D01*
X9407142Y-5473809D02*
X9430952Y-5450000D01*
X9478571Y-5426190D01*
X9597619Y-5426190D01*
X9645238Y-5450000D01*
X9669047Y-5473809D01*
X9692857Y-5521428D01*
X9692857Y-5569047D01*
X9669047Y-5640476D01*
X9383333Y-5926190D01*
X9692857Y-5926190D01*
%TO.C,R4*%
X18216666Y-5476190D02*
X18050000Y-5238095D01*
X17930952Y-5476190D02*
X17930952Y-4976190D01*
X18121428Y-4976190D01*
X18169047Y-5000000D01*
X18192857Y-5023809D01*
X18216666Y-5071428D01*
X18216666Y-5142857D01*
X18192857Y-5190476D01*
X18169047Y-5214285D01*
X18121428Y-5238095D01*
X17930952Y-5238095D01*
X18645238Y-5142857D02*
X18645238Y-5476190D01*
X18526190Y-4952380D02*
X18407142Y-5309523D01*
X18716666Y-5309523D01*
%TO.C,U1*%
X2326190Y-18380952D02*
X2730952Y-18380952D01*
X2778571Y-18357142D01*
X2802380Y-18333333D01*
X2826190Y-18285714D01*
X2826190Y-18190476D01*
X2802380Y-18142857D01*
X2778571Y-18119047D01*
X2730952Y-18095238D01*
X2326190Y-18095238D01*
X2826190Y-17595238D02*
X2826190Y-17880952D01*
X2826190Y-17738095D02*
X2326190Y-17738095D01*
X2397619Y-17785714D01*
X2445238Y-17833333D01*
X2469047Y-17880952D01*
%TO.C,U3*%
D12*
X18119047Y-5826190D02*
X18119047Y-6230952D01*
X18142857Y-6278571D01*
X18166666Y-6302380D01*
X18214285Y-6326190D01*
X18309523Y-6326190D01*
X18357142Y-6302380D01*
X18380952Y-6278571D01*
X18404761Y-6230952D01*
X18404761Y-5826190D01*
X18595238Y-5826190D02*
X18904761Y-5826190D01*
X18738095Y-6016666D01*
X18809523Y-6016666D01*
X18857142Y-6040476D01*
X18880952Y-6064285D01*
X18904761Y-6111904D01*
X18904761Y-6230952D01*
X18880952Y-6278571D01*
X18857142Y-6302380D01*
X18809523Y-6326190D01*
X18666666Y-6326190D01*
X18619047Y-6302380D01*
X18595238Y-6278571D01*
%TO.C,U4*%
D14*
X18838095Y-20652380D02*
X18838095Y-21461904D01*
X18885714Y-21557142D01*
X18933333Y-21604761D01*
X19028571Y-21652380D01*
X19219047Y-21652380D01*
X19314285Y-21604761D01*
X19361904Y-21557142D01*
X19409523Y-21461904D01*
X19409523Y-20652380D01*
X20314285Y-20985714D02*
X20314285Y-21652380D01*
X20076190Y-20604761D02*
X19838095Y-21319047D01*
X20457142Y-21319047D01*
%TO.C,U2*%
D10*
X4719047Y-4426190D02*
X4719047Y-4830952D01*
X4742857Y-4878571D01*
X4766666Y-4902380D01*
X4814285Y-4926190D01*
X4909523Y-4926190D01*
X4957142Y-4902380D01*
X4980952Y-4878571D01*
X5004761Y-4830952D01*
X5004761Y-4426190D01*
X5219047Y-4473809D02*
X5242857Y-4450000D01*
X5290476Y-4426190D01*
X5409523Y-4426190D01*
X5457142Y-4450000D01*
X5480952Y-4473809D01*
X5504761Y-4521428D01*
X5504761Y-4569047D01*
X5480952Y-4640476D01*
X5195238Y-4926190D01*
X5504761Y-4926190D01*
%TD*%
M02*
