%TF.GenerationSoftware,KiCad,Pcbnew,(5.1.8)-1*%
%TF.CreationDate,2020-11-23T23:28:54+01:00*%
%TF.ProjectId,KLinPump_PCB,4b4c696e-5075-46d7-905f-5043422e6b69,rev?*%
%TF.SameCoordinates,PX6a9eec0PY52f83c0*%
%TF.FileFunction,Paste,Top*%
%TF.FilePolarity,Positive*%
%FSLAX46Y46*%
G04 Gerber Fmt 4.6, Leading zero omitted, Abs format (unit mm)*
G04 Created by KiCad (PCBNEW (5.1.8)-1) date 2020-11-23 23:28:54*
%MOMM*%
%LPD*%
G01*
G04 APERTURE LIST*
%ADD10R,0.800000X0.900000*%
%ADD11R,0.350000X0.650000*%
%ADD12R,1.000000X0.600000*%
%ADD13R,1.060000X0.650000*%
%ADD14R,0.650000X1.060000*%
%ADD15C,0.100000*%
G04 APERTURE END LIST*
%TO.C,D3*%
G36*
G01*
X19512500Y-16256250D02*
X19512500Y-15743750D01*
G75*
G02*
X19731250Y-15525000I218750J0D01*
G01*
X20168750Y-15525000D01*
G75*
G02*
X20387500Y-15743750I0J-218750D01*
G01*
X20387500Y-16256250D01*
G75*
G02*
X20168750Y-16475000I-218750J0D01*
G01*
X19731250Y-16475000D01*
G75*
G02*
X19512500Y-16256250I0J218750D01*
G01*
G37*
G36*
G01*
X21087500Y-16256250D02*
X21087500Y-15743750D01*
G75*
G02*
X21306250Y-15525000I218750J0D01*
G01*
X21743750Y-15525000D01*
G75*
G02*
X21962500Y-15743750I0J-218750D01*
G01*
X21962500Y-16256250D01*
G75*
G02*
X21743750Y-16475000I-218750J0D01*
G01*
X21306250Y-16475000D01*
G75*
G02*
X21087500Y-16256250I0J218750D01*
G01*
G37*
%TD*%
D10*
%TO.C,Q1*%
X21700000Y-7750000D03*
X22650000Y-9750000D03*
X20750000Y-9750000D03*
%TD*%
%TO.C,Q2*%
X12025001Y-6500000D03*
X13925001Y-6500000D03*
X12975001Y-4500000D03*
%TD*%
%TO.C,R1*%
G36*
G01*
X19475000Y-9975000D02*
X18925000Y-9975000D01*
G75*
G02*
X18725000Y-9775000I0J200000D01*
G01*
X18725000Y-9375000D01*
G75*
G02*
X18925000Y-9175000I200000J0D01*
G01*
X19475000Y-9175000D01*
G75*
G02*
X19675000Y-9375000I0J-200000D01*
G01*
X19675000Y-9775000D01*
G75*
G02*
X19475000Y-9975000I-200000J0D01*
G01*
G37*
G36*
G01*
X19475000Y-8325000D02*
X18925000Y-8325000D01*
G75*
G02*
X18725000Y-8125000I0J200000D01*
G01*
X18725000Y-7725000D01*
G75*
G02*
X18925000Y-7525000I200000J0D01*
G01*
X19475000Y-7525000D01*
G75*
G02*
X19675000Y-7725000I0J-200000D01*
G01*
X19675000Y-8125000D01*
G75*
G02*
X19475000Y-8325000I-200000J0D01*
G01*
G37*
%TD*%
%TO.C,R2*%
G36*
G01*
X10725000Y-5325000D02*
X10175000Y-5325000D01*
G75*
G02*
X9975000Y-5125000I0J200000D01*
G01*
X9975000Y-4725000D01*
G75*
G02*
X10175000Y-4525000I200000J0D01*
G01*
X10725000Y-4525000D01*
G75*
G02*
X10925000Y-4725000I0J-200000D01*
G01*
X10925000Y-5125000D01*
G75*
G02*
X10725000Y-5325000I-200000J0D01*
G01*
G37*
G36*
G01*
X10725000Y-6975000D02*
X10175000Y-6975000D01*
G75*
G02*
X9975000Y-6775000I0J200000D01*
G01*
X9975000Y-6375000D01*
G75*
G02*
X10175000Y-6175000I200000J0D01*
G01*
X10725000Y-6175000D01*
G75*
G02*
X10925000Y-6375000I0J-200000D01*
G01*
X10925000Y-6775000D01*
G75*
G02*
X10725000Y-6975000I-200000J0D01*
G01*
G37*
%TD*%
%TO.C,R4*%
G36*
G01*
X15050000Y-5525000D02*
X15050000Y-4975000D01*
G75*
G02*
X15250000Y-4775000I200000J0D01*
G01*
X15650000Y-4775000D01*
G75*
G02*
X15850000Y-4975000I0J-200000D01*
G01*
X15850000Y-5525000D01*
G75*
G02*
X15650000Y-5725000I-200000J0D01*
G01*
X15250000Y-5725000D01*
G75*
G02*
X15050000Y-5525000I0J200000D01*
G01*
G37*
G36*
G01*
X16700000Y-5525000D02*
X16700000Y-4975000D01*
G75*
G02*
X16900000Y-4775000I200000J0D01*
G01*
X17300000Y-4775000D01*
G75*
G02*
X17500000Y-4975000I0J-200000D01*
G01*
X17500000Y-5525000D01*
G75*
G02*
X17300000Y-5725000I-200000J0D01*
G01*
X16900000Y-5725000D01*
G75*
G02*
X16700000Y-5525000I0J200000D01*
G01*
G37*
%TD*%
D11*
%TO.C,U1*%
X5925000Y-16450000D03*
X5275000Y-16450000D03*
X4625000Y-16450000D03*
X3975000Y-16450000D03*
X3975000Y-19550000D03*
X4625000Y-19550000D03*
X5275000Y-19550000D03*
X5925000Y-19550000D03*
D12*
X4350000Y-17612500D03*
X4350000Y-18387500D03*
X5550000Y-18387500D03*
X5550000Y-17612500D03*
%TD*%
D13*
%TO.C,U3*%
X15600000Y-7050000D03*
X15600000Y-8000000D03*
X15600000Y-8950000D03*
X17800000Y-8950000D03*
X17800000Y-7050000D03*
%TD*%
D14*
%TO.C,U4*%
X19250000Y-17400000D03*
X21150000Y-17400000D03*
X21150000Y-19600000D03*
X20200000Y-19600000D03*
X19250000Y-19600000D03*
%TD*%
D15*
%TO.C,U2*%
G36*
X7989861Y-9436635D02*
G01*
X7981419Y-9434075D01*
X7973639Y-9429916D01*
X7966820Y-9424320D01*
X7833180Y-9290680D01*
X7827584Y-9283861D01*
X7823425Y-9276081D01*
X7820865Y-9267639D01*
X7820000Y-9258860D01*
X7820000Y-9232500D01*
X7820865Y-9223721D01*
X7823425Y-9215279D01*
X7827584Y-9207499D01*
X7833180Y-9200680D01*
X7839999Y-9195084D01*
X7847779Y-9190925D01*
X7856221Y-9188365D01*
X7865000Y-9187500D01*
X8530000Y-9187500D01*
X8538779Y-9188365D01*
X8547221Y-9190925D01*
X8555001Y-9195084D01*
X8561820Y-9200680D01*
X8567416Y-9207499D01*
X8571575Y-9215279D01*
X8574135Y-9223721D01*
X8575000Y-9232500D01*
X8575000Y-9392500D01*
X8574135Y-9401279D01*
X8571575Y-9409721D01*
X8567416Y-9417501D01*
X8561820Y-9424320D01*
X8555001Y-9429916D01*
X8547221Y-9434075D01*
X8538779Y-9436635D01*
X8530000Y-9437500D01*
X7998640Y-9437500D01*
X7989861Y-9436635D01*
G37*
G36*
G01*
X8575000Y-8750000D02*
X8575000Y-8875000D01*
G75*
G02*
X8512500Y-8937500I-62500J0D01*
G01*
X7762500Y-8937500D01*
G75*
G02*
X7700000Y-8875000I0J62500D01*
G01*
X7700000Y-8750000D01*
G75*
G02*
X7762500Y-8687500I62500J0D01*
G01*
X8512500Y-8687500D01*
G75*
G02*
X8575000Y-8750000I0J-62500D01*
G01*
G37*
G36*
G01*
X8575000Y-8250000D02*
X8575000Y-8375000D01*
G75*
G02*
X8512500Y-8437500I-62500J0D01*
G01*
X7762500Y-8437500D01*
G75*
G02*
X7700000Y-8375000I0J62500D01*
G01*
X7700000Y-8250000D01*
G75*
G02*
X7762500Y-8187500I62500J0D01*
G01*
X8512500Y-8187500D01*
G75*
G02*
X8575000Y-8250000I0J-62500D01*
G01*
G37*
G36*
G01*
X8575000Y-7750000D02*
X8575000Y-7875000D01*
G75*
G02*
X8512500Y-7937500I-62500J0D01*
G01*
X7762500Y-7937500D01*
G75*
G02*
X7700000Y-7875000I0J62500D01*
G01*
X7700000Y-7750000D01*
G75*
G02*
X7762500Y-7687500I62500J0D01*
G01*
X8512500Y-7687500D01*
G75*
G02*
X8575000Y-7750000I0J-62500D01*
G01*
G37*
G36*
G01*
X8575000Y-7250000D02*
X8575000Y-7375000D01*
G75*
G02*
X8512500Y-7437500I-62500J0D01*
G01*
X7762500Y-7437500D01*
G75*
G02*
X7700000Y-7375000I0J62500D01*
G01*
X7700000Y-7250000D01*
G75*
G02*
X7762500Y-7187500I62500J0D01*
G01*
X8512500Y-7187500D01*
G75*
G02*
X8575000Y-7250000I0J-62500D01*
G01*
G37*
G36*
G01*
X8575000Y-6750000D02*
X8575000Y-6875000D01*
G75*
G02*
X8512500Y-6937500I-62500J0D01*
G01*
X7762500Y-6937500D01*
G75*
G02*
X7700000Y-6875000I0J62500D01*
G01*
X7700000Y-6750000D01*
G75*
G02*
X7762500Y-6687500I62500J0D01*
G01*
X8512500Y-6687500D01*
G75*
G02*
X8575000Y-6750000I0J-62500D01*
G01*
G37*
G36*
X7856221Y-6436635D02*
G01*
X7847779Y-6434075D01*
X7839999Y-6429916D01*
X7833180Y-6424320D01*
X7827584Y-6417501D01*
X7823425Y-6409721D01*
X7820865Y-6401279D01*
X7820000Y-6392500D01*
X7820000Y-6366140D01*
X7820865Y-6357361D01*
X7823425Y-6348919D01*
X7827584Y-6341139D01*
X7833180Y-6334320D01*
X7966820Y-6200680D01*
X7973639Y-6195084D01*
X7981419Y-6190925D01*
X7989861Y-6188365D01*
X7998640Y-6187500D01*
X8530000Y-6187500D01*
X8538779Y-6188365D01*
X8547221Y-6190925D01*
X8555001Y-6195084D01*
X8561820Y-6200680D01*
X8567416Y-6207499D01*
X8571575Y-6215279D01*
X8574135Y-6223721D01*
X8575000Y-6232500D01*
X8575000Y-6392500D01*
X8574135Y-6401279D01*
X8571575Y-6409721D01*
X8567416Y-6417501D01*
X8561820Y-6424320D01*
X8555001Y-6429916D01*
X8547221Y-6434075D01*
X8538779Y-6436635D01*
X8530000Y-6437500D01*
X7865000Y-6437500D01*
X7856221Y-6436635D01*
G37*
G36*
X7611221Y-6191635D02*
G01*
X7602779Y-6189075D01*
X7594999Y-6184916D01*
X7588180Y-6179320D01*
X7582584Y-6172501D01*
X7578425Y-6164721D01*
X7575865Y-6156279D01*
X7575000Y-6147500D01*
X7575000Y-5482500D01*
X7575865Y-5473721D01*
X7578425Y-5465279D01*
X7582584Y-5457499D01*
X7588180Y-5450680D01*
X7594999Y-5445084D01*
X7602779Y-5440925D01*
X7611221Y-5438365D01*
X7620000Y-5437500D01*
X7780000Y-5437500D01*
X7788779Y-5438365D01*
X7797221Y-5440925D01*
X7805001Y-5445084D01*
X7811820Y-5450680D01*
X7817416Y-5457499D01*
X7821575Y-5465279D01*
X7824135Y-5473721D01*
X7825000Y-5482500D01*
X7825000Y-6013860D01*
X7824135Y-6022639D01*
X7821575Y-6031081D01*
X7817416Y-6038861D01*
X7811820Y-6045680D01*
X7678180Y-6179320D01*
X7671361Y-6184916D01*
X7663581Y-6189075D01*
X7655139Y-6191635D01*
X7646360Y-6192500D01*
X7620000Y-6192500D01*
X7611221Y-6191635D01*
G37*
G36*
G01*
X7325000Y-5500000D02*
X7325000Y-6250000D01*
G75*
G02*
X7262500Y-6312500I-62500J0D01*
G01*
X7137500Y-6312500D01*
G75*
G02*
X7075000Y-6250000I0J62500D01*
G01*
X7075000Y-5500000D01*
G75*
G02*
X7137500Y-5437500I62500J0D01*
G01*
X7262500Y-5437500D01*
G75*
G02*
X7325000Y-5500000I0J-62500D01*
G01*
G37*
G36*
G01*
X6825000Y-5500000D02*
X6825000Y-6250000D01*
G75*
G02*
X6762500Y-6312500I-62500J0D01*
G01*
X6637500Y-6312500D01*
G75*
G02*
X6575000Y-6250000I0J62500D01*
G01*
X6575000Y-5500000D01*
G75*
G02*
X6637500Y-5437500I62500J0D01*
G01*
X6762500Y-5437500D01*
G75*
G02*
X6825000Y-5500000I0J-62500D01*
G01*
G37*
G36*
G01*
X6325000Y-5500000D02*
X6325000Y-6250000D01*
G75*
G02*
X6262500Y-6312500I-62500J0D01*
G01*
X6137500Y-6312500D01*
G75*
G02*
X6075000Y-6250000I0J62500D01*
G01*
X6075000Y-5500000D01*
G75*
G02*
X6137500Y-5437500I62500J0D01*
G01*
X6262500Y-5437500D01*
G75*
G02*
X6325000Y-5500000I0J-62500D01*
G01*
G37*
G36*
G01*
X5825000Y-5500000D02*
X5825000Y-6250000D01*
G75*
G02*
X5762500Y-6312500I-62500J0D01*
G01*
X5637500Y-6312500D01*
G75*
G02*
X5575000Y-6250000I0J62500D01*
G01*
X5575000Y-5500000D01*
G75*
G02*
X5637500Y-5437500I62500J0D01*
G01*
X5762500Y-5437500D01*
G75*
G02*
X5825000Y-5500000I0J-62500D01*
G01*
G37*
G36*
G01*
X5325000Y-5500000D02*
X5325000Y-6250000D01*
G75*
G02*
X5262500Y-6312500I-62500J0D01*
G01*
X5137500Y-6312500D01*
G75*
G02*
X5075000Y-6250000I0J62500D01*
G01*
X5075000Y-5500000D01*
G75*
G02*
X5137500Y-5437500I62500J0D01*
G01*
X5262500Y-5437500D01*
G75*
G02*
X5325000Y-5500000I0J-62500D01*
G01*
G37*
G36*
X4744861Y-6191635D02*
G01*
X4736419Y-6189075D01*
X4728639Y-6184916D01*
X4721820Y-6179320D01*
X4588180Y-6045680D01*
X4582584Y-6038861D01*
X4578425Y-6031081D01*
X4575865Y-6022639D01*
X4575000Y-6013860D01*
X4575000Y-5482500D01*
X4575865Y-5473721D01*
X4578425Y-5465279D01*
X4582584Y-5457499D01*
X4588180Y-5450680D01*
X4594999Y-5445084D01*
X4602779Y-5440925D01*
X4611221Y-5438365D01*
X4620000Y-5437500D01*
X4780000Y-5437500D01*
X4788779Y-5438365D01*
X4797221Y-5440925D01*
X4805001Y-5445084D01*
X4811820Y-5450680D01*
X4817416Y-5457499D01*
X4821575Y-5465279D01*
X4824135Y-5473721D01*
X4825000Y-5482500D01*
X4825000Y-6147500D01*
X4824135Y-6156279D01*
X4821575Y-6164721D01*
X4817416Y-6172501D01*
X4811820Y-6179320D01*
X4805001Y-6184916D01*
X4797221Y-6189075D01*
X4788779Y-6191635D01*
X4780000Y-6192500D01*
X4753640Y-6192500D01*
X4744861Y-6191635D01*
G37*
G36*
X3861221Y-6436635D02*
G01*
X3852779Y-6434075D01*
X3844999Y-6429916D01*
X3838180Y-6424320D01*
X3832584Y-6417501D01*
X3828425Y-6409721D01*
X3825865Y-6401279D01*
X3825000Y-6392500D01*
X3825000Y-6232500D01*
X3825865Y-6223721D01*
X3828425Y-6215279D01*
X3832584Y-6207499D01*
X3838180Y-6200680D01*
X3844999Y-6195084D01*
X3852779Y-6190925D01*
X3861221Y-6188365D01*
X3870000Y-6187500D01*
X4401360Y-6187500D01*
X4410139Y-6188365D01*
X4418581Y-6190925D01*
X4426361Y-6195084D01*
X4433180Y-6200680D01*
X4566820Y-6334320D01*
X4572416Y-6341139D01*
X4576575Y-6348919D01*
X4579135Y-6357361D01*
X4580000Y-6366140D01*
X4580000Y-6392500D01*
X4579135Y-6401279D01*
X4576575Y-6409721D01*
X4572416Y-6417501D01*
X4566820Y-6424320D01*
X4560001Y-6429916D01*
X4552221Y-6434075D01*
X4543779Y-6436635D01*
X4535000Y-6437500D01*
X3870000Y-6437500D01*
X3861221Y-6436635D01*
G37*
G36*
G01*
X4700000Y-6750000D02*
X4700000Y-6875000D01*
G75*
G02*
X4637500Y-6937500I-62500J0D01*
G01*
X3887500Y-6937500D01*
G75*
G02*
X3825000Y-6875000I0J62500D01*
G01*
X3825000Y-6750000D01*
G75*
G02*
X3887500Y-6687500I62500J0D01*
G01*
X4637500Y-6687500D01*
G75*
G02*
X4700000Y-6750000I0J-62500D01*
G01*
G37*
G36*
G01*
X4700000Y-7250000D02*
X4700000Y-7375000D01*
G75*
G02*
X4637500Y-7437500I-62500J0D01*
G01*
X3887500Y-7437500D01*
G75*
G02*
X3825000Y-7375000I0J62500D01*
G01*
X3825000Y-7250000D01*
G75*
G02*
X3887500Y-7187500I62500J0D01*
G01*
X4637500Y-7187500D01*
G75*
G02*
X4700000Y-7250000I0J-62500D01*
G01*
G37*
G36*
G01*
X4700000Y-7750000D02*
X4700000Y-7875000D01*
G75*
G02*
X4637500Y-7937500I-62500J0D01*
G01*
X3887500Y-7937500D01*
G75*
G02*
X3825000Y-7875000I0J62500D01*
G01*
X3825000Y-7750000D01*
G75*
G02*
X3887500Y-7687500I62500J0D01*
G01*
X4637500Y-7687500D01*
G75*
G02*
X4700000Y-7750000I0J-62500D01*
G01*
G37*
G36*
G01*
X4700000Y-8250000D02*
X4700000Y-8375000D01*
G75*
G02*
X4637500Y-8437500I-62500J0D01*
G01*
X3887500Y-8437500D01*
G75*
G02*
X3825000Y-8375000I0J62500D01*
G01*
X3825000Y-8250000D01*
G75*
G02*
X3887500Y-8187500I62500J0D01*
G01*
X4637500Y-8187500D01*
G75*
G02*
X4700000Y-8250000I0J-62500D01*
G01*
G37*
G36*
G01*
X4700000Y-8750000D02*
X4700000Y-8875000D01*
G75*
G02*
X4637500Y-8937500I-62500J0D01*
G01*
X3887500Y-8937500D01*
G75*
G02*
X3825000Y-8875000I0J62500D01*
G01*
X3825000Y-8750000D01*
G75*
G02*
X3887500Y-8687500I62500J0D01*
G01*
X4637500Y-8687500D01*
G75*
G02*
X4700000Y-8750000I0J-62500D01*
G01*
G37*
G36*
X3861221Y-9436635D02*
G01*
X3852779Y-9434075D01*
X3844999Y-9429916D01*
X3838180Y-9424320D01*
X3832584Y-9417501D01*
X3828425Y-9409721D01*
X3825865Y-9401279D01*
X3825000Y-9392500D01*
X3825000Y-9232500D01*
X3825865Y-9223721D01*
X3828425Y-9215279D01*
X3832584Y-9207499D01*
X3838180Y-9200680D01*
X3844999Y-9195084D01*
X3852779Y-9190925D01*
X3861221Y-9188365D01*
X3870000Y-9187500D01*
X4535000Y-9187500D01*
X4543779Y-9188365D01*
X4552221Y-9190925D01*
X4560001Y-9195084D01*
X4566820Y-9200680D01*
X4572416Y-9207499D01*
X4576575Y-9215279D01*
X4579135Y-9223721D01*
X4580000Y-9232500D01*
X4580000Y-9258860D01*
X4579135Y-9267639D01*
X4576575Y-9276081D01*
X4572416Y-9283861D01*
X4566820Y-9290680D01*
X4433180Y-9424320D01*
X4426361Y-9429916D01*
X4418581Y-9434075D01*
X4410139Y-9436635D01*
X4401360Y-9437500D01*
X3870000Y-9437500D01*
X3861221Y-9436635D01*
G37*
G36*
X4611221Y-10186635D02*
G01*
X4602779Y-10184075D01*
X4594999Y-10179916D01*
X4588180Y-10174320D01*
X4582584Y-10167501D01*
X4578425Y-10159721D01*
X4575865Y-10151279D01*
X4575000Y-10142500D01*
X4575000Y-9611140D01*
X4575865Y-9602361D01*
X4578425Y-9593919D01*
X4582584Y-9586139D01*
X4588180Y-9579320D01*
X4721820Y-9445680D01*
X4728639Y-9440084D01*
X4736419Y-9435925D01*
X4744861Y-9433365D01*
X4753640Y-9432500D01*
X4780000Y-9432500D01*
X4788779Y-9433365D01*
X4797221Y-9435925D01*
X4805001Y-9440084D01*
X4811820Y-9445680D01*
X4817416Y-9452499D01*
X4821575Y-9460279D01*
X4824135Y-9468721D01*
X4825000Y-9477500D01*
X4825000Y-10142500D01*
X4824135Y-10151279D01*
X4821575Y-10159721D01*
X4817416Y-10167501D01*
X4811820Y-10174320D01*
X4805001Y-10179916D01*
X4797221Y-10184075D01*
X4788779Y-10186635D01*
X4780000Y-10187500D01*
X4620000Y-10187500D01*
X4611221Y-10186635D01*
G37*
G36*
G01*
X5325000Y-9375000D02*
X5325000Y-10125000D01*
G75*
G02*
X5262500Y-10187500I-62500J0D01*
G01*
X5137500Y-10187500D01*
G75*
G02*
X5075000Y-10125000I0J62500D01*
G01*
X5075000Y-9375000D01*
G75*
G02*
X5137500Y-9312500I62500J0D01*
G01*
X5262500Y-9312500D01*
G75*
G02*
X5325000Y-9375000I0J-62500D01*
G01*
G37*
G36*
G01*
X5825000Y-9375000D02*
X5825000Y-10125000D01*
G75*
G02*
X5762500Y-10187500I-62500J0D01*
G01*
X5637500Y-10187500D01*
G75*
G02*
X5575000Y-10125000I0J62500D01*
G01*
X5575000Y-9375000D01*
G75*
G02*
X5637500Y-9312500I62500J0D01*
G01*
X5762500Y-9312500D01*
G75*
G02*
X5825000Y-9375000I0J-62500D01*
G01*
G37*
G36*
G01*
X6325000Y-9375000D02*
X6325000Y-10125000D01*
G75*
G02*
X6262500Y-10187500I-62500J0D01*
G01*
X6137500Y-10187500D01*
G75*
G02*
X6075000Y-10125000I0J62500D01*
G01*
X6075000Y-9375000D01*
G75*
G02*
X6137500Y-9312500I62500J0D01*
G01*
X6262500Y-9312500D01*
G75*
G02*
X6325000Y-9375000I0J-62500D01*
G01*
G37*
G36*
G01*
X6825000Y-9375000D02*
X6825000Y-10125000D01*
G75*
G02*
X6762500Y-10187500I-62500J0D01*
G01*
X6637500Y-10187500D01*
G75*
G02*
X6575000Y-10125000I0J62500D01*
G01*
X6575000Y-9375000D01*
G75*
G02*
X6637500Y-9312500I62500J0D01*
G01*
X6762500Y-9312500D01*
G75*
G02*
X6825000Y-9375000I0J-62500D01*
G01*
G37*
G36*
G01*
X7325000Y-9375000D02*
X7325000Y-10125000D01*
G75*
G02*
X7262500Y-10187500I-62500J0D01*
G01*
X7137500Y-10187500D01*
G75*
G02*
X7075000Y-10125000I0J62500D01*
G01*
X7075000Y-9375000D01*
G75*
G02*
X7137500Y-9312500I62500J0D01*
G01*
X7262500Y-9312500D01*
G75*
G02*
X7325000Y-9375000I0J-62500D01*
G01*
G37*
G36*
X7611221Y-10186635D02*
G01*
X7602779Y-10184075D01*
X7594999Y-10179916D01*
X7588180Y-10174320D01*
X7582584Y-10167501D01*
X7578425Y-10159721D01*
X7575865Y-10151279D01*
X7575000Y-10142500D01*
X7575000Y-9477500D01*
X7575865Y-9468721D01*
X7578425Y-9460279D01*
X7582584Y-9452499D01*
X7588180Y-9445680D01*
X7594999Y-9440084D01*
X7602779Y-9435925D01*
X7611221Y-9433365D01*
X7620000Y-9432500D01*
X7646360Y-9432500D01*
X7655139Y-9433365D01*
X7663581Y-9435925D01*
X7671361Y-9440084D01*
X7678180Y-9445680D01*
X7811820Y-9579320D01*
X7817416Y-9586139D01*
X7821575Y-9593919D01*
X7824135Y-9602361D01*
X7825000Y-9611140D01*
X7825000Y-10142500D01*
X7824135Y-10151279D01*
X7821575Y-10159721D01*
X7817416Y-10167501D01*
X7811820Y-10174320D01*
X7805001Y-10179916D01*
X7797221Y-10184075D01*
X7788779Y-10186635D01*
X7780000Y-10187500D01*
X7620000Y-10187500D01*
X7611221Y-10186635D01*
G37*
%TD*%
M02*
