%MOIN*%
%OFA0B0*%
%FSLAX46Y46*%
%IPPOS*%
%LPD*%
%ADD10R,0.035433070866141732X0.047244094488188976*%
%ADD21R,0.035433070866141732X0.047244094488188976*%
%ADD22R,0.035433070866141732X0.047244094488188976*%
%ADD23R,0.035433070866141732X0.047244094488188976*%
%ADD24R,0.035433070866141732X0.047244094488188976*%
%ADD25R,0.035433070866141732X0.047244094488188976*%
%ADD26R,0.035433070866141732X0.047244094488188976*%
%ADD27R,0.035433070866141732X0.047244094488188976*%
%ADD28R,0.035433070866141732X0.047244094488188976*%
G01*
G36*
G01*
X0001189960Y0001083661D02*
X0001189960Y0001034448D01*
G75*
G02*
X0001180118Y0001024606I-0000009842D01*
G01*
X0001155511Y0001024606D01*
G75*
G02*
X0001145669Y0001034448J0000009842D01*
G01*
X0001145669Y0001083661D01*
G75*
G02*
X0001155511Y0001093503I0000009842D01*
G01*
X0001180118Y0001093503D01*
G75*
G02*
X0001189960Y0001083661J-0000009842D01*
G01*
G37*
G36*
G01*
X0001074803Y0001083661D02*
X0001074803Y0001034448D01*
G75*
G02*
X0001064960Y0001024606I-0000009842D01*
G01*
X0001040354Y0001024606D01*
G75*
G02*
X0001030511Y0001034448J0000009842D01*
G01*
X0001030511Y0001083661D01*
G75*
G02*
X0001040354Y0001093503I0000009842D01*
G01*
X0001064960Y0001093503D01*
G75*
G02*
X0001074803Y0001083661J-0000009842D01*
G01*
G37*
G36*
G01*
X0001051181Y0001262795D02*
X0001031496Y0001262795D01*
G75*
G02*
X0001022637Y0001271653J0000008858D01*
G01*
X0001022637Y0001289370D01*
G75*
G02*
X0001031496Y0001298228I0000008858D01*
G01*
X0001051181Y0001298228D01*
G75*
G02*
X0001060039Y0001289370J-0000008858D01*
G01*
X0001060039Y0001271653D01*
G75*
G02*
X0001051181Y0001262795I-0000008858D01*
G01*
G37*
G36*
G01*
X0001051181Y0001201771D02*
X0001031496Y0001201771D01*
G75*
G02*
X0001022637Y0001210629J0000008858D01*
G01*
X0001022637Y0001228346D01*
G75*
G02*
X0001031496Y0001237204I0000008858D01*
G01*
X0001051181Y0001237204D01*
G75*
G02*
X0001060039Y0001228346J-0000008858D01*
G01*
X0001060039Y0001210629D01*
G75*
G02*
X0001051181Y0001201771I-0000008858D01*
G01*
G37*
G36*
G01*
X0000991732Y0001262795D02*
X0000972047Y0001262795D01*
G75*
G02*
X0000963188Y0001271653J0000008858D01*
G01*
X0000963188Y0001289370D01*
G75*
G02*
X0000972047Y0001298228I0000008858D01*
G01*
X0000991732Y0001298228D01*
G75*
G02*
X0001000590Y0001289370J-0000008858D01*
G01*
X0001000590Y0001271653D01*
G75*
G02*
X0000991732Y0001262795I-0000008858D01*
G01*
G37*
G36*
G01*
X0000991732Y0001201771D02*
X0000972047Y0001201771D01*
G75*
G02*
X0000963188Y0001210629J0000008858D01*
G01*
X0000963188Y0001228346D01*
G75*
G02*
X0000972047Y0001237204I0000008858D01*
G01*
X0000991732Y0001237204D01*
G75*
G02*
X0001000590Y0001228346J-0000008858D01*
G01*
X0001000590Y0001210629D01*
G75*
G02*
X0000991732Y0001201771I-0000008858D01*
G01*
G37*
G36*
G01*
X0000933070Y0001200787D02*
X0000913385Y0001200787D01*
G75*
G02*
X0000904527Y0001209645J0000008858D01*
G01*
X0000904527Y0001227362D01*
G75*
G02*
X0000913385Y0001236220I0000008858D01*
G01*
X0000933070Y0001236220D01*
G75*
G02*
X0000941929Y0001227362J-0000008858D01*
G01*
X0000941929Y0001209645D01*
G75*
G02*
X0000933070Y0001200787I-0000008858D01*
G01*
G37*
G36*
G01*
X0000933070Y0001261810D02*
X0000913385Y0001261810D01*
G75*
G02*
X0000904527Y0001270669J0000008858D01*
G01*
X0000904527Y0001288385D01*
G75*
G02*
X0000913385Y0001297244I0000008858D01*
G01*
X0000933070Y0001297244D01*
G75*
G02*
X0000941929Y0001288385J-0000008858D01*
G01*
X0000941929Y0001270669D01*
G75*
G02*
X0000933070Y0001261810I-0000008858D01*
G01*
G37*
G36*
G01*
X0000874015Y0001201771D02*
X0000854330Y0001201771D01*
G75*
G02*
X0000845472Y0001210629J0000008858D01*
G01*
X0000845472Y0001228346D01*
G75*
G02*
X0000854330Y0001237204I0000008858D01*
G01*
X0000874015Y0001237204D01*
G75*
G02*
X0000882874Y0001228346J-0000008858D01*
G01*
X0000882874Y0001210629D01*
G75*
G02*
X0000874015Y0001201771I-0000008858D01*
G01*
G37*
G36*
G01*
X0000874015Y0001262795D02*
X0000854330Y0001262795D01*
G75*
G02*
X0000845472Y0001271653J0000008858D01*
G01*
X0000845472Y0001289370D01*
G75*
G02*
X0000854330Y0001298228I0000008858D01*
G01*
X0000874015Y0001298228D01*
G75*
G02*
X0000882874Y0001289370J-0000008858D01*
G01*
X0000882874Y0001271653D01*
G75*
G02*
X0000874015Y0001262795I-0000008858D01*
G01*
G37*
G36*
G01*
X0001142716Y0000964566D02*
X0001142716Y0000984251D01*
G75*
G02*
X0001151574Y0000993110I0000008858D01*
G01*
X0001169291Y0000993110D01*
G75*
G02*
X0001178149Y0000984251J-0000008858D01*
G01*
X0001178149Y0000964566D01*
G75*
G02*
X0001169291Y0000955708I-0000008858D01*
G01*
X0001151574Y0000955708D01*
G75*
G02*
X0001142716Y0000964566J0000008858D01*
G01*
G37*
G36*
G01*
X0001081692Y0000964566D02*
X0001081692Y0000984251D01*
G75*
G02*
X0001090551Y0000993110I0000008858D01*
G01*
X0001108267Y0000993110D01*
G75*
G02*
X0001117125Y0000984251J-0000008858D01*
G01*
X0001117125Y0000964566D01*
G75*
G02*
X0001108267Y0000955708I-0000008858D01*
G01*
X0001090551Y0000955708D01*
G75*
G02*
X0001081692Y0000964566J0000008858D01*
G01*
G37*
G36*
G01*
X0000601181Y0001075196D02*
X0000601181Y0001094881D01*
G75*
G02*
X0000610039Y0001103740I0000008858D01*
G01*
X0000627755Y0001103740D01*
G75*
G02*
X0000636614Y0001094881J-0000008858D01*
G01*
X0000636614Y0001075196D01*
G75*
G02*
X0000627755Y0001066338I-0000008858D01*
G01*
X0000610039Y0001066338D01*
G75*
G02*
X0000601181Y0001075196J0000008858D01*
G01*
G37*
G36*
G01*
X0000662204Y0001075196D02*
X0000662204Y0001094881D01*
G75*
G02*
X0000671062Y0001103740I0000008858D01*
G01*
X0000688779Y0001103740D01*
G75*
G02*
X0000697637Y0001094881J-0000008858D01*
G01*
X0000697637Y0001075196D01*
G75*
G02*
X0000688779Y0001066338I-0000008858D01*
G01*
X0000671062Y0001066338D01*
G75*
G02*
X0000662204Y0001075196J0000008858D01*
G01*
G37*
G36*
G01*
X0000662401Y0001135826D02*
X0000662401Y0001155511D01*
G75*
G02*
X0000671259Y0001164370I0000008858D01*
G01*
X0000688976Y0001164370D01*
G75*
G02*
X0000697834Y0001155511J-0000008858D01*
G01*
X0000697834Y0001135826D01*
G75*
G02*
X0000688976Y0001126968I-0000008858D01*
G01*
X0000671259Y0001126968D01*
G75*
G02*
X0000662401Y0001135826J0000008858D01*
G01*
G37*
G36*
G01*
X0000601377Y0001135826D02*
X0000601377Y0001155511D01*
G75*
G02*
X0000610236Y0001164370I0000008858D01*
G01*
X0000627952Y0001164370D01*
G75*
G02*
X0000636811Y0001155511J-0000008858D01*
G01*
X0000636811Y0001135826D01*
G75*
G02*
X0000627952Y0001126968I-0000008858D01*
G01*
X0000610236Y0001126968D01*
G75*
G02*
X0000601377Y0001135826J0000008858D01*
G01*
G37*
G36*
G01*
X0000981299Y0001161417D02*
X0000981299Y0001141732D01*
G75*
G02*
X0000972440Y0001132874I-0000008858D01*
G01*
X0000954724Y0001132874D01*
G75*
G02*
X0000945866Y0001141732J0000008858D01*
G01*
X0000945866Y0001161417D01*
G75*
G02*
X0000954724Y0001170275I0000008858D01*
G01*
X0000972440Y0001170275D01*
G75*
G02*
X0000981299Y0001161417J-0000008858D01*
G01*
G37*
G36*
G01*
X0000920275Y0001161417D02*
X0000920275Y0001141732D01*
G75*
G02*
X0000911417Y0001132874I-0000008858D01*
G01*
X0000893700Y0001132874D01*
G75*
G02*
X0000884842Y0001141732J0000008858D01*
G01*
X0000884842Y0001161417D01*
G75*
G02*
X0000893700Y0001170275I0000008858D01*
G01*
X0000911417Y0001170275D01*
G75*
G02*
X0000920275Y0001161417J-0000008858D01*
G01*
G37*
G36*
G01*
X0000599409Y0001197834D02*
X0000599409Y0001217519D01*
G75*
G02*
X0000608267Y0001226377I0000008858D01*
G01*
X0000625984Y0001226377D01*
G75*
G02*
X0000634842Y0001217519J-0000008858D01*
G01*
X0000634842Y0001197834D01*
G75*
G02*
X0000625984Y0001188976I-0000008858D01*
G01*
X0000608267Y0001188976D01*
G75*
G02*
X0000599409Y0001197834J0000008858D01*
G01*
G37*
G36*
G01*
X0000660433Y0001197834D02*
X0000660433Y0001217519D01*
G75*
G02*
X0000669291Y0001226377I0000008858D01*
G01*
X0000687007Y0001226377D01*
G75*
G02*
X0000695866Y0001217519J-0000008858D01*
G01*
X0000695866Y0001197834D01*
G75*
G02*
X0000687007Y0001188976I-0000008858D01*
G01*
X0000669291Y0001188976D01*
G75*
G02*
X0000660433Y0001197834J0000008858D01*
G01*
G37*
G36*
G01*
X0001020669Y0000590551D02*
X0001020669Y0000570866D01*
G75*
G02*
X0001011811Y0000562007I-0000008858D01*
G01*
X0000994094Y0000562007D01*
G75*
G02*
X0000985236Y0000570866J0000008858D01*
G01*
X0000985236Y0000590551D01*
G75*
G02*
X0000994094Y0000599409I0000008858D01*
G01*
X0001011811Y0000599409D01*
G75*
G02*
X0001020669Y0000590551J-0000008858D01*
G01*
G37*
G36*
G01*
X0000959645Y0000590551D02*
X0000959645Y0000570866D01*
G75*
G02*
X0000950787Y0000562007I-0000008858D01*
G01*
X0000933070Y0000562007D01*
G75*
G02*
X0000924212Y0000570866J0000008858D01*
G01*
X0000924212Y0000590551D01*
G75*
G02*
X0000933070Y0000599409I0000008858D01*
G01*
X0000950787Y0000599409D01*
G75*
G02*
X0000959645Y0000590551J-0000008858D01*
G01*
G37*
G36*
G01*
X0001316929Y0000741141D02*
X0001297244Y0000741141D01*
G75*
G02*
X0001288385Y0000750000J0000008858D01*
G01*
X0001288385Y0000767716D01*
G75*
G02*
X0001297244Y0000776574I0000008858D01*
G01*
X0001316929Y0000776574D01*
G75*
G02*
X0001325787Y0000767716J-0000008858D01*
G01*
X0001325787Y0000750000D01*
G75*
G02*
X0001316929Y0000741141I-0000008858D01*
G01*
G37*
G36*
G01*
X0001316929Y0000680118D02*
X0001297244Y0000680118D01*
G75*
G02*
X0001288385Y0000688976J0000008858D01*
G01*
X0001288385Y0000706692D01*
G75*
G02*
X0001297244Y0000715551I0000008858D01*
G01*
X0001316929Y0000715551D01*
G75*
G02*
X0001325787Y0000706692J-0000008858D01*
G01*
X0001325787Y0000688976D01*
G75*
G02*
X0001316929Y0000680118I-0000008858D01*
G01*
G37*
G36*
G01*
X0001218503Y0000715551D02*
X0001238188Y0000715551D01*
G75*
G02*
X0001247047Y0000706692J-0000008858D01*
G01*
X0001247047Y0000688976D01*
G75*
G02*
X0001238188Y0000680118I-0000008858D01*
G01*
X0001218503Y0000680118D01*
G75*
G02*
X0001209645Y0000688976J0000008858D01*
G01*
X0001209645Y0000706692D01*
G75*
G02*
X0001218503Y0000715551I0000008858D01*
G01*
G37*
G36*
G01*
X0001218503Y0000776574D02*
X0001238188Y0000776574D01*
G75*
G02*
X0001247047Y0000767716J-0000008858D01*
G01*
X0001247047Y0000750000D01*
G75*
G02*
X0001238188Y0000741141I-0000008858D01*
G01*
X0001218503Y0000741141D01*
G75*
G02*
X0001209645Y0000750000J0000008858D01*
G01*
X0001209645Y0000767716D01*
G75*
G02*
X0001218503Y0000776574I0000008858D01*
G01*
G37*
G36*
G01*
X0001148622Y0000708661D02*
X0001170275Y0000708661D01*
G75*
G02*
X0001178149Y0000700787J-0000007874D01*
G01*
X0001178149Y0000685039D01*
G75*
G02*
X0001170275Y0000677165I-0000007874D01*
G01*
X0001148622Y0000677165D01*
G75*
G02*
X0001140748Y0000685039J0000007874D01*
G01*
X0001140748Y0000700787D01*
G75*
G02*
X0001148622Y0000708661I0000007874D01*
G01*
G37*
G36*
G01*
X0001148622Y0000773622D02*
X0001170275Y0000773622D01*
G75*
G02*
X0001178149Y0000765748J-0000007874D01*
G01*
X0001178149Y0000750000D01*
G75*
G02*
X0001170275Y0000742125I-0000007874D01*
G01*
X0001148622Y0000742125D01*
G75*
G02*
X0001140748Y0000750000J0000007874D01*
G01*
X0001140748Y0000765748D01*
G75*
G02*
X0001148622Y0000773622I0000007874D01*
G01*
G37*
D10*
X0001031496Y0000811023D03*
X0000901574Y0000811023D03*
X0001029527Y0000974409D03*
X0000899606Y0000974409D03*
G36*
G01*
X0000764763Y0000865157D02*
X0000786417Y0000865157D01*
G75*
G02*
X0000794291Y0000857283J-0000007874D01*
G01*
X0000794291Y0000841535D01*
G75*
G02*
X0000786417Y0000833661I-0000007874D01*
G01*
X0000764763Y0000833661D01*
G75*
G02*
X0000756889Y0000841535J0000007874D01*
G01*
X0000756889Y0000857283D01*
G75*
G02*
X0000764763Y0000865157I0000007874D01*
G01*
G37*
G36*
G01*
X0000764763Y0000800196D02*
X0000786417Y0000800196D01*
G75*
G02*
X0000794291Y0000792322J-0000007874D01*
G01*
X0000794291Y0000776574D01*
G75*
G02*
X0000786417Y0000768700I-0000007874D01*
G01*
X0000764763Y0000768700D01*
G75*
G02*
X0000756889Y0000776574J0000007874D01*
G01*
X0000756889Y0000792322D01*
G75*
G02*
X0000764763Y0000800196I0000007874D01*
G01*
G37*
G04 next file*
G04 Gerber Fmt 4.6, Leading zero omitted, Abs format (unit mm)*
G04 Created by KiCad (PCBNEW (5.1.8)-1) date 2020-11-23 23:28:54*
G01*
G04 APERTURE LIST*
G04 APERTURE END LIST*
G36*
G01*
X0002252952Y0001083661D02*
X0002252952Y0001034448D01*
G75*
G02*
X0002243110Y0001024606I-0000009842D01*
G01*
X0002218503Y0001024606D01*
G75*
G02*
X0002208661Y0001034448J0000009842D01*
G01*
X0002208661Y0001083661D01*
G75*
G02*
X0002218503Y0001093503I0000009842D01*
G01*
X0002243110Y0001093503D01*
G75*
G02*
X0002252952Y0001083661J-0000009842D01*
G01*
G37*
G36*
G01*
X0002137795Y0001083661D02*
X0002137795Y0001034448D01*
G75*
G02*
X0002127952Y0001024606I-0000009842D01*
G01*
X0002103346Y0001024606D01*
G75*
G02*
X0002093503Y0001034448J0000009842D01*
G01*
X0002093503Y0001083661D01*
G75*
G02*
X0002103346Y0001093503I0000009842D01*
G01*
X0002127952Y0001093503D01*
G75*
G02*
X0002137795Y0001083661J-0000009842D01*
G01*
G37*
G36*
G01*
X0002114173Y0001262795D02*
X0002094488Y0001262795D01*
G75*
G02*
X0002085629Y0001271653J0000008858D01*
G01*
X0002085629Y0001289370D01*
G75*
G02*
X0002094488Y0001298228I0000008858D01*
G01*
X0002114173Y0001298228D01*
G75*
G02*
X0002123031Y0001289370J-0000008858D01*
G01*
X0002123031Y0001271653D01*
G75*
G02*
X0002114173Y0001262795I-0000008858D01*
G01*
G37*
G36*
G01*
X0002114173Y0001201771D02*
X0002094488Y0001201771D01*
G75*
G02*
X0002085629Y0001210629J0000008858D01*
G01*
X0002085629Y0001228346D01*
G75*
G02*
X0002094488Y0001237204I0000008858D01*
G01*
X0002114173Y0001237204D01*
G75*
G02*
X0002123031Y0001228346J-0000008858D01*
G01*
X0002123031Y0001210629D01*
G75*
G02*
X0002114173Y0001201771I-0000008858D01*
G01*
G37*
G36*
G01*
X0002054724Y0001262795D02*
X0002035039Y0001262795D01*
G75*
G02*
X0002026181Y0001271653J0000008858D01*
G01*
X0002026181Y0001289370D01*
G75*
G02*
X0002035039Y0001298228I0000008858D01*
G01*
X0002054724Y0001298228D01*
G75*
G02*
X0002063582Y0001289370J-0000008858D01*
G01*
X0002063582Y0001271653D01*
G75*
G02*
X0002054724Y0001262795I-0000008858D01*
G01*
G37*
G36*
G01*
X0002054724Y0001201771D02*
X0002035039Y0001201771D01*
G75*
G02*
X0002026181Y0001210629J0000008858D01*
G01*
X0002026181Y0001228346D01*
G75*
G02*
X0002035039Y0001237204I0000008858D01*
G01*
X0002054724Y0001237204D01*
G75*
G02*
X0002063582Y0001228346J-0000008858D01*
G01*
X0002063582Y0001210629D01*
G75*
G02*
X0002054724Y0001201771I-0000008858D01*
G01*
G37*
G36*
G01*
X0001996062Y0001200787D02*
X0001976377Y0001200787D01*
G75*
G02*
X0001967519Y0001209645J0000008858D01*
G01*
X0001967519Y0001227362D01*
G75*
G02*
X0001976377Y0001236220I0000008858D01*
G01*
X0001996062Y0001236220D01*
G75*
G02*
X0002004921Y0001227362J-0000008858D01*
G01*
X0002004921Y0001209645D01*
G75*
G02*
X0001996062Y0001200787I-0000008858D01*
G01*
G37*
G36*
G01*
X0001996062Y0001261810D02*
X0001976377Y0001261810D01*
G75*
G02*
X0001967519Y0001270669J0000008858D01*
G01*
X0001967519Y0001288385D01*
G75*
G02*
X0001976377Y0001297244I0000008858D01*
G01*
X0001996062Y0001297244D01*
G75*
G02*
X0002004921Y0001288385J-0000008858D01*
G01*
X0002004921Y0001270669D01*
G75*
G02*
X0001996062Y0001261810I-0000008858D01*
G01*
G37*
G36*
G01*
X0001937007Y0001201771D02*
X0001917322Y0001201771D01*
G75*
G02*
X0001908464Y0001210629J0000008858D01*
G01*
X0001908464Y0001228346D01*
G75*
G02*
X0001917322Y0001237204I0000008858D01*
G01*
X0001937007Y0001237204D01*
G75*
G02*
X0001945866Y0001228346J-0000008858D01*
G01*
X0001945866Y0001210629D01*
G75*
G02*
X0001937007Y0001201771I-0000008858D01*
G01*
G37*
G36*
G01*
X0001937007Y0001262795D02*
X0001917322Y0001262795D01*
G75*
G02*
X0001908464Y0001271653J0000008858D01*
G01*
X0001908464Y0001289370D01*
G75*
G02*
X0001917322Y0001298228I0000008858D01*
G01*
X0001937007Y0001298228D01*
G75*
G02*
X0001945866Y0001289370J-0000008858D01*
G01*
X0001945866Y0001271653D01*
G75*
G02*
X0001937007Y0001262795I-0000008858D01*
G01*
G37*
G36*
G01*
X0002205708Y0000964566D02*
X0002205708Y0000984251D01*
G75*
G02*
X0002214566Y0000993110I0000008858D01*
G01*
X0002232283Y0000993110D01*
G75*
G02*
X0002241141Y0000984251J-0000008858D01*
G01*
X0002241141Y0000964566D01*
G75*
G02*
X0002232283Y0000955708I-0000008858D01*
G01*
X0002214566Y0000955708D01*
G75*
G02*
X0002205708Y0000964566J0000008858D01*
G01*
G37*
G36*
G01*
X0002144685Y0000964566D02*
X0002144685Y0000984251D01*
G75*
G02*
X0002153543Y0000993110I0000008858D01*
G01*
X0002171259Y0000993110D01*
G75*
G02*
X0002180118Y0000984251J-0000008858D01*
G01*
X0002180118Y0000964566D01*
G75*
G02*
X0002171259Y0000955708I-0000008858D01*
G01*
X0002153543Y0000955708D01*
G75*
G02*
X0002144685Y0000964566J0000008858D01*
G01*
G37*
G36*
G01*
X0001664173Y0001075196D02*
X0001664173Y0001094881D01*
G75*
G02*
X0001673031Y0001103740I0000008858D01*
G01*
X0001690748Y0001103740D01*
G75*
G02*
X0001699606Y0001094881J-0000008858D01*
G01*
X0001699606Y0001075196D01*
G75*
G02*
X0001690748Y0001066338I-0000008858D01*
G01*
X0001673031Y0001066338D01*
G75*
G02*
X0001664173Y0001075196J0000008858D01*
G01*
G37*
G36*
G01*
X0001725196Y0001075196D02*
X0001725196Y0001094881D01*
G75*
G02*
X0001734055Y0001103740I0000008858D01*
G01*
X0001751771Y0001103740D01*
G75*
G02*
X0001760629Y0001094881J-0000008858D01*
G01*
X0001760629Y0001075196D01*
G75*
G02*
X0001751771Y0001066338I-0000008858D01*
G01*
X0001734055Y0001066338D01*
G75*
G02*
X0001725196Y0001075196J0000008858D01*
G01*
G37*
G36*
G01*
X0001725393Y0001135826D02*
X0001725393Y0001155511D01*
G75*
G02*
X0001734251Y0001164370I0000008858D01*
G01*
X0001751968Y0001164370D01*
G75*
G02*
X0001760826Y0001155511J-0000008858D01*
G01*
X0001760826Y0001135826D01*
G75*
G02*
X0001751968Y0001126968I-0000008858D01*
G01*
X0001734251Y0001126968D01*
G75*
G02*
X0001725393Y0001135826J0000008858D01*
G01*
G37*
G36*
G01*
X0001664370Y0001135826D02*
X0001664370Y0001155511D01*
G75*
G02*
X0001673228Y0001164370I0000008858D01*
G01*
X0001690944Y0001164370D01*
G75*
G02*
X0001699803Y0001155511J-0000008858D01*
G01*
X0001699803Y0001135826D01*
G75*
G02*
X0001690944Y0001126968I-0000008858D01*
G01*
X0001673228Y0001126968D01*
G75*
G02*
X0001664370Y0001135826J0000008858D01*
G01*
G37*
G36*
G01*
X0002044291Y0001161417D02*
X0002044291Y0001141732D01*
G75*
G02*
X0002035433Y0001132874I-0000008858D01*
G01*
X0002017716Y0001132874D01*
G75*
G02*
X0002008858Y0001141732J0000008858D01*
G01*
X0002008858Y0001161417D01*
G75*
G02*
X0002017716Y0001170275I0000008858D01*
G01*
X0002035433Y0001170275D01*
G75*
G02*
X0002044291Y0001161417J-0000008858D01*
G01*
G37*
G36*
G01*
X0001983267Y0001161417D02*
X0001983267Y0001141732D01*
G75*
G02*
X0001974409Y0001132874I-0000008858D01*
G01*
X0001956692Y0001132874D01*
G75*
G02*
X0001947834Y0001141732J0000008858D01*
G01*
X0001947834Y0001161417D01*
G75*
G02*
X0001956692Y0001170275I0000008858D01*
G01*
X0001974409Y0001170275D01*
G75*
G02*
X0001983267Y0001161417J-0000008858D01*
G01*
G37*
G36*
G01*
X0001662401Y0001197834D02*
X0001662401Y0001217519D01*
G75*
G02*
X0001671259Y0001226377I0000008858D01*
G01*
X0001688976Y0001226377D01*
G75*
G02*
X0001697834Y0001217519J-0000008858D01*
G01*
X0001697834Y0001197834D01*
G75*
G02*
X0001688976Y0001188976I-0000008858D01*
G01*
X0001671259Y0001188976D01*
G75*
G02*
X0001662401Y0001197834J0000008858D01*
G01*
G37*
G36*
G01*
X0001723425Y0001197834D02*
X0001723425Y0001217519D01*
G75*
G02*
X0001732283Y0001226377I0000008858D01*
G01*
X0001750000Y0001226377D01*
G75*
G02*
X0001758858Y0001217519J-0000008858D01*
G01*
X0001758858Y0001197834D01*
G75*
G02*
X0001750000Y0001188976I-0000008858D01*
G01*
X0001732283Y0001188976D01*
G75*
G02*
X0001723425Y0001197834J0000008858D01*
G01*
G37*
G36*
G01*
X0002083661Y0000590551D02*
X0002083661Y0000570866D01*
G75*
G02*
X0002074803Y0000562007I-0000008858D01*
G01*
X0002057086Y0000562007D01*
G75*
G02*
X0002048228Y0000570866J0000008858D01*
G01*
X0002048228Y0000590551D01*
G75*
G02*
X0002057086Y0000599409I0000008858D01*
G01*
X0002074803Y0000599409D01*
G75*
G02*
X0002083661Y0000590551J-0000008858D01*
G01*
G37*
G36*
G01*
X0002022637Y0000590551D02*
X0002022637Y0000570866D01*
G75*
G02*
X0002013779Y0000562007I-0000008858D01*
G01*
X0001996062Y0000562007D01*
G75*
G02*
X0001987204Y0000570866J0000008858D01*
G01*
X0001987204Y0000590551D01*
G75*
G02*
X0001996062Y0000599409I0000008858D01*
G01*
X0002013779Y0000599409D01*
G75*
G02*
X0002022637Y0000590551J-0000008858D01*
G01*
G37*
G36*
G01*
X0002379921Y0000741141D02*
X0002360236Y0000741141D01*
G75*
G02*
X0002351377Y0000750000J0000008858D01*
G01*
X0002351377Y0000767716D01*
G75*
G02*
X0002360236Y0000776574I0000008858D01*
G01*
X0002379921Y0000776574D01*
G75*
G02*
X0002388779Y0000767716J-0000008858D01*
G01*
X0002388779Y0000750000D01*
G75*
G02*
X0002379921Y0000741141I-0000008858D01*
G01*
G37*
G36*
G01*
X0002379921Y0000680118D02*
X0002360236Y0000680118D01*
G75*
G02*
X0002351377Y0000688976J0000008858D01*
G01*
X0002351377Y0000706692D01*
G75*
G02*
X0002360236Y0000715551I0000008858D01*
G01*
X0002379921Y0000715551D01*
G75*
G02*
X0002388779Y0000706692J-0000008858D01*
G01*
X0002388779Y0000688976D01*
G75*
G02*
X0002379921Y0000680118I-0000008858D01*
G01*
G37*
G36*
G01*
X0002281496Y0000715551D02*
X0002301181Y0000715551D01*
G75*
G02*
X0002310039Y0000706692J-0000008858D01*
G01*
X0002310039Y0000688976D01*
G75*
G02*
X0002301181Y0000680118I-0000008858D01*
G01*
X0002281496Y0000680118D01*
G75*
G02*
X0002272637Y0000688976J0000008858D01*
G01*
X0002272637Y0000706692D01*
G75*
G02*
X0002281496Y0000715551I0000008858D01*
G01*
G37*
G36*
G01*
X0002281496Y0000776574D02*
X0002301181Y0000776574D01*
G75*
G02*
X0002310039Y0000767716J-0000008858D01*
G01*
X0002310039Y0000750000D01*
G75*
G02*
X0002301181Y0000741141I-0000008858D01*
G01*
X0002281496Y0000741141D01*
G75*
G02*
X0002272637Y0000750000J0000008858D01*
G01*
X0002272637Y0000767716D01*
G75*
G02*
X0002281496Y0000776574I0000008858D01*
G01*
G37*
G36*
G01*
X0002211614Y0000708661D02*
X0002233267Y0000708661D01*
G75*
G02*
X0002241141Y0000700787J-0000007874D01*
G01*
X0002241141Y0000685039D01*
G75*
G02*
X0002233267Y0000677165I-0000007874D01*
G01*
X0002211614Y0000677165D01*
G75*
G02*
X0002203740Y0000685039J0000007874D01*
G01*
X0002203740Y0000700787D01*
G75*
G02*
X0002211614Y0000708661I0000007874D01*
G01*
G37*
G36*
G01*
X0002211614Y0000773622D02*
X0002233267Y0000773622D01*
G75*
G02*
X0002241141Y0000765748J-0000007874D01*
G01*
X0002241141Y0000750000D01*
G75*
G02*
X0002233267Y0000742125I-0000007874D01*
G01*
X0002211614Y0000742125D01*
G75*
G02*
X0002203740Y0000750000J0000007874D01*
G01*
X0002203740Y0000765748D01*
G75*
G02*
X0002211614Y0000773622I0000007874D01*
G01*
G37*
D21*
X0002094488Y0000811023D03*
X0001964566Y0000811023D03*
X0002092519Y0000974409D03*
X0001962598Y0000974409D03*
G36*
G01*
X0001827755Y0000865157D02*
X0001849409Y0000865157D01*
G75*
G02*
X0001857283Y0000857283J-0000007874D01*
G01*
X0001857283Y0000841535D01*
G75*
G02*
X0001849409Y0000833661I-0000007874D01*
G01*
X0001827755Y0000833661D01*
G75*
G02*
X0001819881Y0000841535J0000007874D01*
G01*
X0001819881Y0000857283D01*
G75*
G02*
X0001827755Y0000865157I0000007874D01*
G01*
G37*
G36*
G01*
X0001827755Y0000800196D02*
X0001849409Y0000800196D01*
G75*
G02*
X0001857283Y0000792322J-0000007874D01*
G01*
X0001857283Y0000776574D01*
G75*
G02*
X0001849409Y0000768700I-0000007874D01*
G01*
X0001827755Y0000768700D01*
G75*
G02*
X0001819881Y0000776574J0000007874D01*
G01*
X0001819881Y0000792322D01*
G75*
G02*
X0001827755Y0000800196I0000007874D01*
G01*
G37*
G04 next file*
G04 Gerber Fmt 4.6, Leading zero omitted, Abs format (unit mm)*
G04 Created by KiCad (PCBNEW (5.1.8)-1) date 2020-11-23 23:28:54*
G01*
G04 APERTURE LIST*
G04 APERTURE END LIST*
G36*
G01*
X0003315944Y0001083661D02*
X0003315944Y0001034448D01*
G75*
G02*
X0003306102Y0001024606I-0000009842D01*
G01*
X0003281496Y0001024606D01*
G75*
G02*
X0003271653Y0001034448J0000009842D01*
G01*
X0003271653Y0001083661D01*
G75*
G02*
X0003281496Y0001093503I0000009842D01*
G01*
X0003306102Y0001093503D01*
G75*
G02*
X0003315944Y0001083661J-0000009842D01*
G01*
G37*
G36*
G01*
X0003200787Y0001083661D02*
X0003200787Y0001034448D01*
G75*
G02*
X0003190944Y0001024606I-0000009842D01*
G01*
X0003166338Y0001024606D01*
G75*
G02*
X0003156496Y0001034448J0000009842D01*
G01*
X0003156496Y0001083661D01*
G75*
G02*
X0003166338Y0001093503I0000009842D01*
G01*
X0003190944Y0001093503D01*
G75*
G02*
X0003200787Y0001083661J-0000009842D01*
G01*
G37*
G36*
G01*
X0003177165Y0001262795D02*
X0003157480Y0001262795D01*
G75*
G02*
X0003148622Y0001271653J0000008858D01*
G01*
X0003148622Y0001289370D01*
G75*
G02*
X0003157480Y0001298228I0000008858D01*
G01*
X0003177165Y0001298228D01*
G75*
G02*
X0003186023Y0001289370J-0000008858D01*
G01*
X0003186023Y0001271653D01*
G75*
G02*
X0003177165Y0001262795I-0000008858D01*
G01*
G37*
G36*
G01*
X0003177165Y0001201771D02*
X0003157480Y0001201771D01*
G75*
G02*
X0003148622Y0001210629J0000008858D01*
G01*
X0003148622Y0001228346D01*
G75*
G02*
X0003157480Y0001237204I0000008858D01*
G01*
X0003177165Y0001237204D01*
G75*
G02*
X0003186023Y0001228346J-0000008858D01*
G01*
X0003186023Y0001210629D01*
G75*
G02*
X0003177165Y0001201771I-0000008858D01*
G01*
G37*
G36*
G01*
X0003117716Y0001262795D02*
X0003098031Y0001262795D01*
G75*
G02*
X0003089173Y0001271653J0000008858D01*
G01*
X0003089173Y0001289370D01*
G75*
G02*
X0003098031Y0001298228I0000008858D01*
G01*
X0003117716Y0001298228D01*
G75*
G02*
X0003126574Y0001289370J-0000008858D01*
G01*
X0003126574Y0001271653D01*
G75*
G02*
X0003117716Y0001262795I-0000008858D01*
G01*
G37*
G36*
G01*
X0003117716Y0001201771D02*
X0003098031Y0001201771D01*
G75*
G02*
X0003089173Y0001210629J0000008858D01*
G01*
X0003089173Y0001228346D01*
G75*
G02*
X0003098031Y0001237204I0000008858D01*
G01*
X0003117716Y0001237204D01*
G75*
G02*
X0003126574Y0001228346J-0000008858D01*
G01*
X0003126574Y0001210629D01*
G75*
G02*
X0003117716Y0001201771I-0000008858D01*
G01*
G37*
G36*
G01*
X0003059055Y0001200787D02*
X0003039370Y0001200787D01*
G75*
G02*
X0003030511Y0001209645J0000008858D01*
G01*
X0003030511Y0001227362D01*
G75*
G02*
X0003039370Y0001236220I0000008858D01*
G01*
X0003059055Y0001236220D01*
G75*
G02*
X0003067913Y0001227362J-0000008858D01*
G01*
X0003067913Y0001209645D01*
G75*
G02*
X0003059055Y0001200787I-0000008858D01*
G01*
G37*
G36*
G01*
X0003059055Y0001261810D02*
X0003039370Y0001261810D01*
G75*
G02*
X0003030511Y0001270669J0000008858D01*
G01*
X0003030511Y0001288385D01*
G75*
G02*
X0003039370Y0001297244I0000008858D01*
G01*
X0003059055Y0001297244D01*
G75*
G02*
X0003067913Y0001288385J-0000008858D01*
G01*
X0003067913Y0001270669D01*
G75*
G02*
X0003059055Y0001261810I-0000008858D01*
G01*
G37*
G36*
G01*
X0003000000Y0001201771D02*
X0002980314Y0001201771D01*
G75*
G02*
X0002971456Y0001210629J0000008858D01*
G01*
X0002971456Y0001228346D01*
G75*
G02*
X0002980314Y0001237204I0000008858D01*
G01*
X0003000000Y0001237204D01*
G75*
G02*
X0003008858Y0001228346J-0000008858D01*
G01*
X0003008858Y0001210629D01*
G75*
G02*
X0003000000Y0001201771I-0000008858D01*
G01*
G37*
G36*
G01*
X0003000000Y0001262795D02*
X0002980314Y0001262795D01*
G75*
G02*
X0002971456Y0001271653J0000008858D01*
G01*
X0002971456Y0001289370D01*
G75*
G02*
X0002980314Y0001298228I0000008858D01*
G01*
X0003000000Y0001298228D01*
G75*
G02*
X0003008858Y0001289370J-0000008858D01*
G01*
X0003008858Y0001271653D01*
G75*
G02*
X0003000000Y0001262795I-0000008858D01*
G01*
G37*
G36*
G01*
X0003268700Y0000964566D02*
X0003268700Y0000984251D01*
G75*
G02*
X0003277559Y0000993110I0000008858D01*
G01*
X0003295275Y0000993110D01*
G75*
G02*
X0003304133Y0000984251J-0000008858D01*
G01*
X0003304133Y0000964566D01*
G75*
G02*
X0003295275Y0000955708I-0000008858D01*
G01*
X0003277559Y0000955708D01*
G75*
G02*
X0003268700Y0000964566J0000008858D01*
G01*
G37*
G36*
G01*
X0003207677Y0000964566D02*
X0003207677Y0000984251D01*
G75*
G02*
X0003216535Y0000993110I0000008858D01*
G01*
X0003234251Y0000993110D01*
G75*
G02*
X0003243110Y0000984251J-0000008858D01*
G01*
X0003243110Y0000964566D01*
G75*
G02*
X0003234251Y0000955708I-0000008858D01*
G01*
X0003216535Y0000955708D01*
G75*
G02*
X0003207677Y0000964566J0000008858D01*
G01*
G37*
G36*
G01*
X0002727165Y0001075196D02*
X0002727165Y0001094881D01*
G75*
G02*
X0002736023Y0001103740I0000008858D01*
G01*
X0002753740Y0001103740D01*
G75*
G02*
X0002762598Y0001094881J-0000008858D01*
G01*
X0002762598Y0001075196D01*
G75*
G02*
X0002753740Y0001066338I-0000008858D01*
G01*
X0002736023Y0001066338D01*
G75*
G02*
X0002727165Y0001075196J0000008858D01*
G01*
G37*
G36*
G01*
X0002788188Y0001075196D02*
X0002788188Y0001094881D01*
G75*
G02*
X0002797047Y0001103740I0000008858D01*
G01*
X0002814763Y0001103740D01*
G75*
G02*
X0002823622Y0001094881J-0000008858D01*
G01*
X0002823622Y0001075196D01*
G75*
G02*
X0002814763Y0001066338I-0000008858D01*
G01*
X0002797047Y0001066338D01*
G75*
G02*
X0002788188Y0001075196J0000008858D01*
G01*
G37*
G36*
G01*
X0002788385Y0001135826D02*
X0002788385Y0001155511D01*
G75*
G02*
X0002797244Y0001164370I0000008858D01*
G01*
X0002814960Y0001164370D01*
G75*
G02*
X0002823818Y0001155511J-0000008858D01*
G01*
X0002823818Y0001135826D01*
G75*
G02*
X0002814960Y0001126968I-0000008858D01*
G01*
X0002797244Y0001126968D01*
G75*
G02*
X0002788385Y0001135826J0000008858D01*
G01*
G37*
G36*
G01*
X0002727362Y0001135826D02*
X0002727362Y0001155511D01*
G75*
G02*
X0002736220Y0001164370I0000008858D01*
G01*
X0002753937Y0001164370D01*
G75*
G02*
X0002762795Y0001155511J-0000008858D01*
G01*
X0002762795Y0001135826D01*
G75*
G02*
X0002753937Y0001126968I-0000008858D01*
G01*
X0002736220Y0001126968D01*
G75*
G02*
X0002727362Y0001135826J0000008858D01*
G01*
G37*
G36*
G01*
X0003107283Y0001161417D02*
X0003107283Y0001141732D01*
G75*
G02*
X0003098425Y0001132874I-0000008858D01*
G01*
X0003080708Y0001132874D01*
G75*
G02*
X0003071850Y0001141732J0000008858D01*
G01*
X0003071850Y0001161417D01*
G75*
G02*
X0003080708Y0001170275I0000008858D01*
G01*
X0003098425Y0001170275D01*
G75*
G02*
X0003107283Y0001161417J-0000008858D01*
G01*
G37*
G36*
G01*
X0003046259Y0001161417D02*
X0003046259Y0001141732D01*
G75*
G02*
X0003037401Y0001132874I-0000008858D01*
G01*
X0003019685Y0001132874D01*
G75*
G02*
X0003010826Y0001141732J0000008858D01*
G01*
X0003010826Y0001161417D01*
G75*
G02*
X0003019685Y0001170275I0000008858D01*
G01*
X0003037401Y0001170275D01*
G75*
G02*
X0003046259Y0001161417J-0000008858D01*
G01*
G37*
G36*
G01*
X0002725393Y0001197834D02*
X0002725393Y0001217519D01*
G75*
G02*
X0002734251Y0001226377I0000008858D01*
G01*
X0002751968Y0001226377D01*
G75*
G02*
X0002760826Y0001217519J-0000008858D01*
G01*
X0002760826Y0001197834D01*
G75*
G02*
X0002751968Y0001188976I-0000008858D01*
G01*
X0002734251Y0001188976D01*
G75*
G02*
X0002725393Y0001197834J0000008858D01*
G01*
G37*
G36*
G01*
X0002786417Y0001197834D02*
X0002786417Y0001217519D01*
G75*
G02*
X0002795275Y0001226377I0000008858D01*
G01*
X0002812992Y0001226377D01*
G75*
G02*
X0002821850Y0001217519J-0000008858D01*
G01*
X0002821850Y0001197834D01*
G75*
G02*
X0002812992Y0001188976I-0000008858D01*
G01*
X0002795275Y0001188976D01*
G75*
G02*
X0002786417Y0001197834J0000008858D01*
G01*
G37*
G36*
G01*
X0003146653Y0000590551D02*
X0003146653Y0000570866D01*
G75*
G02*
X0003137795Y0000562007I-0000008858D01*
G01*
X0003120078Y0000562007D01*
G75*
G02*
X0003111220Y0000570866J0000008858D01*
G01*
X0003111220Y0000590551D01*
G75*
G02*
X0003120078Y0000599409I0000008858D01*
G01*
X0003137795Y0000599409D01*
G75*
G02*
X0003146653Y0000590551J-0000008858D01*
G01*
G37*
G36*
G01*
X0003085629Y0000590551D02*
X0003085629Y0000570866D01*
G75*
G02*
X0003076771Y0000562007I-0000008858D01*
G01*
X0003059055Y0000562007D01*
G75*
G02*
X0003050196Y0000570866J0000008858D01*
G01*
X0003050196Y0000590551D01*
G75*
G02*
X0003059055Y0000599409I0000008858D01*
G01*
X0003076771Y0000599409D01*
G75*
G02*
X0003085629Y0000590551J-0000008858D01*
G01*
G37*
G36*
G01*
X0003442913Y0000741141D02*
X0003423228Y0000741141D01*
G75*
G02*
X0003414370Y0000750000J0000008858D01*
G01*
X0003414370Y0000767716D01*
G75*
G02*
X0003423228Y0000776574I0000008858D01*
G01*
X0003442913Y0000776574D01*
G75*
G02*
X0003451771Y0000767716J-0000008858D01*
G01*
X0003451771Y0000750000D01*
G75*
G02*
X0003442913Y0000741141I-0000008858D01*
G01*
G37*
G36*
G01*
X0003442913Y0000680118D02*
X0003423228Y0000680118D01*
G75*
G02*
X0003414370Y0000688976J0000008858D01*
G01*
X0003414370Y0000706692D01*
G75*
G02*
X0003423228Y0000715551I0000008858D01*
G01*
X0003442913Y0000715551D01*
G75*
G02*
X0003451771Y0000706692J-0000008858D01*
G01*
X0003451771Y0000688976D01*
G75*
G02*
X0003442913Y0000680118I-0000008858D01*
G01*
G37*
G36*
G01*
X0003344488Y0000715551D02*
X0003364173Y0000715551D01*
G75*
G02*
X0003373031Y0000706692J-0000008858D01*
G01*
X0003373031Y0000688976D01*
G75*
G02*
X0003364173Y0000680118I-0000008858D01*
G01*
X0003344488Y0000680118D01*
G75*
G02*
X0003335629Y0000688976J0000008858D01*
G01*
X0003335629Y0000706692D01*
G75*
G02*
X0003344488Y0000715551I0000008858D01*
G01*
G37*
G36*
G01*
X0003344488Y0000776574D02*
X0003364173Y0000776574D01*
G75*
G02*
X0003373031Y0000767716J-0000008858D01*
G01*
X0003373031Y0000750000D01*
G75*
G02*
X0003364173Y0000741141I-0000008858D01*
G01*
X0003344488Y0000741141D01*
G75*
G02*
X0003335629Y0000750000J0000008858D01*
G01*
X0003335629Y0000767716D01*
G75*
G02*
X0003344488Y0000776574I0000008858D01*
G01*
G37*
G36*
G01*
X0003274606Y0000708661D02*
X0003296259Y0000708661D01*
G75*
G02*
X0003304133Y0000700787J-0000007874D01*
G01*
X0003304133Y0000685039D01*
G75*
G02*
X0003296259Y0000677165I-0000007874D01*
G01*
X0003274606Y0000677165D01*
G75*
G02*
X0003266732Y0000685039J0000007874D01*
G01*
X0003266732Y0000700787D01*
G75*
G02*
X0003274606Y0000708661I0000007874D01*
G01*
G37*
G36*
G01*
X0003274606Y0000773622D02*
X0003296259Y0000773622D01*
G75*
G02*
X0003304133Y0000765748J-0000007874D01*
G01*
X0003304133Y0000750000D01*
G75*
G02*
X0003296259Y0000742125I-0000007874D01*
G01*
X0003274606Y0000742125D01*
G75*
G02*
X0003266732Y0000750000J0000007874D01*
G01*
X0003266732Y0000765748D01*
G75*
G02*
X0003274606Y0000773622I0000007874D01*
G01*
G37*
D22*
X0003157480Y0000811023D03*
X0003027559Y0000811023D03*
X0003155511Y0000974409D03*
X0003025590Y0000974409D03*
G36*
G01*
X0002890748Y0000865157D02*
X0002912401Y0000865157D01*
G75*
G02*
X0002920275Y0000857283J-0000007874D01*
G01*
X0002920275Y0000841535D01*
G75*
G02*
X0002912401Y0000833661I-0000007874D01*
G01*
X0002890748Y0000833661D01*
G75*
G02*
X0002882874Y0000841535J0000007874D01*
G01*
X0002882874Y0000857283D01*
G75*
G02*
X0002890748Y0000865157I0000007874D01*
G01*
G37*
G36*
G01*
X0002890748Y0000800196D02*
X0002912401Y0000800196D01*
G75*
G02*
X0002920275Y0000792322J-0000007874D01*
G01*
X0002920275Y0000776574D01*
G75*
G02*
X0002912401Y0000768700I-0000007874D01*
G01*
X0002890748Y0000768700D01*
G75*
G02*
X0002882874Y0000776574J0000007874D01*
G01*
X0002882874Y0000792322D01*
G75*
G02*
X0002890748Y0000800196I0000007874D01*
G01*
G37*
G04 next file*
G04 Gerber Fmt 4.6, Leading zero omitted, Abs format (unit mm)*
G04 Created by KiCad (PCBNEW (5.1.8)-1) date 2020-11-23 23:28:54*
G01*
G04 APERTURE LIST*
G04 APERTURE END LIST*
G36*
G01*
X0001189960Y0002107283D02*
X0001189960Y0002058070D01*
G75*
G02*
X0001180118Y0002048228I-0000009842D01*
G01*
X0001155511Y0002048228D01*
G75*
G02*
X0001145669Y0002058070J0000009842D01*
G01*
X0001145669Y0002107283D01*
G75*
G02*
X0001155511Y0002117125I0000009842D01*
G01*
X0001180118Y0002117125D01*
G75*
G02*
X0001189960Y0002107283J-0000009842D01*
G01*
G37*
G36*
G01*
X0001074803Y0002107283D02*
X0001074803Y0002058070D01*
G75*
G02*
X0001064960Y0002048228I-0000009842D01*
G01*
X0001040354Y0002048228D01*
G75*
G02*
X0001030511Y0002058070J0000009842D01*
G01*
X0001030511Y0002107283D01*
G75*
G02*
X0001040354Y0002117125I0000009842D01*
G01*
X0001064960Y0002117125D01*
G75*
G02*
X0001074803Y0002107283J-0000009842D01*
G01*
G37*
G36*
G01*
X0001051181Y0002286417D02*
X0001031496Y0002286417D01*
G75*
G02*
X0001022637Y0002295275J0000008858D01*
G01*
X0001022637Y0002312992D01*
G75*
G02*
X0001031496Y0002321850I0000008858D01*
G01*
X0001051181Y0002321850D01*
G75*
G02*
X0001060039Y0002312992J-0000008858D01*
G01*
X0001060039Y0002295275D01*
G75*
G02*
X0001051181Y0002286417I-0000008858D01*
G01*
G37*
G36*
G01*
X0001051181Y0002225393D02*
X0001031496Y0002225393D01*
G75*
G02*
X0001022637Y0002234251J0000008858D01*
G01*
X0001022637Y0002251968D01*
G75*
G02*
X0001031496Y0002260826I0000008858D01*
G01*
X0001051181Y0002260826D01*
G75*
G02*
X0001060039Y0002251968J-0000008858D01*
G01*
X0001060039Y0002234251D01*
G75*
G02*
X0001051181Y0002225393I-0000008858D01*
G01*
G37*
G36*
G01*
X0000991732Y0002286417D02*
X0000972047Y0002286417D01*
G75*
G02*
X0000963188Y0002295275J0000008858D01*
G01*
X0000963188Y0002312992D01*
G75*
G02*
X0000972047Y0002321850I0000008858D01*
G01*
X0000991732Y0002321850D01*
G75*
G02*
X0001000590Y0002312992J-0000008858D01*
G01*
X0001000590Y0002295275D01*
G75*
G02*
X0000991732Y0002286417I-0000008858D01*
G01*
G37*
G36*
G01*
X0000991732Y0002225393D02*
X0000972047Y0002225393D01*
G75*
G02*
X0000963188Y0002234251J0000008858D01*
G01*
X0000963188Y0002251968D01*
G75*
G02*
X0000972047Y0002260826I0000008858D01*
G01*
X0000991732Y0002260826D01*
G75*
G02*
X0001000590Y0002251968J-0000008858D01*
G01*
X0001000590Y0002234251D01*
G75*
G02*
X0000991732Y0002225393I-0000008858D01*
G01*
G37*
G36*
G01*
X0000933070Y0002224409D02*
X0000913385Y0002224409D01*
G75*
G02*
X0000904527Y0002233267J0000008858D01*
G01*
X0000904527Y0002250984D01*
G75*
G02*
X0000913385Y0002259842I0000008858D01*
G01*
X0000933070Y0002259842D01*
G75*
G02*
X0000941929Y0002250984J-0000008858D01*
G01*
X0000941929Y0002233267D01*
G75*
G02*
X0000933070Y0002224409I-0000008858D01*
G01*
G37*
G36*
G01*
X0000933070Y0002285433D02*
X0000913385Y0002285433D01*
G75*
G02*
X0000904527Y0002294291J0000008858D01*
G01*
X0000904527Y0002312007D01*
G75*
G02*
X0000913385Y0002320866I0000008858D01*
G01*
X0000933070Y0002320866D01*
G75*
G02*
X0000941929Y0002312007J-0000008858D01*
G01*
X0000941929Y0002294291D01*
G75*
G02*
X0000933070Y0002285433I-0000008858D01*
G01*
G37*
G36*
G01*
X0000874015Y0002225393D02*
X0000854330Y0002225393D01*
G75*
G02*
X0000845472Y0002234251J0000008858D01*
G01*
X0000845472Y0002251968D01*
G75*
G02*
X0000854330Y0002260826I0000008858D01*
G01*
X0000874015Y0002260826D01*
G75*
G02*
X0000882874Y0002251968J-0000008858D01*
G01*
X0000882874Y0002234251D01*
G75*
G02*
X0000874015Y0002225393I-0000008858D01*
G01*
G37*
G36*
G01*
X0000874015Y0002286417D02*
X0000854330Y0002286417D01*
G75*
G02*
X0000845472Y0002295275J0000008858D01*
G01*
X0000845472Y0002312992D01*
G75*
G02*
X0000854330Y0002321850I0000008858D01*
G01*
X0000874015Y0002321850D01*
G75*
G02*
X0000882874Y0002312992J-0000008858D01*
G01*
X0000882874Y0002295275D01*
G75*
G02*
X0000874015Y0002286417I-0000008858D01*
G01*
G37*
G36*
G01*
X0001142716Y0001988188D02*
X0001142716Y0002007874D01*
G75*
G02*
X0001151574Y0002016732I0000008858D01*
G01*
X0001169291Y0002016732D01*
G75*
G02*
X0001178149Y0002007874J-0000008858D01*
G01*
X0001178149Y0001988188D01*
G75*
G02*
X0001169291Y0001979330I-0000008858D01*
G01*
X0001151574Y0001979330D01*
G75*
G02*
X0001142716Y0001988188J0000008858D01*
G01*
G37*
G36*
G01*
X0001081692Y0001988188D02*
X0001081692Y0002007874D01*
G75*
G02*
X0001090551Y0002016732I0000008858D01*
G01*
X0001108267Y0002016732D01*
G75*
G02*
X0001117125Y0002007874J-0000008858D01*
G01*
X0001117125Y0001988188D01*
G75*
G02*
X0001108267Y0001979330I-0000008858D01*
G01*
X0001090551Y0001979330D01*
G75*
G02*
X0001081692Y0001988188J0000008858D01*
G01*
G37*
G36*
G01*
X0000601181Y0002098818D02*
X0000601181Y0002118503D01*
G75*
G02*
X0000610039Y0002127362I0000008858D01*
G01*
X0000627755Y0002127362D01*
G75*
G02*
X0000636614Y0002118503J-0000008858D01*
G01*
X0000636614Y0002098818D01*
G75*
G02*
X0000627755Y0002089960I-0000008858D01*
G01*
X0000610039Y0002089960D01*
G75*
G02*
X0000601181Y0002098818J0000008858D01*
G01*
G37*
G36*
G01*
X0000662204Y0002098818D02*
X0000662204Y0002118503D01*
G75*
G02*
X0000671062Y0002127362I0000008858D01*
G01*
X0000688779Y0002127362D01*
G75*
G02*
X0000697637Y0002118503J-0000008858D01*
G01*
X0000697637Y0002098818D01*
G75*
G02*
X0000688779Y0002089960I-0000008858D01*
G01*
X0000671062Y0002089960D01*
G75*
G02*
X0000662204Y0002098818J0000008858D01*
G01*
G37*
G36*
G01*
X0000662401Y0002159448D02*
X0000662401Y0002179133D01*
G75*
G02*
X0000671259Y0002187992I0000008858D01*
G01*
X0000688976Y0002187992D01*
G75*
G02*
X0000697834Y0002179133J-0000008858D01*
G01*
X0000697834Y0002159448D01*
G75*
G02*
X0000688976Y0002150590I-0000008858D01*
G01*
X0000671259Y0002150590D01*
G75*
G02*
X0000662401Y0002159448J0000008858D01*
G01*
G37*
G36*
G01*
X0000601377Y0002159448D02*
X0000601377Y0002179133D01*
G75*
G02*
X0000610236Y0002187992I0000008858D01*
G01*
X0000627952Y0002187992D01*
G75*
G02*
X0000636811Y0002179133J-0000008858D01*
G01*
X0000636811Y0002159448D01*
G75*
G02*
X0000627952Y0002150590I-0000008858D01*
G01*
X0000610236Y0002150590D01*
G75*
G02*
X0000601377Y0002159448J0000008858D01*
G01*
G37*
G36*
G01*
X0000981299Y0002185039D02*
X0000981299Y0002165354D01*
G75*
G02*
X0000972440Y0002156496I-0000008858D01*
G01*
X0000954724Y0002156496D01*
G75*
G02*
X0000945866Y0002165354J0000008858D01*
G01*
X0000945866Y0002185039D01*
G75*
G02*
X0000954724Y0002193897I0000008858D01*
G01*
X0000972440Y0002193897D01*
G75*
G02*
X0000981299Y0002185039J-0000008858D01*
G01*
G37*
G36*
G01*
X0000920275Y0002185039D02*
X0000920275Y0002165354D01*
G75*
G02*
X0000911417Y0002156496I-0000008858D01*
G01*
X0000893700Y0002156496D01*
G75*
G02*
X0000884842Y0002165354J0000008858D01*
G01*
X0000884842Y0002185039D01*
G75*
G02*
X0000893700Y0002193897I0000008858D01*
G01*
X0000911417Y0002193897D01*
G75*
G02*
X0000920275Y0002185039J-0000008858D01*
G01*
G37*
G36*
G01*
X0000599409Y0002221456D02*
X0000599409Y0002241141D01*
G75*
G02*
X0000608267Y0002250000I0000008858D01*
G01*
X0000625984Y0002250000D01*
G75*
G02*
X0000634842Y0002241141J-0000008858D01*
G01*
X0000634842Y0002221456D01*
G75*
G02*
X0000625984Y0002212598I-0000008858D01*
G01*
X0000608267Y0002212598D01*
G75*
G02*
X0000599409Y0002221456J0000008858D01*
G01*
G37*
G36*
G01*
X0000660433Y0002221456D02*
X0000660433Y0002241141D01*
G75*
G02*
X0000669291Y0002250000I0000008858D01*
G01*
X0000687007Y0002250000D01*
G75*
G02*
X0000695866Y0002241141J-0000008858D01*
G01*
X0000695866Y0002221456D01*
G75*
G02*
X0000687007Y0002212598I-0000008858D01*
G01*
X0000669291Y0002212598D01*
G75*
G02*
X0000660433Y0002221456J0000008858D01*
G01*
G37*
G36*
G01*
X0001020669Y0001614173D02*
X0001020669Y0001594488D01*
G75*
G02*
X0001011811Y0001585629I-0000008858D01*
G01*
X0000994094Y0001585629D01*
G75*
G02*
X0000985236Y0001594488J0000008858D01*
G01*
X0000985236Y0001614173D01*
G75*
G02*
X0000994094Y0001623031I0000008858D01*
G01*
X0001011811Y0001623031D01*
G75*
G02*
X0001020669Y0001614173J-0000008858D01*
G01*
G37*
G36*
G01*
X0000959645Y0001614173D02*
X0000959645Y0001594488D01*
G75*
G02*
X0000950787Y0001585629I-0000008858D01*
G01*
X0000933070Y0001585629D01*
G75*
G02*
X0000924212Y0001594488J0000008858D01*
G01*
X0000924212Y0001614173D01*
G75*
G02*
X0000933070Y0001623031I0000008858D01*
G01*
X0000950787Y0001623031D01*
G75*
G02*
X0000959645Y0001614173J-0000008858D01*
G01*
G37*
G36*
G01*
X0001316929Y0001764763D02*
X0001297244Y0001764763D01*
G75*
G02*
X0001288385Y0001773622J0000008858D01*
G01*
X0001288385Y0001791338D01*
G75*
G02*
X0001297244Y0001800196I0000008858D01*
G01*
X0001316929Y0001800196D01*
G75*
G02*
X0001325787Y0001791338J-0000008858D01*
G01*
X0001325787Y0001773622D01*
G75*
G02*
X0001316929Y0001764763I-0000008858D01*
G01*
G37*
G36*
G01*
X0001316929Y0001703740D02*
X0001297244Y0001703740D01*
G75*
G02*
X0001288385Y0001712598J0000008858D01*
G01*
X0001288385Y0001730314D01*
G75*
G02*
X0001297244Y0001739173I0000008858D01*
G01*
X0001316929Y0001739173D01*
G75*
G02*
X0001325787Y0001730314J-0000008858D01*
G01*
X0001325787Y0001712598D01*
G75*
G02*
X0001316929Y0001703740I-0000008858D01*
G01*
G37*
G36*
G01*
X0001218503Y0001739173D02*
X0001238188Y0001739173D01*
G75*
G02*
X0001247047Y0001730314J-0000008858D01*
G01*
X0001247047Y0001712598D01*
G75*
G02*
X0001238188Y0001703740I-0000008858D01*
G01*
X0001218503Y0001703740D01*
G75*
G02*
X0001209645Y0001712598J0000008858D01*
G01*
X0001209645Y0001730314D01*
G75*
G02*
X0001218503Y0001739173I0000008858D01*
G01*
G37*
G36*
G01*
X0001218503Y0001800196D02*
X0001238188Y0001800196D01*
G75*
G02*
X0001247047Y0001791338J-0000008858D01*
G01*
X0001247047Y0001773622D01*
G75*
G02*
X0001238188Y0001764763I-0000008858D01*
G01*
X0001218503Y0001764763D01*
G75*
G02*
X0001209645Y0001773622J0000008858D01*
G01*
X0001209645Y0001791338D01*
G75*
G02*
X0001218503Y0001800196I0000008858D01*
G01*
G37*
G36*
G01*
X0001148622Y0001732283D02*
X0001170275Y0001732283D01*
G75*
G02*
X0001178149Y0001724409J-0000007874D01*
G01*
X0001178149Y0001708661D01*
G75*
G02*
X0001170275Y0001700787I-0000007874D01*
G01*
X0001148622Y0001700787D01*
G75*
G02*
X0001140748Y0001708661J0000007874D01*
G01*
X0001140748Y0001724409D01*
G75*
G02*
X0001148622Y0001732283I0000007874D01*
G01*
G37*
G36*
G01*
X0001148622Y0001797244D02*
X0001170275Y0001797244D01*
G75*
G02*
X0001178149Y0001789370J-0000007874D01*
G01*
X0001178149Y0001773622D01*
G75*
G02*
X0001170275Y0001765748I-0000007874D01*
G01*
X0001148622Y0001765748D01*
G75*
G02*
X0001140748Y0001773622J0000007874D01*
G01*
X0001140748Y0001789370D01*
G75*
G02*
X0001148622Y0001797244I0000007874D01*
G01*
G37*
D23*
X0001031496Y0001834645D03*
X0000901574Y0001834645D03*
X0001029527Y0001998031D03*
X0000899606Y0001998031D03*
G36*
G01*
X0000764763Y0001888779D02*
X0000786417Y0001888779D01*
G75*
G02*
X0000794291Y0001880905J-0000007874D01*
G01*
X0000794291Y0001865157D01*
G75*
G02*
X0000786417Y0001857283I-0000007874D01*
G01*
X0000764763Y0001857283D01*
G75*
G02*
X0000756889Y0001865157J0000007874D01*
G01*
X0000756889Y0001880905D01*
G75*
G02*
X0000764763Y0001888779I0000007874D01*
G01*
G37*
G36*
G01*
X0000764763Y0001823818D02*
X0000786417Y0001823818D01*
G75*
G02*
X0000794291Y0001815944J-0000007874D01*
G01*
X0000794291Y0001800196D01*
G75*
G02*
X0000786417Y0001792322I-0000007874D01*
G01*
X0000764763Y0001792322D01*
G75*
G02*
X0000756889Y0001800196J0000007874D01*
G01*
X0000756889Y0001815944D01*
G75*
G02*
X0000764763Y0001823818I0000007874D01*
G01*
G37*
G04 next file*
G04 Gerber Fmt 4.6, Leading zero omitted, Abs format (unit mm)*
G04 Created by KiCad (PCBNEW (5.1.8)-1) date 2020-11-23 23:28:54*
G01*
G04 APERTURE LIST*
G04 APERTURE END LIST*
G36*
G01*
X0002252952Y0002107283D02*
X0002252952Y0002058070D01*
G75*
G02*
X0002243110Y0002048228I-0000009842D01*
G01*
X0002218503Y0002048228D01*
G75*
G02*
X0002208661Y0002058070J0000009842D01*
G01*
X0002208661Y0002107283D01*
G75*
G02*
X0002218503Y0002117125I0000009842D01*
G01*
X0002243110Y0002117125D01*
G75*
G02*
X0002252952Y0002107283J-0000009842D01*
G01*
G37*
G36*
G01*
X0002137795Y0002107283D02*
X0002137795Y0002058070D01*
G75*
G02*
X0002127952Y0002048228I-0000009842D01*
G01*
X0002103346Y0002048228D01*
G75*
G02*
X0002093503Y0002058070J0000009842D01*
G01*
X0002093503Y0002107283D01*
G75*
G02*
X0002103346Y0002117125I0000009842D01*
G01*
X0002127952Y0002117125D01*
G75*
G02*
X0002137795Y0002107283J-0000009842D01*
G01*
G37*
G36*
G01*
X0002114173Y0002286417D02*
X0002094488Y0002286417D01*
G75*
G02*
X0002085629Y0002295275J0000008858D01*
G01*
X0002085629Y0002312992D01*
G75*
G02*
X0002094488Y0002321850I0000008858D01*
G01*
X0002114173Y0002321850D01*
G75*
G02*
X0002123031Y0002312992J-0000008858D01*
G01*
X0002123031Y0002295275D01*
G75*
G02*
X0002114173Y0002286417I-0000008858D01*
G01*
G37*
G36*
G01*
X0002114173Y0002225393D02*
X0002094488Y0002225393D01*
G75*
G02*
X0002085629Y0002234251J0000008858D01*
G01*
X0002085629Y0002251968D01*
G75*
G02*
X0002094488Y0002260826I0000008858D01*
G01*
X0002114173Y0002260826D01*
G75*
G02*
X0002123031Y0002251968J-0000008858D01*
G01*
X0002123031Y0002234251D01*
G75*
G02*
X0002114173Y0002225393I-0000008858D01*
G01*
G37*
G36*
G01*
X0002054724Y0002286417D02*
X0002035039Y0002286417D01*
G75*
G02*
X0002026181Y0002295275J0000008858D01*
G01*
X0002026181Y0002312992D01*
G75*
G02*
X0002035039Y0002321850I0000008858D01*
G01*
X0002054724Y0002321850D01*
G75*
G02*
X0002063582Y0002312992J-0000008858D01*
G01*
X0002063582Y0002295275D01*
G75*
G02*
X0002054724Y0002286417I-0000008858D01*
G01*
G37*
G36*
G01*
X0002054724Y0002225393D02*
X0002035039Y0002225393D01*
G75*
G02*
X0002026181Y0002234251J0000008858D01*
G01*
X0002026181Y0002251968D01*
G75*
G02*
X0002035039Y0002260826I0000008858D01*
G01*
X0002054724Y0002260826D01*
G75*
G02*
X0002063582Y0002251968J-0000008858D01*
G01*
X0002063582Y0002234251D01*
G75*
G02*
X0002054724Y0002225393I-0000008858D01*
G01*
G37*
G36*
G01*
X0001996062Y0002224409D02*
X0001976377Y0002224409D01*
G75*
G02*
X0001967519Y0002233267J0000008858D01*
G01*
X0001967519Y0002250984D01*
G75*
G02*
X0001976377Y0002259842I0000008858D01*
G01*
X0001996062Y0002259842D01*
G75*
G02*
X0002004921Y0002250984J-0000008858D01*
G01*
X0002004921Y0002233267D01*
G75*
G02*
X0001996062Y0002224409I-0000008858D01*
G01*
G37*
G36*
G01*
X0001996062Y0002285433D02*
X0001976377Y0002285433D01*
G75*
G02*
X0001967519Y0002294291J0000008858D01*
G01*
X0001967519Y0002312007D01*
G75*
G02*
X0001976377Y0002320866I0000008858D01*
G01*
X0001996062Y0002320866D01*
G75*
G02*
X0002004921Y0002312007J-0000008858D01*
G01*
X0002004921Y0002294291D01*
G75*
G02*
X0001996062Y0002285433I-0000008858D01*
G01*
G37*
G36*
G01*
X0001937007Y0002225393D02*
X0001917322Y0002225393D01*
G75*
G02*
X0001908464Y0002234251J0000008858D01*
G01*
X0001908464Y0002251968D01*
G75*
G02*
X0001917322Y0002260826I0000008858D01*
G01*
X0001937007Y0002260826D01*
G75*
G02*
X0001945866Y0002251968J-0000008858D01*
G01*
X0001945866Y0002234251D01*
G75*
G02*
X0001937007Y0002225393I-0000008858D01*
G01*
G37*
G36*
G01*
X0001937007Y0002286417D02*
X0001917322Y0002286417D01*
G75*
G02*
X0001908464Y0002295275J0000008858D01*
G01*
X0001908464Y0002312992D01*
G75*
G02*
X0001917322Y0002321850I0000008858D01*
G01*
X0001937007Y0002321850D01*
G75*
G02*
X0001945866Y0002312992J-0000008858D01*
G01*
X0001945866Y0002295275D01*
G75*
G02*
X0001937007Y0002286417I-0000008858D01*
G01*
G37*
G36*
G01*
X0002205708Y0001988188D02*
X0002205708Y0002007874D01*
G75*
G02*
X0002214566Y0002016732I0000008858D01*
G01*
X0002232283Y0002016732D01*
G75*
G02*
X0002241141Y0002007874J-0000008858D01*
G01*
X0002241141Y0001988188D01*
G75*
G02*
X0002232283Y0001979330I-0000008858D01*
G01*
X0002214566Y0001979330D01*
G75*
G02*
X0002205708Y0001988188J0000008858D01*
G01*
G37*
G36*
G01*
X0002144685Y0001988188D02*
X0002144685Y0002007874D01*
G75*
G02*
X0002153543Y0002016732I0000008858D01*
G01*
X0002171259Y0002016732D01*
G75*
G02*
X0002180118Y0002007874J-0000008858D01*
G01*
X0002180118Y0001988188D01*
G75*
G02*
X0002171259Y0001979330I-0000008858D01*
G01*
X0002153543Y0001979330D01*
G75*
G02*
X0002144685Y0001988188J0000008858D01*
G01*
G37*
G36*
G01*
X0001664173Y0002098818D02*
X0001664173Y0002118503D01*
G75*
G02*
X0001673031Y0002127362I0000008858D01*
G01*
X0001690748Y0002127362D01*
G75*
G02*
X0001699606Y0002118503J-0000008858D01*
G01*
X0001699606Y0002098818D01*
G75*
G02*
X0001690748Y0002089960I-0000008858D01*
G01*
X0001673031Y0002089960D01*
G75*
G02*
X0001664173Y0002098818J0000008858D01*
G01*
G37*
G36*
G01*
X0001725196Y0002098818D02*
X0001725196Y0002118503D01*
G75*
G02*
X0001734055Y0002127362I0000008858D01*
G01*
X0001751771Y0002127362D01*
G75*
G02*
X0001760629Y0002118503J-0000008858D01*
G01*
X0001760629Y0002098818D01*
G75*
G02*
X0001751771Y0002089960I-0000008858D01*
G01*
X0001734055Y0002089960D01*
G75*
G02*
X0001725196Y0002098818J0000008858D01*
G01*
G37*
G36*
G01*
X0001725393Y0002159448D02*
X0001725393Y0002179133D01*
G75*
G02*
X0001734251Y0002187992I0000008858D01*
G01*
X0001751968Y0002187992D01*
G75*
G02*
X0001760826Y0002179133J-0000008858D01*
G01*
X0001760826Y0002159448D01*
G75*
G02*
X0001751968Y0002150590I-0000008858D01*
G01*
X0001734251Y0002150590D01*
G75*
G02*
X0001725393Y0002159448J0000008858D01*
G01*
G37*
G36*
G01*
X0001664370Y0002159448D02*
X0001664370Y0002179133D01*
G75*
G02*
X0001673228Y0002187992I0000008858D01*
G01*
X0001690944Y0002187992D01*
G75*
G02*
X0001699803Y0002179133J-0000008858D01*
G01*
X0001699803Y0002159448D01*
G75*
G02*
X0001690944Y0002150590I-0000008858D01*
G01*
X0001673228Y0002150590D01*
G75*
G02*
X0001664370Y0002159448J0000008858D01*
G01*
G37*
G36*
G01*
X0002044291Y0002185039D02*
X0002044291Y0002165354D01*
G75*
G02*
X0002035433Y0002156496I-0000008858D01*
G01*
X0002017716Y0002156496D01*
G75*
G02*
X0002008858Y0002165354J0000008858D01*
G01*
X0002008858Y0002185039D01*
G75*
G02*
X0002017716Y0002193897I0000008858D01*
G01*
X0002035433Y0002193897D01*
G75*
G02*
X0002044291Y0002185039J-0000008858D01*
G01*
G37*
G36*
G01*
X0001983267Y0002185039D02*
X0001983267Y0002165354D01*
G75*
G02*
X0001974409Y0002156496I-0000008858D01*
G01*
X0001956692Y0002156496D01*
G75*
G02*
X0001947834Y0002165354J0000008858D01*
G01*
X0001947834Y0002185039D01*
G75*
G02*
X0001956692Y0002193897I0000008858D01*
G01*
X0001974409Y0002193897D01*
G75*
G02*
X0001983267Y0002185039J-0000008858D01*
G01*
G37*
G36*
G01*
X0001662401Y0002221456D02*
X0001662401Y0002241141D01*
G75*
G02*
X0001671259Y0002250000I0000008858D01*
G01*
X0001688976Y0002250000D01*
G75*
G02*
X0001697834Y0002241141J-0000008858D01*
G01*
X0001697834Y0002221456D01*
G75*
G02*
X0001688976Y0002212598I-0000008858D01*
G01*
X0001671259Y0002212598D01*
G75*
G02*
X0001662401Y0002221456J0000008858D01*
G01*
G37*
G36*
G01*
X0001723425Y0002221456D02*
X0001723425Y0002241141D01*
G75*
G02*
X0001732283Y0002250000I0000008858D01*
G01*
X0001750000Y0002250000D01*
G75*
G02*
X0001758858Y0002241141J-0000008858D01*
G01*
X0001758858Y0002221456D01*
G75*
G02*
X0001750000Y0002212598I-0000008858D01*
G01*
X0001732283Y0002212598D01*
G75*
G02*
X0001723425Y0002221456J0000008858D01*
G01*
G37*
G36*
G01*
X0002083661Y0001614173D02*
X0002083661Y0001594488D01*
G75*
G02*
X0002074803Y0001585629I-0000008858D01*
G01*
X0002057086Y0001585629D01*
G75*
G02*
X0002048228Y0001594488J0000008858D01*
G01*
X0002048228Y0001614173D01*
G75*
G02*
X0002057086Y0001623031I0000008858D01*
G01*
X0002074803Y0001623031D01*
G75*
G02*
X0002083661Y0001614173J-0000008858D01*
G01*
G37*
G36*
G01*
X0002022637Y0001614173D02*
X0002022637Y0001594488D01*
G75*
G02*
X0002013779Y0001585629I-0000008858D01*
G01*
X0001996062Y0001585629D01*
G75*
G02*
X0001987204Y0001594488J0000008858D01*
G01*
X0001987204Y0001614173D01*
G75*
G02*
X0001996062Y0001623031I0000008858D01*
G01*
X0002013779Y0001623031D01*
G75*
G02*
X0002022637Y0001614173J-0000008858D01*
G01*
G37*
G36*
G01*
X0002379921Y0001764763D02*
X0002360236Y0001764763D01*
G75*
G02*
X0002351377Y0001773622J0000008858D01*
G01*
X0002351377Y0001791338D01*
G75*
G02*
X0002360236Y0001800196I0000008858D01*
G01*
X0002379921Y0001800196D01*
G75*
G02*
X0002388779Y0001791338J-0000008858D01*
G01*
X0002388779Y0001773622D01*
G75*
G02*
X0002379921Y0001764763I-0000008858D01*
G01*
G37*
G36*
G01*
X0002379921Y0001703740D02*
X0002360236Y0001703740D01*
G75*
G02*
X0002351377Y0001712598J0000008858D01*
G01*
X0002351377Y0001730314D01*
G75*
G02*
X0002360236Y0001739173I0000008858D01*
G01*
X0002379921Y0001739173D01*
G75*
G02*
X0002388779Y0001730314J-0000008858D01*
G01*
X0002388779Y0001712598D01*
G75*
G02*
X0002379921Y0001703740I-0000008858D01*
G01*
G37*
G36*
G01*
X0002281496Y0001739173D02*
X0002301181Y0001739173D01*
G75*
G02*
X0002310039Y0001730314J-0000008858D01*
G01*
X0002310039Y0001712598D01*
G75*
G02*
X0002301181Y0001703740I-0000008858D01*
G01*
X0002281496Y0001703740D01*
G75*
G02*
X0002272637Y0001712598J0000008858D01*
G01*
X0002272637Y0001730314D01*
G75*
G02*
X0002281496Y0001739173I0000008858D01*
G01*
G37*
G36*
G01*
X0002281496Y0001800196D02*
X0002301181Y0001800196D01*
G75*
G02*
X0002310039Y0001791338J-0000008858D01*
G01*
X0002310039Y0001773622D01*
G75*
G02*
X0002301181Y0001764763I-0000008858D01*
G01*
X0002281496Y0001764763D01*
G75*
G02*
X0002272637Y0001773622J0000008858D01*
G01*
X0002272637Y0001791338D01*
G75*
G02*
X0002281496Y0001800196I0000008858D01*
G01*
G37*
G36*
G01*
X0002211614Y0001732283D02*
X0002233267Y0001732283D01*
G75*
G02*
X0002241141Y0001724409J-0000007874D01*
G01*
X0002241141Y0001708661D01*
G75*
G02*
X0002233267Y0001700787I-0000007874D01*
G01*
X0002211614Y0001700787D01*
G75*
G02*
X0002203740Y0001708661J0000007874D01*
G01*
X0002203740Y0001724409D01*
G75*
G02*
X0002211614Y0001732283I0000007874D01*
G01*
G37*
G36*
G01*
X0002211614Y0001797244D02*
X0002233267Y0001797244D01*
G75*
G02*
X0002241141Y0001789370J-0000007874D01*
G01*
X0002241141Y0001773622D01*
G75*
G02*
X0002233267Y0001765748I-0000007874D01*
G01*
X0002211614Y0001765748D01*
G75*
G02*
X0002203740Y0001773622J0000007874D01*
G01*
X0002203740Y0001789370D01*
G75*
G02*
X0002211614Y0001797244I0000007874D01*
G01*
G37*
D24*
X0002094488Y0001834645D03*
X0001964566Y0001834645D03*
X0002092519Y0001998031D03*
X0001962598Y0001998031D03*
G36*
G01*
X0001827755Y0001888779D02*
X0001849409Y0001888779D01*
G75*
G02*
X0001857283Y0001880905J-0000007874D01*
G01*
X0001857283Y0001865157D01*
G75*
G02*
X0001849409Y0001857283I-0000007874D01*
G01*
X0001827755Y0001857283D01*
G75*
G02*
X0001819881Y0001865157J0000007874D01*
G01*
X0001819881Y0001880905D01*
G75*
G02*
X0001827755Y0001888779I0000007874D01*
G01*
G37*
G36*
G01*
X0001827755Y0001823818D02*
X0001849409Y0001823818D01*
G75*
G02*
X0001857283Y0001815944J-0000007874D01*
G01*
X0001857283Y0001800196D01*
G75*
G02*
X0001849409Y0001792322I-0000007874D01*
G01*
X0001827755Y0001792322D01*
G75*
G02*
X0001819881Y0001800196J0000007874D01*
G01*
X0001819881Y0001815944D01*
G75*
G02*
X0001827755Y0001823818I0000007874D01*
G01*
G37*
G04 next file*
G04 Gerber Fmt 4.6, Leading zero omitted, Abs format (unit mm)*
G04 Created by KiCad (PCBNEW (5.1.8)-1) date 2020-11-23 23:28:54*
G01*
G04 APERTURE LIST*
G04 APERTURE END LIST*
G36*
G01*
X0003315944Y0002107283D02*
X0003315944Y0002058070D01*
G75*
G02*
X0003306102Y0002048228I-0000009842D01*
G01*
X0003281496Y0002048228D01*
G75*
G02*
X0003271653Y0002058070J0000009842D01*
G01*
X0003271653Y0002107283D01*
G75*
G02*
X0003281496Y0002117125I0000009842D01*
G01*
X0003306102Y0002117125D01*
G75*
G02*
X0003315944Y0002107283J-0000009842D01*
G01*
G37*
G36*
G01*
X0003200787Y0002107283D02*
X0003200787Y0002058070D01*
G75*
G02*
X0003190944Y0002048228I-0000009842D01*
G01*
X0003166338Y0002048228D01*
G75*
G02*
X0003156496Y0002058070J0000009842D01*
G01*
X0003156496Y0002107283D01*
G75*
G02*
X0003166338Y0002117125I0000009842D01*
G01*
X0003190944Y0002117125D01*
G75*
G02*
X0003200787Y0002107283J-0000009842D01*
G01*
G37*
G36*
G01*
X0003177165Y0002286417D02*
X0003157480Y0002286417D01*
G75*
G02*
X0003148622Y0002295275J0000008858D01*
G01*
X0003148622Y0002312992D01*
G75*
G02*
X0003157480Y0002321850I0000008858D01*
G01*
X0003177165Y0002321850D01*
G75*
G02*
X0003186023Y0002312992J-0000008858D01*
G01*
X0003186023Y0002295275D01*
G75*
G02*
X0003177165Y0002286417I-0000008858D01*
G01*
G37*
G36*
G01*
X0003177165Y0002225393D02*
X0003157480Y0002225393D01*
G75*
G02*
X0003148622Y0002234251J0000008858D01*
G01*
X0003148622Y0002251968D01*
G75*
G02*
X0003157480Y0002260826I0000008858D01*
G01*
X0003177165Y0002260826D01*
G75*
G02*
X0003186023Y0002251968J-0000008858D01*
G01*
X0003186023Y0002234251D01*
G75*
G02*
X0003177165Y0002225393I-0000008858D01*
G01*
G37*
G36*
G01*
X0003117716Y0002286417D02*
X0003098031Y0002286417D01*
G75*
G02*
X0003089173Y0002295275J0000008858D01*
G01*
X0003089173Y0002312992D01*
G75*
G02*
X0003098031Y0002321850I0000008858D01*
G01*
X0003117716Y0002321850D01*
G75*
G02*
X0003126574Y0002312992J-0000008858D01*
G01*
X0003126574Y0002295275D01*
G75*
G02*
X0003117716Y0002286417I-0000008858D01*
G01*
G37*
G36*
G01*
X0003117716Y0002225393D02*
X0003098031Y0002225393D01*
G75*
G02*
X0003089173Y0002234251J0000008858D01*
G01*
X0003089173Y0002251968D01*
G75*
G02*
X0003098031Y0002260826I0000008858D01*
G01*
X0003117716Y0002260826D01*
G75*
G02*
X0003126574Y0002251968J-0000008858D01*
G01*
X0003126574Y0002234251D01*
G75*
G02*
X0003117716Y0002225393I-0000008858D01*
G01*
G37*
G36*
G01*
X0003059055Y0002224409D02*
X0003039370Y0002224409D01*
G75*
G02*
X0003030511Y0002233267J0000008858D01*
G01*
X0003030511Y0002250984D01*
G75*
G02*
X0003039370Y0002259842I0000008858D01*
G01*
X0003059055Y0002259842D01*
G75*
G02*
X0003067913Y0002250984J-0000008858D01*
G01*
X0003067913Y0002233267D01*
G75*
G02*
X0003059055Y0002224409I-0000008858D01*
G01*
G37*
G36*
G01*
X0003059055Y0002285433D02*
X0003039370Y0002285433D01*
G75*
G02*
X0003030511Y0002294291J0000008858D01*
G01*
X0003030511Y0002312007D01*
G75*
G02*
X0003039370Y0002320866I0000008858D01*
G01*
X0003059055Y0002320866D01*
G75*
G02*
X0003067913Y0002312007J-0000008858D01*
G01*
X0003067913Y0002294291D01*
G75*
G02*
X0003059055Y0002285433I-0000008858D01*
G01*
G37*
G36*
G01*
X0003000000Y0002225393D02*
X0002980314Y0002225393D01*
G75*
G02*
X0002971456Y0002234251J0000008858D01*
G01*
X0002971456Y0002251968D01*
G75*
G02*
X0002980314Y0002260826I0000008858D01*
G01*
X0003000000Y0002260826D01*
G75*
G02*
X0003008858Y0002251968J-0000008858D01*
G01*
X0003008858Y0002234251D01*
G75*
G02*
X0003000000Y0002225393I-0000008858D01*
G01*
G37*
G36*
G01*
X0003000000Y0002286417D02*
X0002980314Y0002286417D01*
G75*
G02*
X0002971456Y0002295275J0000008858D01*
G01*
X0002971456Y0002312992D01*
G75*
G02*
X0002980314Y0002321850I0000008858D01*
G01*
X0003000000Y0002321850D01*
G75*
G02*
X0003008858Y0002312992J-0000008858D01*
G01*
X0003008858Y0002295275D01*
G75*
G02*
X0003000000Y0002286417I-0000008858D01*
G01*
G37*
G36*
G01*
X0003268700Y0001988188D02*
X0003268700Y0002007874D01*
G75*
G02*
X0003277559Y0002016732I0000008858D01*
G01*
X0003295275Y0002016732D01*
G75*
G02*
X0003304133Y0002007874J-0000008858D01*
G01*
X0003304133Y0001988188D01*
G75*
G02*
X0003295275Y0001979330I-0000008858D01*
G01*
X0003277559Y0001979330D01*
G75*
G02*
X0003268700Y0001988188J0000008858D01*
G01*
G37*
G36*
G01*
X0003207677Y0001988188D02*
X0003207677Y0002007874D01*
G75*
G02*
X0003216535Y0002016732I0000008858D01*
G01*
X0003234251Y0002016732D01*
G75*
G02*
X0003243110Y0002007874J-0000008858D01*
G01*
X0003243110Y0001988188D01*
G75*
G02*
X0003234251Y0001979330I-0000008858D01*
G01*
X0003216535Y0001979330D01*
G75*
G02*
X0003207677Y0001988188J0000008858D01*
G01*
G37*
G36*
G01*
X0002727165Y0002098818D02*
X0002727165Y0002118503D01*
G75*
G02*
X0002736023Y0002127362I0000008858D01*
G01*
X0002753740Y0002127362D01*
G75*
G02*
X0002762598Y0002118503J-0000008858D01*
G01*
X0002762598Y0002098818D01*
G75*
G02*
X0002753740Y0002089960I-0000008858D01*
G01*
X0002736023Y0002089960D01*
G75*
G02*
X0002727165Y0002098818J0000008858D01*
G01*
G37*
G36*
G01*
X0002788188Y0002098818D02*
X0002788188Y0002118503D01*
G75*
G02*
X0002797047Y0002127362I0000008858D01*
G01*
X0002814763Y0002127362D01*
G75*
G02*
X0002823622Y0002118503J-0000008858D01*
G01*
X0002823622Y0002098818D01*
G75*
G02*
X0002814763Y0002089960I-0000008858D01*
G01*
X0002797047Y0002089960D01*
G75*
G02*
X0002788188Y0002098818J0000008858D01*
G01*
G37*
G36*
G01*
X0002788385Y0002159448D02*
X0002788385Y0002179133D01*
G75*
G02*
X0002797244Y0002187992I0000008858D01*
G01*
X0002814960Y0002187992D01*
G75*
G02*
X0002823818Y0002179133J-0000008858D01*
G01*
X0002823818Y0002159448D01*
G75*
G02*
X0002814960Y0002150590I-0000008858D01*
G01*
X0002797244Y0002150590D01*
G75*
G02*
X0002788385Y0002159448J0000008858D01*
G01*
G37*
G36*
G01*
X0002727362Y0002159448D02*
X0002727362Y0002179133D01*
G75*
G02*
X0002736220Y0002187992I0000008858D01*
G01*
X0002753937Y0002187992D01*
G75*
G02*
X0002762795Y0002179133J-0000008858D01*
G01*
X0002762795Y0002159448D01*
G75*
G02*
X0002753937Y0002150590I-0000008858D01*
G01*
X0002736220Y0002150590D01*
G75*
G02*
X0002727362Y0002159448J0000008858D01*
G01*
G37*
G36*
G01*
X0003107283Y0002185039D02*
X0003107283Y0002165354D01*
G75*
G02*
X0003098425Y0002156496I-0000008858D01*
G01*
X0003080708Y0002156496D01*
G75*
G02*
X0003071850Y0002165354J0000008858D01*
G01*
X0003071850Y0002185039D01*
G75*
G02*
X0003080708Y0002193897I0000008858D01*
G01*
X0003098425Y0002193897D01*
G75*
G02*
X0003107283Y0002185039J-0000008858D01*
G01*
G37*
G36*
G01*
X0003046259Y0002185039D02*
X0003046259Y0002165354D01*
G75*
G02*
X0003037401Y0002156496I-0000008858D01*
G01*
X0003019685Y0002156496D01*
G75*
G02*
X0003010826Y0002165354J0000008858D01*
G01*
X0003010826Y0002185039D01*
G75*
G02*
X0003019685Y0002193897I0000008858D01*
G01*
X0003037401Y0002193897D01*
G75*
G02*
X0003046259Y0002185039J-0000008858D01*
G01*
G37*
G36*
G01*
X0002725393Y0002221456D02*
X0002725393Y0002241141D01*
G75*
G02*
X0002734251Y0002250000I0000008858D01*
G01*
X0002751968Y0002250000D01*
G75*
G02*
X0002760826Y0002241141J-0000008858D01*
G01*
X0002760826Y0002221456D01*
G75*
G02*
X0002751968Y0002212598I-0000008858D01*
G01*
X0002734251Y0002212598D01*
G75*
G02*
X0002725393Y0002221456J0000008858D01*
G01*
G37*
G36*
G01*
X0002786417Y0002221456D02*
X0002786417Y0002241141D01*
G75*
G02*
X0002795275Y0002250000I0000008858D01*
G01*
X0002812992Y0002250000D01*
G75*
G02*
X0002821850Y0002241141J-0000008858D01*
G01*
X0002821850Y0002221456D01*
G75*
G02*
X0002812992Y0002212598I-0000008858D01*
G01*
X0002795275Y0002212598D01*
G75*
G02*
X0002786417Y0002221456J0000008858D01*
G01*
G37*
G36*
G01*
X0003146653Y0001614173D02*
X0003146653Y0001594488D01*
G75*
G02*
X0003137795Y0001585629I-0000008858D01*
G01*
X0003120078Y0001585629D01*
G75*
G02*
X0003111220Y0001594488J0000008858D01*
G01*
X0003111220Y0001614173D01*
G75*
G02*
X0003120078Y0001623031I0000008858D01*
G01*
X0003137795Y0001623031D01*
G75*
G02*
X0003146653Y0001614173J-0000008858D01*
G01*
G37*
G36*
G01*
X0003085629Y0001614173D02*
X0003085629Y0001594488D01*
G75*
G02*
X0003076771Y0001585629I-0000008858D01*
G01*
X0003059055Y0001585629D01*
G75*
G02*
X0003050196Y0001594488J0000008858D01*
G01*
X0003050196Y0001614173D01*
G75*
G02*
X0003059055Y0001623031I0000008858D01*
G01*
X0003076771Y0001623031D01*
G75*
G02*
X0003085629Y0001614173J-0000008858D01*
G01*
G37*
G36*
G01*
X0003442913Y0001764763D02*
X0003423228Y0001764763D01*
G75*
G02*
X0003414370Y0001773622J0000008858D01*
G01*
X0003414370Y0001791338D01*
G75*
G02*
X0003423228Y0001800196I0000008858D01*
G01*
X0003442913Y0001800196D01*
G75*
G02*
X0003451771Y0001791338J-0000008858D01*
G01*
X0003451771Y0001773622D01*
G75*
G02*
X0003442913Y0001764763I-0000008858D01*
G01*
G37*
G36*
G01*
X0003442913Y0001703740D02*
X0003423228Y0001703740D01*
G75*
G02*
X0003414370Y0001712598J0000008858D01*
G01*
X0003414370Y0001730314D01*
G75*
G02*
X0003423228Y0001739173I0000008858D01*
G01*
X0003442913Y0001739173D01*
G75*
G02*
X0003451771Y0001730314J-0000008858D01*
G01*
X0003451771Y0001712598D01*
G75*
G02*
X0003442913Y0001703740I-0000008858D01*
G01*
G37*
G36*
G01*
X0003344488Y0001739173D02*
X0003364173Y0001739173D01*
G75*
G02*
X0003373031Y0001730314J-0000008858D01*
G01*
X0003373031Y0001712598D01*
G75*
G02*
X0003364173Y0001703740I-0000008858D01*
G01*
X0003344488Y0001703740D01*
G75*
G02*
X0003335629Y0001712598J0000008858D01*
G01*
X0003335629Y0001730314D01*
G75*
G02*
X0003344488Y0001739173I0000008858D01*
G01*
G37*
G36*
G01*
X0003344488Y0001800196D02*
X0003364173Y0001800196D01*
G75*
G02*
X0003373031Y0001791338J-0000008858D01*
G01*
X0003373031Y0001773622D01*
G75*
G02*
X0003364173Y0001764763I-0000008858D01*
G01*
X0003344488Y0001764763D01*
G75*
G02*
X0003335629Y0001773622J0000008858D01*
G01*
X0003335629Y0001791338D01*
G75*
G02*
X0003344488Y0001800196I0000008858D01*
G01*
G37*
G36*
G01*
X0003274606Y0001732283D02*
X0003296259Y0001732283D01*
G75*
G02*
X0003304133Y0001724409J-0000007874D01*
G01*
X0003304133Y0001708661D01*
G75*
G02*
X0003296259Y0001700787I-0000007874D01*
G01*
X0003274606Y0001700787D01*
G75*
G02*
X0003266732Y0001708661J0000007874D01*
G01*
X0003266732Y0001724409D01*
G75*
G02*
X0003274606Y0001732283I0000007874D01*
G01*
G37*
G36*
G01*
X0003274606Y0001797244D02*
X0003296259Y0001797244D01*
G75*
G02*
X0003304133Y0001789370J-0000007874D01*
G01*
X0003304133Y0001773622D01*
G75*
G02*
X0003296259Y0001765748I-0000007874D01*
G01*
X0003274606Y0001765748D01*
G75*
G02*
X0003266732Y0001773622J0000007874D01*
G01*
X0003266732Y0001789370D01*
G75*
G02*
X0003274606Y0001797244I0000007874D01*
G01*
G37*
D25*
X0003157480Y0001834645D03*
X0003027559Y0001834645D03*
X0003155511Y0001998031D03*
X0003025590Y0001998031D03*
G36*
G01*
X0002890748Y0001888779D02*
X0002912401Y0001888779D01*
G75*
G02*
X0002920275Y0001880905J-0000007874D01*
G01*
X0002920275Y0001865157D01*
G75*
G02*
X0002912401Y0001857283I-0000007874D01*
G01*
X0002890748Y0001857283D01*
G75*
G02*
X0002882874Y0001865157J0000007874D01*
G01*
X0002882874Y0001880905D01*
G75*
G02*
X0002890748Y0001888779I0000007874D01*
G01*
G37*
G36*
G01*
X0002890748Y0001823818D02*
X0002912401Y0001823818D01*
G75*
G02*
X0002920275Y0001815944J-0000007874D01*
G01*
X0002920275Y0001800196D01*
G75*
G02*
X0002912401Y0001792322I-0000007874D01*
G01*
X0002890748Y0001792322D01*
G75*
G02*
X0002882874Y0001800196J0000007874D01*
G01*
X0002882874Y0001815944D01*
G75*
G02*
X0002890748Y0001823818I0000007874D01*
G01*
G37*
G04 next file*
G04 Gerber Fmt 4.6, Leading zero omitted, Abs format (unit mm)*
G04 Created by KiCad (PCBNEW (5.1.8)-1) date 2020-11-23 23:28:54*
G01*
G04 APERTURE LIST*
G04 APERTURE END LIST*
G36*
G01*
X0001189960Y0003130905D02*
X0001189960Y0003081692D01*
G75*
G02*
X0001180118Y0003071850I-0000009842D01*
G01*
X0001155511Y0003071850D01*
G75*
G02*
X0001145669Y0003081692J0000009842D01*
G01*
X0001145669Y0003130905D01*
G75*
G02*
X0001155511Y0003140748I0000009842D01*
G01*
X0001180118Y0003140748D01*
G75*
G02*
X0001189960Y0003130905J-0000009842D01*
G01*
G37*
G36*
G01*
X0001074803Y0003130905D02*
X0001074803Y0003081692D01*
G75*
G02*
X0001064960Y0003071850I-0000009842D01*
G01*
X0001040354Y0003071850D01*
G75*
G02*
X0001030511Y0003081692J0000009842D01*
G01*
X0001030511Y0003130905D01*
G75*
G02*
X0001040354Y0003140748I0000009842D01*
G01*
X0001064960Y0003140748D01*
G75*
G02*
X0001074803Y0003130905J-0000009842D01*
G01*
G37*
G36*
G01*
X0001051181Y0003310039D02*
X0001031496Y0003310039D01*
G75*
G02*
X0001022637Y0003318897J0000008858D01*
G01*
X0001022637Y0003336614D01*
G75*
G02*
X0001031496Y0003345472I0000008858D01*
G01*
X0001051181Y0003345472D01*
G75*
G02*
X0001060039Y0003336614J-0000008858D01*
G01*
X0001060039Y0003318897D01*
G75*
G02*
X0001051181Y0003310039I-0000008858D01*
G01*
G37*
G36*
G01*
X0001051181Y0003249015D02*
X0001031496Y0003249015D01*
G75*
G02*
X0001022637Y0003257874J0000008858D01*
G01*
X0001022637Y0003275590D01*
G75*
G02*
X0001031496Y0003284448I0000008858D01*
G01*
X0001051181Y0003284448D01*
G75*
G02*
X0001060039Y0003275590J-0000008858D01*
G01*
X0001060039Y0003257874D01*
G75*
G02*
X0001051181Y0003249015I-0000008858D01*
G01*
G37*
G36*
G01*
X0000991732Y0003310039D02*
X0000972047Y0003310039D01*
G75*
G02*
X0000963188Y0003318897J0000008858D01*
G01*
X0000963188Y0003336614D01*
G75*
G02*
X0000972047Y0003345472I0000008858D01*
G01*
X0000991732Y0003345472D01*
G75*
G02*
X0001000590Y0003336614J-0000008858D01*
G01*
X0001000590Y0003318897D01*
G75*
G02*
X0000991732Y0003310039I-0000008858D01*
G01*
G37*
G36*
G01*
X0000991732Y0003249015D02*
X0000972047Y0003249015D01*
G75*
G02*
X0000963188Y0003257874J0000008858D01*
G01*
X0000963188Y0003275590D01*
G75*
G02*
X0000972047Y0003284448I0000008858D01*
G01*
X0000991732Y0003284448D01*
G75*
G02*
X0001000590Y0003275590J-0000008858D01*
G01*
X0001000590Y0003257874D01*
G75*
G02*
X0000991732Y0003249015I-0000008858D01*
G01*
G37*
G36*
G01*
X0000933070Y0003248031D02*
X0000913385Y0003248031D01*
G75*
G02*
X0000904527Y0003256889J0000008858D01*
G01*
X0000904527Y0003274606D01*
G75*
G02*
X0000913385Y0003283464I0000008858D01*
G01*
X0000933070Y0003283464D01*
G75*
G02*
X0000941929Y0003274606J-0000008858D01*
G01*
X0000941929Y0003256889D01*
G75*
G02*
X0000933070Y0003248031I-0000008858D01*
G01*
G37*
G36*
G01*
X0000933070Y0003309055D02*
X0000913385Y0003309055D01*
G75*
G02*
X0000904527Y0003317913J0000008858D01*
G01*
X0000904527Y0003335629D01*
G75*
G02*
X0000913385Y0003344488I0000008858D01*
G01*
X0000933070Y0003344488D01*
G75*
G02*
X0000941929Y0003335629J-0000008858D01*
G01*
X0000941929Y0003317913D01*
G75*
G02*
X0000933070Y0003309055I-0000008858D01*
G01*
G37*
G36*
G01*
X0000874015Y0003249015D02*
X0000854330Y0003249015D01*
G75*
G02*
X0000845472Y0003257874J0000008858D01*
G01*
X0000845472Y0003275590D01*
G75*
G02*
X0000854330Y0003284448I0000008858D01*
G01*
X0000874015Y0003284448D01*
G75*
G02*
X0000882874Y0003275590J-0000008858D01*
G01*
X0000882874Y0003257874D01*
G75*
G02*
X0000874015Y0003249015I-0000008858D01*
G01*
G37*
G36*
G01*
X0000874015Y0003310039D02*
X0000854330Y0003310039D01*
G75*
G02*
X0000845472Y0003318897J0000008858D01*
G01*
X0000845472Y0003336614D01*
G75*
G02*
X0000854330Y0003345472I0000008858D01*
G01*
X0000874015Y0003345472D01*
G75*
G02*
X0000882874Y0003336614J-0000008858D01*
G01*
X0000882874Y0003318897D01*
G75*
G02*
X0000874015Y0003310039I-0000008858D01*
G01*
G37*
G36*
G01*
X0001142716Y0003011811D02*
X0001142716Y0003031496D01*
G75*
G02*
X0001151574Y0003040354I0000008858D01*
G01*
X0001169291Y0003040354D01*
G75*
G02*
X0001178149Y0003031496J-0000008858D01*
G01*
X0001178149Y0003011811D01*
G75*
G02*
X0001169291Y0003002952I-0000008858D01*
G01*
X0001151574Y0003002952D01*
G75*
G02*
X0001142716Y0003011811J0000008858D01*
G01*
G37*
G36*
G01*
X0001081692Y0003011811D02*
X0001081692Y0003031496D01*
G75*
G02*
X0001090551Y0003040354I0000008858D01*
G01*
X0001108267Y0003040354D01*
G75*
G02*
X0001117125Y0003031496J-0000008858D01*
G01*
X0001117125Y0003011811D01*
G75*
G02*
X0001108267Y0003002952I-0000008858D01*
G01*
X0001090551Y0003002952D01*
G75*
G02*
X0001081692Y0003011811J0000008858D01*
G01*
G37*
G36*
G01*
X0000601181Y0003122440D02*
X0000601181Y0003142125D01*
G75*
G02*
X0000610039Y0003150984I0000008858D01*
G01*
X0000627755Y0003150984D01*
G75*
G02*
X0000636614Y0003142125J-0000008858D01*
G01*
X0000636614Y0003122440D01*
G75*
G02*
X0000627755Y0003113582I-0000008858D01*
G01*
X0000610039Y0003113582D01*
G75*
G02*
X0000601181Y0003122440J0000008858D01*
G01*
G37*
G36*
G01*
X0000662204Y0003122440D02*
X0000662204Y0003142125D01*
G75*
G02*
X0000671062Y0003150984I0000008858D01*
G01*
X0000688779Y0003150984D01*
G75*
G02*
X0000697637Y0003142125J-0000008858D01*
G01*
X0000697637Y0003122440D01*
G75*
G02*
X0000688779Y0003113582I-0000008858D01*
G01*
X0000671062Y0003113582D01*
G75*
G02*
X0000662204Y0003122440J0000008858D01*
G01*
G37*
G36*
G01*
X0000662401Y0003183070D02*
X0000662401Y0003202755D01*
G75*
G02*
X0000671259Y0003211614I0000008858D01*
G01*
X0000688976Y0003211614D01*
G75*
G02*
X0000697834Y0003202755J-0000008858D01*
G01*
X0000697834Y0003183070D01*
G75*
G02*
X0000688976Y0003174212I-0000008858D01*
G01*
X0000671259Y0003174212D01*
G75*
G02*
X0000662401Y0003183070J0000008858D01*
G01*
G37*
G36*
G01*
X0000601377Y0003183070D02*
X0000601377Y0003202755D01*
G75*
G02*
X0000610236Y0003211614I0000008858D01*
G01*
X0000627952Y0003211614D01*
G75*
G02*
X0000636811Y0003202755J-0000008858D01*
G01*
X0000636811Y0003183070D01*
G75*
G02*
X0000627952Y0003174212I-0000008858D01*
G01*
X0000610236Y0003174212D01*
G75*
G02*
X0000601377Y0003183070J0000008858D01*
G01*
G37*
G36*
G01*
X0000981299Y0003208661D02*
X0000981299Y0003188976D01*
G75*
G02*
X0000972440Y0003180118I-0000008858D01*
G01*
X0000954724Y0003180118D01*
G75*
G02*
X0000945866Y0003188976J0000008858D01*
G01*
X0000945866Y0003208661D01*
G75*
G02*
X0000954724Y0003217519I0000008858D01*
G01*
X0000972440Y0003217519D01*
G75*
G02*
X0000981299Y0003208661J-0000008858D01*
G01*
G37*
G36*
G01*
X0000920275Y0003208661D02*
X0000920275Y0003188976D01*
G75*
G02*
X0000911417Y0003180118I-0000008858D01*
G01*
X0000893700Y0003180118D01*
G75*
G02*
X0000884842Y0003188976J0000008858D01*
G01*
X0000884842Y0003208661D01*
G75*
G02*
X0000893700Y0003217519I0000008858D01*
G01*
X0000911417Y0003217519D01*
G75*
G02*
X0000920275Y0003208661J-0000008858D01*
G01*
G37*
G36*
G01*
X0000599409Y0003245078D02*
X0000599409Y0003264763D01*
G75*
G02*
X0000608267Y0003273622I0000008858D01*
G01*
X0000625984Y0003273622D01*
G75*
G02*
X0000634842Y0003264763J-0000008858D01*
G01*
X0000634842Y0003245078D01*
G75*
G02*
X0000625984Y0003236220I-0000008858D01*
G01*
X0000608267Y0003236220D01*
G75*
G02*
X0000599409Y0003245078J0000008858D01*
G01*
G37*
G36*
G01*
X0000660433Y0003245078D02*
X0000660433Y0003264763D01*
G75*
G02*
X0000669291Y0003273622I0000008858D01*
G01*
X0000687007Y0003273622D01*
G75*
G02*
X0000695866Y0003264763J-0000008858D01*
G01*
X0000695866Y0003245078D01*
G75*
G02*
X0000687007Y0003236220I-0000008858D01*
G01*
X0000669291Y0003236220D01*
G75*
G02*
X0000660433Y0003245078J0000008858D01*
G01*
G37*
G36*
G01*
X0001020669Y0002637795D02*
X0001020669Y0002618110D01*
G75*
G02*
X0001011811Y0002609251I-0000008858D01*
G01*
X0000994094Y0002609251D01*
G75*
G02*
X0000985236Y0002618110J0000008858D01*
G01*
X0000985236Y0002637795D01*
G75*
G02*
X0000994094Y0002646653I0000008858D01*
G01*
X0001011811Y0002646653D01*
G75*
G02*
X0001020669Y0002637795J-0000008858D01*
G01*
G37*
G36*
G01*
X0000959645Y0002637795D02*
X0000959645Y0002618110D01*
G75*
G02*
X0000950787Y0002609251I-0000008858D01*
G01*
X0000933070Y0002609251D01*
G75*
G02*
X0000924212Y0002618110J0000008858D01*
G01*
X0000924212Y0002637795D01*
G75*
G02*
X0000933070Y0002646653I0000008858D01*
G01*
X0000950787Y0002646653D01*
G75*
G02*
X0000959645Y0002637795J-0000008858D01*
G01*
G37*
G36*
G01*
X0001316929Y0002788385D02*
X0001297244Y0002788385D01*
G75*
G02*
X0001288385Y0002797244J0000008858D01*
G01*
X0001288385Y0002814960D01*
G75*
G02*
X0001297244Y0002823818I0000008858D01*
G01*
X0001316929Y0002823818D01*
G75*
G02*
X0001325787Y0002814960J-0000008858D01*
G01*
X0001325787Y0002797244D01*
G75*
G02*
X0001316929Y0002788385I-0000008858D01*
G01*
G37*
G36*
G01*
X0001316929Y0002727362D02*
X0001297244Y0002727362D01*
G75*
G02*
X0001288385Y0002736220J0000008858D01*
G01*
X0001288385Y0002753937D01*
G75*
G02*
X0001297244Y0002762795I0000008858D01*
G01*
X0001316929Y0002762795D01*
G75*
G02*
X0001325787Y0002753937J-0000008858D01*
G01*
X0001325787Y0002736220D01*
G75*
G02*
X0001316929Y0002727362I-0000008858D01*
G01*
G37*
G36*
G01*
X0001218503Y0002762795D02*
X0001238188Y0002762795D01*
G75*
G02*
X0001247047Y0002753937J-0000008858D01*
G01*
X0001247047Y0002736220D01*
G75*
G02*
X0001238188Y0002727362I-0000008858D01*
G01*
X0001218503Y0002727362D01*
G75*
G02*
X0001209645Y0002736220J0000008858D01*
G01*
X0001209645Y0002753937D01*
G75*
G02*
X0001218503Y0002762795I0000008858D01*
G01*
G37*
G36*
G01*
X0001218503Y0002823818D02*
X0001238188Y0002823818D01*
G75*
G02*
X0001247047Y0002814960J-0000008858D01*
G01*
X0001247047Y0002797244D01*
G75*
G02*
X0001238188Y0002788385I-0000008858D01*
G01*
X0001218503Y0002788385D01*
G75*
G02*
X0001209645Y0002797244J0000008858D01*
G01*
X0001209645Y0002814960D01*
G75*
G02*
X0001218503Y0002823818I0000008858D01*
G01*
G37*
G36*
G01*
X0001148622Y0002755905D02*
X0001170275Y0002755905D01*
G75*
G02*
X0001178149Y0002748031J-0000007874D01*
G01*
X0001178149Y0002732283D01*
G75*
G02*
X0001170275Y0002724409I-0000007874D01*
G01*
X0001148622Y0002724409D01*
G75*
G02*
X0001140748Y0002732283J0000007874D01*
G01*
X0001140748Y0002748031D01*
G75*
G02*
X0001148622Y0002755905I0000007874D01*
G01*
G37*
G36*
G01*
X0001148622Y0002820866D02*
X0001170275Y0002820866D01*
G75*
G02*
X0001178149Y0002812992J-0000007874D01*
G01*
X0001178149Y0002797244D01*
G75*
G02*
X0001170275Y0002789370I-0000007874D01*
G01*
X0001148622Y0002789370D01*
G75*
G02*
X0001140748Y0002797244J0000007874D01*
G01*
X0001140748Y0002812992D01*
G75*
G02*
X0001148622Y0002820866I0000007874D01*
G01*
G37*
D26*
X0001031496Y0002858267D03*
X0000901574Y0002858267D03*
X0001029527Y0003021653D03*
X0000899606Y0003021653D03*
G36*
G01*
X0000764763Y0002912401D02*
X0000786417Y0002912401D01*
G75*
G02*
X0000794291Y0002904527J-0000007874D01*
G01*
X0000794291Y0002888779D01*
G75*
G02*
X0000786417Y0002880905I-0000007874D01*
G01*
X0000764763Y0002880905D01*
G75*
G02*
X0000756889Y0002888779J0000007874D01*
G01*
X0000756889Y0002904527D01*
G75*
G02*
X0000764763Y0002912401I0000007874D01*
G01*
G37*
G36*
G01*
X0000764763Y0002847440D02*
X0000786417Y0002847440D01*
G75*
G02*
X0000794291Y0002839566J-0000007874D01*
G01*
X0000794291Y0002823818D01*
G75*
G02*
X0000786417Y0002815944I-0000007874D01*
G01*
X0000764763Y0002815944D01*
G75*
G02*
X0000756889Y0002823818J0000007874D01*
G01*
X0000756889Y0002839566D01*
G75*
G02*
X0000764763Y0002847440I0000007874D01*
G01*
G37*
G04 next file*
G04 Gerber Fmt 4.6, Leading zero omitted, Abs format (unit mm)*
G04 Created by KiCad (PCBNEW (5.1.8)-1) date 2020-11-23 23:28:54*
G01*
G04 APERTURE LIST*
G04 APERTURE END LIST*
G36*
G01*
X0002252952Y0003130905D02*
X0002252952Y0003081692D01*
G75*
G02*
X0002243110Y0003071850I-0000009842D01*
G01*
X0002218503Y0003071850D01*
G75*
G02*
X0002208661Y0003081692J0000009842D01*
G01*
X0002208661Y0003130905D01*
G75*
G02*
X0002218503Y0003140748I0000009842D01*
G01*
X0002243110Y0003140748D01*
G75*
G02*
X0002252952Y0003130905J-0000009842D01*
G01*
G37*
G36*
G01*
X0002137795Y0003130905D02*
X0002137795Y0003081692D01*
G75*
G02*
X0002127952Y0003071850I-0000009842D01*
G01*
X0002103346Y0003071850D01*
G75*
G02*
X0002093503Y0003081692J0000009842D01*
G01*
X0002093503Y0003130905D01*
G75*
G02*
X0002103346Y0003140748I0000009842D01*
G01*
X0002127952Y0003140748D01*
G75*
G02*
X0002137795Y0003130905J-0000009842D01*
G01*
G37*
G36*
G01*
X0002114173Y0003310039D02*
X0002094488Y0003310039D01*
G75*
G02*
X0002085629Y0003318897J0000008858D01*
G01*
X0002085629Y0003336614D01*
G75*
G02*
X0002094488Y0003345472I0000008858D01*
G01*
X0002114173Y0003345472D01*
G75*
G02*
X0002123031Y0003336614J-0000008858D01*
G01*
X0002123031Y0003318897D01*
G75*
G02*
X0002114173Y0003310039I-0000008858D01*
G01*
G37*
G36*
G01*
X0002114173Y0003249015D02*
X0002094488Y0003249015D01*
G75*
G02*
X0002085629Y0003257874J0000008858D01*
G01*
X0002085629Y0003275590D01*
G75*
G02*
X0002094488Y0003284448I0000008858D01*
G01*
X0002114173Y0003284448D01*
G75*
G02*
X0002123031Y0003275590J-0000008858D01*
G01*
X0002123031Y0003257874D01*
G75*
G02*
X0002114173Y0003249015I-0000008858D01*
G01*
G37*
G36*
G01*
X0002054724Y0003310039D02*
X0002035039Y0003310039D01*
G75*
G02*
X0002026181Y0003318897J0000008858D01*
G01*
X0002026181Y0003336614D01*
G75*
G02*
X0002035039Y0003345472I0000008858D01*
G01*
X0002054724Y0003345472D01*
G75*
G02*
X0002063582Y0003336614J-0000008858D01*
G01*
X0002063582Y0003318897D01*
G75*
G02*
X0002054724Y0003310039I-0000008858D01*
G01*
G37*
G36*
G01*
X0002054724Y0003249015D02*
X0002035039Y0003249015D01*
G75*
G02*
X0002026181Y0003257874J0000008858D01*
G01*
X0002026181Y0003275590D01*
G75*
G02*
X0002035039Y0003284448I0000008858D01*
G01*
X0002054724Y0003284448D01*
G75*
G02*
X0002063582Y0003275590J-0000008858D01*
G01*
X0002063582Y0003257874D01*
G75*
G02*
X0002054724Y0003249015I-0000008858D01*
G01*
G37*
G36*
G01*
X0001996062Y0003248031D02*
X0001976377Y0003248031D01*
G75*
G02*
X0001967519Y0003256889J0000008858D01*
G01*
X0001967519Y0003274606D01*
G75*
G02*
X0001976377Y0003283464I0000008858D01*
G01*
X0001996062Y0003283464D01*
G75*
G02*
X0002004921Y0003274606J-0000008858D01*
G01*
X0002004921Y0003256889D01*
G75*
G02*
X0001996062Y0003248031I-0000008858D01*
G01*
G37*
G36*
G01*
X0001996062Y0003309055D02*
X0001976377Y0003309055D01*
G75*
G02*
X0001967519Y0003317913J0000008858D01*
G01*
X0001967519Y0003335629D01*
G75*
G02*
X0001976377Y0003344488I0000008858D01*
G01*
X0001996062Y0003344488D01*
G75*
G02*
X0002004921Y0003335629J-0000008858D01*
G01*
X0002004921Y0003317913D01*
G75*
G02*
X0001996062Y0003309055I-0000008858D01*
G01*
G37*
G36*
G01*
X0001937007Y0003249015D02*
X0001917322Y0003249015D01*
G75*
G02*
X0001908464Y0003257874J0000008858D01*
G01*
X0001908464Y0003275590D01*
G75*
G02*
X0001917322Y0003284448I0000008858D01*
G01*
X0001937007Y0003284448D01*
G75*
G02*
X0001945866Y0003275590J-0000008858D01*
G01*
X0001945866Y0003257874D01*
G75*
G02*
X0001937007Y0003249015I-0000008858D01*
G01*
G37*
G36*
G01*
X0001937007Y0003310039D02*
X0001917322Y0003310039D01*
G75*
G02*
X0001908464Y0003318897J0000008858D01*
G01*
X0001908464Y0003336614D01*
G75*
G02*
X0001917322Y0003345472I0000008858D01*
G01*
X0001937007Y0003345472D01*
G75*
G02*
X0001945866Y0003336614J-0000008858D01*
G01*
X0001945866Y0003318897D01*
G75*
G02*
X0001937007Y0003310039I-0000008858D01*
G01*
G37*
G36*
G01*
X0002205708Y0003011811D02*
X0002205708Y0003031496D01*
G75*
G02*
X0002214566Y0003040354I0000008858D01*
G01*
X0002232283Y0003040354D01*
G75*
G02*
X0002241141Y0003031496J-0000008858D01*
G01*
X0002241141Y0003011811D01*
G75*
G02*
X0002232283Y0003002952I-0000008858D01*
G01*
X0002214566Y0003002952D01*
G75*
G02*
X0002205708Y0003011811J0000008858D01*
G01*
G37*
G36*
G01*
X0002144685Y0003011811D02*
X0002144685Y0003031496D01*
G75*
G02*
X0002153543Y0003040354I0000008858D01*
G01*
X0002171259Y0003040354D01*
G75*
G02*
X0002180118Y0003031496J-0000008858D01*
G01*
X0002180118Y0003011811D01*
G75*
G02*
X0002171259Y0003002952I-0000008858D01*
G01*
X0002153543Y0003002952D01*
G75*
G02*
X0002144685Y0003011811J0000008858D01*
G01*
G37*
G36*
G01*
X0001664173Y0003122440D02*
X0001664173Y0003142125D01*
G75*
G02*
X0001673031Y0003150984I0000008858D01*
G01*
X0001690748Y0003150984D01*
G75*
G02*
X0001699606Y0003142125J-0000008858D01*
G01*
X0001699606Y0003122440D01*
G75*
G02*
X0001690748Y0003113582I-0000008858D01*
G01*
X0001673031Y0003113582D01*
G75*
G02*
X0001664173Y0003122440J0000008858D01*
G01*
G37*
G36*
G01*
X0001725196Y0003122440D02*
X0001725196Y0003142125D01*
G75*
G02*
X0001734055Y0003150984I0000008858D01*
G01*
X0001751771Y0003150984D01*
G75*
G02*
X0001760629Y0003142125J-0000008858D01*
G01*
X0001760629Y0003122440D01*
G75*
G02*
X0001751771Y0003113582I-0000008858D01*
G01*
X0001734055Y0003113582D01*
G75*
G02*
X0001725196Y0003122440J0000008858D01*
G01*
G37*
G36*
G01*
X0001725393Y0003183070D02*
X0001725393Y0003202755D01*
G75*
G02*
X0001734251Y0003211614I0000008858D01*
G01*
X0001751968Y0003211614D01*
G75*
G02*
X0001760826Y0003202755J-0000008858D01*
G01*
X0001760826Y0003183070D01*
G75*
G02*
X0001751968Y0003174212I-0000008858D01*
G01*
X0001734251Y0003174212D01*
G75*
G02*
X0001725393Y0003183070J0000008858D01*
G01*
G37*
G36*
G01*
X0001664370Y0003183070D02*
X0001664370Y0003202755D01*
G75*
G02*
X0001673228Y0003211614I0000008858D01*
G01*
X0001690944Y0003211614D01*
G75*
G02*
X0001699803Y0003202755J-0000008858D01*
G01*
X0001699803Y0003183070D01*
G75*
G02*
X0001690944Y0003174212I-0000008858D01*
G01*
X0001673228Y0003174212D01*
G75*
G02*
X0001664370Y0003183070J0000008858D01*
G01*
G37*
G36*
G01*
X0002044291Y0003208661D02*
X0002044291Y0003188976D01*
G75*
G02*
X0002035433Y0003180118I-0000008858D01*
G01*
X0002017716Y0003180118D01*
G75*
G02*
X0002008858Y0003188976J0000008858D01*
G01*
X0002008858Y0003208661D01*
G75*
G02*
X0002017716Y0003217519I0000008858D01*
G01*
X0002035433Y0003217519D01*
G75*
G02*
X0002044291Y0003208661J-0000008858D01*
G01*
G37*
G36*
G01*
X0001983267Y0003208661D02*
X0001983267Y0003188976D01*
G75*
G02*
X0001974409Y0003180118I-0000008858D01*
G01*
X0001956692Y0003180118D01*
G75*
G02*
X0001947834Y0003188976J0000008858D01*
G01*
X0001947834Y0003208661D01*
G75*
G02*
X0001956692Y0003217519I0000008858D01*
G01*
X0001974409Y0003217519D01*
G75*
G02*
X0001983267Y0003208661J-0000008858D01*
G01*
G37*
G36*
G01*
X0001662401Y0003245078D02*
X0001662401Y0003264763D01*
G75*
G02*
X0001671259Y0003273622I0000008858D01*
G01*
X0001688976Y0003273622D01*
G75*
G02*
X0001697834Y0003264763J-0000008858D01*
G01*
X0001697834Y0003245078D01*
G75*
G02*
X0001688976Y0003236220I-0000008858D01*
G01*
X0001671259Y0003236220D01*
G75*
G02*
X0001662401Y0003245078J0000008858D01*
G01*
G37*
G36*
G01*
X0001723425Y0003245078D02*
X0001723425Y0003264763D01*
G75*
G02*
X0001732283Y0003273622I0000008858D01*
G01*
X0001750000Y0003273622D01*
G75*
G02*
X0001758858Y0003264763J-0000008858D01*
G01*
X0001758858Y0003245078D01*
G75*
G02*
X0001750000Y0003236220I-0000008858D01*
G01*
X0001732283Y0003236220D01*
G75*
G02*
X0001723425Y0003245078J0000008858D01*
G01*
G37*
G36*
G01*
X0002083661Y0002637795D02*
X0002083661Y0002618110D01*
G75*
G02*
X0002074803Y0002609251I-0000008858D01*
G01*
X0002057086Y0002609251D01*
G75*
G02*
X0002048228Y0002618110J0000008858D01*
G01*
X0002048228Y0002637795D01*
G75*
G02*
X0002057086Y0002646653I0000008858D01*
G01*
X0002074803Y0002646653D01*
G75*
G02*
X0002083661Y0002637795J-0000008858D01*
G01*
G37*
G36*
G01*
X0002022637Y0002637795D02*
X0002022637Y0002618110D01*
G75*
G02*
X0002013779Y0002609251I-0000008858D01*
G01*
X0001996062Y0002609251D01*
G75*
G02*
X0001987204Y0002618110J0000008858D01*
G01*
X0001987204Y0002637795D01*
G75*
G02*
X0001996062Y0002646653I0000008858D01*
G01*
X0002013779Y0002646653D01*
G75*
G02*
X0002022637Y0002637795J-0000008858D01*
G01*
G37*
G36*
G01*
X0002379921Y0002788385D02*
X0002360236Y0002788385D01*
G75*
G02*
X0002351377Y0002797244J0000008858D01*
G01*
X0002351377Y0002814960D01*
G75*
G02*
X0002360236Y0002823818I0000008858D01*
G01*
X0002379921Y0002823818D01*
G75*
G02*
X0002388779Y0002814960J-0000008858D01*
G01*
X0002388779Y0002797244D01*
G75*
G02*
X0002379921Y0002788385I-0000008858D01*
G01*
G37*
G36*
G01*
X0002379921Y0002727362D02*
X0002360236Y0002727362D01*
G75*
G02*
X0002351377Y0002736220J0000008858D01*
G01*
X0002351377Y0002753937D01*
G75*
G02*
X0002360236Y0002762795I0000008858D01*
G01*
X0002379921Y0002762795D01*
G75*
G02*
X0002388779Y0002753937J-0000008858D01*
G01*
X0002388779Y0002736220D01*
G75*
G02*
X0002379921Y0002727362I-0000008858D01*
G01*
G37*
G36*
G01*
X0002281496Y0002762795D02*
X0002301181Y0002762795D01*
G75*
G02*
X0002310039Y0002753937J-0000008858D01*
G01*
X0002310039Y0002736220D01*
G75*
G02*
X0002301181Y0002727362I-0000008858D01*
G01*
X0002281496Y0002727362D01*
G75*
G02*
X0002272637Y0002736220J0000008858D01*
G01*
X0002272637Y0002753937D01*
G75*
G02*
X0002281496Y0002762795I0000008858D01*
G01*
G37*
G36*
G01*
X0002281496Y0002823818D02*
X0002301181Y0002823818D01*
G75*
G02*
X0002310039Y0002814960J-0000008858D01*
G01*
X0002310039Y0002797244D01*
G75*
G02*
X0002301181Y0002788385I-0000008858D01*
G01*
X0002281496Y0002788385D01*
G75*
G02*
X0002272637Y0002797244J0000008858D01*
G01*
X0002272637Y0002814960D01*
G75*
G02*
X0002281496Y0002823818I0000008858D01*
G01*
G37*
G36*
G01*
X0002211614Y0002755905D02*
X0002233267Y0002755905D01*
G75*
G02*
X0002241141Y0002748031J-0000007874D01*
G01*
X0002241141Y0002732283D01*
G75*
G02*
X0002233267Y0002724409I-0000007874D01*
G01*
X0002211614Y0002724409D01*
G75*
G02*
X0002203740Y0002732283J0000007874D01*
G01*
X0002203740Y0002748031D01*
G75*
G02*
X0002211614Y0002755905I0000007874D01*
G01*
G37*
G36*
G01*
X0002211614Y0002820866D02*
X0002233267Y0002820866D01*
G75*
G02*
X0002241141Y0002812992J-0000007874D01*
G01*
X0002241141Y0002797244D01*
G75*
G02*
X0002233267Y0002789370I-0000007874D01*
G01*
X0002211614Y0002789370D01*
G75*
G02*
X0002203740Y0002797244J0000007874D01*
G01*
X0002203740Y0002812992D01*
G75*
G02*
X0002211614Y0002820866I0000007874D01*
G01*
G37*
D27*
X0002094488Y0002858267D03*
X0001964566Y0002858267D03*
X0002092519Y0003021653D03*
X0001962598Y0003021653D03*
G36*
G01*
X0001827755Y0002912401D02*
X0001849409Y0002912401D01*
G75*
G02*
X0001857283Y0002904527J-0000007874D01*
G01*
X0001857283Y0002888779D01*
G75*
G02*
X0001849409Y0002880905I-0000007874D01*
G01*
X0001827755Y0002880905D01*
G75*
G02*
X0001819881Y0002888779J0000007874D01*
G01*
X0001819881Y0002904527D01*
G75*
G02*
X0001827755Y0002912401I0000007874D01*
G01*
G37*
G36*
G01*
X0001827755Y0002847440D02*
X0001849409Y0002847440D01*
G75*
G02*
X0001857283Y0002839566J-0000007874D01*
G01*
X0001857283Y0002823818D01*
G75*
G02*
X0001849409Y0002815944I-0000007874D01*
G01*
X0001827755Y0002815944D01*
G75*
G02*
X0001819881Y0002823818J0000007874D01*
G01*
X0001819881Y0002839566D01*
G75*
G02*
X0001827755Y0002847440I0000007874D01*
G01*
G37*
G04 next file*
G04 Gerber Fmt 4.6, Leading zero omitted, Abs format (unit mm)*
G04 Created by KiCad (PCBNEW (5.1.8)-1) date 2020-11-23 23:28:54*
G01*
G04 APERTURE LIST*
G04 APERTURE END LIST*
G36*
G01*
X0003315944Y0003130905D02*
X0003315944Y0003081692D01*
G75*
G02*
X0003306102Y0003071850I-0000009842D01*
G01*
X0003281496Y0003071850D01*
G75*
G02*
X0003271653Y0003081692J0000009842D01*
G01*
X0003271653Y0003130905D01*
G75*
G02*
X0003281496Y0003140748I0000009842D01*
G01*
X0003306102Y0003140748D01*
G75*
G02*
X0003315944Y0003130905J-0000009842D01*
G01*
G37*
G36*
G01*
X0003200787Y0003130905D02*
X0003200787Y0003081692D01*
G75*
G02*
X0003190944Y0003071850I-0000009842D01*
G01*
X0003166338Y0003071850D01*
G75*
G02*
X0003156496Y0003081692J0000009842D01*
G01*
X0003156496Y0003130905D01*
G75*
G02*
X0003166338Y0003140748I0000009842D01*
G01*
X0003190944Y0003140748D01*
G75*
G02*
X0003200787Y0003130905J-0000009842D01*
G01*
G37*
G36*
G01*
X0003177165Y0003310039D02*
X0003157480Y0003310039D01*
G75*
G02*
X0003148622Y0003318897J0000008858D01*
G01*
X0003148622Y0003336614D01*
G75*
G02*
X0003157480Y0003345472I0000008858D01*
G01*
X0003177165Y0003345472D01*
G75*
G02*
X0003186023Y0003336614J-0000008858D01*
G01*
X0003186023Y0003318897D01*
G75*
G02*
X0003177165Y0003310039I-0000008858D01*
G01*
G37*
G36*
G01*
X0003177165Y0003249015D02*
X0003157480Y0003249015D01*
G75*
G02*
X0003148622Y0003257874J0000008858D01*
G01*
X0003148622Y0003275590D01*
G75*
G02*
X0003157480Y0003284448I0000008858D01*
G01*
X0003177165Y0003284448D01*
G75*
G02*
X0003186023Y0003275590J-0000008858D01*
G01*
X0003186023Y0003257874D01*
G75*
G02*
X0003177165Y0003249015I-0000008858D01*
G01*
G37*
G36*
G01*
X0003117716Y0003310039D02*
X0003098031Y0003310039D01*
G75*
G02*
X0003089173Y0003318897J0000008858D01*
G01*
X0003089173Y0003336614D01*
G75*
G02*
X0003098031Y0003345472I0000008858D01*
G01*
X0003117716Y0003345472D01*
G75*
G02*
X0003126574Y0003336614J-0000008858D01*
G01*
X0003126574Y0003318897D01*
G75*
G02*
X0003117716Y0003310039I-0000008858D01*
G01*
G37*
G36*
G01*
X0003117716Y0003249015D02*
X0003098031Y0003249015D01*
G75*
G02*
X0003089173Y0003257874J0000008858D01*
G01*
X0003089173Y0003275590D01*
G75*
G02*
X0003098031Y0003284448I0000008858D01*
G01*
X0003117716Y0003284448D01*
G75*
G02*
X0003126574Y0003275590J-0000008858D01*
G01*
X0003126574Y0003257874D01*
G75*
G02*
X0003117716Y0003249015I-0000008858D01*
G01*
G37*
G36*
G01*
X0003059055Y0003248031D02*
X0003039370Y0003248031D01*
G75*
G02*
X0003030511Y0003256889J0000008858D01*
G01*
X0003030511Y0003274606D01*
G75*
G02*
X0003039370Y0003283464I0000008858D01*
G01*
X0003059055Y0003283464D01*
G75*
G02*
X0003067913Y0003274606J-0000008858D01*
G01*
X0003067913Y0003256889D01*
G75*
G02*
X0003059055Y0003248031I-0000008858D01*
G01*
G37*
G36*
G01*
X0003059055Y0003309055D02*
X0003039370Y0003309055D01*
G75*
G02*
X0003030511Y0003317913J0000008858D01*
G01*
X0003030511Y0003335629D01*
G75*
G02*
X0003039370Y0003344488I0000008858D01*
G01*
X0003059055Y0003344488D01*
G75*
G02*
X0003067913Y0003335629J-0000008858D01*
G01*
X0003067913Y0003317913D01*
G75*
G02*
X0003059055Y0003309055I-0000008858D01*
G01*
G37*
G36*
G01*
X0003000000Y0003249015D02*
X0002980314Y0003249015D01*
G75*
G02*
X0002971456Y0003257874J0000008858D01*
G01*
X0002971456Y0003275590D01*
G75*
G02*
X0002980314Y0003284448I0000008858D01*
G01*
X0003000000Y0003284448D01*
G75*
G02*
X0003008858Y0003275590J-0000008858D01*
G01*
X0003008858Y0003257874D01*
G75*
G02*
X0003000000Y0003249015I-0000008858D01*
G01*
G37*
G36*
G01*
X0003000000Y0003310039D02*
X0002980314Y0003310039D01*
G75*
G02*
X0002971456Y0003318897J0000008858D01*
G01*
X0002971456Y0003336614D01*
G75*
G02*
X0002980314Y0003345472I0000008858D01*
G01*
X0003000000Y0003345472D01*
G75*
G02*
X0003008858Y0003336614J-0000008858D01*
G01*
X0003008858Y0003318897D01*
G75*
G02*
X0003000000Y0003310039I-0000008858D01*
G01*
G37*
G36*
G01*
X0003268700Y0003011811D02*
X0003268700Y0003031496D01*
G75*
G02*
X0003277559Y0003040354I0000008858D01*
G01*
X0003295275Y0003040354D01*
G75*
G02*
X0003304133Y0003031496J-0000008858D01*
G01*
X0003304133Y0003011811D01*
G75*
G02*
X0003295275Y0003002952I-0000008858D01*
G01*
X0003277559Y0003002952D01*
G75*
G02*
X0003268700Y0003011811J0000008858D01*
G01*
G37*
G36*
G01*
X0003207677Y0003011811D02*
X0003207677Y0003031496D01*
G75*
G02*
X0003216535Y0003040354I0000008858D01*
G01*
X0003234251Y0003040354D01*
G75*
G02*
X0003243110Y0003031496J-0000008858D01*
G01*
X0003243110Y0003011811D01*
G75*
G02*
X0003234251Y0003002952I-0000008858D01*
G01*
X0003216535Y0003002952D01*
G75*
G02*
X0003207677Y0003011811J0000008858D01*
G01*
G37*
G36*
G01*
X0002727165Y0003122440D02*
X0002727165Y0003142125D01*
G75*
G02*
X0002736023Y0003150984I0000008858D01*
G01*
X0002753740Y0003150984D01*
G75*
G02*
X0002762598Y0003142125J-0000008858D01*
G01*
X0002762598Y0003122440D01*
G75*
G02*
X0002753740Y0003113582I-0000008858D01*
G01*
X0002736023Y0003113582D01*
G75*
G02*
X0002727165Y0003122440J0000008858D01*
G01*
G37*
G36*
G01*
X0002788188Y0003122440D02*
X0002788188Y0003142125D01*
G75*
G02*
X0002797047Y0003150984I0000008858D01*
G01*
X0002814763Y0003150984D01*
G75*
G02*
X0002823622Y0003142125J-0000008858D01*
G01*
X0002823622Y0003122440D01*
G75*
G02*
X0002814763Y0003113582I-0000008858D01*
G01*
X0002797047Y0003113582D01*
G75*
G02*
X0002788188Y0003122440J0000008858D01*
G01*
G37*
G36*
G01*
X0002788385Y0003183070D02*
X0002788385Y0003202755D01*
G75*
G02*
X0002797244Y0003211614I0000008858D01*
G01*
X0002814960Y0003211614D01*
G75*
G02*
X0002823818Y0003202755J-0000008858D01*
G01*
X0002823818Y0003183070D01*
G75*
G02*
X0002814960Y0003174212I-0000008858D01*
G01*
X0002797244Y0003174212D01*
G75*
G02*
X0002788385Y0003183070J0000008858D01*
G01*
G37*
G36*
G01*
X0002727362Y0003183070D02*
X0002727362Y0003202755D01*
G75*
G02*
X0002736220Y0003211614I0000008858D01*
G01*
X0002753937Y0003211614D01*
G75*
G02*
X0002762795Y0003202755J-0000008858D01*
G01*
X0002762795Y0003183070D01*
G75*
G02*
X0002753937Y0003174212I-0000008858D01*
G01*
X0002736220Y0003174212D01*
G75*
G02*
X0002727362Y0003183070J0000008858D01*
G01*
G37*
G36*
G01*
X0003107283Y0003208661D02*
X0003107283Y0003188976D01*
G75*
G02*
X0003098425Y0003180118I-0000008858D01*
G01*
X0003080708Y0003180118D01*
G75*
G02*
X0003071850Y0003188976J0000008858D01*
G01*
X0003071850Y0003208661D01*
G75*
G02*
X0003080708Y0003217519I0000008858D01*
G01*
X0003098425Y0003217519D01*
G75*
G02*
X0003107283Y0003208661J-0000008858D01*
G01*
G37*
G36*
G01*
X0003046259Y0003208661D02*
X0003046259Y0003188976D01*
G75*
G02*
X0003037401Y0003180118I-0000008858D01*
G01*
X0003019685Y0003180118D01*
G75*
G02*
X0003010826Y0003188976J0000008858D01*
G01*
X0003010826Y0003208661D01*
G75*
G02*
X0003019685Y0003217519I0000008858D01*
G01*
X0003037401Y0003217519D01*
G75*
G02*
X0003046259Y0003208661J-0000008858D01*
G01*
G37*
G36*
G01*
X0002725393Y0003245078D02*
X0002725393Y0003264763D01*
G75*
G02*
X0002734251Y0003273622I0000008858D01*
G01*
X0002751968Y0003273622D01*
G75*
G02*
X0002760826Y0003264763J-0000008858D01*
G01*
X0002760826Y0003245078D01*
G75*
G02*
X0002751968Y0003236220I-0000008858D01*
G01*
X0002734251Y0003236220D01*
G75*
G02*
X0002725393Y0003245078J0000008858D01*
G01*
G37*
G36*
G01*
X0002786417Y0003245078D02*
X0002786417Y0003264763D01*
G75*
G02*
X0002795275Y0003273622I0000008858D01*
G01*
X0002812992Y0003273622D01*
G75*
G02*
X0002821850Y0003264763J-0000008858D01*
G01*
X0002821850Y0003245078D01*
G75*
G02*
X0002812992Y0003236220I-0000008858D01*
G01*
X0002795275Y0003236220D01*
G75*
G02*
X0002786417Y0003245078J0000008858D01*
G01*
G37*
G36*
G01*
X0003146653Y0002637795D02*
X0003146653Y0002618110D01*
G75*
G02*
X0003137795Y0002609251I-0000008858D01*
G01*
X0003120078Y0002609251D01*
G75*
G02*
X0003111220Y0002618110J0000008858D01*
G01*
X0003111220Y0002637795D01*
G75*
G02*
X0003120078Y0002646653I0000008858D01*
G01*
X0003137795Y0002646653D01*
G75*
G02*
X0003146653Y0002637795J-0000008858D01*
G01*
G37*
G36*
G01*
X0003085629Y0002637795D02*
X0003085629Y0002618110D01*
G75*
G02*
X0003076771Y0002609251I-0000008858D01*
G01*
X0003059055Y0002609251D01*
G75*
G02*
X0003050196Y0002618110J0000008858D01*
G01*
X0003050196Y0002637795D01*
G75*
G02*
X0003059055Y0002646653I0000008858D01*
G01*
X0003076771Y0002646653D01*
G75*
G02*
X0003085629Y0002637795J-0000008858D01*
G01*
G37*
G36*
G01*
X0003442913Y0002788385D02*
X0003423228Y0002788385D01*
G75*
G02*
X0003414370Y0002797244J0000008858D01*
G01*
X0003414370Y0002814960D01*
G75*
G02*
X0003423228Y0002823818I0000008858D01*
G01*
X0003442913Y0002823818D01*
G75*
G02*
X0003451771Y0002814960J-0000008858D01*
G01*
X0003451771Y0002797244D01*
G75*
G02*
X0003442913Y0002788385I-0000008858D01*
G01*
G37*
G36*
G01*
X0003442913Y0002727362D02*
X0003423228Y0002727362D01*
G75*
G02*
X0003414370Y0002736220J0000008858D01*
G01*
X0003414370Y0002753937D01*
G75*
G02*
X0003423228Y0002762795I0000008858D01*
G01*
X0003442913Y0002762795D01*
G75*
G02*
X0003451771Y0002753937J-0000008858D01*
G01*
X0003451771Y0002736220D01*
G75*
G02*
X0003442913Y0002727362I-0000008858D01*
G01*
G37*
G36*
G01*
X0003344488Y0002762795D02*
X0003364173Y0002762795D01*
G75*
G02*
X0003373031Y0002753937J-0000008858D01*
G01*
X0003373031Y0002736220D01*
G75*
G02*
X0003364173Y0002727362I-0000008858D01*
G01*
X0003344488Y0002727362D01*
G75*
G02*
X0003335629Y0002736220J0000008858D01*
G01*
X0003335629Y0002753937D01*
G75*
G02*
X0003344488Y0002762795I0000008858D01*
G01*
G37*
G36*
G01*
X0003344488Y0002823818D02*
X0003364173Y0002823818D01*
G75*
G02*
X0003373031Y0002814960J-0000008858D01*
G01*
X0003373031Y0002797244D01*
G75*
G02*
X0003364173Y0002788385I-0000008858D01*
G01*
X0003344488Y0002788385D01*
G75*
G02*
X0003335629Y0002797244J0000008858D01*
G01*
X0003335629Y0002814960D01*
G75*
G02*
X0003344488Y0002823818I0000008858D01*
G01*
G37*
G36*
G01*
X0003274606Y0002755905D02*
X0003296259Y0002755905D01*
G75*
G02*
X0003304133Y0002748031J-0000007874D01*
G01*
X0003304133Y0002732283D01*
G75*
G02*
X0003296259Y0002724409I-0000007874D01*
G01*
X0003274606Y0002724409D01*
G75*
G02*
X0003266732Y0002732283J0000007874D01*
G01*
X0003266732Y0002748031D01*
G75*
G02*
X0003274606Y0002755905I0000007874D01*
G01*
G37*
G36*
G01*
X0003274606Y0002820866D02*
X0003296259Y0002820866D01*
G75*
G02*
X0003304133Y0002812992J-0000007874D01*
G01*
X0003304133Y0002797244D01*
G75*
G02*
X0003296259Y0002789370I-0000007874D01*
G01*
X0003274606Y0002789370D01*
G75*
G02*
X0003266732Y0002797244J0000007874D01*
G01*
X0003266732Y0002812992D01*
G75*
G02*
X0003274606Y0002820866I0000007874D01*
G01*
G37*
D28*
X0003157480Y0002858267D03*
X0003027559Y0002858267D03*
X0003155511Y0003021653D03*
X0003025590Y0003021653D03*
G36*
G01*
X0002890748Y0002912401D02*
X0002912401Y0002912401D01*
G75*
G02*
X0002920275Y0002904527J-0000007874D01*
G01*
X0002920275Y0002888779D01*
G75*
G02*
X0002912401Y0002880905I-0000007874D01*
G01*
X0002890748Y0002880905D01*
G75*
G02*
X0002882874Y0002888779J0000007874D01*
G01*
X0002882874Y0002904527D01*
G75*
G02*
X0002890748Y0002912401I0000007874D01*
G01*
G37*
G36*
G01*
X0002890748Y0002847440D02*
X0002912401Y0002847440D01*
G75*
G02*
X0002920275Y0002839566J-0000007874D01*
G01*
X0002920275Y0002823818D01*
G75*
G02*
X0002912401Y0002815944I-0000007874D01*
G01*
X0002890748Y0002815944D01*
G75*
G02*
X0002882874Y0002823818J0000007874D01*
G01*
X0002882874Y0002839566D01*
G75*
G02*
X0002890748Y0002847440I0000007874D01*
G01*
G37*
M02*